<svg width="1920" height="1194" viewBox="0 0 1920 1194" fill="none" xmlns="http://www.w3.org/2000/svg">
<rect x="-69" width="2004" height="1194" fill="url(#paint0_linear_423_1511)"/>
<mask id="mask0_423_1511" style="mask-type:alpha" maskUnits="userSpaceOnUse" x="-69" y="0" width="2004" height="1194">
<rect x="-69" width="2004" height="1194" fill="url(#paint1_linear_423_1511)"/>
</mask>
<g mask="url(#mask0_423_1511)">
<path opacity="0.2" d="M2972.75 422.938L2884.7 -539L1769.78 -436.946C1783.01 -434.2 1796.32 -431.821 1809.23 -429.496C1972.05 -385.034 2096.19 -265.024 2096.19 -265.024C2096.19 -265.024 2140.7 -217.46 2137.56 -188.844C2133.27 -150.048 1885.53 -108.125 1839.63 -94.0311C1724.56 -58.7207 1601.85 -39.0344 1494.4 9.96712C1386.91 59.0183 1293.84 149.109 1304.53 245.53C1312.22 315.425 1372.42 375.479 1374.9 445.761C1377.27 515.513 1321.2 581.172 1252.12 626.258C1177.66 674.848 1085.71 705.703 991.674 713.682C910.294 720.591 824.397 711.456 749.833 740.405C674.017 769.874 627.646 831.812 576.897 886.011C526.205 940.206 455.073 993.708 372.374 990.53C263.85 986.389 199.037 888.177 93.2033 870.884C4.3337 856.399 -84.003 902.618 -157.889 948.233C-187.698 966.655 -217.954 985.748 -253.081 996.023C-303.926 1010.93 -359.704 1005.87 -410.491 994.288C-414.872 993.295 -419.26 992.213 -423.593 991.126L-405.494 1188.86C-309.562 1188.62 -211.711 1145.22 -117.354 1159.83C-0.842145 1177.85 66.478 1276.33 176.45 1310.47C281.893 1343.22 403.714 1310.71 509.258 1271.19C794.889 1164.19 1051.5 1004.72 1348.55 922.537C1401.62 907.876 1462.47 896.235 1509.92 917.613C1555.31 938.101 1573.94 983.117 1576.12 1025.46C1578.3 1067.75 1567.71 1110.5 1571.12 1152.72C1572.71 1171.91 1578.2 1192.41 1596.46 1204.46C1616.04 1217.37 1644.56 1216.96 1670.45 1214.91C1988.87 1189.81 2260.97 1014.53 2505.51 842.762C2650.6 740.804 2795.44 635.992 2905.83 509.511C2930.05 481.753 2952.57 452.8 2972.75 422.938Z" fill="url(#paint2_linear_423_1511)"/>
</g>
<defs>
<linearGradient id="paint0_linear_423_1511" x1="-69" y1="596.993" x2="1935" y2="596.993" gradientUnits="userSpaceOnUse">
<stop stop-color="#5FB572"/>
<stop offset="1" stop-color="#4BE96E"/>
</linearGradient>
<linearGradient id="paint1_linear_423_1511" x1="-69" y1="596.993" x2="1935" y2="596.993" gradientUnits="userSpaceOnUse">
<stop stop-color="#148EFF" stop-opacity="0.61"/>
<stop offset="1" stop-color="#7A14FF"/>
</linearGradient>
<linearGradient id="paint2_linear_423_1511" x1="-460.436" y1="588.625" x2="2959.27" y2="275.604" gradientUnits="userSpaceOnUse">
<stop stop-color="white" stop-opacity="0.61"/>
<stop offset="1" stop-color="white"/>
</linearGradient>
</defs>
</svg>
