<svg width="351" height="247" viewBox="0 0 351 247" fill="none" xmlns="http://www.w3.org/2000/svg">
<rect width="351" height="247" rx="20" fill="white"/>
<g clip-path="url(#clip0_423_1506)">
<path fill-rule="evenodd" clip-rule="evenodd" d="M182.131 206.276C194.784 206.759 242.855 208.591 281.154 173.726C284.153 170.997 324.417 133.219 320.763 81.4123C319.951 69.8886 318.762 53.0357 306.847 43.5263C290.271 30.2978 258.031 45.8987 221.205 62.7361C193.398 75.4497 189.797 81.0461 173.031 83.0132C146.83 86.088 124.047 76.1267 116.829 72.8746C89.0446 60.3566 85.7655 46.1274 64.9086 44.5934C63.7954 44.5114 39.9056 43.0507 30.6519 56.8664C19.7094 73.2031 36.0929 100.657 44.0335 113.962C52.8019 128.655 97.1919 203.039 182.131 206.276Z" fill="#F4F9F5"/>
<path fill-rule="evenodd" clip-rule="evenodd" d="M271.324 131.94C274.225 133.935 282.937 130.208 286.998 131.119C288.189 131.386 289.425 131.774 290.245 132.676C292.225 134.856 290.381 138.634 287.641 139.724C284.901 140.815 281.823 140.155 278.901 139.749C275.165 139.231 271.21 139.189 267.792 140.781C267.277 141.021 266.754 141.318 266.457 141.802C265.704 143.028 266.784 144.577 267.963 145.405C271.785 148.088 276.82 147.989 281.408 148.885C282.454 149.09 283.597 149.426 284.146 150.336C284.681 151.222 284.467 152.371 284.047 153.317C282.498 156.81 278.551 158.741 274.732 159.045C270.913 159.35 267.13 158.33 263.405 157.434C259.68 156.538 255.795 155.756 252.044 156.534C250.324 156.89 248.315 158.617 249.373 160.015C249.7 160.447 250.238 160.659 250.754 160.828C256.916 162.846 263.822 161.675 269.9 163.933C272.844 165.027 275.787 167.503 275.544 170.626C275.385 172.668 273.839 174.401 272.006 175.327C270.174 176.252 268.082 176.503 266.035 176.668C259.782 177.169 253.493 176.997 247.277 176.155C242.242 175.473 236.285 174.647 232.826 178.36C232.043 179.2 231.449 180.283 231.466 181.429C231.494 183.267 233.101 184.77 234.857 185.33C236.614 185.891 238.506 185.731 240.349 185.646C244.22 185.468 248.1 185.651 251.938 186.192C253.851 186.462 255.921 186.916 257.133 188.417C258.769 190.445 258.029 193.667 256.113 195.433C254.197 197.199 251.468 197.787 248.862 197.934C240.337 198.412 232.057 194.953 223.527 194.596C221.636 194.517 219.583 194.647 218.127 195.852C216.67 197.057 216.339 199.69 217.933 200.707C218.54 201.094 219.286 201.177 220.003 201.25L235.588 202.848C237.41 203.034 239.379 203.286 240.695 204.556C242.759 206.549 242.099 210.239 240.021 212.217C237.942 214.194 234.945 214.842 232.09 215.169C227.245 215.725 203.476 214.433 198.6 214.306L195.65 211.744C194.83 206.951 190.163 183.681 190.025 178.82C189.943 175.957 190.16 172.908 191.827 170.575C193.495 168.242 197.065 167.065 199.337 168.819C200.785 169.936 201.315 171.843 201.76 173.614C203.028 178.664 204.297 183.715 205.565 188.766C205.74 189.462 205.929 190.187 206.4 190.731C207.636 192.159 210.203 191.457 211.192 189.848C212.182 188.24 212.018 186.195 211.669 184.341C210.1 175.974 205.487 168.296 204.749 159.817C204.523 157.225 204.718 154.448 206.199 152.306C207.68 150.163 210.775 148.975 213.02 150.301C214.683 151.282 215.429 153.26 215.969 155.11C217.053 158.82 217.786 162.622 218.161 166.468C218.339 168.298 218.45 170.188 219.257 171.841C220.063 173.494 221.784 174.867 223.614 174.632C224.755 174.486 225.746 173.745 226.468 172.853C229.66 168.911 227.994 163.151 226.599 158.28C224.879 152.266 223.813 146.085 223.42 139.844C223.292 137.8 223.243 135.699 223.901 133.76C224.559 131.82 226.061 130.048 228.065 129.6C231.131 128.915 234.009 131.467 235.514 134.216C238.621 139.892 238.442 146.873 241.322 152.666C241.564 153.151 241.85 153.652 242.326 153.913C243.864 154.759 245.293 152.53 245.402 150.783C245.639 146.97 244.31 143.248 242.891 139.7C241.471 136.152 239.919 132.564 239.678 128.752C239.437 124.94 240.791 120.771 244.039 118.745C244.919 118.196 246.029 117.822 246.984 118.223C247.967 118.636 248.463 119.715 248.815 120.718C250.357 125.118 250.976 130.1 254.185 133.49C255.174 134.535 256.867 135.381 257.977 134.463C258.415 134.101 258.635 133.543 258.8 133C259.895 129.402 259.29 125.504 258.243 121.891C257.425 119.066 256.331 116.123 257.023 113.264C257.716 110.405 261.204 108.047 263.65 109.69C264.662 110.371 265.223 111.536 265.658 112.674C267.14 116.551 263.573 127.851 267.074 128.256C267.765 128.336 271.18 126.192 271.239 120.71C271.297 115.229 274.907 108.338 280.212 113.143C285.516 117.948 278.447 120.532 275.165 123.411C271.884 126.291 270.016 131.04 271.324 131.94Z" fill="#B2BDB4"/>
<path fill-rule="evenodd" clip-rule="evenodd" d="M197.763 212.436L197.486 212.212C197.824 211.797 231.485 170.58 248.886 154.209C261.39 142.446 269.117 128.951 269.193 128.816L269.504 128.991C269.427 129.126 261.674 142.669 249.131 154.468C231.747 170.823 198.1 212.022 197.763 212.436Z" fill="white"/>
<path fill-rule="evenodd" clip-rule="evenodd" d="M185.156 213.079C185.156 213.079 162.822 144.263 239.404 84.6135C239.404 84.6135 253.246 173.178 185.156 213.079Z" fill="#FFC266"/>
<path d="M237.594 87.7864L187.653 207.456L187.982 207.593L237.923 87.923L237.594 87.7864Z" fill="white"/>
<path fill-rule="evenodd" clip-rule="evenodd" d="M69.2734 184.27C69.2734 184.27 118.415 237.815 178.197 215.09C178.197 215.09 145.877 166.187 69.2734 184.27Z" fill="#D088FF"/>
<path d="M74.3837 185.295L74.2874 185.637L172.24 213.028L172.337 212.686L74.3837 185.295Z" fill="white"/>
<path fill-rule="evenodd" clip-rule="evenodd" d="M124.929 85.0601C124.929 85.0601 120.36 183.038 178.486 215.04C178.486 215.04 191.412 137.02 124.929 85.0601Z" fill="#B2BDB4"/>
<path d="M129.276 93.0851L128.945 93.2183L176.047 209.545L176.378 209.412L129.276 93.0851Z" fill="white"/>
<path fill-rule="evenodd" clip-rule="evenodd" d="M160.992 217.351C160.992 217.351 159.681 155.134 82.3682 127.807C82.3682 127.807 95.8867 203.748 160.992 217.351Z" fill="#FFC266"/>
<path d="M84.8187 130.388L84.549 130.621L155.527 212.415L155.797 212.183L84.8187 130.388Z" fill="white"/>
<path fill-rule="evenodd" clip-rule="evenodd" d="M171.961 84.6141C168.708 84.9061 168.438 87.9039 164.646 88.883C161.786 89.6206 157.663 89.0212 155.189 86.037C152.804 83.1598 152.598 78.8454 154.297 76.0763C156.41 72.6328 159.885 74.1618 163.754 70.3844C166.183 68.0113 165.358 66.8742 168.749 60.4237C171.646 54.9142 173.094 52.1595 175.885 50.6409C180.705 48.0198 186.759 50.4214 189.445 51.7082C190.246 47.0569 193.29 43.3564 197.118 42.4589C203.515 40.959 210.806 47.5949 209.785 53.131C209.189 56.364 205.798 59.0097 201.578 60.0679C202.846 62.8638 203.515 65.8929 203.541 68.9613C203.549 74.5525 201.253 76.6015 202.649 79.6334C204.413 83.466 209.217 82.6541 210.321 86.2145C211.178 88.9815 209.339 92.8995 206.753 93.8629C203.666 95.0122 201.702 91.1418 196.583 91.5506C193.136 91.826 193.064 93.6569 189.981 93.6851C187.8 93.7049 186.739 92.7986 179.633 88.3489C174.105 84.888 173.249 84.4984 171.961 84.6141Z" fill="#2C243D"/>
<path fill-rule="evenodd" clip-rule="evenodd" d="M171.961 61.6689C171.961 61.6689 160.007 86.7489 176.064 88.883L174.994 100.267C174.994 100.267 175.886 107.737 182.666 107.737C189.446 107.737 191.587 101.334 191.587 101.334L190.516 83.0135C190.516 83.0135 199.973 72.875 190.695 73.9422C190.695 73.9422 191.052 68.962 183.559 69.1393C176.066 69.3167 171.961 61.6689 171.961 61.6689Z" fill="#FFD5C0"/>
<path fill-rule="evenodd" clip-rule="evenodd" d="M113.796 113.073C113.796 113.073 111.298 107.737 109.871 106.314C108.443 104.891 104.875 109.16 97.9165 108.982C90.9583 108.804 84.1781 106.848 83.4644 105.958C82.7508 105.069 83.1076 111.828 92.3854 115.03C101.663 118.231 105.053 113.251 107.551 119.121C110.049 124.99 113.796 113.073 113.796 113.073Z" fill="#FFD5C0"/>
<path fill-rule="evenodd" clip-rule="evenodd" d="M251.834 113.073C251.834 113.073 254.332 107.737 255.76 106.314C257.187 104.891 260.755 109.16 267.714 108.982C274.672 108.804 281.452 106.848 282.166 105.958C282.879 105.069 282.522 111.828 273.245 115.03C263.967 118.231 260.577 113.251 258.079 119.121C255.581 124.99 251.834 113.073 251.834 113.073Z" fill="#FFD5C0"/>
<path fill-rule="evenodd" clip-rule="evenodd" d="M154.654 102.934C150.907 107.737 134.849 140.821 134.849 140.821L114.153 112.006L104.518 119.299C104.518 119.299 130.746 162.699 136.634 162.699C142.522 162.699 156.974 136.908 156.974 136.908C164.467 128.014 168.571 100.978 154.654 102.934Z" fill="#3EA455"/>
<path fill-rule="evenodd" clip-rule="evenodd" d="M210.781 102.934C214.528 107.737 230.585 140.821 230.585 140.821L251.282 112.006L260.917 119.299C260.917 119.299 234.689 162.699 228.802 162.699C222.916 162.699 208.462 136.908 208.462 136.908C200.968 128.014 196.864 100.978 210.781 102.934Z" fill="#3EA455"/>
<path fill-rule="evenodd" clip-rule="evenodd" d="M203.608 167.673C204.113 164.907 207.387 146.76 209.251 130.682C210.218 122.125 210.754 113.525 210.857 104.914C210.856 102.249 208.689 100.089 206.016 100.088C206.016 100.088 203.9 99.7483 200.557 99.3505C195.884 98.7973 188.813 98.1321 181.775 98.1321C176.302 98.1321 170.841 98.5875 166.655 99.0587C162.164 99.5639 159.138 100.089 159.138 100.089C156.465 100.089 154.298 102.249 154.298 104.914C154.412 113.543 155.127 122.153 156.439 130.683C158.877 146.187 163.181 163.619 163.981 166.808C147.875 187.245 151.265 215.882 151.265 215.882C152.692 227.444 215.675 222.463 215.318 216.416C215.014 211.286 217.28 181.198 203.608 167.673Z" fill="#5BC272"/>
<path d="M184.807 123.923C185.595 123.923 186.234 123.286 186.234 122.5C186.234 121.714 185.595 121.077 184.807 121.077C184.019 121.077 183.38 121.714 183.38 122.5C183.38 123.286 184.019 123.923 184.807 123.923Z" fill="#FF90C6"/>
<path d="M184.807 128.903C185.595 128.903 186.234 128.266 186.234 127.48C186.234 126.694 185.595 126.057 184.807 126.057C184.019 126.057 183.38 126.694 183.38 127.48C183.38 128.266 184.019 128.903 184.807 128.903Z" fill="#FF90C6"/>
<path d="M184.807 133.884C185.595 133.884 186.234 133.247 186.234 132.461C186.234 131.675 185.595 131.038 184.807 131.038C184.019 131.038 183.38 131.675 183.38 132.461C183.38 133.247 184.019 133.884 184.807 133.884Z" fill="#FF90C6"/>
<path d="M184.807 138.864C185.595 138.864 186.234 138.227 186.234 137.441C186.234 136.655 185.595 136.018 184.807 136.018C184.019 136.018 183.38 136.655 183.38 137.441C183.38 138.227 184.019 138.864 184.807 138.864Z" fill="#FF90C6"/>
<path fill-rule="evenodd" clip-rule="evenodd" d="M200.556 99.3506C197.96 101.341 184.807 119.299 184.807 119.299C184.807 119.299 172.139 102.223 166.654 99.059C170.84 98.5876 176.658 97.5986 182.13 97.5986C189.169 97.5986 195.883 98.7976 200.556 99.3506Z" fill="#FFD5C0"/>
<path fill-rule="evenodd" clip-rule="evenodd" d="M107.624 92.4279C107.729 92.3176 107.832 92.2048 107.934 92.0924C108.052 91.9637 108.17 91.8349 108.284 91.7034C108.384 91.5886 108.482 91.4716 108.578 91.3547C108.69 91.2206 108.801 91.0859 108.91 90.949C109.003 90.8303 109.095 90.7099 109.186 90.5884C109.291 90.4486 109.396 90.3084 109.498 90.1663C109.586 90.0434 109.672 89.9193 109.757 89.7945C109.856 89.6499 109.955 89.5047 110.049 89.3575C110.132 89.2311 110.211 89.1034 110.29 88.9752C110.383 88.8254 110.474 88.6747 110.562 88.523C110.638 88.3934 110.712 88.2629 110.785 88.1315C110.87 87.9771 110.954 87.8216 111.036 87.665C111.105 87.5323 111.173 87.3989 111.239 87.2646C111.318 87.1056 111.394 86.9455 111.469 86.7843C111.531 86.6488 111.593 86.5125 111.653 86.3756C111.724 86.2125 111.793 86.0478 111.86 85.8838C111.916 85.7453 111.972 85.6067 112.024 85.467C112.088 85.3001 112.148 85.1319 112.208 84.9631C112.257 84.8223 112.306 84.6815 112.353 84.5394C112.409 84.3682 112.461 84.1951 112.513 84.0232C112.556 83.8806 112.599 83.7381 112.638 83.5942C112.686 83.4193 112.73 83.2429 112.774 83.0665C112.81 82.9224 112.846 82.7785 112.878 82.6334C112.918 82.4546 112.954 82.2743 112.989 82.094C113.018 81.9489 113.047 81.804 113.073 81.6578C113.104 81.4747 113.131 81.2903 113.158 81.106C113.179 80.9606 113.202 80.8157 113.22 80.6695C113.243 80.4818 113.26 80.2925 113.279 80.1043C113.292 79.9594 113.308 79.815 113.319 79.6693C113.334 79.4768 113.341 79.2831 113.35 79.0895C113.357 78.9459 113.367 78.8029 113.37 78.6588C113.375 78.459 113.372 78.2584 113.371 78.0574C113.371 77.9182 113.374 77.7796 113.37 77.6401C113.365 77.4291 113.352 77.2173 113.34 77.0057C113.333 76.8746 113.329 76.7446 113.32 76.6134C113.302 76.3792 113.276 76.1441 113.25 75.9086C113.238 75.7992 113.231 75.6904 113.217 75.5807C113.174 75.2358 113.122 74.8902 113.062 74.5439C113.002 74.1976 112.932 73.8557 112.854 73.5183C112.826 73.3953 112.792 73.2753 112.762 73.1532C112.709 72.9401 112.658 72.7252 112.599 72.5139C112.559 72.3711 112.512 72.2315 112.469 72.0902C112.413 71.904 112.358 71.7168 112.297 71.5328C112.248 71.384 112.191 71.2378 112.138 71.0916C112.076 70.9194 112.016 70.7462 111.949 70.5765C111.89 70.426 111.826 70.279 111.764 70.1305C111.696 69.9682 111.63 69.8056 111.558 69.6456C111.491 69.4958 111.419 69.3491 111.348 69.2011C111.275 69.047 111.202 68.8922 111.125 68.7408C111.049 68.5932 110.97 68.4478 110.891 68.3021C110.812 68.1564 110.733 68.0071 110.65 67.8631C110.568 67.7192 110.481 67.5758 110.394 67.433C110.308 67.2902 110.225 67.1512 110.137 67.013C110.046 66.8714 109.953 66.7329 109.859 66.5939C109.769 66.4595 109.678 66.3247 109.585 66.1926C109.487 66.0551 109.387 65.9202 109.286 65.7851C109.191 65.6566 109.095 65.5282 108.996 65.4022C108.892 65.2689 108.785 65.1383 108.678 65.0078C108.577 64.885 108.476 64.7619 108.372 64.6424C108.262 64.5141 108.149 64.3878 108.036 64.2624C107.93 64.1456 107.823 64.0298 107.715 63.9151C107.598 63.7916 107.48 63.6699 107.36 63.55C107.249 63.4389 107.138 63.329 107.025 63.2204C106.902 63.1025 106.778 62.9862 106.653 62.8716C106.538 62.7662 106.421 62.6624 106.304 62.5601C106.176 62.4481 106.046 62.3375 105.916 62.2283C105.796 62.1289 105.676 62.0309 105.554 61.9344C105.421 61.8282 105.286 61.7233 105.15 61.6205C105.026 61.5267 104.901 61.4353 104.775 61.3446C104.637 61.2448 104.498 61.1458 104.358 61.0496C104.229 60.9617 104.099 60.8766 103.969 60.7919C103.826 60.6985 103.683 60.6057 103.538 60.516C103.407 60.434 103.272 60.3557 103.138 60.2772C102.99 60.1906 102.844 60.1041 102.694 60.0211C102.559 59.9459 102.421 59.8736 102.283 59.8015C102.132 59.7218 101.981 59.642 101.827 59.5658C101.688 59.4967 101.547 59.4315 101.406 59.3654C101.251 59.293 101.096 59.2197 100.939 59.1512C100.796 59.0884 100.651 59.0301 100.507 58.9709C100.348 58.9053 100.191 58.8397 100.03 58.7783C99.8836 58.7222 99.7354 58.6711 99.5876 58.6185C99.4261 58.5606 99.2653 58.5014 99.1024 58.4476C98.9529 58.3985 98.8011 58.3544 98.6505 58.3083C98.4861 58.2591 98.323 58.2064 98.1572 58.1608C98.005 58.1187 97.8511 58.0821 97.6968 58.0434C97.5298 58.0011 97.3634 57.9562 97.195 57.918C97.0403 57.8829 96.8839 57.8544 96.728 57.8228C96.5585 57.7885 96.3899 57.7511 96.2193 57.7208C96.0621 57.6931 95.9032 57.6716 95.7452 57.6482C95.5735 57.6218 95.4027 57.5921 95.2299 57.5702C95.0949 57.5538 94.9581 57.5428 94.8226 57.5282C94.4608 57.4894 94.097 57.4603 93.7311 57.4408C93.5667 57.432 93.4023 57.4195 93.2362 57.4144C93.064 57.4094 92.8909 57.412 92.7177 57.411C92.5505 57.411 92.3841 57.4064 92.2164 57.4095C92.0421 57.413 91.8668 57.4238 91.692 57.4313C91.5245 57.4389 91.3571 57.4436 91.189 57.4551C91.0129 57.4672 90.8363 57.4864 90.6601 57.5031C90.5162 57.5167 90.3733 57.5256 90.2293 57.5421V57.5451C89.8211 57.592 89.4122 57.6477 89.0024 57.7193C77.6988 59.6965 70.1431 70.4343 72.1264 81.703C74.1096 92.9717 84.8808 100.504 96.1844 98.5269C96.5943 98.4553 96.9977 98.3688 97.3972 98.2743V98.277C97.5238 98.2471 97.6473 98.2114 97.7728 98.1786C97.9611 98.1304 98.15 98.0844 98.3358 98.0311C98.4808 97.9896 98.6231 97.9424 98.7666 97.898C98.9501 97.8414 99.1348 97.787 99.3156 97.7257C99.4564 97.6778 99.5938 97.6241 99.7331 97.5734C99.913 97.5078 100.095 97.4452 100.272 97.3751C100.403 97.3229 100.532 97.2651 100.662 97.2102C101.041 97.0514 101.414 96.8823 101.78 96.703C101.884 96.6525 101.989 96.6055 102.091 96.5532C102.237 96.4786 102.378 96.3978 102.522 96.3197C102.672 96.2378 102.824 96.1598 102.972 96.0739C103.11 95.9947 103.244 95.9099 103.379 95.828C103.527 95.738 103.678 95.6501 103.823 95.5567C103.955 95.4716 104.084 95.3816 104.214 95.2944C104.358 95.1974 104.504 95.1018 104.645 95.0013C104.773 94.911 104.896 94.8161 105.02 94.7227C105.16 94.6186 105.301 94.5158 105.438 94.4084C105.56 94.3127 105.677 94.2132 105.797 94.1148C105.931 94.0044 106.067 93.8949 106.198 93.7809C106.315 93.6801 106.428 93.5757 106.542 93.4723C106.671 93.3556 106.801 93.2395 106.927 93.1195C107.038 93.0138 107.145 92.9051 107.254 92.7971C107.38 92.6764 107.504 92.5538 107.624 92.4279Z" fill="#FB665D"/>
<path fill-rule="evenodd" clip-rule="evenodd" d="M77.0394 80.8453C75.935 74.5729 78.7295 68.255 84.1199 64.8376C89.5102 61.4203 96.4347 61.5765 101.664 65.2335C106.894 68.8905 109.399 75.328 108.011 81.5442C106.623 87.7603 101.616 92.5308 95.3239 93.6312C86.7332 95.1334 78.5474 89.4092 77.0394 80.8453Z" fill="#FB665D"/>
<path d="M96.6109 73.9046C96.4008 73.746 96.1717 73.6139 95.9291 73.5112C95.6045 73.3682 95.2696 73.2498 94.9272 73.1571C94.5287 73.0491 94.1222 72.9731 93.7116 72.9301C93.2726 72.8827 92.83 72.8785 92.3902 72.9175L93.1366 77.6194L93.5836 77.6417C94.3642 77.7001 95.1408 77.8029 95.9097 77.9495C96.5425 78.065 97.1545 78.2744 97.7251 78.5708C98.2272 78.8403 98.6596 79.2225 98.9881 79.6873C99.3459 80.2255 99.575 80.8386 99.6575 81.4791C99.7906 82.1854 99.7541 82.9131 99.5511 83.6027C99.3581 84.2072 99.0254 84.7582 98.58 85.2113C98.1077 85.6863 97.5511 86.0699 96.9383 86.3423C96.2602 86.6485 95.5455 86.8669 94.8118 86.9924L95.1899 89.3778L94.0051 89.564L93.6198 87.1344C92.5429 87.2326 91.4576 87.1804 90.3952 86.9791C89.3627 86.7839 88.368 86.426 87.4484 85.9189L88.2645 83.5556C88.5189 83.7457 88.7948 83.9053 89.0867 84.031C89.4794 84.2078 89.8852 84.3541 90.3005 84.4687C90.7872 84.6049 91.2833 84.7054 91.7848 84.7695C92.3262 84.8417 92.873 84.8646 93.4185 84.8378L92.6722 80.1364C92.5767 80.1208 92.477 80.1089 92.3748 80.1017C92.2751 80.0954 92.1758 80.084 92.0773 80.0676C91.3335 79.9976 90.5943 79.8848 89.8636 79.7297C89.2908 79.6144 88.7409 79.4062 88.2357 79.1134C87.8015 78.8562 87.4306 78.5051 87.1505 78.0861C86.8507 77.6077 86.6578 77.0706 86.5849 76.5113C86.464 75.8344 86.489 75.1397 86.6582 74.4732C86.8217 73.8652 87.1141 73.2991 87.5157 72.8132C87.9333 72.312 88.4406 71.8925 89.012 71.5761C89.6443 71.2269 90.3222 70.9671 91.0263 70.804L90.6621 68.5109L91.8459 68.3232L92.2107 70.6181C93.1558 70.5199 94.1107 70.5735 95.0388 70.777C95.8724 70.9588 96.6792 71.2463 97.4395 71.6325L96.6109 73.9046ZM89.1855 75.6815C89.2864 76.3165 89.5864 76.7591 90.0851 77.0058C90.5838 77.2525 91.3079 77.4258 92.258 77.5246L91.547 73.0509C90.6279 73.2421 89.9787 73.5656 89.5995 74.0213C89.2181 74.4845 89.066 75.0942 89.1855 75.6815ZM96.9669 82.183C96.8989 81.5677 96.5017 81.0376 95.9292 80.798C95.1672 80.498 94.3665 80.3072 93.5507 80.2313L94.2647 84.7279C95.2346 84.5596 95.9537 84.2599 96.422 83.8287C96.8851 83.4163 97.0927 82.7892 96.9669 82.183Z" fill="white"/>
<path fill-rule="evenodd" clip-rule="evenodd" d="M283.546 96.6968C283.652 96.5865 283.754 96.4737 283.857 96.3613C283.975 96.2324 284.092 96.1038 284.207 95.9723C284.307 95.8575 284.404 95.7405 284.501 95.6236C284.612 95.4895 284.724 95.3548 284.832 95.2179C284.926 95.0992 285.017 94.9788 285.108 94.8573C285.214 94.7175 285.319 94.5773 285.421 94.4352C285.509 94.3123 285.594 94.1882 285.679 94.0634C285.778 93.9188 285.877 93.7734 285.972 93.6264C286.054 93.5 286.133 93.3725 286.213 93.2441C286.305 93.0943 286.396 92.9436 286.485 92.7919C286.56 92.6622 286.634 92.5317 286.707 92.4004C286.793 92.246 286.876 92.0905 286.958 91.9339C287.027 91.8011 287.095 91.6677 287.162 91.5335C287.24 91.3744 287.317 91.2144 287.391 91.0532C287.454 90.9177 287.515 90.7815 287.575 90.6447C287.647 90.4816 287.715 90.3168 287.782 90.1529C287.838 90.0144 287.894 89.8757 287.947 89.7361C288.01 89.5692 288.071 89.401 288.13 89.2322C288.179 89.0913 288.229 88.9505 288.276 88.8084C288.332 88.6373 288.384 88.4642 288.435 88.2922C288.478 88.1496 288.521 88.0072 288.561 87.8632C288.609 87.6883 288.653 87.512 288.696 87.3356C288.732 87.1915 288.768 87.0476 288.801 86.9025C288.841 86.7237 288.876 86.5434 288.912 86.363C288.94 86.218 288.97 86.0731 288.995 85.9268C289.027 85.7439 289.053 85.5593 289.08 85.3751C289.101 85.2297 289.124 85.0848 289.142 84.9386C289.166 84.7509 289.183 84.5615 289.201 84.3734C289.215 84.2285 289.231 84.0839 289.242 83.9383C289.256 83.7459 289.264 83.5521 289.273 83.3585C289.279 83.2149 289.289 83.072 289.292 82.9279C289.297 82.7281 289.295 82.5273 289.294 82.3265C289.294 82.1875 289.296 82.0486 289.293 81.9091C289.287 81.6982 289.274 81.4864 289.262 81.2746C289.255 81.1434 289.252 81.0135 289.242 80.8823C289.225 80.6481 289.198 80.4132 289.173 80.1775C289.161 80.0681 289.153 79.9593 289.14 79.8496C289.097 79.5047 289.045 79.1591 288.984 78.8128C288.924 78.4665 288.855 78.1246 288.777 77.7872C288.749 77.6642 288.715 77.5442 288.685 77.4221C288.632 77.209 288.581 76.9941 288.521 76.7828C288.481 76.64 288.435 76.5004 288.392 76.3591C288.335 76.1729 288.281 75.9857 288.219 75.8017C288.17 75.6529 288.114 75.5067 288.061 75.3605C287.998 75.1883 287.938 75.0151 287.872 74.8454C287.813 74.6949 287.749 74.5479 287.687 74.3994C287.619 74.2371 287.553 74.0745 287.481 73.9145C287.413 73.7647 287.341 73.618 287.271 73.4699C287.197 73.3159 287.124 73.1611 287.047 73.0097C286.972 72.8621 286.892 72.7167 286.814 72.571C286.735 72.4253 286.656 72.2759 286.573 72.132C286.49 71.9881 286.403 71.8447 286.317 71.7019C286.23 71.5591 286.147 71.4201 286.059 71.2819C285.969 71.1403 285.875 71.0018 285.782 70.8628C285.691 70.7284 285.601 70.5936 285.507 70.4615C285.41 70.324 285.31 70.1891 285.209 70.054C285.113 69.9253 285.018 69.7971 284.919 69.6711C284.815 69.5378 284.708 69.4072 284.601 69.2767C284.5 69.1539 284.398 69.0308 284.295 68.9113C284.184 68.7829 284.072 68.6567 283.958 68.5313C283.852 68.4144 283.745 68.2986 283.637 68.184C283.521 68.0605 283.402 67.9388 283.282 67.8189C283.172 67.7078 283.06 67.5979 282.948 67.4893C282.825 67.3714 282.701 67.2551 282.575 67.1404C282.46 67.0351 282.344 66.9313 282.226 66.829C282.098 66.717 281.969 66.6064 281.838 66.4972C281.719 66.3978 281.598 66.2998 281.477 66.2033C281.343 66.0971 281.209 65.9924 281.073 65.8894C280.949 65.7956 280.824 65.7042 280.698 65.6135C280.559 65.5137 280.421 65.4147 280.28 65.3185C280.152 65.2306 280.022 65.1455 279.892 65.0608C279.749 64.9673 279.606 64.8746 279.461 64.7849C279.329 64.7029 279.195 64.6246 279.061 64.5461C278.913 64.4593 278.766 64.373 278.617 64.29C278.481 64.2148 278.344 64.1425 278.206 64.0704C278.054 63.9907 277.903 63.9109 277.75 63.8346C277.611 63.7656 277.469 63.7004 277.328 63.6343C277.173 63.5619 277.019 63.4886 276.862 63.4199C276.719 63.3571 276.574 63.2988 276.429 63.2396C276.271 63.174 276.113 63.1085 275.953 63.047C275.807 62.9909 275.658 62.9398 275.511 62.887C275.349 62.8291 275.188 62.77 275.025 62.7162C274.876 62.667 274.724 62.6229 274.573 62.5769C274.409 62.5277 274.246 62.4749 274.08 62.4293C273.928 62.3872 273.774 62.3507 273.62 62.312C273.453 62.2697 273.286 62.2248 273.118 62.1866C272.963 62.1515 272.807 62.123 272.651 62.0913C272.481 62.0571 272.313 62.0197 272.142 61.9894C271.985 61.9617 271.826 61.9402 271.668 61.9168C271.496 61.8904 271.326 61.8607 271.153 61.8387C271.018 61.8223 270.881 61.8114 270.746 61.7968C270.384 61.758 270.02 61.7288 269.654 61.7094C269.49 61.7005 269.325 61.6881 269.159 61.683C268.987 61.6779 268.814 61.6805 268.641 61.6796C268.473 61.6796 268.307 61.675 268.139 61.6781C267.965 61.6815 267.79 61.6923 267.615 61.6999C267.447 61.7074 267.28 61.7122 267.112 61.7237C266.936 61.7358 266.759 61.755 266.583 61.7717C266.439 61.7853 266.296 61.7941 266.152 61.8107V61.8136C265.744 61.8605 265.335 61.9163 264.925 61.9879C253.622 63.965 246.066 74.7029 248.049 85.9716C250.033 97.2403 260.804 104.773 272.107 102.796C272.517 102.724 272.921 102.637 273.32 102.543V102.546C273.447 102.516 273.57 102.48 273.696 102.447C273.884 102.399 274.073 102.353 274.259 102.3C274.404 102.258 274.546 102.211 274.689 102.167C274.873 102.11 275.058 102.056 275.238 101.994C275.379 101.946 275.517 101.892 275.656 101.842C275.836 101.776 276.018 101.714 276.195 101.643C276.326 101.591 276.455 101.533 276.585 101.479C276.964 101.32 277.337 101.151 277.703 100.971C277.806 100.921 277.912 100.874 278.014 100.821C278.16 100.747 278.301 100.666 278.444 100.588C278.595 100.506 278.747 100.428 278.894 100.342C279.033 100.263 279.166 100.178 279.302 100.096C279.45 100.006 279.6 99.9184 279.746 99.8249C279.878 99.7399 280.007 99.6499 280.137 99.5627C280.281 99.4656 280.427 99.3701 280.568 99.2696C280.695 99.1792 280.818 99.0843 280.943 98.9909C281.083 98.8868 281.224 98.784 281.361 98.6765C281.482 98.5808 281.6 98.4813 281.72 98.3829C281.854 98.2724 281.99 98.1629 282.121 98.049C282.238 97.9482 282.351 97.8438 282.465 97.7403C282.594 97.6236 282.724 97.5076 282.85 97.3876C282.961 97.2819 283.068 97.1733 283.177 97.0652C283.302 96.9453 283.426 96.8227 283.546 96.6968Z" fill="#FB665D"/>
<path fill-rule="evenodd" clip-rule="evenodd" d="M252.962 85.1144C251.857 78.842 254.652 72.524 260.042 69.1067C265.433 65.6893 272.357 65.8456 277.587 69.5026C282.817 73.1596 285.321 79.5971 283.934 85.8132C282.546 92.0294 277.538 96.7999 271.246 97.9002C262.656 99.4024 254.47 93.6783 252.962 85.1144Z" fill="#FB665D"/>
<path d="M272.533 78.1736C272.323 78.015 272.094 77.8828 271.852 77.7802C271.527 77.6372 271.192 77.5188 270.85 77.4261C270.451 77.3181 270.045 77.2421 269.634 77.1991C269.195 77.1517 268.752 77.1475 268.313 77.1864L269.059 81.8884L269.506 81.9107C270.287 81.9691 271.063 82.0718 271.832 82.2185C272.465 82.334 273.077 82.5434 273.648 82.8398C274.15 83.1093 274.582 83.4915 274.911 83.9562C275.268 84.4945 275.498 85.1076 275.58 85.7481C275.713 86.4544 275.677 87.1821 275.474 87.8717C275.281 88.4761 274.948 89.027 274.503 89.4801C274.03 89.9552 273.474 90.3387 272.861 90.6111C272.183 90.9172 271.468 91.1357 270.734 91.2612L271.112 93.6466L269.928 93.8328L269.542 91.4032C268.465 91.5014 267.38 91.4492 266.318 91.248C265.285 91.0526 264.29 90.6948 263.371 90.1877L264.187 87.8243C264.441 88.0144 264.717 88.1739 265.009 88.2997C265.402 88.4764 265.808 88.6227 266.223 88.7373C266.71 88.8735 267.206 88.9741 267.707 89.0381C268.249 89.1104 268.795 89.1333 269.341 89.1065L268.595 84.4051C268.499 84.3896 268.399 84.3775 268.297 84.3703C268.198 84.364 268.098 84.3526 268 84.3362C267.256 84.2662 266.517 84.1533 265.787 83.9982C265.214 83.8828 264.664 83.6746 264.159 83.3819C263.725 83.1246 263.354 82.7735 263.074 82.3544C262.774 81.876 262.581 81.3389 262.508 80.7796C262.387 80.1028 262.412 79.408 262.581 78.7416C262.745 78.1335 263.037 77.5674 263.439 77.0815C263.856 76.5803 264.364 76.1608 264.935 75.8444C265.567 75.4952 266.245 75.2354 266.949 75.0723L266.585 72.7792L267.769 72.5916L268.134 74.8865C269.079 74.7882 270.034 74.8418 270.962 75.0453C271.796 75.2271 272.602 75.5147 273.363 75.9008L272.533 78.1736ZM265.108 79.9505C265.209 80.5855 265.509 81.0283 266.008 81.275C266.506 81.5217 267.23 81.6949 268.18 81.7938L267.469 77.32C266.55 77.5113 265.901 77.8347 265.522 78.2905C265.141 78.7536 264.988 79.3632 265.108 79.9505ZM272.89 86.4519C272.822 85.8367 272.425 85.3065 271.852 85.0668C271.09 84.7668 270.289 84.576 269.473 84.5001L270.188 88.9967C271.157 88.8284 271.877 88.5287 272.345 88.0976C272.808 87.6851 273.015 87.058 272.889 86.4519H272.89Z" fill="white"/>
<path fill-rule="evenodd" clip-rule="evenodd" d="M277.307 47.2333C277.378 47.1287 277.446 47.0215 277.515 46.9148C277.594 46.7927 277.673 46.6706 277.749 46.5456C277.816 46.4368 277.881 46.3258 277.946 46.215C278.021 46.0875 278.096 45.96 278.168 45.83C278.231 45.7172 278.292 45.6026 278.353 45.4882C278.424 45.3557 278.494 45.2226 278.562 45.0876C278.621 44.971 278.678 44.8532 278.735 44.7348C278.801 44.5974 278.867 44.4596 278.931 44.3201C278.985 44.1999 279.039 44.079 279.092 43.9575C279.154 43.8154 279.214 43.6723 279.274 43.528C279.324 43.4051 279.374 43.2813 279.422 43.1566C279.479 43.0098 279.535 42.8623 279.59 42.714C279.636 42.5881 279.681 42.4614 279.726 42.334C279.778 42.1832 279.83 42.0313 279.879 41.8783C279.921 41.7495 279.963 41.6206 280.002 41.4906C280.05 41.3357 280.096 41.1792 280.141 41.023C280.179 40.8918 280.216 40.7607 280.251 40.6274C280.294 40.4691 280.334 40.3094 280.374 40.1493C280.407 40.0155 280.44 39.8819 280.471 39.7472C280.509 39.5847 280.544 39.4211 280.578 39.2574C280.607 39.1218 280.636 38.9867 280.662 38.8502C280.695 38.6841 280.724 38.5169 280.753 38.3492C280.776 38.2125 280.801 38.076 280.822 37.9381C280.849 37.7685 280.873 37.5973 280.897 37.4262C280.916 37.2883 280.935 37.1508 280.952 37.0121C280.974 36.8385 280.992 36.6635 281.009 36.4887C281.024 36.3507 281.039 36.2132 281.051 36.0745C281.066 35.8965 281.078 35.7171 281.09 35.5378C281.099 35.4003 281.11 35.2632 281.117 35.1251C281.127 34.9425 281.132 34.7587 281.138 34.5749C281.143 34.4387 281.149 34.303 281.151 34.1661C281.155 33.9765 281.153 33.7858 281.152 33.5953C281.152 33.4634 281.154 33.3318 281.152 33.1995C281.148 32.9992 281.139 32.7982 281.131 32.5972C281.127 32.4733 281.124 32.3494 281.118 32.2251C281.106 32.0028 281.088 31.7798 281.071 31.5567C281.063 31.4527 281.058 31.3495 281.049 31.2452C281.02 30.9174 280.986 30.5895 280.945 30.2617C280.905 29.9338 280.858 29.6094 280.806 29.2883C280.788 29.1716 280.765 29.0577 280.745 28.9418C280.71 28.739 280.675 28.5356 280.636 28.3353C280.609 28.1997 280.578 28.0673 280.549 27.9332C280.511 27.7565 280.475 27.5791 280.434 27.4047C280.401 27.2637 280.363 27.126 280.328 26.986C280.286 26.8221 280.246 26.6582 280.202 26.4972C280.162 26.3544 280.119 26.2148 280.078 26.0736C280.032 25.9199 279.988 25.7655 279.94 25.6137C279.895 25.4714 279.846 25.3321 279.799 25.1917C279.75 25.0455 279.702 24.8988 279.65 24.7549C279.6 24.6144 279.546 24.4762 279.494 24.3387C279.441 24.2012 279.388 24.06 279.333 23.922C279.277 23.784 279.219 23.6494 279.161 23.514C279.104 23.3786 279.048 23.2466 278.989 23.1153C278.928 22.9811 278.866 22.8495 278.803 22.7177C278.743 22.59 278.682 22.4621 278.62 22.3367C278.554 22.2056 278.487 22.078 278.42 21.95C278.356 21.8281 278.292 21.7061 278.226 21.5864C278.156 21.4602 278.085 21.336 278.013 21.2124C277.946 21.0957 277.878 20.9798 277.809 20.8655C277.735 20.7437 277.659 20.6239 277.583 20.5049C277.513 20.3939 277.441 20.2838 277.37 20.1751C277.292 20.058 277.212 19.943 277.132 19.8287C277.058 19.7233 276.984 19.6189 276.908 19.5158C276.826 19.4039 276.743 19.2936 276.659 19.1848C276.582 19.0848 276.505 18.9865 276.426 18.8898C276.34 18.7834 276.253 18.6785 276.166 18.5749C276.086 18.4805 276.005 18.3877 275.924 18.2962C275.834 18.1956 275.744 18.0963 275.654 17.9984C275.571 17.9094 275.487 17.8226 275.403 17.7361C275.31 17.6415 275.217 17.5474 275.123 17.4559C275.037 17.3727 274.951 17.292 274.863 17.2114C274.768 17.1229 274.672 17.0348 274.575 16.9491C274.487 16.8717 274.397 16.7971 274.308 16.7226C274.209 16.6406 274.11 16.5586 274.011 16.4796C273.92 16.408 273.828 16.3398 273.736 16.2711C273.634 16.1954 273.533 16.1197 273.431 16.0474C273.338 15.9818 273.243 15.92 273.149 15.8572C273.045 15.7885 272.941 15.719 272.836 15.654C272.74 15.5945 272.643 15.5392 272.547 15.4825C272.441 15.4205 272.335 15.3578 272.228 15.2997C272.13 15.2466 272.031 15.1979 271.932 15.1478C271.824 15.093 271.717 15.0368 271.608 14.9856C271.507 14.9389 271.406 14.8973 271.305 14.8535C271.195 14.8062 271.086 14.7568 270.975 14.7132C270.874 14.6731 270.771 14.6385 270.668 14.6017C270.556 14.5616 270.445 14.5198 270.332 14.4827C270.229 14.45 270.124 14.4224 270.02 14.3924C269.907 14.3596 269.794 14.3244 269.68 14.2959C269.574 14.2695 269.468 14.2498 269.362 14.2269C269.247 14.2019 269.133 14.1739 269.017 14.1529C268.927 14.1365 268.835 14.127 268.745 14.1131C268.503 14.0763 268.259 14.0486 268.015 14.0302C267.904 14.0216 267.794 14.0098 267.683 14.0052C267.568 14.0003 267.452 14.0028 267.337 14.002C267.225 14.0011 267.113 13.9974 267.001 14.0005C266.885 14.0038 266.767 14.0138 266.65 14.0213C266.538 14.0283 266.426 14.0329 266.314 14.0439C266.196 14.0552 266.078 14.0736 265.96 14.0895C265.864 14.1023 265.768 14.1106 265.672 14.1265V14.1293C265.399 14.1739 265.125 14.2267 264.851 14.2947C257.289 16.1715 252.235 26.3623 253.561 37.0561C254.888 47.7498 262.094 54.8994 269.656 53.022C269.93 52.9538 270.2 52.8719 270.467 52.7822V52.7848C270.552 52.7563 270.634 52.7219 270.718 52.6914C270.844 52.6458 270.97 52.6019 271.095 52.5517C271.192 52.5122 271.287 52.4676 271.383 52.4255C271.506 52.3717 271.63 52.3201 271.75 52.2616C271.844 52.2162 271.936 52.1652 272.03 52.1172C272.15 52.0551 272.271 51.9956 272.39 51.929C272.478 51.8798 272.564 51.8244 272.651 51.7725C272.905 51.6218 273.154 51.4613 273.399 51.291C273.468 51.243 273.539 51.1986 273.607 51.1489C273.704 51.0781 273.799 51.0014 273.895 50.9274C273.995 50.8502 274.097 50.7755 274.196 50.6948C274.288 50.6198 274.378 50.5389 274.468 50.4611C274.567 50.3757 274.668 50.2922 274.766 50.2036C274.854 50.1229 274.94 50.0377 275.028 49.9544C275.124 49.8621 275.222 49.7716 275.316 49.6757C275.401 49.59 275.483 49.5 275.567 49.4118C275.661 49.3135 275.755 49.2151 275.847 49.1135C275.929 49.0227 276.007 48.9279 276.087 48.8348C276.177 48.7299 276.268 48.626 276.355 48.518C276.434 48.4221 276.509 48.323 276.586 48.225C276.672 48.1142 276.759 48.0039 276.843 47.8903C276.917 47.79 276.989 47.6869 277.062 47.5844C277.145 47.4697 277.227 47.3533 277.307 47.2333Z" fill="#353B6E"/>
<path fill-rule="evenodd" clip-rule="evenodd" d="M273.178 47.2333C273.249 47.1287 273.317 47.0215 273.386 46.9148C273.465 46.7927 273.543 46.6706 273.62 46.5456C273.687 46.4368 273.751 46.3258 273.817 46.215C273.892 46.0875 273.967 45.96 274.039 45.83C274.102 45.7172 274.163 45.6026 274.224 45.4882C274.294 45.3557 274.364 45.2226 274.433 45.0876C274.492 44.971 274.549 44.8532 274.606 44.7348C274.672 44.5974 274.737 44.4596 274.801 44.3201C274.856 44.1999 274.91 44.079 274.963 43.9575C275.024 43.8154 275.085 43.6723 275.145 43.528C275.195 43.4051 275.244 43.2813 275.292 43.1566C275.35 43.0098 275.406 42.8623 275.46 42.714C275.507 42.5881 275.552 42.4614 275.597 42.334C275.649 42.1832 275.7 42.0313 275.75 41.8783C275.792 41.7495 275.833 41.6206 275.873 41.4906C275.921 41.3357 275.967 41.1792 276.012 41.023C276.049 40.8918 276.087 40.7607 276.122 40.6274C276.165 40.4691 276.204 40.3094 276.245 40.1493C276.278 40.0155 276.311 39.8819 276.342 39.7472C276.38 39.5847 276.415 39.4211 276.449 39.2574C276.478 39.1218 276.506 38.9867 276.533 38.8502C276.566 38.6841 276.594 38.5169 276.624 38.3492C276.647 38.2125 276.672 38.076 276.693 37.9381C276.72 37.7685 276.744 37.5973 276.767 37.4262C276.786 37.2883 276.806 37.1508 276.823 37.0121C276.845 36.8385 276.862 36.6635 276.88 36.4887C276.894 36.3507 276.91 36.2132 276.922 36.0745C276.937 35.8965 276.949 35.7171 276.961 35.5378C276.97 35.4003 276.981 35.2632 276.988 35.1251C276.998 34.9425 277.003 34.7587 277.009 34.5749C277.013 34.4387 277.02 34.303 277.022 34.1661C277.025 33.9765 277.024 33.7858 277.023 33.5953C277.023 33.4634 277.025 33.3318 277.022 33.1995C277.019 32.9992 277.01 32.7982 277.002 32.5972C276.997 32.4733 276.995 32.3494 276.989 32.2251C276.977 32.0028 276.959 31.7798 276.942 31.5567C276.934 31.4527 276.929 31.3495 276.92 31.2452C276.891 30.9174 276.857 30.5895 276.816 30.2617C276.776 29.9338 276.729 29.6094 276.677 29.2883C276.659 29.1716 276.636 29.0577 276.616 28.9418C276.58 28.739 276.546 28.5356 276.506 28.3353C276.48 28.1997 276.449 28.0673 276.42 27.9332C276.382 27.7565 276.346 27.5791 276.305 27.4047C276.272 27.2637 276.234 27.126 276.199 26.986C276.157 26.8221 276.117 26.6582 276.073 26.4972C276.033 26.3544 275.99 26.2148 275.949 26.0736C275.903 25.9199 275.859 25.7655 275.811 25.6137C275.766 25.4714 275.718 25.3321 275.67 25.1917C275.621 25.0455 275.573 24.8988 275.521 24.7549C275.471 24.6144 275.417 24.4762 275.365 24.3387C275.312 24.2012 275.259 24.06 275.204 23.922C275.148 23.784 275.09 23.6494 275.032 23.514C274.974 23.3786 274.919 23.2466 274.86 23.1153C274.799 22.9811 274.737 22.8495 274.674 22.7177C274.613 22.59 274.553 22.4621 274.491 22.3367C274.425 22.2056 274.358 22.078 274.291 21.95C274.227 21.8281 274.163 21.7061 274.097 21.5864C274.027 21.4602 273.956 21.336 273.884 21.2124C273.816 21.0957 273.749 20.9798 273.679 20.8655C273.605 20.7437 273.53 20.6239 273.454 20.5049C273.383 20.3939 273.312 20.2839 273.24 20.1751C273.162 20.058 273.083 19.943 273.003 19.8287C272.929 19.7233 272.854 19.6189 272.779 19.5158C272.697 19.4039 272.614 19.2936 272.53 19.1848C272.453 19.0848 272.375 18.9865 272.297 18.8898C272.211 18.7834 272.124 18.6785 272.037 18.5749C271.957 18.4805 271.876 18.3877 271.794 18.2962C271.705 18.1956 271.615 18.0963 271.524 17.9984C271.442 17.9094 271.357 17.8226 271.273 17.7361C271.181 17.6415 271.088 17.5474 270.994 17.4559C270.908 17.3727 270.821 17.292 270.734 17.2114C270.638 17.1229 270.543 17.0348 270.445 16.9491C270.357 16.8717 270.268 16.7971 270.178 16.7226C270.08 16.6406 269.981 16.5586 269.881 16.4796C269.79 16.408 269.698 16.3398 269.606 16.2711C269.505 16.1954 269.404 16.1197 269.301 16.0474C269.208 15.9818 269.113 15.92 269.019 15.8572C268.916 15.7885 268.812 15.719 268.707 15.654C268.611 15.5945 268.514 15.5392 268.417 15.4825C268.311 15.4205 268.206 15.3578 268.099 15.2997C268 15.2466 267.902 15.1979 267.803 15.1478C267.695 15.093 267.587 15.0368 267.478 14.9856C267.378 14.9389 267.277 14.8973 267.176 14.8535C267.066 14.8062 266.957 14.7568 266.846 14.7132C266.744 14.6731 266.641 14.6385 266.539 14.6017C266.427 14.5616 266.315 14.5198 266.203 14.4827C266.099 14.45 265.995 14.4224 265.89 14.3924C265.777 14.3596 265.664 14.3244 265.55 14.2959C265.445 14.2695 265.339 14.2498 265.233 14.2269C265.118 14.2019 265.004 14.1739 264.888 14.1529C264.797 14.1365 264.706 14.127 264.615 14.1131C264.373 14.0763 264.13 14.0486 263.885 14.0302C263.775 14.0216 263.665 14.0098 263.554 14.0052C263.439 14.0003 263.323 14.0028 263.207 14.002C263.095 14.0011 262.984 13.9974 262.871 14.0005C262.755 14.0038 262.638 14.0138 262.521 14.0213C262.409 14.0283 262.297 14.0329 262.184 14.0439C262.067 14.0552 261.949 14.0736 261.83 14.0895C261.734 14.1023 261.638 14.1106 261.542 14.1265V14.1293C261.269 14.1739 260.996 14.2267 260.721 14.2947C253.159 16.1715 248.105 26.3623 249.431 37.0561C250.758 47.7498 257.964 54.8994 265.526 53.022C265.8 52.9538 266.07 52.8719 266.337 52.7822V52.7848C266.422 52.7563 266.505 52.7219 266.588 52.6914C266.714 52.6458 266.841 52.6019 266.965 52.5517C267.062 52.5122 267.157 52.4676 267.253 52.4255C267.376 52.3717 267.5 52.3201 267.621 52.2616C267.715 52.2162 267.807 52.1652 267.9 52.1172C268.02 52.0551 268.142 51.9956 268.26 51.929C268.348 51.8798 268.434 51.8244 268.522 51.7725C268.775 51.6218 269.024 51.4613 269.269 51.291C269.338 51.243 269.409 51.1986 269.477 51.1489C269.575 51.0781 269.669 51.0014 269.765 50.9274C269.865 50.8502 269.967 50.7755 270.066 50.6948C270.159 50.6198 270.248 50.5389 270.339 50.4611C270.438 50.3757 270.538 50.2922 270.636 50.2036C270.725 50.1229 270.811 50.0377 270.898 49.9544C270.994 49.8621 271.092 49.7716 271.186 49.6757C271.271 49.59 271.354 49.5 271.437 49.4118C271.531 49.3135 271.625 49.2151 271.717 49.1135C271.799 49.0227 271.877 48.9279 271.957 48.8348C272.047 48.7299 272.138 48.626 272.226 48.518C272.304 48.4221 272.379 48.323 272.456 48.225C272.542 48.1142 272.629 48.0039 272.713 47.8903C272.788 47.79 272.86 47.6869 272.932 47.5844C273.015 47.4697 273.098 47.3533 273.178 47.2333Z" fill="#FB665D"/>
<path fill-rule="evenodd" clip-rule="evenodd" d="M252.718 36.2413C251.71 28.1131 255.551 20.3681 261.299 18.9415C267.046 17.5149 272.522 22.9486 273.531 31.0768C274.539 39.205 270.698 46.9498 264.95 48.3764C259.203 49.803 253.726 44.3695 252.718 36.2413Z" fill="#FB665D"/>
<path d="M265.811 29.6545C265.677 29.5096 265.523 29.3839 265.355 29.281C265.142 29.1479 264.918 29.0354 264.684 28.9449C264.422 28.8436 264.149 28.7714 263.871 28.7295C263.578 28.6845 263.281 28.6805 262.987 28.7176L263.486 33.18L263.785 33.201C264.311 33.2571 264.831 33.3548 265.342 33.4933C265.78 33.6107 266.193 33.811 266.556 34.0834C266.915 34.3678 267.204 34.7302 267.401 35.143C267.647 35.6798 267.799 36.2551 267.849 36.8435C267.938 37.5145 267.914 38.1956 267.778 38.8587C267.66 39.4042 267.44 39.9224 267.128 40.3853C266.837 40.8122 266.463 41.1772 266.03 41.4592C265.593 41.7423 265.112 41.9508 264.607 42.076L264.86 44.3399L264.067 44.5168L263.809 42.2109C262.333 42.4057 260.841 41.9888 259.681 41.0574L260.227 38.8145C260.389 38.9883 260.574 39.1399 260.777 39.2654C261.033 39.43 261.305 39.5692 261.589 39.681C261.909 39.8088 262.242 39.9044 262.582 39.9665C262.942 40.0349 263.309 40.0567 263.675 40.0313L263.175 35.5697C263.11 35.5545 263.043 35.5435 262.976 35.5369C262.909 35.5307 262.843 35.5197 262.777 35.5041C262.276 35.4367 261.782 35.3295 261.298 35.1835C260.898 35.0651 260.527 34.8659 260.208 34.5984C259.899 34.329 259.651 33.9966 259.482 33.6236C259.277 33.1489 259.149 32.6442 259.104 32.1289C259.024 31.4853 259.04 30.8333 259.154 30.1947C259.254 29.641 259.448 29.1084 259.727 28.6192C259.985 28.1691 260.324 27.7709 260.729 27.445C261.132 27.1245 261.588 26.8765 262.077 26.7122L261.833 24.5359L262.626 24.3579L262.87 26.5354C263.503 26.4424 264.15 26.4939 264.761 26.6861C265.336 26.8681 265.879 27.1423 266.366 27.498L265.811 29.6545ZM260.843 31.341C260.911 31.9435 261.112 32.3637 261.445 32.5979C261.779 32.8322 262.263 32.9964 262.899 33.0897L262.423 28.8441C261.808 29.0254 261.374 29.3324 261.121 29.7652C260.858 30.246 260.76 30.7996 260.843 31.341ZM266.049 37.5111C265.978 36.8789 265.747 36.4408 265.355 36.1967C264.864 35.9184 264.324 35.736 263.764 35.659L264.242 39.9262C264.89 39.7664 265.371 39.482 265.685 39.073C265.998 38.6639 266.119 38.1433 266.049 37.511V37.5111Z" fill="white"/>
</g>
<defs>
<clipPath id="clip0_423_1506">
<rect width="294" height="209" fill="white" transform="translate(27 14)"/>
</clipPath>
</defs>
</svg>
