<svg width="351" height="248" viewBox="0 0 351 248" fill="none" xmlns="http://www.w3.org/2000/svg">
<rect width="351" height="247" rx="20" fill="white"/>
<path d="M291.419 117.827C286.13 117.825 280.903 118.967 276.093 121.175C274.19 117.929 271.278 115.402 267.806 113.984C264.333 112.566 260.493 112.335 256.878 113.328C253.262 114.32 250.072 116.48 247.798 119.476C245.524 122.471 244.293 126.135 244.295 129.903C244.295 130.099 244.314 130.288 244.321 130.484C242.917 130.167 241.484 130.002 240.046 129.99C236.512 129.992 233.039 130.912 229.962 132.66C226.886 134.408 224.31 136.924 222.485 139.966H325.295C322.387 133.374 317.638 127.773 311.624 123.843C305.61 119.913 298.591 117.823 291.419 117.827Z" fill="#F4F9F5"/>
<path d="M273.194 111.42L290.116 110.091L292.268 111.31L315.815 113.48C317.962 113.677 319.95 114.702 321.361 116.34L344.35 143.048L341.936 144.357L316.163 122.947C315.709 122.564 315.182 122.278 314.615 122.105C314.047 121.932 313.451 121.877 312.862 121.942L282.099 124.969C280.878 125.018 279.661 124.81 278.525 124.36C277.388 123.909 276.358 123.225 275.5 122.351C274.641 121.478 273.973 120.434 273.539 119.286C273.105 118.138 272.913 116.912 272.977 115.686L273.194 111.42Z" fill="#5BC272"/>
<path d="M314.666 168.586L312.246 167.739L310.097 166.108L310.828 163.99L312.843 166.012L315.065 167.434L314.666 168.586Z" fill="#FF9F33"/>
<path d="M309.072 166.632L307.236 165.99L308.242 163.084L310.828 163.99L310.097 166.108L309.072 166.632Z" fill="#FF9F33"/>
<path d="M350.324 143.308L348.069 144.534L345.423 145.025L344.363 143.048L347.207 142.923L349.749 142.236L350.324 143.308Z" fill="#FF9F33"/>
<path d="M345.113 146.136L343.402 147.064L341.949 144.358L344.363 143.048L345.423 145.025L345.113 146.136Z" fill="#FF9F33"/>
<path d="M307.3 69.526L307.83 66.637C307.9 66.2655 307.893 65.8835 307.809 65.515C307.724 65.1465 307.565 64.7995 307.341 64.4959L305.921 62.5699C305.9 62.5442 305.872 62.5257 305.84 62.5171C305.808 62.5085 305.774 62.5102 305.744 62.5219C305.713 62.5337 305.687 62.5549 305.668 62.5825C305.65 62.6101 305.641 62.6428 305.643 62.6758L305.866 65.5648C305.878 65.7119 305.849 65.8594 305.783 65.9909C305.716 66.1224 305.615 66.2327 305.489 66.3095C305.209 66.4841 304.974 66.7252 304.808 67.0117C304.641 67.2981 304.546 67.6213 304.532 67.9531L304.481 69.0509L307.3 69.526Z" fill="#FFD7CF"/>
<path d="M271.987 117.227L292.265 111.311L290.652 81.3484C290.57 80.0451 290.213 78.7742 289.605 77.6204C288.997 76.4665 288.151 75.4562 287.124 74.6566C286.097 73.857 284.912 73.2865 283.649 72.983C282.385 72.6795 281.072 72.65 279.797 72.8965L268.044 75.1884C266.679 75.455 265.392 76.0309 264.281 76.8725C263.171 77.714 262.266 78.799 261.635 80.0449C261.005 81.2909 260.665 82.665 260.642 84.0628C260.618 85.4607 260.912 86.8454 261.501 88.1119L268.299 102.727L271.987 117.227Z" fill="#2C243D"/>
<path d="M307.3 69.5258L304.474 69.054L297.855 82.3209L287.415 74.8929L284.142 85.4859L297.297 91.6363C297.868 91.9029 298.491 92.037 299.121 92.0286C299.75 92.0202 300.37 91.8696 300.934 91.5879C301.498 91.3061 301.991 90.9005 302.378 90.401C302.765 89.9015 303.035 89.321 303.168 88.7024L307.3 69.5258Z" fill="#2C243D"/>
<path d="M277.833 73.2881L278.555 76.1771C278.664 76.5825 278.638 77.0126 278.481 77.4019C278.324 77.7911 278.046 78.1183 277.687 78.3335C277.328 78.5487 276.909 78.6401 276.494 78.5939C276.079 78.5477 275.69 78.3663 275.387 78.0774L271.505 74.5175L274.995 73.837L277.833 73.2881Z" fill="#FFD7CF"/>
<path d="M272.048 67.1536L275.515 65.6128L277.833 73.2847L276.339 75.2717L271.505 74.5173L272.048 67.1536Z" fill="#FFD7CF"/>
<path d="M275.135 63.4878L275.866 63.3402C276.552 63.2009 277.156 62.7932 277.543 62.2069C277.93 61.6206 278.07 60.9036 277.932 60.2136L277.453 57.8286L274.132 58.5027L275.135 63.4878Z" fill="#FF9F33"/>
<path d="M268.337 67.0832L272.169 66.3063L271.173 61.3501L268.091 61.9761C268.515 63.6103 268.603 65.3141 268.35 66.9836L268.337 67.0832Z" fill="#FF9F33"/>
<path d="M269.097 60.7014L276.841 59.1317L278.127 65.5478C278.264 66.2279 278.126 66.9347 277.744 67.5126C277.362 68.0905 276.767 68.4922 276.091 68.6294L272.335 69.3908C271.957 69.4675 271.563 69.3899 271.242 69.1751C270.92 68.9602 270.696 68.6258 270.62 68.2452L269.107 60.6995L269.097 60.7014Z" fill="#FFD7CF"/>
<path d="M268.092 61.976L274.956 60.5829C275.428 60.4878 275.877 60.3 276.277 60.0304C276.677 59.7608 277.021 59.4146 277.287 59.0116C277.554 58.6085 277.74 58.1565 277.833 57.6815C277.926 57.2064 277.925 56.7176 277.83 56.2429L270.346 57.7613C269.955 57.8398 269.583 57.9951 269.252 58.2183C268.921 58.4415 268.637 58.7281 268.417 59.0618C268.196 59.3954 268.043 59.7696 267.966 60.1628C267.89 60.556 267.891 60.9605 267.97 61.3532L268.092 61.976Z" fill="#FF9F33"/>
<path d="M269.42 64.8648C269.45 65.0182 269.525 65.159 269.635 65.2695C269.745 65.38 269.885 65.4552 270.038 65.4855C270.19 65.5158 270.349 65.4999 270.492 65.4398C270.636 65.3796 270.758 65.278 270.844 65.1478C270.93 65.0175 270.976 64.8645 270.976 64.7082C270.975 64.5518 270.928 64.3991 270.841 64.2695C270.755 64.1398 270.631 64.039 270.487 63.9799C270.343 63.9207 270.185 63.9058 270.033 63.9371C269.829 63.9789 269.651 64.1 269.536 64.2738C269.421 64.4477 269.379 64.6601 269.42 64.8648Z" fill="#FFD7CF"/>
<path d="M291.419 116.318L310.084 122.738C311.07 123.074 311.918 123.728 312.496 124.599C313.074 125.47 313.348 126.509 313.277 127.553L310.847 163.993L308.261 163.088L306.026 129.588L281.237 124.969L291.419 116.318Z" fill="#5BC272"/>
<path d="M305.355 66.2709C305.165 66.286 304.976 66.2245 304.831 66.1C304.685 65.9754 304.595 65.7979 304.58 65.6065L304.005 58.2074C303.999 58.0213 304.065 57.8402 304.189 57.7016C304.312 57.563 304.484 57.4774 304.669 57.4625C304.853 57.4477 305.036 57.5047 305.18 57.6219C305.324 57.739 305.418 57.9073 305.442 58.0918L306.016 65.4941C306.024 65.5888 306.013 65.6839 305.983 65.7742C305.954 65.8645 305.907 65.9481 305.846 66.0203C305.785 66.0924 305.71 66.1517 305.626 66.1947C305.541 66.2377 305.45 66.2636 305.355 66.2709Z" fill="#F4F9F5"/>
<path d="M295.719 68.152L297.405 65.7573C297.621 65.4477 297.899 65.1864 298.22 64.9897C298.542 64.7931 298.9 64.6653 299.273 64.6145L301.636 64.2935C301.668 64.2897 301.701 64.2964 301.73 64.3128C301.758 64.3291 301.781 64.3543 301.794 64.3844C301.807 64.4146 301.81 64.4483 301.803 64.4805C301.796 64.5126 301.779 64.5416 301.754 64.5632L299.541 66.4153C299.428 66.5099 299.343 66.6339 299.296 66.7738C299.249 66.9137 299.241 67.064 299.273 67.2082C299.347 67.5326 299.34 67.8702 299.254 68.1914C299.167 68.5127 299.004 68.8077 298.778 69.0508L298.031 69.8533L295.719 68.152Z" fill="#FFD7CF"/>
<path d="M265.691 79.5443L283.35 82.8313L295.719 68.1616L298.031 69.8661L284.142 91.6492L263.915 88.0925L265.691 79.5443Z" fill="#2C243D"/>
<path d="M280.79 91.9703C280.513 91.9706 280.238 91.9469 279.966 91.8997L267.242 89.7233L267.348 89.0813L280.074 91.2577C280.828 91.3867 281.602 91.3099 282.316 91.0355C283.029 90.7611 283.657 90.2991 284.132 89.6976L290.962 80.3501L291.476 80.7321L284.64 90.0892C284.181 90.674 283.596 91.1469 282.929 91.4726C282.262 91.7983 281.531 91.9684 280.79 91.9703Z" fill="white"/>
<path d="M278.947 247.418C276.109 193.243 231.521 150.193 176.929 150.193C122.338 150.193 77.7462 193.243 74.9077 247.418H278.947Z" fill="#F4F9F5"/>
<path d="M329.975 247.418C329.232 233.561 323.234 220.517 313.214 210.972C303.195 201.427 289.917 196.107 276.114 196.107C262.31 196.107 249.033 201.427 239.013 210.972C228.993 220.517 222.995 233.561 222.252 247.418H329.975Z" fill="#F4F9F5"/>
<path d="M229.088 229.615C228.978 229.614 228.869 229.591 228.768 229.548C228.575 229.463 228.422 229.305 228.345 229.107C228.267 228.91 228.27 228.69 228.353 228.495C233.39 216.826 242.275 207.261 253.51 201.412C253.698 201.314 253.917 201.295 254.119 201.36C254.32 201.424 254.488 201.566 254.586 201.755C254.683 201.944 254.702 202.165 254.638 202.367C254.574 202.57 254.432 202.739 254.244 202.837C243.337 208.516 234.71 217.802 229.819 229.13C229.757 229.274 229.655 229.396 229.525 229.482C229.395 229.568 229.243 229.614 229.088 229.615Z" fill="white"/>
<path d="M185.812 132.866H152.287L148.28 125.634C147.816 124.739 147.117 123.989 146.259 123.467C145.401 122.944 144.417 122.667 143.414 122.667H103.921C102.467 122.667 101.072 123.248 100.044 124.282C99.0151 125.315 98.4368 126.717 98.4359 128.179V210.483C98.4359 211.946 99.0138 213.349 100.043 214.383C101.071 215.417 102.466 215.998 103.921 215.998H187.229C188.684 215.998 190.079 215.417 191.108 214.383C192.137 213.349 192.715 211.946 192.715 210.483L191.297 138.38C191.296 136.918 190.718 135.516 189.689 134.482C188.661 133.448 187.266 132.866 185.812 132.866Z" fill="#2C243D"/>
<path d="M185.073 140.999L133.243 134.157L125.526 193.24L177.356 200.083L185.073 140.999Z" fill="white"/>
<path d="M208.27 148.081H125.677C124.46 148.08 123.275 148.478 122.302 149.213C121.329 149.948 120.619 150.982 120.281 152.158L104.292 216.002H194.356C195.575 216.002 196.761 215.603 197.735 214.866C198.709 214.129 199.418 213.093 199.755 211.915L213.682 155.278C213.921 154.437 213.962 153.551 213.803 152.691C213.643 151.831 213.286 151.02 212.762 150.322C212.237 149.624 211.558 149.059 210.779 148.67C209.999 148.281 209.14 148.079 208.27 148.081Z" fill="#FF9F33"/>
<path d="M146.479 247.418C144.672 212.955 116.306 185.567 81.5776 185.567C46.8489 185.567 18.4804 212.955 16.6764 247.418H146.479Z" fill="#F4F9F5"/>
<path d="M75.1185 140.765L75.1824 173.202L74.5885 217.151H77.9825L83.2731 173.202L84.3107 140.011H86.7916L92.3376 173.202L92.858 217.151H96.252L100.425 173.202V129.254L75.1185 140.765Z" fill="#FFD7CF"/>
<path d="M102.593 220.961H99.4225L94.8057 219.462L96.252 217.157L102.593 220.223V220.961Z" fill="white"/>
<path d="M95.2622 220.961H92.8579V217.157H96.2519L94.8056 219.462L95.2622 220.961Z" fill="white"/>
<path d="M84.3235 220.961H81.153L76.5361 219.462L77.9825 217.157L84.3235 220.223V220.961Z" fill="white"/>
<path d="M76.9959 220.961H74.5917V217.157H77.9825L76.5361 219.462L76.9959 220.961Z" fill="white"/>
<path d="M72.098 169.334H102.749L105.767 129.254L77.5354 125.027L76.2583 126.763C72.9872 131.165 71.2866 136.547 71.4307 142.04L72.098 169.334Z" fill="#5BC272"/>
<path d="M131.884 134.827L133.963 132.702L115.7 116.209L120.974 99.0803L114.039 100.091L103.024 119.801L131.884 134.827Z" fill="#5BC272"/>
<path d="M77.5227 125.027L105.754 129.254L120.997 98.8684C121.157 97.3827 120.802 95.887 119.993 94.6334C119.184 93.3798 117.97 92.4448 116.555 91.9862L100.719 86.8502C99.2476 86.3734 97.6552 86.4417 96.2298 87.0429C94.8044 87.644 93.64 88.7382 92.9474 90.1276L77.5227 125.027Z" fill="#5BC272"/>
<path d="M82.8036 132.74L85.5048 131.62L80.0514 109.606C80.0028 109.468 80.0089 109.317 80.0684 109.184C80.1279 109.05 80.2361 108.945 80.3707 108.89L102.475 96.5637L95.7698 87.229L73.2602 103.237C72.8178 103.464 72.4242 103.775 72.1019 104.155C71.7795 104.534 71.5346 104.974 71.3813 105.448C71.228 105.923 71.1693 106.423 71.2084 106.921C71.2476 107.418 71.3838 107.903 71.6095 108.348L82.8036 132.74Z" fill="#5BC272"/>
<path d="M133.963 132.702L136.089 132.352C136.459 132.291 136.837 132.308 137.199 132.402C137.562 132.495 137.901 132.663 138.197 132.894L140.064 134.358C140.09 134.379 140.108 134.407 140.116 134.439C140.124 134.471 140.122 134.504 140.11 134.535C140.097 134.565 140.076 134.591 140.048 134.608C140.021 134.625 139.988 134.634 139.956 134.631L137.108 134.339C136.962 134.324 136.816 134.35 136.684 134.414C136.552 134.477 136.441 134.576 136.361 134.698C136.183 134.977 135.939 135.206 135.652 135.368C135.364 135.529 135.042 135.617 134.713 135.623L131.884 134.827L133.963 132.702Z" fill="#FFD7CF"/>
<path d="M105.498 79.7338C105.3 80.2742 105.267 80.8618 105.404 81.4213C105.54 81.9807 105.84 82.4864 106.264 82.8734C106.688 83.2604 107.218 83.511 107.785 83.5931C108.352 83.6752 108.931 83.5849 109.446 83.334C109.962 83.0831 110.391 82.6829 110.679 82.1848C110.967 81.6868 111.1 81.1136 111.062 80.5389C111.023 79.9642 110.814 79.4143 110.463 78.9596C110.111 78.505 109.632 78.1665 109.087 77.9875C108.381 77.7407 107.606 77.7859 106.933 78.1134C106.26 78.4409 105.744 79.0238 105.498 79.7338Z" fill="#FF9F33"/>
<path d="M108.516 79.7533L111.925 80.8579L113.2 76.8799L109.791 75.7753L108.516 79.7533Z" fill="#FF9F33"/>
<path d="M110.064 78.2217C110.016 78.3734 110.013 78.5361 110.056 78.6893C110.1 78.8425 110.188 78.9794 110.308 79.0825C110.429 79.1857 110.578 79.2505 110.735 79.2688C110.892 79.2872 111.052 79.2581 111.193 79.1854C111.334 79.1128 111.45 78.9997 111.527 78.8605C111.604 78.7213 111.639 78.5622 111.626 78.4034C111.613 78.2446 111.554 78.0932 111.455 77.9683C111.357 77.8434 111.224 77.7506 111.073 77.7017C110.871 77.6369 110.651 77.6552 110.462 77.7527C110.273 77.8501 110.13 78.0187 110.064 78.2217Z" fill="#FFD7CF"/>
<path d="M111.038 79.9167L114.129 80.9183L113.615 91.033L112.421 94.7598C112.359 94.9547 112.245 95.1287 112.092 95.2626C111.938 95.3964 111.75 95.4849 111.549 95.5181C111.349 95.5514 111.143 95.5281 110.955 95.4509C110.766 95.3737 110.603 95.2456 110.483 95.0808L105.754 88.4842L111.038 79.9167Z" fill="#FFD7CF"/>
<path d="M112.212 73.7812L120.353 76.4187L118.26 82.9509C118.012 83.7232 117.47 84.3649 116.751 84.735C116.033 85.1051 115.198 85.1733 114.43 84.9244L110.805 83.7499C110.375 83.6108 110.018 83.3057 109.812 82.9019C109.606 82.4981 109.568 82.0286 109.707 81.5967L112.212 73.7812Z" fill="#FFD7CF"/>
<path d="M118.082 78.462L109.791 75.7763L110.098 74.82C110.431 73.7795 111.162 72.9149 112.13 72.4162C113.097 71.9176 114.222 71.8258 115.257 72.161L119.646 73.5826C120.163 73.7503 120.593 74.1177 120.841 74.6041C121.089 75.0904 121.135 75.656 120.968 76.1762L120.661 77.1325C120.495 77.6527 120.129 78.085 119.646 78.3344C119.162 78.5837 118.599 78.6296 118.082 78.462Z" fill="#FF9F33"/>
<path d="M85.5176 131.585L86.8682 133.273C87.1022 133.566 87.2735 133.905 87.3712 134.268C87.469 134.631 87.4913 135.01 87.4365 135.382L87.0757 137.738C87.0714 137.772 87.056 137.803 87.0321 137.827C87.0082 137.851 86.9771 137.867 86.9436 137.871C86.9101 137.875 86.8761 137.869 86.8469 137.852C86.8176 137.835 86.7948 137.808 86.782 137.777L85.6358 135.141C85.5771 135.007 85.4825 134.891 85.3624 134.807C85.2424 134.724 85.1016 134.675 84.9557 134.666C84.6298 134.644 84.3142 134.542 84.0361 134.37C83.758 134.198 83.5257 133.96 83.3593 133.678L82.8037 132.74L85.5176 131.585Z" fill="#FFD7CF"/>
<path d="M215.151 165.494L140.128 180.784L150.477 232.105L225.499 216.815L215.151 165.494Z" fill="#5BC272"/>
<path d="M211.32 206.755L192.298 210.632L192.687 212.56L211.709 208.683L211.32 206.755Z" fill="white"/>
<path d="M212.302 211.641L193.279 215.519L193.668 217.447L212.691 213.57L212.302 211.641Z" fill="white"/>
<path d="M190.003 211.097L160.31 217.148L161.684 223.966L191.377 217.914L190.003 211.097Z" fill="white"/>
<path d="M204.817 174.517L153.808 184.913L159.599 213.63L210.608 203.233L204.817 174.517Z" fill="white"/>
<path d="M194.972 61.6453H181.814V82.1861H194.972V61.6453Z" fill="#F4F9F5"/>
<path d="M202.865 80.9053H173.921V84.8985H202.865V80.9053Z" fill="#2C243D"/>
<path d="M226.929 21.2283H149.854C149.344 21.2283 148.931 21.6436 148.931 22.156V68.0204C148.931 68.5328 149.344 68.9481 149.854 68.9481H226.929C227.439 68.9481 227.852 68.5328 227.852 68.0204V22.156C227.852 21.6436 227.439 21.2283 226.929 21.2283Z" fill="#2C243D"/>
<path d="M223.65 24.7751H153.133C152.658 24.7751 152.274 25.1617 152.274 25.6386V64.5374C152.274 65.0143 152.658 65.4009 153.133 65.4009H223.65C224.125 65.4009 224.509 65.0143 224.509 64.5374V25.6386C224.509 25.1617 224.125 24.7751 223.65 24.7751Z" fill="white"/>
<path d="M236.102 75.8014L242.207 67.0221L212.031 45.9966L205.93 54.7759L236.102 75.8014Z" fill="#5BC272"/>
<path d="M202.015 43.1901L199.87 46.2764L207.901 51.9199L210.047 48.8336L202.015 43.1901Z" fill="#FF9F33"/>
<path d="M205.93 33.4456H176.929V37.1435H205.93V33.4456Z" fill="#D1D1DF"/>
<path d="M204.183 43.1975H168.2V46.9789H204.183V43.1975Z" fill="#D1D1DF"/>
<path d="M171.271 53.0104C167.423 50.3058 164.458 46.5146 162.752 42.1161C161.047 37.7176 160.677 32.9094 161.689 28.2996C162.702 23.6897 165.051 19.4852 168.44 16.2178C171.83 12.9503 176.107 10.7666 180.73 9.94286C185.354 9.11911 190.117 9.69227 194.416 11.5899C198.716 13.4875 202.359 16.6243 204.886 20.6037C207.412 24.5831 208.708 29.2262 208.61 33.9461C208.512 38.666 207.023 43.2505 204.333 47.1201C200.721 52.3028 195.212 55.8336 189.014 56.9378C182.816 58.0421 176.435 56.6297 171.271 53.0104ZM174.704 48.0702C177.581 50.0912 180.99 51.2091 184.499 51.2827C188.008 51.3563 191.46 50.3823 194.418 48.4837C197.377 46.5851 199.709 43.8472 201.12 40.6162C202.532 37.3852 202.958 33.8061 202.346 30.3314C201.734 26.8567 200.111 23.6424 197.683 21.0948C195.254 18.5473 192.129 16.7808 188.702 16.0188C185.275 15.2569 181.7 15.5335 178.429 16.8139C175.158 18.0942 172.338 20.3207 170.326 23.212C167.632 27.0934 166.58 31.8909 167.401 36.5514C168.221 41.2119 170.848 45.3547 174.704 48.0702Z" fill="#FB665D"/>
<path d="M293.529 192.45L292.616 192.161C292.999 190.947 293.366 189.708 293.711 188.485L294.634 188.745C294.292 189.981 293.915 191.227 293.529 192.45ZM295.62 185.009L294.691 184.774C295.011 183.539 295.288 182.28 295.556 181.038L296.492 181.24C296.224 182.495 295.93 183.76 295.62 184.996V185.009ZM297.249 177.449L296.291 177.273C296.521 176.024 296.735 174.75 296.929 173.488L297.887 173.636C297.696 174.907 297.485 176.188 297.249 177.449ZM298.411 169.803L297.453 169.687C297.603 168.423 297.74 167.139 297.852 165.871L298.81 165.957C298.701 167.235 298.567 168.529 298.411 169.803ZM299.107 162.099L298.149 162.041C298.226 160.757 298.283 159.473 298.318 158.208L299.276 158.237C299.238 159.518 299.18 160.818 299.107 162.099ZM298.373 154.369C298.373 153.085 298.353 151.801 298.312 150.517L299.27 150.485C299.308 151.769 299.33 153.069 299.33 154.353L298.373 154.369ZM298.124 146.701C298.047 145.417 297.948 144.133 297.83 142.874L298.788 142.784C298.906 144.068 299.005 145.352 299.081 146.636L298.124 146.701Z" fill="#D1D1DF"/>
<path d="M264.151 68.4248C263.28 67.5003 262.379 66.579 261.479 65.6834L262.153 64.9997C263.06 65.9017 263.966 66.8294 264.844 67.7603L264.151 68.4248ZM258.724 63.0159C257.795 62.1492 256.84 61.2857 255.888 60.4479L256.527 59.7225C257.485 60.5667 258.443 61.4366 259.385 62.3129L258.724 63.0159ZM252.977 57.9666C251.996 57.1577 250.991 56.3616 249.991 55.5783L250.575 54.8144C251.584 55.5976 252.597 56.4194 253.583 57.2219L252.977 57.9666ZM246.932 53.28C245.908 52.5321 244.854 51.7938 243.807 51.0779L244.343 50.2818C245.4 51.0009 246.46 51.7488 247.494 52.5L246.932 53.28ZM240.617 48.9722C239.544 48.2916 238.449 47.6175 237.36 46.9691L237.849 46.1409C238.947 46.7829 240.052 47.4731 241.128 48.16L240.617 48.9722ZM234.046 45.0656C232.938 44.4493 231.811 43.8458 230.674 43.2648L231.112 42.4077C232.249 42.9919 233.392 43.6018 234.509 44.2214L234.046 45.0656Z" fill="#D1D1DF"/>
<path d="M53.3815 187.201C53.0622 185.962 52.7429 184.701 52.4428 183.452L53.3751 183.23C53.6656 184.47 53.9785 185.721 54.3074 186.951L53.3815 187.201ZM51.635 179.674C51.3795 178.415 51.1401 177.138 50.9262 175.873L51.8681 175.713C52.082 176.965 52.3182 178.232 52.5705 179.481L51.635 179.674ZM50.3355 172.053C50.1567 170.785 49.997 169.485 49.8597 168.217L50.8176 168.111C50.9549 169.395 51.1145 170.66 51.2901 171.922L50.3355 172.053ZM49.5021 164.368C49.4064 163.084 49.3233 161.8 49.2627 160.516L50.2205 160.468C50.2812 161.752 50.361 163.036 50.46 164.298L49.5021 164.368ZM49.1413 156.645C49.1286 155.924 49.1222 155.202 49.1222 154.478C49.1222 153.91 49.1222 153.345 49.1222 152.78H50.08C50.08 153.339 50.08 153.901 50.08 154.466C50.08 155.185 50.0864 155.902 50.0992 156.616L49.1413 156.645ZM50.195 148.957L49.2371 148.916C49.2914 147.632 49.3649 146.348 49.4543 145.064L50.4121 145.131C50.3067 146.396 50.2333 147.683 50.179 148.957H50.195ZM50.7442 141.305L49.7863 141.205C49.9172 139.921 50.0673 138.637 50.2333 137.353L51.1912 137.482C50.9964 138.772 50.8591 140.037 50.7282 141.305H50.7442ZM51.7499 133.697L50.7921 133.543C50.9996 132.259 51.2263 130.997 51.4721 129.736L52.4108 129.922C52.1618 131.171 51.9543 132.442 51.7339 133.697H51.7499ZM53.2059 126.166L52.2735 125.954C52.5545 124.706 52.861 123.441 53.1803 122.199L54.1062 122.439C53.7742 123.685 53.4709 124.927 53.1899 126.166H53.2059ZM55.1216 118.742L54.202 118.472C54.5596 117.239 54.9428 115.997 55.3387 114.777L56.2487 115.076C55.8368 116.302 55.4664 117.519 55.1024 118.742H55.1216ZM57.4875 111.436L56.5871 111.115C57.0213 109.904 57.4779 108.685 57.9504 107.487L58.8413 107.84C58.34 109.025 57.8994 110.235 57.4683 111.436H57.4875ZM60.3004 104.28L59.4224 103.899C59.93 102.72 60.46 101.53 61.0028 100.368L61.8713 100.775C61.3125 101.931 60.7857 103.109 60.2812 104.28H60.3004ZM63.5475 97.3212L62.695 96.8847C63.2729 95.7387 63.8764 94.5863 64.4894 93.4596L65.3291 93.9218C64.7033 95.0389 64.1031 96.1849 63.5284 97.3212H63.5475ZM67.2161 90.5802L66.3892 90.0923C67.0277 88.9849 67.711 87.871 68.3943 86.786L69.2053 87.2996C68.5092 88.375 67.8387 89.4824 67.197 90.5802H67.2161ZM71.2934 84.0832L70.4728 83.56C71.188 82.4942 71.9288 81.4285 72.6759 80.3853L73.4518 80.9502C72.7078 81.9549 71.9831 83.0271 71.2742 84.0832H71.2934ZM75.7634 77.8558L75.0035 77.2683C75.7825 76.2508 76.5999 75.2332 77.3981 74.2381L78.1389 74.8512C77.3151 75.8335 76.5137 76.8446 75.741 77.8558H75.7634ZM80.607 71.9237L79.8854 71.2817C80.7251 70.3187 81.5904 69.3557 82.462 68.412L83.1644 69.054C82.2864 70.0073 81.4179 70.9639 80.5846 71.9237H80.607ZM85.7985 66.3062L85.1185 65.6289C86.0157 64.7173 86.9416 63.8088 87.8675 62.9261L88.5252 63.6226C87.5929 64.499 86.6734 65.401 85.7985 66.3062ZM91.335 61.029L90.6964 60.3099C91.6542 59.4561 92.6313 58.6054 93.6083 57.7869L94.2213 58.5252C93.2347 59.3405 92.2641 60.1815 91.319 61.029H91.335ZM97.1843 56.1112L96.5936 55.3537C97.5961 54.564 98.6243 53.7776 99.6524 53.0168L100.221 53.7936C99.183 54.548 98.1613 55.328 97.1683 56.1112H97.1843ZM103.324 51.5723L102.781 50.7794C103.832 50.054 104.908 49.3349 105.974 48.6416L106.491 49.4537C105.419 50.1406 104.352 50.8533 103.308 51.5723H103.324ZM109.732 47.4314L109.241 46.6064C110.332 45.9644 111.45 45.3 112.564 44.6804L113.03 45.5215C111.91 46.1346 110.802 46.7798 109.716 47.4314H109.732ZM116.383 43.7046L115.946 42.8507C117.076 42.2633 118.228 41.6855 119.378 41.1334L119.793 42.0001C118.637 42.549 117.491 43.1139 116.367 43.7046H116.383ZM123.251 40.4047L122.836 39.5252C123.998 39.0084 125.186 38.5044 126.367 38.0261L126.725 38.9185C125.566 39.3936 124.387 39.9039 123.235 40.4047H123.251ZM130.313 37.5414L129.994 36.6362C131.191 36.1932 132.414 35.7631 133.624 35.3522L133.924 36.267C132.698 36.6747 131.488 37.1016 130.297 37.5414H130.313ZM137.555 35.1211L137.28 34.1966C138.5 33.8306 139.745 33.4807 140.974 33.1533L141.22 34.0842C139.981 34.4084 138.749 34.768 137.539 35.1211H137.555Z" fill="#D1D1DF"/>
<path d="M240.805 169.569L239.915 169.209C240.186 168.529 240.451 167.832 240.697 167.142L241.6 167.463C241.348 168.169 241.08 168.875 240.805 169.569ZM242.804 163.791L241.885 163.515C242.245 162.298 242.571 161.056 242.862 159.82L243.794 160.038C243.5 161.287 243.168 162.549 242.804 163.784V163.791ZM244.563 156.238L243.606 156.074C243.819 154.822 244.001 153.551 244.145 152.286L245.103 152.399C244.969 153.673 244.784 154.963 244.563 156.231V156.238ZM245.445 148.534L244.487 148.479C244.56 147.214 244.595 145.911 244.595 144.656H245.553C245.553 145.937 245.518 147.24 245.441 148.524L245.445 148.534Z" fill="#D1D1DF"/>
<path d="M242.06 126.385C241.798 125.467 241.514 124.542 241.211 123.637L242.121 123.316C242.44 124.234 242.715 125.171 242.98 126.102L242.06 126.385ZM239.902 120.048C239.432 118.87 238.922 117.689 238.385 116.543L239.254 116.132C239.796 117.297 240.314 118.494 240.789 119.689L239.902 120.048ZM236.671 113.13C236.07 112.013 235.429 110.903 234.755 109.824L235.569 109.317C236.243 110.412 236.894 111.538 237.504 112.671L236.671 113.13ZM232.67 106.633C231.945 105.593 231.182 104.563 230.397 103.568L231.147 102.971C231.942 103.979 232.718 105.025 233.455 106.078L232.67 106.633ZM227.951 100.64C227.114 99.6934 226.236 98.7561 225.342 97.8573L226.019 97.1768C226.926 98.0884 227.817 99.0386 228.666 99.9984L227.951 100.64ZM222.581 95.2315C221.639 94.3841 220.665 93.5559 219.672 92.7663L220.266 92.0119C221.271 92.8144 222.261 93.6554 223.219 94.5125L222.581 95.2315ZM216.626 90.4743C215.595 89.7424 214.528 89.033 213.455 88.3653L213.96 87.5468C215.049 88.2241 216.131 88.9464 217.178 89.6879L216.626 90.4743ZM210.167 86.449C209.056 85.8423 207.932 85.2613 206.773 84.7188L207.181 83.8489C208.34 84.3978 209.499 84.9884 210.623 85.6047L210.167 86.449Z" fill="#D1D1DF"/>
<path d="M118.784 117.153L117.916 116.755C118.446 115.583 119.02 114.411 119.621 113.272L120.467 113.721C119.876 114.845 119.324 116 118.784 117.153ZM122.341 110.412L121.523 109.882C122.188 108.781 122.89 107.686 123.615 106.624L124.407 107.169C123.691 108.229 122.995 109.311 122.341 110.395V110.412ZM126.648 104.104L125.891 103.513C126.677 102.496 127.488 101.488 128.343 100.518L129.065 101.16C128.235 102.098 127.424 103.093 126.648 104.104ZM131.648 98.3259L130.962 97.6518C131.859 96.7337 132.791 95.8253 133.739 94.9586L134.378 95.6712C133.452 96.5315 132.529 97.4271 131.648 98.3259ZM137.267 93.1899L136.664 92.442C137.66 91.6298 138.688 90.8369 139.729 90.0858L140.288 90.869C139.263 91.6041 138.248 92.3874 137.267 93.1899ZM143.436 88.7248L142.922 87.9126C144.001 87.2225 145.119 86.5548 146.236 85.9256L146.702 86.7667C145.601 87.383 144.502 88.0539 143.436 88.7216V88.7248ZM150.074 85.0044L149.656 84.1377C150.808 83.5759 151.993 83.0431 153.168 82.5519L153.535 83.4411C152.376 83.9226 151.211 84.449 150.074 85.0012V85.0044ZM157.098 82.0833L156.779 81.1716C157.989 80.7511 159.225 80.3595 160.454 80.0064L160.716 80.9341C159.502 81.2776 158.276 81.6628 157.092 82.0801L157.098 82.0833ZM164.407 80L164.199 79.0595C165.448 78.7802 166.721 78.533 167.986 78.3276L168.139 79.2906C166.897 79.48 165.62 79.7079 164.4 79.9968L164.407 80ZM171.91 78.7802L171.811 77.8172C173.088 77.6856 174.365 77.5893 175.642 77.5315L175.687 78.4945C174.432 78.5523 173.158 78.6454 171.903 78.777L171.91 78.7802Z" fill="#D1D1DF"/>
<path d="M120.368 46.1218C118.5 45.7848 116.619 43.6469 115.208 40.254C113.765 36.7872 112.938 32.2867 112.938 27.9115C112.938 27.8162 112.9 27.7247 112.833 27.6573C112.766 27.5899 112.675 27.552 112.58 27.552C112.485 27.552 112.394 27.5899 112.327 27.6573C112.26 27.7247 112.223 27.8162 112.223 27.9115C112.223 32.2867 111.396 36.7872 109.953 40.254C108.541 43.6469 106.661 45.7848 104.796 46.1218C104.713 46.1362 104.638 46.1795 104.584 46.244C104.529 46.3086 104.499 46.3904 104.499 46.4749C104.498 46.4963 104.498 46.5178 104.499 46.5391C104.516 46.6327 104.569 46.7157 104.647 46.7698C104.725 46.824 104.821 46.8449 104.914 46.8281C105.872 46.6547 106.83 46.9564 107.743 47.7236C110.419 49.9706 112.213 55.8193 112.213 62.2649C112.213 62.3603 112.251 62.4517 112.318 62.5192C112.385 62.5866 112.476 62.6245 112.571 62.6245C112.666 62.6245 112.756 62.5866 112.824 62.5192C112.891 62.4517 112.928 62.3603 112.928 62.2649C112.928 55.8193 114.726 49.9771 117.398 47.7236C118.311 46.9564 119.263 46.6547 120.227 46.8281C120.273 46.8368 120.321 46.8363 120.367 46.8265C120.413 46.8167 120.456 46.7978 120.495 46.7709C120.533 46.744 120.566 46.7097 120.592 46.6699C120.617 46.6301 120.634 46.5857 120.642 46.5391C120.645 46.5179 120.645 46.4962 120.642 46.4749C120.643 46.3935 120.616 46.3143 120.566 46.2501C120.516 46.186 120.446 46.1407 120.368 46.1218Z" fill="#F4F9F5"/>
<path d="M285.055 174.75C283.893 174.541 282.721 173.209 281.843 171.097C280.891 168.649 280.411 166.043 280.429 163.415C280.433 163.384 280.43 163.352 280.42 163.321C280.411 163.291 280.395 163.263 280.374 163.239C280.353 163.215 280.327 163.196 280.299 163.183C280.27 163.17 280.239 163.164 280.207 163.164C280.175 163.164 280.144 163.17 280.115 163.183C280.086 163.196 280.061 163.215 280.04 163.239C280.019 163.263 280.003 163.291 279.994 163.321C279.984 163.352 279.981 163.384 279.985 163.415C280.004 166.043 279.524 168.65 278.571 171.097C277.693 173.209 276.521 174.541 275.378 174.75C275.326 174.759 275.279 174.786 275.245 174.826C275.211 174.867 275.193 174.918 275.193 174.971C275.191 174.984 275.191 174.997 275.193 175.01C275.198 175.039 275.208 175.066 275.224 175.091C275.24 175.116 275.26 175.137 275.284 175.154C275.308 175.171 275.336 175.183 275.364 175.189C275.393 175.195 275.422 175.195 275.451 175.189C275.768 175.142 276.091 175.168 276.396 175.265C276.702 175.362 276.981 175.527 277.214 175.748C278.877 177.151 279.998 180.788 279.998 184.8C279.994 184.832 279.997 184.864 280.006 184.894C280.016 184.924 280.032 184.952 280.052 184.976C280.073 185 280.099 185.019 280.128 185.032C280.157 185.045 280.188 185.052 280.22 185.052C280.251 185.052 280.283 185.045 280.311 185.032C280.34 185.019 280.366 185 280.387 184.976C280.408 184.952 280.424 184.924 280.433 184.894C280.442 184.864 280.445 184.832 280.442 184.8C280.442 180.788 281.562 177.151 283.229 175.748C283.461 175.527 283.74 175.362 284.045 175.265C284.349 175.168 284.672 175.142 284.988 175.189C285.017 175.195 285.047 175.195 285.075 175.189C285.104 175.183 285.131 175.171 285.155 175.154C285.179 175.137 285.2 175.116 285.215 175.091C285.231 175.066 285.242 175.039 285.247 175.01C285.248 174.997 285.248 174.984 285.247 174.971C285.247 174.917 285.228 174.865 285.193 174.824C285.157 174.783 285.109 174.757 285.055 174.75Z" fill="#F4F9F5"/>
</svg>
