<svg width="351" height="261" viewBox="0 0 351 261" fill="none" xmlns="http://www.w3.org/2000/svg">
<rect width="351" height="247" rx="20" fill="white"/>
<path d="M320.357 231.913H17.1891C17.1891 231.913 14.3541 200.398 57.0563 203.079C57.0563 203.079 58.17 156.515 95.4806 164.988C95.4806 164.988 102.011 145.765 118.566 157.678C118.566 157.678 156.281 82.9375 206.653 124.165C211.918 128.49 224.625 147.94 216.019 167.163C216.019 167.163 242.85 156.287 249.558 185.02C260.012 229.763 281.502 195.795 302.663 209.251C323.799 222.681 320.357 231.913 320.357 231.913Z" fill="#F4F9F5"/>
<path d="M149.852 95.1035C149.852 95.1035 161.141 97.0258 162.458 110.33C162.761 113.491 162.888 117.361 162.559 123.052L150.89 110.482L149.852 95.1035Z" fill="#2C243D"/>
<path d="M151.928 104.867L141.878 107.674L122.869 40.1167C122.869 40.1167 140.334 43.8348 146.384 69.0013C148.485 77.8285 149.801 83.8988 151.928 104.867Z" fill="#FB665D"/>
<path d="M128.665 101.047C128.665 101.047 120.034 108.585 125.83 120.599C127.222 123.457 129.121 126.821 132.386 131.525L135.778 114.706L128.665 101.047Z" fill="#2C243D"/>
<path d="M152.181 113.011L151.801 104.791L141.752 107.624L144.182 116.223L152.181 113.011Z" fill="url(#paint0_linear_423_1509)"/>
<path d="M131.981 110.456L142.03 107.649L123.021 40.0913C123.021 40.0913 110.035 52.3584 118.009 76.9937C120.818 85.5934 122.869 91.4613 131.981 110.456Z" fill="#FB665D"/>
<path d="M136.006 117.538L132.057 110.33L142.081 107.522L144.511 116.122L136.006 117.538Z" fill="url(#paint1_linear_423_1509)"/>
<path d="M131.399 78.4101C135.984 78.4101 139.702 74.6958 139.702 70.114C139.702 65.5322 135.984 61.8179 131.399 61.8179C126.814 61.8179 123.097 65.5322 123.097 70.114C123.097 74.6958 126.814 78.4101 131.399 78.4101Z" fill="#2C243D"/>
<path d="M131.399 75.5014C134.377 75.5014 136.791 73.0893 136.791 70.114C136.791 67.1386 134.377 64.7266 131.399 64.7266C128.421 64.7266 126.008 67.1386 126.008 70.114C126.008 73.0893 128.421 75.5014 131.399 75.5014Z" fill="#F4F9F5"/>
<path d="M147.548 127.175C147.042 127.301 146.536 127.023 146.409 126.543L138.537 98.5939C138.411 98.0881 138.689 97.5822 139.17 97.4558C139.676 97.3293 140.183 97.6075 140.309 98.0881L148.181 126.012C148.333 126.517 148.029 127.023 147.548 127.175Z" fill="#2C243D"/>
<path d="M139.817 136.739L139.082 136.928L145.904 163.327L146.639 163.137L139.817 136.739Z" fill="#515151"/>
<path d="M155.434 141.745L154.699 141.934L161.521 168.333L162.256 168.143L155.434 141.745Z" fill="#515151"/>
<path d="M155.586 122.702L154.851 122.891L161.673 149.29L162.408 149.1L155.586 122.702Z" fill="#515151"/>
<path d="M148.772 140.21L148.037 140.404L152.026 155.519L152.761 155.325L148.772 140.21Z" fill="#515151"/>
<path d="M277.326 241.17C277.326 241.17 286.97 218.963 298.588 216.206C300.436 215.776 302.208 217.243 302.081 219.115C301.828 223.162 298.36 231.331 280.794 244.964L277.326 241.17Z" fill="#FB665D"/>
<path d="M278.667 242.688C278.819 242.486 299.753 217.951 299.753 217.951C295.272 224.249 279.224 242.814 279.047 243.017L278.667 242.688Z" fill="white"/>
<path d="M273.934 238.666C273.934 238.666 276.288 210.844 287.932 203.535C289.779 202.371 292.26 203.332 292.817 205.431C294.032 209.959 293.273 220.152 279.098 241.525L273.934 238.666Z" fill="#FB665D"/>
<path d="M275.959 239.83C276.06 239.552 289.855 205.027 289.855 205.027C287.299 213.551 276.592 239.779 276.49 240.032L275.959 239.83Z" fill="white"/>
<path d="M318.307 247.62C318.307 247.62 311.472 228.625 294.665 236.087C294.665 236.087 287.552 239.324 279.781 231.256C279.781 231.256 265.353 212.691 251.456 218.862C251.456 218.862 244.673 221.467 241.129 234.063C241.129 234.063 223.334 233.456 221.107 247.671L318.307 247.62Z" fill="#FFC266"/>
<path d="M67.9153 234.949C67.9153 234.949 58.0435 212.842 63.8147 202.422C64.726 200.752 67.0041 200.449 68.3204 201.815C71.13 204.749 74.8256 212.792 73.0285 234.949H67.9153Z" fill="#FB665D"/>
<path d="M69.9656 234.974C69.9403 234.721 65.9156 202.725 65.9156 202.725C67.5356 210.263 70.4213 234.645 70.4466 234.898L69.9656 234.974Z" fill="white"/>
<path d="M61.9669 239.147C61.9669 239.147 37.5657 216.712 39.211 200.449C39.4641 197.869 42.1472 196.25 44.5519 197.262C49.665 199.412 58.6763 207.556 68.4216 236.365L61.9669 239.147Z" fill="#FB665D"/>
<path d="M64.5488 238.085C64.3716 237.781 42.0206 199.741 42.0206 199.741C48.1463 208.34 64.9538 237.453 65.1563 237.731L64.5488 238.085Z" fill="white"/>
<path d="M29.9719 247.772C29.9719 247.772 38.3251 224.502 58.9801 233.633C58.9801 233.633 67.7129 237.604 77.2557 227.689C77.2557 227.689 94.9238 204.875 112.01 212.412C112.01 212.412 120.363 215.599 124.717 231.079C124.717 231.079 146.561 230.294 149.346 247.747L29.9719 247.772Z" fill="#B2BDB4"/>
<path d="M78.2429 247.721C78.2429 247.721 86.596 227.487 100.088 235.808C100.088 235.808 105.656 242.157 112.01 236.592C112.01 236.592 123.527 221.113 136.639 226.678C149.751 232.242 154.509 247.721 154.509 247.721H78.2429Z" fill="#D088FF"/>
<path d="M100.847 125.177C100.847 125.177 106.163 124.165 107.428 117.589C107.428 117.589 108.82 124.039 114.136 125.05C114.136 125.05 108.314 127.327 107.555 132.638C107.555 132.638 106.289 126.315 100.847 125.177Z" fill="#FFC266"/>
<path d="M91.2281 118.525C91.2281 118.525 95.43 117.715 96.4425 112.53C96.4425 112.53 97.531 117.639 101.733 118.424C101.733 118.424 97.126 120.219 96.5185 124.418C96.5185 124.418 95.5313 119.41 91.2281 118.525Z" fill="#FFC266"/>
<path d="M92.0382 132.056C92.0382 132.056 95.6073 131.374 96.4679 126.947C96.4679 126.947 97.4045 131.298 100.974 131.955C100.974 131.955 97.0501 133.498 96.5438 137.064C96.5438 137.064 95.6832 132.815 92.0382 132.056Z" fill="#FFC266"/>
<path d="M164.634 62.1973C164.634 62.1973 169.95 61.1855 171.216 54.6094C171.216 54.6094 172.608 61.0591 177.924 62.0708C177.924 62.0708 172.102 64.3472 171.342 69.6587C171.342 69.6587 170.077 63.3354 164.634 62.1973Z" fill="#FFC266"/>
<path d="M155.016 55.5452C155.016 55.5452 159.217 54.7358 160.23 49.5508C160.23 49.5508 161.318 54.66 165.52 55.444C165.52 55.444 160.913 57.2398 160.306 61.4385C160.306 61.4385 159.319 56.4305 155.016 55.5452Z" fill="#FFC266"/>
<path d="M155.826 69.077C155.826 69.077 159.395 68.394 160.255 63.9678C160.255 63.9678 161.192 68.3182 164.761 68.9758C164.761 68.9758 160.837 70.5187 160.331 74.085C160.331 74.085 159.471 69.8357 155.826 69.077Z" fill="#FFC266"/>
<path d="M239.737 81.9513C239.737 82.1537 231.08 82.9377 231.08 82.9377L230.548 79.2956L230.092 76.1086V76.0581C217.892 79.1944 221.638 66.4214 221.638 66.4214L220.069 65.0556C220.069 65.0556 222.828 62.501 223.815 60.7305C224.802 58.96 227.156 55.6213 227.156 55.6213L238.952 58.96L238.37 71.1512C238.37 71.1512 239.737 81.749 239.737 81.9513Z" fill="#FFC0BF"/>
<path d="M190.327 217.876L187.947 223.111L186.53 226.197L179.999 223.769L181.72 219.115L183.315 214.765L190.327 217.876Z" fill="#FFC0BF"/>
<path d="M186.403 230.042L187.036 225.211C187.036 225.211 182.353 226.096 180.429 222.53L167.014 225.034C166.28 225.16 166.254 226.197 166.963 226.399L184.758 231.129C185.543 231.332 186.302 230.826 186.403 230.042Z" fill="url(#paint2_linear_423_1509)"/>
<path d="M233.965 206.924L228.27 210.92L227.258 209.529L222.727 203.079L229.257 199.083L231.485 202.776L233.965 206.924Z" fill="#FFC0BF"/>
<path d="M190.327 217.876L187.947 223.111L181.72 219.115L183.315 214.765L190.327 217.876Z" fill="#EFA3B2"/>
<path d="M231.485 202.776L227.258 209.529L222.727 203.079L229.257 199.083L231.485 202.776Z" fill="#EFA3B2"/>
<path d="M237.054 209.2L233.434 205.937C233.434 205.937 231.51 210.288 227.485 209.858L221.942 222.302C221.638 222.985 222.473 223.592 223.03 223.111L237.028 211.173C237.636 210.667 237.661 209.731 237.054 209.2Z" fill="url(#paint3_linear_423_1509)"/>
<path d="M211.209 162.332L213.285 166.329L220.069 179.38L231.94 202.219L221.284 211.957L212.576 198.602L204.173 185.728L192.984 168.681C189.314 165.266 189.339 159.449 193.035 156.034L226.448 126.796L251.912 132.512C248.216 141.541 211.209 162.332 211.209 162.332Z" fill="#2C243D"/>
<path d="M220.069 179.38L212.551 198.653L204.147 185.754L213.285 166.329L220.069 179.38Z" fill="url(#paint4_linear_423_1509)"/>
<path d="M252.671 126.796C252.671 126.796 252.671 127.124 252.595 127.757C252.317 130.084 250.925 136.584 244.343 146.524C243.685 147.511 242.977 148.522 242.217 149.585C237.585 155.984 230.928 163.647 221.284 172.348L194.883 222.555L181.594 218.862L207.008 159.221L224.068 133.22L225.207 131.475L228.903 125.834L246.723 126.543L252.671 126.796Z" fill="#2C243D"/>
<path d="M252.671 126.796C252.671 126.796 252.671 127.124 252.595 127.757C252.317 130.084 250.925 136.584 244.343 146.524C243.685 147.511 242.977 148.522 242.217 149.585C241.863 137.495 228.27 134.004 224.068 133.22L225.207 131.475L228.903 125.834L246.723 126.543L252.671 126.796Z" fill="url(#paint5_linear_423_1509)"/>
<path d="M228.295 97.6834V113.643L226.296 113.011L221.739 111.595L220.752 97.5063L220.727 97.2534L228.295 97.6834Z" fill="#FFC0BF"/>
<path d="M228.295 97.6834V113.643L226.296 113.011L224.372 100.643L220.752 97.5063L220.727 97.2534L228.295 97.6834Z" fill="#EFA3B2"/>
<path d="M256.088 99.277C256.038 100.491 255.962 101.857 255.861 103.374C255.329 111.848 254.089 124.949 251.33 138.253C251.178 139.012 250.267 139.366 249.634 138.911C247.153 137.115 243.002 133.6 234.244 133.018C226.448 132.487 223.764 131.045 222.828 130.134C222.473 129.78 222.423 129.224 222.676 128.794C223.334 127.706 225.562 123.836 226.473 120.017C226.777 118.778 226.928 117.513 226.878 116.375C226.878 116.299 226.878 116.249 226.878 116.173C226.903 115.945 226.878 115.136 226.802 113.972C226.498 109.495 225.612 99.8334 225.41 98.847C225.41 98.847 220.853 97.5824 220.752 97.3294L220.929 90.298V90.2727C220.904 89.7416 221.385 82.4066 230.548 79.8267C230.751 79.7761 231.409 82.1284 233.738 81.926C236.522 81.6731 239.154 78.1321 239.306 78.1321C241.888 78.1574 253.557 82.0272 256.013 93.839C256.013 93.8643 256.24 95.8624 256.088 99.277Z" fill="#5BC272"/>
<path d="M217.006 104.057L236.699 112.657V114.301L220.702 112.657L217.006 104.057Z" fill="url(#paint6_linear_423_1509)"/>
<path d="M236.699 114.301L221.942 113.896L220.702 111.443L236.699 112.657V114.301Z" fill="url(#paint7_linear_423_1509)"/>
<path d="M189.339 81.167L216.93 90.0954C217.74 90.3737 218.347 91.0566 218.499 91.9165L221.967 113.871L197.212 105.625C196.528 105.398 195.997 104.867 195.769 104.184L188.403 82.1029C188.2 81.5464 188.732 80.99 189.339 81.167Z" fill="#2C243D"/>
<path d="M252.393 107.497L250.039 111.645L244.217 121.838C243.787 122.774 242.698 123.229 241.736 122.875L220.499 114.933L215.588 114.2L209.033 110.912L207.792 109.192L221.942 113.39L239.762 114.099L243.103 103.703L243.356 102.59L252.393 107.497Z" fill="#FFC0BF"/>
<path d="M252.393 107.497L250.014 111.645L243.103 103.703L243.382 102.59L252.393 107.497Z" fill="#EFA3B2"/>
<path d="M205.641 95.0023C206.147 96.2669 205.793 97.5822 204.856 97.9616C203.919 98.341 202.73 97.6328 202.223 96.3681C201.717 95.1035 202.072 93.7882 203.008 93.4088C203.945 93.0294 205.134 93.7629 205.641 95.0023Z" fill="url(#paint8_linear_423_1509)"/>
<path d="M246.369 90.6015L242.951 103.45L252.545 108.382L255.101 101.983C255.101 101.983 257.709 94.4208 254.772 90.1715C254.064 89.1345 253.456 87.8699 251.735 87.4146C249.406 86.757 247.001 88.2493 246.369 90.6015Z" fill="#3EA455"/>
<path d="M243.584 61.6157C243.584 61.6157 243.812 58.9093 240.825 55.2166C238.775 52.6873 229.915 46.187 225.587 53.8507C221.866 60.4269 231.333 62.9562 234.092 63.538L232.674 67.0284L234.446 67.6101C234.446 67.6101 238.825 65.2326 238.066 69.2795C237.863 70.3165 237.56 70.8476 236.37 72.2134L238.572 73.3263C238.547 73.3263 248.09 69.2795 243.584 61.6157Z" fill="#2C243D"/>
<path d="M234.497 74.5911C234.168 76.3363 232.092 78.1574 230.574 79.2956L230.118 76.1086C232.168 75.5016 234.497 74.5911 234.497 74.5911Z" fill="#EFA3B2"/>
<defs>
<linearGradient id="paint0_linear_423_1509" x1="147.908" y1="135.354" x2="146.551" y2="98.9656" gradientUnits="userSpaceOnUse">
<stop stop-color="#2B233C"/>
<stop offset="1" stop-color="#635C70"/>
</linearGradient>
<linearGradient id="paint1_linear_423_1509" x1="143.177" y1="116.885" x2="132.154" y2="105.205" gradientUnits="userSpaceOnUse">
<stop stop-color="#2B233C"/>
<stop offset="1" stop-color="#635C70"/>
</linearGradient>
<linearGradient id="paint2_linear_423_1509" x1="179.056" y1="233.11" x2="175.797" y2="222.394" gradientUnits="userSpaceOnUse">
<stop stop-color="#2B233C"/>
<stop offset="1" stop-color="#635C70"/>
</linearGradient>
<linearGradient id="paint3_linear_423_1509" x1="235.374" y1="216.989" x2="224.694" y2="213.592" gradientUnits="userSpaceOnUse">
<stop stop-color="#2B233C"/>
<stop offset="1" stop-color="#635C70"/>
</linearGradient>
<linearGradient id="paint4_linear_423_1509" x1="216.504" y1="186.736" x2="205.629" y2="173.828" gradientUnits="userSpaceOnUse">
<stop stop-color="#2B233C"/>
<stop offset="1" stop-color="#635C70"/>
</linearGradient>
<linearGradient id="paint5_linear_423_1509" x1="247.181" y1="123.169" x2="230.976" y2="143.49" gradientUnits="userSpaceOnUse">
<stop stop-color="#2B233C"/>
<stop offset="1" stop-color="#635C70"/>
</linearGradient>
<linearGradient id="paint6_linear_423_1509" x1="217.018" y1="109.187" x2="236.694" y2="109.187" gradientUnits="userSpaceOnUse">
<stop stop-color="#2B233C"/>
<stop offset="1" stop-color="#635C70"/>
</linearGradient>
<linearGradient id="paint7_linear_423_1509" x1="226.249" y1="112.874" x2="242.235" y2="112.874" gradientUnits="userSpaceOnUse">
<stop stop-color="#2B233C"/>
<stop offset="1" stop-color="#635C70"/>
</linearGradient>
<linearGradient id="paint8_linear_423_1509" x1="202.207" y1="96.3926" x2="205.634" y2="95.0156" gradientUnits="userSpaceOnUse">
<stop stop-color="#D7C4EC"/>
<stop offset="1" stop-color="#F0F0F2"/>
</linearGradient>
</defs>
</svg>
