<svg width="23" height="14" viewBox="0 0 23 14" fill="none" xmlns="http://www.w3.org/2000/svg">
<path fill-rule="evenodd" clip-rule="evenodd" d="M11.179 11.8292C9.99493 12.8273 8.45902 13.4298 6.78069 13.4298C3.03582 13.4298 0 10.4301 0 6.72978C0 3.02948 3.03582 0.0297852 6.78069 0.0297852C8.45902 0.0297852 9.99493 0.632283 11.179 1.63033C12.363 0.632283 13.8989 0.0297852 15.5773 0.0297852C19.3221 0.0297852 22.358 3.02948 22.358 6.72978C22.358 10.4301 19.3221 13.4298 15.5773 13.4298C13.8989 13.4298 12.363 12.8273 11.179 11.8292Z" fill="#ED0006"/>
<path fill-rule="evenodd" clip-rule="evenodd" d="M11.179 11.8292C12.6369 10.6003 13.5614 8.77174 13.5614 6.72978C13.5614 4.68783 12.6369 2.85923 11.179 1.63032C12.363 0.632282 13.8989 0.0297852 15.5772 0.0297852C19.3221 0.0297852 22.3579 3.02948 22.3579 6.72978C22.3579 10.4301 19.3221 13.4298 15.5772 13.4298C13.8989 13.4298 12.363 12.8273 11.179 11.8292Z" fill="#F9A000"/>
<path fill-rule="evenodd" clip-rule="evenodd" d="M11.179 11.8292C12.6369 10.6003 13.5614 8.77175 13.5614 6.72981C13.5614 4.68787 12.6369 2.85927 11.179 1.63037C9.72109 2.85927 8.79663 4.68787 8.79663 6.72981C8.79663 8.77175 9.72109 10.6003 11.179 11.8292Z" fill="#FF5E00"/>
</svg>
