<svg width="25" height="8" viewBox="0 0 25 8" fill="none" xmlns="http://www.w3.org/2000/svg">
<path fill-rule="evenodd" clip-rule="evenodd" d="M6.7503 7.85834H4.69056L3.146 1.79247C3.07269 1.51344 2.91703 1.26676 2.68806 1.1505C2.11664 0.858328 1.48696 0.625803 0.800049 0.508529V0.274993H4.11813C4.57607 0.274993 4.91953 0.625803 4.97677 1.03323L5.77817 5.40874L7.83691 0.274993H9.83941L6.7503 7.85834ZM10.9843 7.85834H9.03902L10.6408 0.274993H12.5861L10.9843 7.85834ZM15.1028 2.37581C15.16 1.96738 15.5035 1.73384 15.9042 1.73384C16.5338 1.6752 17.2197 1.79248 17.7922 2.08364L18.1356 0.450907C17.5632 0.217371 16.9335 0.100098 16.3621 0.100098C14.4741 0.100098 13.1003 1.1505 13.1003 2.60834C13.1003 3.71738 14.0734 4.2997 14.7603 4.65051C15.5035 5.00031 15.7897 5.23385 15.7324 5.58365C15.7324 6.10835 15.16 6.34188 14.5886 6.34188C13.9017 6.34188 13.2147 6.16698 12.5861 5.87481L12.2426 7.50855C12.9295 7.79971 13.6727 7.91699 14.3596 7.91699C16.4766 7.97461 17.7922 6.92522 17.7922 5.35011C17.7922 3.36657 15.1028 3.25031 15.1028 2.37581ZM24.6 7.85834L23.0555 0.274993H21.3965C21.053 0.274993 20.7095 0.508529 20.5951 0.858328L17.7349 7.85834H19.7374L20.1371 6.75031H22.5976L22.8265 7.85834H24.6ZM21.6827 2.31718L22.2541 5.17522H20.6523L21.6827 2.31718Z" fill="#172B85"/>
</svg>
