<svg width="253" height="177" viewBox="0 0 253 177" fill="none" xmlns="http://www.w3.org/2000/svg">
<rect x="17" y="10" width="223.932" height="160.803" rx="15" fill="#F4F9F5"/>
<g clip-path="url(#clip0_401_1502)">
<path d="M252.825 162.519H0.097022C0.097022 162.519 -3.43105 127.721 32.1704 129.976C32.1704 129.976 22.8691 95.3028 53.9803 102.392C53.9803 102.392 59.4328 86.2805 73.2222 96.2695C73.2222 96.2695 115.635 27.6924 151.929 65.8509C156.375 70.5253 163.583 87.898 154.602 95.3028C154.602 95.3028 181.305 86.7977 193.814 123.209C206.323 159.621 220.433 132.232 238.073 143.508C255.713 154.783 252.825 162.519 252.825 162.519Z" fill="#E4EEF7"/>
<path d="M184.597 167.096C184.597 167.096 195.816 152.979 193.613 144.364C193.529 144.046 193.373 143.753 193.157 143.507C192.94 143.26 192.67 143.068 192.367 142.945C192.064 142.821 191.736 142.77 191.41 142.796C191.084 142.822 190.769 142.923 190.488 143.092C187.918 144.678 183.764 149.806 180.906 166.142L184.597 167.096Z" fill="#B2BDB4"/>
<path d="M183.131 166.742C183.202 166.568 192.058 144.211 192.058 144.211C189.476 149.354 182.858 166.424 182.787 166.598L183.131 166.742Z" fill="white"/>
<path d="M184.928 172.682C184.928 172.682 200.86 164.31 202.294 155.525C202.346 155.2 202.322 154.868 202.223 154.554C202.125 154.24 201.955 153.954 201.728 153.717C201.5 153.481 201.221 153.301 200.912 153.191C200.603 153.082 200.273 153.046 199.948 153.087C196.96 153.499 191.1 156.509 181.936 170.305L184.928 172.682Z" fill="#3C8B4D"/>
<path d="M183.728 171.762C183.863 171.632 200.931 154.754 200.931 154.754C196.5 158.417 183.607 171.363 183.472 171.501L183.728 171.762Z" fill="white"/>
<path d="M138.127 162.568C138.127 162.568 132.372 143.117 123.042 139.637C122.696 139.505 122.324 139.457 121.957 139.496C121.589 139.535 121.236 139.661 120.925 139.863C120.615 140.065 120.356 140.337 120.17 140.658C119.984 140.979 119.875 141.339 119.853 141.71C119.661 145.102 121.702 152.246 134.866 165.368L138.127 162.568Z" fill="#B2BDB4"/>
<path d="M136.858 163.698C136.747 163.519 121.902 140.978 121.902 140.978C124.968 146.67 136.394 163.744 136.506 163.922L136.858 163.698Z" fill="white"/>
<path d="M144.176 161.985C144.176 161.985 147.419 134.407 137.565 124.958C137.2 124.608 136.759 124.349 136.276 124.201C135.793 124.054 135.283 124.022 134.786 124.108C134.289 124.194 133.818 124.396 133.413 124.697C133.007 124.999 132.678 125.392 132.45 125.844C130.378 130.012 129.102 140.092 138.57 163.744L144.176 161.985Z" fill="#3C8B4D"/>
<path d="M141.975 162.716C141.929 162.432 135.409 126.029 135.409 126.029C136.198 134.848 141.363 162.523 141.41 162.809L141.975 162.716Z" fill="white"/>
<path d="M219.66 176.769C219.66 176.769 212.697 157.478 195.487 165.124C195.487 165.124 188.201 168.45 180.252 160.134C180.252 160.134 165.518 141.004 151.277 147.325C151.277 147.325 144.324 149.986 140.68 162.962C140.68 162.962 122.468 162.296 120.149 176.934L219.66 176.769Z" fill="#5BC272"/>
<path d="M179.425 176.934C179.425 176.934 172.462 159.975 161.211 166.954C161.211 166.954 156.569 172.277 151.277 167.619C151.277 167.619 141.674 154.643 130.745 159.301C119.817 163.958 115.844 176.934 115.844 176.934H179.425Z" fill="#D2E6F4"/>
<path d="M60.5892 172.381C60.5892 172.381 67.3985 156.64 75.5878 154.675C75.8909 154.602 76.2071 154.601 76.5107 154.672C76.8144 154.744 77.0971 154.886 77.3362 155.087C77.5753 155.288 77.764 155.543 77.8873 155.831C78.0106 156.119 78.0649 156.431 78.046 156.744C77.8624 159.617 75.4211 165.4 63.0327 175.067L60.5892 172.381Z" fill="url(#paint0_linear_401_1502)"/>
<path d="M61.5366 173.46C61.6506 173.322 76.4064 155.92 76.4064 155.92C73.254 160.384 61.9228 173.549 61.8109 173.687L61.5366 173.46Z" fill="white"/>
<path d="M58.1963 170.6C58.1963 170.6 59.8506 150.885 68.0757 145.691C68.3805 145.496 68.7267 145.376 69.0862 145.341C69.4457 145.306 69.8084 145.356 70.145 145.488C70.4816 145.619 70.7825 145.829 71.0235 146.099C71.2645 146.369 71.4387 146.693 71.5321 147.043C72.3888 150.251 71.8465 157.476 61.8657 172.633L58.1963 170.6Z" fill="url(#paint1_linear_401_1502)"/>
<path d="M59.6292 171.422C59.703 171.236 69.4221 146.747 69.4221 146.747C67.6158 152.795 60.0744 171.38 60.0026 171.573L59.6292 171.422Z" fill="white"/>
<path d="M89.4679 177C89.4679 177 84.678 163.53 72.8172 168.8C72.8172 168.8 67.7994 171.092 62.3258 165.362C62.3258 165.362 52.1763 152.186 42.3686 156.541C42.3686 156.541 37.5786 158.372 35.0697 167.31C35.0697 167.31 22.5231 166.852 20.9321 176.934L89.4679 177Z" fill="#5BC272"/>
<path d="M29.594 127.824C28.7359 127.823 27.9132 127.48 27.3064 126.871C26.6996 126.261 26.3582 125.435 26.3571 124.572H25.6376C25.6376 125.627 26.0544 126.638 26.7964 127.383C27.5384 128.128 28.5447 128.547 29.594 128.547C30.6433 128.547 31.6496 128.128 32.3916 127.383C33.1336 126.638 33.5504 125.627 33.5504 124.572H32.8309C32.8298 125.435 32.4884 126.261 31.8816 126.871C31.2748 127.48 30.4521 127.823 29.594 127.824Z" fill="url(#paint2_linear_401_1502)"/>
<path d="M194.437 120.445L186.872 118.054L192.672 113.263L194.437 120.445ZM188.296 117.776L193.472 119.413L192.265 114.499L188.296 117.776Z" fill="url(#paint3_linear_401_1502)"/>
<path d="M109.725 136.974C108.97 136.975 108.246 137.277 107.712 137.813C107.178 138.35 106.877 139.077 106.876 139.836H106.243C106.243 138.908 106.61 138.018 107.263 137.362C107.916 136.706 108.801 136.338 109.725 136.338C110.648 136.338 111.534 136.706 112.187 137.362C112.84 138.018 113.206 138.908 113.206 139.836H112.573C112.572 139.077 112.272 138.35 111.738 137.813C111.204 137.277 110.48 136.975 109.725 136.974Z" fill="url(#paint4_linear_401_1502)"/>
<path d="M18.8769 65.0537L19.5437 65.2382C20.0082 64.7027 20.6379 64.3389 21.3322 64.2049C22.0266 64.0708 22.7456 64.1741 23.3747 64.4984C24.0037 64.8227 24.5066 65.3493 24.8031 65.9942C25.0995 66.6391 25.1726 67.3651 25.0105 68.0565C24.8484 68.7479 24.4606 69.3649 23.9088 69.8091C23.357 70.2533 22.6731 70.499 21.9661 70.5072C21.2591 70.5154 20.5697 70.2855 20.0079 69.8542C19.4461 69.423 19.0442 68.8151 18.8663 68.1276L18.1805 67.939C18.3216 68.808 18.7576 69.6013 19.4144 70.1844C20.0713 70.7674 20.9086 71.1042 21.7845 71.1378C22.6604 71.1713 23.5208 70.8995 24.2199 70.3684C24.9191 69.8373 25.4138 69.0796 25.6204 68.2239C25.8269 67.3681 25.7325 66.4669 25.3531 65.6731C24.9738 64.8793 24.3328 64.2417 23.5389 63.8685C22.745 63.4953 21.8471 63.4094 20.9974 63.6255C20.1477 63.8415 19.3985 64.3461 18.8769 65.0537Z" fill="url(#paint5_linear_401_1502)"/>
<path d="M49.3571 19.9568C49.1351 19.7691 48.9594 19.5322 48.8437 19.2648C48.7281 18.9975 48.6756 18.7068 48.6903 18.4157L48.7072 18.0129C48.7179 17.8086 48.6793 17.6048 48.5948 17.4187C48.5104 17.2326 48.3824 17.0697 48.222 16.9438C48.0615 16.818 47.8731 16.7328 47.6729 16.6957C47.4727 16.6585 47.2666 16.6704 47.0719 16.7303C46.7765 16.8205 46.4637 16.8369 46.1606 16.7782C45.8574 16.7195 45.5731 16.5874 45.3322 16.3935C45.0913 16.1995 44.9012 15.9494 44.7782 15.665C44.6552 15.3805 44.603 15.0702 44.6263 14.7609L44.6537 14.3518C44.6682 14.158 44.6382 13.9634 44.5661 13.783C44.494 13.6026 44.3817 13.4412 44.2379 13.3112C44.094 13.1813 43.9224 13.0861 43.7363 13.0331C43.5501 12.9802 43.3543 12.9708 43.164 13.0056L43.0564 12.3697C43.3412 12.3185 43.6338 12.3334 43.9119 12.4132C44.1901 12.493 44.4464 12.6356 44.6614 12.8301C44.8764 13.0246 45.0442 13.2658 45.1523 13.5354C45.2603 13.805 45.3056 14.0958 45.2847 14.3857L45.2572 14.7948C45.2415 15.0015 45.2764 15.2089 45.3587 15.399C45.441 15.5891 45.5683 15.7561 45.7295 15.8854C45.8907 16.0148 46.0809 16.1026 46.2836 16.1412C46.4863 16.1799 46.6954 16.1681 46.8925 16.1071C47.1838 16.0184 47.4919 16.0013 47.7911 16.0573C48.0902 16.1133 48.3716 16.2406 48.6116 16.4287C48.8515 16.6167 49.0429 16.86 49.1697 17.1379C49.2965 17.4158 49.355 17.7202 49.3402 18.0256L49.3234 18.4305C49.3134 18.6317 49.3511 18.8325 49.4334 19.0162C49.5158 19.1999 49.6404 19.3613 49.797 19.4872C49.9535 19.613 50.1377 19.6997 50.3341 19.7401C50.5306 19.7805 50.7338 19.7734 50.927 19.7194L51.0811 19.6791C51.3685 19.5997 51.6705 19.5894 51.9626 19.6491C52.2547 19.7087 52.5287 19.8365 52.7625 20.0223C52.9963 20.2081 53.1833 20.4465 53.3084 20.7183C53.4334 20.9902 53.493 21.2878 53.4824 21.587L52.8493 21.568C52.8566 21.3681 52.8168 21.1694 52.7333 20.9879C52.6498 20.8064 52.5248 20.6473 52.3686 20.5233C52.2124 20.3994 52.0293 20.3143 51.8342 20.2748C51.6391 20.2353 51.4375 20.2426 51.2457 20.296L51.0916 20.3384C50.8025 20.4185 50.4985 20.4281 50.205 20.3665C49.9114 20.305 49.6367 20.174 49.4036 19.9844L49.3571 19.9568Z" fill="url(#paint6_linear_401_1502)"/>
<path d="M145.752 17.3536C145.487 17.4699 145.198 17.5229 144.908 17.5086C144.619 17.4942 144.336 17.4129 144.083 17.2709L143.731 17.0759C143.553 16.9757 143.354 16.92 143.151 16.9136C142.947 16.9073 142.745 16.9503 142.561 17.0392C142.378 17.128 142.218 17.26 142.097 17.424C141.975 17.588 141.894 17.7791 141.861 17.9811C141.811 18.2866 141.687 18.5753 141.501 18.8221C141.315 19.0689 141.072 19.2665 140.793 19.3977C140.514 19.529 140.207 19.59 139.899 19.5755C139.591 19.561 139.291 19.4715 139.025 19.3145L138.673 19.1025C138.507 19.0037 138.32 18.9445 138.127 18.9294C137.934 18.9144 137.74 18.9439 137.561 19.0157C137.381 19.0876 137.22 19.1998 137.09 19.3438C136.961 19.4879 136.865 19.6599 136.812 19.8466L136.204 19.6686C136.285 19.3891 136.427 19.1319 136.622 18.9164C136.816 18.7009 137.057 18.533 137.326 18.4254C137.595 18.3178 137.885 18.2734 138.174 18.2956C138.462 18.3178 138.742 18.406 138.992 18.5535L139.344 18.7655C139.522 18.8719 139.722 18.9331 139.929 18.9437C140.135 18.9542 140.341 18.9138 140.528 18.826C140.716 18.7382 140.879 18.6056 141.003 18.4398C141.128 18.2741 141.21 18.0802 141.243 17.8751C141.293 17.5734 141.414 17.2881 141.596 17.0433C141.778 16.7984 142.017 16.6012 142.291 16.4682C142.565 16.3352 142.867 16.2704 143.171 16.2791C143.475 16.2878 143.773 16.3699 144.039 16.5184L144.391 16.7134C144.566 16.8122 144.762 16.8673 144.963 16.874C145.163 16.8806 145.363 16.8386 145.543 16.7516C145.725 16.6672 145.884 16.5408 146.008 16.3827C146.131 16.2246 146.216 16.0394 146.255 15.8421L146.284 15.6831C146.34 15.389 146.465 15.1123 146.648 14.8755C146.83 14.6387 147.066 14.4484 147.335 14.32C147.604 14.1916 147.9 14.1288 148.198 14.1365C148.496 14.1442 148.788 14.2223 149.05 14.3645L148.753 14.9263C148.578 14.8311 148.383 14.7787 148.184 14.7733C147.985 14.768 147.787 14.8099 147.608 14.8956C147.428 14.9813 147.271 15.1084 147.149 15.2666C147.027 15.4248 146.944 15.6096 146.907 15.8061L146.875 15.9629C146.82 16.2583 146.695 16.5362 146.512 16.7736C146.328 17.011 146.091 17.2011 145.82 17.3282L145.752 17.3536Z" fill="url(#paint7_linear_401_1502)"/>
<path d="M159.782 102.678C159.91 101.916 159.941 101.141 159.875 100.372L161.238 99.0996L159.924 95.7586L158.067 95.7289C157.613 95.1046 157.074 94.5467 156.467 94.0711L156.632 92.2014L153.351 90.7174L152.017 92.0636C151.259 91.937 150.488 91.9056 149.722 91.9703L148.455 90.6008L145.155 91.8728L145.126 93.7383C144.503 94.1929 143.947 94.7339 143.476 95.3452L141.589 95.235L140.112 98.5335L141.452 99.8712C141.33 100.637 141.304 101.414 141.376 102.186L140.013 103.458L141.33 106.799L143.184 106.829C143.638 107.454 144.176 108.011 144.784 108.487L144.674 110.382L147.9 111.832L149.234 110.486C149.992 110.613 150.764 110.645 151.53 110.579L152.796 111.95L156.147 110.702L156.176 108.836C156.798 108.382 157.353 107.841 157.824 107.229L159.713 107.34L161.19 104.043L159.782 102.678ZM148.81 105.262C148.018 104.906 147.349 104.322 146.887 103.584C146.426 102.846 146.192 101.987 146.216 101.116C146.241 100.245 146.522 99.4001 147.024 98.6892C147.526 97.9783 148.226 97.4328 149.037 97.1219C149.847 96.8109 150.731 96.7484 151.577 96.9422C152.423 97.1361 153.193 97.5775 153.789 98.2108C154.385 98.8441 154.781 99.6407 154.926 100.5C155.072 101.359 154.961 102.243 154.606 103.038C154.373 103.567 154.038 104.045 153.62 104.443C153.202 104.841 152.71 105.153 152.173 105.359C151.635 105.566 151.061 105.664 150.486 105.647C149.91 105.63 149.344 105.5 148.818 105.262H148.81Z" fill="#FFC266"/>
<path d="M143.393 84.5231C143.26 83.9422 143.055 83.3804 142.784 82.8504L143.385 81.5467L141.469 79.5519L140.135 80.0797C139.63 79.7682 139.083 79.5298 138.511 79.3717L138.089 77.9874L135.316 77.9068L134.759 79.2593C134.18 79.3931 133.621 79.5996 133.094 79.8741L131.796 79.2678L129.813 81.146L130.338 82.4858C130.028 82.9943 129.79 83.5437 129.631 84.1181L128.254 84.5972L128.173 87.3828L129.522 87.9425C129.654 88.5236 129.859 89.0855 130.132 89.6151L129.528 90.9209L131.446 92.9137L132.778 92.3858C133.284 92.6975 133.832 92.9366 134.404 93.096L134.881 94.4803L137.608 94.5587L138.163 93.2062C138.741 93.0726 139.3 92.8668 139.827 92.5936L141.127 93.1977L143.157 91.3195L142.632 89.9818C142.942 89.4737 143.179 88.9242 143.336 88.3495L144.714 87.8683L144.797 85.0827L143.393 84.5231ZM136.331 89.6108C135.664 89.5897 135.019 89.3706 134.476 88.9812C133.933 88.5919 133.517 88.0497 133.281 87.4232C133.044 86.7966 132.998 86.1137 133.147 85.4606C133.297 84.8076 133.635 84.2136 134.121 83.7538C134.606 83.2939 135.215 82.9886 135.873 82.8766C136.531 82.7645 137.207 82.8507 137.815 83.1241C138.424 83.3976 138.939 83.8462 139.294 84.4132C139.65 84.9802 139.83 85.6403 139.813 86.3101C139.801 86.7567 139.701 87.1965 139.519 87.6043C139.338 88.012 139.078 88.3797 138.754 88.6862C138.43 88.9927 138.05 89.232 137.634 89.3903C137.218 89.5486 136.775 89.6228 136.331 89.6087V89.6108Z" fill="url(#paint8_linear_401_1502)"/>
<path d="M193.234 88.5339C193.234 88.5339 195.072 89.1974 195.709 89.3225C207.878 91.735 215.544 59.4317 215.544 59.4317C222.64 25.3563 214.672 23.7345 213.157 22.9693C211.803 22.2888 209.768 22.2888 209.768 22.2888L193.234 88.5339Z" fill="#B6BFC6"/>
<path d="M210.958 57.8108C215.468 39.5038 215.029 23.6451 209.978 22.3893C204.927 21.1335 197.177 34.9561 192.667 53.263C188.158 71.57 188.596 87.4287 193.648 88.6845C198.699 89.9403 206.449 76.1177 210.958 57.8108Z" fill="#EAF4FD"/>
<path d="M207.398 57.3325C211.398 41.0929 211.88 27.2416 208.474 26.3947C205.067 25.5479 199.063 38.0261 195.063 54.2657C191.063 70.5053 190.581 84.3566 193.987 85.2035C197.393 86.0504 203.398 73.5721 207.398 57.3325Z" fill="url(#paint9_linear_401_1502)"/>
<path d="M204.557 57.4675C207.675 44.8079 208.662 34.162 206.76 33.6892C204.858 33.2164 200.789 43.0957 197.67 55.7553C194.552 68.4149 193.566 79.0608 195.467 79.5336C197.369 80.0064 201.438 70.1271 204.557 57.4675Z" fill="#EAF4FD"/>
<path d="M201.781 58.8764C202.691 55.1816 202.978 52.0744 202.423 51.9363C201.867 51.7982 200.679 54.6815 199.769 58.3763C198.859 62.0711 198.571 65.1782 199.127 65.3163C199.682 65.4544 200.87 62.5712 201.781 58.8764Z" fill="url(#paint10_linear_401_1502)"/>
<path d="M175.03 51.5478L174.34 49.6399C174.295 49.5148 174.28 49.3806 174.298 49.2487C174.315 49.1168 174.364 48.9911 174.441 48.8825C174.518 48.7738 174.619 48.6855 174.737 48.6251C174.855 48.5646 174.986 48.5338 175.119 48.5354C177.182 48.5502 181.299 49.0696 181.584 52.966L175.03 51.5478Z" fill="url(#paint11_linear_401_1502)"/>
<path d="M175.021 51.5753L173.515 52.9193C173.416 53.0076 173.34 53.1186 173.293 53.2428C173.246 53.367 173.229 53.5009 173.245 53.6329C173.26 53.7649 173.307 53.8911 173.382 54.0009C173.457 54.1107 173.556 54.2007 173.673 54.2634C175.494 55.2406 179.37 56.7564 181.461 53.4663L175.021 51.5753Z" fill="url(#paint12_linear_401_1502)"/>
<path d="M195.605 56.5508C195.602 56.3593 195.549 56.172 195.451 56.0078C195.353 55.8436 195.213 55.7084 195.046 55.6159C195.046 55.6159 175.585 51.5075 174.445 51.2234C174.115 51.1188 173.769 51.0715 173.422 51.0835C173.41 51.0846 173.398 51.0894 173.389 51.0973C173.379 51.1052 173.372 51.1158 173.369 51.1277C173.365 51.1396 173.365 51.1523 173.369 51.1641C173.373 51.1759 173.381 51.1862 173.39 51.1937C173.676 51.4 174 51.5444 174.344 51.6177C175.484 51.9103 194.542 57.6213 194.542 57.6213C194.733 57.6203 194.919 57.5686 195.084 57.4714C195.248 57.3742 195.384 57.235 195.477 57.068C195.524 56.9912 195.561 56.9085 195.586 56.8221C195.604 56.7328 195.61 56.6417 195.605 56.5508Z" fill="#5096D4"/>
<path d="M201.012 58.4481L195.371 57.0108C195.296 56.9909 195.231 56.9418 195.192 56.8743C195.152 56.8068 195.141 56.7263 195.16 56.6504C195.18 56.5748 195.228 56.5101 195.295 56.4703C195.362 56.4306 195.442 56.4191 195.517 56.4384L201.159 57.8757L201.012 58.4481Z" fill="#326DAF"/>
<path d="M188.925 8.84849L189.068 6.83245C189.078 6.6998 189.119 6.5714 189.188 6.4583C189.258 6.34519 189.354 6.25079 189.468 6.1832C189.582 6.11562 189.711 6.07688 189.843 6.07033C189.975 6.06378 190.107 6.08961 190.227 6.1456C192.105 7.00629 195.65 9.17284 194.323 12.8445L188.925 8.84849Z" fill="url(#paint13_linear_401_1502)"/>
<path d="M188.906 8.87183L186.986 9.47388C186.859 9.51316 186.744 9.58281 186.65 9.67681C186.556 9.77081 186.487 9.88633 186.447 10.0134C186.408 10.1405 186.4 10.2753 186.424 10.4062C186.448 10.5372 186.503 10.6603 186.585 10.7649C187.851 12.4036 190.759 15.3757 194.012 13.2388L188.906 8.87183Z" fill="url(#paint14_linear_401_1502)"/>
<path d="M205.662 21.8732C205.738 21.6973 205.766 21.5044 205.743 21.3141C205.721 21.1239 205.648 20.943 205.533 20.7899C205.533 20.7899 189.448 9.04138 188.526 8.30577C188.267 8.07729 187.971 7.89453 187.65 7.76519C187.639 7.76122 187.626 7.76084 187.614 7.76409C187.603 7.76735 187.592 7.7741 187.584 7.78346C187.576 7.79283 187.571 7.80438 187.57 7.81662C187.568 7.82886 187.571 7.84122 187.577 7.85211C187.751 8.15921 187.988 8.42635 188.271 8.63648C189.193 9.36997 204.257 22.4159 204.257 22.4159C204.431 22.4931 204.623 22.5226 204.812 22.5013C205.002 22.4801 205.182 22.4089 205.335 22.2951C205.413 22.2442 205.484 22.1837 205.546 22.1149C205.595 22.0398 205.634 21.9585 205.662 21.8732Z" fill="#5096D4"/>
<path d="M209.743 25.8057L205.175 22.1806C205.143 22.1564 205.117 22.126 205.098 22.0914C205.078 22.0568 205.066 22.0185 205.061 21.979C205.056 21.9394 205.06 21.8993 205.071 21.8611C205.082 21.8229 205.101 21.7874 205.126 21.7566C205.15 21.725 205.181 21.6986 205.215 21.679C205.25 21.6593 205.288 21.6469 205.327 21.6423C205.366 21.6378 205.406 21.6412 205.444 21.6525C205.482 21.6638 205.518 21.6826 205.548 21.7079L210.11 25.3393L209.743 25.8057Z" fill="#326DAF"/>
<path d="M180.696 70.892L179.339 69.4081C179.25 69.3097 179.185 69.1912 179.152 69.0625C179.118 68.9338 179.115 68.7988 179.145 68.669C179.174 68.5392 179.235 68.4185 179.321 68.3172C179.407 68.216 179.516 68.1371 179.638 68.0873C181.55 67.3093 185.547 66.2133 187.296 69.707L180.696 70.892Z" fill="url(#paint15_linear_401_1502)"/>
<path d="M180.7 70.9196L179.816 72.7342C179.757 72.8537 179.728 72.9857 179.731 73.1188C179.735 73.252 179.77 73.3824 179.835 73.4988C179.899 73.6151 179.991 73.714 180.102 73.7869C180.213 73.8598 180.34 73.9044 180.472 73.9171C182.525 74.1291 186.676 74.0422 187.368 70.1967L180.7 70.9196Z" fill="url(#paint16_linear_401_1502)"/>
<path d="M201.617 67.6337C201.542 67.4578 201.422 67.3051 201.27 67.1908C201.117 67.0765 200.937 67.0048 200.748 66.9828C200.748 66.9828 181.196 70.6418 180.031 70.8093C179.685 70.8374 179.348 70.9264 179.033 71.0721C179.021 71.0767 179.012 71.0845 179.005 71.0947C178.998 71.1049 178.994 71.117 178.994 71.1294C178.994 71.1417 178.998 71.1538 179.005 71.164C179.012 71.1742 179.021 71.1821 179.033 71.1866C179.378 71.2716 179.738 71.2824 180.088 71.2184C181.251 71.0509 201.037 69.0307 201.037 69.0307C201.213 68.9562 201.366 68.8364 201.481 68.6834C201.596 68.5304 201.668 68.3497 201.691 68.1594C201.728 67.9806 201.701 67.7944 201.615 67.6337H201.617Z" fill="#5096D4"/>
<path d="M207.422 67.3009L201.661 68.1319C201.623 68.1376 201.584 68.1356 201.547 68.1261C201.509 68.1166 201.474 68.0997 201.443 68.0765C201.412 68.0532 201.386 68.0241 201.366 67.9906C201.346 67.9572 201.334 67.9202 201.328 67.8817C201.317 67.8042 201.337 67.7255 201.384 67.6627C201.431 67.6 201.5 67.5583 201.577 67.5468L207.338 66.7158L207.422 67.3009Z" fill="#326DAF"/>
<path d="M180.035 35.7332L179.516 33.7808C179.482 33.6524 179.479 33.5176 179.509 33.3879C179.538 33.2583 179.598 33.1377 179.683 33.0364C179.769 32.9351 179.878 32.8562 180 32.8064C180.123 32.7567 180.256 32.7374 180.388 32.7505C182.443 32.9476 186.507 33.8295 186.437 37.7365L180.035 35.7332Z" fill="url(#paint17_linear_401_1502)"/>
<path d="M180.027 35.7608L178.406 36.9607C178.3 37.0399 178.214 37.1437 178.157 37.2632C178.099 37.3828 178.071 37.5146 178.075 37.6474C178.079 37.7803 178.115 37.9102 178.179 38.0261C178.244 38.142 178.336 38.2405 178.446 38.3132C180.174 39.4473 183.892 41.3001 186.273 38.2093L180.027 35.7608Z" fill="url(#paint18_linear_401_1502)"/>
<path d="M200.092 42.5445C200.106 42.3539 200.07 42.1629 199.987 41.9909C199.904 41.8189 199.777 41.672 199.619 41.5651C199.619 41.5651 180.592 35.7481 179.482 35.3517C179.163 35.2166 178.822 35.1384 178.476 35.1206C178.464 35.1215 178.452 35.1259 178.443 35.1332C178.433 35.1405 178.426 35.1504 178.421 35.1618C178.417 35.1732 178.416 35.1855 178.419 35.1974C178.421 35.2092 178.427 35.2201 178.436 35.2287C178.703 35.4651 179.017 35.6421 179.358 35.7481C180.468 36.1382 198.948 43.5218 198.948 43.5218C199.138 43.5371 199.329 43.5016 199.501 43.419C199.672 43.3363 199.82 43.2094 199.927 43.0512C199.981 42.9794 200.026 42.9011 200.06 42.818C200.082 42.7286 200.093 42.6367 200.092 42.5445Z" fill="#5096D4"/>
<path d="M205.291 44.9145L199.805 42.9791C199.768 42.9664 199.735 42.9467 199.706 42.921C199.677 42.8953 199.653 42.8641 199.636 42.8293C199.62 42.7944 199.61 42.7566 199.607 42.7179C199.605 42.6792 199.611 42.6404 199.623 42.6038C199.649 42.5297 199.703 42.4689 199.773 42.4347C199.844 42.4005 199.925 42.3958 199.999 42.4215L205.485 44.357L205.291 44.9145Z" fill="#326DAF"/>
<path d="M161.477 31.0089L161.278 31.6126L175.512 36.3476L175.711 35.7439L161.477 31.0089Z" fill="#515151"/>
<path d="M160.322 41.7548L160.139 42.3638L167.227 44.507L167.41 43.8981L160.322 41.7548Z" fill="#515151"/>
<path d="M149.813 32.5165L149.619 33.1219L176.337 41.7503L176.531 41.1449L149.813 32.5165Z" fill="#515151"/>
<path d="M56.6306 129.522L51.4862 133.932L50.5388 134.744L46.7596 130.311L49.3783 127.701L52.1826 124.907L56.6306 129.522Z" fill="#FFC0BF"/>
<path d="M43.7823 131.511L47.3821 129.603C47.3821 129.603 48.0383 133.54 51.3744 134.017L53.2735 145.286C53.2944 145.417 53.2703 145.552 53.2051 145.667C53.1399 145.783 53.0375 145.873 52.9147 145.922C52.7919 145.971 52.6561 145.977 52.5296 145.939C52.403 145.9 52.2933 145.82 52.2184 145.71L43.3877 133.103C43.3013 132.975 43.2428 132.83 43.2158 132.677C43.1889 132.525 43.1943 132.369 43.2315 132.218C43.2687 132.068 43.337 131.928 43.4319 131.806C43.5268 131.684 43.6462 131.583 43.7823 131.511Z" fill="url(#paint19_linear_401_1502)"/>
<path d="M100.71 111.336L97.4166 117.106L96.7266 118.312L91.6835 115.421L93.2703 112.082L94.9731 108.497L100.71 111.336Z" fill="#FFC0BF"/>
<path d="M89.4932 117.346L92.2363 114.34C92.2363 114.34 94.1839 117.823 97.4862 117.153L103.059 127.116C103.123 127.232 103.146 127.366 103.125 127.497C103.103 127.628 103.038 127.747 102.94 127.836C102.842 127.925 102.717 127.977 102.585 127.985C102.453 127.993 102.323 127.956 102.215 127.88L89.6789 118.995C89.5503 118.905 89.4422 118.789 89.3619 118.654C89.2816 118.519 89.231 118.369 89.2134 118.213C89.1958 118.056 89.2117 117.898 89.2599 117.749C89.3082 117.599 89.3877 117.462 89.4932 117.346Z" fill="url(#paint20_linear_401_1502)"/>
<path d="M56.6306 129.522L51.4862 133.932L49.3782 127.701L52.1825 124.907L56.6306 129.522Z" fill="#EFA3B2"/>
<path d="M100.71 111.336L97.4166 117.106L93.2703 112.082L94.9731 108.497L100.71 111.336Z" fill="#EFA3B2"/>
<path d="M77.7526 33.7511C77.7526 33.7511 73.4037 35.1969 70.5024 36.9924C69.5634 37.5733 68.7763 38.1923 68.3374 38.8092C66.5417 41.3362 58.842 53.5723 58.842 53.5723C58.842 53.5723 59.2535 56.7522 58.9981 57.8227C58.7428 58.8933 57.4536 57.0426 57.4536 57.0426C57.4536 57.0426 57.1814 59.9363 55.4279 58.1746C55.4279 58.1746 53.7736 58.0559 53.5963 56.7458C53.5963 56.7458 52.3704 56.591 52.6826 54.6937C52.9949 52.7964 55.8077 51.3019 55.8077 51.3019C55.8077 51.3019 59.9878 37.9167 67.8732 30.1663C67.8732 30.1663 69.4621 28.9516 72.6568 27.9722C73.3172 27.7602 74.0473 27.5779 74.8449 27.4083L77.7526 33.7511Z" fill="#FFC0BF"/>
<path d="M78.7064 54.098C78.7064 54.098 114.555 71.1633 114.884 77.2538C115.213 83.3443 107.193 106.765 102.308 117.153L93.2091 112.029C93.2091 112.029 102.339 88.1099 100.651 84.1711C98.6721 79.5433 79.8564 72.8232 79.8564 72.8232L78.7064 54.098Z" fill="url(#paint21_linear_401_1502)"/>
<path d="M89.2864 92.2968C88.0815 108.429 56.2149 135.912 56.2149 135.912L48.9119 127.127C48.9119 127.127 56.5314 120.413 62.8068 111.9C72.6357 98.5696 73.2687 94.1559 73.2687 94.1559C73.9735 91.8813 73.0281 84.8898 71.9689 78.5131C71.1987 73.8832 70.3694 69.5777 70.0698 67.6401C70.036 67.4281 70.0023 67.2161 69.9706 67.0041C69.8503 66.2451 69.7343 65.5201 69.6267 64.846C69.0506 61.3291 71.3612 58.5541 71.3612 58.5541L75.4442 57.4687L87.4443 54.2761L88.0773 54.1086L88.1659 56.9006L88.301 61.2379V61.4838L88.3769 63.856V64.138L88.3959 64.6785L89.2864 92.2968Z" fill="url(#paint22_linear_401_1502)"/>
<path d="M148.071 32.4029C146.9 33.0834 144.037 34.6415 138.743 33.838L121.803 43.7317C121.28 44.0498 120.69 44.242 120.081 44.2935C119.471 44.345 118.858 44.2543 118.29 44.0285L114.814 42.6463L109.598 40.573L112.763 32.8523L114.905 33.9843L121.119 37.2702L136.101 30.7493L140.093 28.3623L142.275 27.2684C142.275 27.2684 142.294 28.7163 141.779 29.1573L140.743 29.825L147.962 31.8114C148.026 31.8222 148.086 31.8526 148.133 31.8986C148.179 31.9446 148.211 32.0039 148.223 32.0685C148.235 32.1331 148.227 32.1999 148.2 32.2597C148.172 32.3195 148.128 32.3695 148.071 32.4029Z" fill="#FFC0BF"/>
<path d="M114.814 42.6463L109.598 40.573L112.763 32.8523L114.905 33.9843C114.852 36.6872 114.804 40.0685 114.814 42.6463Z" fill="#EFA3B2"/>
<path d="M115.055 17.4935L113.422 17.6588C111.202 28.7523 104.682 22.6046 104.682 22.6046V22.6237L103.561 25.1082L101.24 30.2532L94.9098 28.5764L99.1743 16.8448L98.9865 10.2116L110.592 6.42542L113.299 10.9451C113.597 12.9547 115.055 17.4935 115.055 17.4935Z" fill="#FFC0BF"/>
<path d="M96.2686 18.545C96.2686 18.545 101.189 17.6546 102.599 16.4929C102.599 16.4929 101.476 13.171 103.793 12.8276C103.793 12.8276 105.538 12.8848 105.99 14.8797C105.99 14.8797 109.315 12.7979 110.292 9.79186C110.292 9.79186 110.74 10.678 110.659 12.2743C110.659 12.2743 113.825 13.3894 115.143 12.7173C115.143 12.7173 114.916 2.60324 107.125 4.39457C107.125 4.39457 102.36 0.981506 97.3553 6.64167C97.3553 6.64167 96.6696 -2.29588 86.0389 0.555405C86.0389 0.555405 92.8819 -0.146286 95.1756 3.63564C95.1756 3.63564 88.9635 -2.10085 79.1284 5.07082C79.1284 5.07082 76.8452 7.79066 72.0638 5.32945C72.0638 5.32945 65.0161 0.35189 57.5337 9.55231C57.5337 9.55231 64.286 6.16045 67.4131 11.2482C70.5403 16.336 73.8067 22.5071 80.2552 18.0595C80.2552 18.0595 86.501 13.3236 90.2317 8.64711C90.2317 8.64711 92.4684 5.61776 96.1251 7.92846C96.1251 7.92846 94.264 11.3776 97.1802 15.0662C97.1781 15.0789 97.3216 17.1204 96.2686 18.545Z" fill="url(#paint23_linear_401_1502)"/>
<path d="M88.3938 64.1295C78.2506 65.6134 73.8553 72.9844 71.9689 78.5131C71.1987 73.8832 70.3694 69.5777 70.0698 67.6401C70.036 67.4281 70.0023 67.2161 69.9706 67.0041C69.8503 66.2451 69.7343 65.5201 69.6267 64.846C69.0506 61.3291 71.3612 58.5541 71.3612 58.5541L75.4442 57.4687L87.4443 54.2761L88.1659 56.9006L88.301 61.2379V61.4838L88.3769 63.856L88.3938 64.1295Z" fill="url(#paint24_linear_401_1502)"/>
<path d="M77.7526 33.7511C77.7526 33.7511 73.4037 35.1969 70.5023 36.9925L72.6609 27.9786C73.3214 27.7666 74.0515 27.5843 74.8491 27.4147L77.7526 33.7511Z" fill="#EFA3B2"/>
<path d="M114.928 33.7066L110.991 43.2843L105.458 40.3822C105.458 40.3822 97.6782 46.9454 98.5412 64.5789C98.5412 64.5789 96.8067 61.9968 84.6146 64.3669C78.2484 65.6049 69.3755 62.1389 68.9071 61.9544H68.8881C68.8881 61.9544 78.8371 40.6726 80.5632 35.1714L79.8352 35.3601L73.0091 37.1069L72.7094 27.9171L83.0004 22.8908C85.109 21.8592 87.4991 21.5609 89.7949 22.0428L96.7434 23.514C96.7434 23.514 99.343 28.3898 103.031 26.2509L114.928 33.7066Z" fill="#5BC272"/>
<path d="M86.7247 33.6282L68.9071 61.9545H68.8881C68.8881 61.9545 78.8372 40.6726 80.5632 35.1715L86.7247 33.6282Z" fill="url(#paint25_linear_401_1502)"/>
<path d="M104.673 22.6258L103.553 25.1104C102.229 23.121 101.581 20.7546 101.706 18.3648C102.481 19.924 103.481 21.3598 104.673 22.6258Z" fill="#EFA3B2"/>
</g>
<defs>
<linearGradient id="paint0_linear_401_1502" x1="48041.1" y1="7361.3" x2="47044.3" y2="8701.2" gradientUnits="userSpaceOnUse">
<stop stop-color="#AB53FF"/>
<stop offset="1" stop-color="#CF87FF"/>
</linearGradient>
<linearGradient id="paint1_linear_401_1502" x1="33456.9" y1="9189.97" x2="34226.5" y2="6752.07" gradientUnits="userSpaceOnUse">
<stop stop-color="#64D7FD"/>
<stop offset="1" stop-color="#6577FF"/>
</linearGradient>
<linearGradient id="paint2_linear_401_1502" x1="25.6376" y1="126.561" x2="33.5504" y2="126.561" gradientUnits="userSpaceOnUse">
<stop stop-color="#FA655C"/>
<stop offset="1" stop-color="#FFBF8A"/>
</linearGradient>
<linearGradient id="paint3_linear_401_1502" x1="187.809" y1="115.037" x2="195.381" y2="117.409" gradientUnits="userSpaceOnUse">
<stop stop-color="#C681E6"/>
<stop offset="1" stop-color="#7057E4"/>
</linearGradient>
<linearGradient id="paint4_linear_401_1502" x1="3967.39" y1="634.119" x2="4197.18" y2="634.119" gradientUnits="userSpaceOnUse">
<stop stop-color="#64D7FD"/>
<stop offset="1" stop-color="#6577FF"/>
</linearGradient>
<linearGradient id="paint5_linear_401_1502" x1="232.641" y1="939.702" x2="305.322" y2="676.7" gradientUnits="userSpaceOnUse">
<stop stop-color="#C681E6"/>
<stop offset="1" stop-color="#7057E4"/>
</linearGradient>
<linearGradient id="paint6_linear_401_1502" x1="5493.47" y1="5899.61" x2="6017.85" y2="6344.14" gradientUnits="userSpaceOnUse">
<stop stop-color="#64D7FD"/>
<stop offset="1" stop-color="#6577FF"/>
</linearGradient>
<linearGradient id="paint7_linear_401_1502" x1="1150.41" y1="-187.216" x2="1927.94" y2="-520.361" gradientUnits="userSpaceOnUse">
<stop stop-color="#FA655C"/>
<stop offset="1" stop-color="#FFBF8A"/>
</linearGradient>
<linearGradient id="paint8_linear_401_1502" x1="9374.39" y1="10205.3" x2="10677.6" y2="10243.2" gradientUnits="userSpaceOnUse">
<stop stop-color="#64D7FD"/>
<stop offset="1" stop-color="#6577FF"/>
</linearGradient>
<linearGradient id="paint9_linear_401_1502" x1="58033.5" y1="5150.23" x2="63470.3" y2="5150.23" gradientUnits="userSpaceOnUse">
<stop stop-color="#FA655C"/>
<stop offset="1" stop-color="#FFBF8A"/>
</linearGradient>
<linearGradient id="paint10_linear_401_1502" x1="13822" y1="917.091" x2="14072.9" y2="917.091" gradientUnits="userSpaceOnUse">
<stop stop-color="#FA655C"/>
<stop offset="1" stop-color="#FFBF8A"/>
</linearGradient>
<linearGradient id="paint11_linear_401_1502" x1="6570.59" y1="1713.63" x2="6822.72" y2="1713.63" gradientUnits="userSpaceOnUse">
<stop stop-color="#29056B"/>
<stop offset="1" stop-color="#6C93F5"/>
</linearGradient>
<linearGradient id="paint12_linear_401_1502" x1="7343.21" y1="1568.34" x2="7663.64" y2="1568.34" gradientUnits="userSpaceOnUse">
<stop stop-color="#29056B"/>
<stop offset="1" stop-color="#6C93F5"/>
</linearGradient>
<linearGradient id="paint13_linear_401_1502" x1="5571.81" y1="1232.24" x2="5725.16" y2="1232.24" gradientUnits="userSpaceOnUse">
<stop stop-color="#29056B"/>
<stop offset="1" stop-color="#6C93F5"/>
</linearGradient>
<linearGradient id="paint14_linear_401_1502" x1="7290.19" y1="981.668" x2="7564.03" y2="981.668" gradientUnits="userSpaceOnUse">
<stop stop-color="#29056B"/>
<stop offset="1" stop-color="#6C93F5"/>
</linearGradient>
<linearGradient id="paint15_linear_401_1502" x1="7532.65" y1="1732.79" x2="7849.14" y2="1732.79" gradientUnits="userSpaceOnUse">
<stop stop-color="#29056B"/>
<stop offset="1" stop-color="#6C93F5"/>
</linearGradient>
<linearGradient id="paint16_linear_401_1502" x1="7073.82" y1="1873.81" x2="7350.19" y2="1873.81" gradientUnits="userSpaceOnUse">
<stop stop-color="#29056B"/>
<stop offset="1" stop-color="#6C93F5"/>
</linearGradient>
<linearGradient id="paint17_linear_401_1502" x1="6445.29" y1="1542.77" x2="6674.28" y2="1542.77" gradientUnits="userSpaceOnUse">
<stop stop-color="#29056B"/>
<stop offset="1" stop-color="#6C93F5"/>
</linearGradient>
<linearGradient id="paint18_linear_401_1502" x1="7514.72" y1="1341.54" x2="7833.22" y2="1341.54" gradientUnits="userSpaceOnUse">
<stop stop-color="#29056B"/>
<stop offset="1" stop-color="#6C93F5"/>
</linearGradient>
<linearGradient id="paint19_linear_401_1502" x1="43.521" y1="138.164" x2="52.8496" y2="137.634" gradientUnits="userSpaceOnUse">
<stop stop-color="#2B233C"/>
<stop offset="1" stop-color="#635C70"/>
</linearGradient>
<linearGradient id="paint20_linear_401_1502" x1="12683.1" y1="5522.44" x2="13251.6" y2="5282.57" gradientUnits="userSpaceOnUse">
<stop stop-color="#2B233C"/>
<stop offset="1" stop-color="#635C70"/>
</linearGradient>
<linearGradient id="paint21_linear_401_1502" x1="15423.2" y1="34120.7" x2="21629" y2="34120.7" gradientUnits="userSpaceOnUse">
<stop stop-color="#2B233C"/>
<stop offset="1" stop-color="#635C70"/>
</linearGradient>
<linearGradient id="paint22_linear_401_1502" x1="11466.8" y1="47870.5" x2="19192.1" y2="47870.5" gradientUnits="userSpaceOnUse">
<stop stop-color="#2B233C"/>
<stop offset="1" stop-color="#635C70"/>
</linearGradient>
<linearGradient id="paint23_linear_401_1502" x1="18704.1" y1="3577.98" x2="34431.5" y2="3577.98" gradientUnits="userSpaceOnUse">
<stop stop-color="#2B233C"/>
<stop offset="1" stop-color="#635C70"/>
</linearGradient>
<linearGradient id="paint24_linear_401_1502" x1="7246.09" y1="10950" x2="8931.74" y2="10950" gradientUnits="userSpaceOnUse">
<stop stop-color="#2B233C"/>
<stop offset="1" stop-color="#635C70"/>
</linearGradient>
<linearGradient id="paint25_linear_401_1502" x1="6432.82" y1="13577.3" x2="7964.38" y2="11666.9" gradientUnits="userSpaceOnUse">
<stop stop-color="#64D7FD"/>
<stop offset="1" stop-color="#6577FF"/>
</linearGradient>
<clipPath id="clip0_401_1502">
<rect width="253" height="177" fill="white"/>
</clipPath>
</defs>
</svg>
