<svg width="258" height="173" viewBox="0 0 258 173" fill="none" xmlns="http://www.w3.org/2000/svg">
<rect x="17.1578" y="9" width="223.932" height="160.803" rx="15" fill="#F4F9F5"/>
<g clip-path="url(#clip0_401_1503)">
<path d="M1.39222 122.189C1.39222 122.189 3.31213 161.73 58.6245 153.835C113.937 145.939 112.724 129.028 154.605 141.747C196.485 154.467 249.267 162.702 255.578 118.694C261.89 74.6867 222.781 60.2646 209.906 34.6479C197.031 9.03128 127.093 -9.51453 90.0946 24.3994C53.0963 58.3134 -10.1772 65.6111 1.39222 122.189Z" fill="#F2F2FF"/>
<path d="M218.963 164.797C203.213 164.797 190.452 162.484 190.452 159.633C190.452 156.782 203.226 154.469 218.963 154.469C234.7 154.469 247.475 156.782 247.475 159.633C247.475 160.444 246.438 161.213 244.592 161.898C245.518 162.331 246.073 162.884 246.073 163.487C246.073 164.885 243.091 166.02 239.408 166.02C236.315 166.02 233.715 165.217 232.965 164.131C228.309 164.588 223.633 164.81 218.954 164.797H218.963ZM225.219 166.368C227.543 166.368 229.425 166.877 229.425 167.504C229.425 168.131 227.543 168.638 225.219 168.638C222.896 168.638 221.011 168.131 221.011 167.504C221.011 166.877 222.896 166.368 225.219 166.368Z" fill="#F2F2FF"/>
<path d="M250.822 52.515C252.4 68.7444 238.551 67.1824 233.993 58.1013C229.435 49.0202 213.092 39.0704 215.742 31.9129C220.089 20.1447 249.378 37.7592 250.822 52.515Z" fill="#F2F2FF"/>
<path d="M62.0071 40.6122H220.655C223.988 40.6122 226.702 42.8788 226.702 45.6766V149.403C226.702 152.199 223.995 154.467 220.655 154.467H62.0071C58.6746 154.467 55.9604 152.199 55.9604 149.403V45.6766C55.9604 42.8788 58.6672 40.6122 62.0071 40.6122Z" fill="url(#paint0_linear_401_1503)"/>
<path d="M145.922 40.6122H181.011L150.386 154.467H115.298L145.922 40.6122Z" fill="#363F70"/>
<path d="M220.566 47.0413H62.0959V148.038H220.566V47.0413Z" fill="white"/>
<path d="M243.181 154.467H39.4811V158.659H243.181V154.467Z" fill="url(#paint1_linear_401_1503)"/>
<path d="M61.0425 40.6122H122.779L93.268 154.467H61.0425C59.6957 154.463 58.4053 153.928 57.4532 152.979C56.501 152.03 55.9644 150.744 55.9604 149.403V45.6766C55.9639 44.3348 56.5003 43.0489 57.4526 42.1C58.4049 41.151 59.6956 40.6161 61.0425 40.6122V40.6122Z" fill="#363F70"/>
<path d="M62.0941 47.0413H121.113L94.9343 148.038H62.0941V47.0413Z" fill="white"/>
<path d="M39.4811 154.467H93.268L92.1812 158.659H39.4811V154.467Z" fill="#4C4C87"/>
<path d="M209.871 147.819C223.918 147.819 235.306 146.045 235.306 143.857C235.306 141.669 223.918 139.896 209.871 139.896C195.824 139.896 184.436 141.669 184.436 143.857C184.436 146.045 195.824 147.819 209.871 147.819Z" fill="#55508F"/>
<path d="M184.436 154.467H235.306V143.855C235.306 146.044 223.918 147.819 209.871 147.819C195.824 147.819 184.436 146.044 184.436 143.855V154.467V154.467Z" fill="#5BC272"/>
<path d="M184.436 154.467H235.306V152.23C232.836 152.496 229.242 152.833 225.123 153.064C216.016 153.571 204.345 153.547 196.611 151.053C196.445 151 196.282 150.945 196.121 150.889C196.039 149.663 195.991 148.422 195.985 147.171C189.035 146.465 184.44 145.242 184.44 143.852V154.462L184.436 154.467Z" fill="#5BC272"/>
<path d="M188.361 33.4621C188.361 33.4621 200.679 31.723 209.871 31.723C219.063 31.723 231.382 33.4621 231.382 33.4621C230.235 45.9163 243.15 45.9163 243.15 45.9163C242.78 107.267 209.873 114.775 209.873 114.775C209.873 114.775 176.962 107.267 176.596 45.9256C176.596 45.9256 189.511 45.9256 188.361 33.4713V33.4621Z" fill="#FFC266"/>
<path d="M189.876 36.2654C189.876 36.2654 201.327 34.6479 209.871 34.6479C218.415 34.6479 229.866 36.2654 229.866 36.2654C228.798 47.8417 240.802 47.8417 240.802 47.8417C240.462 104.87 209.871 111.85 209.871 111.85C209.871 111.85 179.28 104.87 178.94 47.8417C178.94 47.8417 190.944 47.8417 189.876 36.2654V36.2654Z" fill="#ED9B53"/>
<path d="M209.871 73.2499H181.545C188.993 107.085 209.871 111.85 209.871 111.85V73.2499Z" fill="white"/>
<path d="M181.535 73.25H209.862V34.6479C201.318 34.6479 189.867 36.2654 189.867 36.2654C190.935 47.8417 178.93 47.8417 178.93 47.8417C178.999 57.7454 179.971 66.1385 181.535 73.25Z" fill="#FFC266"/>
<path d="M209.871 34.6479V73.25H238.197C239.764 66.1385 240.734 57.7454 240.789 47.8417C240.789 47.8417 228.785 47.8417 229.853 36.2654C229.866 36.2654 218.423 34.6479 209.871 34.6479Z" fill="white"/>
<path d="M238.207 73.2499H209.88V111.85C209.88 111.85 230.77 107.085 238.207 73.2499V73.2499Z" fill="#FFC266"/>
<path d="M188.361 33.4621C188.361 33.4621 190.75 33.1264 194.208 32.7484C191.431 52.0116 187.993 97.1533 213.957 110.356C214.883 110.828 215.755 111.29 216.586 111.743C212.644 114.141 209.871 114.775 209.871 114.775C209.871 114.775 176.962 107.267 176.596 45.9255C176.596 45.9255 189.511 45.9255 188.361 33.4713V33.4621Z" fill="#F09652"/>
<path d="M189.876 36.2654C189.876 36.2654 191.422 36.0478 193.797 35.7711C191.168 56.3401 189.278 97.6605 213.837 110.292C211.43 111.492 209.871 111.85 209.871 111.85C209.871 111.85 179.28 104.87 178.94 47.8417C178.94 47.8417 190.944 47.8417 189.876 36.2654V36.2654Z" fill="#ED9B53"/>
<path d="M193.232 73.2499H181.535C188.984 107.085 209.862 111.85 209.862 111.85V107.843C199.624 100.368 194.989 87.0818 193.232 73.2499Z" fill="#E1ECFA"/>
<path d="M181.535 73.25H193.232C191.5 59.5878 192.566 45.4018 193.788 35.7711C191.413 36.0478 189.867 36.2654 189.867 36.2654C190.935 47.8417 178.93 47.8417 178.93 47.8417C178.99 57.7454 179.962 66.1386 181.522 73.25H181.535Z" fill="#F09652"/>
<path d="M209.871 107.843V111.85C209.871 111.85 211.426 111.494 213.837 110.292C212.453 109.579 211.127 108.76 209.871 107.843Z" fill="#FFC266"/>
<path d="M73.8097 159.269C87.299 159.269 98.2334 162.084 98.2334 165.555C98.2334 166.145 97.9186 166.715 97.3281 167.257C100.4 167.517 102.675 168.454 102.675 169.571C102.675 170.89 99.509 171.958 95.6044 171.958C92.6422 171.958 90.0983 171.342 89.0504 170.468C84.8718 171.327 79.575 171.842 73.8097 171.842C60.3186 171.842 49.3842 169.027 49.3842 165.555C49.3842 162.082 60.3186 159.269 73.8097 159.269V159.269ZM100.1 159.035C101.396 159.035 102.438 159.48 102.438 160.026C102.438 160.572 101.392 161.016 100.1 161.016C98.8073 161.016 97.7631 160.572 97.7631 160.026C97.7631 159.48 98.8221 159.035 100.103 159.035H100.1Z" fill="#F2F2FF"/>
<path d="M158.273 172.994C142.33 172.994 129.407 170.128 129.407 166.593C129.41 166.349 129.469 166.11 129.58 165.892C124.164 165.855 119.823 164.775 119.823 163.449C119.823 162.123 124.323 161.005 129.874 161.005C133.24 161.005 136.22 161.407 138.044 162.025C143.252 160.891 150.393 160.181 158.273 160.181C174.215 160.181 187.14 163.047 187.14 166.584C187.14 170.121 174.215 172.994 158.273 172.994ZM128.65 170.084C130.103 170.084 131.281 170.555 131.281 171.132C131.281 171.709 130.103 172.181 128.65 172.181C127.197 172.181 126.021 171.711 126.021 171.132C126.021 170.553 127.195 170.088 128.646 170.088L128.65 170.084Z" fill="#F2F2FF"/>
<path d="M37.0299 37.9086H59.8354C60.6893 37.923 61.5376 37.7679 62.3308 37.4524C63.1239 37.1368 63.846 36.6671 64.455 36.0707C65.0641 35.4742 65.5478 34.763 65.8779 33.9784C66.2081 33.1937 66.3782 32.3515 66.3782 31.5007C66.3782 30.65 66.2081 29.8077 65.8779 29.0231C65.5478 28.2385 65.0641 27.5272 64.455 26.9308C63.846 26.3343 63.1239 25.8646 62.3308 25.5491C61.5376 25.2335 60.6893 25.0784 59.8354 25.0929C59.5543 25.0935 59.2736 25.112 58.9949 25.1482C59.1419 24.2878 59.027 23.4032 58.6649 22.6085C58.3029 21.8137 57.7102 21.1451 56.9634 20.6888C56.2165 20.2325 55.3496 20.0093 54.4743 20.0481C53.599 20.0869 52.7554 20.3858 52.0521 20.9064C51.3777 19.2526 50.1521 17.8806 48.5814 17.0213C47.0107 16.162 45.1908 15.8677 43.4279 16.1881C41.665 16.5084 40.0667 17.4238 38.9018 18.7803C37.7369 20.1367 37.0765 21.8514 37.0317 23.6359V23.6359C35.132 23.6359 33.31 24.3877 31.9667 25.7258C30.6233 27.064 29.8687 28.8789 29.8687 30.7713C29.8687 32.6638 30.6233 34.4787 31.9667 35.8168C33.31 37.155 35.132 37.9067 37.0317 37.9067L37.0299 37.9086Z" fill="#F2F2FF"/>
<path d="M184.437 154.021L163.766 77.1745H256.15L235.307 154.021V143.855C235.307 146.044 223.919 147.819 209.873 147.819C195.826 147.819 184.438 146.044 184.438 143.855V154.021H184.437Z" fill="#5BC272"/>
<path d="M217.775 110.513C223.057 110.762 227.493 111.266 230.599 111.931C233.902 112.641 235.802 113.619 235.802 114.775C235.802 116.151 232.795 117.307 227.931 118.063C223.303 118.786 216.912 119.233 209.871 119.233C202.83 119.233 196.445 118.786 191.811 118.063C186.949 117.307 183.94 116.151 183.94 114.775C183.94 113.656 185.912 112.702 189.191 112C192.37 111.317 196.861 110.79 201.966 110.513L202.017 111.5C196.969 111.773 192.531 112.293 189.396 112.975C186.619 113.573 184.935 114.207 184.935 114.784C184.935 115.598 187.619 116.422 191.97 117.099C196.541 117.811 202.873 118.252 209.878 118.252C216.884 118.252 223.208 117.811 227.787 117.099C232.13 116.422 234.822 115.598 234.822 114.784C234.822 114.163 233.21 113.51 230.409 112.909C227.346 112.25 222.968 111.756 217.741 111.509L217.775 110.513Z" fill="white"/>
<path d="M209.871 119.922C216.906 119.922 223.299 120.369 227.931 121.092C232.795 121.848 235.802 123.004 235.802 124.38C235.802 125.756 232.795 126.91 227.931 127.668C223.303 128.391 216.912 128.838 209.871 128.838C202.83 128.838 196.445 128.391 191.811 127.668C186.949 126.91 183.94 125.754 183.94 124.38C183.94 123.006 186.949 121.848 191.811 121.092C196.439 120.369 202.83 119.922 209.871 119.922ZM227.78 122.065C223.208 121.354 216.877 120.913 209.871 120.913C202.865 120.913 196.541 121.354 191.962 122.065C187.619 122.742 184.927 123.567 184.927 124.38C184.927 125.193 187.612 126.018 191.962 126.695C196.534 127.406 202.865 127.847 209.871 127.847C216.877 127.847 223.201 127.406 227.78 126.695C232.123 126.018 234.815 125.193 234.815 124.38C234.815 123.567 232.123 122.742 227.78 122.065Z" fill="white"/>
<path d="M209.871 129.527C216.906 129.527 223.299 129.974 227.931 130.695C232.795 131.453 235.802 132.609 235.802 133.985C235.802 135.361 232.795 136.515 227.931 137.273C223.303 137.994 216.912 138.441 209.871 138.441C202.83 138.441 196.445 137.994 191.811 137.273C186.949 136.515 183.94 135.359 183.94 133.985C183.94 132.611 186.949 131.453 191.811 130.695C196.439 129.974 202.83 129.527 209.871 129.527ZM227.78 131.67C223.208 130.957 216.877 130.518 209.871 130.518C202.865 130.518 196.541 130.957 191.962 131.67C187.619 132.345 184.927 133.172 184.927 133.985C184.927 134.798 187.612 135.623 191.962 136.298C196.534 137.011 202.865 137.452 209.871 137.452C216.877 137.452 223.201 137.011 227.78 136.298C232.123 135.623 234.815 134.796 234.815 133.985C234.815 133.173 232.123 132.345 227.78 131.67V131.67Z" fill="white"/>
<path d="M229.425 99.0399C232.891 99.4088 235.779 99.8938 237.781 100.44C239.893 101.017 241.099 101.742 241.099 102.594C241.099 103.977 237.492 105.133 231.656 105.884C226.067 106.605 218.361 107.051 209.864 107.051C201.366 107.051 193.66 106.605 188.073 105.884C182.242 105.133 178.63 103.977 178.63 102.594C178.63 101.749 179.852 101.026 181.963 100.449C183.979 99.8957 186.877 99.4161 190.294 99.0399L190.403 100.023C187.017 100.392 184.172 100.868 182.215 101.401C180.569 101.851 179.623 102.262 179.623 102.594C179.623 103.4 182.896 104.224 188.189 104.906C193.721 105.62 201.382 106.061 209.851 106.061C218.319 106.061 225.986 105.618 231.512 104.906C236.803 104.224 240.077 103.4 240.077 102.594C240.077 102.254 239.138 101.839 237.485 101.391C235.541 100.862 232.706 100.392 229.287 100.023L229.39 99.0399H229.425Z" fill="white"/>
<path d="M236.087 86.8218C238.692 87.1796 240.884 87.6074 242.398 88.074C244.02 88.572 244.955 89.1806 244.955 89.9036C244.955 91.2923 240.915 92.4486 234.385 93.1974C228.104 93.9167 219.437 94.3611 209.871 94.3611C200.305 94.3611 191.638 93.9167 185.359 93.1974C178.827 92.4486 174.787 91.2923 174.787 89.9036C174.787 89.1658 175.654 88.5388 177.285 88.0372C178.747 87.5872 180.904 87.1796 183.657 86.8218L183.787 87.7992C181.087 88.1497 178.988 88.5462 177.575 88.9796C176.403 89.3484 175.781 89.6527 175.781 89.9017C175.781 90.7021 179.484 91.5265 185.471 92.2126C191.709 92.9281 200.334 93.3689 209.871 93.3689C219.408 93.3689 228.033 92.9281 234.272 92.2126C240.258 91.5265 243.961 90.7021 243.961 89.9017C243.961 89.6841 243.283 89.3761 242.109 89.0146C240.645 88.5646 238.508 88.1478 235.955 87.7974L236.089 86.8199L236.087 86.8218Z" fill="white"/>
<path d="M69.7641 148.189C84.3459 133.663 84.3459 110.113 69.7641 95.5872C55.1823 81.0617 31.5405 81.0617 16.9587 95.5872C2.37691 110.113 2.37691 133.663 16.9587 148.189C31.5405 162.714 55.1823 162.714 69.7641 148.189Z" fill="url(#paint2_linear_401_1503)"/>
<path d="M47.8254 84.9591C66.3394 87.1556 80.7007 102.848 80.7007 121.887C80.7007 140.925 66.3431 156.619 47.8254 158.816C29.3114 156.619 14.9501 140.927 14.9501 121.887C14.9501 102.846 29.3095 87.1556 47.8254 84.9591Z" fill="#FFC266"/>
<path d="M24.0905 75.7748C24.0905 64.9287 32.9994 56.0542 43.8875 56.0542C54.7756 56.0542 63.6845 64.9213 63.6845 75.7748V90.68C67.3312 93.042 70.5381 96.0174 73.1618 99.4734V74.1924C73.1618 58.1474 59.9891 45.0292 43.8875 45.0292C27.7859 45.0292 14.6113 58.1529 14.6113 74.1924V98.1511C17.2924 94.9327 20.4966 92.1854 24.0905 90.0235V75.7748Z" fill="#FFC266"/>
<path d="M43.3616 146.533C57.0253 146.533 68.1019 135.499 68.1019 121.888C68.1019 108.277 57.0253 97.2437 43.3616 97.2437C29.6979 97.2437 18.6213 108.277 18.6213 121.888C18.6213 135.499 29.6979 146.533 43.3616 146.533Z" fill="#F2F2FF"/>
<path d="M45.9463 97.3801C52.026 98.0179 57.6535 100.875 61.7436 105.401C65.8338 109.927 68.097 115.801 68.097 121.891C68.097 127.981 65.8338 133.855 61.7436 138.381C57.6535 142.907 52.026 145.764 45.9463 146.402C39.8666 145.764 34.2391 142.907 30.149 138.381C26.0588 133.855 23.7955 127.981 23.7955 121.891C23.7955 115.801 26.0588 109.927 30.149 105.401C34.2391 100.875 39.8666 98.0179 45.9463 97.3801V97.3801Z" fill="white"/>
<path d="M43.6931 98.7504V101.544H43.0303V98.7504H43.6931Z" fill="#4C4C87"/>
<path d="M43.6931 142.232V145.026H43.0303V142.232H43.6931Z" fill="#4C4C87"/>
<path d="M66.5893 122.218H63.7826V121.558H66.5893V122.218Z" fill="#4C4C87"/>
<path d="M22.9389 122.218H20.134V121.558H22.9389V122.218Z" fill="#4C4C87"/>
<path d="M49.6916 99.6246L48.9658 102.323L48.3271 102.153L49.0528 99.4531L49.6916 99.6246Z" fill="#4C4C87"/>
<path d="M38.3944 141.624L37.6686 144.322L37.0299 144.152L37.7556 141.454L38.3944 141.624Z" fill="#4C4C87"/>
<path d="M65.7118 128.196L63.0032 127.473L63.1735 126.835L65.8821 127.558L65.7118 128.196Z" fill="#4C4C87"/>
<path d="M23.548 116.942L20.8394 116.217L21.0097 115.581L23.7201 116.304L23.548 116.942Z" fill="#4C4C87"/>
<path d="M55.2606 102.015L53.8572 104.434L53.287 104.104L54.6885 101.685L55.2606 102.015Z" fill="#4C4C87"/>
<path d="M33.4363 139.671L32.0329 142.09L31.4608 141.762L32.8642 139.342L33.4363 139.671Z" fill="#4C4C87"/>
<path d="M63.3123 133.741L60.8833 132.345L61.2129 131.776L63.6419 133.172L63.3123 133.741Z" fill="#4C4C87"/>
<path d="M25.5086 112.001L23.0796 110.605L23.411 110.035L25.84 111.432L25.5086 112.001Z" fill="#4C4C87"/>
<path d="M60.0187 105.76L58.0358 107.736L57.5674 107.269L59.5503 105.294L60.0187 105.76Z" fill="#4C4C87"/>
<path d="M29.154 136.506L27.1712 138.483L26.7028 138.016L28.6856 136.039L29.154 136.506Z" fill="#4C4C87"/>
<path d="M59.5503 138.483L57.5674 136.506L58.0358 136.039L60.0187 138.016L59.5503 138.483Z" fill="#4C4C87"/>
<path d="M28.6856 107.736L26.7028 105.76L27.1712 105.294L29.154 107.269L28.6856 107.736Z" fill="#4C4C87"/>
<path d="M63.6419 110.605L61.2129 112.001L60.8833 111.432L63.3123 110.035L63.6419 110.605Z" fill="#4C4C87"/>
<path d="M25.84 132.345L23.411 133.741L23.0796 133.173L25.5086 131.776L25.84 132.345Z" fill="#4C4C87"/>
<path d="M54.6885 142.09L53.287 139.672L53.8572 139.341L55.2606 141.76L54.6885 142.09Z" fill="#4C4C87"/>
<path d="M32.8642 104.434L31.4608 102.015L32.0329 101.686L33.4363 104.106L32.8642 104.434Z" fill="#4C4C87"/>
<path d="M65.8821 116.219L63.1735 116.942L63.0032 116.304L65.7118 115.581L65.8821 116.219Z" fill="#4C4C87"/>
<path d="M23.7201 127.473L21.0097 128.196L20.8394 127.558L23.548 126.835L23.7201 127.473Z" fill="#4C4C87"/>
<path d="M49.0528 144.322L48.3271 141.624L48.9658 141.454L49.6916 144.152L49.0528 144.322Z" fill="#4C4C87"/>
<path d="M37.7556 102.323L37.0299 99.6246L37.6686 99.4531L38.3944 102.153L37.7556 102.323Z" fill="#4C4C87"/>
<path d="M44.5447 103.335H42.1768C41.6932 103.335 41.3011 103.726 41.3011 104.208V106.566C41.3011 107.048 41.6932 107.439 42.1768 107.439H44.5447C45.0284 107.439 45.4204 107.048 45.4204 106.566V104.208C45.4204 103.726 45.0284 103.335 44.5447 103.335Z" fill="#4C4C87"/>
<path d="M44.5447 136.338H42.1768C41.6932 136.338 41.3011 136.729 41.3011 137.21V139.569C41.3011 140.051 41.6932 140.442 42.1768 140.442H44.5447C45.0284 140.442 45.4204 140.051 45.4204 139.569V137.21C45.4204 136.729 45.0284 136.338 44.5447 136.338Z" fill="#4C4C87"/>
<path d="M54.456 107.936L52.7816 109.604C52.4396 109.945 52.4396 110.497 52.7816 110.838L54.456 112.506C54.798 112.847 55.3524 112.847 55.6944 112.506L57.3688 110.838C57.7108 110.497 57.7108 109.945 57.3688 109.604L55.6944 107.936C55.3524 107.596 54.7979 107.596 54.456 107.936Z" fill="#4C4C87"/>
<path d="M31.0284 131.273L29.354 132.94C29.012 133.281 29.012 133.833 29.354 134.174L31.0284 135.842C31.3703 136.183 31.9248 136.183 32.2668 135.842L33.9412 134.174C34.2832 133.833 34.2832 133.281 33.9412 132.94L32.2668 131.273C31.9248 130.932 31.3703 130.932 31.0284 131.273Z" fill="#4C4C87"/>
<path d="M54.4555 131.273L52.7811 132.941C52.4391 133.282 52.4391 133.834 52.7811 134.175L54.4555 135.843C54.7975 136.183 55.3519 136.183 55.6939 135.843L57.3683 134.175C57.7103 133.834 57.7103 133.282 57.3683 132.941L55.6939 131.273C55.3519 130.932 54.7975 130.932 54.4555 131.273Z" fill="#4C4C87"/>
<path d="M31.0288 107.936L29.3545 109.604C29.0125 109.944 29.0125 110.497 29.3544 110.837L31.0288 112.505C31.3708 112.846 31.9253 112.846 32.2673 112.505L33.9417 110.837C34.2837 110.497 34.2837 109.944 33.9417 109.604L32.2673 107.936C31.9253 107.595 31.3708 107.595 31.0288 107.936Z" fill="#4C4C87"/>
<path d="M20.5728 74.1924C20.5728 59.1544 32.1514 46.6798 46.8626 45.1805C45.8723 45.0798 44.8774 45.0293 43.8819 45.0292C27.7747 45.0292 14.6057 58.1529 14.6057 74.1924V98.151C16.375 96.0282 18.3743 94.1065 20.5672 92.4209V74.1924H20.5728Z" fill="#F0A24F"/>
<path d="M62.096 68.0565C63.1461 70.4958 63.6866 73.1225 63.6845 75.7766V90.6818C66.0744 92.2297 68.2794 94.0439 70.257 96.0892V82.3218C70.2545 78.7764 69.5299 75.2684 68.1272 72.01C66.7244 68.7516 64.6727 65.8105 62.096 63.3648C60.2696 61.6229 58.2037 60.1487 55.9604 58.9865C52.2311 57.057 48.0898 56.0512 43.8875 56.0541C48.2593 56.0526 52.5072 57.5016 55.9604 60.1724C58.6435 62.2398 60.7548 64.9528 62.096 68.0565V68.0565Z" fill="#F0A24F"/>
<path d="M68.1019 121.887C68.1045 127.852 65.9339 133.617 61.9931 138.109C58.0524 142.601 52.6091 145.517 46.6738 146.314C46.9127 146.345 47.1533 146.375 47.3959 146.399C50.3803 146.091 53.283 145.243 55.9604 143.894C60.0458 141.836 63.4782 138.689 65.8761 134.804C68.2739 130.919 69.5434 126.448 69.5434 121.887C69.5434 117.327 68.2739 112.856 65.8761 108.971C63.4782 105.086 60.0458 101.939 55.9604 99.8809C53.2828 98.5336 50.38 97.686 47.3959 97.3801C47.1533 97.4041 46.9127 97.4336 46.6738 97.465C49.9548 97.9014 53.1135 98.9935 55.9604 100.676C59.6577 102.858 62.7213 105.96 64.8501 109.679C66.9789 113.398 68.0995 117.604 68.1019 121.885V121.887Z" fill="#F0A24F"/>
<path d="M93.9253 68.7832C93.9253 68.7832 92.9311 74.7789 89.3671 78.8528L87.088 78.5043C87.255 79.1945 87.5709 79.8402 88.0137 80.3965C88.7154 81.2098 93.2439 94.4533 93.2439 94.4533L98.2113 92.7068L105.456 93.0554L107.385 95.4419H111.597L116.242 81.9087H119.893L114.874 97.3064H113.909L109.096 99.3148C109.096 99.3148 106.319 99.809 104.86 100.479C104.86 100.479 104.276 103.258 102.464 103.614L92.8663 101.854C92.8663 101.854 96.6061 111.43 95.3212 116.551H94.0271L93.1514 117.425C93.1514 117.425 92.5071 136.052 90.2873 147.227C88.0674 158.401 90.8723 161.663 90.8723 161.663C90.8723 161.663 93.5587 165.905 96.6561 165.854C99.7535 165.802 100.279 165.737 100.279 165.737L100.572 166.785C100.572 166.785 98.7019 169.171 93.7346 168.88C88.7673 168.589 83.5667 168.415 83.5667 168.415L83.8592 163.934L81.9319 163.583C81.9319 163.583 80.236 148.092 84.211 138.555C84.211 138.555 74.5096 148.566 73.3414 156.948L72.0565 157.298C72.0565 157.298 71.4715 163.753 72.1731 164.398C72.8748 165.044 75.5057 163.934 75.5057 163.934C75.5057 163.934 76.1481 164.749 76.0315 165.505C76.0315 165.505 73.7524 167.484 70.6624 166.494C67.5724 165.503 63.1827 158.17 63.1827 158.17C63.1827 158.17 65.9876 156.075 66.3968 155.957C66.8059 155.839 66.5819 154.91 66.5819 154.91C66.5819 154.91 68.6851 154.443 69.7959 148.099C70.9068 141.755 75.8722 137.033 78.0347 134.593C80.1971 132.154 80.3712 121.149 80.3712 121.149L78.2494 117.298L77.5718 117.114C77.5718 117.114 79.3307 100.27 76.7591 94.682C74.1875 89.0939 74.6559 82.1669 76.0574 80.2969C77.4589 78.4268 80.3823 75.2325 80.8488 73.842L81.3265 74.1149L82.2077 72.1822C82.2077 72.1822 82.6761 67.4092 82.1503 63.6248C82.1503 63.6248 85.0719 59.8423 89.4541 62.0535C93.8364 64.2648 95.1805 66.5941 95.1805 66.5941C95.1805 66.5941 95.9396 68.1654 93.9253 68.7758V68.7832Z" fill="#B2BDB4"/>
<path d="M82.2077 72.1895C82.2077 72.1895 82.6761 67.4166 82.1503 63.6322C82.1503 63.6322 85.0718 59.8497 89.4541 62.0609C93.8364 64.2722 95.1805 66.6014 95.1805 66.6014C95.1805 66.6014 95.9396 68.1727 93.9253 68.7832C93.9253 68.7832 93.0773 67.3871 91.8202 67.1234L91.7036 69.5098C91.7036 69.5098 89.132 70.0041 88.7228 70.4707C88.5206 70.6897 88.3349 70.9233 88.1674 71.1697L87.8989 71.0074C87.8989 71.0074 88.1285 69.39 87.0029 69.3033C85.8772 69.2166 84.3591 70.1608 83.7018 71.8852L82.2077 72.1895Z" fill="url(#paint3_linear_401_1503)"/>
<path d="M95.0139 68.134C94.7232 68.4526 94.3445 68.6785 93.9253 68.7832C93.9253 68.7832 93.0773 67.3871 91.8202 67.1233L91.7036 69.5098L91.4537 69.5614C90.8158 69.6909 90.1854 69.8547 89.5652 70.052C90.3058 69.2073 91.0149 68.8625 91.5073 68.7223C91.514 67.982 91.4651 67.2423 91.3611 66.5092C92.0493 66.5147 92.729 66.6616 93.3575 66.9409C93.9861 67.2202 94.55 67.6257 95.0139 68.1321V68.134Z" fill="url(#paint4_linear_401_1503)"/>
<path d="M87.088 78.5042L89.3671 78.8528C92.9311 74.7788 93.9253 68.7832 93.9253 68.7832C93.9253 68.7832 93.0773 67.3871 91.8202 67.1234L91.7036 69.5098C91.7036 69.5098 89.132 70.0041 88.7228 70.4707C88.5206 70.6896 88.3349 70.9233 88.1674 71.1696L87.8989 71.0073C87.8989 71.0073 88.1285 69.3899 87.0029 69.3033C85.8772 69.2166 84.3591 70.1608 83.7018 71.8852L82.2207 72.1766L81.3394 74.1094L87.3806 79.312C87.2628 79.0473 87.1693 78.7727 87.101 78.4913L87.088 78.5042Z" fill="#FFD6D6"/>
<path d="M80.3415 74.8231C82.1299 76.2985 85.0589 78.9653 86.24 81.4735L90.0965 91.8345L88.4303 81.1674C88.3256 80.897 88.1921 80.6385 88.0322 80.3964C87.7628 80.0728 87.542 79.7118 87.3768 79.3249L81.3264 74.1223L80.8488 73.8494C80.7178 74.1923 80.5476 74.5191 80.3415 74.8231V74.8231Z" fill="white"/>
<path d="M98.2205 92.7068L93.2532 94.4533L93.205 94.315L89.9799 95.1246C89.9799 95.1246 84.8663 90.5564 84.2813 85.0827C83.774 80.3356 79.6158 78.1741 76.5054 79.7344C76.3462 79.9354 76.1962 80.1272 76.0611 80.3061C75.0187 81.6911 74.4929 85.8739 75.3483 90.2263C77.8329 93.3615 84.4609 101.618 85.4551 101.902C86.6807 102.251 98.9518 98.992 98.9518 98.992L98.6019 95.7609C98.8307 95.9639 99.1161 96.0925 99.4202 96.1298C99.9164 96.1888 101.903 96.1298 101.903 96.1298C101.903 96.1298 103.597 95.3736 104.036 95.4898C104.475 95.606 107.163 95.9546 107.163 95.9546L107.398 95.4289L105.469 93.0425L98.2205 92.7068Z" fill="#B2BDB4"/>
<path d="M75.3205 82.0858C74.8299 84.0628 74.7299 87.1021 75.3446 90.23C77.8292 93.3652 84.4572 101.622 85.4514 101.906C86.677 102.254 98.9481 98.9957 98.9481 98.9957L98.6686 96.4138C96.6931 96.0652 94.0493 96.659 92.296 98.057C89.667 100.152 88.4396 98.116 84.7053 97.5332C80.971 96.9504 82.8354 90.9548 78.803 89.9072C76.4703 89.3023 75.6242 85.328 75.3261 82.0839L75.3205 82.0858Z" fill="#B2BDB4"/>
<path d="M98.2205 92.7069L96.3006 93.3818C98.4242 94.0827 98.5982 95.7646 98.5982 95.7646C98.827 95.9675 99.1124 96.0962 99.4165 96.1334C99.9127 96.1925 101.899 96.1334 101.899 96.1334C101.899 96.1334 103.593 95.3773 104.032 95.4935C104.471 95.6097 107.159 95.9582 107.159 95.9582L107.394 95.4326L105.465 93.0462L98.2205 92.6976V92.7069Z" fill="#FFD6D6"/>
<path d="M104.852 100.478C106.313 99.809 109.088 99.3147 109.088 99.3147L113.069 97.6549H103.071C101.67 99.5453 102.662 101.262 102.662 101.262L104.852 100.478Z" fill="url(#paint5_linear_401_1503)"/>
<path d="M103.067 97.6568H113.065L113.906 97.3064H114.87L119.895 81.9088H116.244L111.597 95.4418H107.394L107.159 95.9675C107.159 95.9675 104.471 95.6189 104.032 95.5027C103.593 95.3865 101.899 96.1427 101.899 96.1427C101.899 96.1427 99.9126 96.2017 99.4165 96.1427C99.1124 96.1054 98.8269 95.9768 98.5981 95.7738L98.8037 97.666L103.067 97.6568Z" fill="#363F70"/>
<path d="M72.1732 164.391C71.4715 163.751 72.0565 157.291 72.0565 157.291C72.0565 157.291 68.0982 156.387 66.5634 154.904C66.5634 154.904 66.7967 155.826 66.3783 155.952C65.9599 156.077 63.1642 158.165 63.1642 158.165C63.1642 158.165 67.5465 165.499 70.6439 166.488C73.7413 167.476 76.013 165.499 76.013 165.499C76.1296 164.743 75.4872 163.928 75.4872 163.928C75.4872 163.928 72.8582 165.035 72.1547 164.393L72.1732 164.391Z" fill="#363F70"/>
<path d="M71.8492 160.655C71.9066 158.939 72.0565 157.291 72.0565 157.291C72.0565 157.291 68.0982 156.387 66.5634 154.904C66.5634 154.904 66.7967 155.826 66.3782 155.952C66.1316 156.065 65.8971 156.203 65.6784 156.363C66.9022 158.008 68.9184 159.985 71.8399 160.655H71.8492Z" fill="#1C1E57"/>
<path d="M83.8592 163.926L83.5667 168.408C83.5667 168.408 88.7673 168.583 93.7346 168.873C98.7019 169.162 100.572 166.777 100.572 166.777L100.279 165.73C100.279 165.73 99.7535 165.789 96.6561 165.846C94.2585 165.892 92.1035 163.353 91.2555 162.206C88.3396 164.542 83.8499 163.926 83.8499 163.926H83.8592Z" fill="#363F70"/>
<path d="M83.8592 163.926L83.5981 167.939C87.5046 167.202 90.7519 164.778 92.2997 163.452C91.9311 163.056 91.585 162.64 91.2629 162.206C88.347 164.542 83.8573 163.926 83.8573 163.926H83.8592Z" fill="#1C1E57"/>
<path d="M78.2495 117.298C78.2495 117.298 88.4932 118.606 93.1513 117.414L94.027 116.54H95.3138C96.5986 111.419 92.8588 101.843 92.8588 101.843L102.456 103.603C104.269 103.254 104.852 100.467 104.852 100.467L102.658 101.253C102.658 101.253 101.666 99.5361 103.067 97.6457H98.8092L98.9536 98.9847C98.9536 98.9847 86.6826 102.243 85.4569 101.895C84.4627 101.611 77.8347 93.3505 75.3502 90.2189C75.6455 91.7547 76.1202 93.2507 76.7646 94.6765C79.3307 100.276 77.5718 117.114 77.5718 117.114L78.2495 117.298Z" fill="#B2BDB4"/>
<path d="M89.3671 78.8528C89.3671 78.8528 85.4921 75.2805 85.4921 74.6405C85.4921 74.1979 86.6382 72.6321 87.3436 71.7082C87.2473 71.083 86.9548 69.9764 86.0587 69.4434C85.133 69.7625 84.1758 70.6145 83.6889 71.8981L82.2077 72.1895L81.3265 74.1223L87.3676 79.3249C87.2499 79.0602 87.1564 78.7856 87.0881 78.5042L89.3671 78.8528V78.8528Z" fill="#F2A4C3"/>
<path d="M80.3527 121.143L80.7229 122.79L84.2147 138.547C80.2397 148.093 81.9356 163.576 81.9356 163.576L83.8629 163.926C83.8629 163.926 84.0832 163.956 84.4572 163.978C84.0869 157.353 83.7166 146.706 84.9608 142.363C86.5585 136.794 89.5208 129.269 84.8812 122.183L84.7831 122.204C87.6627 121.636 90.4518 120.682 93.0736 119.367C93.1292 118.132 93.1551 117.418 93.1551 117.418C88.497 118.609 78.2532 117.3 78.2532 117.3L80.3564 121.143H80.3527ZM81.2154 122.742C81.3709 122.728 81.5283 122.709 81.6875 122.691C81.5283 122.709 81.3709 122.728 81.2154 122.742ZM81.7227 122.687L82.0374 122.65L81.7227 122.687ZM82.0541 122.648L82.3929 122.604L82.0541 122.648ZM82.9372 122.526L83.2779 122.473L82.9372 122.526Z" fill="#8B9D8E"/>
<path d="M81.8226 98.1584C79.525 95.4677 76.7609 92.0152 75.3427 90.2281C75.638 91.7639 76.1128 93.2599 76.7572 94.6857C77.3552 95.9859 77.7199 97.8947 77.9254 100.06C78.6049 107.201 77.57 117.117 77.57 117.117L78.2476 117.302C78.2476 117.302 81.3153 117.693 84.8571 117.855C85.7476 116.011 87.1009 111.804 83.7296 107.527C82.446 105.917 81.6789 103.959 81.5282 101.908C84.0369 103.131 86.527 104.184 87.586 104.15C88.932 104.11 91.237 103.413 93.3735 103.282C93.068 102.387 92.857 101.847 92.857 101.847L92.7125 100.571C89.4782 101.345 86.0734 102.081 85.4588 101.906C85.0311 101.784 83.5629 100.187 81.83 98.1584H81.8226Z" fill="#8B9D8E"/>
<path d="M80.3526 121.143C80.3526 121.143 80.2045 130.549 78.4716 133.898C79.3973 135.955 80.3934 138.865 80.6044 142.131C80.6174 142.328 80.6304 142.518 80.647 142.701C82.6188 140.189 84.211 138.548 84.211 138.548L80.7192 122.79L80.3489 121.143H80.3526Z" fill="#8B9D8E"/>
<path d="M94.9694 102.234L102.318 99.8477C102.313 99.0558 102.574 98.2849 103.058 97.6567H98.8L98.9444 98.9957C98.9444 98.9957 95.9063 99.8016 92.7015 100.571L92.8551 101.847L94.9657 102.234H94.9694Z" fill="#6678FF"/>
<path d="M92.5274 93.3228L92.3645 93.3744L92.5274 93.3228ZM92.0664 93.4574L91.9553 93.4851L92.0664 93.4574ZM91.7165 93.5349L91.6313 93.5515L91.7165 93.5349ZM90.7778 93.6418C90.6408 93.6418 90.5001 93.6418 90.3594 93.6418C88.508 93.5607 85.8309 88.6476 84.3498 85.6064C85.1885 90.8422 89.978 95.1228 89.978 95.1228L93.2032 94.3131C93.1384 94.1287 93.0069 93.7377 92.8329 93.2195C91.8572 90.3959 89.4578 83.5243 88.4247 81.1655L90.0706 91.6482L90.7834 93.6437L90.7778 93.6418Z" fill="#6678FF"/>
<path d="M88.4025 71.2194C89.6152 69.9377 91.661 69.792 91.661 69.792L91.7036 69.5117C91.7036 69.5117 89.132 70.0059 88.7228 70.4725C88.5117 70.7141 88.3692 70.893 88.2822 71.0092L88.4025 71.2194Z" fill="#F2A4C3"/>
<path d="M91.7869 67.7172C92.9958 68.3203 93.5531 68.951 93.8068 69.3604C93.8864 68.9916 93.9216 68.7832 93.9216 68.7832C93.9216 68.7832 93.0736 67.3871 91.8165 67.1234L91.7887 67.7154L91.7869 67.7172Z" fill="#F2A4C3"/>
<path d="M83.6981 71.8981C84.1851 70.6072 85.1459 69.7625 86.0679 69.4435C86.364 69.3361 86.6791 69.2903 86.9936 69.3088C87.0975 69.3149 87.1996 69.3386 87.2954 69.3789C87.2954 69.3789 85.2589 67.7191 82.3818 68.9123C82.3392 70.7934 82.1967 72.1895 82.1967 72.1895L83.6778 71.8981H83.6981Z" fill="url(#paint6_linear_401_1503)"/>
<path d="M98.2205 92.7069L96.3006 93.3818C98.4242 94.0827 98.5982 95.7646 98.5982 95.7646C98.827 95.9675 99.1124 96.0962 99.4165 96.1334C99.3488 94.9003 98.9372 93.7105 98.2279 92.6976L98.2205 92.7069Z" fill="#F2A4C3"/>
<path d="M157.352 64.1283C157.352 64.1283 157.28 70.6404 158.869 74.777L162.085 74.4524C162.369 74.8543 162.605 75.2875 162.79 75.7434V75.7434L162.803 75.784L162.818 75.8227L162.831 75.8633L162.842 75.9038L162.853 75.9426C162.853 75.9555 162.853 75.9684 162.853 75.9813C162.853 76.009 162.868 76.0366 162.873 76.0643V76.1012V76.1399V76.1805C162.874 76.1928 162.874 76.2051 162.873 76.2174V76.2174C162.874 76.229 162.874 76.2407 162.873 76.2524V76.293C162.873 76.3188 162.873 76.3428 162.873 76.3668C162.873 76.3907 162.873 76.4147 162.873 76.4368C162.873 76.4608 162.864 76.4829 162.858 76.5051L162.847 76.5364C162.847 76.5475 162.847 76.5567 162.834 76.5696L162.816 76.6083L162.795 76.6508V76.6637L162.766 76.7153V76.7301L162.69 76.8573L162.677 76.8776L162.631 76.9514L162.581 77.0325L162.571 77.0436L162.516 77.134V77.145L162.384 77.3479V77.3608L162.24 77.5821L162.225 77.6024L162.149 77.7186L162.138 77.7315L162.059 77.8514L161.973 77.9786L161.959 77.9989L161.873 78.1262L161.862 78.1409C161.772 78.2756 161.677 78.4139 161.577 78.5577L161.561 78.5835L161.487 78.6905L161.444 78.7514L161.25 79.0335L161.218 79.0778L161.163 79.159L161.072 79.2899L161.051 79.3194L161.003 79.3876L160.913 79.5186L160.866 79.585L160.581 79.9925L160.409 80.236L160.07 80.7173L160.035 80.7671L159.715 81.2227L159.689 81.2577L159.476 81.5565L159.465 81.5731L159.267 81.8516L159.23 81.9032C158.348 83.1444 157.654 84.1052 157.654 84.1052C153.844 89.2599 155.908 92.847 155.908 92.847L154.314 102.561C154.314 102.561 150.919 105.366 149.836 105.941C149.836 105.941 149.149 108.029 149.438 109.036C149.637 109.697 149.903 110.336 150.232 110.943L153.379 111.374C153.379 111.374 153.487 110.727 153.161 110.583C152.835 110.439 152.331 109.539 152.331 109.539L153.27 108.136L154.136 109.936L154.553 109.521L155.22 113.75C155.22 113.75 149.152 130.73 148.069 133.537C146.986 136.344 142.002 155.625 142.002 155.625L142.941 156.057C142.941 156.057 137.342 163.037 136.439 163.249C135.535 163.462 131.853 163.718 131.599 164.006C131.532 164.088 131.498 164.194 131.505 164.301C131.512 164.407 131.559 164.507 131.636 164.581C131.636 164.581 136.693 167.347 139.257 166.56C141.821 165.772 142.508 163.609 144.963 163.465C144.963 163.465 145.65 163.862 145.361 164.437C145.072 165.013 143.591 167.998 143.591 167.998L144.169 168.105C144.169 168.105 146.02 164.149 147.238 163.069C147.238 163.069 148.503 160.586 147.423 158.969L147.314 157.678L149.228 157.571C149.228 157.571 155.338 139.977 156.416 137.531C157.493 135.086 162.699 125.37 162.699 125.37C162.699 125.37 170.934 155.736 170.573 157.174C170.212 158.613 168.768 164.155 168.37 164.478C167.972 164.8 163.784 166.025 163.712 166.457C163.666 166.633 163.654 166.816 163.675 166.997C163.675 166.997 168.335 168.399 170.538 167.679C170.538 167.679 173.011 162.608 176.316 162.608V167.085H176.948C176.948 167.085 176.624 164.73 178.103 161.455C178.103 161.455 178.736 158.829 176.551 157.715L175.9 155.52L178.904 154.718C178.904 154.718 172.65 135.409 172.578 132.034C172.506 128.659 170.447 115.017 170.447 115.017L172.687 114.419L170.158 102.247L171.952 92.5851C171.952 92.5851 173.324 99.2816 171.827 100.301C170.329 101.321 180.837 103.09 177.153 92.0023C173.469 80.9147 172.169 79.6975 171.664 71.5662C171.158 63.4349 168.033 60.2517 164.495 59.3517C164.495 59.3517 157.415 62.3375 157.163 63.1656C156.912 63.9937 157.362 64.1209 157.362 64.1209L157.352 64.1283Z" fill="#5BC272"/>
<path d="M164.275 75.3358C162.733 74.5519 165.099 70.6661 165.099 70.6661C166.256 70.585 166.978 67.328 165.723 66.9592C164.467 66.5903 164.684 67.3741 163.41 67.8813C162.136 68.3885 157.352 64.132 157.352 64.132C157.352 64.132 157.28 70.644 158.869 74.7806L162.085 74.4561C162.368 74.8541 162.604 75.2836 162.788 75.736L164.269 75.3394L164.275 75.3358Z" fill="#FFD6D6"/>
<path d="M164.275 75.3358C163.449 74.9153 163.743 73.6059 164.197 72.4791C162.464 73.3406 160.685 74.1077 158.869 74.777L162.085 74.4524C162.368 74.8504 162.604 75.2799 162.788 75.7323L164.269 75.3358H164.275Z" fill="#F2A4C3"/>
<path d="M164.275 75.3358C164.409 75.4022 164.554 75.444 164.702 75.4594C167.05 75.7471 169.433 76.2856 170.01 80.0995C170.588 83.9135 171.952 92.5851 171.952 92.5851C171.952 92.5851 173.324 99.2816 171.827 100.301C170.329 101.321 180.837 103.09 177.153 92.0024C173.469 80.9147 172.169 79.6975 171.664 71.5662C171.158 63.4349 168.033 60.2517 164.495 59.3517C164.495 59.3517 157.415 62.3375 157.163 63.1656C156.912 63.9937 157.362 64.1209 157.362 64.1209C157.362 64.1209 162.14 68.3812 163.41 67.8721C164.68 67.3631 164.467 66.5812 165.722 66.95C166.978 67.3189 166.256 70.5758 165.099 70.657C165.102 70.6662 162.732 74.552 164.275 75.3358Z" fill="url(#paint7_linear_401_1503)"/>
<path d="M137.579 164.393C136.891 164.272 136.261 163.932 135.784 163.425C134.406 163.609 131.796 163.83 131.583 164.072C131.515 164.155 131.481 164.26 131.488 164.367C131.495 164.474 131.542 164.574 131.62 164.647C131.62 164.647 136.676 167.414 139.24 166.626C141.804 165.839 142.491 163.675 144.946 163.532C144.946 163.532 145.633 163.928 145.344 164.503C145.055 165.079 143.574 168.065 143.574 168.065L144.152 168.172C144.152 168.172 146.003 164.216 147.222 163.135C147.222 163.135 148.486 160.653 147.407 159.033C147.407 159.033 139.351 164.645 137.583 164.393H137.579Z" fill="#363F70"/>
<path d="M135.784 163.425C136.261 163.932 136.891 164.272 137.579 164.393C139.348 164.646 147.403 159.034 147.403 159.034L147.294 157.743L142.924 156.123C142.924 156.123 137.326 163.104 136.422 163.316C136.276 163.351 136.052 163.388 135.784 163.425V163.425Z" fill="#FFD6D6"/>
<path d="M168.35 164.539C167.954 164.863 163.764 166.086 163.692 166.518C163.646 166.694 163.634 166.877 163.655 167.058C163.655 167.058 168.315 168.459 170.518 167.74C170.518 167.74 172.991 162.669 176.296 162.669V167.146H176.927C176.927 167.146 176.603 164.791 178.082 161.516C178.082 161.516 178.716 158.89 176.531 157.776C176.531 157.776 170.977 166.123 168.35 164.539V164.539Z" fill="#363F70"/>
<path d="M170.553 157.235C170.182 158.674 168.748 164.216 168.35 164.539C170.986 166.123 176.531 157.776 176.531 157.776L175.879 155.581L170.553 157.241V157.235Z" fill="#FFD6D6"/>
<path d="M170.553 157.235L175.879 155.575L178.884 154.773C178.884 154.773 172.63 135.464 172.558 132.089C172.486 128.714 170.427 115.072 170.427 115.072L169.407 114.987L162.679 125.433C162.679 125.433 170.914 155.797 170.553 157.235Z" fill="#2C243D"/>
<path d="M149.208 157.632C149.208 157.632 155.318 140.038 156.395 137.592C157.473 135.147 162.679 125.431 162.679 125.431L169.407 114.985L155.203 113.812C155.203 113.812 149.136 130.792 148.053 133.599C146.97 136.406 141.986 155.688 141.986 155.688L142.924 156.12L147.294 157.739L149.208 157.632V157.632Z" fill="#2C243D"/>
<path d="M152.315 109.602L153.253 108.199C152.624 106.895 152.259 104.261 152.259 104.261C151.333 104.988 150.326 105.736 149.823 106.004C149.823 106.004 149.136 108.092 149.425 109.099C149.624 109.759 149.89 110.398 150.219 111.005L153.366 111.437C153.366 111.437 153.474 110.79 153.148 110.646C152.822 110.502 152.318 109.602 152.318 109.602H152.315Z" fill="#FFD6D6"/>
<path d="M153.253 108.199L154.12 109.999L154.536 109.584C154.536 109.584 168.052 100.715 168.024 99.6357C167.996 98.5568 172.837 79.9022 166.411 76.8205C161.692 76.7854 161.312 82.5911 161.312 82.6003C161.498 88.3968 161.749 96.8841 161.561 97.2603C161.272 97.8375 154.301 102.623 154.301 102.623C154.301 102.623 153.329 103.426 152.265 104.261C152.265 104.261 152.635 106.895 153.259 108.199H153.253Z" fill="#5BC272"/>
<path d="M146.166 83.4376C146.166 83.4376 145.55 85.4755 145.913 86.2796C146.051 86.5307 146.236 86.7534 146.457 86.9361C146.86 86.8698 147.292 86.7702 147.292 86.7702L148.941 86.0915L149.338 84.9702L148.64 84.8429L148.671 84.0222L147.531 83.5962L147.657 83.2015L146.277 82.0157L145.564 82.521L146.166 83.4431V83.4376Z" fill="#FFD6D6"/>
<path d="M147.657 83.2016L147.531 83.5962L148.671 84.0223L148.64 84.8448L149.338 84.9702L149.299 85.079L149.449 85.2063L149.876 84.8595L148.021 82.3643L145.168 78.6057H144.091L146.277 82.0176L147.657 83.2016Z" fill="#5BC272"/>
<path d="M149.299 85.079L148.941 86.0915L147.292 86.7701C147.292 86.7701 146.86 86.8697 146.457 86.9361C147.184 87.5871 148.323 88.2271 148.417 88.3175C148.545 88.4429 149.464 90.0068 149.464 90.0068L151.05 87.0855C150.946 86.8866 150.856 86.6808 150.78 86.4695C150.019 84.2564 149.987 83.753 149.987 83.753L149.004 82.3329L148.021 82.3642L149.873 84.8595L149.445 85.2062L149.295 85.079H149.299Z" fill="#FFD6D6"/>
<path d="M151.05 87.0855L149.464 90.0031L148.573 91.829C148.573 91.829 152.461 97.4908 154.829 99.4033L155.819 93.3726C154.87 92.3029 152.068 89.0699 151.05 87.0818V87.0855Z" fill="#5BC272"/>
<path d="M157.358 64.8881C158.839 66.4225 161.772 69.1594 163.392 68.6006C164.088 68.3608 164.306 67.8868 164.278 67.3483C164.023 67.5748 163.729 67.7541 163.41 67.8776C162.138 68.3811 157.352 64.1283 157.352 64.1283C157.352 64.1283 157.352 64.4086 157.352 64.8881H157.358Z" fill="#F2A4C3"/>
<path d="M164.647 70.6201C164.364 70.5906 163.656 71.9645 163.166 72.9844C163.512 72.8203 163.858 72.6506 164.191 72.4791C164.448 71.8539 164.749 71.2481 165.093 70.6662L164.641 70.6201H164.647Z" fill="#F2A4C3"/>
<path d="M171.112 97.0537C171.503 94.9402 170.605 92.2771 169.525 90.0234C170.605 92.2771 171.503 94.9402 171.112 97.0537ZM155.071 112.971C166.254 110.651 170.138 102.299 170.138 102.299L171.105 97.0961V97.0592L171.953 92.5851C171.953 92.5851 170.599 83.9171 170.02 80.0995C169.44 76.2819 167.057 75.7471 164.712 75.4594C164.563 75.444 164.418 75.4021 164.284 75.3358L163.814 75.4612C163.888 76.0879 164.124 76.6846 164.499 77.193C165.105 76.934 165.761 76.8082 166.421 76.8241C169.849 78.471 170.07 84.5497 169.535 90.0271C169.064 94.8222 168.018 99.1488 168.033 99.6393C168.07 100.718 154.546 109.587 154.546 109.587L155.071 112.971Z" fill="#2C9343"/>
<path d="M155.203 113.812L154.207 116.597C156.33 117.551 160.148 118.725 166.652 119.264L169.407 114.985L155.203 113.812Z" fill="#1C1E57"/>
<path d="M171.623 123.484C171.438 122.099 171.253 120.728 171.068 119.509C170.697 116.961 170.42 115.07 170.42 115.07L169.399 114.985L166.645 119.264L162.672 125.431C162.672 125.431 163.505 128.504 164.63 132.74C166.174 128.849 168.977 125.732 171.616 123.484H171.623Z" fill="#2C243D"/>
<path d="M142.924 156.12C142.924 156.12 142.482 156.673 141.827 157.468C143.645 157.888 145.489 158.192 147.347 158.377L147.294 157.739L142.924 156.12Z" fill="#F2A4C3"/>
<path d="M170.553 157.235C170.479 157.53 170.368 157.999 170.212 158.559C171.432 158.89 173.254 159.124 175.781 158.84C176.248 158.2 176.522 157.776 176.522 157.776L175.87 155.581L170.544 157.241L170.553 157.235Z" fill="#F2A4C3"/>
<path d="M151.217 105.054C151.474 106.328 151.917 107.996 152.605 109.158L153.248 108.199C153.16 108.014 153.083 107.825 153.016 107.632C152.529 106.255 152.254 104.261 152.254 104.261C151.907 104.532 151.552 104.814 151.217 105.054V105.054Z" fill="#F2A4C3"/>
<path d="M150.45 85.4792C149.641 86.3217 148.933 87.255 148.34 88.2603C148.367 88.2769 148.393 88.296 148.418 88.3175C148.545 88.4429 149.464 90.0068 149.464 90.0068L151.048 87.0855C150.945 86.8863 150.856 86.6805 150.78 86.4696C150.65 86.0915 150.541 85.7632 150.45 85.4792V85.4792Z" fill="#F2A4C3"/>
<path d="M162.695 118.82C156.316 129.354 147.366 146.177 147.29 157.733L149.204 157.626C149.204 157.626 155.314 140.032 156.391 137.587C157.469 135.141 162.675 125.426 162.675 125.426L166.648 119.258C165.2 119.139 163.888 118.987 162.695 118.814V118.82Z" fill="#2C243D"/>
<path d="M161.4 85.577C161.424 86.9694 161.255 94.5105 155.066 97.9187L154.821 99.407L154.294 102.623C154.294 102.623 161.264 97.8375 161.553 97.2603C161.711 96.9449 161.564 90.929 161.4 85.577V85.577Z" fill="#2C9343"/>
<path d="M40.7345 162.309C53.574 162.309 63.9825 161.491 63.9825 160.483C63.9825 159.475 53.574 158.657 40.7345 158.657C27.8949 158.657 17.4865 159.475 17.4865 160.483C17.4865 161.491 27.8949 162.309 40.7345 162.309Z" fill="#F2F2FF"/>
<path d="M21.6503 164.406C23.6595 164.406 25.2883 163.995 25.2883 163.489C25.2883 162.983 23.6595 162.573 21.6503 162.573C19.6411 162.573 18.0123 162.983 18.0123 163.489C18.0123 163.995 19.6411 164.406 21.6503 164.406Z" fill="#F2F2FF"/>
<path d="M253.695 75.8658C256.385 75.5358 258.298 73.0958 257.967 70.4159C257.635 67.7359 255.186 65.831 252.495 66.161C249.805 66.491 247.893 68.931 248.224 71.6109C248.555 74.2909 251.005 76.1958 253.695 75.8658Z" fill="#F2F2FF"/>
<path d="M102.966 52.5648H127.906C128.299 52.5648 128.677 52.7199 128.956 52.9964C129.236 53.2728 129.394 53.6481 129.396 54.0402V54.0402C129.396 54.2347 129.358 54.4274 129.283 54.607C129.208 54.7866 129.098 54.9496 128.959 55.0868C128.821 55.2239 128.656 55.3324 128.475 55.406C128.295 55.4796 128.101 55.5168 127.906 55.5156H102.966C102.77 55.5168 102.577 55.4796 102.396 55.406C102.215 55.3324 102.051 55.2239 101.912 55.0868C101.774 54.9496 101.664 54.7866 101.589 54.607C101.514 54.4274 101.475 54.2347 101.475 54.0402V54.0402C101.475 53.8457 101.514 53.6531 101.589 53.4735C101.664 53.2938 101.774 53.1308 101.912 52.9937C102.051 52.8565 102.215 52.748 102.396 52.6744C102.577 52.6008 102.77 52.5636 102.966 52.5648Z" fill="#FFC266"/>
<path d="M133.814 52.5648H146.84C147.27 52.5648 147.62 53.2287 147.62 54.0402C147.62 54.859 147.27 55.5156 146.84 55.5156H133.814C133.384 55.5156 133.034 54.8517 133.034 54.0402C133.029 53.2214 133.379 52.5648 133.814 52.5648Z" fill="#FFC266"/>
<path d="M103.343 57.9703H134.604C135.635 57.9703 136.472 58.6343 136.472 59.455C136.472 60.2738 135.635 60.9304 134.604 60.9304H103.343C102.312 60.9304 101.475 60.2646 101.475 59.455C101.475 58.6343 102.312 57.9703 103.343 57.9703Z" fill="#FFC266"/>
<path d="M138.411 57.9703H141.282C141.377 57.9703 141.453 58.6343 141.453 59.455C141.453 60.2738 141.377 60.9304 141.282 60.9304H138.411C138.316 60.9304 138.24 60.2646 138.24 59.455C138.24 58.6343 138.316 57.9703 138.411 57.9703Z" fill="#FFC266"/>
<path d="M114.622 64.2574H145.753C146.781 64.2574 147.605 64.9213 147.605 65.7328C147.605 66.5535 146.772 67.2082 145.753 67.2082H114.622C113.595 67.2082 112.771 66.5443 112.771 65.7328C112.761 64.9213 113.595 64.2574 114.622 64.2574Z" fill="#FFC266"/>
<path d="M101.994 64.2574H110.686C110.971 64.2574 111.204 64.9213 111.204 65.7328C111.204 66.5535 110.971 67.2082 110.686 67.2082H101.994C101.708 67.2082 101.475 66.5443 101.475 65.7328C101.475 64.9213 101.708 64.2574 101.994 64.2574Z" fill="#FFC266"/>
<path d="M102.916 69.9321H127.012C127.204 69.9352 127.394 69.9761 127.571 70.0525C127.747 70.1288 127.907 70.2391 128.041 70.3769C128.175 70.5148 128.28 70.6776 128.35 70.8561C128.421 71.0345 128.455 71.225 128.452 71.4167V71.4167C128.456 71.8022 128.307 72.1737 128.037 72.45C127.767 72.7264 127.399 72.8853 127.012 72.8921H102.916C102.529 72.8853 102.16 72.7264 101.89 72.45C101.62 72.1737 101.471 71.8022 101.475 71.4167V71.4167C101.472 71.225 101.506 71.0345 101.577 70.8561C101.647 70.6776 101.753 70.5148 101.886 70.3769C102.02 70.2391 102.18 70.1288 102.357 70.0525C102.533 69.9761 102.723 69.9352 102.916 69.9321V69.9321Z" fill="#FFC266"/>
<path d="M105.082 32.855C105.99 29.6411 104.111 26.3024 100.884 25.3978C97.6577 24.4931 94.3061 26.3652 93.3979 29.5792C92.4898 32.7931 94.3692 36.1318 97.5956 37.0364C100.822 37.941 104.174 36.069 105.082 32.855Z" fill="#FFC266"/>
<path d="M95.8618 31.249L98.3667 32.8406L102.819 28.4052L103.667 29.248L98.5389 34.3566L95.2212 32.2523L95.8618 31.249Z" fill="white"/>
<path d="M105.082 32.855C105.99 29.6411 104.111 26.3024 100.884 25.3978C97.6577 24.4931 94.3061 26.3652 93.3979 29.5792C92.4898 32.7931 94.3692 36.1318 97.5956 37.0364C100.822 37.941 104.174 36.069 105.082 32.855Z" fill="url(#paint8_linear_401_1503)"/>
<path d="M95.8618 31.249L98.3667 32.8406L102.819 28.4052L103.667 29.248L98.5389 34.3566L95.2212 32.2523L95.8618 31.249Z" fill="white"/>
<path d="M182.604 60.2442C183.426 57.0075 181.459 53.7193 178.21 52.8997C174.961 52.0801 171.66 54.0395 170.837 57.2761C170.015 60.5128 171.982 63.801 175.231 64.6206C178.48 65.4402 181.781 63.4808 182.604 60.2442Z" fill="white"/>
<path d="M173.36 58.8076L175.866 60.3992L180.319 55.9637L181.165 56.8066L176.037 61.917L172.719 59.8109L173.36 58.8076Z" fill="#FFC266"/>
<path d="M159.148 21.705V20.9046C159.148 20.6921 159.064 20.4884 158.913 20.338C158.762 20.1876 158.558 20.1028 158.345 20.1024H151.172C150.959 20.1028 150.754 20.1875 150.603 20.3379C150.453 20.4882 150.368 20.692 150.367 20.9046V21.705V40.6123H172.078V22.8595C172.077 22.5536 171.955 22.2605 171.738 22.0442C171.521 21.8279 171.226 21.706 170.919 21.705H159.148V21.705Z" fill="#6678FF"/>
<path d="M172.676 24.606H149.845C149.712 24.6037 149.58 24.6282 149.456 24.6779C149.333 24.7276 149.22 24.8016 149.126 24.8954C149.032 24.9892 148.958 25.1009 148.908 25.2238C148.858 25.3468 148.834 25.4785 148.836 25.6111L149.621 39.6071C149.627 39.8718 149.735 40.1239 149.923 40.3111C150.111 40.4983 150.364 40.6061 150.63 40.6122H172.078C172.344 40.6071 172.598 40.4995 172.786 40.3121C172.974 40.1247 173.082 39.8721 173.087 39.6071L173.685 25.6111C173.687 25.4787 173.662 25.3473 173.612 25.2247C173.562 25.1021 173.487 24.9907 173.393 24.8971C173.299 24.8034 173.187 24.7295 173.064 24.6795C172.941 24.6295 172.809 24.6045 172.676 24.606Z" fill="#5BC272"/>
<path d="M88.2156 24.8088L88.1952 28.1691C88.1949 28.2551 88.2118 28.3404 88.2447 28.4199C88.2777 28.4994 88.3261 28.5717 88.3872 28.6326C88.4482 28.6934 88.5208 28.7416 88.6006 28.7744C88.6805 28.8073 88.7661 28.824 88.8524 28.8238H92.5108L88.2156 24.8088V24.8088Z" fill="#6678FF"/>
<path d="M88.1952 28.1691L88.2155 24.8088H79.7528C79.5785 24.8088 79.4113 24.8778 79.288 25.0006C79.1648 25.1234 79.0955 25.2899 79.0955 25.4635V39.9575C79.096 40.131 79.1654 40.2973 79.2886 40.4199C79.4117 40.5426 79.5786 40.6117 79.7528 40.6122H91.848C92.0222 40.6117 92.189 40.5426 92.3122 40.4199C92.4354 40.2973 92.5048 40.131 92.5052 39.9575V28.8238H88.8524C88.766 28.824 88.6805 28.8073 88.6006 28.7744C88.5208 28.7416 88.4482 28.6934 88.3871 28.6326C88.3261 28.5717 88.2776 28.4994 88.2447 28.4199C88.2118 28.3404 88.1949 28.2551 88.1952 28.1691V28.1691Z" fill="url(#paint9_linear_401_1503)"/>
<path d="M78.2235 24.8088L78.2013 28.1691C78.2013 28.2552 78.2184 28.3405 78.2515 28.42C78.2846 28.4996 78.3332 28.5718 78.3945 28.6327C78.4557 28.6935 78.5284 28.7417 78.6083 28.7745C78.6883 28.8073 78.7739 28.824 78.8604 28.8238H82.5188L78.2235 24.8088Z" fill="#6678FF"/>
<path d="M78.2013 28.1691L78.2235 24.8088H69.7664C69.5921 24.8088 69.4249 24.8778 69.3016 25.0006C69.1784 25.1234 69.1091 25.2899 69.1091 25.4635V39.9575C69.1096 40.131 69.179 40.2973 69.3022 40.4199C69.4253 40.5426 69.5922 40.6117 69.7664 40.6122H81.8615C82.0357 40.6117 82.2026 40.5426 82.3257 40.4199C82.4489 40.2973 82.5183 40.131 82.5188 39.9575V28.8238H78.8604C78.774 28.824 78.6883 28.8073 78.6083 28.7745C78.5284 28.7417 78.4557 28.6935 78.3945 28.6327C78.3333 28.5718 78.2847 28.4996 78.2515 28.42C78.2184 28.3405 78.2013 28.2552 78.2013 28.1691V28.1691Z" fill="#5BC272"/>
<path d="M206.018 21.8433H228.824C230.511 21.8148 232.119 21.1271 233.302 19.9285C234.485 18.7299 235.148 17.1163 235.148 15.4354C235.148 13.7546 234.485 12.141 233.302 10.9424C232.119 9.74376 230.511 9.0561 228.824 9.02759C228.543 9.02729 228.262 9.04577 227.983 9.08292C228.023 8.83905 228.044 8.59236 228.044 8.34522C228.044 7.5354 227.818 6.74158 227.391 6.05239C226.964 5.3632 226.353 4.80576 225.627 4.4423C224.9 4.07883 224.087 3.92365 223.277 3.99408C222.467 4.06451 221.693 4.35778 221.041 4.84114C220.367 3.18657 219.142 1.81361 217.571 0.953312C216.001 0.0930191 214.181 -0.202083 212.417 0.117664C210.654 0.437411 209.055 1.35249 207.89 2.7089C206.724 4.06531 206.063 5.78025 206.018 7.5651V7.5651C204.119 7.5651 202.297 8.31686 200.953 9.65501C199.61 10.9932 198.855 12.8081 198.855 14.7005C198.855 16.5929 199.61 18.4079 200.953 19.746C202.297 21.0842 204.119 21.8359 206.018 21.8359V21.8433Z" fill="#F2F2FF"/>
</g>
<defs>
<linearGradient id="paint0_linear_401_1503" x1="90.1015" y1="100.295" x2="217.224" y2="99.2883" gradientUnits="userSpaceOnUse">
<stop stop-color="#29056B"/>
<stop offset="1" stop-color="#6C93F5"/>
</linearGradient>
<linearGradient id="paint1_linear_401_1503" x1="91213" y1="2907.57" x2="232291" y2="2898.66" gradientUnits="userSpaceOnUse">
<stop stop-color="#4C4C87"/>
<stop offset="1" stop-color="#7962AD"/>
</linearGradient>
<linearGradient id="paint2_linear_401_1503" x1="43.3633" y1="137.284" x2="43.3635" y2="79.6897" gradientUnits="userSpaceOnUse">
<stop stop-color="#F0A24F"/>
<stop offset="1" stop-color="#FFC266"/>
</linearGradient>
<linearGradient id="paint3_linear_401_1503" x1="4345.01" y1="2037.51" x2="7940.52" y2="2037.51" gradientUnits="userSpaceOnUse">
<stop stop-color="#2B233C"/>
<stop offset="1" stop-color="#635C70"/>
</linearGradient>
<linearGradient id="paint4_linear_401_1503" x1="1853.12" y1="713.42" x2="3340.6" y2="713.42" gradientUnits="userSpaceOnUse">
<stop stop-color="#2B233C"/>
<stop offset="1" stop-color="#635C70"/>
</linearGradient>
<linearGradient id="paint5_linear_401_1503" x1="115.126" y1="102.673" x2="108.312" y2="103.077" gradientUnits="userSpaceOnUse">
<stop stop-color="#FFD6D6"/>
<stop offset="1" stop-color="#F2A4C3"/>
</linearGradient>
<linearGradient id="paint6_linear_401_1503" x1="1732.51" y1="745.7" x2="3124.47" y2="745.7" gradientUnits="userSpaceOnUse">
<stop stop-color="#2B233C"/>
<stop offset="1" stop-color="#635C70"/>
</linearGradient>
<linearGradient id="paint7_linear_401_1503" x1="6907.05" y1="7676.58" x2="12600.3" y2="7676.58" gradientUnits="userSpaceOnUse">
<stop stop-color="#2B233C"/>
<stop offset="1" stop-color="#635C70"/>
</linearGradient>
<linearGradient id="paint8_linear_401_1503" x1="53326.9" y1="13086.5" x2="56200" y2="11150.9" gradientUnits="userSpaceOnUse">
<stop stop-color="#FA655C"/>
<stop offset="1" stop-color="#FFBF8A"/>
</linearGradient>
<linearGradient id="paint9_linear_401_1503" x1="92.4294" y1="29.7354" x2="79.1716" y2="38.1119" gradientUnits="userSpaceOnUse">
<stop stop-color="#9FADF2"/>
<stop offset="1" stop-color="#7673D1"/>
</linearGradient>
<clipPath id="clip0_401_1503">
<rect width="258" height="173" fill="white"/>
</clipPath>
</defs>
</svg>
