<svg width="224" height="166" viewBox="0 0 224 166" fill="none" xmlns="http://www.w3.org/2000/svg">
<rect y="4" width="223.932" height="160.803" rx="15" fill="#F4F9F5"/>
<g clip-path="url(#clip0_401_1501)">
<path d="M82.3511 1.42481e-05C77.0158 0.000947807 71.7922 1.52579 67.2974 4.39442C70.8394 7.91614 76.4491 11.7936 84.8438 13.5876C87 14.0493 88.4146 14.078 89.174 13.8704C89.4494 13.8172 89.6994 13.6742 89.8846 13.4638C90.0244 13.2719 90.0939 13.038 90.0816 12.801C90.0816 12.1979 89.7761 11.2545 89.247 10.1874C88.7179 9.12023 87.9918 7.91614 87.2546 6.69215C85.8444 4.3657 84.3501 2.02157 84.0845 0.0508285C83.5111 0.0154788 82.9355 -0.00219727 82.3622 -0.00219727L82.3511 1.42481e-05ZM85.2179 0.148041C85.5411 1.65261 86.8539 3.91941 88.1888 6.1133C88.9327 7.3395 89.6721 8.55906 90.2322 9.69246C90.7922 10.8259 91.1929 11.8576 91.1796 12.8076C91.1861 13.2849 91.0343 13.751 90.748 14.1333C90.4155 14.5295 89.9635 14.8077 89.4595 14.9264C88.3704 15.2225 86.8429 15.1341 84.6047 14.6569C75.8868 12.7922 70.0602 8.69162 66.3809 4.99095C63.534 6.96571 61.0806 9.45241 59.1462 12.3238C61.093 13.814 63.1364 15.1743 65.2629 16.3956C70.0225 19.164 75.8005 21.8329 81.76 24.0378C87.7195 26.2427 93.8561 27.9881 99.3242 28.9072C103.488 29.6032 107.269 29.8131 110.269 29.4176C110.296 28.9153 110.309 28.4131 110.309 27.9108C110.312 24.7851 109.788 21.6811 108.759 18.7287C105.467 16.6718 101.804 14.31 98.8393 11.5682C96.3466 9.255 95.4744 7.25775 95.419 5.55212C95.4027 4.82511 95.5159 4.10097 95.7533 3.41347C92.4928 1.63818 88.9105 0.52885 85.2157 0.150249L85.2179 0.148041ZM108.759 18.7287L108.704 18.5697L108.759 18.7287ZM108.704 18.5697L108.646 18.4106L108.704 18.5697ZM110.276 29.4198C110.276 29.5148 110.265 29.6098 110.26 29.7026C110.265 29.6076 110.271 29.5148 110.276 29.4198ZM110.26 29.7026C110.26 29.7578 110.26 29.8131 110.26 29.8705C110.251 29.8131 110.256 29.7556 110.26 29.7026ZM59.1462 12.3326L59.0621 12.4586C59.0909 12.4166 59.1197 12.3746 59.1462 12.3326ZM96.4462 3.80452L96.5924 3.89069L96.4462 3.80452ZM96.7407 3.97906C96.5825 4.47899 96.5077 5.00147 96.5193 5.52561C96.5614 6.89099 97.2299 8.58115 99.5876 10.7684C102.089 13.0882 105.151 15.1385 108.08 16.9944C105.772 11.5697 101.803 7.01356 96.7407 3.97906ZM66.5358 4.89153L66.4429 4.95781L66.5358 4.89153ZM58.9448 12.6375L58.8651 12.7568L58.9448 12.6375ZM58.8651 12.7568C58.8363 12.8032 58.8053 12.8496 58.7765 12.8982C58.8119 12.8496 58.8363 12.8032 58.8651 12.7568ZM58.6725 13.0595C58.6548 13.0904 58.6348 13.1192 58.6149 13.1501C58.6348 13.1192 58.6548 13.0904 58.6725 13.0595ZM58.5419 13.2694C56.9172 15.9018 55.742 18.7852 55.064 21.8019C58.8452 23.8434 63.3104 24.8553 67.3904 25.9997C70.0225 26.7354 72.4931 27.5308 74.5187 28.7437C76.5443 29.9567 78.1294 31.6159 78.8577 34.0153C79.0489 34.5876 79.0745 35.2021 78.9316 35.7883C78.7887 36.3745 78.483 36.9086 78.0497 37.3293C77.1974 38.1688 75.9112 38.7278 74.3372 39.1432C71.1892 39.9717 66.8369 40.1882 62.3828 40.1241C60.6118 40.0998 58.8407 40.0269 57.1095 39.9275C59.2227 44.3495 62.4654 48.1382 66.5115 50.9124C67.2708 50.9566 68.039 50.9787 68.805 50.9699C73.2746 50.9146 77.711 49.8652 80.8236 47.2007C83.9362 44.5362 84.4254 41.3901 85.4083 38.9664C85.8998 37.7557 86.5639 36.6775 87.7992 36.1385C88.4038 35.8896 89.0512 35.7605 89.7053 35.7584C90.8851 35.7692 92.058 35.9393 93.192 36.2644C98.2615 37.5723 101.675 41.7635 102.268 46.2374C102.32 46.6309 102.349 47.027 102.355 47.4238C106.826 42.8594 109.594 36.9034 110.198 30.5488C107.07 30.931 103.289 30.6858 99.1559 29.9942C93.5905 29.0619 87.3963 27.3054 81.3837 25.0806C75.371 22.8558 69.5421 20.1648 64.7139 17.3479C62.5721 16.1203 60.5126 14.755 58.5485 13.2606L58.5419 13.2694ZM102.348 47.4305L102.187 47.594C102.24 47.5321 102.293 47.4769 102.348 47.4305ZM55.064 21.8019L55.0308 21.9478L55.064 21.8019ZM108.219 17.3037L108.281 17.4583L108.219 17.3037ZM108.281 17.4583L108.345 17.6152L108.281 17.4583ZM108.345 17.6152L108.407 17.7743L108.345 17.6152ZM108.407 17.7743C108.427 17.8273 108.449 17.8803 108.469 17.9311C108.449 17.8803 108.427 17.8251 108.401 17.7743H108.407ZM108.469 17.9334L108.529 18.0902L108.469 17.9334ZM108.529 18.0902L108.589 18.2493L108.529 18.0902ZM55.0242 21.9765L54.991 22.1333L55.0242 21.9765ZM54.991 22.1333C54.9777 22.1886 54.9666 22.2438 54.9555 22.299C54.9666 22.2438 54.9777 22.1886 54.991 22.1333ZM54.9555 22.299L54.9223 22.467L54.9555 22.299ZM54.9223 22.467L54.8891 22.6327L54.9223 22.467ZM54.8891 22.6327L54.8626 22.7763L54.8891 22.6327ZM54.8338 22.9353C53.8635 28.2802 54.4791 33.7915 56.6048 38.7919C58.4954 38.909 60.459 38.9951 62.4049 39.0128C66.8126 39.0769 71.1139 38.8449 74.0605 38.0694C75.5349 37.6806 76.6595 37.1503 77.2815 36.5361C77.9036 35.9219 78.1028 35.2967 77.8062 34.3268C77.1664 32.2168 75.8249 30.7918 73.9586 29.6761C72.0924 28.5604 69.7038 27.7782 67.0959 27.0492C63.1554 25.9577 58.7234 24.9746 54.8271 22.9353H54.8338ZM56.6048 38.7919L56.6712 38.9487L56.6048 38.7919ZM56.6712 38.9487C56.6934 38.9996 56.7155 39.0526 56.7399 39.1034C56.7089 39.0526 56.6867 38.9996 56.6646 38.9487H56.6712ZM56.7399 39.1034C56.762 39.1564 56.7841 39.2072 56.8085 39.2603C56.7775 39.2072 56.7553 39.1564 56.7332 39.1034H56.7399ZM56.8085 39.2603L56.8749 39.4083L56.8085 39.2603ZM110.254 29.8749C110.254 29.9302 110.254 29.9854 110.254 30.0428C110.24 29.9876 110.245 29.9302 110.247 29.8749H110.254ZM110.254 30.0428L110.24 30.2107L110.254 30.0428ZM110.24 30.2107C110.24 30.2682 110.24 30.3234 110.225 30.3809C110.214 30.3234 110.218 30.2682 110.223 30.2107H110.24ZM110.225 30.3809L110.212 30.5488L110.225 30.3809ZM89.7628 36.8675C89.248 36.8622 88.7372 36.9583 88.2597 37.1503C87.3742 37.5348 86.9004 38.2727 86.4488 39.3818C85.55 41.6022 84.9567 45.1261 81.5608 48.038C78.1648 50.95 73.4694 52.0149 68.836 52.0723H68.3666C73.5075 55.0378 79.4606 56.2934 85.3642 55.6575C91.2677 55.0216 96.8152 52.5271 101.204 48.5351C101.274 47.821 101.262 47.1011 101.166 46.3899C100.641 42.3777 97.5487 38.5356 92.9153 37.3315C91.884 37.0365 90.8178 36.8804 89.7451 36.8675H89.7628ZM102.085 47.7066L101.967 47.8237L102.085 47.7066ZM101.719 48.0623L101.595 48.1794L101.719 48.0623ZM67.7955 51.7431L67.9416 51.8315L67.7955 51.7431Z" fill="white"/>
<path d="M175.155 16.2476H174.526C173.289 23.6269 174.451 33.3414 183.231 44.1076C192.972 56.0558 196.226 74.241 196.463 92.6649C196.7 111.089 193.901 129.782 191.371 142.773C190.618 146.631 189.784 150.572 188.985 154.41C199.456 141.971 206.396 126.519 210.751 110.989C205.699 89.152 197.233 67.5909 196.731 54.0431C196.288 42.0485 200.29 33.094 204.922 26.8238C199.009 21.1767 189.704 16.3382 175.155 16.2476ZM174.254 16.2476C173.938 16.2476 173.619 16.2476 173.298 16.2609L174.254 16.2476ZM173.289 16.2609C170.845 16.3124 168.258 16.5002 165.53 16.8243C161.056 17.3633 157.243 18.4636 153.963 20.0124C154.071 22.7917 154.737 26.0284 156.134 29.802C161.81 45.1504 169.751 62.896 173.265 81.1983C176.778 99.5006 175.861 118.422 163.77 135.953C154.733 149.061 146.699 158.928 137.18 165.989H176.975C180.713 163.089 184.178 159.854 187.324 156.323C188.261 151.818 189.286 147.121 190.176 142.541C192.695 129.599 195.489 110.972 195.243 92.6803C194.997 74.3891 191.728 56.4579 182.284 44.8787C173.393 33.9755 172.069 23.9163 173.289 16.2609ZM153.341 20.3195C153.159 20.41 152.982 20.5028 152.803 20.5956C152.973 20.5028 153.152 20.41 153.341 20.3195ZM152.783 20.6067C136.726 29.0442 134.061 48.6964 127.703 64.1796C127.902 65.4544 128.064 66.8308 128.168 68.3443C128.916 79.2474 126.704 96.3147 114.996 121.117C94.7594 163.979 56.6447 151.219 35.7577 148.051C41.9563 154.679 50.0565 160.835 60.0362 165.989H135.101C145.05 158.994 153.323 148.959 162.773 135.261C174.653 118.044 175.56 99.5426 172.071 81.4281C168.582 63.3136 160.686 45.6365 154.988 30.2262C153.648 26.6007 152.951 23.4104 152.776 20.6067H152.783ZM205.778 27.6766C201.335 33.7479 197.519 42.402 197.953 54.0077C198.426 66.6563 206.316 87.3315 211.432 108.53C218.362 82.1726 217.981 56.0403 214.877 44.4876C214.884 44.4744 213.42 35.5 205.772 27.6656L205.778 27.6766ZM127.269 65.2357C127.154 65.5052 127.036 65.7726 126.919 66.0399C127.03 65.7682 127.147 65.4898 127.262 65.2202L127.269 65.2357ZM126.766 66.3912C122.744 75.3568 117.116 82.5792 106.273 84.8018C107.836 95.3625 108.266 115.993 91.4919 129.053C79.7256 138.193 59.6975 137.546 42.264 132.192C34.4848 129.802 27.2103 126.461 21.419 122.575C23.3118 130.664 27.6331 138.924 34.4095 146.575C55.4958 149.2 93.4267 163.928 113.884 120.598C125.529 95.9369 127.674 79.0817 126.946 68.4282C126.897 67.7146 126.835 67.0319 126.762 66.3757L126.766 66.3912ZM48.5578 80.7542C47.6391 80.7542 46.7358 80.7918 45.8503 80.8603C46.4004 81.7259 47.0288 82.5393 47.7276 83.2906C50.8977 86.7372 55.6618 89.3663 60.4724 91.7502C65.2829 94.1341 70.1289 96.2705 73.5005 98.8975C75.1852 100.212 76.5134 101.657 77.2351 103.354C77.9568 105.051 78.0387 106.981 77.306 109.114C75.8581 113.344 72.5242 115.501 68.3578 115.921C64.1915 116.34 59.164 115.11 53.8996 112.827C44.2962 108.63 33.9136 100.844 26.9335 92.3511C25.8334 94.0054 24.8397 95.7278 23.9582 97.5078C20.4427 104.52 19.4687 112.569 21.0537 120.843C26.8826 124.948 34.467 128.523 42.6248 131.028C59.8259 136.313 79.533 136.799 90.7348 128.072C106.851 115.523 106.55 95.4862 105.049 85.0094C104.192 85.1567 103.306 85.2679 102.393 85.343C79.7699 87.3138 62.2943 80.6879 48.5666 80.7498L48.5578 80.7542ZM45.1707 80.9221C44.9493 80.942 44.7479 80.9663 44.5375 80.9906C44.7479 80.9663 44.9582 80.942 45.1707 80.9221ZM44.5243 80.9906C38.0667 81.7683 32.499 84.5808 27.6552 91.3061C34.4958 99.7193 44.8984 107.56 54.3889 111.694C59.5337 113.934 64.4085 115.077 68.2383 114.699C72.0681 114.321 74.831 112.545 76.1504 108.718C76.8034 106.818 76.7193 105.258 76.1127 103.829C75.5061 102.399 74.3417 101.094 72.7478 99.8519C69.5732 97.3774 64.7782 95.2343 59.9278 92.835C55.0774 90.4356 50.2004 87.78 46.8266 84.1058C45.9449 83.1566 45.1726 82.1117 44.5243 80.9906ZM105.7 84.899C105.521 84.9321 105.339 84.9653 105.158 84.994C105.339 84.9653 105.523 84.9321 105.7 84.899ZM211.076 109.816C210.972 110.203 210.855 110.589 210.755 110.978C210.866 110.592 210.974 110.203 211.078 109.816H211.076Z" fill="#EEF8FD"/>
<path d="M97.3162 153.084H136.737C136.841 153.084 136.927 153.267 136.927 153.495V155.859C136.927 156.08 136.841 156.272 136.737 156.272H97.3317C97.2277 156.272 97.1436 156.087 97.1436 155.859V153.495C97.1281 153.259 97.2122 153.084 97.3162 153.084Z" fill="#82BEE7"/>
<path d="M49.1598 53.7359C47.4021 53.6895 45.5337 55.457 46.9461 56.829L111.679 125.385L116.175 120.18L51.3449 55.6161C50.9729 54.2794 50.0808 53.7602 49.1598 53.7359Z" fill="#82BEE7"/>
<path d="M45.0644 153.084H84.773C84.877 153.084 84.9612 153.267 84.9612 153.495V155.859C84.9612 156.08 84.877 156.272 84.773 156.272H45.0644C44.9603 156.272 44.8762 156.087 44.8762 155.859V153.495C44.8762 153.259 44.9603 153.084 45.0644 153.084Z" fill="#82BEE7"/>
<path d="M126.033 101.611L140.571 165.989H137.18L120.439 101.611H126.033Z" fill="#82BEE7"/>
<path d="M99.5456 103.674L144.264 103.338C147.235 103.338 147.399 98.8532 143.695 98.8532L97.3318 97.0327L99.5456 103.674Z" fill="#82BEE7"/>
<path d="M75.898 132.864H115.607C115.711 132.864 115.932 133.085 115.795 133.277L112.288 137.972C112.151 138.155 112.204 138.385 112.1 138.385H74.1446C74.1039 138.372 74.0664 138.351 74.0344 138.322C74.0024 138.294 73.9767 138.259 73.9588 138.22C73.9409 138.181 73.9312 138.139 73.9305 138.097C73.9297 138.054 73.9378 138.012 73.9543 137.972L75.7076 133.277C75.7895 133.063 75.7917 132.864 75.898 132.864Z" fill="#82BEE7"/>
<path d="M134.218 119.608L64.2047 165.989H69.4381L140.038 123.026C142.856 120.213 138.099 115.735 134.218 119.608Z" fill="#82BEE7"/>
<path d="M30.0151 82.1616C30.5863 82.1616 38.7972 158.4 38.7972 158.4L34.0044 162.275L25.4326 72.9839L30.0151 82.1616Z" fill="#9AD4F3"/>
<path d="M6.49805 56.7761L46.9483 56.8401L95.9016 105.269L126.033 101.613L124.927 107.357L121.759 133.549L79.5219 133.578L6.49805 56.7761Z" fill="#C9EAFB"/>
<path d="M79.5817 100.04C79.5817 100.04 81.9681 97.8723 95.501 98.4931C105.242 98.9461 123.935 108.581 127.942 112.169C134.681 118.203 116.233 124.621 108.976 120.441C108.976 120.441 85.9131 124.285 73.8457 119.069C61.7784 113.853 69.8609 101.136 69.8609 101.136L70.5472 100.208L79.5817 100.04Z" fill="url(#paint0_linear_401_1501)"/>
<path d="M108.976 120.45L141.267 157.476L147.662 151.544L129.173 112.772L108.976 120.45Z" fill="url(#paint1_linear_401_1501)"/>
<path d="M84.3723 96.8847L129.091 86.9735C134.337 85.5706 139.918 87.2541 140.735 94.4853C141.517 101.412 109.687 137.091 109.687 137.091L102.306 132.438L114.482 104.739C114.482 104.739 91.4409 103.192 85.9906 100.51C85.2025 100.124 82.1452 99.6265 82.7518 99.2686C83.1935 99.0276 83.5712 98.6851 83.8538 98.2694C84.1364 97.8537 84.3156 97.3767 84.3767 96.8781L84.3723 96.8847Z" fill="url(#paint2_linear_401_1501)"/>
<path d="M87.2214 101.611L101.759 165.989H98.3722L81.6294 101.611H87.2214Z" fill="#82BEE7"/>
<path d="M78.7958 130.597L10.8969 55.5521C9.8099 51.6703 4.34186 54.6683 6.49808 56.7761L74.3084 135.805L78.7958 130.597Z" fill="#82BEE7"/>
<path d="M95.4057 119.608L25.3949 165.989H30.6216L101.228 123.026C104.046 120.213 99.2887 115.735 95.4057 119.608Z" fill="#9AD4F3"/>
<path d="M102.304 132.444C102.304 132.444 100.907 136.255 99.4792 138.189C98.3479 139.735 93.7234 140.314 97.6572 145.278C100.664 149.065 104.137 157.768 105.476 158.625C107.247 159.75 112.319 160.717 113.271 159.867C114.223 159.016 112.64 158.515 111.894 157.302C111.148 156.089 106.813 143.652 106.873 142.574C106.933 141.496 109.685 137.088 109.685 137.088L102.304 132.444Z" fill="url(#paint3_linear_401_1501)"/>
<path d="M208.537 165.989C208.537 160.404 203.52 155.245 195.378 152.452C187.236 149.66 177.203 149.662 169.061 152.452C160.918 155.243 155.902 160.406 155.902 165.989H208.537Z" fill="#C9EAFB"/>
<path d="M141.266 157.476C141.266 157.476 143.119 159.907 144.636 161.787C145.838 163.269 145.743 167.778 151.554 165.242C155.981 163.309 166.278 162.178 167.449 161.104C168.999 159.69 171.212 155.037 170.643 153.902C170.074 152.766 169.173 154.164 167.808 154.564C166.442 154.964 152.145 156.153 151.116 155.819C150.086 155.486 147.662 151.535 147.662 151.535L141.266 157.476Z" fill="url(#paint4_linear_401_1501)"/>
<path d="M163.019 96.8273H162.893C162.309 96.8676 161.765 97.137 161.379 97.5768C160.994 98.0165 160.799 98.5906 160.836 99.1736C160.836 99.1736 161.248 106.12 164.502 112.56C166.13 115.779 168.516 118.967 172.067 120.956C175.618 122.944 180.271 123.618 185.821 122.135C186.386 121.983 186.868 121.614 187.161 121.108C187.454 120.602 187.534 120 187.384 119.436C187.232 118.871 186.861 118.391 186.354 118.098C185.847 117.806 185.245 117.726 184.679 117.876C180.003 119.126 176.767 118.539 174.234 117.114C171.702 115.689 169.807 113.283 168.447 110.574C165.709 105.157 165.244 98.8798 165.244 98.8798C165.205 98.3206 164.955 97.7971 164.544 97.4152C164.133 97.0333 163.592 96.8215 163.03 96.8229L163.019 96.8273Z" fill="#9AD4F3"/>
<path d="M202.084 105.028C201.948 105.028 201.814 105.04 201.681 105.064C201.106 105.171 200.597 105.501 200.265 105.982C199.933 106.462 199.806 107.054 199.91 107.629C200.429 111.303 200.222 115.043 199.301 118.638C197.762 124.455 194.074 130.675 183.993 133.374C183.459 133.554 183.013 133.929 182.747 134.424C182.481 134.92 182.414 135.498 182.56 136.041C182.706 136.584 183.053 137.051 183.532 137.347C184.011 137.643 184.585 137.746 185.137 137.634C196.678 134.541 201.756 126.632 203.569 119.763C204.656 115.543 204.888 111.148 204.251 106.838C204.157 106.332 203.889 105.874 203.494 105.545C203.098 105.215 202.599 105.033 202.084 105.031V105.028Z" fill="#9AD4F3"/>
<path d="M212.796 102.466C212.796 104.432 212.212 106.354 211.117 107.989C210.022 109.624 208.467 110.898 206.646 111.651C204.826 112.403 202.823 112.6 200.89 112.217C198.958 111.833 197.183 110.886 195.79 109.496C194.397 108.105 193.448 106.334 193.063 104.405C192.679 102.477 192.876 100.478 193.63 98.6608C194.384 96.8441 195.661 95.2914 197.299 94.1989C198.938 93.1065 200.864 92.5234 202.834 92.5234C205.476 92.5234 208.01 93.5709 209.878 95.4354C211.746 97.2999 212.796 99.8287 212.796 102.466Z" fill="url(#paint5_linear_401_1501)"/>
<path d="M202.83 96.3743C202.63 96.3743 202.439 96.4532 202.298 96.5936C202.157 96.734 202.078 96.9245 202.077 97.1233V97.6823C200.527 97.985 199.664 99.1161 199.797 100.541C199.892 101.56 200.623 102.547 202.429 103.25C204.3 104.014 203.784 105.291 202.672 105.291C201.89 105.254 201.126 105.042 200.437 104.673C199.469 104.193 198.847 105.943 200.153 106.661C200.753 106.971 201.405 107.165 202.077 107.233V107.808C202.087 108 202.171 108.18 202.311 108.312C202.451 108.445 202.636 108.518 202.829 108.518C203.021 108.518 203.206 108.445 203.346 108.312C203.486 108.18 203.57 108 203.58 107.808V107.233C205.426 107.012 206.381 105.908 206.237 104.337C206.115 103.049 205.294 102.145 203.658 101.493C201.723 100.709 201.931 99.5668 203.215 99.5668C203.845 99.5898 204.463 99.756 205.019 100.053C205.975 100.495 206.75 98.9062 205.307 98.1153C204.766 97.8557 204.184 97.6926 203.587 97.6337V97.1255C203.587 97.0269 203.568 96.9291 203.531 96.8379C203.493 96.7466 203.438 96.6637 203.368 96.5938C203.299 96.524 203.216 96.4686 203.124 96.431C203.033 96.3933 202.935 96.374 202.836 96.3743H202.83Z" fill="white"/>
<path d="M180.397 57.6443C180.262 57.6466 180.127 57.6621 179.994 57.6907C179.422 57.8128 178.921 58.156 178.602 58.6454C178.283 59.1348 178.17 59.7304 178.29 60.3022C178.29 60.3022 189.755 115.344 178.316 157.956C178.206 158.506 178.31 159.078 178.607 159.555C178.904 160.031 179.372 160.378 179.915 160.523C180.458 160.668 181.037 160.601 181.532 160.336C182.028 160.071 182.404 159.628 182.584 159.096C194.455 114.882 182.613 59.403 182.613 59.403C182.506 58.9001 182.226 58.4504 181.822 58.1314C181.418 57.8124 180.915 57.6441 180.399 57.6554L180.397 57.6443Z" fill="#C9EAFB"/>
<path d="M173.758 94.2688C173.758 96.2352 173.174 98.1574 172.079 99.7924C170.985 101.427 169.429 102.702 167.608 103.454C165.788 104.207 163.785 104.404 161.853 104.02C159.92 103.636 158.145 102.689 156.752 101.299C155.359 99.9085 154.41 98.137 154.026 96.2084C153.641 94.2799 153.838 92.2808 154.592 90.4641C155.346 88.6475 156.623 87.0947 158.262 86.0023C159.9 84.9098 161.826 84.3267 163.796 84.3267C166.438 84.3267 168.972 85.3742 170.84 87.2387C172.709 89.1032 173.758 91.632 173.758 94.2688Z" fill="url(#paint6_linear_401_1501)"/>
<path d="M163.79 88.1732C163.691 88.1729 163.593 88.1921 163.502 88.2296C163.411 88.2672 163.328 88.3223 163.258 88.3919C163.188 88.4616 163.133 88.5442 163.096 88.6352C163.058 88.7262 163.039 88.8238 163.039 88.9222V89.479C161.489 89.7839 160.626 90.9128 160.759 92.3379C160.854 93.3586 161.582 94.344 163.391 95.0466C165.262 95.8132 164.746 97.0902 163.632 97.0902C162.85 97.0517 162.086 96.8396 161.396 96.4694C160.429 95.9922 159.807 97.742 161.113 98.4578C161.713 98.7681 162.367 98.9623 163.039 99.03V99.6067C163.049 99.7986 163.133 99.9792 163.273 100.111C163.413 100.243 163.598 100.317 163.791 100.317C163.983 100.317 164.168 100.243 164.308 100.111C164.448 99.9792 164.532 99.7986 164.542 99.6067V99.03C166.386 98.8091 167.343 97.7044 167.199 96.1336C167.079 94.8455 166.258 93.9441 164.622 93.2923C162.687 92.508 162.895 91.3657 164.179 91.3657C164.81 91.3879 165.428 91.5533 165.986 91.8496C166.942 92.2915 167.717 90.7029 166.271 89.9142C165.731 89.6547 165.15 89.491 164.553 89.4303V88.9222C164.553 88.8237 164.534 88.7261 164.496 88.6351C164.458 88.5441 164.403 88.4614 164.333 88.3918C164.263 88.3222 164.18 88.2671 164.088 88.2296C163.997 88.1921 163.899 88.1729 163.801 88.1732H163.79Z" fill="white"/>
<path d="M196.815 52.5694C196.815 56.5973 195.211 60.4602 192.358 63.3084C189.504 66.1565 185.633 67.7566 181.597 67.7566C177.561 67.7566 173.691 66.1565 170.837 63.3084C167.983 60.4602 166.38 56.5973 166.38 52.5694C166.38 48.5416 167.983 44.6787 170.837 41.8305C173.691 38.9824 177.561 37.3823 181.597 37.3823C185.633 37.3829 189.503 38.9832 192.357 41.8312C195.211 44.6792 196.814 48.5418 196.815 52.5694Z" fill="url(#paint7_linear_401_1501)"/>
<path d="M181.597 43.268C181.446 43.2677 181.297 43.2971 181.158 43.3545C181.019 43.4119 180.892 43.4962 180.786 43.6026C180.679 43.7089 180.595 43.8352 180.537 43.9741C180.48 44.1131 180.45 44.2621 180.45 44.4125V45.2631C178.093 45.727 176.764 47.4547 176.968 49.6288C177.114 51.1864 178.226 52.6931 180.988 53.7647C183.844 54.9334 183.054 56.8843 181.356 56.8843C180.18 56.8843 178.726 56.3717 177.942 55.9387C176.466 55.2074 175.507 57.8785 177.499 58.9721C178.415 59.449 179.412 59.7489 180.439 59.8559V60.7396C180.439 61.0431 180.56 61.3342 180.775 61.5489C180.99 61.7635 181.282 61.8841 181.586 61.8841C181.89 61.8841 182.182 61.7635 182.397 61.5489C182.612 61.3342 182.733 61.0431 182.733 60.7396V59.8559C185.551 59.509 187.01 57.8365 186.786 55.4372C186.6 53.4708 185.347 52.0922 182.848 51.098C179.895 49.9005 180.214 48.1573 182.164 48.1573C183.127 48.1913 184.07 48.4445 184.92 48.8975C186.381 49.5603 187.563 47.1454 185.363 45.9413C184.538 45.544 183.649 45.2943 182.737 45.2034V44.4257C182.739 44.2748 182.711 44.125 182.655 43.9849C182.599 43.8448 182.515 43.7172 182.409 43.6096C182.303 43.5019 182.177 43.4163 182.037 43.3577C181.898 43.2991 181.748 43.2686 181.597 43.268Z" fill="white"/>
<path d="M194.504 84.2361C190.647 90.7736 186.091 94.6842 184.32 92.9697C182.549 91.2553 184.243 84.5742 188.099 78.0301C191.955 71.4926 196.511 67.5842 198.282 69.2965C200.054 71.0087 198.36 77.692 194.504 84.2361Z" fill="#C9EAFB"/>
<path d="M165.428 111.69C169.906 114.666 172.499 118.037 171.215 119.217C169.931 120.397 165.262 118.943 160.783 115.967C156.305 112.991 153.712 109.622 154.996 108.44C156.28 107.258 160.949 108.714 165.428 111.69Z" fill="#9AD4F3"/>
<path d="M201.419 122.856C196.952 125.832 194.349 129.201 195.624 130.381C196.899 131.561 201.577 130.107 206.055 127.131C210.545 124.155 213.135 120.781 211.851 119.604C210.567 118.426 205.898 119.877 201.419 122.856Z" fill="#9AD4F3"/>
<path d="M177.274 84.3267C179.747 88.5245 182.673 91.0299 183.809 89.9296C184.945 88.8294 183.858 84.5388 181.374 80.3454C178.901 76.1477 175.974 73.6423 174.839 74.7425C173.703 75.8428 174.799 80.1289 177.274 84.3267Z" fill="#C9EAFB"/>
<path d="M87.5757 92.1876C87.6753 92.1412 92.4726 94.5096 91.0203 95.4817C82.898 100.915 74.3882 105.828 64.2203 108.711C62.4825 109.202 62.7548 104.072 62.8544 104.014L87.5757 92.1876Z" fill="white"/>
<path d="M71.4505 42.2495C61.9489 44.7903 50.6188 49.0521 53.1292 48.8776L54.0147 54.0541L66.392 53.0975L63.7355 63.3202L57.8313 64.6767L52.1707 66.21L51.0106 67.7565L44.3693 69.2898L34.518 67.7256L46.9329 56.8379L45.3434 51.8492C45.3434 51.8492 25.2378 62.7811 22.0168 65.9891C18.6828 69.3164 19.8229 74.093 23.604 75.5843C27.3099 76.9607 46.9683 84.0528 46.9683 84.0528C50.1119 91.3436 57.6763 98.9504 59.7905 99.938C58.6836 102.667 60.5786 106.175 62.8145 106.29C72.1013 103.139 81.2266 99.6309 89.236 93.6524C91.3679 92.3864 87.0222 89.7065 83.5754 87.4463C81.7092 85.016 75.9489 80.1378 74.4679 73.998C74.552 69.7361 76.5356 54.7766 77.3458 48.639C78.0697 43.1156 74.4679 41.4387 71.4549 42.2429L71.4505 42.2495Z" fill="url(#paint8_linear_401_1501)"/>
<path d="M46.0605 59.1047C46.0605 59.1047 47.9489 61.5549 49.2085 61.4356C50.4682 61.3163 49.3989 56.0116 46.0605 59.1047Z" fill="url(#paint9_linear_401_1501)"/>
<path d="M47.7874 57.5935L51.0173 67.7565C53.7867 69.6743 66.8148 70.8165 59.2946 65.3086L55.7725 58.7866L47.7874 57.5935Z" fill="url(#paint10_linear_401_1501)"/>
<path d="M50.8246 58.0354L51.2297 58.0951L56.0159 59.2329L58.1057 63.1169C56.9258 63.6869 55.3606 64.0912 53.6782 63.5588C50.2379 62.4828 50.7958 58.2387 50.8246 58.0354Z" fill="url(#paint11_linear_401_1501)"/>
<path d="M53.1979 46.1822C53.6353 46.5552 54.0431 46.9615 54.4176 47.3973C54.7532 47.7964 54.9599 48.2876 55.0105 48.8061C55.0611 49.3247 54.9532 49.8464 54.701 50.3026L50.9752 44.5119C50.9752 44.5119 52.6134 45.0863 53.1979 46.1822Z" fill="url(#paint12_linear_401_1501)"/>
<path d="M52.5382 46.1247L57.5059 55.4571C57.5059 55.4571 59.4341 58.6871 55.788 61.06C52.1419 63.4328 48.8566 60.0857 47.8184 58.2165C46.7801 56.3474 45.2017 53.2985 43.6299 50.3468C42.0581 47.3951 50.0277 41.41 52.5382 46.1247Z" fill="url(#paint13_linear_401_1501)"/>
<path d="M53.6849 50.9257C53.6849 50.9257 55.343 51.6415 55.788 51.4073C56.2329 51.1731 56.5429 52.4943 55.6286 52.9097C54.7143 53.325 52.6023 50.5965 53.6849 50.9213V50.9257Z" fill="#F17F9C"/>
<path d="M46.9571 40.9283C48.1481 40.6698 50.4283 42.4749 51.2917 43.1686C52.3831 44.0524 53.3638 46.0739 53.1978 46.1822C53.1978 46.1822 50.984 44.5119 50.2357 44.914C49.4875 45.3161 48.8787 48.3473 48.0817 49.1891C47.5549 49.7459 46.3373 49.7657 45.6045 49.3239C45.9078 50.3954 46.3351 51.8646 46.9328 52.9561C48.1858 55.2317 46.9328 56.8401 46.9328 56.8401C46.9328 56.8401 47.7895 59.1953 46.49 58.8086C45.1905 58.422 41.1769 56.5396 40.0457 54.7368C38.9145 52.934 36.3885 46.3169 41.3208 44.0656C43.6741 42.9919 45.9432 44.6577 46.1912 41.9932C46.2532 41.3304 46.5299 41.0145 46.9284 40.9283H46.9571Z" fill="url(#paint14_linear_401_1501)"/>
<path d="M45.0334 58.7534C46.096 59.5775 47.4686 59.5907 48.1017 58.7799C48.7348 57.9691 48.3895 56.6412 47.3269 55.8149C46.2643 54.9886 44.8917 54.9776 44.2586 55.7884C43.6254 56.5993 43.9796 57.9271 45.0334 58.7534Z" fill="#F8AF97"/>
<path d="M47.245 57.7084C47.2185 57.6488 46.8023 56.6391 46.0872 56.4137C45.3722 56.1884 44.9427 56.9153 45.1242 57.0589C45.3058 57.2025 45.7729 56.944 45.8149 57.2975C45.857 57.651 46.468 58.9479 47.245 57.7084Z" fill="url(#paint15_linear_401_1501)"/>
<path d="M63.7398 63.3246C62.0972 63.6118 60.3041 62.8275 58.8518 64.4469C60.8088 68.0548 65.5574 77.6191 59.8834 75.7633C52.9211 73.4832 51.0283 67.7588 51.0283 67.7588C48.177 67.2484 46.1801 68.099 44.387 69.2921C44.387 69.2921 51.1412 77.0027 52.5115 82.8023C53.3971 86.5295 52.4097 89.8148 51.595 91.6949C54.8316 95.9501 58.4356 99.3106 59.786 99.9447C58.6791 102.673 60.5741 106.182 62.8101 106.297C72.0969 103.146 81.2221 99.6376 89.2316 93.659C91.3634 92.3931 87.0178 89.7131 83.5709 87.453C81.7025 85.0227 75.9444 80.1444 74.4634 74.0046C71.2428 70.106 67.6499 66.5291 63.7354 63.3246H63.7398Z" fill="#5BC272"/>
<path d="M46.7269 103.676L105.454 103.338C108.425 103.338 108.587 98.8532 104.883 98.8532L41.0353 97.0327L46.7269 103.676Z" fill="#9AD4F3"/>
<path d="M152.776 20.6066H152.718C151.326 20.7569 147.478 27.4313 146.788 28.6465C146.188 29.7048 142.854 35.7341 143.573 36.7151C143.974 37.263 146.008 37.5414 148.145 37.6806V73.5009C148.144 73.7442 148.192 73.9852 148.285 74.2101C148.378 74.435 148.514 74.6393 148.687 74.8113C148.859 74.9834 149.064 75.1197 149.289 75.2126C149.515 75.3054 149.756 75.3529 150 75.3523H155.652C155.895 75.3529 156.137 75.3054 156.362 75.2126C156.588 75.1197 156.792 74.9834 156.965 74.8113C157.137 74.6393 157.274 74.435 157.367 74.2101C157.46 73.9852 157.507 73.7442 157.507 73.5009V37.6518C159.643 37.4905 161.855 37.1768 162.125 36.5648C162.689 35.2856 158.822 28.6222 158.111 27.4181C157.502 26.3863 154.038 20.6575 152.776 20.6044V20.6066Z" fill="#D2E6F4"/>
<path d="M125.17 40.9063H125.113C123.72 41.0565 119.873 47.731 119.184 48.9461C118.582 50.0044 115.248 56.0337 115.97 57.0147C116.37 57.5626 118.405 57.841 120.541 57.9802V68.837C120.541 69.0802 120.588 69.3213 120.681 69.5462C120.774 69.771 120.911 69.9754 121.083 70.1474C121.256 70.3195 121.46 70.4558 121.686 70.5486C121.911 70.6415 122.152 70.689 122.396 70.6884H128.046C128.29 70.689 128.531 70.6415 128.757 70.5487C128.982 70.4559 129.187 70.3196 129.36 70.1475C129.532 69.9755 129.669 69.7712 129.762 69.5463C129.856 69.3214 129.904 69.0804 129.903 68.837V57.9514C132.04 57.7902 134.249 57.4764 134.519 56.8644C135.083 55.5852 131.216 48.9218 130.505 47.7177C129.899 46.6859 126.434 40.9571 125.17 40.9041V40.9063Z" fill="#FFC266"/>
</g>
<defs>
<linearGradient id="paint0_linear_401_1501" x1="26435.8" y1="12753.7" x2="37100.1" y2="12753.7" gradientUnits="userSpaceOnUse">
<stop stop-color="#2B233C"/>
<stop offset="1" stop-color="#635C70"/>
</linearGradient>
<linearGradient id="paint1_linear_401_1501" x1="16512.9" y1="24265.1" x2="23147.2" y2="24265.1" gradientUnits="userSpaceOnUse">
<stop stop-color="#2B233C"/>
<stop offset="1" stop-color="#635C70"/>
</linearGradient>
<linearGradient id="paint2_linear_401_1501" x1="24708.9" y1="27407.9" x2="34668.4" y2="27407.9" gradientUnits="userSpaceOnUse">
<stop stop-color="#2B233C"/>
<stop offset="1" stop-color="#635C70"/>
</linearGradient>
<linearGradient id="paint3_linear_401_1501" x1="99.0651" y1="134.243" x2="102.557" y2="163.339" gradientUnits="userSpaceOnUse">
<stop stop-color="#F59999"/>
<stop offset="1" stop-color="#FABDA5"/>
</linearGradient>
<linearGradient id="paint4_linear_401_1501" x1="65072" y1="-458336" x2="67038.9" y2="-457561" gradientUnits="userSpaceOnUse">
<stop stop-color="#F59999"/>
<stop offset="1" stop-color="#FABDA5"/>
</linearGradient>
<linearGradient id="paint5_linear_401_1501" x1="3166.75" y1="89856.3" x2="7494.29" y2="93548.6" gradientUnits="userSpaceOnUse">
<stop stop-color="#FA655C"/>
<stop offset="1" stop-color="#FFBF8A"/>
</linearGradient>
<linearGradient id="paint6_linear_401_1501" x1="3127.71" y1="89847.9" x2="7455.24" y2="93540.1" gradientUnits="userSpaceOnUse">
<stop stop-color="#FA655C"/>
<stop offset="1" stop-color="#FFBF8A"/>
</linearGradient>
<linearGradient id="paint7_linear_401_1501" x1="4709.13" y1="137156" x2="11319.7" y2="142796" gradientUnits="userSpaceOnUse">
<stop stop-color="#FA655C"/>
<stop offset="1" stop-color="#FFBF8A"/>
</linearGradient>
<linearGradient id="paint8_linear_401_1501" x1="74.1237" y1="87.4032" x2="46.5846" y2="32.9937" gradientUnits="userSpaceOnUse">
<stop stop-color="#F59999"/>
<stop offset="1" stop-color="#F8C8AA"/>
</linearGradient>
<linearGradient id="paint9_linear_401_1501" x1="52.58" y1="61.2644" x2="54.513" y2="63.103" gradientUnits="userSpaceOnUse">
<stop/>
<stop offset="1" stop-color="#735386"/>
</linearGradient>
<linearGradient id="paint10_linear_401_1501" x1="40.8928" y1="63.0847" x2="47.7076" y2="74.9326" gradientUnits="userSpaceOnUse">
<stop stop-color="#F59999"/>
<stop offset="1" stop-color="#F8B4A3"/>
</linearGradient>
<linearGradient id="paint11_linear_401_1501" x1="54.5562" y1="62.2857" x2="62.233" y2="62.7157" gradientUnits="userSpaceOnUse">
<stop stop-color="#F17D9D"/>
<stop offset="1" stop-color="#F8AF97"/>
</linearGradient>
<linearGradient id="paint12_linear_401_1501" x1="-95055.2" y1="1924.64" x2="-94971.1" y2="2047.94" gradientUnits="userSpaceOnUse">
<stop/>
<stop offset="1" stop-color="#735386"/>
</linearGradient>
<linearGradient id="paint13_linear_401_1501" x1="-346781" y1="-5707.1" x2="-345950" y2="-4241.55" gradientUnits="userSpaceOnUse">
<stop stop-color="#F59999"/>
<stop offset="1" stop-color="#F8C8AA"/>
</linearGradient>
<linearGradient id="paint14_linear_401_1501" x1="-33711.7" y1="-318127" x2="-34782.5" y2="-318334" gradientUnits="userSpaceOnUse">
<stop/>
<stop offset="1" stop-color="#735386"/>
</linearGradient>
<linearGradient id="paint15_linear_401_1501" x1="-43641.1" y1="5551.34" x2="-43650.7" y2="5561.24" gradientUnits="userSpaceOnUse">
<stop stop-color="#F17D9D"/>
<stop offset="1" stop-color="#F8AF97"/>
</linearGradient>
<clipPath id="clip0_401_1501">
<rect width="211" height="166" fill="white" transform="translate(6)"/>
</clipPath>
</defs>
</svg>
