<svg width="13" height="13" viewBox="0 0 13 13" fill="none" xmlns="http://www.w3.org/2000/svg">
<path d="M11.3737 6.61917C11.3737 3.64542 9.0662 1.625 6.4987 1.625C3.95828 1.625 1.6237 3.60208 1.6237 6.65167C1.2987 6.83583 1.08203 7.1825 1.08203 7.58333V8.66667C1.08203 9.2625 1.56953 9.75 2.16536 9.75H2.70703V6.44583C2.70703 4.34958 4.40245 2.65417 6.4987 2.65417C8.59495 2.65417 10.2904 4.34958 10.2904 6.44583V10.2917H5.95703V11.375H10.2904C10.8862 11.375 11.3737 10.8875 11.3737 10.2917V9.63083C11.6933 9.46292 11.9154 9.1325 11.9154 8.7425V7.49667C11.9154 7.1175 11.6933 6.78708 11.3737 6.61917Z" fill="#5CBE72"/>
<path d="M4.8737 7.58333C5.17285 7.58333 5.41536 7.34082 5.41536 7.04167C5.41536 6.74251 5.17285 6.5 4.8737 6.5C4.57454 6.5 4.33203 6.74251 4.33203 7.04167C4.33203 7.34082 4.57454 7.58333 4.8737 7.58333Z" fill="#5CBE72"/>
<path d="M8.1237 7.58333C8.42285 7.58333 8.66537 7.34082 8.66537 7.04167C8.66537 6.74251 8.42285 6.5 8.1237 6.5C7.82454 6.5 7.58203 6.74251 7.58203 7.04167C7.58203 7.34082 7.82454 7.58333 8.1237 7.58333Z" fill="#5CBE72"/>
<path d="M9.74903 5.97458C9.48903 4.43083 8.14569 3.25 6.52611 3.25C4.88486 3.25 3.11903 4.60958 3.25986 6.74375C4.59778 6.19667 5.60528 5.005 5.89236 3.55333C6.60194 4.97792 8.05903 5.95833 9.74903 5.97458Z" fill="#5CBE72"/>
</svg>
