<svg width="13" height="13" viewBox="0 0 13 13" fill="none" xmlns="http://www.w3.org/2000/svg">
<path d="M6.49328 1.08331C3.50328 1.08331 1.08203 3.50998 1.08203 6.49998C1.08203 9.48998 3.50328 11.9166 6.49328 11.9166C9.4887 11.9166 11.9154 9.48998 11.9154 6.49998C11.9154 3.50998 9.4887 1.08331 6.49328 1.08331ZM6.4987 10.8333C4.10453 10.8333 2.16536 8.89415 2.16536 6.49998C2.16536 4.10581 4.10453 2.16665 6.4987 2.16665C8.89286 2.16665 10.832 4.10581 10.832 6.49998C10.832 8.89415 8.89286 10.8333 6.4987 10.8333ZM6.76953 3.79165H5.95703V7.04165L8.80078 8.7479L9.20703 8.08165L6.76953 6.6354V3.79165Z" fill="#5CBE72"/>
</svg>
