<svg width="13" height="13" viewBox="0 0 13 13" fill="none" xmlns="http://www.w3.org/2000/svg">
<path d="M4.8763 11.375H9.7513C10.2009 11.375 10.5855 11.1042 10.748 10.7142L12.3838 6.89544C12.4326 6.77085 12.4596 6.64085 12.4596 6.50002V5.41669C12.4596 4.82085 11.9721 4.33335 11.3763 4.33335H7.95838L8.47297 1.85794L8.48922 1.6846C8.48922 1.46252 8.39713 1.25669 8.25088 1.11044L7.67672 0.541687L4.10714 4.11127C3.91214 4.30627 3.79297 4.5771 3.79297 4.87502V10.2917C3.79297 10.8875 4.28047 11.375 4.8763 11.375ZM4.8763 4.87502L7.22714 2.52419L6.5013 5.41669H11.3763V6.50002L9.7513 10.2917H4.8763V4.87502ZM0.542969 4.87502H2.70964V11.375H0.542969V4.87502Z" fill="#5CBE72"/>
</svg>
