<svg width="13" height="13" viewBox="0 0 13 13" fill="none" xmlns="http://www.w3.org/2000/svg">
<path d="M4.82083 3.25002C4.82083 2.32377 5.57375 1.57085 6.5 1.57085C7.42625 1.57085 8.17917 2.32377 8.17917 3.25002V4.33335H5.655L6.73833 5.41669H9.75V8.42835L10.8333 9.51169V5.41669C10.8333 4.82085 10.3458 4.33335 9.75 4.33335H9.20833V3.25002C9.20833 1.75502 7.995 0.541687 6.5 0.541687C5.24333 0.541687 4.1925 1.40294 3.88917 2.56752L4.82083 3.49919V3.25002ZM2.38875 2.60544L1.625 3.36919L2.73 4.47419C2.39417 4.65835 2.16667 5.01044 2.16667 5.41669V10.8334C2.16667 11.4292 2.65417 11.9167 3.25 11.9167H10.1725L10.7142 12.4584L11.4779 11.6946L2.38875 2.60544ZM3.25 10.8334V5.41669H3.6725L9.08917 10.8334H3.25Z" fill="#5CBE72"/>
</svg>
