<svg width="39" height="39" viewBox="0 0 39 39" fill="none" xmlns="http://www.w3.org/2000/svg">
<path d="M33.2879 5.71212C29.6029 2.02715 24.7115 0 19.5 0C14.2885 0 9.3971 2.02715 5.71212 5.71212C2.02715 9.3971 0 14.2885 0 19.5C0 24.7115 2.02715 29.6029 5.71212 33.2879C9.3971 36.9729 14.2885 39 19.5 39C24.7115 39 29.6029 36.9729 33.2879 33.2879C36.9729 29.6029 39 24.7115 39 19.5C39 14.2885 36.9729 9.3971 33.2879 5.71212ZM31.7203 31.7203C28.4539 34.9867 24.1124 36.7841 19.5 36.7841C14.8876 36.7841 10.5461 34.9867 7.27967 31.7203C0.541667 24.9823 0.541667 14.0177 7.27967 7.27967C10.5461 4.01326 14.8876 2.21591 19.5 2.21591C24.1124 2.21591 28.4539 4.01326 31.7203 7.27967C38.4583 14.0177 38.4583 24.9823 31.7203 31.7203Z" fill="white"/>
<path d="M28.0929 10.9073C27.6579 10.4723 26.9603 10.4723 26.5253 10.9073L19.5001 17.9325L12.4748 10.9073C12.0399 10.4723 11.3423 10.4723 10.9073 10.9073C10.4723 11.3423 10.4723 12.0399 10.9073 12.4748L17.9325 19.5001L10.9073 26.5253C10.4723 26.9603 10.4723 27.6579 10.9073 28.0929C11.1207 28.3063 11.4079 28.4212 11.687 28.4212C11.966 28.4212 12.2532 28.3145 12.4666 28.0929L19.4919 21.0676L26.5171 28.0929C26.7305 28.3063 27.0178 28.4212 27.2968 28.4212C27.584 28.4212 27.8631 28.3145 28.0765 28.0929C28.5114 27.6579 28.5114 26.9603 28.0765 26.5253L21.0676 19.5001L28.0929 12.4748C28.5279 12.0399 28.5279 11.3423 28.0929 10.9073Z" fill="white"/>
</svg>
