<svg width="22" height="22" viewBox="0 0 22 22" fill="none" xmlns="http://www.w3.org/2000/svg">
<path d="M17 0H5C3.67441 0.00158785 2.40356 0.528878 1.46622 1.46621C0.528882 2.40354 0.00158786 3.67438 0 4.99997V12.9999C0.00145452 14.1521 0.40009 15.2686 1.12872 16.1611C1.85735 17.0537 2.87141 17.6678 4 17.8999V20.9999C3.99997 21.1809 4.0491 21.3586 4.14213 21.5139C4.23516 21.6692 4.36861 21.7963 4.52823 21.8817C4.68786 21.9671 4.86769 22.0076 5.04852 21.9988C5.22935 21.99 5.4044 21.9323 5.555 21.8319L11.3 17.9999H17C18.3256 17.9983 19.5964 17.471 20.5338 16.5337C21.4711 15.5963 21.9984 14.3255 22 12.9999V4.99997C21.9984 3.67438 21.4711 2.40354 20.5338 1.46621C19.5964 0.528878 18.3256 0.00158785 17 0ZM15 11.9999H7C6.73478 11.9999 6.48043 11.8946 6.29289 11.707C6.10536 11.5195 6 11.2651 6 10.9999C6 10.7347 6.10536 10.4804 6.29289 10.2928C6.48043 10.1053 6.73478 9.99993 7 9.99993H15C15.2652 9.99993 15.5196 10.1053 15.7071 10.2928C15.8946 10.4804 16 10.7347 16 10.9999C16 11.2651 15.8946 11.5195 15.7071 11.707C15.5196 11.8946 15.2652 11.9999 15 11.9999ZM17 7.99995H5C4.73478 7.99995 4.48043 7.89459 4.29289 7.70705C4.10536 7.51952 4 7.26517 4 6.99995C4 6.73474 4.10536 6.48039 4.29289 6.29285C4.48043 6.10532 4.73478 5.99996 5 5.99996H17C17.2652 5.99996 17.5196 6.10532 17.7071 6.29285C17.8946 6.48039 18 6.73474 18 6.99995C18 7.26517 17.8946 7.51952 17.7071 7.70705C17.5196 7.89459 17.2652 7.99995 17 7.99995Z" fill="white"/>
</svg>
