<svg width="16" height="16" viewBox="0 0 16 16" fill="none" xmlns="http://www.w3.org/2000/svg">
<path fill-rule="evenodd" clip-rule="evenodd" d="M15.87 7.935C15.87 12.3174 12.3174 15.87 7.935 15.87C3.55262 15.87 0 12.3174 0 7.935C0 3.55262 3.55262 0 7.935 0C12.3174 0 15.87 3.55262 15.87 7.935ZM9.84045 4.98682C10.9442 5.36586 11.7517 5.93343 11.5933 6.98967C11.4782 7.76313 11.0478 8.13721 10.476 8.26818C11.2605 8.67501 11.5279 9.4471 11.2795 10.3807C10.8078 11.7242 9.68653 11.8373 8.19522 11.5565L7.83311 13.0007L6.95894 12.7834L7.31608 11.3585C7.08945 11.3025 6.85783 11.2424 6.61924 11.1784L6.26061 12.6103L5.38744 12.393L5.74906 10.9458L3.98828 10.5032L4.42262 9.50601C4.42262 9.50601 5.06716 9.67618 5.0582 9.66378C5.30575 9.7248 5.41583 9.56406 5.45917 9.45739L6.44042 5.53752C6.45138 5.35247 6.38713 5.11929 6.03298 5.03098C6.04643 5.02155 5.3979 4.87371 5.3979 4.87371L5.63051 3.94347L7.39378 4.37857L7.75241 2.94775L8.62608 3.16506L8.27492 4.5676C8.51002 4.62068 8.74612 4.67476 8.97575 4.73181L9.32442 3.3382L10.1986 3.55551L9.84045 4.98682ZM7.74831 7.37373C8.34379 7.5316 9.63954 7.87513 9.86538 6.97441C10.0958 6.05287 8.83692 5.77454 8.22055 5.63827C8.1507 5.62282 8.0891 5.6092 8.03885 5.59668L7.60352 7.33609C7.64497 7.34634 7.69368 7.35925 7.74827 7.37372L7.74831 7.37373ZM7.07425 10.1744C7.78747 10.3623 9.34733 10.7731 9.59553 9.78063C9.84957 8.76583 8.33719 8.42781 7.59926 8.26288L7.5992 8.26287C7.51678 8.24445 7.44402 8.22818 7.38446 8.21338L6.9043 10.1304C6.95304 10.1425 7.01014 10.1575 7.07404 10.1743L7.07425 10.1744Z" fill="#F7931A"/>
</svg>
