<svg width="24" height="24" viewBox="0 0 24 24" fill="none" xmlns="http://www.w3.org/2000/svg">
<path d="M14.491 16.705L14.3233 17.3904C13.8203 17.5889 13.4185 17.7401 13.1193 17.8439C12.8198 17.9482 12.4717 18 12.0752 18C11.4663 18 10.9926 17.8508 10.6548 17.5545C10.317 17.2571 10.148 16.8801 10.148 16.4228C10.148 16.2458 10.1603 16.0637 10.1858 15.8782C10.2115 15.6924 10.2524 15.4832 10.3083 15.2494L10.9369 13.0245C10.9928 12.8114 11.0404 12.6095 11.0784 12.4186C11.1171 12.2289 11.1357 12.0544 11.1357 11.8972C11.1357 11.6131 11.0768 11.4143 10.9597 11.3026C10.8426 11.1912 10.6191 11.1346 10.2873 11.1346C10.1248 11.1346 9.95778 11.1606 9.78753 11.211C9.61653 11.2615 9.47037 11.3103 9.34766 11.3557L9.51576 10.6698C9.92756 10.5021 10.3212 10.3585 10.6977 10.2394C11.0742 10.1199 11.43 10.0601 11.7665 10.0601C12.3713 10.0601 12.8379 10.2062 13.1656 10.4986C13.4933 10.7911 13.6571 11.1703 13.6571 11.6376C13.6571 11.7343 13.6464 11.9047 13.6233 12.1481C13.6007 12.3922 13.5586 12.6158 13.4973 12.8191L12.8714 15.0352C12.8201 15.2132 12.774 15.4167 12.7338 15.6456C12.6924 15.8731 12.6726 16.0469 12.6726 16.1635C12.6726 16.4577 12.7382 16.6586 12.8698 16.7654C13.0023 16.8722 13.2305 16.9254 13.5547 16.9254C13.7068 16.9254 13.88 16.8984 14.0724 16.8454C14.2643 16.7923 14.4042 16.7458 14.491 16.705ZM14.6497 7.40136C14.6497 7.78746 14.5042 8.11721 14.2118 8.38834C13.9201 8.66044 13.5686 8.7966 13.1575 8.7966C12.745 8.7966 12.3927 8.66044 12.0977 8.38834C11.8032 8.1171 11.6557 7.78746 11.6557 7.40136C11.6557 7.01602 11.8032 6.68573 12.0977 6.41116C12.3922 6.13702 12.7451 6 13.1575 6C13.5685 6 13.9201 6.13734 14.2118 6.41116C14.5044 6.68573 14.6497 7.01612 14.6497 7.40136Z" fill="#C4C4C4"/>
<circle cx="12" cy="12" r="11.5" stroke="#C4C4C4"/>
</svg>
