<svg width="82" height="82" viewBox="0 0 82 82" fill="none" xmlns="http://www.w3.org/2000/svg">
<path d="M60.2188 4.96472H26.5859H21.7812C9.85874 4.96472 0 14.6633 0 26.5858V40.9999C0 52.1107 8.58245 61.2885 19.3789 62.4872V74.6327C19.3789 75.6039 19.963 76.4814 20.8616 76.852C21.7478 77.2218 22.7872 77.0235 23.4799 76.3312L26.5859 73.2251L37.19 62.621H60.2188C72.1413 62.621 82 52.9224 82 40.9999V26.5858C82 14.6633 72.1413 4.96472 60.2188 4.96472Z" fill="#FF8066"/>
<path d="M60.2188 62.621C72.1413 62.621 82 52.9224 82 40.9999V26.5858C82 14.6633 72.1413 4.96472 60.2188 4.96472H26.5859V73.2251L37.19 62.621H60.2188Z" fill="#FF4D4D"/>
<path d="M65.0235 38.5975H62.6211V26.5858C62.6211 25.6146 62.037 24.7371 61.1384 24.3665C60.2375 23.9911 59.2053 24.1975 58.5202 24.8873L53.7155 29.692C52.7771 30.6304 52.7771 32.1507 53.7155 33.0891C54.6538 34.0275 56.1742 34.0275 57.1126 33.0891L57.8164 32.3852V38.5975H55.4141C54.0862 38.5975 53.0118 39.672 53.0118 40.9999C53.0118 42.3277 54.0862 43.4022 55.4141 43.4022H65.0235C66.3513 43.4022 67.4258 42.3277 67.4258 40.9999C67.4258 39.672 66.3513 38.5975 65.0235 38.5975Z" fill="#DFE7F4"/>
<path d="M33.793 21.7811C30.3655 21.7811 28.064 23.4633 26.5859 25.2604C25.1079 23.4633 22.8064 21.7811 19.3789 21.7811C13.9901 21.7811 9.76953 26.1401 9.76953 31.7049C9.76953 37.6263 14.6235 41.5652 21.3402 47.0152C22.5061 47.9606 23.7449 48.9672 25.0492 50.0534C25.4927 50.424 26.0393 50.6094 26.5859 50.6094C27.1326 50.6094 27.6792 50.4241 28.1226 50.0534C29.4271 48.9672 30.6658 47.9608 31.8317 47.0152C38.5483 41.5654 43.4023 37.6263 43.4023 31.7049C43.4023 26.1401 39.1817 21.7811 33.793 21.7811Z" fill="#F0F7FF"/>
<path d="M31.8317 47.0152C38.5483 41.5654 43.4023 37.6263 43.4023 31.7049C43.4023 26.1401 39.1817 21.7811 33.793 21.7811C30.3655 21.7811 28.064 23.4633 26.5859 25.2604V50.6093C27.1326 50.6093 27.6792 50.424 28.1226 50.0532C29.4269 48.967 30.6658 47.9606 31.8317 47.0152Z" fill="#DFE7F4"/>
</svg>
