<svg width="90" height="86" viewBox="0 0 90 86" fill="none" xmlns="http://www.w3.org/2000/svg">
<g filter="url(#filter0_d_30_105)">
<path d="M64.2188 4.96472H30.5859H25.7812C13.8587 4.96472 4 14.6633 4 26.5858V40.9999C4 52.1107 12.5825 61.2885 23.3789 62.4873V74.6327C23.3789 75.6039 23.963 76.4814 24.8616 76.852C25.7478 77.2218 26.7872 77.0238 27.4799 76.3312L30.5859 73.2251L41.19 62.621H64.2188C76.1413 62.621 86 52.9224 86 40.9999V26.5858C86 14.6633 76.1413 4.96472 64.2188 4.96472Z" fill="#FABE2C"/>
<path d="M64.2188 62.621C76.1413 62.621 86 52.9224 86 40.9999V26.5858C86 14.6633 76.1413 4.96472 64.2188 4.96472H30.5859V73.2251L41.19 62.621H64.2188Z" fill="#FF9100"/>
<path d="M69.0234 38.5975H66.6211V26.5858C66.6211 25.6146 66.037 24.7371 65.1383 24.3665C64.2421 23.9888 63.2053 24.1999 62.5201 24.8873L57.7154 29.692C56.7771 30.6304 56.7771 32.1507 57.7154 33.0891C58.6538 34.0274 60.1741 34.0274 61.1125 33.0891L61.8164 32.3852V38.5975H59.414C58.0862 38.5975 57.0117 39.672 57.0117 40.9998C57.0117 42.3277 58.0862 43.4022 59.414 43.4022H69.0234C70.3513 43.4022 71.4258 42.3277 71.4258 40.9998C71.4258 39.672 70.3513 38.5975 69.0234 38.5975Z" fill="#DFE7F4"/>
<path d="M30.5859 33.7928C34.5663 33.7928 37.793 30.5661 37.793 26.5858C37.793 22.6055 34.5663 19.3788 30.5859 19.3788C26.6056 19.3788 23.3789 22.6055 23.3789 26.5858C23.3789 30.5661 26.6056 33.7928 30.5859 33.7928Z" fill="#F0F7FF"/>
<path d="M37.793 26.5858C37.793 22.6117 34.5601 19.3788 30.5859 19.3788V33.7928C34.5601 33.7928 37.793 30.5601 37.793 26.5858Z" fill="#DFE7F4"/>
<path d="M30.5859 33.7928C23.963 33.7928 18.5742 39.1816 18.5742 45.8046C18.5742 47.1324 19.6487 48.2069 20.9766 48.2069H30.5859H40.1953C41.5232 48.2069 42.5977 47.1324 42.5977 45.8046C42.5977 39.1818 37.2089 33.7928 30.5859 33.7928Z" fill="#F0F7FF"/>
<path d="M42.5977 45.8046C42.5977 39.1816 37.2089 33.7928 30.5859 33.7928V48.2069H40.1953C41.5232 48.2069 42.5977 47.1324 42.5977 45.8046Z" fill="#DFE7F4"/>
</g>
<defs>
<filter id="filter0_d_30_105" x="0" y="0" width="90" height="90" filterUnits="userSpaceOnUse" color-interpolation-filters="sRGB">
<feFlood flood-opacity="0" result="BackgroundImageFix"/>
<feColorMatrix in="SourceAlpha" type="matrix" values="0 0 0 0 0 0 0 0 0 0 0 0 0 0 0 0 0 0 127 0" result="hardAlpha"/>
<feOffset dy="4"/>
<feGaussianBlur stdDeviation="2"/>
<feComposite in2="hardAlpha" operator="out"/>
<feColorMatrix type="matrix" values="0 0 0 0 0 0 0 0 0 0 0 0 0 0 0 0 0 0 0.25 0"/>
<feBlend mode="normal" in2="BackgroundImageFix" result="effect1_dropShadow_30_105"/>
<feBlend mode="normal" in="SourceGraphic" in2="effect1_dropShadow_30_105" result="shape"/>
</filter>
</defs>
</svg>
