<svg width="82" height="82" viewBox="0 0 82 82" fill="none" xmlns="http://www.w3.org/2000/svg">
<path d="M60.2188 4.96472H26.5859H21.7812C9.85874 4.96472 0 14.6633 0 26.5858V40.9999C0 52.1107 8.58245 61.2885 19.3789 62.4873V74.6327C19.3789 75.6039 19.963 76.4814 20.8616 76.852C21.7478 77.2218 22.7872 77.0238 23.4799 76.3312L26.5859 73.2251L37.19 62.621H60.2188C72.1413 62.621 82 52.9224 82 40.9999V26.5858C82 14.6633 72.1413 4.96472 60.2188 4.96472Z" fill="#8997FF"/>
<path d="M60.2188 62.621C72.1413 62.621 82 52.9224 82 40.9999V26.5858C82 14.6633 72.1413 4.96472 60.2188 4.96472H26.5859V73.2251L37.19 62.621H60.2188Z" fill="#6678FF"/>
<path d="M34.5 21.25H19.5C17.843 21.252 16.2544 21.9111 15.0828 23.0828C13.9111 24.2544 13.252 25.843 13.25 27.5V37.5C13.2518 38.9403 13.7501 40.3359 14.6609 41.4516C15.5717 42.5673 16.8393 43.3349 18.25 43.625V47.5C18.25 47.7263 18.3114 47.9484 18.4277 48.1425C18.5439 48.3367 18.7108 48.4956 18.9103 48.6024C19.1098 48.7091 19.3346 48.7597 19.5606 48.7487C19.7867 48.7377 20.0055 48.6656 20.1938 48.54L27.375 43.75H34.5C36.157 43.748 37.7456 43.0889 38.9172 41.9172C40.0889 40.7456 40.748 39.157 40.75 37.5V27.5C40.748 25.843 40.0889 24.2544 38.9172 23.0828C37.7456 21.9111 36.157 21.252 34.5 21.25ZM32 36.25H22C21.6685 36.25 21.3505 36.1183 21.1161 35.8839C20.8817 35.6495 20.75 35.3315 20.75 35C20.75 34.6685 20.8817 34.3505 21.1161 34.1161C21.3505 33.8817 21.6685 33.75 22 33.75H32C32.3315 33.75 32.6495 33.8817 32.8839 34.1161C33.1183 34.3505 33.25 34.6685 33.25 35C33.25 35.3315 33.1183 35.6495 32.8839 35.8839C32.6495 36.1183 32.3315 36.25 32 36.25ZM34.5 31.25H19.5C19.1685 31.25 18.8505 31.1183 18.6161 30.8839C18.3817 30.6495 18.25 30.3315 18.25 30C18.25 29.6685 18.3817 29.3505 18.6161 29.1161C18.8505 28.8817 19.1685 28.75 19.5 28.75H34.5C34.8315 28.75 35.1495 28.8817 35.3839 29.1161C35.6183 29.3505 35.75 29.6685 35.75 30C35.75 30.3315 35.6183 30.6495 35.3839 30.8839C35.1495 31.1183 34.8315 31.25 34.5 31.25Z" fill="#F0F7FF"/>
<path d="M65.0235 38.5975H62.6211V26.5858C62.6211 25.6146 62.037 24.7371 61.1384 24.3665C60.2422 23.9888 59.2053 24.1999 58.5202 24.8873L53.7155 29.692C52.7771 30.6304 52.7771 32.1507 53.7155 33.0891C54.6538 34.0274 56.1742 34.0274 57.1126 33.0891L57.8164 32.3852V38.5975H55.4141C54.0862 38.5975 53.0118 39.672 53.0118 40.9998C53.0118 42.3277 54.0862 43.4022 55.4141 43.4022H65.0235C66.3513 43.4022 67.4258 42.3277 67.4258 40.9998C67.4258 39.672 66.3513 38.5975 65.0235 38.5975Z" fill="#DFE7F4"/>
</svg>
