<svg width="82" height="82" viewBox="0 0 82 82" fill="none" xmlns="http://www.w3.org/2000/svg">
<path d="M60.2188 4.96472H26.5859H21.7812C9.85874 4.96472 0 14.6633 0 26.5858V40.9999C0 52.1107 8.58245 61.2885 19.3789 62.4872V74.6327C19.3789 75.6039 19.963 76.4814 20.8616 76.852C21.7478 77.2218 22.7872 77.0235 23.4799 76.3312L26.5859 73.2251L37.19 62.621H60.2188C72.1413 62.621 82 52.9224 82 40.9999V26.5858C82 14.6633 72.1413 4.96472 60.2188 4.96472Z" fill="#8CE2FF"/>
<path d="M60.2188 62.621C72.1413 62.621 82 52.9224 82 40.9999V26.5858C82 14.6633 72.1413 4.96472 60.2188 4.96472H26.5859V73.2251L37.19 62.621H60.2188Z" fill="#65D8FE"/>
<g clip-path="url(#clip0_31_123)">
<path d="M26 33.1211C25.5151 33.1211 25.1211 33.5151 25.1211 34C25.1211 34.4849 25.5151 34.8789 26 34.8789C26.4849 34.8789 26.8789 34.4849 26.8789 34C26.8789 33.5151 26.485 33.1211 26 33.1211Z" fill="#F0F7FF"/>
<path d="M26 29.6055C23.577 29.6055 21.6055 31.577 21.6055 34C21.6055 36.423 23.577 38.3945 26 38.3945C28.423 38.3945 30.3945 36.423 30.3945 34C30.3946 31.577 28.4231 29.6055 26 29.6055ZM26 36.6367C24.5461 36.6367 23.3633 35.4539 23.3633 34C23.3633 32.5461 24.5461 31.3633 26 31.3633C27.4539 31.3633 28.6367 32.5461 28.6367 34C28.6368 35.4539 27.454 36.6367 26 36.6367Z" fill="#F0F7FF"/>
<path d="M40.8353 33.4884C40.5674 33.1142 34.1247 24.332 26 24.332C17.8752 24.332 11.4326 33.1142 11.1648 33.4885C10.9451 33.794 10.9451 34.206 11.1648 34.5116C11.4326 34.8858 17.8753 43.668 26 43.668C34.1246 43.668 40.5674 34.8858 40.8352 34.5115C41.055 34.206 41.055 33.794 40.8353 33.4884ZM26 40.1523C22.6079 40.1523 19.8476 37.3921 19.8476 34C19.8476 30.6079 22.6079 27.8477 26 27.8477C29.392 27.8477 32.1523 30.6079 32.1523 34C32.1523 37.3921 29.3921 40.1523 26 40.1523Z" fill="#F0F7FF"/>
</g>
<path d="M65.0235 38.5975H62.6211V26.5858C62.6211 25.6146 62.037 24.7371 61.1384 24.3665C60.2375 23.9911 59.2053 24.1975 58.5202 24.8873L53.7155 29.692C52.7771 30.6304 52.7771 32.1507 53.7155 33.0891C54.6538 34.0275 56.1742 34.0275 57.1126 33.0891L57.8164 32.3852V38.5975H55.4141C54.0862 38.5975 53.0118 39.672 53.0118 40.9999C53.0118 42.3277 54.0862 43.4022 55.4141 43.4022H65.0235C66.3513 43.4022 67.4258 42.3277 67.4258 40.9999C67.4258 39.672 66.3513 38.5975 65.0235 38.5975Z" fill="#DFE7F4"/>
<defs>
<clipPath id="clip0_31_123">
<rect width="30" height="30" fill="white" transform="translate(11 19)"/>
</clipPath>
</defs>
</svg>
