<svg width="25" height="21" viewBox="0 0 25 21" fill="none" xmlns="http://www.w3.org/2000/svg">
<path d="M23.1242 1.91225C22.5292 1.33242 21.8223 0.872383 21.0441 0.558498C20.2658 0.244613 19.4315 0.0830433 18.5889 0.0830433C17.7463 0.0830433 16.912 0.244613 16.1338 0.558498C15.3555 0.872383 14.6486 1.33242 14.0536 1.91225L12.5439 3.3772L11.0317 1.91225C10.4411 1.31526 9.73406 0.838701 8.95179 0.51042C8.16951 0.182138 7.32776 0.00872681 6.47574 0.000320986C5.62371 -0.00808484 4.7785 0.148683 3.98953 0.461463C3.20057 0.774243 2.48366 1.23676 1.88075 1.82197C1.27783 2.40717 0.800983 3.10334 0.4781 3.86975C0.155216 4.63616 -0.00723603 5.45744 0.000247252 6.28559C0.00773053 7.11373 0.185007 7.93212 0.521691 8.6929C0.858375 9.45368 1.34772 10.1416 1.96112 10.7164L3.47578 12.191L12.5439 21L21.6096 12.191L23.1242 10.7164C24.3253 9.54884 25 7.96539 25 6.31433C25 4.66327 24.3253 3.07982 23.1242 1.91225Z" fill="white"/>
</svg>
