<svg width="22" height="22" viewBox="0 0 22 22" fill="none" xmlns="http://www.w3.org/2000/svg">
<path d="M20.0664 9.06641H12.9336V1.93359C12.9336 0.865691 12.0679 0 11 0C9.9321 0 9.06641 0.865691 9.06641 1.93359V9.06641H1.93359C0.865691 9.06641 0 9.9321 0 11C0 12.0679 0.865691 12.9336 1.93359 12.9336H9.06641V20.0664C9.06641 21.1343 9.9321 22 11 22C12.0679 22 12.9336 21.1343 12.9336 20.0664V12.9336H20.0664C21.1343 12.9336 22 12.0679 22 11C22 9.9321 21.1343 9.06641 20.0664 9.06641Z" fill="#5CBE72"/>
</svg>
