<svg width="24" height="24" viewBox="0 0 24 24" fill="none" xmlns="http://www.w3.org/2000/svg">
<path d="M16.575 8.27472L14.6964 8.20581L14.2891 19.3285L16.1677 19.3971L16.575 8.27472Z" fill="#CCCCCC"/>
<path d="M12.9424 8.24023H11.0625V19.363H12.9424V8.24023Z" fill="#CCCCCC"/>
<path d="M9.71173 19.3282L9.30444 8.20544L7.42578 8.2744L7.83312 19.3971L9.71173 19.3282Z" fill="#CCCCCC"/>
<path d="M0.816406 3.60315V5.48302H2.77527L4.32927 23.1425C4.37188 23.6278 4.77828 24 5.26545 24H18.7064C19.1936 24 19.6003 23.6275 19.6426 23.1421L21.1966 5.48302H23.1871V3.60315H0.816406ZM17.8454 22.1201H6.12617L4.66236 5.48302H19.3096L17.8454 22.1201Z" fill="#CCCCCC"/>
<path d="M15.0708 0H8.92984C8.06603 0 7.36328 0.70275 7.36328 1.56656V4.54308H9.24316V1.87987H14.7575V4.54308H16.6374V1.56656C16.6374 0.70275 15.9347 0 15.0708 0Z" fill="#CCCCCC"/>
</svg>
