<svg width="16" height="16" viewBox="0 0 16 16" fill="none" xmlns="http://www.w3.org/2000/svg">
<path d="M0 6.65848C0 10.3309 2.98771 13.3153 6.65684 13.3153C8.34726 13.3153 9.89353 12.6798 11.0696 11.638L15.312 15.8804C15.3907 15.9591 15.4922 15.9984 15.5971 15.9984C15.7019 15.9984 15.8034 15.9591 15.8821 15.8804C16.0393 15.7232 16.0393 15.4709 15.8821 15.3137L11.6364 11.0713C12.6781 9.89517 13.3137 8.35217 13.3137 6.65848C13.3137 2.98608 10.326 0.00163651 6.65684 0.00163651C2.98771 0.00163651 0 2.98608 0 6.65848ZM12.5111 6.65848C12.5111 9.88535 9.8837 12.5127 6.65684 12.5127C3.42998 12.5127 0.802621 9.88535 0.802621 6.65848C0.802621 3.43161 3.42998 0.804258 6.65684 0.804258C9.8837 0.804258 12.5111 3.42834 12.5111 6.65848Z" fill="white"/>
</svg>
