<svg width="40" height="40" viewBox="0 0 40 40" fill="none" xmlns="http://www.w3.org/2000/svg">
<g clip-path="url(#clip0_35_466)">
<path d="M39.9649 15.4497C39.8804 15.1905 39.6563 15.0015 39.3864 14.9621L26.4342 13.0798L20.6418 1.34337C20.5216 1.0985 20.2724 0.943848 20.0003 0.943848C19.7283 0.943848 19.4784 1.0985 19.3588 1.34337L13.5658 13.0805L0.613566 14.9629C0.343639 15.0022 0.120251 15.1905 0.0350489 15.4504C-0.0487215 15.7089 0.0207292 15.9939 0.216193 16.1836L9.58917 25.3196L7.37606 38.2202C7.33023 38.4887 7.4405 38.7601 7.6603 38.9205C7.88154 39.0823 8.17438 39.1031 8.41424 38.9749L20.0003 32.8847L31.585 38.9749C31.6895 39.03 31.8048 39.0572 31.9186 39.0572C32.0668 39.0572 32.2143 39.0114 32.3396 38.9205C32.5602 38.7601 32.6704 38.4887 32.6239 38.2202L30.4115 25.3203L39.7845 16.1836C39.9792 15.9924 40.0494 15.7082 39.9649 15.4497Z" fill="#f9ecf8"/>
</g>
<defs>
<clipPath id="clip0_35_466">
<rect width="40" height="40" fill="white"/>
</clipPath>
</defs>
</svg>
