<svg width="117" height="117" viewBox="0 0 117 117" fill="none" xmlns="http://www.w3.org/2000/svg">
<path d="M104.171 106.039C86.2679 120.654 30.3666 120.654 12.8288 106.039C-5.07424 91.4241 -3.24742 28.9461 12.8288 12.5045C28.9051 -3.93705 88.0947 -3.93705 104.171 12.5045C120.247 28.9461 122.074 91.4243 104.171 106.039Z" fill="url(#paint0_linear_184_556)"/>
<g opacity="0.2">
<path opacity="0.5" d="M58.8655 80.4631C42.7892 93.2511 24.8861 99.8277 8.07924 100.193C-4.34339 79.0016 -1.7857 27.4848 12.8291 12.5048C25.9823 -1.01381 67.2689 -3.5715 91.018 4.83194C96.8637 28.9463 84.8067 59.6371 58.8655 80.4631Z" fill="white"/>
</g>
<path d="M50.0963 91.0588C47.5386 91.0588 44.9812 89.9626 43.5197 87.7705L23.0592 61.464C20.1362 57.8104 20.8671 52.6952 24.5207 49.7722C28.1743 46.8492 33.2895 47.5801 36.2125 51.2337L50.0963 69.1368L80.7874 29.3117C83.7104 25.6581 88.8255 24.9272 92.4791 27.8502C96.1327 30.7732 96.8636 35.8883 93.9406 39.542L56.673 87.7705C54.8462 89.5973 52.654 91.0588 50.0963 91.0588Z" fill="white"/>
<defs>
<linearGradient id="paint0_linear_184_556" x1="1.10608" y1="43.0516" x2="73.6834" y2="46.811" gradientUnits="userSpaceOnUse">
<stop stop-color="#5FB572"/>
<stop offset="1" stop-color="#4BE96E"/>
</linearGradient>
</defs>
</svg>
