<svg width="74" height="74" viewBox="0 0 74 74" fill="none" xmlns="http://www.w3.org/2000/svg">
<path d="M36.9987 18.5C48.6845 18.5 59.1062 25.0675 64.1937 35.4583C59.1062 45.8491 48.6845 52.4166 36.9987 52.4166C25.3129 52.4166 14.8912 45.8491 9.8037 35.4583C14.8912 25.0675 25.3129 18.5 36.9987 18.5ZM36.9987 12.3333C21.582 12.3333 8.4162 21.9225 3.08203 35.4583C8.4162 48.9941 21.582 58.5833 36.9987 58.5833C52.4154 58.5833 65.5812 48.9941 70.9154 35.4583C65.5812 21.9225 52.4154 12.3333 36.9987 12.3333ZM36.9987 27.75C41.2537 27.75 44.707 31.2033 44.707 35.4583C44.707 39.7133 41.2537 43.1666 36.9987 43.1666C32.7437 43.1666 29.2904 39.7133 29.2904 35.4583C29.2904 31.2033 32.7437 27.75 36.9987 27.75ZM36.9987 21.5833C29.352 21.5833 23.1237 27.8116 23.1237 35.4583C23.1237 43.105 29.352 49.3333 36.9987 49.3333C44.6454 49.3333 50.8737 43.105 50.8737 35.4583C50.8737 27.8116 44.6454 21.5833 36.9987 21.5833Z" fill="white"/>
</svg>
