<svg width="224" height="172" viewBox="0 0 224 172" fill="none" xmlns="http://www.w3.org/2000/svg">
<rect y="10" width="223.932" height="160.803" rx="15" fill="#F4F9F5"/>
<g opacity="0.53">
<path opacity="0.53" d="M17.2014 61.4886H35.7259V64.8256H17.2014C17.1568 64.8256 17.114 64.8078 17.0825 64.7761C17.0509 64.7444 17.0332 64.7014 17.0332 64.6566V61.6585C17.0331 61.6362 17.0374 61.6141 17.0458 61.5935C17.0542 61.5729 17.0665 61.5542 17.0822 61.5384C17.0978 61.5226 17.1164 61.5101 17.1368 61.5016C17.1573 61.493 17.1792 61.4886 17.2014 61.4886Z" fill="#DAEBFF"/>
<path opacity="0.53" d="M35.7153 61.8759H17.1646C17.092 61.8759 17.0332 61.9351 17.0332 62.008V64.3054C17.0332 64.3784 17.092 64.4375 17.1646 64.4375H35.7153C35.7879 64.4375 35.8467 64.3784 35.8467 64.3054V62.008C35.8467 61.9351 35.7879 61.8759 35.7153 61.8759Z" fill="#DAEBFF"/>
<path opacity="0.53" d="M29.902 61.4886H17.1581C17.0891 61.4886 17.0332 61.5448 17.0332 61.6142V64.6993C17.0332 64.7686 17.0891 64.8248 17.1581 64.8248H29.902C29.971 64.8248 30.0269 64.7686 30.0269 64.6993V61.6142C30.0269 61.5448 29.971 61.4886 29.902 61.4886Z" fill="#DAEBFF"/>
<path opacity="0.53" d="M18.2233 58.1524H36.7446V61.4886H18.2233C18.1787 61.4886 18.136 61.4708 18.1044 61.4391C18.0729 61.4074 18.0552 61.3644 18.0552 61.3196V58.3214C18.0552 58.2766 18.0729 58.2336 18.1044 58.2019C18.136 58.1702 18.1787 58.1524 18.2233 58.1524Z" fill="#DAEBFF"/>
<path opacity="0.53" d="M36.7373 58.5397H18.1866C18.114 58.5397 18.0552 58.5988 18.0552 58.6718V60.9692C18.0552 61.0422 18.114 61.1013 18.1866 61.1013H36.7373C36.8098 61.1013 36.8687 61.0422 36.8687 60.9692V58.6718C36.8687 58.5988 36.8098 58.5397 36.7373 58.5397Z" fill="#DAEBFF"/>
<path opacity="0.53" d="M30.924 58.1524H18.1801C18.1111 58.1524 18.0552 58.2086 18.0552 58.2779V61.3631C18.0552 61.4324 18.1111 61.4886 18.1801 61.4886H30.924C30.993 61.4886 31.0489 61.4324 31.0489 61.3631V58.2779C31.0489 58.2086 30.993 58.1524 30.924 58.1524Z" fill="#DAEBFF"/>
<path opacity="0.53" d="M17.4494 54.8154H35.974V58.1516H17.4494C17.4048 58.1516 17.362 58.1338 17.3305 58.1021C17.299 58.0704 17.2813 58.0274 17.2813 57.9825V54.9852C17.2811 54.9629 17.2854 54.9409 17.2938 54.9203C17.3022 54.8997 17.3146 54.8809 17.3302 54.8652C17.3458 54.8494 17.3644 54.8369 17.3849 54.8283C17.4053 54.8198 17.4272 54.8154 17.4494 54.8154Z" fill="#DAEBFF"/>
<path opacity="0.53" d="M35.9633 55.2035H17.4127C17.3401 55.2035 17.2812 55.2626 17.2812 55.3356V57.633C17.2812 57.706 17.3401 57.7651 17.4127 57.7651H35.9633C36.0359 57.7651 36.0947 57.706 36.0947 57.633V55.3356C36.0947 55.2626 36.0359 55.2035 35.9633 55.2035Z" fill="#DAEBFF"/>
<path opacity="0.53" d="M30.1501 54.8162H17.4061C17.3372 54.8162 17.2812 54.8724 17.2812 54.9418V58.0268C17.2812 58.0962 17.3372 58.1524 17.4061 58.1524H30.1501C30.219 58.1524 30.275 58.0962 30.275 58.0268V54.9418C30.275 54.8724 30.219 54.8162 30.1501 54.8162Z" fill="#DAEBFF"/>
<g opacity="0.51">
<path opacity="0.51" d="M20.7888 51.4792H39.3133V54.8154H20.7888C20.7442 54.8154 20.7014 54.7976 20.6699 54.7659C20.6383 54.7342 20.6206 54.6912 20.6206 54.6464V51.649C20.6205 51.6268 20.6248 51.6047 20.6332 51.5841C20.6416 51.5635 20.6539 51.5448 20.6696 51.529C20.6852 51.5132 20.7038 51.5007 20.7242 51.4921C20.7447 51.4836 20.7666 51.4792 20.7888 51.4792Z" fill="#DAEBFF"/>
<path opacity="0.51" d="M39.3017 51.8673H20.7511C20.6785 51.8673 20.6196 51.9265 20.6196 51.9994V54.2968C20.6196 54.3698 20.6785 54.4289 20.7511 54.4289H39.3017C39.3743 54.4289 39.4331 54.3698 39.4331 54.2968V51.9994C39.4331 51.9265 39.3743 51.8673 39.3017 51.8673Z" fill="#DAEBFF"/>
<path opacity="0.51" d="M33.4884 51.4792H20.7445C20.6755 51.4792 20.6196 51.5354 20.6196 51.6047V54.6899C20.6196 54.7592 20.6755 54.8154 20.7445 54.8154H33.4884C33.5573 54.8154 33.6133 54.7592 33.6133 54.6899V51.6047C33.6133 51.5354 33.5573 51.4792 33.4884 51.4792Z" fill="#DAEBFF"/>
</g>
<path opacity="0.53" d="M51.5104 87.1969H70.0349V90.5331H51.5104C51.4658 90.5331 51.4231 90.5153 51.3915 90.4836C51.36 90.4519 51.3423 90.4089 51.3423 90.3641V87.366C51.3423 87.3211 51.36 87.2781 51.3915 87.2464C51.4231 87.2147 51.4658 87.1969 51.5104 87.1969Z" fill="#DAEBFF"/>
<path opacity="0.53" d="M70.0244 87.5842H51.4737C51.4011 87.5842 51.3423 87.6433 51.3423 87.7163V90.0137C51.3423 90.0867 51.4011 90.1458 51.4737 90.1458H70.0244C70.097 90.1458 70.1558 90.0867 70.1558 90.0137V87.7163C70.1558 87.6433 70.097 87.5842 70.0244 87.5842Z" fill="#DAEBFF"/>
<path opacity="0.53" d="M64.2111 87.1969H51.4672C51.3982 87.1969 51.3423 87.2531 51.3423 87.3225V90.4076C51.3423 90.4769 51.3982 90.5331 51.4672 90.5331H64.2111C64.2801 90.5331 64.336 90.4769 64.336 90.4076V87.3225C64.336 87.2531 64.2801 87.1969 64.2111 87.1969Z" fill="#DAEBFF"/>
<path opacity="0.53" d="M34.7336 139.294H53.2581V142.63H34.7336C34.689 142.63 34.6462 142.612 34.6147 142.58C34.5831 142.549 34.5654 142.506 34.5654 142.461V139.463C34.5654 139.418 34.5831 139.375 34.6147 139.343C34.6462 139.312 34.689 139.294 34.7336 139.294Z" fill="#DAEBFF"/>
<path opacity="0.53" d="M53.2475 139.681H34.6968C34.6243 139.681 34.5654 139.74 34.5654 139.813V142.111C34.5654 142.184 34.6243 142.243 34.6968 142.243H53.2475C53.3201 142.243 53.3789 142.184 53.3789 142.111V139.813C53.3789 139.74 53.3201 139.681 53.2475 139.681Z" fill="#DAEBFF"/>
<path opacity="0.53" d="M47.4343 139.294H34.6903C34.6213 139.294 34.5654 139.35 34.5654 139.419V142.504C34.5654 142.574 34.6213 142.63 34.6903 142.63H47.4343C47.5032 142.63 47.5591 142.574 47.5591 142.504V139.419C47.5591 139.35 47.5032 139.294 47.4343 139.294Z" fill="#DAEBFF"/>
<path opacity="0.53" d="M31.7028 136.039H50.2274V139.375H31.7028C31.6582 139.375 31.6155 139.357 31.5839 139.326C31.5524 139.294 31.5347 139.251 31.5347 139.206V136.21C31.5344 136.188 31.5385 136.166 31.5468 136.145C31.5551 136.124 31.5674 136.105 31.5831 136.089C31.5987 136.073 31.6173 136.061 31.6379 136.052C31.6585 136.043 31.6805 136.039 31.7028 136.039Z" fill="#DAEBFF"/>
<path opacity="0.53" d="M50.2158 136.426H31.6651C31.5925 136.426 31.5337 136.485 31.5337 136.558V138.856C31.5337 138.928 31.5925 138.988 31.6651 138.988H50.2158C50.2884 138.988 50.3472 138.928 50.3472 138.856V136.558C50.3472 136.485 50.2884 136.426 50.2158 136.426Z" fill="#DAEBFF"/>
<path opacity="0.53" d="M44.4024 136.039H31.6586C31.5896 136.039 31.5337 136.095 31.5337 136.164V139.249C31.5337 139.319 31.5896 139.375 31.6586 139.375H44.4024C44.4714 139.375 44.5273 139.319 44.5273 139.249V136.164C44.5273 136.095 44.4714 136.039 44.4024 136.039Z" fill="#DAEBFF"/>
<path opacity="0.53" d="M30.2966 132.759H48.8211V136.095H30.2966C30.252 136.095 30.2092 136.078 30.1777 136.046C30.1461 136.014 30.1284 135.971 30.1284 135.926V132.928C30.1284 132.883 30.1461 132.84 30.1777 132.809C30.2092 132.777 30.252 132.759 30.2966 132.759Z" fill="#DAEBFF"/>
<path opacity="0.53" d="M48.8105 133.147H30.2598C30.1873 133.147 30.1284 133.206 30.1284 133.279V135.576C30.1284 135.649 30.1873 135.708 30.2598 135.708H48.8105C48.8831 135.708 48.9419 135.649 48.9419 135.576V133.279C48.9419 133.206 48.8831 133.147 48.8105 133.147Z" fill="#DAEBFF"/>
<path opacity="0.53" d="M42.9973 132.759H30.2533C30.1843 132.759 30.1284 132.815 30.1284 132.885V135.97C30.1284 136.039 30.1843 136.095 30.2533 136.095H42.9973C43.0662 136.095 43.1221 136.039 43.1221 135.97V132.885C43.1221 132.815 43.0662 132.759 42.9973 132.759Z" fill="#DAEBFF"/>
<g opacity="0.51">
<path opacity="0.51" d="M34.1369 129.422H52.6614V132.758H34.1369C34.0923 132.758 34.0495 132.74 34.018 132.709C33.9865 132.677 33.9688 132.634 33.9688 132.589V129.591C33.9688 129.546 33.9865 129.503 34.018 129.472C34.0495 129.44 34.0923 129.422 34.1369 129.422Z" fill="#DAEBFF"/>
<path opacity="0.51" d="M52.6509 129.809H34.1002C34.0276 129.809 33.9688 129.869 33.9688 129.941V132.239C33.9688 132.312 34.0276 132.371 34.1002 132.371H52.6509C52.7235 132.371 52.7823 132.312 52.7823 132.239V129.941C52.7823 129.869 52.7235 129.809 52.6509 129.809Z" fill="#DAEBFF"/>
<path opacity="0.51" d="M46.8376 129.422H34.0936C34.0247 129.422 33.9688 129.478 33.9688 129.548V132.633C33.9688 132.702 34.0247 132.758 34.0936 132.758H46.8376C46.9066 132.758 46.9625 132.702 46.9625 132.633V129.548C46.9625 129.478 46.9066 129.422 46.8376 129.422Z" fill="#DAEBFF"/>
</g>
<path opacity="0.53" d="M52.5314 83.8615H71.056V87.1977H52.5314C52.4868 87.1977 52.4441 87.1799 52.4125 87.1482C52.381 87.1165 52.3633 87.0735 52.3633 87.0287V84.0256C52.3646 83.9817 52.3828 83.9399 52.4142 83.9093C52.4456 83.8787 52.4877 83.8615 52.5314 83.8615Z" fill="#DAEBFF"/>
<path opacity="0.53" d="M71.0454 84.248H52.4947C52.4221 84.248 52.3633 84.3071 52.3633 84.3801V86.6775C52.3633 86.7505 52.4221 86.8096 52.4947 86.8096H71.0454C71.1179 86.8096 71.1768 86.7505 71.1768 86.6775V84.3801C71.1768 84.3071 71.1179 84.248 71.0454 84.248Z" fill="#DAEBFF"/>
<path opacity="0.53" d="M65.2321 83.8599H52.4882C52.4192 83.8599 52.3633 83.9161 52.3633 83.9854V87.0706C52.3633 87.1399 52.4192 87.1961 52.4882 87.1961H65.2321C65.3011 87.1961 65.357 87.1399 65.357 87.0706V83.9854C65.357 83.9161 65.3011 83.8599 65.2321 83.8599Z" fill="#DAEBFF"/>
<g opacity="0.54">
<path opacity="0.54" d="M51.7585 80.5237H70.283V83.8615H51.7585C51.7139 83.8615 51.6711 83.8437 51.6396 83.812C51.6081 83.7803 51.5903 83.7373 51.5903 83.6925V80.6944C51.5901 80.672 51.5943 80.6499 51.6027 80.6292C51.611 80.6085 51.6234 80.5896 51.639 80.5738C51.6546 80.5579 51.6732 80.5453 51.6938 80.5367C51.7143 80.5281 51.7363 80.5237 51.7585 80.5237Z" fill="#DAEBFF"/>
<path opacity="0.54" d="M70.2724 80.911H51.7217C51.6492 80.911 51.5903 80.9701 51.5903 81.0431V83.3405C51.5903 83.4135 51.6492 83.4726 51.7217 83.4726H70.2724C70.345 83.4726 70.4038 83.4135 70.4038 83.3405V81.0431C70.4038 80.9701 70.345 80.911 70.2724 80.911Z" fill="#DAEBFF"/>
<path opacity="0.54" d="M64.4592 80.5237H51.7152C51.6462 80.5237 51.5903 80.5799 51.5903 80.6492V83.7344C51.5903 83.8037 51.6462 83.8599 51.7152 83.8599H64.4592C64.5281 83.8599 64.584 83.8037 64.584 83.7344V80.6492C64.584 80.5799 64.5281 80.5237 64.4592 80.5237Z" fill="#DAEBFF"/>
</g>
<path opacity="0.53" d="M25.3263 113.646H43.8509V116.982H25.3263C25.2817 116.982 25.239 116.964 25.2074 116.933C25.1759 116.901 25.1582 116.858 25.1582 116.813V113.815C25.1582 113.77 25.1759 113.727 25.2074 113.696C25.239 113.664 25.2817 113.646 25.3263 113.646Z" fill="#DAEBFF"/>
<path opacity="0.53" d="M43.8403 114.033H25.2896C25.217 114.033 25.1582 114.093 25.1582 114.165V116.463C25.1582 116.536 25.217 116.595 25.2896 116.595H43.8403C43.9129 116.595 43.9717 116.536 43.9717 116.463V114.165C43.9717 114.093 43.9129 114.033 43.8403 114.033Z" fill="#DAEBFF"/>
<path opacity="0.53" d="M38.0271 113.646H25.2831C25.2141 113.646 25.1582 113.702 25.1582 113.772V116.857C25.1582 116.926 25.2141 116.982 25.2831 116.982H38.0271C38.0961 116.982 38.152 116.926 38.152 116.857V113.772C38.152 113.702 38.0961 113.646 38.0271 113.646Z" fill="#DAEBFF"/>
<path opacity="0.53" d="M26.3483 110.31H44.873V113.646H26.3483C26.3037 113.646 26.261 113.628 26.2294 113.597C26.1979 113.565 26.1802 113.522 26.1802 113.477V110.479C26.1802 110.457 26.1845 110.435 26.193 110.414C26.2014 110.394 26.2138 110.375 26.2294 110.359C26.245 110.344 26.2636 110.331 26.284 110.323C26.3044 110.314 26.3262 110.31 26.3483 110.31Z" fill="#DAEBFF"/>
<path opacity="0.53" d="M44.8623 110.697H26.3116C26.239 110.697 26.1802 110.756 26.1802 110.829V113.127C26.1802 113.2 26.239 113.259 26.3116 113.259H44.8623C44.9348 113.259 44.9937 113.2 44.9937 113.127V110.829C44.9937 110.756 44.9348 110.697 44.8623 110.697Z" fill="#DAEBFF"/>
<path opacity="0.53" d="M39.049 110.31H26.3051C26.2361 110.31 26.1802 110.366 26.1802 110.435V113.521C26.1802 113.59 26.2361 113.646 26.3051 113.646H39.049C39.118 113.646 39.1739 113.59 39.1739 113.521V110.435C39.1739 110.366 39.118 110.31 39.049 110.31Z" fill="#DAEBFF"/>
<g opacity="0.51">
<path opacity="0.51" d="M22.4162 106.974H40.9407V110.31H22.4162C22.3716 110.31 22.3288 110.292 22.2973 110.26C22.2658 110.229 22.248 110.186 22.248 110.141V107.143C22.248 107.098 22.2658 107.055 22.2973 107.023C22.3288 106.992 22.3716 106.974 22.4162 106.974Z" fill="#DAEBFF"/>
<path opacity="0.51" d="M40.9301 107.361H22.3795C22.3069 107.361 22.248 107.42 22.248 107.493V109.791C22.248 109.864 22.3069 109.923 22.3795 109.923H40.9301C41.0027 109.923 41.0615 109.864 41.0615 109.791V107.493C41.0615 107.42 41.0027 107.361 40.9301 107.361Z" fill="#DAEBFF"/>
<path opacity="0.51" d="M35.1169 106.974H22.3729C22.304 106.974 22.248 107.03 22.248 107.099V110.184C22.248 110.254 22.304 110.31 22.3729 110.31H35.1169C35.1858 110.31 35.2418 110.254 35.2418 110.184V107.099C35.2418 107.03 35.1858 106.974 35.1169 106.974Z" fill="#DAEBFF"/>
</g>
<g opacity="0.54">
<path opacity="0.54" d="M30.0744 83.8615H48.5989V87.1977H30.0744C30.0298 87.1977 29.987 87.1799 29.9555 87.1482C29.924 87.1165 29.9062 87.0735 29.9062 87.0287V84.0256C29.9075 83.9816 29.9258 83.9399 29.9572 83.9093C29.9886 83.8786 30.0306 83.8615 30.0744 83.8615Z" fill="#DAEBFF"/>
<path opacity="0.54" d="M48.5883 84.248H30.0377C29.9651 84.248 29.9062 84.3071 29.9062 84.3801V86.6775C29.9062 86.7505 29.9651 86.8096 30.0377 86.8096H48.5883C48.6609 86.8096 48.7197 86.7505 48.7197 86.6775V84.3801C48.7197 84.3071 48.6609 84.248 48.5883 84.248Z" fill="#DAEBFF"/>
<path opacity="0.54" d="M42.7751 83.8599H30.0311C29.9622 83.8599 29.9062 83.9161 29.9062 83.9854V87.0706C29.9062 87.1399 29.9622 87.1961 30.0311 87.1961H42.7751C42.844 87.1961 42.9 87.1399 42.9 87.0706V83.9854C42.9 83.9161 42.844 83.8599 42.7751 83.8599Z" fill="#DAEBFF"/>
</g>
<path opacity="0.53" d="M28.7453 87.1969H47.2739V90.5331H28.7453C28.7007 90.5331 28.6579 90.5153 28.6264 90.4836C28.5949 90.4519 28.5771 90.4089 28.5771 90.3641V87.366C28.5771 87.3211 28.5949 87.2781 28.6264 87.2464C28.6579 87.2147 28.7007 87.1969 28.7453 87.1969Z" fill="#DAEBFF"/>
<path opacity="0.53" d="M47.2612 87.5842H28.7105C28.6379 87.5842 28.5791 87.6433 28.5791 87.7163V90.0137C28.5791 90.0867 28.6379 90.1458 28.7105 90.1458H47.2612C47.3338 90.1458 47.3926 90.0867 47.3926 90.0137V87.7163C47.3926 87.6433 47.3338 87.5842 47.2612 87.5842Z" fill="#DAEBFF"/>
<path opacity="0.53" d="M41.4479 87.1969H28.704C28.635 87.1969 28.5791 87.2531 28.5791 87.3225V90.4076C28.5791 90.4769 28.635 90.5331 28.704 90.5331H41.4479C41.5169 90.5331 41.5728 90.4769 41.5728 90.4076V87.3225C41.5728 87.2531 41.5169 87.1969 41.4479 87.1969Z" fill="#DAEBFF"/>
<path opacity="0.53" d="M47.6135 110.782H63.4069V113.631H47.6135C47.5689 113.631 47.5261 113.613 47.4946 113.581C47.463 113.549 47.4453 113.506 47.4453 113.462V110.951C47.4453 110.929 47.4497 110.907 47.4581 110.886C47.4666 110.866 47.479 110.847 47.4946 110.831C47.5102 110.816 47.5287 110.803 47.5491 110.795C47.5695 110.786 47.5914 110.782 47.6135 110.782Z" fill="#DAEBFF"/>
<path opacity="0.53" d="M63.3783 111.112H47.5767C47.5041 111.112 47.4453 111.172 47.4453 111.245V113.168C47.4453 113.241 47.5041 113.3 47.5767 113.3H63.3783C63.4509 113.3 63.5097 113.241 63.5097 113.168V111.245C63.5097 111.172 63.4509 111.112 63.3783 111.112Z" fill="#DAEBFF"/>
<path opacity="0.53" d="M58.4156 110.782H47.5702C47.5012 110.782 47.4453 110.838 47.4453 110.907V113.505C47.4453 113.574 47.5012 113.631 47.5702 113.631H58.4156C58.4846 113.631 58.5405 113.574 58.5405 113.505V110.907C58.5405 110.838 58.4846 110.782 58.4156 110.782Z" fill="#DAEBFF"/>
<path opacity="0.53" d="M46.4802 113.631H62.2736V116.479H46.4802C46.4356 116.479 46.3928 116.462 46.3613 116.43C46.3297 116.398 46.312 116.355 46.312 116.31V113.8C46.312 113.755 46.3297 113.712 46.3613 113.68C46.3928 113.648 46.4356 113.631 46.4802 113.631Z" fill="#DAEBFF"/>
<path opacity="0.53" d="M62.245 113.961H46.4434C46.3708 113.961 46.312 114.02 46.312 114.093V116.017C46.312 116.09 46.3708 116.149 46.4434 116.149H62.245C62.3176 116.149 62.3764 116.09 62.3764 116.017V114.093C62.3764 114.02 62.3176 113.961 62.245 113.961Z" fill="#DAEBFF"/>
<path opacity="0.53" d="M57.2823 113.631H46.4369C46.3679 113.631 46.312 113.687 46.312 113.756V116.354C46.312 116.423 46.3679 116.479 46.4369 116.479H57.2823C57.3513 116.479 57.4072 116.423 57.4072 116.354V113.756C57.4072 113.687 57.3513 113.631 57.2823 113.631Z" fill="#DAEBFF"/>
<path opacity="0.53" d="M74.4526 64.5729V44.2841C74.4526 44.2578 74.4314 44.2365 74.4053 44.2365H71.1811C71.155 44.2365 71.1338 44.2578 71.1338 44.2841V64.5729C71.1338 64.5992 71.155 64.6205 71.1811 64.6205H74.4053C74.4314 64.6205 74.4526 64.5992 74.4526 64.5729Z" fill="#DAEBFF"/>
<path opacity="0.53" d="M73.606 55.5441V45.6593C73.606 45.633 73.5848 45.6117 73.5586 45.6117H72.0281C72.002 45.6117 71.9808 45.633 71.9808 45.6593V55.5441C71.9808 55.5703 72.002 55.5916 72.0281 55.5916H73.5586C73.5848 55.5916 73.606 55.5703 73.606 55.5441Z" fill="#DAEBFF"/>
<path opacity="0.53" d="M70.7646 64.5729V44.2841C70.7646 44.2578 70.7435 44.2365 70.7173 44.2365H67.4931C67.467 44.2365 67.4458 44.2578 67.4458 44.2841V64.5729C67.4458 64.5992 67.467 64.6205 67.4931 64.6205H70.7173C70.7435 64.6205 70.7646 64.5992 70.7646 64.5729Z" fill="#DAEBFF"/>
<path opacity="0.53" d="M69.9185 55.544V45.6593C69.9185 45.633 69.8973 45.6117 69.8711 45.6117H68.3406C68.3145 45.6117 68.2933 45.633 68.2933 45.6593V55.544C68.2933 55.5703 68.3145 55.5916 68.3406 55.5916H69.8711C69.8973 55.5916 69.9185 55.5703 69.9185 55.544Z" fill="#DAEBFF"/>
<g opacity="0.51">
<path opacity="0.51" d="M67.0771 64.5729V44.2841C67.0771 44.2578 67.056 44.2365 67.0298 44.2365H63.8056C63.7795 44.2365 63.7583 44.2578 63.7583 44.2841V64.5729C63.7583 64.5992 63.7795 64.6205 63.8056 64.6205H67.0298C67.056 64.6205 67.0771 64.5992 67.0771 64.5729Z" fill="#DAEBFF"/>
<path opacity="0.51" d="M66.231 55.5441V45.6593C66.231 45.633 66.2098 45.6117 66.1836 45.6117H64.6531C64.627 45.6117 64.6058 45.633 64.6058 45.6593V55.5441C64.6058 55.5703 64.627 55.5916 64.6531 55.5916H66.1836C66.2098 55.5916 66.231 55.5703 66.231 55.5441Z" fill="#DAEBFF"/>
</g>
<path opacity="0.53" d="M63.3892 49.7512V64.5737C63.3892 64.5863 63.3842 64.5984 63.3753 64.6073C63.3664 64.6163 63.3544 64.6213 63.3418 64.6213H61.0074C60.995 64.6213 60.9832 64.6164 60.9745 64.6076C60.9658 64.5988 60.9609 64.5869 60.9609 64.5745V49.7512C60.9609 49.7385 60.9658 49.7264 60.9747 49.7175C60.9836 49.7086 60.9956 49.7036 61.0082 49.7036H63.3418C63.3544 49.7036 63.3664 49.7086 63.3753 49.7175C63.3842 49.7264 63.3892 49.7385 63.3892 49.7512Z" fill="#DAEBFF"/>
<path opacity="0.53" d="M62.7686 57.9662V50.7579C62.7686 50.7316 62.7474 50.7103 62.7212 50.7103H61.6266C61.6005 50.7103 61.5793 50.7316 61.5793 50.7579V57.9662C61.5793 57.9924 61.6005 58.0138 61.6266 58.0138H62.7212C62.7474 58.0138 62.7686 57.9924 62.7686 57.9662Z" fill="#DAEBFF"/>
<path opacity="0.53" d="M74.2354 142.582V122.294C74.2354 122.267 74.2142 122.246 74.188 122.246H70.9639C70.9378 122.246 70.9166 122.267 70.9166 122.294V142.582C70.9166 142.609 70.9378 142.63 70.9639 142.63H74.188C74.2142 142.63 74.2354 142.609 74.2354 142.582Z" fill="#DAEBFF"/>
<path opacity="0.53" d="M73.3882 133.553V123.669C73.3882 123.642 73.367 123.621 73.3408 123.621H71.8104C71.7842 123.621 71.763 123.642 71.763 123.669V133.553C71.763 133.58 71.7842 133.601 71.8104 133.601H73.3408C73.367 133.601 73.3882 133.58 73.3882 133.553Z" fill="#DAEBFF"/>
<path opacity="0.53" d="M70.5474 142.582V127.761C70.5474 127.734 70.5262 127.713 70.5 127.713H68.1656C68.1394 127.713 68.1182 127.734 68.1182 127.761V142.582C68.1182 142.609 68.1394 142.63 68.1656 142.63H70.5C70.5262 142.63 70.5474 142.609 70.5474 142.582Z" fill="#DAEBFF"/>
<path opacity="0.53" d="M69.9282 135.976V128.767C69.9282 128.741 69.907 128.72 69.8809 128.72H68.7863C68.7602 128.72 68.739 128.741 68.739 128.767V135.976C68.739 136.002 68.7602 136.023 68.7863 136.023H69.8809C69.907 136.023 69.9282 136.002 69.9282 135.976Z" fill="#DAEBFF"/>
<path opacity="0.53" d="M67.6631 142.583V122.294C67.6631 122.268 67.6419 122.247 67.6157 122.247H64.3916C64.3654 122.247 64.3443 122.268 64.3443 122.294V142.583C64.3443 142.61 64.3654 142.631 64.3916 142.631H67.6157C67.6419 142.631 67.6631 142.61 67.6631 142.583Z" fill="#DAEBFF"/>
<path opacity="0.53" d="M66.8159 133.553V123.669C66.8159 123.642 66.7947 123.621 66.7686 123.621H65.2381C65.212 123.621 65.1908 123.642 65.1908 123.669V133.553C65.1908 133.58 65.212 133.601 65.2381 133.601H66.7686C66.7947 133.601 66.8159 133.58 66.8159 133.553Z" fill="#DAEBFF"/>
<path opacity="0.53" d="M63.9751 142.583V127.761C63.9751 127.735 63.9539 127.714 63.9277 127.714H61.5932C61.5671 127.714 61.5459 127.735 61.5459 127.761V142.583C61.5459 142.609 61.5671 142.631 61.5932 142.631H63.9277C63.9539 142.631 63.9751 142.609 63.9751 142.583Z" fill="#DAEBFF"/>
<path opacity="0.53" d="M63.3555 135.976V128.767C63.3555 128.741 63.3343 128.72 63.3081 128.72H62.2136C62.1875 128.72 62.1663 128.741 62.1663 128.767V135.976C62.1663 136.002 62.1875 136.023 62.2136 136.023H63.3081C63.3343 136.023 63.3555 136.002 63.3555 135.976Z" fill="#DAEBFF"/>
<path opacity="0.53" d="M61.0908 142.583V122.294C61.0908 122.268 61.0696 122.247 61.0435 122.247H57.8193C57.7932 122.247 57.772 122.268 57.772 122.294V142.583C57.772 142.61 57.7932 142.631 57.8193 142.631H61.0435C61.0696 142.631 61.0908 142.61 61.0908 142.583Z" fill="#DAEBFF"/>
<path opacity="0.53" d="M60.2432 133.553V123.669C60.2432 123.642 60.222 123.621 60.1958 123.621H58.6654C58.6392 123.621 58.618 123.642 58.618 123.669V133.553C58.618 133.58 58.6392 133.601 58.6654 133.601H60.1958C60.222 133.601 60.2432 133.58 60.2432 133.553Z" fill="#DAEBFF"/>
<path opacity="0.53" d="M57.4028 142.583V127.761C57.4028 127.735 57.3816 127.714 57.3555 127.714H55.021C54.9949 127.714 54.9737 127.735 54.9737 127.761V142.583C54.9737 142.609 54.9949 142.631 55.021 142.631H57.3555C57.3816 142.631 57.4028 142.609 57.4028 142.583Z" fill="#DAEBFF"/>
<path opacity="0.53" d="M56.7832 135.976V128.767C56.7832 128.741 56.762 128.72 56.7359 128.72H55.6413C55.6151 128.72 55.5939 128.741 55.5939 128.767V135.976C55.5939 136.002 55.6151 136.023 55.6413 136.023H56.7359C56.762 136.023 56.7832 136.002 56.7832 135.976Z" fill="#DAEBFF"/>
<g opacity="0.51">
<path opacity="0.51" d="M23.7783 142.582V122.294C23.7783 122.267 23.7571 122.246 23.731 122.246H20.5068C20.4807 122.246 20.4595 122.267 20.4595 122.294V142.582C20.4595 142.609 20.4807 142.63 20.5068 142.63H23.731C23.7571 142.63 23.7783 142.609 23.7783 142.582Z" fill="#DAEBFF"/>
<path opacity="0.51" d="M22.9321 133.554V123.67C22.9321 123.643 22.9109 123.622 22.8848 123.622H21.3543C21.3282 123.622 21.307 123.643 21.307 123.67V133.554C21.307 133.58 21.3282 133.602 21.3543 133.602H22.8848C22.9109 133.602 22.9321 133.58 22.9321 133.554Z" fill="#DAEBFF"/>
<path opacity="0.51" d="M20.0908 142.582V127.761C20.0908 127.734 20.0696 127.713 20.0435 127.713H17.7091C17.6829 127.713 17.6617 127.734 17.6617 127.761V142.582C17.6617 142.609 17.6829 142.63 17.7091 142.63H20.0435C20.0696 142.63 20.0908 142.609 20.0908 142.582Z" fill="#DAEBFF"/>
<path opacity="0.51" d="M19.4722 135.976V128.767C19.4722 128.741 19.451 128.72 19.4248 128.72H18.3303C18.3041 128.72 18.2829 128.741 18.2829 128.767V135.976C18.2829 136.002 18.3041 136.023 18.3303 136.023H19.4248C19.451 136.023 19.4722 136.002 19.4722 135.976Z" fill="#DAEBFF"/>
</g>
<path opacity="0.53" d="M60.6904 64.5729V49.7512C60.6904 49.7249 60.6692 49.7036 60.6431 49.7036H58.3086C58.2825 49.7036 58.2613 49.7249 58.2613 49.7512V64.5729C58.2613 64.5992 58.2825 64.6205 58.3086 64.6205H60.6431C60.6692 64.6205 60.6904 64.5992 60.6904 64.5729Z" fill="#DAEBFF"/>
<path opacity="0.53" d="M60.0703 57.9653V50.7571C60.0703 50.7308 60.0491 50.7095 60.023 50.7095H58.9284C58.9023 50.7095 58.8811 50.7308 58.8811 50.7571V57.9653C58.8811 57.9916 58.9023 58.0129 58.9284 58.0129H60.023C60.0491 58.0129 60.0703 57.9916 60.0703 57.9653Z" fill="#DAEBFF"/>
<path opacity="0.53" d="M74.4526 116.547V96.2586C74.4526 96.2324 74.4314 96.2111 74.4053 96.2111H71.1812C71.155 96.2111 71.1338 96.2324 71.1338 96.2586V116.547C71.1338 116.574 71.155 116.595 71.1812 116.595H74.4053C74.4314 116.595 74.4526 116.574 74.4526 116.547Z" fill="#DAEBFF"/>
<path opacity="0.53" d="M73.605 107.519V97.6338C73.605 97.6076 73.5838 97.5862 73.5576 97.5862H72.0272C72.001 97.5862 71.9798 97.6076 71.9798 97.6338V107.519C71.9798 107.545 72.001 107.566 72.0272 107.566H73.5576C73.5838 107.566 73.605 107.545 73.605 107.519Z" fill="#DAEBFF"/>
<path opacity="0.53" d="M70.6602 116.547V96.2587C70.6602 96.2324 70.639 96.2111 70.6128 96.2111H67.3887C67.3625 96.2111 67.3413 96.2324 67.3413 96.2587V116.547C67.3413 116.574 67.3625 116.595 67.3887 116.595H70.6128C70.639 116.595 70.6602 116.574 70.6602 116.547Z" fill="#DAEBFF"/>
<path opacity="0.53" d="M69.813 97.6339V107.52C69.813 107.532 69.808 107.544 69.7991 107.553C69.7902 107.562 69.7782 107.567 69.7656 107.567H68.2344C68.222 107.567 68.2102 107.562 68.2015 107.553C68.1928 107.545 68.1879 107.533 68.1879 107.52V97.6339C68.1879 97.6215 68.1928 97.6096 68.2015 97.6008C68.2102 97.592 68.222 97.5871 68.2344 97.5871H69.7656C69.7781 97.5871 69.79 97.592 69.7988 97.6007C69.8077 97.6095 69.8128 97.6214 69.813 97.6339Z" fill="#DAEBFF"/>
<path opacity="0.53" d="M66.8682 116.547V101.089C66.8682 101.063 66.847 101.041 66.8208 101.041H64.3827C64.3566 101.041 64.3354 101.063 64.3354 101.089V116.547C64.3354 116.574 64.3566 116.595 64.3827 116.595H66.8208C66.847 116.595 66.8682 116.574 66.8682 116.547Z" fill="#DAEBFF"/>
<path opacity="0.53" d="M66.2217 109.658V102.138C66.2217 102.112 66.2005 102.091 66.1743 102.091H65.0292C65.003 102.091 64.9818 102.112 64.9818 102.138V109.658C64.9818 109.685 65.003 109.706 65.0292 109.706H66.1743C66.2005 109.706 66.2217 109.685 66.2217 109.658Z" fill="#DAEBFF"/>
<g opacity="0.54">
<path opacity="0.54" d="M24.0391 70.3789V90.6685C24.0391 90.6812 24.0341 90.6933 24.0252 90.7022C24.0163 90.7111 24.0043 90.7161 23.9917 90.7161H20.7668C20.7542 90.7161 20.7422 90.7111 20.7333 90.7022C20.7244 90.6933 20.7194 90.6812 20.7194 90.6685V70.3789C20.7194 70.3665 20.7243 70.3546 20.733 70.3458C20.7418 70.337 20.7536 70.3321 20.7659 70.3321H23.9909C23.9971 70.332 24.0033 70.3331 24.0091 70.3354C24.0149 70.3377 24.0202 70.3411 24.0246 70.3455C24.0291 70.3498 24.0327 70.355 24.0351 70.3607C24.0376 70.3665 24.039 70.3726 24.0391 70.3789Z" fill="#DAEBFF"/>
<path opacity="0.54" d="M23.1934 81.6387V71.754C23.1934 71.7278 23.1722 71.7065 23.146 71.7065H21.6156C21.5894 71.7065 21.5682 71.7278 21.5682 71.754V81.6387C21.5682 81.665 21.5894 81.6863 21.6156 81.6863H23.146C23.1722 81.6863 23.1934 81.665 23.1934 81.6387Z" fill="#DAEBFF"/>
</g>
<path opacity="0.53" d="M20.3511 70.3789V90.6686C20.3511 90.6812 20.3461 90.6933 20.3372 90.7022C20.3283 90.7112 20.3163 90.7162 20.3037 90.7162H17.0788C17.0662 90.7162 17.0542 90.7112 17.0453 90.7022C17.0364 90.6933 17.0314 90.6812 17.0314 90.6686V70.3789C17.0314 70.3665 17.0363 70.3546 17.0451 70.3458C17.0538 70.337 17.0656 70.3321 17.078 70.3321H20.3029C20.3091 70.332 20.3153 70.3331 20.3211 70.3354C20.3269 70.3377 20.3322 70.3411 20.3366 70.3455C20.3411 70.3498 20.3447 70.355 20.3472 70.3607C20.3496 70.3665 20.351 70.3726 20.3511 70.3789Z" fill="#DAEBFF"/>
<path opacity="0.53" d="M19.5059 81.6387V71.754C19.5059 71.7278 19.4847 71.7065 19.4585 71.7065H17.9281C17.9019 71.7065 17.8807 71.7278 17.8807 71.754V81.6387C17.8807 81.665 17.9019 81.6863 17.9281 81.6863H19.4585C19.4847 81.6863 19.5059 81.665 19.5059 81.6387Z" fill="#DAEBFF"/>
<path opacity="0.53" d="M54.0031 62.3692L40.3518 47.4251C40.3342 47.4057 40.3042 47.4044 40.285 47.4222L37.9101 49.6143C37.8909 49.6321 37.8896 49.6622 37.9073 49.6816L51.5585 64.6257C51.5762 64.6451 51.6061 64.6463 51.6254 64.6286L54.0002 62.4364C54.0195 62.4187 54.0207 62.3886 54.0031 62.3692Z" fill="#DAEBFF"/>
<path opacity="0.53" d="M47.3035 56.2936L40.6526 49.0128C40.6349 48.9934 40.605 48.9921 40.5857 49.0099L39.4584 50.0505C39.4392 50.0683 39.4379 50.0984 39.4556 50.1177L46.1065 57.3985C46.1242 57.4179 46.1541 57.4192 46.1734 57.4014L47.3007 56.3608C47.3199 56.3431 47.3212 56.313 47.3035 56.2936Z" fill="#DAEBFF"/>
<path opacity="0.53" d="M14.1177 28.9955V165.318H77.6211V28.9955H14.1177ZM74.7536 31.8779V64.4154H16.5754V31.8779H74.7536ZM16.5754 116.309V92.8322H74.7536V116.308L16.5754 116.309ZM74.7536 119.191V142.255H16.5754V119.19L74.7536 119.191ZM16.5754 90.7727V66.8851H74.7536V90.7727H16.5754Z" fill="#B9D2EA"/>
</g>
<path fill-rule="evenodd" clip-rule="evenodd" d="M114.899 113.463H119.551C121.624 113.463 123.042 112.799 124.816 109.818L128.832 103.072C128.832 103.072 130.362 100.638 134.282 100.638H146.039C147.551 100.638 150.52 100.855 151.528 103.19C152.537 105.526 156.426 114.696 156.426 114.696L149.005 115.25L141.893 126.984C141.893 126.984 132.091 127.744 130.13 127.527C128.169 127.309 120.72 126.87 120.72 126.87L114.899 113.463Z" fill="#20288A"/>
<path fill-rule="evenodd" clip-rule="evenodd" d="M136.278 163.647V125.287C136.276 125.171 136.228 125.062 136.146 124.982C136.063 124.901 135.952 124.858 135.838 124.859H135.511C135.396 124.858 135.286 124.901 135.203 124.982C135.12 125.062 135.073 125.171 135.07 125.287V163.647C135.073 163.762 135.121 163.871 135.203 163.951C135.286 164.032 135.396 164.076 135.511 164.074H135.838C135.952 164.076 136.063 164.032 136.145 163.951C136.228 163.871 136.276 163.762 136.278 163.647Z" fill="#00000F"/>
<path fill-rule="evenodd" clip-rule="evenodd" d="M136.282 129.392H135.068C134.162 129.392 133.42 130.111 133.42 130.99V132.539C133.42 133.418 134.162 134.137 135.068 134.137H136.282C137.189 134.137 137.93 133.418 137.93 132.539V130.99C137.93 130.111 137.189 129.392 136.282 129.392Z" fill="#141A33"/>
<path fill-rule="evenodd" clip-rule="evenodd" d="M136.676 161.735H134.675C134.446 161.731 134.224 161.819 134.059 161.979C133.894 162.139 133.798 162.358 133.793 162.589V163.219C133.798 163.45 133.894 163.669 134.059 163.829C134.224 163.989 134.446 164.077 134.675 164.074H136.676C136.906 164.077 137.127 163.989 137.293 163.829C137.458 163.669 137.553 163.45 137.559 163.219V162.589C137.553 162.358 137.458 162.139 137.293 161.979C137.127 161.819 136.906 161.731 136.676 161.735Z" fill="#141A33"/>
<path fill-rule="evenodd" clip-rule="evenodd" d="M140.986 162.904H130.367C129.623 162.904 129.014 163.495 129.014 164.217V165.184C129.014 165.905 129.623 166.497 130.367 166.497H140.988C141.734 166.497 142.343 165.906 142.343 165.184V164.217C142.34 163.495 141.731 162.904 140.986 162.904Z" fill="#030822"/>
<path fill-rule="evenodd" clip-rule="evenodd" d="M144.138 130.186C144.138 129.565 143.614 129.058 142.974 129.058H128.377C128.227 129.055 128.078 129.082 127.938 129.137C127.798 129.192 127.671 129.275 127.563 129.379C127.455 129.484 127.368 129.609 127.308 129.748C127.248 129.886 127.216 130.035 127.213 130.186C127.22 130.491 127.346 130.78 127.564 130.992C127.782 131.204 128.074 131.32 128.377 131.315H142.974C143.277 131.32 143.569 131.203 143.787 130.992C144.005 130.78 144.131 130.491 144.138 130.186Z" fill="#030822"/>
<path fill-rule="evenodd" clip-rule="evenodd" d="M147.263 129.721C147.259 129.55 147.189 129.387 147.066 129.268C146.944 129.149 146.78 129.083 146.61 129.085H124.763C124.593 129.083 124.429 129.149 124.307 129.268C124.184 129.387 124.114 129.55 124.11 129.721C124.114 129.892 124.184 130.055 124.306 130.174C124.429 130.293 124.593 130.359 124.763 130.358H146.61C146.78 130.359 146.944 130.293 147.067 130.174C147.189 130.055 147.26 129.892 147.263 129.721Z" fill="#00000F"/>
<path fill-rule="evenodd" clip-rule="evenodd" d="M131.777 127.249H146.582C147.291 127.249 147.871 127.812 147.871 128.499C147.871 129.187 147.291 129.749 146.582 129.749H131.777C131.069 129.749 130.488 129.187 130.488 128.499C130.488 127.812 131.069 127.249 131.777 127.249Z" fill="#6197B5"/>
<path fill-rule="evenodd" clip-rule="evenodd" d="M123.347 127.249H135.969C136.677 127.249 137.258 127.812 137.258 128.499C137.258 129.187 136.677 129.749 135.969 129.749H123.347C122.638 129.749 122.059 129.187 122.059 128.499C122.055 127.812 122.634 127.249 123.347 127.249Z" fill="#8FBAD8"/>
<path fill-rule="evenodd" clip-rule="evenodd" d="M149.626 103.19C150.473 105.154 153.357 111.944 154.256 114.061H155.451C155.658 114.059 155.861 114.118 156.035 114.231C156.209 114.344 156.347 114.505 156.431 114.696C156.431 114.696 152.539 105.526 151.533 103.19C150.528 100.854 147.556 100.638 146.044 100.638H144.137C145.649 100.638 148.618 100.855 149.626 103.19Z" fill="#75A5C6"/>
<path fill-rule="evenodd" clip-rule="evenodd" d="M109.69 115.516C109.551 115.524 109.412 115.503 109.281 115.455C109.15 115.407 109.031 115.333 108.93 115.237C108.829 115.141 108.748 115.025 108.693 114.897C108.638 114.769 108.61 114.63 108.61 114.49C108.61 114.351 108.638 114.212 108.693 114.084C108.748 113.956 108.829 113.84 108.93 113.744C109.031 113.648 109.15 113.574 109.281 113.526C109.412 113.478 109.551 113.457 109.69 113.465H115.403C115.615 113.463 115.822 113.526 115.999 113.644C116.175 113.762 116.312 113.93 116.392 114.127L122.133 126.446H141.45L148.372 114.582C148.467 114.423 148.601 114.292 148.762 114.201C148.923 114.11 149.105 114.063 149.289 114.065H155.451C155.59 114.057 155.729 114.077 155.86 114.125C155.99 114.173 156.11 114.248 156.211 114.344C156.312 114.44 156.392 114.555 156.447 114.684C156.502 114.812 156.531 114.95 156.531 115.09C156.531 115.23 156.502 115.368 156.447 115.497C156.392 115.625 156.312 115.741 156.211 115.837C156.11 115.933 155.99 116.007 155.86 116.055C155.729 116.103 155.59 116.124 155.451 116.116H149.901L143.02 127.91C142.931 128.089 142.795 128.239 142.625 128.344C142.456 128.448 142.26 128.503 142.062 128.502H121.452C121.251 128.503 121.054 128.447 120.884 128.34C120.713 128.233 120.576 128.08 120.489 127.898L114.722 115.52L109.69 115.516Z" fill="#A1C6E5"/>
<path fill-rule="evenodd" clip-rule="evenodd" d="M100.02 105.105L103.868 164.964H102.16L96.9889 107.924H68.014L62.8423 164.964H61.1348L64.9833 105.105H100.02Z" fill="#3F4154"/>
<path d="M122.073 122.003C121.292 123.741 110.004 124.383 110.004 124.383C109.047 136.198 107.219 143.948 105.865 148.486C105.122 150.98 104.522 152.506 104.29 153.198C103.637 155.153 104.094 157.033 104.094 157.033C104.102 157.394 104.099 157.744 104.085 158.083C103.809 165.022 99.2465 167.448 99.2465 167.448L98.2164 167.612L97.827 167.673L95.0249 168.109C95.5837 167.695 96.0787 167.201 96.4941 166.643C104.293 156.334 95.9228 118.592 98.6384 114.795C101.507 110.782 117.201 110.229 117.201 110.229C117.201 110.229 122.858 120.265 122.073 122.003Z" fill="#FFC0BF"/>
<path d="M104.289 153.199C103.636 155.153 104.093 157.034 104.093 157.034C104.102 157.395 104.099 157.745 104.085 158.084C102.893 160.642 100.711 165.132 99.4042 166.692C98.9602 167.223 98.5626 167.498 98.2157 167.61C98.09 167.65 97.9586 167.671 97.8264 167.67C96.9881 167.66 96.5261 166.702 96.4976 166.641C99.0867 167.498 103.198 157.62 103.282 155.488C103.364 153.391 105.788 148.637 105.865 148.489C105.121 150.979 104.521 152.506 104.289 153.199Z" fill="#E54F48"/>
<path d="M113.232 111.795C113.232 111.795 106.947 112.616 106.276 115.385C105.605 118.154 106.96 143.502 106.96 143.502L115.91 112.241L113.232 111.795Z" fill="#E54F48"/>
<path d="M103.629 157.626C103.528 158.06 103.397 158.487 103.237 158.904C102.754 160.068 101.995 161.119 101.333 162.177C100.617 163.318 99.9575 164.501 99.2302 165.633C98.8596 166.207 98.4417 166.662 97.7545 166.761C97.4381 166.805 97.117 166.798 96.8027 166.741C96.6093 166.707 96.4126 166.577 96.2248 166.559C96.0616 166.545 95.9073 166.649 95.7726 166.723C95.2551 167.016 94.7801 167.387 94.265 167.687C93.8161 167.948 93.3321 168.109 92.8693 168.343C92.7248 168.415 92.5207 168.507 92.471 168.682C92.3967 168.943 92.6579 169.215 92.8521 169.326C93.4374 169.663 94.3214 169.523 94.9564 169.531C96.3105 169.548 97.7194 169.672 99.0694 169.497C99.5118 169.439 99.9673 169.337 100.262 168.961C100.812 168.262 100.997 167.212 101.313 166.394C101.579 165.704 101.894 164.989 102.406 164.456C102.781 164.076 103.235 163.782 103.735 163.596C103.908 163.531 103.989 163.478 104.07 163.664C104.204 163.969 104.088 164.484 104.093 164.812C104.102 165.476 104.118 168.816 104.118 169.055C104.118 169.151 104.073 169.396 104.118 169.48C104.177 169.59 104.098 169.525 104.272 169.557C104.354 169.574 104.777 169.612 104.852 169.557C104.965 169.475 104.907 168.799 104.914 168.612C104.936 167.951 104.974 167.29 105.026 166.63C105.127 165.364 105.2 164.054 105.516 162.823C105.776 161.809 106.075 160.953 106.026 159.882C106.001 159.316 105.915 158.718 105.65 158.215C105.268 157.49 104.513 156.942 103.931 156.41L103.629 157.626Z" fill="url(#paint0_linear_533_1504)"/>
<path d="M111.075 98.0991C111.075 98.0991 106.611 97.2581 104.305 97.3434C103.17 97.3852 101.729 100.185 100.938 101.55L113.1 101.512L111.075 98.0991Z" fill="#FFC0BF"/>
<path fill-rule="evenodd" clip-rule="evenodd" d="M111.074 98.7949C111.074 98.7949 110.954 101.066 109.21 101.248C107.467 101.43 107.076 101.509 107.076 101.509H111.414L111.074 98.7949Z" fill="#E54F48"/>
<path d="M145.518 60.8191V75.8435L130.51 76.6853V61.6543L145.518 60.8191Z" fill="#2C243D"/>
<path d="M134.799 66.4216C134.799 66.4216 135.301 74.3296 134.799 76.0117C134.297 77.6937 140.887 71.1608 140.887 71.1608C140.887 71.1608 140.517 61.2917 140.852 60.8429C141.186 60.3941 134.799 66.4216 134.799 66.4216Z" fill="#FFC0BF"/>
<path opacity="0.64" fill-rule="evenodd" clip-rule="evenodd" d="M140.784 68.7518C140.784 68.7518 136.228 72.1979 135.642 72.28C135.056 72.362 134.996 71.3544 134.996 71.3544L133.242 72.8404L134.775 75.4513L141.03 71.0484L140.784 68.7518Z" fill="#E54F48"/>
<path d="M143.453 60.3079C142.666 63.8189 136.292 67.0591 135.201 67.5867C132.507 69.0989 129.628 67.2585 127.849 64.7485C126.456 62.7842 125.742 60.4121 126.329 58.9228C127.146 56.8634 126.989 55.2929 126.855 53.7708V53.7659C126.768 52.787 126.692 51.8295 126.889 50.7751C127.39 48.0797 129.846 48.0797 129.846 48.0797C129.846 48.0797 144.123 57.3253 143.453 60.3079Z" fill="#FFC0BF"/>
<path d="M128 49.9316C128 49.9316 126.613 50.7046 126.783 53.0455C126.783 53.0455 125.267 48.1011 128.559 46.6455C131.851 45.1899 131.729 47.4307 131.729 47.4307L128 49.9316Z" fill="#2C243D"/>
<path d="M133.039 71.6744C133.039 71.6744 127.292 73.3704 126.66 73.8997C126.243 74.2476 125.358 75.0771 124.614 81.135C123.869 87.1928 123.126 94.7071 123.126 94.7071C123.126 94.7071 115.315 96.6139 114.831 96.6517C114.347 96.6894 111.076 97.2498 111.076 97.2498V101.55H157.013C157.013 101.55 158.743 101.475 157.013 95.5858C155.284 89.6962 151.887 75.0943 148.595 73.8603C145.304 72.6262 141.614 71.3569 141.614 71.3569L134.565 73.1514L133.039 71.6744Z" fill="#5BC272"/>
<path d="M127.292 81.8102C127.292 81.8102 127.366 101.216 123.796 101.553C120.226 101.889 114.683 101.553 114.683 101.553L114.831 96.6542L115.256 96.5721C115.256 96.5721 116.802 103.418 122.602 98.8572C122.602 98.8572 125.838 96.3137 125.987 93.0611C126.135 89.8086 126.771 80.6861 127.292 81.8102Z" fill="#5BC272"/>
<path d="M145.072 82.9106C145.072 82.9106 151.244 95.8492 149.87 95.7491C147.545 95.5809 135.531 97.1563 135.531 97.1563C135.531 97.1563 147.322 95.023 147.769 94.2025C149.059 91.8279 143.62 81.7331 145.072 82.9106Z" fill="#5BC272"/>
<path d="M123.584 98.1762C123.584 98.1762 120.91 98.8203 119.83 101.55H129.652C129.652 101.55 126.668 97.4952 123.584 98.1762Z" fill="#1F2A83"/>
<path d="M144.851 83.2051C144.851 83.2051 143.959 94.9089 135.531 97.1538C135.531 97.1538 146.361 95.2667 147.75 94.4806C149.581 93.4509 144.851 83.2051 144.851 83.2051Z" fill="#45AC5C"/>
<path d="M132.965 73.6281C132.965 73.6281 132.769 74.7768 133.578 74.4978C134.388 74.2189 135.475 73.1514 135.921 73.5132C136.368 73.8751 136.926 76.4285 137.512 76.3588C138.098 76.289 143.461 72.0445 143.461 72.0445L141.613 71.3536C141.613 71.3536 135.586 73.2605 133.996 73.0923L132.965 73.6281Z" fill="#DB9200"/>
<path d="M122.068 124.805C122.019 125.012 121.969 125.197 121.925 125.359C121.919 125.382 121.912 125.406 121.905 125.428C121.887 125.496 121.868 125.56 121.85 125.618C121.845 125.636 121.84 125.653 121.833 125.67C120.61 125.654 119.389 125.554 118.179 125.37C116.258 138.402 113.591 146.357 111.949 150.518C111.302 152.159 110.814 153.209 110.593 153.748C109.812 155.655 110.147 157.561 110.147 157.561C110.12 158.152 110.076 158.708 110.013 159.231C109.257 165.564 106.035 167.096 106.035 167.096L100.772 168.891C111.486 162.163 104.344 118.862 107.465 115.048C108.758 113.467 111.737 112.716 114.783 112.377C115.486 112.295 116.193 112.242 116.883 112.203C118.797 113.047 120.095 114.207 120.958 115.501C121.374 116.13 121.707 116.811 121.948 117.526C122.242 118.409 122.421 119.326 122.478 120.255C122.606 122.059 122.328 123.717 122.068 124.805Z" fill="#FFC0BF"/>
<path opacity="0.64" d="M118.012 113.414C121.142 116.578 122.135 119.075 122.161 120.963C122.187 122.872 119.701 123.688 118.619 122.117C118.428 121.84 118.28 121.536 118.179 121.215C118.626 123.046 118.179 125.366 118.179 125.366L119.659 125.486L119.63 125.504L123.285 125.805C123.285 125.805 126.256 126.511 126.734 122.7C127.212 118.888 118.012 113.414 118.012 113.414Z" fill="#E54F48"/>
<path d="M149.942 114.332C149.919 114.086 149.89 113.84 149.861 113.594C149.845 113.464 149.829 113.335 149.811 113.208C149.768 112.885 149.722 112.567 149.67 112.252C149.301 109.959 148.762 107.697 148.058 105.485C148.058 105.485 134.723 104.676 124.583 105.07C122.487 105.152 120.528 105.283 118.851 105.485C109.138 106.653 99.0905 113.786 98.9346 113.896C108.974 110.113 116.749 112.824 117.214 113.029C123.89 115.972 122.513 121.445 122.07 124.803C122.032 125.015 121.977 125.223 121.907 125.426C121.888 125.494 121.869 125.558 121.851 125.617C121.846 125.635 121.841 125.651 121.836 125.668C121.754 125.943 121.695 126.097 121.695 126.097C121.695 126.097 124.496 126.412 128.509 126.599C130.468 126.689 137.26 126.539 138.508 126.445C139.82 126.347 143.2 126.281 144.46 126.097C144.678 126.067 144.888 126.026 145.091 125.978C146.02 125.775 146.883 125.34 147.6 124.712C148.616 123.809 149.262 122.555 149.64 121.113C150.177 119.069 150.179 116.648 149.942 114.332Z" fill="#2C243D"/>
<path d="M110.592 153.748C109.81 155.655 110.145 157.561 110.145 157.561C110.119 158.152 110.074 158.708 110.011 159.231L105.644 166.944L101.775 168.327L102.792 166.932C102.792 166.932 103.486 169.001 106.5 163.953C109.513 158.904 109.326 157.708 109.326 157.708C110.315 152.444 111.899 150.569 111.947 150.516C111.301 152.158 110.813 153.209 110.592 153.748Z" fill="#E54F48"/>
<path fill-rule="evenodd" clip-rule="evenodd" d="M149.549 111.541C149.549 111.541 147.579 112.591 145.794 116.497C144.009 120.404 134.223 126.806 121.694 126.097C121.694 126.097 141.907 127.319 146.285 125.658C150.664 123.996 150.895 118.934 149.549 111.541Z" fill="#2C243D"/>
<path fill-rule="evenodd" clip-rule="evenodd" d="M149.86 113.594C149.86 113.594 148.831 113.347 147.871 114.696C146.911 116.044 142.516 125.696 137.254 126.531L143.557 126.331L149.942 114.332L149.86 113.594Z" fill="#0050AF"/>
<path d="M117.618 92.2061H88.1145C87.664 92.1995 87.2315 92.0273 86.8986 91.7221C86.5657 91.417 86.3554 90.9998 86.3074 90.5495L84.3239 68.0675C84.3013 67.8557 84.3239 67.6416 84.3903 67.4393C84.4566 67.237 84.565 67.0513 84.7084 66.8945C84.8518 66.7377 85.0268 66.6135 85.2217 66.5301C85.4167 66.4467 85.627 66.406 85.8388 66.4108H115.343C115.793 66.4177 116.226 66.5899 116.558 66.895C116.891 67.2002 117.102 67.6172 117.15 68.0675L119.133 90.5495C119.156 90.7612 119.133 90.9753 119.067 91.1775C119 91.3798 118.892 91.5654 118.748 91.7222C118.605 91.8789 118.43 92.0032 118.235 92.0866C118.04 92.1701 117.83 92.2108 117.618 92.2061Z" fill="#404DAD"/>
<path d="M116.48 92.2061H86.9759C86.5254 92.1994 86.0928 92.0273 85.7599 91.7221C85.427 91.4169 85.2167 90.9998 85.1687 90.5495L83.1852 68.0675C83.1627 67.8557 83.1853 67.6416 83.2516 67.4393C83.3179 67.237 83.4263 67.0513 83.5697 66.8945C83.7131 66.7377 83.8881 66.6135 84.083 66.5301C84.278 66.4467 84.4884 66.406 84.7002 66.4108H114.206C114.656 66.4175 115.089 66.5896 115.422 66.8948C115.754 67.2 115.965 67.6171 116.013 68.0675L117.996 90.5495C118.019 90.7614 117.996 90.9756 117.929 91.1779C117.863 91.3803 117.754 91.566 117.611 91.7228C117.467 91.8796 117.292 92.0038 117.097 92.0871C116.902 92.1705 116.692 92.211 116.48 92.2061Z" fill="#0E1C56"/>
<path d="M90.1079 101.681H106.179L104.973 100.428C104.81 100.258 104.593 100.151 104.359 100.126L98.1438 99.4504L102.908 90.1565L101.729 83.0303H95.9571L93.31 99.4586L91.0956 100.022C90.9249 100.066 90.7687 100.154 90.6425 100.277C90.5163 100.401 90.4245 100.555 90.3765 100.726L90.1079 101.681Z" fill="#0B1B4F"/>
<path d="M92.9526 101.681L95.8258 83.8451C95.8626 83.6178 95.9787 83.411 96.1532 83.2617C96.3277 83.1125 96.5493 83.0305 96.7784 83.0303H100.417C100.569 83.0303 100.718 83.066 100.853 83.1346C100.988 83.2033 101.105 83.3028 101.195 83.4253C101.285 83.5478 101.345 83.6898 101.37 83.8398C101.395 83.9898 101.385 84.1437 101.34 84.289L95.9573 101.684L92.9526 101.681Z" fill="#404DAD"/>
<path d="M109.857 158.188C109.756 158.623 109.625 159.05 109.466 159.467C108.983 160.631 108.223 161.682 107.561 162.74C106.845 163.881 106.186 165.063 105.459 166.196C105.088 166.77 104.67 167.225 103.983 167.323C103.667 167.367 103.345 167.361 103.031 167.304C102.838 167.27 102.641 167.136 102.453 167.121C102.29 167.107 102.136 167.212 102.001 167.285C101.484 167.579 101.009 167.949 100.494 168.249C100.045 168.511 99.5606 168.672 99.0978 168.905C98.9533 168.977 98.7493 169.069 98.6995 169.245C98.6252 169.506 98.8864 169.777 99.0806 169.888C99.6659 170.225 100.55 170.085 101.185 170.093C102.539 170.111 103.948 170.234 105.298 170.06C105.74 170.002 106.196 169.9 106.49 169.523C107.041 168.824 107.225 167.775 107.542 166.957C107.808 166.266 108.123 165.552 108.635 165.018C109.01 164.638 109.464 164.345 109.963 164.159C110.137 164.094 110.217 164.041 110.298 164.227C110.432 164.531 110.316 165.047 110.321 165.375C110.33 166.039 110.346 169.379 110.347 169.617C110.347 169.713 110.301 169.959 110.347 170.043C110.407 170.154 110.328 170.088 110.501 170.121C110.583 170.138 111.007 170.176 111.082 170.121C111.194 170.039 111.136 169.363 111.143 169.176C111.165 168.514 111.203 167.853 111.256 167.194C111.356 165.928 111.429 164.617 111.745 163.386C112.006 162.371 112.304 161.517 112.256 160.445C112.23 159.879 112.144 159.281 111.879 158.778C111.498 158.054 110.742 157.506 110.16 156.973L109.857 158.188Z" fill="url(#paint1_linear_533_1504)"/>
<path d="M139.53 62.7013C139.53 62.7013 136.405 65.9916 132.165 64.87V65.4681C132.165 65.4681 136.517 66.4528 139.976 63.1124L139.53 62.7013Z" fill="url(#paint2_linear_533_1504)"/>
<path d="M131.727 66.3181C132.399 66.3181 132.944 65.7704 132.944 65.0948C132.944 64.4191 132.399 63.8714 131.727 63.8714C131.055 63.8714 130.51 64.4191 130.51 65.0948C130.51 65.7704 131.055 66.3181 131.727 66.3181Z" fill="url(#paint3_linear_533_1504)"/>
<path d="M145.782 56.7493C145.782 56.7493 141.724 56.3817 139.325 56.9421C138.788 57.0685 138.024 56.9864 137.153 56.7526C134.133 55.9452 129.839 53.3245 129.449 51.2781C128.963 48.7239 128.056 49.8562 128.001 49.9284C128.279 45.2736 133.804 45.1612 133.804 45.1612C144.624 44.8872 145.782 56.7493 145.782 56.7493Z" fill="#2C243D"/>
<path d="M135.022 73.0956L133.969 98.6496L133.243 98.0991L134.772 72.7034L135.022 73.0956Z" fill="#DB9200"/>
<path d="M148.087 23.7343H113.676C112.663 23.7343 111.835 24.7616 111.835 26.0162V37.0102C111.835 38.2656 112.663 39.2921 113.676 39.2921H141.905L143.365 42.3124L143.945 39.2921H148.087C149.099 39.2921 149.928 38.2656 149.928 37.0102V26.0154C149.928 24.7616 149.099 23.7343 148.087 23.7343Z" fill="#1B65F8"/>
<path d="M143.669 27.489H114.161C114.042 27.489 113.945 27.586 113.945 27.7056V28.49C113.945 28.6097 114.042 28.7066 114.161 28.7066H143.669C143.788 28.7066 143.884 28.6097 143.884 28.49V27.7056C143.884 27.586 143.788 27.489 143.669 27.489Z" fill="white"/>
<path d="M143.669 29.8168H114.161C114.042 29.8168 113.945 29.9138 113.945 30.0334V30.8178C113.945 30.9375 114.042 31.0344 114.161 31.0344H143.669C143.788 31.0344 143.884 30.9375 143.884 30.8178V30.0334C143.884 29.9138 143.788 29.8168 143.669 29.8168Z" fill="white"/>
<path d="M132.121 32.1438H114.161C114.042 32.1438 113.945 32.2408 113.945 32.3604V33.1448C113.945 33.2644 114.042 33.3614 114.161 33.3614H132.121C132.24 33.3614 132.337 33.2644 132.337 33.1448V32.3604C132.337 32.2408 132.24 32.1438 132.121 32.1438Z" fill="white"/>
<path d="M84.679 0.66153H119.091C120.103 0.66153 120.932 1.68881 120.932 2.94338V13.9382C120.932 15.1928 120.103 16.2201 119.091 16.2201H90.8612L89.401 19.2396L88.8222 16.2201H84.679C83.6669 16.2201 82.8384 15.1928 82.8384 13.9382V2.94338C82.8384 1.68963 83.6669 0.66153 84.679 0.66153Z" fill="#5BC272"/>
<path d="M87.1521 6.24347L116.66 6.24347C116.779 6.24347 116.875 6.14649 116.875 6.02686V5.24244C116.875 5.12281 116.779 5.02583 116.66 5.02583L87.1521 5.02583C87.0331 5.02583 86.9366 5.12281 86.9366 5.24244V6.02686C86.9366 6.14649 87.0331 6.24347 87.1521 6.24347Z" fill="white"/>
<path d="M87.1521 8.57126L116.66 8.57126C116.779 8.57126 116.875 8.47428 116.875 8.35464V7.57024C116.875 7.4506 116.779 7.35362 116.66 7.35362L87.1521 7.35362C87.0331 7.35362 86.9366 7.4506 86.9366 7.57024V8.35464C86.9366 8.47428 87.0331 8.57126 87.1521 8.57126Z" fill="white"/>
<path d="M87.1106 10.8991L105.071 10.8991C105.19 10.8991 105.287 10.8021 105.287 10.6825V9.89805C105.287 9.77842 105.19 9.68143 105.071 9.68143L87.1106 9.68143C86.9916 9.68143 86.8951 9.77842 86.8951 9.89805V10.6825C86.8951 10.8021 86.9916 10.8991 87.1106 10.8991Z" fill="white"/>
<path d="M132.163 45.4131C132.163 45.4131 141.076 44.7182 142.474 58.1072H144.791C144.791 58.1072 143.509 46.2484 135.531 45.1596C135.531 45.1596 133.355 44.7231 132.163 45.4131Z" fill="url(#paint4_linear_533_1504)"/>
<path d="M140.432 50.7596C140.432 50.7596 141.78 49.9391 142.784 51.2265C142.784 51.2265 144.812 55.5029 144.346 57.2416C143.881 58.9803 142.423 56.8666 142.423 56.8666C142.423 56.8666 142.058 53.9432 140.432 50.7596Z" fill="url(#paint5_linear_533_1504)"/>
<path d="M146.519 59.3487C146.519 62.0031 144.448 64.1544 141.894 64.1544C140.859 64.1542 139.856 63.7961 139.053 63.1403C138.493 62.6826 138.041 62.1044 137.733 61.4482C137.424 60.792 137.266 60.0745 137.27 59.3487C137.27 56.6951 139.34 54.5454 141.894 54.5454C142.626 54.548 143.346 54.7272 143.995 55.068C144.644 55.4089 145.201 55.9013 145.621 56.504C146.209 57.3348 146.522 58.3295 146.519 59.3487Z" fill="url(#paint6_linear_533_1504)"/>
<path d="M146.519 59.3487C146.519 62.0031 144.448 64.1544 141.893 64.1544C140.859 64.1542 139.856 63.7961 139.053 63.1403C146.114 63.5858 145.623 56.5056 145.623 56.5056C146.209 57.3362 146.522 58.3303 146.519 59.3487Z" fill="url(#paint7_linear_533_1504)"/>
<path d="M137.795 56.0691L137.153 56.7526C134.133 55.9452 129.839 53.3245 129.449 51.2781C128.963 48.7239 128.056 49.8562 128.001 49.9284C128.028 49.8463 128.579 48.3431 129.375 49.6002C130.193 50.8859 134.834 56.9151 137.795 56.0691Z" fill="#2C243D"/>
<path d="M134.981 70.3674L135.022 72.9463C135.022 72.9463 138.237 71.6769 140.818 69.0586C140.818 69.0586 141.018 68.6837 141.222 69.2441C141.426 69.8045 142.728 71.5998 143.099 71.8057C143.099 71.8057 138.096 74.9237 136.665 76.289C136.665 76.289 136.088 76.6287 136.106 75.8435C136.124 75.0583 135.021 73.0956 135.021 73.0956C135.021 73.0956 134.154 73.8062 132.74 73.825C132.74 73.825 132.536 73.9186 132.74 73.2827C132.944 72.6468 132.778 71.5809 132.778 71.5809C132.778 71.5809 134.47 71.0763 134.655 70.7021C134.84 70.328 134.981 70.3674 134.981 70.3674Z" fill="#FFC266"/>
<path fill-rule="evenodd" clip-rule="evenodd" d="M140.472 97.29C140.472 97.29 141.361 98.3715 140.717 101.55H157.009C157.009 101.55 158.437 101.156 157.556 97.7832C157.559 97.7832 150.07 102.064 140.472 97.29Z" fill="#5BC272"/>
<path d="M135.698 101.549C135.698 101.549 132.713 100.718 130.342 101.303C128.484 101.764 126.728 101.057 125.519 100.82C125.186 100.755 124.893 100.727 124.651 100.77C123.534 100.966 120.325 99.5079 123.312 97.4607C126.298 95.4135 127.776 95.5817 128.835 96.0305C129.895 96.4794 133.917 98.328 135.674 97.848C135.674 97.848 135.712 97.999 135.756 98.2459C135.903 98.9942 136.139 100.615 135.698 101.549Z" fill="#FFC0BF"/>
<path fill-rule="evenodd" clip-rule="evenodd" d="M140.423 96.7945C140.423 96.7945 141.408 98.2599 141.648 99.905C141.888 101.55 144.522 101.546 144.522 101.546H140.718C140.718 101.546 141.605 99.3971 140.125 96.5828L140.423 96.7945Z" fill="#ED8100"/>
<path d="M103.333 111.156C103.333 111.156 119.797 109.648 122.81 113.414C125.822 117.18 145.462 105.523 145.462 105.523H119.139C119.139 105.523 113.761 105.132 103.333 111.156Z" fill="#2C243D"/>
<path opacity="0.64" fill-rule="evenodd" clip-rule="evenodd" d="M135.698 101.549C135.698 101.549 132.713 100.718 130.342 101.303C128.484 101.764 126.729 101.057 125.519 100.82C128.344 101.101 130.194 100.872 130.194 100.872C135.155 100.979 135.744 98.3387 135.76 98.2468C135.903 98.9943 136.139 100.615 135.698 101.549Z" fill="#E54F48"/>
<path fill-rule="evenodd" clip-rule="evenodd" d="M135.83 98.6496C135.83 98.6496 135.847 100.537 135.177 100.653C134.507 100.768 133.242 101.137 133.242 101.137L135.697 101.548C135.697 101.548 136.17 100.83 135.83 98.6496Z" fill="#E54F48"/>
<path d="M172.283 100.74C173.608 99.9879 175.881 97.7684 175.502 96.2069C175.458 96.0087 175.369 95.8235 175.241 95.6659C175.114 95.5083 174.952 95.3826 174.768 95.2986C173.89 94.8884 172.633 95.3807 172.493 95.4414L172.912 96.3185C173.214 96.1946 173.955 95.9903 174.305 96.1544C174.356 96.1788 174.4 96.2156 174.433 96.2615C174.466 96.3073 174.487 96.3608 174.494 96.417C174.715 97.3269 172.937 99.2445 171.745 99.9206L172.283 100.74Z" fill="url(#paint8_linear_533_1504)"/>
<path d="M172.987 94.4864H167.117C167.092 94.4863 167.068 94.4911 167.045 94.5005C167.022 94.5099 167.001 94.5238 166.984 94.5413C166.966 94.5589 166.952 94.5797 166.943 94.6027C166.933 94.6256 166.928 94.6502 166.928 94.6751V99.1526C166.928 99.7783 167.175 100.378 167.616 100.821C168.056 101.263 168.653 101.512 169.275 101.512H170.826C171.448 101.512 172.045 101.263 172.485 100.821C172.925 100.378 173.172 99.7783 173.172 99.1526V94.6751C173.172 94.6255 173.153 94.5778 173.118 94.5425C173.084 94.5072 173.037 94.487 172.987 94.4864Z" fill="url(#paint9_linear_533_1504)"/>
<path d="M168.959 83.6613C169.01 83.7098 168.523 84.0716 168.197 84.9266C168.009 85.4209 167.932 85.9505 167.97 86.4782C167.987 86.7864 168.049 87.0904 168.154 87.3807C168.258 87.6924 168.416 87.9834 168.62 88.2406C168.822 88.5081 169.085 88.737 169.316 88.9988C169.556 89.2524 169.736 89.5561 169.846 89.8882C170.046 90.5446 169.905 91.1559 169.717 91.5982C169.568 91.952 169.349 92.2719 169.074 92.5385C168.88 92.7247 168.748 92.792 168.732 92.7764C168.717 92.7608 168.814 92.6509 168.971 92.4482C169.189 92.1642 169.361 91.847 169.481 91.5087C169.627 91.0903 169.719 90.5364 169.532 89.9941C169.429 89.7108 169.267 89.4532 169.056 89.2392C168.839 88.998 168.57 88.769 168.339 88.4671C168.11 88.178 167.935 87.8501 167.822 87.4989C167.712 87.1766 167.651 86.8394 167.641 86.4987C167.615 85.925 167.725 85.3534 167.963 84.8314C168.119 84.4813 168.341 84.165 168.616 83.9001C168.816 83.7163 168.946 83.6441 168.959 83.6613Z" fill="#A1C6E5"/>
<path d="M171.873 82.817C171.891 82.8342 171.801 82.968 171.628 83.1986C171.456 83.4291 171.192 83.7549 170.916 84.1832C170.64 84.6115 170.357 85.1489 170.263 85.7963C170.208 86.1287 170.22 86.4687 170.297 86.7965C170.39 87.1452 170.559 87.4686 170.792 87.7434C171.029 88.042 171.3 88.3177 171.539 88.6197C171.872 89.0088 172.091 89.4841 172.169 89.9918C172.247 90.4994 172.182 91.019 171.982 91.4914C171.827 91.8908 171.574 92.2444 171.247 92.5195C171.16 92.5941 171.065 92.6578 170.963 92.7091C170.894 92.7444 170.855 92.7583 170.849 92.7477C170.842 92.737 170.868 92.7033 170.921 92.65C171.002 92.5766 171.079 92.4991 171.152 92.4178C171.417 92.1256 171.618 91.7799 171.741 91.4037C171.929 90.8556 171.937 90.2617 171.765 89.7085C171.655 89.3886 171.484 89.093 171.263 88.8379C171.036 88.5581 170.763 88.2849 170.508 87.9641C170.244 87.6487 170.054 87.2769 169.953 86.8769C169.87 86.5034 169.863 86.1167 169.934 85.7405C170.06 85.0258 170.396 84.458 170.705 84.0355C170.952 83.7039 171.225 83.3925 171.521 83.1042C171.73 82.9032 171.854 82.8006 171.873 82.817Z" fill="#A1C6E5"/>
<path fill-rule="evenodd" clip-rule="evenodd" d="M75.9055 87.6564C77.7829 86.8416 78.0784 88.9487 77.245 90.6102C76.6818 91.7352 74.6502 94.6135 73.2822 97.0628H71.7207C72.2513 93.3573 73.9654 88.4982 75.9055 87.6564Z" fill="#1F2A83"/>
<path fill-rule="evenodd" clip-rule="evenodd" d="M72.2778 97.0628C73.6091 92.5738 76.6758 88.344 76.6856 88.3268C76.6918 88.318 76.6997 88.3105 76.7089 88.3048C76.718 88.299 76.7282 88.2952 76.7388 88.2934C76.7494 88.2917 76.7603 88.2921 76.7708 88.2946C76.7812 88.297 76.7911 88.3016 76.7998 88.3079C76.8174 88.3205 76.8294 88.3395 76.8331 88.3609C76.8367 88.3822 76.8318 88.4042 76.8194 88.422C76.8072 88.4392 73.7732 92.6255 72.4452 97.0628H72.2778Z" fill="white"/>
<path fill-rule="evenodd" clip-rule="evenodd" d="M71.9424 81.0004C70.052 79.137 68.7591 81.4993 69.0236 83.8722C69.2733 86.1229 71.4559 93.8455 71.1955 97.0931H71.9399C73.6385 92.9315 74.3633 83.3856 71.9424 81.0004Z" fill="#00D569"/>
<path fill-rule="evenodd" clip-rule="evenodd" d="M71.6665 97.0939C73.2385 90.5298 70.7139 81.4541 70.7058 81.4221C70.6991 81.3941 70.6818 81.3698 70.6576 81.3544C70.6333 81.3391 70.604 81.3339 70.576 81.3401C70.5627 81.3433 70.5502 81.3492 70.5392 81.3574C70.5283 81.3656 70.5191 81.376 70.5122 81.3879C70.5054 81.3998 70.501 81.4129 70.4993 81.4266C70.4976 81.4402 70.4987 81.4541 70.5025 81.4673C70.5107 81.4976 73.0385 90.5856 71.451 97.0873L71.6665 97.0939Z" fill="white"/>
<path fill-rule="evenodd" clip-rule="evenodd" d="M67.2885 85.121C65.3059 84.1692 64.9214 86.4084 65.7679 88.2201C66.4658 89.7224 69.441 94.1335 70.6254 96.9922L71.6049 96.9585C71.4987 92.9544 69.6287 86.241 67.2885 85.121Z" fill="#1B65F8"/>
<path fill-rule="evenodd" clip-rule="evenodd" d="M71.2489 96.9708C70.3511 91.5817 66.4453 85.8242 66.4331 85.8037C66.42 85.7843 66.3999 85.7708 66.377 85.766C66.3541 85.7613 66.3303 85.7657 66.3107 85.7782C66.3011 85.7846 66.2929 85.7928 66.2866 85.8024C66.2802 85.812 66.2758 85.8227 66.2736 85.834C66.2714 85.8453 66.2714 85.8569 66.2737 85.8682C66.276 85.8795 66.2805 85.8902 66.287 85.8997C66.3009 85.9202 70.1788 91.6433 71.0767 96.9766L71.2489 96.9708Z" fill="white"/>
<path d="M69.1279 96.2628H74.96C75.0442 96.2628 75.125 96.2964 75.1845 96.3562C75.2441 96.4161 75.2775 96.4973 75.2775 96.5819V98.0293C75.2775 98.0711 75.2693 98.1125 75.2534 98.1511C75.2375 98.1898 75.2142 98.2249 75.1848 98.2544C75.1554 98.284 75.1204 98.3074 75.082 98.3234C75.0436 98.3394 75.0024 98.3477 74.9608 98.3477H69.1295C69.0453 98.3477 68.9646 98.314 68.905 98.2542C68.8455 98.1943 68.812 98.1131 68.812 98.0285V96.5795C68.8124 96.4955 68.8459 96.415 68.9051 96.3557C68.9642 96.2964 69.0443 96.263 69.1279 96.2628Z" fill="#FFC266"/>
<path fill-rule="evenodd" clip-rule="evenodd" d="M73.9592 97.4402H70.1278L69.1279 98.3477L69.945 101.512H72.0435H74.1421L74.9591 98.3477L73.9592 97.4402Z" fill="#FFC266"/>
<path fill-rule="evenodd" clip-rule="evenodd" d="M69.1279 98.3477L69.2961 98.9984H74.7918L74.9591 98.3477H69.1279Z" fill="#D18B00"/>
<path fill-rule="evenodd" clip-rule="evenodd" d="M139.04 126.446H142.804L149.007 115.251L156.397 115.546L149.132 127.908C149.043 128.088 148.906 128.238 148.737 128.343C148.567 128.447 148.371 128.502 148.172 128.5H139.04V126.446Z" fill="#75A5C6"/>
<path fill-rule="evenodd" clip-rule="evenodd" d="M138.507 126.446H141.451L148.372 114.582C148.467 114.423 148.602 114.292 148.763 114.201C148.923 114.11 149.105 114.063 149.29 114.065H155.451C155.59 114.057 155.729 114.077 155.86 114.125C155.99 114.173 156.11 114.248 156.211 114.344C156.312 114.44 156.393 114.555 156.448 114.684C156.503 114.812 156.531 114.95 156.531 115.09C156.531 115.23 156.503 115.368 156.448 115.497C156.393 115.625 156.312 115.741 156.211 115.837C156.11 115.933 155.99 116.007 155.86 116.055C155.729 116.103 155.59 116.124 155.451 116.116H149.901L143.02 127.91C142.932 128.089 142.795 128.239 142.625 128.344C142.456 128.448 142.261 128.503 142.062 128.502H138.504L138.507 126.446Z" fill="#A1C6E5"/>
<path fill-rule="evenodd" clip-rule="evenodd" d="M186.248 105.105L189.87 171.089H188.263L183.394 108.212H156.115L151.247 171.089H149.639L153.262 105.105H186.248Z" fill="#3F4154"/>
<path fill-rule="evenodd" clip-rule="evenodd" d="M169.588 101.512H64.2298C63.3009 101.512 62.541 102.414 62.541 103.515C62.541 104.617 63.3009 105.519 64.2298 105.519H169.588C170.517 105.519 171.277 104.616 171.277 103.515C171.277 102.413 170.517 101.512 169.588 101.512Z" fill="#A1C6E5"/>
<path fill-rule="evenodd" clip-rule="evenodd" d="M187.667 101.512H143.093C142.164 101.512 141.404 102.414 141.404 103.515C141.404 104.617 142.164 105.519 143.093 105.519H187.667C188.596 105.519 189.356 104.616 189.356 103.515C189.358 102.413 188.598 101.512 187.667 101.512Z" fill="#6197B5"/>
<path d="M66.1685 13.5575C65.7514 13.1809 65.4551 12.7132 65.1841 12.2275C64.5337 11.0764 64.2284 9.76074 64.305 8.43917C64.38 7.0152 64.8811 5.64718 65.7426 4.51429C66.6041 3.38139 67.7858 2.53643 69.1331 2.09004C69.9602 1.80549 70.8351 1.6881 71.7075 1.7446C73.3595 1.85865 74.8149 2.45435 76.049 3.58584C77.2101 4.62719 77.9823 6.03623 78.2374 7.57927C78.5859 9.61087 78.1133 11.4595 76.8849 13.1112C76.7734 13.2809 76.6356 13.4316 76.4767 13.5575C76.3899 13.2615 76.2453 12.9857 76.0515 12.7462C75.8578 12.5068 75.6186 12.3084 75.3479 12.1627C74.9012 11.9107 74.435 11.6955 73.9537 11.5194C73.6934 11.4267 73.4436 11.2954 73.162 11.2691C72.8078 10.9721 72.7474 10.5799 72.7727 10.1442C72.7825 9.96533 72.8282 9.91364 73.0004 9.92923C73.473 9.97271 73.7636 9.72 73.9423 9.30892C74.0961 8.93204 74.1909 8.53345 74.2231 8.12738C74.2944 7.34673 74.293 6.5611 74.219 5.78071C74.5504 5.59035 74.7969 5.33681 74.8663 4.93968C74.97 4.34563 74.5569 3.7286 74.0239 3.77619C73.7064 3.80409 73.5342 3.74255 73.2975 3.50953C72.7947 3.01065 71.8201 3.03855 71.2683 3.48819C71.2006 3.54317 71.1606 3.57517 71.0741 3.51281C70.8508 3.36267 70.5797 3.30207 70.3141 3.34296C69.7803 3.40122 69.3167 3.60142 69.0482 4.09784C68.9355 4.30543 68.8719 4.51794 68.698 4.71158C68.3511 5.09722 68.4801 5.62973 68.9184 5.91937C68.9723 5.95466 69.0204 5.97927 69.0278 6.05476C69.1167 7.02707 69.6065 7.87548 69.8693 8.79445C69.8693 9.30235 69.8554 9.81189 69.8799 10.319C69.8962 10.498 69.8686 10.6784 69.7996 10.8443C69.7306 11.0102 69.6223 11.1566 69.484 11.2708C69.4269 11.2437 69.3787 11.2765 69.3281 11.2929C68.848 11.4482 68.3771 11.6309 67.9177 11.8402C67.1284 12.2012 66.4166 12.641 66.1685 13.5575Z" fill="#5BC272"/>
<path d="M73.1604 11.2667C73.442 11.2929 73.6918 11.4242 73.9522 11.5169C74.4334 11.6931 74.8997 11.9082 75.3463 12.1602C75.617 12.306 75.8562 12.5043 76.05 12.7438C76.2438 12.9832 76.3883 13.259 76.4752 13.5551C76.1291 14.0195 75.6737 14.3608 75.2019 14.6784C73.9342 15.5449 72.4131 15.957 70.8839 15.8484C69.067 15.7327 67.5104 15.0008 66.2444 13.6708C66.2153 13.6349 66.1898 13.5961 66.1685 13.5551C66.4133 12.6386 67.1284 12.1988 67.916 11.832C68.3754 11.6227 68.8464 11.44 69.3265 11.2847C69.3771 11.2683 69.4253 11.2355 69.4824 11.2626C69.5755 11.5087 69.782 11.6433 70.0015 11.7393C70.4174 11.9275 70.8682 12.0248 71.3243 12.0248C71.7803 12.0248 72.2312 11.9275 72.647 11.7393C72.8658 11.6564 73.0739 11.5177 73.1604 11.2667ZM71.1386 14.8211C71.1214 14.9475 71.2055 14.9976 71.3149 15.0058C71.3383 15.0093 71.3622 15.0077 71.3849 15.0011C71.4076 14.9945 71.4287 14.983 71.4465 14.9673C71.4644 14.9517 71.4786 14.9324 71.4883 14.9107C71.498 14.889 71.5029 14.8654 71.5026 14.8417C71.5092 14.7095 71.4283 14.648 71.2977 14.6414C71.1671 14.6349 71.141 14.7087 71.1386 14.8211ZM71.1386 13.9046C71.1386 14.0187 71.19 14.0761 71.3084 14.0687C71.4267 14.0613 71.5026 14.0014 71.5026 13.8833C71.5049 13.8578 71.5014 13.8321 71.4923 13.8082C71.4833 13.7842 71.4689 13.7627 71.4504 13.7451C71.4318 13.7276 71.4095 13.7145 71.3852 13.7069C71.3609 13.6993 71.3352 13.6973 71.31 13.7011C71.285 13.7018 71.2604 13.7078 71.2378 13.7187C71.2152 13.7296 71.1952 13.7451 71.179 13.7643C71.1628 13.7836 71.1509 13.806 71.1439 13.8301C71.1369 13.8543 71.1351 13.8797 71.1386 13.9046ZM71.3263 12.7559C71.2792 12.7545 71.2334 12.7717 71.1987 12.8037C71.1639 12.8357 71.143 12.8801 71.1402 12.9274C71.1381 12.9523 71.1411 12.9774 71.149 13.0011C71.1568 13.0248 71.1695 13.0466 71.1861 13.0652C71.2027 13.0838 71.2229 13.0988 71.2455 13.1093C71.2681 13.1197 71.2926 13.1254 71.3175 13.126C71.3424 13.1265 71.3671 13.122 71.3901 13.1125C71.4131 13.1031 71.434 13.0891 71.4515 13.0712C71.4689 13.0534 71.4825 13.0322 71.4914 13.0088C71.5004 12.9855 71.5045 12.9606 71.5034 12.9356C71.5035 12.888 71.4849 12.8423 71.4518 12.8082C71.4187 12.7742 71.3737 12.7545 71.3263 12.7534V12.7559Z" fill="url(#paint10_linear_533_1504)"/>
<path d="M73.1604 11.2666C73.0739 11.5177 72.8657 11.6523 72.647 11.7466C72.2311 11.9349 71.7803 12.0322 71.3243 12.0322C70.8682 12.0322 70.4174 11.9349 70.0015 11.7466C69.782 11.6506 69.5755 11.5169 69.4824 11.2699C69.6207 11.1558 69.729 11.0094 69.798 10.8435C69.867 10.6776 69.8946 10.4972 69.8783 10.3181C69.8538 9.81105 69.8693 9.30151 69.8677 8.79362C70.0432 8.6648 70.2407 8.55649 70.3109 8.32921C70.3468 8.21516 70.3754 8.10357 70.2146 8.04285C69.9899 7.95278 69.804 7.78585 69.6898 7.57149C69.5756 7.35713 69.5403 7.10911 69.5902 6.87116C69.6069 6.78246 69.6469 6.69988 69.7061 6.63197C69.7653 6.56406 69.8414 6.51329 69.9267 6.48491C70.0119 6.45654 70.1032 6.4516 70.191 6.47061C70.2788 6.48961 70.3599 6.53187 70.426 6.593C70.4848 6.64387 70.5321 6.7087 70.5892 6.75711C70.7264 6.86705 70.8627 7.0369 71.0586 6.93598C71.2545 6.83505 71.1859 6.63403 71.1753 6.46746C71.1508 6.09085 71.1655 6.07198 71.5516 6.06787C72.4494 6.05803 73.3473 6.05228 74.2141 5.77905C74.2881 6.55944 74.2895 7.34507 74.2182 8.12572C74.186 8.53179 74.0912 8.93038 73.9374 9.30726C73.7587 9.71752 73.4681 9.97105 72.9955 9.92757C72.8233 9.91198 72.7776 9.96367 72.7678 10.1425C72.7457 10.5774 72.8061 10.9696 73.1604 11.2666Z" fill="#FFC0BF"/>
<path d="M74.2171 5.77826C73.3486 6.05149 72.4516 6.05724 71.5546 6.06708C71.1685 6.07119 71.1538 6.09006 71.1783 6.46667C71.1889 6.63077 71.2493 6.83836 71.0616 6.93518C70.8739 7.032 70.7294 6.86626 70.5923 6.75631C70.5319 6.70708 70.4845 6.64226 70.429 6.59221C70.3629 6.53108 70.2818 6.48882 70.194 6.46982C70.1062 6.45081 70.0149 6.45575 69.9297 6.48412C69.8444 6.51249 69.7683 6.56327 69.7091 6.63118C69.65 6.69909 69.6099 6.78167 69.5932 6.87037C69.5433 7.10832 69.5786 7.35634 69.6928 7.5707C69.807 7.78505 69.9929 7.95199 70.2176 8.04206C70.3808 8.10278 70.3498 8.21436 70.3139 8.32842C70.2437 8.5557 70.0462 8.66401 69.8707 8.79283C69.6079 7.87385 69.1181 7.02544 69.0292 6.05313C69.0218 5.97765 68.9737 5.95303 68.9198 5.91775C68.4815 5.62811 68.3484 5.09724 68.6994 4.70995C68.8733 4.51631 68.9369 4.3038 69.0496 4.09621C69.3181 3.5998 69.7842 3.3996 70.3156 3.34134C70.5811 3.30045 70.8522 3.36105 71.0755 3.51119C71.162 3.57355 71.202 3.54154 71.2697 3.48657C71.8215 3.03693 72.7961 3.00903 73.2989 3.5079C73.5347 3.74093 73.707 3.80247 74.0253 3.77457C74.5583 3.72698 74.9713 4.34401 74.8677 4.93806C74.795 5.33847 74.5485 5.58462 74.2171 5.77826Z" fill="#18011E"/>
<defs>
<linearGradient id="paint0_linear_533_1504" x1="2118.45" y1="59653.9" x2="4998.2" y2="62179.2" gradientUnits="userSpaceOnUse">
<stop stop-color="#FA655C"/>
<stop offset="1" stop-color="#FFBF8A"/>
</linearGradient>
<linearGradient id="paint1_linear_533_1504" x1="2124.89" y1="59652.8" x2="5004.61" y2="62178.4" gradientUnits="userSpaceOnUse">
<stop stop-color="#FA655C"/>
<stop offset="1" stop-color="#FFBF8A"/>
</linearGradient>
<linearGradient id="paint2_linear_533_1504" x1="1298.1" y1="13164.3" x2="1767" y2="14239" gradientUnits="userSpaceOnUse">
<stop stop-color="#FA655C"/>
<stop offset="1" stop-color="#FFBF8A"/>
</linearGradient>
<linearGradient id="paint3_linear_533_1504" x1="493.813" y1="11109.3" x2="1025.7" y2="11559.8" gradientUnits="userSpaceOnUse">
<stop stop-color="#FA655C"/>
<stop offset="1" stop-color="#FFBF8A"/>
</linearGradient>
<linearGradient id="paint4_linear_533_1504" x1="2017" y1="59109.3" x2="4845.83" y2="61434.1" gradientUnits="userSpaceOnUse">
<stop stop-color="#FA655C"/>
<stop offset="1" stop-color="#FFBF8A"/>
</linearGradient>
<linearGradient id="paint5_linear_533_1504" x1="735.091" y1="33573.3" x2="1972.17" y2="34138.5" gradientUnits="userSpaceOnUse">
<stop stop-color="#FA655C"/>
<stop offset="1" stop-color="#FFBF8A"/>
</linearGradient>
<linearGradient id="paint6_linear_533_1504" x1="1517.89" y1="43432.8" x2="3594.39" y2="45134.8" gradientUnits="userSpaceOnUse">
<stop stop-color="#FA655C"/>
<stop offset="1" stop-color="#FFBF8A"/>
</linearGradient>
<linearGradient id="paint7_linear_533_1504" x1="1253.46" y1="34585.6" x2="2910.73" y2="35963.1" gradientUnits="userSpaceOnUse">
<stop stop-color="#FA655C"/>
<stop offset="1" stop-color="#FFBF8A"/>
</linearGradient>
<linearGradient id="paint8_linear_533_1504" x1="738.796" y1="25390.5" x2="1808.21" y2="26007.8" gradientUnits="userSpaceOnUse">
<stop stop-color="#FA655C"/>
<stop offset="1" stop-color="#FFBF8A"/>
</linearGradient>
<linearGradient id="paint9_linear_533_1504" x1="1098.94" y1="31808.6" x2="2588.99" y2="32936.3" gradientUnits="userSpaceOnUse">
<stop stop-color="#FA655C"/>
<stop offset="1" stop-color="#FFBF8A"/>
</linearGradient>
<linearGradient id="paint10_linear_533_1504" x1="1604.56" y1="20836.9" x2="2442.03" y2="22430.1" gradientUnits="userSpaceOnUse">
<stop stop-color="#FA655C"/>
<stop offset="1" stop-color="#FFBF8A"/>
</linearGradient>
</defs>
</svg>
