<svg width="246" height="180" viewBox="0 0 246 180" fill="none" xmlns="http://www.w3.org/2000/svg">
<rect x="21.1577" y="18" width="223.932" height="160.803" rx="15" fill="#F4F9F5"/>
<g clip-path="url(#clip0_533_1505)">
<path d="M157.798 129.444C169.386 119.68 159.597 117.434 148.177 118.493C153.263 111.709 149.419 105.97 135.303 100.403C128.967 97.905 121.63 100.274 114.592 104.844C108.065 92.977 99.8526 85.1834 91.364 90.5304C84.3504 94.9589 79.2776 100.016 76.2607 105.204C73.93 104.374 71.4315 103.624 68.7653 102.957C62.9724 101.506 58.8873 103.367 56.1247 107.176C44.5122 100.757 32.9799 97.4028 26.7346 103.072C15.8742 112.931 14.8811 120.587 22.9039 127.382C11.5242 128.805 3.23369 133.738 18.8376 142.531C5.18518 142.045 -4.39025 144.481 2.04245 153.211C16.3909 172.682 77.3984 170.893 122.106 157.576C150.621 153.375 174.039 145.356 177.896 134.515C180.745 126.544 170.677 126.479 157.798 129.444Z" fill="#EAF4FE"/>
<path d="M78.3005 118.208C95.6391 125.894 107.08 141.47 110.389 158.985C95.2563 168.329 76.0706 170.329 58.724 162.646C41.3774 154.962 29.9469 139.381 26.6436 121.866C41.7763 112.523 60.962 110.524 78.3005 118.208Z" fill="#C5E1F9"/>
<path d="M33.3628 124.527L107.329 157.312" stroke="white" stroke-width="1.78" stroke-miterlimit="10"/>
<path d="M48.5812 131.381L36.1709 137.257" stroke="white" stroke-width="1.78" stroke-miterlimit="10"/>
<path d="M61.1921 136.969L45.896 144.212" stroke="white" stroke-width="1.78" stroke-miterlimit="10"/>
<path d="M73.8036 142.558L48.2334 154.67" stroke="white" stroke-width="1.78" stroke-miterlimit="10"/>
<path d="M86.4171 148.149L61.543 159.933" stroke="white" stroke-width="1.78" stroke-miterlimit="10"/>
<path d="M99.0309 153.738L85.1777 160.299" stroke="white" stroke-width="1.78" stroke-miterlimit="10"/>
<path d="M47.157 130.481L43.1309 117.319" stroke="white" stroke-width="1.78" stroke-miterlimit="10"/>
<path d="M59.7682 136.072L53.4961 115.552" stroke="white" stroke-width="1.78" stroke-miterlimit="10"/>
<path d="M72.3791 141.664L64.5249 115.976" stroke="white" stroke-width="1.78" stroke-miterlimit="10"/>
<path d="M84.9904 147.252L76.9248 120.867" stroke="white" stroke-width="1.78" stroke-miterlimit="10"/>
<path d="M97.6039 152.844L90.6733 130.177" stroke="white" stroke-width="1.78" stroke-miterlimit="10"/>
<path d="M114.718 113.653C126.582 130.964 128.346 152.272 121.333 170.668C101.7 170.652 82.5009 161.376 70.634 144.062C58.7671 126.748 57.0057 105.446 64.0139 87.0392C83.6493 87.0634 102.851 96.342 114.718 113.653Z" fill="#C5E1F9"/>
<path d="M68.8003 93.4604L119.421 167.311" stroke="white" stroke-width="1.97" stroke-miterlimit="10"/>
<path d="M79.1518 108.755L64.0859 107.065" stroke="white" stroke-width="1.97" stroke-miterlimit="10"/>
<path d="M87.7851 121.345L69.2124 119.263" stroke="white" stroke-width="1.97" stroke-miterlimit="10"/>
<path d="M96.4154 133.94L65.3682 130.457" stroke="white" stroke-width="1.97" stroke-miterlimit="10"/>
<path d="M105.048 146.532L74.8418 143.149" stroke="white" stroke-width="1.97" stroke-miterlimit="10"/>
<path d="M113.679 159.125L96.8599 157.24" stroke="white" stroke-width="1.97" stroke-miterlimit="10"/>
<path d="M78.3325 107.082L82.1498 92.3646" stroke="white" stroke-width="1.97" stroke-miterlimit="10"/>
<path d="M86.9604 119.677L92.9193 96.726" stroke="white" stroke-width="1.97" stroke-miterlimit="10"/>
<path d="M95.5962 132.269L103.051 103.542" stroke="white" stroke-width="1.97" stroke-miterlimit="10"/>
<path d="M104.224 144.859L111.886 115.353" stroke="white" stroke-width="1.97" stroke-miterlimit="10"/>
<path d="M112.86 157.455L119.434 132.106" stroke="white" stroke-width="1.97" stroke-miterlimit="10"/>
<path d="M53.4639 171.777C51.2072 168.299 53.9993 165.331 64.7231 163.768C76.4187 162.052 87.5896 163.231 96.7795 165.345C75.0963 154.809 49.8313 140.012 72.9038 138.301C80.0995 137.764 91.1633 141.255 103.469 146.723C89.7418 135.514 82.1875 126.313 90.5048 124.591C98.2277 123.002 113.971 132.111 130.731 144.218C121.18 134.077 115.647 125.228 119.93 121.055C123.431 117.647 130.905 121.559 139.487 128.802C139.105 122.43 141.774 118.597 147.861 119.357C153.59 120.082 158.229 127.457 161.543 136.303C167.036 122.583 181.55 114.193 196.191 118.358C213.387 123.251 199.574 156.141 191.878 171.777H53.4639Z" fill="#5BC272"/>
<path d="M110.352 159.2C110.258 159.122 110.167 159.058 110.084 158.991C110.132 158.975 110.18 158.959 110.229 158.937C111.516 158.432 112.343 157.476 112.081 156.789C111.819 156.101 110.561 155.983 109.278 156.485C109.169 156.526 109.062 156.573 108.957 156.625C108.957 156.574 108.979 156.523 108.987 156.469C109.193 155.099 108.78 153.904 108.068 153.784C107.356 153.663 106.612 154.697 106.403 156.066C106.387 156.184 106.377 156.3 106.363 156.413C106.326 156.38 106.288 156.346 106.245 156.313C105.175 155.451 103.93 155.207 103.475 155.776C103.02 156.346 103.536 157.5 104.615 158.362C104.709 158.438 104.8 158.507 104.883 158.572L104.741 158.623C103.453 159.128 102.623 160.084 102.886 160.755C103.148 161.427 104.406 161.561 105.689 161.061C105.798 161.023 105.905 160.975 106.007 160.919C106.007 160.975 105.991 161.024 105.983 161.077C105.774 162.447 106.186 163.645 106.901 163.763C107.616 163.881 108.357 162.85 108.564 161.48C108.583 161.362 108.597 161.247 108.604 161.134L108.722 161.236C109.792 162.098 111.04 162.342 111.49 161.773C111.939 161.204 111.431 160.062 110.352 159.2ZM107.273 160.132C107.009 160.091 106.763 159.973 106.566 159.792C106.369 159.611 106.23 159.375 106.166 159.115C106.102 158.854 106.117 158.581 106.208 158.329C106.3 158.077 106.463 157.857 106.679 157.699C106.894 157.54 107.152 157.449 107.419 157.437C107.686 157.425 107.95 157.493 108.179 157.632C108.408 157.77 108.59 157.974 108.703 158.217C108.817 158.46 108.856 158.731 108.815 158.996C108.788 159.172 108.727 159.342 108.635 159.494C108.543 159.647 108.422 159.779 108.279 159.885C108.136 159.99 107.973 160.066 107.801 160.109C107.628 160.151 107.449 160.159 107.273 160.132Z" fill="white"/>
<path d="M195.042 133.841C195.87 131.9 197.334 130.302 199.191 129.31C200.518 128.59 201.888 127.952 203.292 127.401C202.559 128.743 201.997 129.981 200.452 131.225C198.907 132.468 197.146 133.201 195.042 133.841Z" fill="#C5E1F9"/>
<path d="M187.346 137.396C187.346 137.396 189.68 133.282 189.774 129.581C189.868 125.88 189.319 124.256 189.327 124.258C189.335 124.261 187.389 127.86 187.073 131.41C186.725 135.404 187.341 137.391 187.346 137.396Z" fill="#C5E1F9"/>
<path d="M174.475 153.416C174.475 153.432 175.11 149.172 174.55 147.432C174.159 146.282 173.643 145.179 173.011 144.142C173.032 144.175 171.699 149.564 174.475 153.416Z" fill="#C5E1F9"/>
<path d="M176.472 151.197C176.472 151.213 179.103 146.363 179.387 143.057C179.671 139.751 178.563 138.578 178.568 138.581C178.632 138.642 174.293 147.435 176.472 151.197Z" fill="#C5E1F9"/>
<path d="M195.538 129.78C195.538 129.78 196.983 124.006 200.23 118.769C203.71 113.129 205.116 112.794 205.126 112.802C205.137 112.81 202.749 122.757 195.538 129.78Z" fill="#C5E1F9"/>
<path d="M189.873 143.275C189.889 143.275 193.674 139.491 197.401 137.342C201.127 135.194 202.755 135.017 202.755 135.022C202.811 135.033 197.422 141.605 189.873 143.275Z" fill="#C5E1F9"/>
<path d="M176.649 158.105C176.649 158.105 180.53 155.653 184.923 155.22C189.316 154.788 191.506 155.594 191.506 155.596C191.557 155.618 185.558 159.571 176.649 158.105Z" fill="#C5E1F9"/>
<path d="M189.086 145.176C189.086 145.176 191.881 144.352 194.56 144.594C197.296 144.846 198.814 145.772 198.814 145.772C198.814 145.772 192.794 147.365 189.086 145.176Z" fill="#C5E1F9"/>
<path d="M152.944 172.306C155.538 171.119 169.26 162.533 179.379 151.358C185.344 145.324 191.372 137.192 196.343 128.464C196.472 128.236 196.549 128.096 196.573 128.061L196.399 127.94L196.616 127.967L196.469 127.731C196.292 127.674 196.287 127.683 195.96 128.268C191.008 136.964 185.006 145.063 179.061 151.079C168.977 162.197 155.338 170.735 152.76 171.914L152.944 172.306Z" fill="#C5E1F9"/>
<path d="M189.645 138.94C191.294 137.308 194.065 134.818 195.551 133.481C196.579 132.557 196.579 132.557 196.581 132.455H196.362L196.209 132.611L196.362 132.455L196.198 132.312C196.153 132.358 195.759 132.713 195.261 133.161C193.77 134.504 190.994 136.996 189.337 138.637L189.645 138.94Z" fill="#C5E1F9"/>
<path d="M178.156 152.742C181.251 150.171 186.275 146.342 189.935 143.546C193.993 140.452 193.993 140.447 194.012 140.297L193.966 140.13L193.623 140.399L193.795 140.264L193.621 140.133C193.482 140.289 191.715 141.634 189.67 143.194C186 145.993 180.97 149.825 177.87 152.4L178.156 152.742Z" fill="#C5E1F9"/>
<path d="M185.989 143.801C186.537 141.862 187.276 138.838 187.568 137.624C188.521 133.682 188.521 133.682 188.318 133.596L188.13 133.994L188.224 133.795H188.007C187.975 134.096 186.468 140.509 185.568 143.699L185.989 143.801Z" fill="#C5E1F9"/>
<path d="M172.85 157.849C175.091 155.065 176.649 151.792 177.401 148.294L176.976 148.2C176.236 151.63 174.706 154.838 172.508 157.567L172.85 157.849Z" fill="#C5E1F9"/>
<path d="M173.073 157.492L173.161 157.337C173.619 156.531 174.569 154.89 174.604 151.651H174.167C174.133 154.774 173.255 156.303 172.783 157.122L172.692 157.283L173.073 157.492Z" fill="#C5E1F9"/>
<path d="M166.709 163.057C171.311 159.952 178.6 157.637 181.524 156.786C181.751 156.719 181.751 156.719 181.791 156.668L181.462 156.38L181.628 156.525L181.553 156.319L181.398 156.364C178.453 157.221 171.116 159.555 166.46 162.694L166.709 163.057Z" fill="#C5E1F9"/>
<path d="M166.509 169.303C166.509 169.303 170.39 166.849 174.783 166.419C179.176 165.989 181.366 166.79 181.366 166.795C181.414 166.814 175.415 170.767 166.509 169.303Z" fill="#C5E1F9"/>
<path d="M156.567 174.256C161.168 171.148 168.458 168.833 171.378 167.982C171.608 167.915 171.608 167.915 171.646 167.867L171.483 167.722L171.408 167.515L171.252 167.563C168.308 168.42 160.97 170.751 156.315 173.89L156.567 174.256Z" fill="#C5E1F9"/>
<path d="M156.141 152.392L151.893 147.137C152.316 146.904 152.765 146.724 153.231 146.6C155.814 145.896 158.515 145.633 161.045 146.087L160.673 150.115L162.121 146.331C164.719 147.024 166.993 148.609 168.546 150.811C168.792 151.169 169.021 151.527 169.231 151.885L163.856 155.376L170.013 153.472C171.994 158.327 170.96 163.978 166.241 165.71L161.107 160.659L164.255 166.175C160.935 166.594 157.929 166.787 155.437 166.406L155.817 163.476L154.628 166.258C152.048 165.699 150.099 164.416 149.044 161.948C148.653 161.046 148.355 160.107 148.156 159.144L154.543 157.441L147.885 157.342C147.572 153.929 148.354 150.424 150.369 148.321L156.141 152.392Z" fill="#DBEBFC"/>
<path d="M160.33 159.939C158.561 160.728 156.481 159.797 156.01 158.615C155.539 157.433 155.857 155.244 157.118 154.302C158.432 153.464 160.48 154.326 161.401 155.545C162.322 156.765 162.046 159.05 160.33 159.939Z" fill="#0450CF"/>
<path d="M154.968 154.334C155.431 154.871 155.648 155.438 155.257 155.878C154.867 156.319 154.088 156.582 153.721 156.163C153.521 155.967 153.386 155.714 153.335 155.438C153.283 155.162 153.317 154.877 153.432 154.621C153.732 154.052 154.505 153.797 154.968 154.334Z" fill="#F5FAFF"/>
<path d="M159.412 150.789C159.805 151.393 160.041 151.912 159.696 152.312C159.318 152.76 158.547 153.015 158.183 152.597C157.819 152.178 157.605 151.627 157.899 151.074C158.226 150.475 159.013 150.185 159.412 150.789Z" fill="#F5FAFF"/>
<path d="M159.249 159.864C159.824 160.352 159.854 161.239 159.516 161.607C159.179 161.974 158.365 162.232 157.825 161.95C157.284 161.668 157.26 160.766 157.53 160.24C157.613 160.096 157.725 159.971 157.858 159.873C157.992 159.775 158.145 159.706 158.307 159.67C158.468 159.635 158.636 159.634 158.798 159.667C158.96 159.7 159.114 159.767 159.249 159.864V159.864Z" fill="#F5FAFF"/>
<path d="M161.281 159.622C161.066 159.085 160.967 158.639 161.302 158.381C161.637 158.123 162.317 158.011 162.536 158.4C162.665 158.582 162.733 158.801 162.729 159.025C162.726 159.248 162.652 159.465 162.517 159.643C162.164 160.062 161.495 160.162 161.281 159.622Z" fill="#F5FAFF"/>
<path d="M161.489 155.937C161.114 155.459 161.221 154.758 161.553 154.522C161.76 154.388 162.001 154.317 162.247 154.317C162.493 154.317 162.733 154.388 162.94 154.522C163.296 154.855 163.208 155.545 162.897 155.913C162.809 156.012 162.702 156.092 162.581 156.147C162.461 156.202 162.331 156.232 162.198 156.234C162.066 156.237 161.935 156.211 161.813 156.16C161.691 156.109 161.581 156.033 161.489 155.937Z" fill="#F5FAFF"/>
<path d="M154.661 154.686L154.455 155.072L157.946 156.945L158.152 156.559L154.661 154.686Z" fill="#F5FAFF"/>
<path d="M158.925 151.878L158.494 151.945L159.018 155.318L159.449 155.25L158.925 151.878Z" fill="#F5FAFF"/>
<path d="M159.93 155.263L158.514 156.047L158.723 156.428L160.139 155.644L159.93 155.263Z" fill="#F5FAFF"/>
<path d="M160.334 157.544L160.118 157.924L161.644 158.796L161.86 158.416L160.334 157.544Z" fill="#F5FAFF"/>
<path d="M158.952 158.163L158.234 160.504L158.654 160.634L159.371 158.292L158.952 158.163Z" fill="#F5FAFF"/>
<path d="M167.935 144.295C167.951 144.295 166.415 140.283 165.076 139.042C164.176 138.231 163.189 137.523 162.132 136.932C162.164 136.948 163.634 142.3 167.935 144.295Z" fill="#C5E1F9"/>
<path d="M168.591 141.382C168.613 141.382 168.53 135.876 167.156 132.85C165.783 129.823 164.252 129.358 164.257 129.358C164.346 129.372 164.852 139.171 168.591 141.382Z" fill="#C5E1F9"/>
<path d="M168.685 148.958C169.278 145.428 169.041 141.808 167.992 138.387L167.571 138.513C168.604 141.867 168.838 145.416 168.257 148.877L168.685 148.958Z" fill="#C5E1F9"/>
<path d="M168.704 148.539V148.359C168.704 147.443 168.736 145.536 167.186 142.695L166.803 142.904C168.297 145.644 168.278 147.408 168.268 148.353V148.539H168.704Z" fill="#C5E1F9"/>
<path d="M161.655 64.322H163.51V58.1989H161.655V64.322Z" fill="#C5E1F9"/>
<path d="M161.655 80.3951H163.51V70.0637H161.655V80.3951Z" fill="#C5E1F9"/>
<path d="M161.655 92.6413H163.51V82.7879H161.655V92.6413Z" fill="#C5E1F9"/>
<path d="M95.2832 170.05C95.2903 172.688 96.3381 175.216 98.1977 177.081C100.057 178.946 102.577 179.996 105.207 180.003H152.888C155.517 179.995 158.036 178.944 159.895 177.079C161.754 175.214 162.801 172.687 162.809 170.05V50.0052C162.803 47.3664 161.757 44.837 159.898 42.97C158.039 41.1031 155.519 40.0503 152.888 40.0418H105.207C102.578 40.0496 100.06 41.1007 98.2011 42.9656C96.3427 44.8305 95.2956 47.3575 95.2886 49.9945L95.2832 170.05Z" fill="#C5E1F9"/>
<path d="M152.888 178.595C155.147 178.593 157.312 177.692 158.909 176.09C160.506 174.488 161.404 172.316 161.406 170.05V50.0052C161.405 47.739 160.507 45.566 158.91 43.9633C157.313 42.3606 155.147 41.4592 152.888 41.4571H105.207C102.948 41.4599 100.782 42.3615 99.1855 43.9641C97.5886 45.5666 96.6906 47.7392 96.6885 50.0052V170.05C96.6913 172.316 97.5897 174.487 99.1865 176.089C100.783 177.691 102.948 178.593 105.207 178.595H152.888Z" fill="#0E1C56"/>
<path d="M158.419 57.7182H99.6704V162.775H158.419V57.7182Z" fill="white"/>
<path d="M76.0708 130.191C75.4027 130.191 74.762 129.925 74.2896 129.451C73.8172 128.977 73.5518 128.334 73.5518 127.664V105.768C73.5518 105.437 73.6169 105.108 73.7436 104.802C73.8702 104.495 74.0558 104.217 74.2897 103.982C74.5237 103.748 74.8014 103.562 75.107 103.435C75.4126 103.309 75.7401 103.244 76.0708 103.244H107.967C108.634 103.244 109.274 103.51 109.747 103.983C110.219 104.456 110.485 105.099 110.486 105.768V127.664C110.485 128.334 110.219 128.976 109.747 129.45C109.275 129.924 108.634 130.19 107.967 130.191H76.0708Z" fill="#FFC266"/>
<path d="M76.0708 130.191C75.4027 130.191 74.762 129.925 74.2896 129.451C73.8172 128.977 73.5518 128.334 73.5518 127.664V105.768C73.5518 105.437 73.6169 105.108 73.7436 104.802C73.8702 104.495 74.0558 104.217 74.2897 103.982C74.5237 103.748 74.8014 103.562 75.107 103.435C75.4126 103.309 75.7401 103.244 76.0708 103.244H107.967C108.634 103.244 109.274 103.51 109.747 103.983C110.219 104.456 110.485 105.099 110.486 105.768V127.664C110.485 128.334 110.219 128.976 109.747 129.45C109.275 129.924 108.634 130.19 107.967 130.191H76.0708Z" fill="#FFC266"/>
<path d="M107.967 103.244H76.0708C75.7401 103.244 75.4126 103.309 75.107 103.435C74.8014 103.562 74.5237 103.748 74.2897 103.982C74.0558 104.217 73.8702 104.495 73.7436 104.802C73.6169 105.108 73.5518 105.437 73.5518 105.768V107.092L102.854 130.188H107.967C108.634 130.187 109.275 129.921 109.747 129.447C110.219 128.973 110.485 128.331 110.486 127.661V105.768C110.485 105.099 110.219 104.456 109.747 103.983C109.274 103.51 108.634 103.244 107.967 103.244V103.244Z" fill="#F3AA06"/>
<path d="M92.0173 120.085L110.488 107.194V105.766C110.488 105.096 110.222 104.454 109.749 103.98C109.277 103.507 108.637 103.241 107.969 103.241H76.0708C75.7401 103.241 75.4126 103.306 75.107 103.433C74.8014 103.559 74.5237 103.745 74.2897 103.98C74.0558 104.214 73.8702 104.492 73.7436 104.799C73.6169 105.105 73.5518 105.434 73.5518 105.766V107.194L92.0173 120.085Z" fill="#FECE40"/>
<path d="M141.926 91.2958C141.924 94.0041 141.121 96.6509 139.619 98.9014C138.117 101.152 135.984 102.905 133.489 103.94C130.994 104.975 128.25 105.244 125.602 104.714C122.955 104.184 120.524 102.878 118.616 100.962C116.708 99.0464 115.409 96.6059 114.883 93.9495C114.357 91.293 114.628 88.5398 115.662 86.0379C116.696 83.536 118.446 81.3977 120.691 79.8933C122.935 78.3889 125.574 77.586 128.274 77.586C131.896 77.5903 135.368 79.0365 137.928 81.607C140.488 84.1776 141.926 87.6623 141.926 91.2958Z" fill="#C5E1F9"/>
<path d="M125.656 75.5423C125.656 75.5423 130.182 75.9263 131.596 74.1995C133.009 72.4727 128.86 73.0339 130.728 74.2827C132.597 75.5315 136.794 73.2837 135.67 71.1943C134.546 69.105 132.795 68.1972 131.098 69.4245C129.401 70.6518 130.787 71.3474 131.427 70.1496C132.067 68.9519 129.486 66.0327 127.313 70.1926C125.139 74.3525 126.312 74.6721 127.045 71.9194C127.778 69.1667 126.049 67.4238 124.754 70.6626C123.458 73.9014 125.45 75.4966 125.945 74.0491C126.44 72.6016 122.213 69.5508 121.889 72.3142C121.565 75.0777 121.306 78.3836 123.399 78.4239C125.492 78.4642 120.602 71.2266 118.69 77.1455C116.779 83.0645 120.631 81.2625 120.781 79.9305C120.931 78.5984 113.738 81.0826 119.319 83.0189C124.901 84.9552 122.799 82.5892 123.27 81.2383C123.742 79.8875 118.591 83.4405 121.386 86.3141C124.181 89.1876 126.86 88.6425 126.301 85.64C125.741 82.6375 122.583 84.2113 123.594 86.7008C124.606 89.1903 123.059 90.6701 122.454 90.9306C121.849 91.1911 126.306 93.0333 127.165 90.6271C128.025 88.2208 129.213 76.4016 125.656 75.5423Z" fill="#163F59"/>
<path d="M132.45 73.375L135.022 76.7105L134.996 77.97L137.231 81.0074L136.238 82.7423L136.703 88.0409C136.703 88.0409 137.092 90.8903 134.428 89.851L131.751 88.8117C131.751 88.8117 129.505 95.9203 131.058 97.1852C132.61 98.4501 133.711 99.8923 133.079 100.676C132.503 101.391 130.98 100.87 129.414 100.695C126.63 100.386 124.783 100.916 123.589 100.964C122.724 101.007 123.921 100.483 124.157 98.6972C124.392 96.9113 125.859 86.4645 125.859 86.4645C125.483 86.5762 125.079 86.5416 124.727 86.3678C124.066 86.0992 121.105 83.8031 122.09 82.4871C123.075 81.1712 125.235 81.7567 125.95 83.0055C126.665 84.2543 127.974 82.9195 127.653 80.1964C127.331 77.4732 121.908 75.8753 128.097 75.0374C132.244 74.4842 132.45 73.375 132.45 73.375Z" fill="#FFC266"/>
<path d="M141.519 125.19L159.722 131.531C159.722 131.531 159.168 132.911 158.079 133.094C155.134 133.583 149.512 132.114 146.367 131.303C142.046 130.194 137.889 128.024 137.889 128.024L141.519 125.19Z" fill="#FFC266"/>
<path d="M156.644 133.231L158.842 134.088C159.602 134.396 160.404 134.587 161.222 134.654C162.579 134.762 163.363 133.849 163.698 132.581C164.032 131.313 163.791 130.615 163.791 130.615C163.791 130.615 162.453 129.576 161.331 130.408C160.21 131.241 156.864 131.469 156.92 132.039C156.931 132.453 156.836 132.864 156.644 133.231Z" fill="#FFC266"/>
<path d="M163.237 130.148L165.78 130.806L168.117 131.526L167.78 131.961L166.053 131.681L163.227 132.565L163.229 131.759L163.237 130.148Z" fill="#FFC266"/>
<path d="M165.716 132.565L167.515 133.781L167.306 134.289L165.32 133.414L163.007 133.247L163.229 131.759L165.716 132.565Z" fill="#FFC266"/>
<path d="M166.714 135.025L165.344 133.967L164.533 133.137L163.269 132.946L162.712 134.063L164.08 134.225L166.126 135.312L166.714 135.025Z" fill="#FFC266"/>
<path d="M165.39 136.145L163.269 133.846L162.362 133.773L161.939 134.515L163.269 135.191L164.849 136.19L165.39 136.145Z" fill="#FFC266"/>
<path d="M155.817 131.62C157.155 132.009 158.354 131.115 158.354 131.115C158.354 131.115 161.39 128.966 162.183 129.149C162.975 129.331 164.525 128.88 164.525 128.88C164.525 128.88 165.261 129.006 164.04 129.893C163.534 130.252 162.977 130.533 162.389 130.728C162.389 130.728 161.093 132.568 160.48 132.812C159.224 133.322 155.991 132.31 155.991 132.31C155.991 132.31 155.645 131.558 155.817 131.62Z" fill="#FFC266"/>
<path d="M136.687 108.411L138.425 114.982L140.341 121.012L156.73 129.648L153.025 135.712L131.912 126.92L124.392 107.315C124.392 107.315 127.299 102.019 131.949 97.6767C135.322 94.5265 136.227 107.165 136.687 108.411Z" fill="#12344A"/>
<path d="M131.039 96.3232L130.297 97.0375L124.791 93.8498L116.8 99.6613C116.8 99.6613 115.28 105.067 115.194 115.885C115.108 126.702 116.029 165.616 116.029 165.616L136.628 167.297L138.805 152.511L140.312 165.785L142.826 163.768C142.826 163.768 137.263 101.208 131.039 96.3232Z" fill="#12344A"/>
<path d="M128.268 96.7287L131.041 96.3232L133.898 99.8466L134.294 110.17L131.282 104.793L127.596 98.9121L128.268 96.7287Z" fill="#D1DBEA"/>
<path d="M130.487 96.5192L130.862 100.048L123.195 95.727L124.079 93.1999L130.487 96.5192Z" fill="#B0BFDE"/>
<path d="M130.862 95.5095L130.487 96.5192L131.992 99.7956L132.118 96.8979L130.862 95.5095Z" fill="#B0BFDE"/>
<path d="M123.742 93.5356L130.777 101.434L134.294 110.17L137.809 126.299L129.604 105.621L130.442 104.947L129.104 104.109C129.104 104.109 126.427 100.244 124.245 98.2272C122.063 96.2104 122.071 95.9015 122.071 95.9015L123.742 93.5356Z" fill="#194866"/>
<path d="M119.443 99.2504C119.443 99.2504 115.28 101.399 117.277 107.597C120.677 118.168 127.779 126.874 129.114 128.617C130.45 130.36 134.913 133.988 138.229 133.183C140.323 132.68 151.545 132.178 151.545 132.178L152.053 124.618L139.498 124.532L138.275 124.301C138.275 124.301 133.96 117.434 130.357 110.747C126.753 104.06 119.443 99.2504 119.443 99.2504Z" fill="#194866"/>
<path d="M133.122 107.651C133.122 107.651 132.318 97.0026 131.713 96.3715C131.108 95.7404 133.29 97.5773 133.29 97.5773L133.895 99.8547L134.631 102.615L136.136 119.752L133.122 107.651Z" fill="#194866"/>
<path d="M187.635 104.85H186.81C186.71 104.846 186.613 104.812 186.532 104.754C186.451 104.695 186.388 104.614 186.353 104.519L186.2 104.146C186.16 104.054 186.146 103.953 186.162 103.854C186.178 103.755 186.222 103.662 186.288 103.588L186.872 103.005C186.936 102.939 186.972 102.85 186.972 102.758C186.972 102.665 186.936 102.577 186.872 102.511L185.972 101.608C185.907 101.544 185.818 101.508 185.726 101.508C185.634 101.508 185.546 101.544 185.48 101.608L184.896 102.191C184.823 102.259 184.732 102.304 184.633 102.32C184.534 102.337 184.433 102.323 184.342 102.282L183.97 102.127C183.877 102.091 183.796 102.029 183.738 101.947C183.679 101.866 183.646 101.77 183.641 101.67V100.843C183.64 100.751 183.603 100.662 183.538 100.597C183.473 100.532 183.385 100.495 183.293 100.494H182.019C181.927 100.495 181.839 100.532 181.774 100.597C181.71 100.662 181.673 100.751 181.673 100.843V101.67C181.669 101.77 181.635 101.867 181.577 101.948C181.518 102.029 181.437 102.091 181.344 102.127L180.972 102.282C180.88 102.324 180.779 102.337 180.68 102.321C180.581 102.305 180.489 102.259 180.415 102.191L179.834 101.608C179.768 101.544 179.68 101.508 179.588 101.508C179.496 101.508 179.408 101.544 179.342 101.608L178.442 102.511C178.378 102.577 178.342 102.665 178.342 102.758C178.342 102.85 178.378 102.939 178.442 103.005L179.023 103.588C179.091 103.662 179.136 103.754 179.152 103.853C179.168 103.953 179.155 104.054 179.114 104.146L178.962 104.519C178.925 104.613 178.863 104.694 178.782 104.753C178.7 104.811 178.604 104.845 178.504 104.85H177.679C177.587 104.851 177.5 104.888 177.435 104.953C177.37 105.018 177.334 105.107 177.334 105.199V106.475C177.334 106.567 177.37 106.655 177.435 106.721C177.5 106.786 177.587 106.823 177.679 106.824H178.504C178.604 106.828 178.7 106.862 178.782 106.921C178.863 106.979 178.925 107.06 178.962 107.154L179.114 107.527C179.155 107.619 179.168 107.721 179.152 107.82C179.136 107.92 179.091 108.012 179.023 108.086L178.442 108.669C178.378 108.735 178.342 108.824 178.342 108.916C178.342 109.008 178.378 109.097 178.442 109.163L179.342 110.065C179.408 110.13 179.496 110.165 179.588 110.165C179.68 110.165 179.768 110.13 179.834 110.065L180.415 109.48C180.49 109.414 180.582 109.371 180.681 109.355C180.779 109.338 180.88 109.35 180.972 109.388L181.344 109.544C181.438 109.58 181.519 109.643 181.577 109.724C181.636 109.806 181.669 109.903 181.673 110.003V110.828C181.673 110.92 181.71 111.008 181.774 111.074C181.839 111.139 181.927 111.176 182.019 111.177H183.293C183.385 111.177 183.474 111.14 183.539 111.075C183.604 111.009 183.641 110.92 183.641 110.828V110.003C183.646 109.903 183.679 109.806 183.738 109.725C183.796 109.643 183.877 109.581 183.97 109.544L184.342 109.388C184.434 109.349 184.534 109.336 184.633 109.352C184.731 109.369 184.822 109.413 184.896 109.48L185.48 110.065C185.546 110.13 185.634 110.165 185.726 110.165C185.818 110.165 185.907 110.13 185.972 110.065L186.872 109.163C186.936 109.097 186.972 109.008 186.972 108.916C186.972 108.824 186.936 108.735 186.872 108.669L186.288 108.086C186.222 108.011 186.178 107.919 186.162 107.82C186.146 107.721 186.16 107.619 186.2 107.527L186.353 107.154C186.388 107.06 186.451 106.979 186.532 106.92C186.613 106.861 186.71 106.828 186.81 106.824H187.635C187.727 106.823 187.815 106.786 187.879 106.721C187.944 106.655 187.98 106.567 187.98 106.475V105.199C187.98 105.107 187.944 105.018 187.879 104.953C187.815 104.888 187.727 104.851 187.635 104.85V104.85ZM182.658 107.519C182.326 107.52 182.002 107.422 181.725 107.237C181.449 107.052 181.233 106.789 181.106 106.482C180.978 106.174 180.945 105.835 181.009 105.509C181.074 105.182 181.233 104.881 181.468 104.646C181.703 104.41 182.002 104.249 182.327 104.184C182.653 104.119 182.991 104.152 183.297 104.279C183.604 104.407 183.867 104.623 184.051 104.9C184.236 105.177 184.334 105.502 184.334 105.835C184.334 106.281 184.157 106.709 183.843 107.024C183.529 107.34 183.103 107.518 182.658 107.519V107.519Z" fill="#9AC7F7"/>
<path d="M180.696 87.9496C180.696 91.2824 174.681 100.419 174.681 100.419C174.681 100.419 168.666 91.2877 168.666 87.9496C168.666 86.3491 169.3 84.8142 170.428 83.6826C171.556 82.5509 173.086 81.9151 174.681 81.9151C176.276 81.9151 177.806 82.5509 178.934 83.6826C180.062 84.8142 180.696 86.3491 180.696 87.9496Z" fill="#0561FC"/>
<path d="M176.47 88.2826C176.47 88.6359 176.366 88.9815 176.171 89.2755C175.976 89.5695 175.698 89.7989 175.372 89.9344C175.047 90.07 174.689 90.1058 174.344 90.0372C173.998 89.9686 173.681 89.7987 173.432 89.549C173.182 89.2994 173.012 88.9812 172.944 88.6347C172.875 88.2882 172.91 87.9289 173.044 87.6025C173.179 87.276 173.407 86.9969 173.7 86.8005C173.993 86.6042 174.337 86.4994 174.689 86.4994C175.161 86.4994 175.613 86.6871 175.947 87.0215C176.281 87.3558 176.469 87.8094 176.47 88.2826Z" fill="white"/>
<path d="M205.477 44.1722C210.614 35.7529 209.722 25.8244 200.567 20.2035C191.412 14.5826 182.195 18.3021 177.058 26.7214C173.043 33.2876 176.255 38.3875 176.826 46.2266C176.938 47.7762 173.586 51.5333 173.586 51.5333L185.033 58.5722C185.033 58.5722 186.843 53.8671 188.272 53.2628C195.492 50.1986 201.472 50.7384 205.477 44.1722Z" fill="#FEC12F"/>
<path d="M180.078 51.6622C179.275 40.8286 174.866 33.7844 180.402 24.7072C181.551 22.8119 182.897 21.0439 184.417 19.4327C181.526 21.0226 178.994 23.5336 177.05 26.7214C173.035 33.2876 176.247 38.3875 176.817 46.2266C176.93 47.7762 173.578 51.5333 173.578 51.5333L178.828 54.756C179.575 53.5878 180.134 52.4276 180.078 51.6622Z" fill="#FFAB01"/>
<path d="M173.391 51.4125L172.422 52.997C172.042 53.6216 171.788 54.3153 171.675 55.0384C171.562 55.7615 171.593 56.4998 171.765 57.2112C171.936 57.9225 172.246 58.5929 172.676 59.184C173.107 59.7751 173.649 60.2754 174.272 60.6562L176.638 62.1118C177.895 62.8824 179.405 63.121 180.837 62.7751C182.269 62.4291 183.506 61.5269 184.275 60.2668L185.239 58.685L173.391 51.4125Z" fill="#3D7AA8"/>
<path d="M185.301 31.1015L188.559 29.8393L188.925 33.3278L192.186 32.0656L192.555 35.5542L195.818 34.2946L196.185 37.7859L199.454 36.5264L199.826 40.0203" stroke="white" stroke-width="2.43" stroke-miterlimit="10"/>
<path d="M186.125 34.4639L183.959 43.9278L177.877 53.8939" stroke="white" stroke-width="2.43" stroke-miterlimit="10"/>
<path d="M195.007 39.9182L187.592 46.1595L181.513 56.1256" stroke="white" stroke-width="2.43" stroke-miterlimit="10"/>
<path d="M176.124 54.2192L175.371 55.4537L182.77 59.9989L183.523 58.7644L176.124 54.2192Z" fill="#34688F"/>
<path d="M174.744 56.4244L173.993 57.6569L179.322 60.9282L180.074 59.6958L174.744 56.4244Z" fill="#34688F"/>
<path d="M190.09 87.9147C190.084 88.0505 190.106 88.186 190.153 88.3135C190.199 88.441 190.271 88.558 190.363 88.6578C190.455 88.7576 190.566 88.8382 190.689 88.895C190.812 88.9518 190.945 88.9837 191.08 88.9889H193.01V92.9931L197.722 88.9889H207.393C207.529 88.9841 207.662 88.9524 207.786 88.8957C207.909 88.8391 208.02 88.7585 208.112 88.6587C208.205 88.5589 208.276 88.4418 208.323 88.3141C208.371 88.1864 208.392 88.0507 208.387 87.9147V75.8001C208.392 75.6641 208.371 75.5283 208.323 75.4006C208.276 75.273 208.205 75.1558 208.112 75.056C208.02 74.9562 207.909 74.8757 207.786 74.819C207.662 74.7624 207.529 74.7307 207.393 74.7259H191.08C190.945 74.731 190.812 74.763 190.689 74.8198C190.566 74.8766 190.455 74.9572 190.363 75.057C190.271 75.1567 190.199 75.2737 190.153 75.4012C190.106 75.5287 190.084 75.6643 190.09 75.8001V87.9147Z" fill="url(#paint0_linear_533_1505)"/>
<path d="M202.65 81.7996L199.981 83.3465L197.312 84.8907V81.7996V78.7086L199.981 80.2554L202.65 81.7996Z" fill="white"/>
<path d="M61.2268 124.524H45.8906V140.294H61.2268V124.524Z" fill="#2B83FD"/>
<path d="M56.7298 130.889H54.0983C54.2258 130.613 54.3315 130.328 54.4142 130.035C54.4325 129.821 54.4325 129.605 54.4142 129.391C54.4135 129.226 54.3481 129.069 54.2323 128.953C54.1165 128.836 53.9596 128.771 53.7959 128.77H53.4853V129.74C53.4853 129.74 52.4146 131.002 52.4146 131.517V134.539C52.4146 134.62 52.4306 134.701 52.4619 134.777C52.4931 134.852 52.5389 134.921 52.5966 134.978C52.6543 135.036 52.7228 135.082 52.7981 135.113C52.8735 135.144 52.9542 135.159 53.0356 135.159H55.1959C55.3805 135.146 55.5577 135.081 55.7069 134.971C55.8561 134.861 55.9713 134.711 56.0391 134.539L57.134 131.517C57.1731 131.451 57.1929 131.374 57.1912 131.297C57.1895 131.219 57.1665 131.144 57.1246 131.079C57.0827 131.013 57.0236 130.961 56.9539 130.928C56.8842 130.894 56.8066 130.881 56.7298 130.889V130.889Z" fill="white"/>
<path d="M52.7947 131.378H51.9702V134.762H52.7947V131.378Z" fill="white"/>
<path d="M51.0197 130.889H49.5527V135.151H51.0197V130.889Z" fill="white"/>
<path d="M168.655 117.896H134.621V146.605H168.655V117.896Z" fill="#F3F3F3"/>
<path d="M168.655 117.896H134.621V125.359H168.655V117.896Z" fill="url(#paint1_linear_533_1505)"/>
<path d="M141.685 129.13H139.198V131.628H141.685V129.13Z" fill="#B6C2C9"/>
<path d="M145.42 129.13H142.93V131.628H145.42V129.13Z" fill="#B6C2C9"/>
<path d="M149.151 129.13H146.662V131.628H149.151V129.13Z" fill="#B6C2C9"/>
<path d="M152.883 129.13H150.396V131.628H152.883V129.13Z" fill="#B6C2C9"/>
<path d="M156.615 129.13H154.128V131.628H156.615V129.13Z" fill="#B6C2C9"/>
<path d="M160.349 129.13H157.859V131.628H160.349V129.13Z" fill="#B6C2C9"/>
<path d="M164.081 129.13H161.594V131.628H164.081V129.13Z" fill="#B6C2C9"/>
<path d="M141.685 132.876H139.198V135.371H141.685V132.876Z" fill="#B6C2C9"/>
<path d="M145.42 132.876H142.93V135.371H145.42V132.876Z" fill="#B6C2C9"/>
<path d="M149.151 132.876H146.662V135.371H149.151V132.876Z" fill="#B6C2C9"/>
<path d="M152.883 132.876H150.396V135.371H152.883V132.876Z" fill="#B6C2C9"/>
<path d="M156.615 132.876H154.128V135.371H156.615V132.876Z" fill="#B6C2C9"/>
<path d="M160.349 132.876H157.859V135.371H160.349V132.876Z" fill="#B6C2C9"/>
<path d="M164.081 132.876H161.594V135.371H164.081V132.876Z" fill="#B6C2C9"/>
<path d="M141.685 136.62H139.198V139.118H141.685V136.62Z" fill="#B6C2C9"/>
<path d="M145.42 136.62H142.93V139.118H145.42V136.62Z" fill="#B6C2C9"/>
<path d="M149.151 136.62H146.662V139.118H149.151V136.62Z" fill="#B6C2C9"/>
<path d="M152.883 136.62H150.396V139.118H152.883V136.62Z" fill="#B6C2C9"/>
<path d="M156.615 136.62H154.128V139.118H156.615V136.62Z" fill="#B6C2C9"/>
<path d="M160.349 136.62H157.859V139.118H160.349V136.62Z" fill="#B6C2C9"/>
<path d="M164.081 136.62H161.594V139.118H164.081V136.62Z" fill="#B6C2C9"/>
<path d="M141.685 140.364H139.198V142.861H141.685V140.364Z" fill="#B6C2C9"/>
<path d="M145.42 140.364H142.93V142.861H145.42V140.364Z" fill="#B6C2C9"/>
<path d="M149.151 140.364H146.662V142.861H149.151V140.364Z" fill="#B6C2C9"/>
<path d="M152.883 140.364H150.396V142.861H152.883V140.364Z" fill="#B6C2C9"/>
<path d="M156.615 140.364H154.128V142.861H156.615V140.364Z" fill="#B6C2C9"/>
<path d="M160.349 140.364H157.859V142.861H160.349V140.364Z" fill="#B6C2C9"/>
<path d="M164.081 140.364H161.594V142.861H164.081V140.364Z" fill="#B6C2C9"/>
<path d="M140.443 114.153V121.64V119.145V116.65V114.153Z" stroke="#D9E1E4" stroke-width="4.49"/>
<path d="M162.838 114.153V121.64V119.145V116.65V114.153Z" stroke="#D9E1E4" stroke-width="4.49"/>
<path d="M112.793 82.4146C112.793 82.6917 112.739 82.9661 112.634 83.2222C112.528 83.4783 112.374 83.711 112.178 83.9071C111.983 84.1031 111.751 84.2586 111.496 84.3647C111.241 84.4709 110.968 84.5255 110.691 84.5255H109.291V89.4562L104.387 84.5389H88.2747C87.9986 84.5389 87.7251 84.4843 87.47 84.3782C87.2148 84.2721 86.9831 84.1165 86.7879 83.9205C86.5927 83.7244 86.438 83.4917 86.3325 83.2356C86.2271 82.9795 86.173 82.7051 86.1733 82.428V64.8456C86.1733 64.5688 86.2277 64.2947 86.3333 64.0389C86.4389 63.7831 86.5937 63.5507 86.7888 63.355C86.984 63.1592 87.2156 63.0039 87.4706 62.898C87.7255 62.792 87.9988 62.7375 88.2747 62.7375H110.691C110.967 62.7375 111.241 62.792 111.496 62.898C111.751 63.0039 111.982 63.1592 112.177 63.355C112.373 63.5507 112.527 63.7831 112.633 64.0389C112.739 64.2947 112.793 64.5688 112.793 64.8456V82.4146Z" fill="#5BC272"/>
<path d="M108.593 69.062H90.3765V70.4666H108.593V69.062Z" fill="white"/>
<path d="M108.593 72.5774H90.3765V73.9819H108.593V72.5774Z" fill="white"/>
<path d="M108.593 76.0901H90.3765V77.4946H108.593V76.0901Z" fill="white"/>
</g>
<defs>
<linearGradient id="paint0_linear_533_1505" x1="2921.34" y1="82538.6" x2="6896.77" y2="85929.4" gradientUnits="userSpaceOnUse">
<stop stop-color="#FA655C"/>
<stop offset="1" stop-color="#FFBF8A"/>
</linearGradient>
<linearGradient id="paint1_linear_533_1505" x1="5214.65" y1="33809.1" x2="6009.12" y2="36894" gradientUnits="userSpaceOnUse">
<stop stop-color="#FA655C"/>
<stop offset="1" stop-color="#FFBF8A"/>
</linearGradient>
<clipPath id="clip0_533_1505">
<rect width="232" height="180" fill="white"/>
</clipPath>
</defs>
</svg>
