<svg width="248" height="161" viewBox="0 0 248 161" fill="none" xmlns="http://www.w3.org/2000/svg">
<rect x="11.1582" width="223.932" height="160.803" rx="15" fill="#F4F9F5"/>
<path d="M171.152 138.432C159.088 138.336 121.702 137.921 99.0129 136.687C56.943 134.402 22.5836 138.195 45.1551 142.528C51.4633 143.737 33.2717 150.997 77.8042 152.63C116.896 154.061 156.745 150.975 176.032 149.651C195.32 148.327 204.218 145.977 208.35 144.919C211.981 143.988 213.32 138.765 171.152 138.432Z" fill="#E9F6FF"/>
<path d="M200.97 81.0087L181.601 103.045L184.326 109.541C184.326 109.541 191.622 106.665 197.719 100.222C203.816 93.7795 200.97 81.0087 200.97 81.0087Z" fill="#163F59"/>
<path d="M201.438 91.1839C200.432 93.1715 199.094 94.9638 197.312 96.2962C191.323 100.793 184.915 102.869 181.856 103.67L181.593 103.039L200.963 81.0027C200.963 81.0027 202.063 85.9216 201.438 91.1839Z" fill="#194866"/>
<path d="M181.05 137.015C182.864 131.488 186.538 121.905 187.081 118.263C188.083 111.532 187.611 106.702 187.611 106.702L181.216 103.501L177.024 136.502L181.05 137.015Z" fill="#163F59"/>
<path d="M202.992 75.5608L195.773 88.4579L200.513 114.983L207.284 110.561C207.284 110.561 207.506 104.561 209.653 95.9389C212.357 85.0649 202.992 75.5608 202.992 75.5608Z" fill="#194866"/>
<path d="M209.752 136.251C210.076 130.434 208.936 120.673 208.524 117.022C207.754 110.261 205.928 108.181 205.928 108.181L199.495 108.862L204.716 136.802L209.752 136.251Z" fill="#194866"/>
<path d="M208.001 135.041L208.934 137.706L209.254 140.088L208.58 141.008L207.991 141.456L207.932 141.898L206.181 144.28C205.485 144.912 204.604 145.298 203.67 145.38C203.277 145.425 203.418 144.245 203.489 144.05C203.823 143.196 204.217 142.368 204.668 141.57L205.65 138.681L206.672 135.144L208.001 135.041Z" fill="#194866"/>
<path d="M179.943 135.609L180.428 136.725L180.636 137.95L180.428 139.857L179.389 139.92L178.628 139.689L178.09 140.001C178.09 140.001 175.129 140.331 174.034 140.274C172.215 140.181 171.236 139.906 170.91 139.524C170.729 139.31 171.606 138.998 171.893 138.979C173.523 138.87 176.109 137.978 176.109 137.978L177.565 136.586L177.913 135.54L179.943 135.609Z" fill="#163F59"/>
<path d="M182.002 66.4436C182.002 66.4436 184.599 69.0471 176.893 76.9287C169.187 84.8103 167.713 82.7614 167.713 82.7614L165.318 81.36L163.418 73.3126L167.189 72.1816L167.607 72.6355C167.607 72.6355 168.421 72.6592 168.821 72.0552C169.222 71.4512 171.782 69.3412 175.445 64.3138C177.123 61.9945 181.503 65.9383 182.002 66.4436Z" fill="#FECE40"/>
<path d="M164.041 73.7369C164.041 73.7369 156.128 74.1317 155.356 66.0192C155.128 63.6052 154.541 65.9955 154.15 68.3424C153.759 70.6893 155.328 77.1201 159.592 79.4512C163.856 81.7824 165.679 82.3015 167.291 81.1172C168.902 79.9329 164.041 73.7369 164.041 73.7369Z" fill="#E9D6B8"/>
<path d="M170.179 74.712L169.116 72.9356L168.648 72.2526C168.355 72.4993 167.985 72.6342 167.603 72.6336L168.648 73.7942L169.619 75.4009L170.194 77.9097L170.179 74.712Z" fill="#F3AA06"/>
<path d="M154.733 68.7293C154.733 68.7293 156.806 67.697 156.943 67.0476C157.081 66.3982 157.431 63.9881 157.431 63.9881L157.462 63.3644C157.462 63.3644 156.798 62.938 156.582 64.5605C156.366 66.183 156.032 65.3264 156.032 65.3264L155.67 63.7749L155.081 61.9037L154.923 61.0431C154.923 61.0431 154.87 60.5496 154.756 60.4411C154.434 60.1292 154.318 60.4904 154.318 60.4904L154.656 63.8934L153.507 60.8319C153.507 60.8319 153.294 60.4628 153.076 60.4964C152.858 60.5299 152.911 60.6582 152.911 60.6582L153.403 64.4085L152.634 62.8946C152.634 62.8946 152.42 62.5393 152.206 62.561C151.992 62.5827 151.905 62.5827 151.905 62.5827L154.067 68.8201L154.733 68.7293Z" fill="#E9D6B8"/>
<path d="M154.046 63.8993L153.114 61.7912C153.038 61.5411 152.911 61.3098 152.741 61.1122C152.713 61.0828 152.679 61.0593 152.642 61.0433C152.604 61.0273 152.564 61.0191 152.524 61.0191C152.483 61.0191 152.443 61.0273 152.406 61.0433C152.368 61.0593 152.335 61.0828 152.307 61.1122L153.403 64.4263L154.046 63.8993Z" fill="#E9D6B8"/>
<path d="M194.603 88.7599L208.974 84.7155C208.974 84.7155 201.311 70.3814 198.141 66.0133C195.55 62.4485 187.517 54.1978 182.118 58.7594C176.718 63.3209 174.698 64.7915 174.698 64.7915C174.698 64.7915 173.84 71.0505 194.603 88.7599Z" fill="#FEC12F"/>
<path d="M171.161 51.4127C171.161 51.4127 173.662 60.9286 176.121 61.2346C176.227 61.2464 177.718 60.7628 178.744 61.1694C179.71 61.5524 180.017 62.2768 180.378 62.4722C180.551 62.6003 180.742 62.6996 180.946 62.7663C182.202 63.0564 183.084 59.7305 183.08 59.2133C183.08 58.8561 183.648 58.4968 183.249 58.1929C182.402 57.5474 181.591 56.7421 181.39 56.0335C180.801 53.9609 181.587 49.4329 177.264 48.4835C175.991 48.2052 171.185 50.7297 171.161 51.4127Z" fill="#E9D6B8"/>
<path d="M180.03 62.0182L181.425 63.7177L183.907 58.0725L182.948 57.7389L180.03 62.0182Z" fill="#FECE40"/>
<path d="M176.046 61.1063C176.046 61.1063 176.272 60.8418 176.657 60.3069C176.877 59.9858 177.131 59.6899 177.415 59.4246C178.512 58.5758 178.524 58.71 179.086 58.0666C179.728 57.3323 180.777 55.5005 180.777 55.5005C180.777 55.5005 180.632 56.6237 180.581 57.0796C180.505 57.7661 180.177 58.3994 179.661 58.8561C177.881 60.5378 178.089 60.6444 177.795 60.7628C177.777 60.7648 177.592 60.7431 176.046 61.1063Z" fill="#DBC9AD"/>
<path d="M172.666 55.1275C172.735 55.2933 172.688 56.9849 172.68 57.2987C172.672 57.6125 172.648 58.0113 172.735 58.0882C172.931 58.214 173.141 58.316 173.362 58.3922C173.521 58.4475 174.147 58.6903 173.973 57.958C173.798 57.2257 172.666 55.1275 172.666 55.1275Z" fill="#E9D6B8"/>
<path d="M177.253 48.0335C175.064 47.3347 171.786 48.975 170.293 52.0799C170.293 52.0799 170.592 52.5891 171.562 52.7273C171.562 52.7273 172.262 50.4653 174.557 49.8889C176.966 49.2849 175.795 51.0061 176.545 51.3693C177.172 51.6752 177.748 51.918 177.748 51.918L178.577 53.0806L179.21 52.9187C179.21 52.9187 179.013 51.4088 179.475 51.7029C180.033 52.0601 180.261 53.1635 180.3 53.3155C180.339 53.4675 180.418 53.7201 180.506 53.732C180.595 53.7438 180.703 54.6044 181.381 55.8894C181.668 55.7867 181.87 55.2597 181.723 54.3399C181.4 52.2713 179.935 48.8862 177.253 48.0335Z" fill="#163F59"/>
<path d="M179.325 51.6654C179.568 51.5697 179.839 51.573 180.08 51.6746C180.321 51.7762 180.513 51.9681 180.615 52.2096C180.717 52.4511 180.722 52.7231 180.628 52.9679C180.534 53.2127 180.348 53.411 180.111 53.5208" fill="#E9D6B8"/>
<path d="M174.396 57.431C174.396 57.431 173.197 57.5751 173.097 57.6461C172.997 57.7172 172.728 57.8613 172.763 57.9758C172.798 58.0902 173.075 58.3093 173.734 58.41C173.895 58.4337 173.716 58.181 174.396 57.431Z" fill="#DBC9AD"/>
<path d="M179.311 61.507L179.048 61.3175L179.227 62.484L180.117 64.0138L180.199 61.9313L179.311 61.507Z" fill="#FECE40"/>
<path d="M130.25 130.525C130.248 132.755 129.366 134.894 127.798 136.473C126.229 138.052 124.102 138.943 121.882 138.951H71.8304C69.6088 138.947 67.4793 138.059 65.9087 136.481C64.3382 134.902 63.4547 132.762 63.4521 130.531V11.4106C63.4579 9.1807 64.3426 7.04387 65.9128 5.46765C67.4829 3.89143 69.6107 3.00417 71.8304 3H121.882C124.1 3.00781 126.224 3.89655 127.792 5.47227C129.36 7.04798 130.244 9.18272 130.25 11.4106V130.525Z" fill="#003E99"/>
<path d="M73.1137 137.652C70.8926 137.647 68.7642 136.758 67.1935 135.18C65.6229 133.603 64.7377 131.465 64.7314 129.234V12.7114C64.7387 10.4811 65.6244 8.34436 67.195 6.76805C68.7657 5.19174 70.8935 4.304 73.1137 4.2988H120.581C122.802 4.30244 124.932 5.18955 126.503 6.76609C128.075 8.34262 128.961 10.4802 128.968 12.7114V129.234C128.962 131.466 128.076 133.605 126.505 135.182C124.933 136.76 122.803 137.648 120.581 137.652H73.1137Z" fill="#0E1C56"/>
<path d="M64.6549 24.1775H63.0791V18.9922H64.6549V24.1775Z" fill="#0450CF"/>
<path d="M64.6549 37.7753H63.0791V29.0233H64.6549V37.7753Z" fill="#0450CF"/>
<path d="M64.6549 48.1282H63.0791V39.7926H64.6549V48.1282Z" fill="#0450CF"/>
<path d="M128.468 18.4336H65.1162V122.975H128.468V18.4336Z" fill="white"/>
<path d="M169.24 96.0218C169.235 97.3928 168.691 98.7062 167.725 99.6755C166.76 100.645 165.453 101.191 164.088 101.195H74.1432C72.7779 101.192 71.4695 100.646 70.5035 99.6763C69.5375 98.7071 68.9925 97.3933 68.9873 96.0218V43.4324C68.992 42.0619 69.5357 40.7488 70.5 39.7794C71.4643 38.8099 72.771 38.2627 74.1353 38.257H164.088C165.452 38.2622 166.76 38.8092 167.724 39.7787C168.689 40.7482 169.233 42.0616 169.238 43.4324L169.24 96.0218Z" fill="#E5E8EC"/>
<path d="M169.24 95.4868C169.235 96.8576 168.691 98.1709 167.725 99.1398C166.76 100.109 165.452 100.655 164.088 100.658H74.1432C72.7781 100.655 71.4696 100.11 70.5036 99.1407C69.5376 98.1717 68.9925 96.8582 68.9873 95.4868V42.8955C68.9914 41.525 69.5351 40.2119 70.4996 39.2426C71.4641 38.2734 72.7711 37.7267 74.1353 37.722H164.088C165.452 37.7262 166.76 38.2726 167.725 39.2419C168.69 40.2112 169.234 41.5247 169.238 42.8955L169.24 95.4868Z" fill="#5BC272"/>
<path d="M159.175 55.1867C160.989 55.1576 162.719 54.4136 163.992 53.1153C165.265 51.8169 165.98 50.068 165.981 48.2455C165.983 46.4231 165.272 44.673 164.001 43.3724C162.73 42.0719 161.001 41.325 159.187 41.2927L150.642 41.2829C148.808 41.2813 147.048 42.0118 145.75 43.3137C144.451 44.6156 143.721 46.3822 143.72 48.2249C143.718 50.0676 144.445 51.8355 145.741 53.1396C147.037 54.4437 148.796 55.1772 150.63 55.1788L159.175 55.1867Z" fill="#E9F6FF"/>
<path d="M151.103 54.3419C150.32 54.3421 149.545 54.185 148.823 53.88C148.102 53.5749 147.448 53.128 146.901 52.5654C145.936 51.5834 145.341 50.2961 145.215 48.9227C145.09 47.5492 145.442 46.1744 146.212 45.0324C146.981 43.8904 148.121 43.0516 149.438 42.6589C150.754 42.2662 152.165 42.3437 153.43 42.8784C154.696 43.4131 155.738 44.3719 156.379 45.5915C157.02 46.8111 157.221 48.2163 156.947 49.5678C156.673 50.9192 155.941 52.1335 154.876 53.004C153.811 53.8744 152.478 54.3472 151.105 54.3419H151.103ZM151.125 43.2291C150.135 43.244 149.17 43.5505 148.352 44.1107C147.533 44.6708 146.896 45.46 146.519 46.3804C146.143 47.3008 146.043 48.312 146.233 49.2886C146.423 50.2652 146.894 51.1644 147.588 51.8746C148.046 52.3458 148.593 52.7203 149.197 52.9759C149.801 53.2315 150.45 53.3631 151.105 53.3629C152.444 53.3657 153.728 52.8345 154.676 51.8859C155.625 50.9373 156.159 49.6492 156.162 48.3049C156.165 46.9605 155.636 45.6701 154.692 44.7175C153.748 43.7648 152.465 43.228 151.127 43.2251L151.125 43.2291Z" fill="#73A9FF"/>
<path d="M159.024 54.3596C157.831 54.3698 156.662 54.0237 155.666 53.3653C154.67 52.7069 153.891 51.7658 153.428 50.6617C152.965 49.5575 152.839 48.3401 153.066 47.164C153.294 45.9879 153.864 44.9062 154.704 44.0563C155.545 43.2063 156.618 42.6265 157.787 42.3905C158.956 42.1544 160.169 42.2727 161.271 42.7305C162.373 43.1882 163.315 43.9646 163.977 44.9612C164.639 45.9578 164.991 47.1295 164.989 48.3275C164.991 49.9217 164.363 51.4515 163.244 52.5821C162.126 53.7126 160.607 54.3518 159.02 54.3596H159.024ZM159.039 43.2508C157.702 43.2482 156.418 43.7795 155.47 44.7279C154.522 45.6762 153.988 46.964 153.986 48.3078C153.983 49.6516 154.512 50.9415 155.456 51.8935C156.4 52.8456 157.682 53.3819 159.02 53.3846V53.8682V53.3846C159.682 53.3853 160.338 53.2551 160.95 53.0011C161.563 52.7472 162.119 52.3747 162.588 51.9047C163.057 51.4347 163.429 50.8766 163.683 50.2622C163.937 49.6477 164.069 48.989 164.069 48.3236C164.07 47.6582 163.94 46.9992 163.688 46.3841C163.435 45.7691 163.064 45.2101 162.596 44.739C162.128 44.268 161.573 43.8941 160.961 43.6387C160.35 43.3834 159.694 43.2516 159.031 43.2508H159.039Z" fill="#73A9FF"/>
<path d="M151.103 54.184C150.873 54.1754 150.646 54.1209 150.437 54.0237C150.227 53.9264 150.039 53.7883 149.883 53.6175C148.94 52.6641 148.356 50.6231 148.362 48.2881C148.372 44.9325 149.573 42.408 151.135 42.408C152.697 42.408 153.899 44.9463 153.886 48.3039C153.872 51.6614 152.679 54.1859 151.103 54.184ZM151.125 43.383C150.382 43.383 149.333 45.2503 149.325 48.296C149.325 50.631 149.94 52.3088 150.561 52.9306C150.628 53.0113 150.71 53.0776 150.803 53.1255C150.896 53.1733 150.997 53.2017 151.101 53.2089C151.852 53.2089 152.899 51.3456 152.909 48.3039C152.919 45.2622 151.874 43.3909 151.119 43.383H151.125Z" fill="#73A9FF"/>
<path d="M156.574 48.7973L145.647 48.7717V47.7946L156.582 47.8262L156.574 48.7973Z" fill="#73A9FF"/>
<path d="M155.678 46.1997L146.57 46.18V45.2029L155.683 45.2266L155.678 46.1997Z" fill="#73A9FF"/>
<path d="M155.662 51.387L146.557 51.3673V50.3863L155.666 50.4119L155.662 51.387Z" fill="#73A9FF"/>
<path d="M139.556 46.0971H102.449V51.3278H139.556V46.0971Z" fill="#E5E8EC"/>
<path d="M79.8099 65.1527C79.3612 65.1506 78.9316 64.9699 78.6153 64.6503C78.2989 64.3306 78.1215 63.898 78.1221 63.4473V53.1023C78.1221 52.6521 78.2997 52.2202 78.6161 51.9013C78.9324 51.5824 79.3617 51.4024 79.8099 51.4009H91.1492C91.3721 51.4003 91.5929 51.4439 91.7989 51.5292C92.005 51.6144 92.1923 51.7397 92.3501 51.8977C92.508 52.0557 92.6333 52.2434 92.7189 52.4501C92.8044 52.6568 92.8486 52.8784 92.8489 53.1023V63.4473C92.8489 63.6714 92.8049 63.8933 92.7195 64.1004C92.634 64.3074 92.5088 64.4955 92.3509 64.6539C92.1931 64.8123 92.0057 64.9379 91.7995 65.0234C91.5933 65.109 91.3723 65.153 91.1492 65.1527H79.8099Z" fill="#484F59"/>
<path d="M91.1486 51.6357H89.001V54.5334H92.6105V53.1023C92.6089 52.7135 92.4543 52.3411 92.1805 52.0663C91.9066 51.7916 91.5357 51.6368 91.1486 51.6357Z" fill="#F4DA80"/>
<path d="M83.5978 59.8825V58.2304H78.3555V61.355H82.1359C82.524 61.3539 82.8958 61.1983 83.1699 60.9223C83.4439 60.6463 83.5978 60.2723 83.5978 59.8825Z" fill="#F4DA80"/>
<path d="M82.1359 54.8215H78.3555V57.9442H83.5978V56.2881C83.5967 55.8991 83.4423 55.5264 83.1684 55.2515C82.8944 54.9767 82.5231 54.8221 82.1359 54.8215Z" fill="#F4DA80"/>
<path d="M83.8732 56.1756H87.2489C87.2743 55.779 87.4333 55.4029 87.6997 55.1091C87.9661 54.8154 88.324 54.6214 88.7147 54.559V51.6357H82.374V54.5551C82.7719 54.6095 83.1386 54.8007 83.412 55.0961C83.6853 55.3916 83.8483 55.773 83.8732 56.1756Z" fill="#F4DA80"/>
<path d="M87.2408 56.4618H83.8789V59.841H87.2408V56.4618Z" fill="#F4DA80"/>
<path d="M87.2607 60.1213H83.8634C83.812 60.5002 83.6386 60.8517 83.3697 61.1222C83.1008 61.3927 82.7511 61.5674 82.374 61.6195V64.9158H88.7147V61.6116C88.3447 61.554 88.0032 61.3778 87.7412 61.1092C87.4791 60.8406 87.3105 60.4941 87.2607 60.1213Z" fill="#F4DA80"/>
<path d="M87.5195 59.8825C87.5201 60.2729 87.6746 60.6471 87.9494 60.9231C88.2242 61.1992 88.5967 61.3545 88.9853 61.355H92.6105V58.2304H87.5195V59.8825Z" fill="#F4DA80"/>
<path d="M89.001 54.8215H88.9853C88.5978 54.822 88.2261 54.9765 87.9515 55.2513C87.6769 55.526 87.5216 55.8988 87.5195 56.2881V57.9442H92.6105V54.8215H89.001Z" fill="#F4DA80"/>
<path d="M82.0907 51.6357H79.8095C79.4233 51.6373 79.0535 51.7925 78.781 52.0674C78.5085 52.3422 78.3555 52.7144 78.3555 53.1023V54.5334H82.0888L82.0907 51.6357Z" fill="#F4DA80"/>
<path d="M78.3555 63.4473C78.355 63.6396 78.3922 63.8301 78.4649 64.008C78.5377 64.1859 78.6447 64.3477 78.7797 64.484C78.9147 64.6204 79.0752 64.7287 79.2519 64.8028C79.4285 64.8769 79.618 64.9153 79.8095 64.9158H82.0907V61.6353H78.3574L78.3555 63.4473Z" fill="#F4DA80"/>
<path d="M89.001 64.9158H91.1486C91.5362 64.9153 91.9077 64.7604 92.1817 64.4851C92.4558 64.2098 92.61 63.8366 92.6105 63.4473V61.6353H89.001V64.9158Z" fill="#F4DA80"/>
<path d="M97.1436 86.6045L97.1396 84.7037L128.232 84.7155V86.6124L97.1436 86.6045Z" fill="#E5E8EC"/>
<path d="M103.416 80.8113L103.41 79.8638L121.955 79.8658V80.8192L103.416 80.8113Z" fill="#E5E8EC"/>
<path d="M76.6445 78.2156V77.2642H82.2386V78.2117L76.6445 78.2156Z" fill="#E5E8EC"/>
<path d="M76.6445 95.5184V93.6157L120.896 93.6374L120.9 95.5362L76.6445 95.5184Z" fill="#E5E8EC"/>
<path d="M99.1328 74.5304V72.6276L118.742 72.6257V74.5265L99.1328 74.5304Z" fill="#E5E8EC"/>
<path d="M76.6445 74.5304V72.6257H96.2541L96.26 74.5265L76.6445 74.5304Z" fill="#E5E8EC"/>
<path d="M121.612 74.5304V72.6257H141.226L141.228 74.5265L121.612 74.5304Z" fill="#E5E8EC"/>
<path d="M144.101 74.5265V72.6257H163.71L163.72 74.5226L144.101 74.5265Z" fill="#E5E8EC"/>
<path d="M178.019 84.7866L161.655 90.9588C161.655 90.9588 162.19 92.2024 163.178 92.3405C165.868 92.7195 171.896 92.228 174.743 91.4227C177.334 90.6507 179.851 89.6507 182.267 88.4343L178.019 84.7866Z" fill="#E9D6B8"/>
<path d="M182.029 69.434L177.883 83.4859L178.473 84.4057L177.49 84.8399L181.569 88.9732L186.208 86.6934L191.514 67.397C191.514 67.397 191.667 62.6597 187.348 58.8265C184.22 56.0493 182.418 68.2872 182.029 69.434Z" fill="#FECE40"/>
<path d="M183.686 86.5276C183.686 86.5276 180.066 84.9129 178.213 84.003L178.467 84.3978L177.484 84.832L178.907 86.2512L181.222 87.9606L182.222 87.3072L181.66 86.644L183.686 86.5276Z" fill="#F3AA06"/>
<path d="M164.48 92.4254L162.515 93.2524C161.828 93.5513 161.099 93.7424 160.354 93.8189C159.126 93.9472 158.405 93.1458 158.061 91.9911C157.717 90.8364 157.931 90.2147 157.931 90.2147C157.931 90.2147 159.122 89.2396 160.159 89.9719C161.197 90.7042 164.238 90.8325 164.197 91.3536C164.199 91.7293 164.296 92.0983 164.48 92.4254Z" fill="#E9D6B8"/>
<path d="M158.433 89.7824L156.142 90.4377L154.035 91.1424L154.35 91.5312L155.912 91.2391L158.495 91.9793L158.474 91.245L158.433 89.7824Z" fill="#E9D6B8"/>
<path d="M156.238 92.0346L154.635 93.1774L154.831 93.6374L156.617 92.7965L158.71 92.5932L158.474 91.2451L156.238 92.0346Z" fill="#E9D6B8"/>
<path d="M155.387 94.2907L156.605 93.2979L157.326 92.5261L158.468 92.3267L158.996 93.3275L157.756 93.5051L155.929 94.5355L155.387 94.2907Z" fill="#E9D6B8"/>
<path d="M156.615 95.2776L158.486 93.1419L159.307 93.057L159.708 93.7202L158.517 94.3657L157.108 95.3072L156.615 95.2776Z" fill="#E9D6B8"/>
<path d="M165.196 90.9411C163.989 91.324 162.883 90.5463 162.883 90.5463C162.883 90.5463 160.079 88.6573 159.364 88.8468C158.649 89.0363 157.234 88.6494 157.234 88.6494C157.234 88.6494 156.57 88.7817 157.694 89.5594C158.162 89.8745 158.674 90.1168 159.215 90.2778C159.215 90.2778 160.433 91.9201 160.983 92.1313C162.142 92.5655 165.052 91.5786 165.052 91.5786C165.052 91.5786 165.349 90.8917 165.196 90.9411Z" fill="#E9D6B8"/>
<path d="M114.335 103.696H81.1634C76.7217 103.696 73.1211 107.313 73.1211 111.775C73.1211 116.237 76.7217 119.854 81.1634 119.854H114.335C118.776 119.854 122.377 116.237 122.377 111.775C122.377 107.313 118.776 103.696 114.335 103.696Z" fill="#FFC266"/>
<path d="M92.3198 112.188V114.134H90.9443V108.396H93.2236C93.6233 108.388 94.0196 108.471 94.3829 108.639C94.7062 108.786 94.9794 109.026 95.1688 109.328C95.3552 109.632 95.4513 109.984 95.4459 110.342C95.4568 110.596 95.4094 110.85 95.3072 111.082C95.2049 111.315 95.0507 111.521 94.8564 111.684C94.4634 112.02 93.9159 112.188 93.2138 112.188H92.3198ZM92.3198 111.12H93.2216C93.4426 111.137 93.6612 111.066 93.8307 110.922C93.9036 110.848 93.9599 110.759 93.9961 110.661C94.0323 110.563 94.0476 110.458 94.041 110.354C94.0532 110.12 93.9758 109.891 93.8248 109.712C93.7498 109.632 93.6583 109.568 93.5566 109.526C93.4549 109.483 93.3454 109.464 93.2354 109.468H92.3178L92.3198 111.12Z" fill="white"/>
<path d="M98.7174 113.062H96.8311L96.4951 114.134H95.0234L97.12 108.396H98.4129L100.523 114.134H99.0495L98.7174 113.062ZM97.1593 111.994H98.3873L97.7723 110.005L97.1593 111.994Z" fill="white"/>
<path d="M102.449 110.887L103.5 108.396H104.985L103.146 112.073V114.134H101.749V112.073L99.9141 108.396H101.394L102.449 110.887Z" fill="white"/>
<path d="M52.6491 138.544C52.6157 137.688 52.5725 136.543 52.541 135.686C52.5626 136.278 52.6255 137.858 52.6491 138.479V138.544Z" fill="#FFC910"/>
<path d="M76.1694 134.482C76.21 135.535 76.25 136.588 76.2893 137.64C76.3188 138.448 75.2676 139.299 73.0885 140.031C68.3865 141.61 60.2165 142.046 54.8426 140.996C51.9561 140.433 50.4628 139.557 50.4275 138.627L50.3096 135.469C50.3449 136.405 51.8383 137.281 54.7227 137.838C60.0967 138.888 68.2647 138.456 72.9686 136.873C75.1477 136.14 76.2009 135.29 76.1694 134.482Z" fill="#FFAB01"/>
<path d="M71.756 132.106C77.128 133.156 77.6742 135.29 72.9683 136.873C68.2624 138.456 60.0964 138.888 54.7224 137.838C49.3484 136.788 48.8042 134.656 53.5101 133.073C58.216 131.49 66.3801 131.056 71.756 132.106ZM56.1843 137.346C60.6367 138.215 67.4038 137.858 71.2982 136.557C75.1926 135.256 74.7446 133.478 70.2941 132.609C65.8437 131.741 59.0766 132.098 55.1802 133.399C51.2838 134.699 51.7338 136.478 56.1843 137.346Z" fill="#FFC910"/>
<path d="M70.2937 132.599C74.7441 133.468 75.1941 135.234 71.2977 136.547C67.4014 137.86 60.6363 138.215 56.1838 137.336C51.7314 136.458 51.2834 134.699 55.1798 133.389C59.0761 132.078 65.8432 131.731 70.2937 132.599Z" fill="#FFAB01"/>
<path d="M55.1805 133.793C59.0769 132.483 65.8439 132.124 70.2944 132.992C72.5088 133.426 73.7329 134.08 73.9235 134.792C74.1456 133.934 72.9136 133.11 70.2944 132.599C65.8439 131.731 59.0769 132.088 55.1805 133.389C53.2156 134.048 52.3648 134.822 52.5554 135.538C52.7126 134.948 53.5771 134.332 55.1805 133.793Z" fill="#F99B0F"/>
<path d="M66.0029 135.643C66.3369 135.949 66.0815 136.31 65.1992 136.606C64.1814 136.95 62.6075 137.109 61.2144 137.048C60.7431 137.029 60.2737 136.977 59.8095 136.892L59.5698 136.845L59.4834 136.873L59.1513 136.985L58.9548 136.948L57.9527 136.75L58.3712 136.608L57.6541 136.468L57.5676 136.498L57.2355 136.61L57.039 136.571L56.037 136.373L56.4555 136.233L55.7363 136.093L56.6991 135.769L56.7836 135.74L57.3082 135.84L57.5047 135.88L60.4422 134.893L61.4915 134.541L64.0065 133.695L63.2874 133.555L64.2502 133.231L64.3366 133.201L64.8593 133.304L65.0558 133.341L65.3879 133.229L65.4743 133.201L66.6729 133.434L66.2524 133.574L66.7751 133.677L66.9716 133.714L67.3056 133.604L67.3901 133.574L68.5946 133.819L68.1741 133.961C69.6281 134.245 69.7755 134.824 68.5042 135.252C67.691 135.492 66.8501 135.623 66.0029 135.643ZM61.6212 136.63C62.4237 136.679 63.2287 136.592 64.0026 136.373C64.8141 136.101 64.7198 135.734 63.7943 135.552L61.633 135.132L61.5485 135.159L58.6974 136.119L60.8588 136.541C61.1113 136.588 61.3667 136.617 61.6231 136.63H61.6212ZM65.1187 133.961L62.6881 134.778L64.6039 135.153C64.8135 135.192 65.0256 135.217 65.2385 135.226C65.9326 135.271 66.629 135.195 67.2977 135.003C67.9933 134.77 67.9127 134.457 67.1189 134.301L65.2032 133.926L65.1167 133.955" fill="#F99B0F"/>
<path d="M66.0029 135.25C66.3369 135.554 66.0815 135.915 65.1992 136.211C64.1814 136.555 62.6075 136.715 61.2144 136.653C60.7431 136.634 60.2737 136.582 59.8095 136.498L59.5698 136.452L59.4834 136.48L59.1513 136.59L58.9548 136.553L57.9527 136.355L58.3712 136.215L57.6541 136.075L57.5676 136.103L57.2355 136.215L57.039 136.178L56.037 135.98L56.4555 135.838L55.7363 135.698L56.6991 135.374L56.7836 135.345L57.3082 135.447L57.5047 135.485L60.4422 134.498L61.4915 134.145L64.0065 133.298L63.2874 133.158L64.2502 132.834L64.3366 132.805L64.8593 132.907L65.0558 132.945L65.3879 132.834L65.4743 132.805L66.6729 133.039L66.2524 133.18L66.7751 133.28L66.9716 133.32L67.3056 133.207L67.3901 133.18L68.5946 133.424L68.1741 133.566C69.6281 133.849 69.7755 134.427 68.5042 134.855C67.6912 135.096 66.8502 135.229 66.0029 135.25ZM61.6212 136.237C62.4236 136.288 63.2288 136.201 64.0026 135.982C64.8141 135.71 64.7198 135.341 63.7943 135.161L61.633 134.739L61.5485 134.768L58.6974 135.728L60.8588 136.148C61.1112 136.196 61.3666 136.225 61.6231 136.237H61.6212ZM65.1187 133.568L62.6881 134.386L64.6039 134.761C64.8134 134.8 65.0255 134.825 65.2385 134.836C65.9328 134.878 66.6291 134.801 67.2977 134.609C67.9933 134.374 67.9127 134.058 67.1189 133.904L65.2032 133.529L65.1167 133.559" fill="#FFCA10"/>
<path d="M51.5449 136.841V139.938C52.2837 140.349 53.3841 140.714 54.842 140.998C56.4289 141.293 58.0353 141.47 59.6481 141.527V138.369C57.9952 138.312 56.3487 138.133 54.7221 137.832C53.3408 137.569 52.2857 137.228 51.5449 136.841Z" fill="#F99B0F"/>
<path d="M53.8405 134.816C53.8091 133.959 53.7658 132.816 53.7324 131.958C53.754 132.55 53.8169 134.141 53.8405 134.751V134.816Z" fill="#FFC910"/>
<path d="M77.3618 130.756C77.4011 131.808 77.4411 132.861 77.4817 133.914C77.5112 134.721 76.458 135.572 74.2809 136.304C69.5769 137.883 61.4089 138.319 56.0349 137.269C53.1485 136.707 51.6552 135.83 51.6198 134.901L51.502 131.743C51.5354 132.676 53.0287 133.553 55.9151 134.111C61.2891 135.159 69.4571 134.727 74.163 133.144C76.3401 132.412 77.3913 131.561 77.3618 130.756Z" fill="#FFAB01"/>
<path d="M72.9487 128.379C78.3207 129.429 78.8649 131.563 74.163 133.144C69.461 134.725 61.289 135.159 55.9151 134.111C50.5411 133.063 49.9969 130.927 54.7008 129.346C59.4047 127.765 67.5727 127.329 72.9487 128.379ZM57.377 133.622C61.8274 134.492 68.5945 134.133 72.4908 132.822C76.3872 131.512 75.9373 129.743 71.4848 128.875C67.0324 128.006 60.2693 128.363 56.3729 129.674C52.4765 130.985 52.9265 132.753 57.377 133.622Z" fill="#FFC910"/>
<path d="M71.4849 128.871C75.9374 129.739 76.3972 131.508 72.491 132.818C68.5848 134.129 61.8275 134.488 57.3771 133.618C52.9266 132.747 52.4825 130.983 56.373 129.674C60.2635 128.365 67.0345 128.002 71.4849 128.871Z" fill="#FFAB01"/>
<path d="M56.3733 130.069C60.2697 128.758 67.0348 128.401 71.4853 129.269C73.7017 129.702 74.9238 130.357 75.1164 131.066C75.3384 130.209 74.1064 129.386 71.4853 128.875C67.0348 128.006 60.2697 128.363 56.3733 129.674C54.4084 130.333 53.5557 131.107 53.7482 131.824C53.9035 131.221 54.77 130.606 56.3733 130.069Z" fill="#F99B0F"/>
<path d="M67.1952 131.916C67.5273 132.22 67.2719 132.583 66.3916 132.878C65.3738 133.221 63.798 133.381 62.4049 133.32C61.934 133.303 61.4651 133.25 61.0019 133.164L60.7622 133.116L60.6758 133.144L60.3417 133.258L60.1452 133.219L59.1451 133.022L59.5636 132.879L58.8445 132.739L58.76 132.767L58.426 132.879L58.2295 132.84L57.2254 132.643L57.6459 132.502L56.9268 132.362L57.8895 132.039L57.974 132.009L58.4967 132.112L58.6932 132.149L61.6287 131.162L62.678 130.809L65.195 129.962L64.4758 129.822L65.4386 129.498L65.5251 129.469L66.0458 129.571L66.2423 129.611L66.5743 129.498L66.6608 129.469L67.8574 129.702L67.4389 129.844L67.9615 129.946L68.158 129.984L68.4901 129.871L68.5766 129.842L69.7751 130.077L69.3546 130.217C70.8087 130.501 70.958 131.081 69.6828 131.508C68.8749 131.752 68.0386 131.89 67.1952 131.916ZM62.8116 132.903C63.6147 132.954 64.4205 132.868 65.195 132.649C66.0045 132.376 65.9122 132.007 64.9847 131.827L62.8234 131.405L62.7369 131.435L59.8878 132.394L62.0492 132.814C62.3009 132.862 62.5557 132.892 62.8116 132.903ZM66.3091 130.235L63.8785 131.056L65.7943 131.431C66.0038 131.471 66.2159 131.496 66.4289 131.506C67.1233 131.551 67.8203 131.478 68.4901 131.289C69.1857 131.054 69.1051 130.74 68.3113 130.584L66.3955 130.209L66.3091 130.238" fill="#F99B0F"/>
<path d="M67.1952 131.522C67.5273 131.825 67.2719 132.189 66.3916 132.485C65.3738 132.826 63.798 132.986 62.4049 132.925C61.934 132.908 61.4651 132.856 61.0019 132.769L60.7622 132.724L60.6758 132.753L60.3417 132.864L60.1452 132.824L59.1451 132.627L59.5636 132.485L58.8445 132.345L58.76 132.374L58.426 132.485L58.2295 132.447L57.2254 132.25L57.6459 132.11L56.9268 131.97L57.8895 131.644L57.974 131.616L58.4967 131.717L58.6932 131.756L61.6287 130.769L62.678 130.418L65.195 129.571L64.4758 129.429L65.4386 129.106L65.5251 129.076L66.0458 129.179L66.2423 129.218L66.5743 129.106L66.6608 129.076L67.8574 129.311L67.4389 129.451L67.9615 129.554L68.158 129.593L68.4901 129.479L68.5766 129.451L69.7751 129.684L69.3546 129.826C70.8087 130.11 70.958 130.689 69.6828 131.115C68.8748 131.359 68.0385 131.496 67.1952 131.522ZM62.8116 132.508C63.6147 132.559 64.4205 132.473 65.195 132.254C66.0045 131.981 65.9122 131.614 64.9847 131.433L62.8234 131.01L62.7369 131.04L59.8878 131.999L62.0492 132.422C62.3011 132.468 62.5558 132.497 62.8116 132.508ZM66.3091 129.842L63.8785 130.661L65.7943 131.034C66.0037 131.075 66.2158 131.1 66.4289 131.109C67.1233 131.155 67.8203 131.081 68.4901 130.892C69.1857 130.659 69.1051 130.343 68.3113 130.187L66.3955 129.814L66.3091 129.844" fill="#FFCA10"/>
<path d="M52.7363 133.114V136.215C53.4751 136.628 54.5774 136.993 56.0354 137.275C57.6223 137.57 59.2287 137.747 60.8415 137.806V134.648C59.1886 134.592 57.5421 134.413 55.9155 134.113C54.5362 133.841 53.4653 133.499 52.7363 133.114Z" fill="#F99B0F"/>
<path d="M52.6491 130.448C52.6157 129.589 52.5725 128.444 52.541 127.588C52.5626 128.18 52.6255 129.771 52.6491 130.381V130.448Z" fill="#FFC910"/>
<path d="M76.1694 126.386C76.21 127.438 76.25 128.491 76.2893 129.544C76.3188 130.351 75.2676 131.202 73.0885 131.934C68.3865 133.513 60.2165 133.949 54.8426 132.899C51.9561 132.337 50.4628 131.46 50.4275 130.531L50.3096 127.372C50.3449 128.308 51.8383 129.184 54.7227 129.741C60.0967 130.789 68.2647 130.357 72.9686 128.774C75.1477 128.042 76.2009 127.191 76.1694 126.386Z" fill="#FFAB01"/>
<path d="M71.756 124.009C77.128 125.059 77.6742 127.193 72.9683 128.774C68.2624 130.355 60.0964 130.789 54.7224 129.741C49.3484 128.693 48.8042 126.557 53.5101 124.974C58.216 123.391 66.3801 122.963 71.756 124.009ZM56.1843 129.248C60.6367 130.118 67.4038 129.759 71.2982 128.448C75.1926 127.138 74.7446 125.369 70.2941 124.5C65.8437 123.632 59.0766 123.989 55.1802 125.3C51.2838 126.611 51.7338 128.379 56.1843 129.248Z" fill="#FFC910"/>
<path d="M70.2937 124.501C74.7441 125.369 75.1941 127.138 71.2977 128.448C67.4014 129.759 60.6363 130.118 56.1838 129.248C51.7314 128.377 51.2834 126.613 55.1798 125.3C59.0761 123.987 65.8432 123.632 70.2937 124.501Z" fill="#FFAB01"/>
<path d="M55.1805 125.695C59.0769 124.384 65.8439 124.025 70.2944 124.893C72.5088 125.328 73.7329 125.983 73.9235 126.693C74.1456 125.835 72.9136 125.012 70.2944 124.5C65.8439 123.632 59.0769 123.989 55.1805 125.3C53.2156 125.959 52.3648 126.733 52.5554 127.449C52.7126 126.849 53.5771 126.234 55.1805 125.695Z" fill="#F99B0F"/>
<path d="M66.0028 127.546C66.3369 127.85 66.0814 128.213 65.1992 128.507C64.1814 128.851 62.6075 129.011 61.2144 128.95C60.743 128.931 60.2735 128.879 59.8095 128.794L59.5698 128.746L59.4834 128.776L59.1513 128.888L58.9548 128.849L57.9527 128.652L58.3712 128.511L57.6541 128.369L57.5676 128.401L57.2355 128.511L57.039 128.472L56.037 128.274L56.4555 128.134L55.7363 127.994L56.6991 127.67L56.7836 127.641L57.3082 127.744L57.5047 127.781L60.4422 126.794L61.4915 126.441L64.0065 125.594L63.2874 125.454L64.2502 125.13L64.3366 125.101L64.8593 125.203L65.0558 125.241L65.3878 125.128L65.4743 125.101L66.6729 125.333L66.2524 125.476L66.775 125.576L66.9715 125.616L67.3056 125.503L67.3901 125.476L68.5886 125.708L68.1681 125.849C69.6222 126.133 69.7695 126.711 68.4983 127.14C67.6875 127.383 66.8487 127.52 66.0028 127.546ZM61.6212 128.533C62.4236 128.583 63.2286 128.497 64.0026 128.278C64.8141 128.006 64.7198 127.637 63.7943 127.455L61.6329 127.035L61.5485 127.065L58.6974 128.024L60.8588 128.444C61.1112 128.492 61.3666 128.521 61.6231 128.533H61.6212ZM65.1186 125.864L62.6881 126.684L64.6039 127.057C64.8136 127.095 65.0256 127.12 65.2385 127.132C65.9324 127.176 66.6287 127.101 67.2977 126.911C67.9933 126.678 67.9127 126.362 67.1189 126.206L65.2031 125.833L65.1167 125.86" fill="#F99B0F"/>
<path d="M66.0028 127.151C66.3369 127.455 66.0814 127.819 65.1992 128.113C64.1814 128.456 62.6075 128.616 61.2144 128.555C60.7429 128.538 60.2734 128.486 59.8095 128.399L59.5698 128.353L59.4834 128.381L59.1513 128.494L58.9548 128.454L57.9527 128.257L58.3712 128.115L57.6541 127.975L57.5676 128.004L57.2355 128.115L57.039 128.077L56.037 127.88L56.4555 127.74L55.7363 127.597L56.6991 127.274L56.7836 127.244L57.3082 127.347L57.5047 127.386L60.4422 126.399L61.4915 126.048L64.0065 125.201L63.2874 125.059L64.2502 124.735L64.3366 124.708L64.8593 124.808L65.0558 124.848L65.3878 124.735L65.4743 124.706L66.6729 124.941L66.2524 125.081L66.775 125.183L66.9715 125.223L67.3056 125.11L67.3901 125.079L68.5886 125.314L68.1681 125.456C69.6222 125.74 69.7695 126.318 68.4983 126.747C67.6874 126.989 66.8486 127.126 66.0028 127.151ZM61.6212 128.138C62.4236 128.189 63.2287 128.103 64.0026 127.884C64.8141 127.611 64.7198 127.242 63.7943 127.063L61.6329 126.64L61.5485 126.67L58.6974 127.629L60.8588 128.051C61.1114 128.097 61.3667 128.126 61.6231 128.138H61.6212ZM65.1186 125.47L62.6881 126.289L64.6039 126.662C64.8133 126.703 65.0254 126.728 65.2385 126.737C65.9324 126.781 66.6287 126.706 67.2977 126.516C67.9933 126.281 67.9127 125.967 67.1189 125.813L65.2031 125.438L65.1167 125.466" fill="#FFCA10"/>
<path d="M51.5449 128.744V131.845C52.2837 132.256 53.3841 132.623 54.842 132.905C56.429 133.2 58.0353 133.377 59.6481 133.436V130.278C57.9952 130.223 56.3486 130.044 54.7221 129.743C53.3408 129.477 52.2857 129.129 51.5449 128.744Z" fill="#F99B0F"/>
<path d="M53.8405 126.713C53.8091 125.855 53.7658 124.712 53.7324 123.853C53.754 124.445 53.8169 126.036 53.8405 126.648V126.713Z" fill="#FFC910"/>
<path d="M77.3618 122.657C77.4011 123.71 77.4411 124.762 77.4817 125.815C77.5112 126.62 76.458 127.471 74.2809 128.205C69.5769 129.785 61.4089 130.219 56.0349 129.171C53.1485 128.606 51.6552 127.73 51.6198 126.802L51.502 123.644C51.5354 124.579 53.0287 125.454 55.9151 126.012C61.2891 127.063 69.4571 126.628 74.163 125.047C76.3401 124.315 77.3913 123.462 77.3618 122.657Z" fill="#FFAB01"/>
<path d="M72.9487 120.28C78.3207 121.331 78.8649 123.464 74.163 125.047C69.461 126.63 61.289 127.063 55.9151 126.012C50.5411 124.962 49.9969 122.829 54.7008 121.248C59.4047 119.667 67.5727 119.23 72.9487 120.28ZM57.377 125.529C61.8274 126.397 68.5945 126.04 72.4908 124.728C76.3872 123.415 75.9373 121.648 71.4848 120.78C67.0324 119.911 60.2693 120.269 56.3729 121.581C52.4765 122.894 52.9265 124.658 57.377 125.529Z" fill="#FFC910"/>
<path d="M71.4849 120.772C75.9374 121.64 76.3972 123.409 72.491 124.72C68.5848 126.03 61.8275 126.39 57.3771 125.521C52.9266 124.653 52.4825 122.884 56.373 121.581C60.2635 120.278 67.0345 119.903 71.4849 120.772Z" fill="#FFAB01"/>
<path d="M56.3733 121.976C60.2697 120.665 67.0348 120.308 71.4853 121.177C73.7017 121.609 74.9238 122.264 75.1164 122.975C75.3384 122.116 74.1064 121.295 71.4853 120.782C67.0348 119.913 60.2697 120.271 56.3733 121.583C54.4084 122.24 53.5557 123.014 53.7482 123.733C53.9035 123.123 54.77 122.505 56.3733 121.976Z" fill="#F99B0F"/>
<path d="M52.7363 125.016V128.117C53.4751 128.529 54.5774 128.894 56.0354 129.179C57.6224 129.473 59.2287 129.649 60.8415 129.708V126.549C59.1885 126.494 57.542 126.316 55.9155 126.014C54.5362 125.742 53.4653 125.403 52.7363 125.016Z" fill="#F99B0F"/>
<path d="M52.6491 122.677C52.6157 121.82 52.5725 120.675 52.541 119.819C52.5626 120.411 52.6255 122.002 52.6491 122.612V122.677Z" fill="#FFC910"/>
<path d="M76.1694 118.62C76.21 119.673 76.25 120.726 76.2893 121.779C76.3188 122.586 75.2676 123.437 73.0885 124.169C68.3865 125.748 60.2165 126.184 54.8426 125.136C51.9561 124.572 50.4628 123.695 50.4275 122.767L50.3096 119.609C50.3449 120.545 51.8383 121.421 54.7227 121.978C60.0967 123.028 68.2647 122.596 72.9686 121.013C75.1477 120.273 76.2009 119.422 76.1694 118.62Z" fill="#FFAB01"/>
<path d="M71.756 116.238C77.128 117.288 77.6742 119.422 72.9683 121.005C68.2624 122.588 60.0964 123.02 54.7224 121.976C49.3484 120.932 48.8042 118.794 53.5101 117.211C58.216 115.628 66.3801 115.19 71.756 116.238ZM56.1843 121.479C60.6367 122.347 67.4038 121.99 71.2982 120.679C75.1926 119.368 74.7446 117.6 70.2941 116.731C65.8437 115.863 59.0766 116.22 55.1802 117.531C51.2838 118.841 51.7338 120.61 56.1843 121.479Z" fill="#FFC910"/>
<path d="M70.2937 116.731C74.7441 117.6 75.1941 119.368 71.2977 120.679C67.4014 121.99 60.6363 122.347 56.1838 121.479C51.7314 120.61 51.2834 118.843 55.1798 117.531C59.0761 116.218 65.8432 115.857 70.2937 116.731Z" fill="#FFAB01"/>
<path d="M55.1805 117.928C59.0769 116.615 65.8439 116.256 70.2944 117.124C72.5088 117.558 73.7329 118.214 73.9235 118.924C74.1456 118.066 72.9136 117.243 70.2944 116.731C65.8439 115.863 59.0769 116.22 55.1805 117.531C53.2156 118.19 52.3648 118.964 52.5554 119.68C52.7126 119.082 53.5771 118.464 55.1805 117.928Z" fill="#F99B0F"/>
<path d="M66.0029 119.775C66.3369 120.081 66.0815 120.442 65.1992 120.738C64.1814 121.082 62.6075 121.242 61.2144 121.18C60.7431 121.161 60.2737 121.109 59.8095 121.025L59.5698 120.977L59.4834 121.005L59.1513 121.117L58.9548 121.08L57.9527 120.882L58.3712 120.742L57.6541 120.6L57.5676 120.63L57.2355 120.742L57.0391 120.703L56.037 120.505L56.4555 120.365L55.7363 120.225L56.6991 119.901L56.7836 119.872L57.3082 119.974L57.5047 120.012L60.4422 119.025L61.4915 118.672L64.0065 117.827L63.2874 117.685L64.2502 117.361L64.3366 117.331L64.8613 117.436L65.0578 117.474L65.3898 117.363L65.4763 117.333L66.6749 117.566L66.2544 117.707L66.777 117.809L66.9735 117.847L67.3076 117.736L67.3921 117.707L68.5906 117.941L68.1701 118.082C69.6242 118.366 69.7715 118.944 68.5002 119.372C67.6889 119.616 66.8493 119.751 66.0029 119.775ZM61.6212 120.762C62.4236 120.812 63.2286 120.726 64.0026 120.507C64.8141 120.235 64.7198 119.866 63.7943 119.684L61.633 119.264L61.5485 119.293L58.6974 120.253L60.8588 120.673C61.1112 120.721 61.3666 120.75 61.6231 120.762H61.6212ZM65.1187 118.093L62.6881 118.911L64.6039 119.286C64.8136 119.324 65.0256 119.349 65.2385 119.361C65.9329 119.406 66.6299 119.333 67.2997 119.143C67.9953 118.909 67.9147 118.595 67.1209 118.439L65.2051 118.064L65.1187 118.093Z" fill="#F99B0F"/>
<path d="M66.0029 119.382C66.3369 119.686 66.0815 120.049 65.1992 120.346C64.1814 120.687 62.6075 120.847 61.2144 120.786C60.743 120.769 60.2734 120.716 59.8095 120.63L59.5698 120.584L59.4834 120.612L59.1513 120.725L58.9548 120.685L57.9527 120.488L58.3712 120.348L57.6541 120.207L57.5676 120.237L57.2355 120.348L57.0391 120.31L56.037 120.113L56.4555 119.971L55.7363 119.83L56.6991 119.507L56.7836 119.477L57.3082 119.58L57.5047 119.619L60.4422 118.632L61.4915 118.279L64.0065 117.434L63.2874 117.292L64.2502 116.968L64.3366 116.939L64.8613 117.041L65.0578 117.081L65.3898 116.968L65.4763 116.939L66.6749 117.174L66.2544 117.314L66.777 117.416L66.9735 117.454L67.3076 117.341L67.3921 117.314L68.5906 117.547L68.1701 117.689C69.6242 117.973 69.7715 118.551 68.5002 118.98C67.6889 119.223 66.8493 119.358 66.0029 119.382ZM61.6212 120.369C62.4236 120.42 63.2288 120.334 64.0026 120.115C64.8141 119.842 64.7198 119.473 63.7943 119.293L61.633 118.871L61.5485 118.901L58.6974 119.86L60.8588 120.282C61.1114 120.328 61.3667 120.357 61.6231 120.369H61.6212ZM65.1187 117.703L62.6881 118.52L64.6039 118.893C64.8134 118.932 65.0255 118.958 65.2385 118.968C65.9327 119.013 66.6296 118.94 67.2997 118.753C67.9953 118.518 67.9147 118.202 67.1209 118.046L65.2051 117.673L65.1187 117.703Z" fill="#FFCA10"/>
<path d="M51.5449 120.975V124.076C52.2837 124.487 53.3841 124.852 54.842 125.138C56.4292 125.431 58.0354 125.608 59.6481 125.667V122.509C57.9952 122.455 56.3487 122.276 54.7221 121.976C53.3408 121.702 52.2857 121.36 51.5449 120.975Z" fill="#F99B0F"/>
<path d="M53.8405 118.948C53.8091 118.091 53.7658 116.949 53.7324 116.09C53.754 116.682 53.8169 118.273 53.8405 118.885V118.948Z" fill="#FFC910"/>
<path d="M77.3618 114.888C77.4011 115.941 77.4411 116.993 77.4817 118.046C77.5112 118.853 76.458 119.704 74.2809 120.438C69.5769 122.017 61.4089 122.452 56.0349 121.404C53.1485 120.839 51.6552 119.963 51.6198 119.035L51.502 115.877C51.5354 116.81 53.0287 117.687 55.9151 118.245C61.2891 119.295 69.4571 118.861 74.163 117.28C76.3401 116.544 77.3913 115.695 77.3618 114.888Z" fill="#FFAB01"/>
<path d="M72.9487 112.511C78.3207 113.561 78.8649 115.695 74.163 117.278C69.461 118.861 61.289 119.293 55.9151 118.243C50.5411 117.193 49.9969 115.067 54.7008 113.488C59.4047 111.909 67.5727 111.461 72.9487 112.511ZM57.377 117.752C61.8274 118.62 68.5945 118.263 72.4908 116.951C76.3872 115.638 75.9373 113.873 71.4848 113.003C67.0324 112.132 60.2693 112.501 56.3729 113.804C52.4765 115.107 52.9265 116.881 57.377 117.752Z" fill="#FFC910"/>
<path d="M71.4844 113.003C75.9368 113.873 76.3966 115.64 72.4904 116.951C68.5842 118.261 61.827 118.62 57.3765 117.752C52.926 116.883 52.4761 115.115 56.3725 113.804C60.2688 112.494 67.0339 112.134 71.4844 113.003Z" fill="#FFAB01"/>
<path d="M56.3733 114.197C60.2697 112.886 67.0348 112.529 71.4853 113.398C73.7017 113.83 74.9238 114.485 75.1164 115.196C75.3384 114.339 74.1064 113.514 71.4853 113.003C67.0348 112.134 60.2697 112.494 56.3733 113.804C54.4084 114.461 53.5557 115.235 53.7482 115.954C53.9035 115.354 54.77 114.738 56.3733 114.197Z" fill="#F99B0F"/>
<path d="M67.1952 116.054C67.5273 116.358 67.2719 116.722 66.3916 117.016C65.3738 117.361 63.798 117.519 62.4049 117.458C61.934 117.441 61.4651 117.389 61.0019 117.302L60.7622 117.255L60.6758 117.284L60.3417 117.397L60.1452 117.357L59.1451 117.16L59.5636 117.018L58.8445 116.878L58.76 116.905L58.426 117.02L58.2295 116.98L57.2254 116.783L57.6459 116.641L56.9268 116.501L57.8895 116.177L57.974 116.149L58.4967 116.25L58.6932 116.289L61.6287 115.302L62.678 114.949L65.195 114.104L64.4758 113.962L65.4386 113.64L65.5251 113.609L66.0458 113.711L66.2423 113.751L66.5743 113.638L66.6608 113.609L67.8574 113.844L67.4389 113.984L67.9615 114.086L68.158 114.124L68.4901 114.011L68.5766 113.982L69.7751 114.217L69.3546 114.357C70.8087 114.641 70.958 115.221 69.6828 115.65C68.8745 115.892 68.0384 116.028 67.1952 116.054ZM62.8116 117.041C63.6147 117.092 64.4205 117.006 65.195 116.787C66.0045 116.514 65.9122 116.145 64.9847 115.966L62.8234 115.543L62.7369 115.573L59.8878 116.532L62.0492 116.953C62.3009 117 62.5557 117.03 62.8116 117.041ZM66.3091 114.375L63.8785 115.182L65.7943 115.555C66.0038 115.595 66.2159 115.62 66.4289 115.63C67.1233 115.676 67.8203 115.602 68.4901 115.413C69.1857 115.18 69.1051 114.864 68.3113 114.71L66.3955 114.335L66.3091 114.365" fill="#F99B0F"/>
<path d="M67.1952 115.66C67.5273 115.964 67.2719 116.327 66.3916 116.623C65.3738 116.966 63.798 117.126 62.4049 117.063C61.9341 117.046 61.4653 116.994 61.0019 116.909L60.7622 116.862L60.6758 116.891L60.3417 117.002L60.1452 116.962L59.1451 116.765L59.5636 116.623L58.8445 116.483L58.76 116.512L58.426 116.625L58.2295 116.587L57.2254 116.39L57.6459 116.25L56.9268 116.11L57.8895 115.786L57.974 115.756L58.4967 115.859L58.6932 115.896L61.6287 114.91L62.678 114.558L65.195 113.711L64.4758 113.569L65.4386 113.248L65.5251 113.218L66.0458 113.319L66.2423 113.358L66.5743 113.246L66.6608 113.216L67.8574 113.451L67.4389 113.593L67.9615 113.694L68.158 113.733L68.4901 113.621L68.5766 113.591L69.7751 113.826L69.3546 113.966C70.8087 114.25 70.958 114.829 69.6828 115.257C68.8746 115.5 68.0384 115.635 67.1952 115.66ZM62.8116 116.647C63.6147 116.698 64.4207 116.612 65.195 116.392C66.0045 116.12 65.9122 115.752 64.9847 115.571L62.8234 115.15L62.7369 115.18L59.8878 116.139L62.0492 116.56C62.301 116.607 62.5557 116.636 62.8116 116.647ZM66.3091 113.98L63.8785 114.787L65.7943 115.162C66.0039 115.201 66.216 115.226 66.4289 115.235C67.1232 115.281 67.8201 115.209 68.4901 115.02C69.1857 114.785 69.1051 114.469 68.3113 114.315L66.3955 113.94L66.3091 113.97" fill="#FFCA10"/>
<path d="M52.7363 117.239V120.34C53.4751 120.752 54.5774 121.117 56.0354 121.402C57.6225 121.695 59.2288 121.871 60.8415 121.931V118.772C59.1885 118.717 57.542 118.539 55.9155 118.237C54.5362 117.973 53.4653 117.633 52.7363 117.239Z" fill="#F99B0F"/>
<path d="M52.6491 114.58C52.6157 113.723 52.5725 112.578 52.541 111.72C52.5626 112.312 52.6255 113.903 52.6491 114.515V114.58Z" fill="#FFC910"/>
<path d="M76.1694 110.528C76.21 111.58 76.25 112.633 76.2893 113.686C76.3188 114.493 75.2676 115.344 73.0885 116.078C68.3865 117.657 60.2165 118.091 54.8426 117.043C51.9561 116.479 50.4628 115.604 50.4275 114.675L50.3096 111.516C50.3449 112.452 51.8383 113.326 54.7227 113.885C60.0967 114.935 68.2647 114.503 72.9686 112.92C75.1477 112.174 76.2009 111.317 76.1694 110.528Z" fill="#FFAB01"/>
<path d="M71.756 108.141C77.128 109.191 77.6742 111.325 72.9683 112.908C68.2624 114.491 60.0964 114.923 54.7224 113.883C49.3484 112.843 48.8042 110.699 53.5101 109.118C58.216 107.537 66.3801 107.093 71.756 108.141ZM56.1843 113.38C60.6367 114.25 67.4038 113.891 71.2982 112.58C75.1926 111.27 74.7446 109.503 70.2941 108.633C65.8437 107.762 59.0766 108.123 55.1802 109.432C51.2838 110.741 51.7338 112.511 56.1843 113.38Z" fill="#FFC910"/>
<path d="M70.2937 108.633C74.7441 109.503 75.1941 111.27 71.2977 112.58C67.4014 113.891 60.6363 114.25 56.1838 113.38C51.7314 112.509 51.2834 110.745 55.1798 109.432C59.0761 108.119 65.8432 107.764 70.2937 108.633Z" fill="#FFAB01"/>
<path d="M55.1805 109.829C59.0769 108.516 65.8439 108.157 70.2944 109.027C72.5088 109.46 73.7329 110.115 73.9235 110.826C74.1456 109.967 72.9136 109.146 70.2944 108.633C65.8439 107.764 59.0769 108.123 55.1805 109.432C53.2156 110.093 52.3648 110.865 52.5554 111.582C52.7126 110.984 53.5771 110.368 55.1805 109.829Z" fill="#F99B0F"/>
<path d="M66.0029 111.678C66.3369 111.982 66.0815 112.346 65.1992 112.64C64.1814 112.983 62.6075 113.143 61.2144 113.082C60.743 113.065 60.2734 113.013 59.8095 112.926L59.5698 112.878L59.4834 112.908L59.1513 113.021L58.9548 112.981L57.9527 112.784L58.3712 112.642L57.6541 112.501L57.5676 112.531L57.2355 112.642L57.0391 112.604L56.037 112.407L56.4555 112.267L55.7363 112.126L56.6991 111.803L56.7836 111.773L57.3082 111.876L57.5047 111.915L60.4422 110.928L61.4915 110.577L64.0065 109.728L63.2874 109.588L64.2502 109.264L64.3366 109.235L64.8613 109.343L65.0578 109.383L65.3898 109.27L65.4763 109.241L66.6749 109.476L66.2544 109.616L66.777 109.718L66.9735 109.756L67.3076 109.643L67.3921 109.616L68.5906 109.849L68.1701 109.989C69.6242 110.273 69.7715 110.853 68.5002 111.282C67.6884 111.522 66.8489 111.655 66.0029 111.678ZM61.6212 112.665C62.4236 112.716 63.2288 112.63 64.0026 112.411C64.8141 112.138 64.7198 111.771 63.7943 111.59L61.633 111.167L61.5485 111.197L58.6974 112.156L60.8588 112.576C61.1112 112.624 61.3666 112.654 61.6231 112.665H61.6212ZM65.1167 109.995L62.6861 110.812L64.6019 111.185C64.8115 111.225 65.0235 111.25 65.2366 111.26C65.9309 111.305 66.6279 111.232 67.2977 111.043C67.9933 110.81 67.9127 110.494 67.1189 110.338L65.2032 109.965L65.1167 109.995Z" fill="#F99B0F"/>
<path d="M66.0029 111.284C66.3369 111.588 66.0815 111.951 65.1992 112.247C64.1814 112.59 62.6075 112.75 61.2144 112.687C60.7429 112.671 60.2732 112.619 59.8095 112.531L59.5698 112.486L59.4834 112.515L59.1513 112.626L58.9548 112.588L57.9527 112.391L58.3712 112.249L57.6541 112.109L57.5676 112.138L57.2355 112.249L57.0391 112.211L56.037 112.014L56.4555 111.874L55.7363 111.734L56.6991 111.408L56.7836 111.38L57.3082 111.481L57.5047 111.52L60.4422 110.534L61.4915 110.18L64.0065 109.333L63.2874 109.193L64.2502 108.868L64.3366 108.84L64.8613 108.949L65.0578 108.988L65.3898 108.875L65.4763 108.846L66.6749 109.081L66.2544 109.223L66.777 109.324L66.9735 109.363L67.3076 109.251L67.3921 109.221L68.5906 109.456L68.1701 109.596C69.6242 109.88 69.7715 110.459 68.5002 110.887C67.6886 111.128 66.849 111.261 66.0029 111.284ZM61.6212 112.271C62.4236 112.321 63.2288 112.235 64.0026 112.016C64.8141 111.743 64.7198 111.376 63.7943 111.195L61.633 110.774L61.5485 110.802L58.6974 111.763L60.8588 112.184C61.1114 112.23 61.3667 112.259 61.6231 112.271H61.6212ZM65.1167 109.6L62.6861 110.417L64.6019 110.792C64.8114 110.832 65.0235 110.856 65.2366 110.865C65.9308 110.911 66.6278 110.839 67.2977 110.65C67.9933 110.415 67.9127 110.101 67.1189 109.945L65.2032 109.57L65.1167 109.6Z" fill="#FFCA10"/>
<path d="M51.5449 112.876V115.979C52.2837 116.39 53.3841 116.755 54.842 117.039C56.4292 117.332 58.0354 117.509 59.6481 117.568V114.41C57.9954 114.358 56.3488 114.182 54.7221 113.883C53.3408 113.603 52.2857 113.263 51.5449 112.876Z" fill="#F99B0F"/>
<path d="M53.8405 110.851C53.8091 109.995 53.7658 108.85 53.7324 107.993C53.754 108.585 53.8169 110.174 53.8405 110.786V110.851Z" fill="#FFC910"/>
<path d="M77.3618 106.789C77.4011 107.842 77.4411 108.895 77.4817 109.947C77.5112 110.755 76.458 111.603 74.2809 112.338C69.5769 113.917 61.4089 114.353 56.0349 113.303C53.1485 112.738 51.6552 111.862 51.6198 110.934L51.502 107.776C51.5354 108.712 53.0287 109.588 55.9151 110.145C61.2891 111.195 69.4571 110.763 74.163 109.179C76.3401 108.447 77.3913 107.596 77.3618 106.789Z" fill="#FFAB01"/>
<path d="M72.9487 104.409C78.3207 105.459 78.8649 107.592 74.163 109.176C69.461 110.759 61.289 111.191 55.9151 110.141C50.5411 109.091 49.9969 106.959 54.7008 105.376C59.4047 103.793 67.5727 103.364 72.9487 104.409ZM57.377 109.649C61.8274 110.518 68.5945 110.16 72.4908 108.85C76.3872 107.539 75.9373 105.771 71.4848 104.902C67.0324 104.034 60.2693 104.391 56.3729 105.702C52.4765 107.012 52.9265 108.781 57.377 109.649Z" fill="#FFC910"/>
<path d="M71.4844 104.906C75.9368 105.775 76.3966 107.541 72.4904 108.854C68.5842 110.166 61.827 110.522 57.3765 109.653C52.926 108.785 52.4761 107.016 56.3725 105.705C60.2688 104.395 67.0339 104.036 71.4844 104.906Z" fill="#FFAB01"/>
<path d="M56.3733 106.1C60.2697 104.79 67.0348 104.43 71.4853 105.299C73.7017 105.731 74.9238 106.388 75.1164 107.099C75.3384 106.24 74.1064 105.417 71.4853 104.906C67.0348 104.036 60.2697 104.395 56.3733 105.705C54.4084 106.365 53.5557 107.139 53.7482 107.855C53.9035 107.255 54.77 106.639 56.3733 106.1Z" fill="#F99B0F"/>
<path d="M52.7363 109.146V112.247C53.4751 112.657 54.5774 113.023 56.0354 113.307C57.6222 113.602 59.2287 113.779 60.8415 113.836V110.678C59.1885 110.623 57.542 110.444 55.9155 110.143C54.5362 109.876 53.4653 109.541 52.7363 109.146Z" fill="#F99B0F"/>
<path d="M31.9997 146.124C31.9663 145.267 31.923 144.123 31.8916 143.266C31.9132 143.858 31.9741 145.437 31.9997 146.059C31.9977 146.081 31.9977 146.102 31.9997 146.124Z" fill="#FFC910"/>
<path d="M55.52 142.062C55.5613 143.118 55.5986 144.172 55.6399 145.22C55.6694 146.027 54.6181 146.878 52.4391 147.61C47.7371 149.19 39.5671 149.626 34.1931 148.576C31.3067 148.011 29.8134 147.137 29.778 146.207L29.6602 143.049C29.6955 143.984 31.1869 144.861 34.0733 145.417C39.4473 146.468 47.6153 146.035 52.3192 144.452C54.4983 143.72 55.5495 142.869 55.52 142.062Z" fill="#FFAB01"/>
<path d="M51.1066 139.685C56.4786 140.735 57.0248 142.869 52.3189 144.452C47.613 146.035 39.4469 146.468 34.073 145.417C28.699 144.367 28.1547 142.236 32.8606 140.653C37.5665 139.07 45.7306 138.637 51.1066 139.685ZM35.5349 144.926C39.9853 145.794 46.7524 145.437 50.6488 144.136C54.5451 142.836 54.0952 141.057 49.6427 140.189C45.1903 139.32 38.4272 139.677 34.5308 140.978C30.6344 142.279 31.0844 144.057 35.5349 144.926Z" fill="#FFC910"/>
<path d="M49.6426 140.179C54.095 141.047 54.545 142.814 50.6486 144.127C46.7523 145.439 39.9852 145.794 35.5347 144.916C31.0842 144.038 30.6343 142.279 34.5307 140.968C38.427 139.658 45.1941 139.31 49.6426 140.179Z" fill="#FFAB01"/>
<path d="M34.5305 141.373C38.4269 140.06 45.194 139.703 49.6425 140.572C51.8589 141.006 53.083 141.659 53.2736 142.372C53.4956 141.513 52.2636 140.69 49.6425 140.179C45.194 139.31 38.4269 139.668 34.5305 140.968C32.5657 141.628 31.7129 142.401 31.9055 143.118C32.0626 142.528 32.9272 141.912 34.5305 141.373Z" fill="#F99B0F"/>
<path d="M45.3534 143.223C45.6875 143.528 45.432 143.89 44.5498 144.186C43.532 144.529 41.9562 144.689 40.5631 144.628C40.0924 144.609 39.6236 144.557 39.1601 144.472L38.9204 144.425L38.834 144.452L38.4999 144.565L38.3034 144.527L37.3014 144.33L37.7199 144.188L37.0027 144.048L36.9162 144.077L36.5822 144.19L36.3857 144.15L35.3836 143.953L35.8022 143.813L35.083 143.673L36.0458 143.347L36.1303 143.319L36.6529 143.422L36.8494 143.459L39.7968 142.472L40.846 142.119L43.3611 141.272L42.6419 141.132L43.6047 140.808L43.6912 140.777L44.2119 140.88L44.4083 140.919L44.7404 140.807L44.8269 140.777L46.0235 141.012L45.605 141.152L46.1276 141.255L46.3241 141.292L46.6581 141.182L46.7426 141.152L47.9412 141.387L47.5207 141.527C48.9747 141.809 49.1221 142.39 47.8508 142.818C47.0395 143.062 46.1999 143.198 45.3534 143.223ZM40.9718 144.209C41.7743 144.259 42.5795 144.173 43.3532 143.953C44.1627 143.68 44.0704 143.313 43.1449 143.132L40.9836 142.711L40.8991 142.739L38.048 143.7L40.2094 144.121C40.4618 144.168 40.7172 144.198 40.9737 144.209H40.9718ZM44.4693 141.541L42.0387 142.358L43.9545 142.733C44.1641 142.772 44.3761 142.796 44.5891 142.806C45.2834 142.852 45.9804 142.778 46.6503 142.589C47.3458 142.356 47.2653 142.04 46.4715 141.884L44.5537 141.517L44.4673 141.547" fill="#F99B0F"/>
<path d="M45.3534 142.83C45.6875 143.134 45.432 143.495 44.5498 143.791C43.532 144.134 41.9562 144.294 40.5631 144.233C40.0924 144.214 39.6236 144.162 39.1601 144.077L38.9204 144.032L38.834 144.059L38.4999 144.17L38.3034 144.132L37.3014 143.935L37.7199 143.795L37.0027 143.655L36.9162 143.682L36.5822 143.795L36.3857 143.757L35.3836 143.56L35.8022 143.418L35.083 143.278L36.0458 142.954L36.1303 142.924L36.6529 143.027L36.8494 143.065L39.7968 142.078L40.846 141.724L43.3611 140.878L42.6419 140.737L43.6047 140.414L43.6912 140.384L44.2119 140.487L44.4083 140.524L44.7404 140.414L44.8269 140.384L46.0235 140.619L45.605 140.759L46.1276 140.86L46.3241 140.899L46.6581 140.787L46.7426 140.759L47.9412 140.992L47.5207 141.132C48.9747 141.416 49.1221 141.997 47.8508 142.423C47.0396 142.668 46.2 142.804 45.3534 142.83ZM40.9718 143.817C41.7743 143.868 42.5797 143.781 43.3532 143.56C44.1627 143.29 44.0704 142.92 43.1449 142.741L40.9836 142.318L40.8991 142.348L38.048 143.307L40.2094 143.728C40.4618 143.775 40.7172 143.805 40.9737 143.817H40.9718ZM44.4693 141.15L42.0387 141.965L43.9545 142.34C44.164 142.38 44.3761 142.405 44.5891 142.415C45.2834 142.461 45.9804 142.387 46.6503 142.198C47.3458 141.963 47.2653 141.647 46.4715 141.493L44.5557 141.118L44.4693 141.15Z" fill="#FFCA10"/>
<path d="M30.8955 144.423V147.524C31.6343 147.934 32.7346 148.299 34.1926 148.583C35.7795 148.878 37.3859 149.055 38.9987 149.112V145.954C37.3457 145.899 35.6992 145.721 34.0727 145.419C32.6914 145.149 31.6304 144.808 30.8955 144.423Z" fill="#F99B0F"/>
<path d="M33.1911 142.395C33.1596 141.539 33.1164 140.396 33.083 139.537C33.1046 140.129 33.1675 141.72 33.1911 142.33V142.395Z" fill="#FFC910"/>
<path d="M56.7104 138.335C56.7523 139.388 56.793 140.441 56.8323 141.493C56.8617 142.301 55.8085 143.151 53.6315 143.884C48.9275 145.463 40.7595 145.899 35.3836 144.851C32.4991 144.286 31.0058 143.41 30.9704 142.482L30.8506 139.324C30.886 140.258 32.3793 141.134 35.2657 141.693C40.6396 142.741 48.8077 142.309 53.5116 140.726C55.6907 139.991 56.7419 139.148 56.7104 138.335Z" fill="#FFAB01"/>
<path d="M52.2973 135.959C57.6713 137.009 58.2156 139.143 53.5116 140.724C48.8077 142.305 40.6397 142.739 35.2657 141.691C29.8917 140.643 29.3474 138.507 34.0514 136.926C38.7553 135.345 46.9234 134.909 52.2973 135.959ZM36.7295 141.197C41.178 142.068 47.9451 141.709 51.8415 140.408C55.7378 139.107 55.2879 137.329 50.8354 136.46C46.383 135.592 39.6179 135.949 35.7215 137.25C31.8252 138.55 32.2771 140.329 36.7295 141.197Z" fill="#FFC910"/>
<path d="M50.8358 136.45C55.2882 137.319 55.7382 139.087 51.8418 140.398C47.9454 141.709 41.1784 142.068 36.7299 141.187C32.2814 140.307 31.8177 138.552 35.7219 137.24C39.6261 135.927 46.3912 135.582 50.8358 136.45Z" fill="#FFAB01"/>
<path d="M35.722 137.644C39.6184 136.334 46.3854 135.976 50.8359 136.855C53.0523 137.287 54.2744 137.942 54.465 138.651C54.689 137.794 53.4571 136.971 50.8359 136.46C46.3854 135.592 39.6184 135.949 35.722 137.25C33.7571 137.909 32.9063 138.683 33.0989 139.399C33.2541 138.801 34.1206 138.185 35.722 137.644Z" fill="#F99B0F"/>
<path d="M46.5439 139.496C46.8779 139.8 46.6225 140.163 45.7422 140.457C44.7244 140.801 43.1485 140.96 41.7554 140.899C41.2841 140.88 40.8147 140.828 40.3505 140.743L40.1128 140.696L40.0263 140.724L39.6923 140.838L39.4958 140.799L38.4957 140.601L38.9142 140.461L38.1951 140.321L38.1106 140.349L37.7765 140.461L37.5801 140.422L36.5799 140.224L36.9984 140.084L36.2793 139.944L37.2401 139.62L37.3266 139.591L37.8492 139.693L38.0457 139.731L40.9813 138.744L42.0305 138.39L44.5456 137.544L43.8284 137.404L44.7912 137.08L44.8776 137.05L45.3983 137.153L45.5948 137.192L45.9288 137.08L46.0153 137.05L47.2119 137.283L46.7934 137.425L47.3141 137.528L47.5106 137.565L47.8446 137.453L47.9311 137.423L49.1277 137.658L48.7092 137.798C50.1632 138.083 50.3105 138.663 49.0393 139.089C48.2287 139.334 47.3898 139.47 46.5439 139.496ZM42.1622 140.483C42.9652 140.532 43.7709 140.446 44.5456 140.228C45.3551 139.956 45.2628 139.587 44.3353 139.407L42.174 138.985L42.0875 139.014L39.2384 139.974L41.3998 140.394C41.6515 140.442 41.9063 140.471 42.1622 140.483ZM45.6597 137.814L43.2291 138.631L45.1449 139.006C45.3544 139.046 45.5665 139.071 45.7795 139.081C46.4739 139.127 47.1708 139.053 47.8407 138.864C48.5343 138.629 48.4557 138.315 47.6599 138.16L45.7442 137.785L45.6597 137.814Z" fill="#F99B0F"/>
<path d="M46.5439 139.101C46.8779 139.405 46.6225 139.768 45.7422 140.064C44.7244 140.406 43.1485 140.568 41.7554 140.505C41.2839 140.487 40.8144 140.435 40.3505 140.349L40.1128 140.303L40.0263 140.333L39.6923 140.443L39.4958 140.404L38.4957 140.206L38.9142 140.066L38.1951 139.926L38.1106 139.956L37.7765 140.066L37.5801 140.029L36.5799 139.831L36.9984 139.691L36.2793 139.551L37.2401 139.225L37.3266 139.198L37.8492 139.299L38.0457 139.338L40.9813 138.351L42.0305 138L44.5456 137.153L43.8284 137.011L44.7912 136.687L44.8776 136.657L45.3983 136.76L45.5948 136.8L45.9288 136.687L46.0153 136.657L47.2119 136.892L46.7934 137.033L47.3141 137.135L47.5106 137.175L47.8446 137.06L47.9311 137.033L49.1277 137.265L48.7092 137.408C50.1632 137.692 50.3105 138.27 49.0393 138.698C48.2285 138.941 47.3896 139.077 46.5439 139.101ZM42.1622 140.088C42.9653 140.14 43.7712 140.053 44.5456 139.833C45.3551 139.561 45.2628 139.194 44.3353 139.012L42.174 138.59L42.0875 138.619L39.2384 139.579L41.3998 140.001C41.6516 140.048 41.9063 140.077 42.1622 140.088ZM45.6597 137.421L43.2291 138.239L45.1449 138.612C45.3543 138.652 45.5664 138.677 45.7795 138.687C46.4739 138.732 47.1708 138.659 47.8407 138.469C48.5343 138.235 48.4557 137.921 47.6599 137.765L45.7442 137.392L45.6597 137.421Z" fill="#FFCA10"/>
<path d="M32.0869 140.694V143.795C32.8257 144.207 33.928 144.573 35.384 144.857C36.9718 145.15 38.5788 145.327 40.1921 145.386V142.228C38.5392 142.172 36.8927 141.993 35.2661 141.693C33.8848 141.42 32.8336 141.079 32.0869 140.694Z" fill="#F99B0F"/>
<path d="M31.9997 138.027C31.9663 137.169 31.923 136.024 31.8916 135.167C31.9132 135.759 31.9741 137.35 31.9997 137.96C31.9977 137.983 31.9977 138.005 31.9997 138.027Z" fill="#FFC910"/>
<path d="M55.52 133.965C55.5613 135.019 55.5986 136.075 55.6399 137.123C55.6694 137.931 54.6181 138.781 52.4391 139.514C47.7371 141.093 39.5671 141.529 34.1931 140.479C31.3067 139.916 29.8134 139.04 29.778 138.11L29.6602 134.952C29.6955 135.888 31.1869 136.764 34.0733 137.321C39.4473 138.369 47.6153 137.937 52.3192 136.354C54.4983 135.621 55.5495 134.77 55.52 133.965Z" fill="#FFAB01"/>
<path d="M51.1066 131.589C56.4786 132.639 57.0248 134.772 52.3189 136.353C47.613 137.935 39.4469 138.369 34.073 137.321C28.699 136.273 28.1547 134.137 32.8606 132.556C37.5665 130.975 45.7306 130.539 51.1066 131.589ZM35.5349 136.827C39.9853 137.698 46.7524 137.338 50.6488 136.038C54.5451 134.737 54.0952 132.958 49.6427 132.09C45.1903 131.221 38.4272 131.579 34.5308 132.88C30.6344 134.18 31.0844 135.959 35.5349 136.827Z" fill="#FFC910"/>
<path d="M49.6426 132.08C54.095 132.949 54.545 134.717 50.6486 136.028C46.7523 137.338 39.9852 137.698 35.5347 136.817C31.0842 135.937 30.6343 134.182 34.5307 132.87C38.427 131.557 45.1941 131.212 49.6426 132.08Z" fill="#FFAB01"/>
<path d="M34.5305 133.274C38.4269 131.964 45.194 131.604 49.6425 132.473C51.8589 132.907 53.083 133.562 53.2736 134.273C53.4956 133.414 52.2636 132.593 49.6425 132.08C45.194 131.212 38.4269 131.569 34.5305 132.87C32.5657 133.529 31.7129 134.303 31.9055 135.019C32.0626 134.431 32.9272 133.819 34.5305 133.274Z" fill="#F99B0F"/>
<path d="M45.3534 135.126C45.6875 135.43 45.432 135.793 44.5498 136.087C43.532 136.43 41.9562 136.59 40.563 136.529C40.0924 136.51 39.6236 136.458 39.1601 136.373L38.9243 136.326L38.8379 136.355L38.5038 136.468L38.3074 136.429L37.3053 136.231L37.7238 136.091L37.0066 135.949L36.9202 135.98L36.5861 136.091L36.3896 136.052L35.3875 135.854L35.8061 135.714L35.0869 135.574L36.0497 135.25L36.1342 135.221L36.6569 135.323L36.8533 135.361L39.8007 134.374L40.8499 134.02L43.365 133.174L42.6458 133.034L43.6086 132.71L43.6951 132.68L44.2158 132.783L44.4123 132.82L44.7443 132.708L44.8308 132.68L46.0274 132.913L45.6089 133.055L46.1315 133.156L46.328 133.195L46.6621 133.083L46.7465 133.053L47.9451 133.288L47.5246 133.428C48.9787 133.713 49.126 134.291 47.8547 134.719C47.0421 134.963 46.2012 135.1 45.3534 135.126ZM40.9717 136.113C41.7742 136.162 42.5792 136.076 43.3532 135.858C44.1627 135.586 44.0704 135.217 43.1449 135.035L40.9835 134.615L40.899 134.644L38.0519 135.596L40.2133 136.016C40.4657 136.064 40.7211 136.093 40.9776 136.105L40.9717 136.113ZM44.4732 133.436L42.0426 134.253L43.9584 134.628C44.1681 134.667 44.3801 134.692 44.593 134.703C45.2874 134.749 45.9844 134.675 46.6542 134.486C47.3498 134.251 47.2692 133.938 46.4754 133.782L44.5596 133.409L44.4732 133.436Z" fill="#F99B0F"/>
<path d="M45.3534 134.731C45.6875 135.035 45.432 135.398 44.5498 135.692C43.532 136.036 41.9562 136.198 40.5631 136.134C40.0922 136.117 39.6233 136.065 39.1601 135.978L38.9204 135.933L38.834 135.961L38.4999 136.073L38.3034 136.034L37.3014 135.836L37.7199 135.694L37.0027 135.554L36.9162 135.584L36.5822 135.694L36.3857 135.657L35.3836 135.459L35.8022 135.319L35.083 135.177L36.0458 134.853L36.1303 134.824L36.6529 134.926L36.8494 134.966L39.7968 133.979L40.846 133.628L43.3611 132.781L42.6419 132.639L43.6047 132.315L43.6912 132.285L44.2119 132.388L44.4083 132.428L44.7404 132.315L44.8269 132.285L46.0235 132.52L45.605 132.66L46.1276 132.763L46.3241 132.801L46.6581 132.688L46.7426 132.66L47.9412 132.893L47.5207 133.035C48.9747 133.32 49.1221 133.898 47.8508 134.324C47.0396 134.569 46.2 134.706 45.3534 134.731ZM40.9718 135.718C41.7742 135.768 42.5793 135.682 43.3532 135.463C44.1627 135.191 44.0704 134.824 43.1449 134.642L40.9836 134.22L40.8991 134.249L38.0519 135.201L40.2133 135.623C40.4659 135.669 40.7212 135.698 40.9777 135.71L40.9718 135.718ZM44.4732 133.041L42.0426 133.861L43.9584 134.234C44.1678 134.274 44.3799 134.299 44.593 134.309C45.2874 134.354 45.9844 134.281 46.6542 134.091C47.3498 133.857 47.2692 133.543 46.4754 133.387L44.5596 133.014L44.4732 133.041Z" fill="#FFCA10"/>
<path d="M30.8955 136.324V139.425C31.6343 139.835 32.7346 140.201 34.1926 140.485C35.7796 140.779 37.3859 140.957 38.9987 141.016V137.858C37.3457 137.803 35.6992 137.624 34.0727 137.323C32.6914 137.05 31.6304 136.709 30.8955 136.324Z" fill="#F99B0F"/>
<path d="M33.1911 134.299C33.1596 133.44 33.1164 132.297 33.083 131.439C33.1046 132.031 33.1675 133.622 33.1911 134.232V134.299Z" fill="#FFC910"/>
<path d="M56.7104 130.237C56.7523 131.289 56.793 132.342 56.8323 133.395C56.8617 134.202 55.8085 135.053 53.6315 135.787C48.9275 137.366 40.7595 137.8 35.3836 136.752C32.4991 136.188 31.0058 135.311 30.9704 134.384L30.8506 131.225C30.886 132.161 32.3793 133.037 35.2657 133.594C40.6396 134.644 48.8077 134.21 53.5116 132.629C55.6907 131.895 56.7419 131.042 56.7104 130.237Z" fill="#FFAB01"/>
<path d="M52.2973 127.86C57.6713 128.91 58.2156 131.044 53.5116 132.627C48.8077 134.21 40.6397 134.642 35.2657 133.592C29.8917 132.542 29.3474 130.408 34.0514 128.827C38.7553 127.246 46.9234 126.81 52.2973 127.86ZM36.7295 133.101C41.178 133.969 47.9451 133.61 51.8415 132.299C55.7378 130.989 55.2879 129.222 50.8354 128.351C46.383 127.481 39.6179 127.84 35.7215 129.151C31.8252 130.462 32.2771 132.228 36.7295 133.099" fill="#FFC910"/>
<path d="M50.8358 128.353C55.2882 129.222 55.7382 130.989 51.8418 132.301C47.9454 133.614 41.1784 133.971 36.7299 133.103C32.2814 132.234 31.8177 130.465 35.7219 129.155C39.6261 127.844 46.3912 127.483 50.8358 128.353Z" fill="#FFAB01"/>
<path d="M35.722 129.546C39.6184 128.235 46.3854 127.878 50.8359 128.746C53.0523 129.179 54.2744 129.834 54.465 130.544C54.689 129.686 53.4571 128.865 50.8359 128.353C46.3854 127.483 39.6184 127.842 35.722 129.153C33.7571 129.812 32.9063 130.584 33.0989 131.302C33.2541 130.702 34.1206 130.084 35.722 129.546Z" fill="#F99B0F"/>
<path d="M32.0869 132.595V135.696C32.8257 136.109 33.928 136.474 35.384 136.758C36.9717 137.052 38.5787 137.229 40.1921 137.287V134.129C38.5391 134.074 36.8925 133.895 35.2661 133.594C33.8848 133.322 32.8336 132.982 32.0869 132.595Z" fill="#F99B0F"/>
<path d="M69.9001 149.566C69.8667 148.708 69.8234 147.563 69.792 146.706C69.8136 147.299 69.8745 148.889 69.9001 149.499C69.8981 149.522 69.8981 149.544 69.9001 149.566Z" fill="#FFC910"/>
<path d="M93.4204 145.504C93.4597 146.557 93.4997 147.61 93.5403 148.662C93.5698 149.47 92.5185 150.32 90.3395 151.053C85.6355 152.632 77.4675 153.068 72.0916 152.018C69.2071 151.455 67.7138 150.579 67.6784 149.649L67.5605 146.491C67.5959 147.427 69.0892 148.303 71.9737 148.86C77.3477 149.908 85.5157 149.476 90.2196 147.893C92.3987 147.16 93.4519 146.31 93.4204 145.504Z" fill="#FFAB01"/>
<path d="M89.007 143.128C94.379 144.178 94.9252 146.312 90.2193 147.893C85.5134 149.474 77.3473 149.908 71.9734 148.86C66.5994 147.812 66.0551 145.676 70.761 144.093C75.4669 142.51 83.631 142.078 89.007 143.128ZM73.4353 148.366C77.8877 149.237 84.6548 148.878 88.5492 147.567C92.4436 146.256 91.9956 144.488 87.5431 143.619C83.0907 142.751 76.3276 143.108 72.4312 144.419C68.5348 145.729 68.9848 147.498 73.4353 148.366Z" fill="#FFC910"/>
<path d="M87.5426 143.619C91.9951 144.488 92.445 146.256 88.5487 147.567C84.6523 148.878 77.8872 149.237 73.4348 148.366C68.9824 147.496 68.5344 145.731 72.4307 144.419C76.3271 143.106 83.0941 142.751 87.5426 143.619Z" fill="#FFAB01"/>
<path d="M72.4309 144.813C76.3273 143.503 83.0944 143.144 87.5429 144.012C89.7592 144.446 90.9834 145.102 91.174 145.812C91.396 144.954 90.164 144.132 87.5429 143.619C83.0944 142.751 76.3273 143.108 72.4309 144.419C70.466 145.078 69.6133 145.852 69.8058 146.568C69.9689 145.97 70.8276 145.354 72.4309 144.813Z" fill="#F99B0F"/>
<path d="M83.2538 146.665C83.5879 146.969 83.3324 147.332 82.4502 147.626C81.4324 147.97 79.8585 148.129 78.4654 148.068C77.994 148.05 77.5245 147.998 77.0605 147.912L76.8208 147.865L76.7343 147.895L76.4023 148.007L76.2058 147.968L75.2037 147.77L75.6222 147.63L74.905 147.488L74.8186 147.52L74.4885 147.636L74.292 147.597L73.2899 147.399L73.7084 147.259L72.9893 147.119L73.9521 146.795L74.0365 146.766L74.5592 146.868L74.7557 146.906L77.6932 145.919L78.7424 145.565L81.2575 144.719L80.5384 144.579L81.5012 144.255L81.5876 144.225L82.1103 144.328L82.3068 144.365L82.6388 144.253L82.7253 144.225L83.9219 144.458L83.5034 144.6L84.026 144.701L84.2225 144.74L84.5565 144.628L84.641 144.6L85.8396 144.833L85.4191 144.973C86.8732 145.258 87.0205 145.836 85.7492 146.264C84.9382 146.506 84.0994 146.64 83.2538 146.665ZM78.8721 147.652C79.6745 147.701 80.4795 147.615 81.2536 147.397C82.0651 147.125 81.9708 146.756 81.0453 146.574L78.8839 146.154L78.7975 146.183L75.9503 147.143L78.1117 147.563C78.3641 147.611 78.6195 147.64 78.8761 147.652H78.8721ZM82.3716 144.985L79.941 145.802L81.8568 146.175C82.0665 146.214 82.2785 146.239 82.4915 146.25C83.1858 146.296 83.8828 146.223 84.5526 146.033C85.2482 145.8 85.1676 145.485 84.3738 145.329L82.4581 144.956L82.3716 144.985Z" fill="#F99B0F"/>
<path d="M83.2538 146.27C83.5878 146.574 83.3324 146.937 82.4502 147.231C81.4324 147.575 79.8585 147.737 78.4654 147.674C77.9939 147.656 77.5243 147.604 77.0605 147.518L76.8208 147.472L76.7343 147.5L76.4023 147.612L76.2058 147.573L75.2037 147.375L75.6222 147.233L74.905 147.093L74.8186 147.123L74.4885 147.241L74.292 147.204L73.2899 147.006L73.7084 146.866L72.9893 146.726L73.952 146.4L74.0365 146.373L74.5592 146.473L74.7557 146.513L77.6932 145.526L78.7424 145.175L81.2575 144.328L80.5383 144.186L81.5011 143.862L81.5876 143.834L82.1103 143.935L82.3067 143.975L82.6388 143.862L82.7253 143.832L83.9199 144.063L83.5014 144.204L84.024 144.306L84.2205 144.346L84.5546 144.233L84.6391 144.202L85.8376 144.436L85.4171 144.579C86.8712 144.863 87.0185 145.441 85.7472 145.869C84.9368 146.111 84.0987 146.245 83.2538 146.27ZM78.8721 147.257C79.6745 147.308 80.4797 147.222 81.2536 147.002C82.0651 146.73 81.9707 146.363 81.0453 146.181L78.8839 145.759L78.7975 145.789L75.9503 146.748L78.1117 147.17C78.3643 147.216 78.6196 147.245 78.876 147.257H78.8721ZM82.3716 144.588L79.941 145.408L81.8568 145.781C82.0662 145.821 82.2783 145.846 82.4914 145.856C83.1858 145.901 83.8828 145.828 84.5526 145.639C85.2482 145.404 85.1676 145.09 84.3738 144.936L82.458 144.561L82.3716 144.588Z" fill="#FFCA10"/>
<path d="M68.79 147.863V150.966C69.5288 151.375 70.6311 151.742 72.0852 152.024C73.6728 152.318 75.2798 152.496 76.8932 152.555V149.397C75.2403 149.342 73.5937 149.163 71.9673 148.862C70.5918 148.589 69.5308 148.248 68.79 147.863Z" fill="#F99B0F"/>
<path d="M71.0915 145.838C71.06 144.981 71.0168 143.836 70.9834 142.978C71.005 143.57 71.0679 145.161 71.0915 145.773V145.838Z" fill="#FFC910"/>
<path d="M94.6108 141.776C94.6528 142.828 94.6934 143.881 94.7327 144.934C94.7621 145.741 93.709 146.592 91.5319 147.326C86.8279 148.905 78.6599 149.34 73.284 148.291C70.3995 147.727 68.9062 146.85 68.8708 145.923L68.7529 142.765C68.7863 143.7 70.2796 144.575 73.1661 145.133C78.54 146.183 86.7081 145.749 91.412 144.168C93.5911 143.434 94.6423 142.581 94.6108 141.776Z" fill="#FFAB01"/>
<path d="M90.2075 139.399C95.5795 140.449 96.1237 142.583 91.4198 144.166C86.7159 145.749 78.5478 146.181 73.1739 145.131C67.7999 144.081 67.2557 141.947 71.9596 140.366C76.6635 138.785 84.8237 138.359 90.2075 139.399ZM74.6358 144.638C79.0862 145.508 85.8533 145.151 89.7497 143.848C93.646 142.546 93.1961 140.771 88.7436 139.901C84.2912 139.03 77.5281 139.391 73.6297 140.702C69.7314 142.013 70.1853 143.781 74.6358 144.65" fill="#FFC910"/>
<path d="M88.7357 139.891C93.1881 140.761 93.6479 142.528 89.7417 143.838C85.8355 145.149 79.0783 145.508 74.6278 144.628C70.1773 143.748 69.7274 141.993 73.6218 140.68C77.5162 139.368 84.2852 139.022 88.7357 139.891Z" fill="#FFAB01"/>
<path d="M73.6224 141.085C77.5207 139.774 84.2858 139.417 88.7363 140.295C90.9527 140.728 92.1748 141.383 92.3674 142.093C92.5875 141.235 91.3574 140.414 88.7363 139.901C84.2858 139.032 77.5207 139.391 73.6224 140.702C71.6575 141.361 70.8067 142.135 70.9993 142.851C71.1486 142.242 72.021 141.626 73.6224 141.085Z" fill="#F99B0F"/>
<path d="M69.9873 144.134V147.241C70.7261 147.654 71.8284 148.019 73.2844 148.303C74.8722 148.594 76.4793 148.767 78.0925 148.82V145.662C76.4395 145.607 74.7929 145.429 73.1665 145.127C71.7852 144.861 70.7241 144.521 69.9873 144.134Z" fill="#F99B0F"/>
<path d="M69.9001 141.795C69.8667 140.939 69.8234 139.794 69.792 138.937C69.8136 139.529 69.8745 141.12 69.9001 141.73C69.8981 141.752 69.8981 141.774 69.9001 141.795Z" fill="#FFC910"/>
<path d="M93.4204 137.733C93.4597 138.786 93.4997 139.839 93.5403 140.891C93.5698 141.699 92.5185 142.549 90.3395 143.282C85.6355 144.861 77.4675 145.297 72.0916 144.249C69.2071 143.684 67.7138 142.808 67.6784 141.88L67.5605 138.722C67.5959 139.658 69.0892 140.534 71.9737 141.091C77.3477 142.141 85.5157 141.709 90.2196 140.127C92.3987 139.391 93.4519 138.541 93.4204 137.733Z" fill="#FFAB01"/>
<path d="M89.0069 135.357C94.3789 136.407 94.9252 138.542 90.2193 140.126C85.5134 141.709 77.3473 142.139 71.9733 141.089C66.5994 140.039 66.0551 137.907 70.7551 136.326C75.4551 134.745 83.631 134.309 89.0069 135.357ZM73.4352 140.597C77.8877 141.466 84.6547 141.108 88.5491 139.798C92.4435 138.487 91.9955 136.721 87.5431 135.85C83.0907 134.98 76.3275 135.339 72.4312 136.65C68.5348 137.96 68.9848 139.729 73.4352 140.597Z" fill="#FFC910"/>
<path d="M87.5426 135.85C91.9951 136.721 92.445 138.487 88.5487 139.798C84.6523 141.109 77.8872 141.466 73.4348 140.597C68.9824 139.729 68.5344 137.962 72.4307 136.65C76.3271 135.337 83.0941 134.982 87.5426 135.85Z" fill="#FFAB01"/>
<path d="M72.4309 137.044C76.3273 135.734 83.0944 135.374 87.5429 136.245C89.7592 136.677 90.9834 137.333 91.174 138.043C91.396 137.184 90.164 136.361 87.5429 135.85C83.0944 134.982 76.3273 135.339 72.4309 136.65C70.466 137.309 69.6133 138.083 69.8058 138.799C69.9689 138.201 70.8276 137.585 72.4309 137.044Z" fill="#F99B0F"/>
<path d="M83.2538 138.894C83.5879 139.2 83.3324 139.561 82.4502 139.857C81.4324 140.201 79.8585 140.36 78.4654 140.299C77.9941 140.28 77.5246 140.228 77.0605 140.143L76.8208 140.096L76.7343 140.125L76.4023 140.236L76.2058 140.199L75.2037 140.001L75.6222 139.861L74.905 139.719L74.8186 139.748L74.4865 139.861L74.29 139.822L73.2879 139.624L73.7065 139.484L72.9873 139.344L73.9501 139.02L74.0346 138.991L74.5573 139.093L74.7537 139.131L77.6912 138.144L78.7405 137.79L81.2555 136.944L80.5364 136.804L81.4992 136.48L81.5856 136.45L82.1083 136.553L82.3048 136.59L82.6369 136.48L82.7233 136.45L83.9199 136.683L83.5014 136.825L84.0241 136.926L84.2205 136.963L84.5546 136.853L84.6391 136.823L85.8377 137.058L85.4172 137.198C86.8712 137.483 87.0185 138.061 85.7473 138.489C84.9372 138.733 84.099 138.869 83.2538 138.894ZM78.8721 139.881C79.6745 139.93 80.4795 139.844 81.2536 139.626C82.0651 139.354 81.9708 138.985 81.0453 138.803L78.8839 138.383L78.7975 138.412L75.9504 139.371L78.1117 139.792C78.3641 139.839 78.6195 139.869 78.8761 139.881H78.8721ZM82.3716 137.212L79.941 138.029L81.8568 138.404C82.0665 138.443 82.2785 138.468 82.4915 138.479C83.1858 138.525 83.8828 138.451 84.5526 138.262C85.2482 138.027 85.1676 137.713 84.3738 137.558L82.4541 137.175L82.3677 137.202" fill="#F99B0F"/>
<path d="M83.2538 138.501C83.5879 138.805 83.3324 139.168 82.4502 139.464C81.4324 139.806 79.8585 139.968 78.4654 139.904C77.9939 139.887 77.5243 139.835 77.0605 139.749L76.8208 139.703L76.7343 139.733L76.4023 139.843L76.2058 139.804L75.2037 139.606L75.6222 139.466L74.905 139.326L74.8186 139.356L74.4865 139.466L74.29 139.429L73.2879 139.231L73.7065 139.089L72.9873 138.951L73.9501 138.625L74.0346 138.596L74.5573 138.698L74.7537 138.738L77.6912 137.751L78.7405 137.398L81.2555 136.553L80.5364 136.411L81.4992 136.087L81.5856 136.057L82.1083 136.16L82.3048 136.2L82.6369 136.087L82.7233 136.057L83.9199 136.292L83.5014 136.432L84.0241 136.535L84.2205 136.573L84.5546 136.46L84.6391 136.432L85.8377 136.665L85.4172 136.807C86.8712 137.092 87.0185 137.67 85.7473 138.098C84.9371 138.341 84.0989 138.477 83.2538 138.501ZM78.8721 139.488C79.6746 139.539 80.4797 139.452 81.2536 139.233C82.0651 138.961 81.9708 138.592 81.0453 138.412L78.8839 137.99L78.7975 138.019L75.9504 138.979L78.1117 139.401C78.3643 139.447 78.6197 139.476 78.8761 139.488H78.8721ZM82.3716 136.821L79.941 137.638L81.8568 138.012C82.0662 138.052 82.2783 138.077 82.4915 138.087C83.1858 138.132 83.8828 138.059 84.5526 137.869C85.2482 137.636 85.1676 137.321 84.3738 137.165L82.4541 136.78L82.3677 136.809" fill="#FFCA10"/>
<path d="M68.79 140.094V143.195C69.5288 143.607 70.6311 143.971 72.0852 144.257C73.673 144.55 75.2799 144.726 76.8932 144.786V141.628C75.2402 141.572 73.5937 141.393 71.9673 141.091C70.5918 140.82 69.5308 140.479 68.79 140.094Z" fill="#F99B0F"/>
<path d="M71.0915 138.069C71.06 137.21 71.0168 136.067 70.9834 135.209C71.005 135.801 71.0679 137.392 71.0915 138.004V138.069Z" fill="#FFC910"/>
<path d="M94.6108 134.016C94.6528 135.069 94.6934 136.122 94.7327 137.175C94.7621 137.982 93.709 138.833 91.5319 139.567C86.8279 141.146 78.6599 141.58 73.284 140.532C70.3995 139.968 68.9062 139.091 68.8708 138.164L68.7529 135.005C68.7863 135.939 70.2796 136.815 73.1661 137.374C78.54 138.424 86.7081 137.99 91.412 136.409C93.5911 135.663 94.6423 134.806 94.6108 134.016Z" fill="#FFAB01"/>
<path d="M90.2075 131.63C95.5795 132.68 96.1237 134.814 91.4198 136.397C86.7159 137.98 78.5478 138.412 73.1739 137.362C67.7999 136.312 67.2557 134.178 71.9596 132.597C76.6635 131.016 84.8237 130.58 90.2075 131.63ZM74.6358 136.871C79.0862 137.739 85.8533 137.382 89.7497 136.071C93.646 134.761 93.1961 132.992 88.7436 132.124C84.2912 131.255 77.5281 131.612 73.6297 132.923C69.7314 134.234 70.1853 136.002 74.6358 136.871Z" fill="#FFC910"/>
<path d="M88.7357 132.124C93.1881 132.992 93.6479 134.759 89.7417 136.071C85.8355 137.384 79.0783 137.739 74.6278 136.871C70.1773 136.002 69.7274 134.234 73.6218 132.923C77.5162 131.612 84.2852 131.253 88.7357 132.124Z" fill="#FFAB01"/>
<path d="M73.6224 133.318C77.5207 132.005 84.2858 131.648 88.7363 132.516C90.9527 132.949 92.1748 133.604 92.3674 134.314C92.5875 133.458 91.3574 132.633 88.7363 132.124C84.2858 131.253 77.5207 131.612 73.6224 132.923C71.6575 133.58 70.8067 134.354 70.9993 135.072C71.1486 134.472 72.021 133.857 73.6224 133.318Z" fill="#F99B0F"/>
<path d="M84.4442 135.167C84.7783 135.471 84.5228 135.834 83.6426 136.128C82.6248 136.474 81.0489 136.632 79.6558 136.571C79.185 136.554 78.716 136.502 78.2529 136.415L78.0132 136.367L77.9267 136.397L77.5927 136.509L77.3962 136.47L76.3961 136.273L76.8146 136.13L76.0954 135.99L76.011 136.018L75.6769 136.132L75.4804 136.093L74.4784 135.896L74.8988 135.753L74.1797 135.613L75.1405 135.29L75.227 135.262L75.7496 135.363L75.9461 135.402L78.8817 134.415L79.9309 134.062L82.4479 133.227L81.7288 133.085L82.6916 132.763L82.7761 132.731L83.2987 132.834L83.4952 132.874L83.8292 132.761L83.9157 132.731L85.1123 132.966L84.6938 133.107L85.2164 133.209L85.4129 133.247L85.747 133.134L85.8334 133.107L87.032 133.339L86.6115 133.482C88.0655 133.764 88.2149 134.344 86.9396 134.772C86.1284 135.012 85.2896 135.145 84.4442 135.167ZM80.0626 136.154C80.8656 136.205 81.6714 136.119 82.446 135.9C83.2555 135.627 83.1631 135.258 82.2357 135.078L80.0743 134.656L79.9879 134.686L77.1388 135.645L79.3002 136.065C79.5519 136.113 79.8067 136.143 80.0626 136.154ZM83.5581 133.487L81.1295 134.305L83.0452 134.678C83.2547 134.718 83.4668 134.744 83.6799 134.755C84.3743 134.799 85.0712 134.725 85.7411 134.536C86.4366 134.303 86.3561 133.987 85.5603 133.833L83.6445 133.458L83.5581 133.487Z" fill="#F99B0F"/>
<path d="M84.4442 134.772C84.7783 135.076 84.5228 135.44 83.6426 135.736C82.6248 136.079 81.0489 136.239 79.6558 136.176C79.1851 136.159 78.7162 136.107 78.2529 136.022L78.0132 135.975L77.9267 136.004L77.5927 136.115L77.3962 136.077L76.3961 135.88L76.8146 135.738L76.0954 135.598L76.011 135.627L75.6769 135.74L75.4804 135.702L74.4784 135.505L74.8988 135.365L74.1797 135.224L75.1405 134.901L75.227 134.871L75.7496 134.974L75.9461 135.011L78.8817 134.024L79.9309 133.673L82.4479 132.832L81.7288 132.69L82.6916 132.368L82.7761 132.339L83.2987 132.439L83.4952 132.479L83.8292 132.366L83.9157 132.337L85.1123 132.572L84.6938 132.714L85.2164 132.814L85.4129 132.854L85.747 132.741L85.8334 132.712L87.032 132.947L86.6115 133.087C88.0655 133.371 88.2149 133.949 86.9396 134.378C86.1286 134.618 85.2897 134.751 84.4442 134.772ZM80.0626 135.759C80.8656 135.811 81.6716 135.725 82.446 135.505C83.2555 135.232 83.1631 134.865 82.2357 134.684L80.0743 134.263L79.9879 134.293L77.1388 135.252L79.3002 135.673C79.5519 135.72 79.8067 135.749 80.0626 135.759ZM83.5581 133.093L81.1295 133.91L83.0452 134.285C83.2547 134.325 83.4668 134.349 83.6799 134.358C84.3741 134.404 85.0711 134.331 85.7411 134.143C86.4366 133.908 86.3561 133.592 85.5603 133.438L83.6445 133.063L83.5581 133.093Z" fill="#FFCA10"/>
<path d="M69.9873 136.365V139.468C70.7261 139.879 71.8284 140.244 73.2844 140.528C74.8722 140.821 76.4791 140.998 78.0925 141.057V137.899C76.4397 137.847 74.7931 137.671 73.1665 137.372C71.7852 137.092 70.7241 136.752 69.9873 136.365Z" fill="#F99B0F"/>
<path d="M69.9001 133.699C69.8667 132.842 69.8234 131.697 69.792 130.839C69.8136 131.431 69.8745 133.022 69.9001 133.634C69.8981 133.655 69.8981 133.677 69.9001 133.699Z" fill="#FFC910"/>
<path d="M93.4204 129.636C93.4597 130.689 93.4997 131.742 93.5403 132.795C93.5698 133.602 92.5185 134.453 90.3395 135.187C85.6355 136.766 77.4675 137.2 72.0916 136.152C69.2071 135.588 67.7138 134.713 67.6784 133.784L67.5605 130.625C67.5959 131.561 69.0892 132.435 71.9737 132.994C77.3477 134.044 85.5157 133.612 90.2196 132.029C92.3987 131.293 93.4519 130.442 93.4204 129.636Z" fill="#FFAB01"/>
<path d="M89.007 127.26C94.379 128.31 94.9252 130.444 90.2193 132.027C85.5134 133.61 77.3473 134.042 71.9734 132.992C66.5994 131.942 66.0551 129.808 70.761 128.227C75.4669 126.646 83.631 126.212 89.007 127.26ZM73.4353 132.499C77.8877 133.369 84.6548 133.01 88.5492 131.709C92.4436 130.408 91.9956 128.632 87.5431 127.761C83.0907 126.891 76.3276 127.252 72.4312 128.563C68.5348 129.873 68.9848 131.64 73.4353 132.51" fill="#FFC910"/>
<path d="M87.5426 127.751C91.9951 128.622 92.445 130.389 88.5487 131.699C84.6523 133.01 77.8872 133.369 73.4348 132.489C68.9824 131.608 68.5344 129.854 72.4307 128.541C76.3271 127.228 83.0941 126.883 87.5426 127.751Z" fill="#FFAB01"/>
<path d="M72.4309 128.948C76.3273 127.635 83.0944 127.276 87.5429 128.146C89.7592 128.578 90.9834 129.234 91.174 129.944C91.396 129.088 90.164 128.265 87.5429 127.751C83.0944 126.883 76.3273 127.242 72.4309 128.553C70.466 129.212 69.6133 129.984 69.8058 130.7C69.9689 130.102 70.8276 129.486 72.4309 128.948Z" fill="#F99B0F"/>
<path d="M83.2538 130.797C83.5879 131.101 83.3324 131.464 82.4502 131.758C81.4324 132.102 79.8585 132.262 78.4654 132.201C77.9939 132.183 77.5243 132.131 77.0605 132.045L76.8208 131.997L76.7343 132.027L76.4023 132.139L76.2058 132.1L75.2037 131.902L75.6222 131.76L74.905 131.62L74.8186 131.65L74.4865 131.76L74.29 131.723L73.2879 131.525L73.7065 131.385L72.9873 131.245L73.9501 130.921L74.0346 130.892L74.5573 130.994L74.7537 131.034L77.6912 130.047L78.7405 129.696L81.2555 128.847L80.5364 128.707L81.4992 128.383L81.5856 128.353L82.1083 128.456L82.3048 128.496L82.6369 128.381L82.7233 128.353L83.9199 128.588L83.5014 128.729L84.0241 128.831L84.2205 128.869L84.5546 128.756L84.6391 128.729L85.8377 128.961L85.4172 129.104C86.8712 129.386 87.0185 129.966 85.7473 130.394C84.9369 130.636 84.0988 130.772 83.2538 130.797ZM78.8721 131.784C79.6746 131.835 80.4797 131.749 81.2536 131.529C82.0651 131.257 81.9708 130.89 81.0453 130.708L78.8839 130.286L78.7975 130.315L75.9504 131.275L78.1117 131.697C78.3643 131.743 78.6197 131.772 78.8761 131.784H78.8721ZM82.3716 129.117L79.941 129.935L81.8568 130.308C82.0664 130.347 82.2784 130.372 82.4915 130.383C83.1858 130.428 83.8828 130.355 84.5526 130.165C85.2482 129.933 85.1676 129.617 84.3738 129.461L82.4541 129.082L82.3677 129.111" fill="#F99B0F"/>
<path d="M83.2538 130.402C83.5879 130.706 83.3324 131.07 82.4502 131.366C81.4324 131.709 79.8585 131.869 78.4654 131.806C77.994 131.789 77.5244 131.738 77.0605 131.652L76.8208 131.604L76.7343 131.634L76.4023 131.745L76.2058 131.707L75.2037 131.51L75.6222 131.368L74.905 131.227L74.8186 131.257L74.4865 131.368L74.29 131.33L73.2879 131.133L73.7065 130.993L72.9873 130.852L73.9501 130.529L74.0346 130.499L74.5573 130.6L74.7537 130.639L77.6912 129.652L78.7405 129.299L81.2555 128.452L80.5364 128.312L81.4992 127.986L81.5856 127.959L82.1083 128.059L82.3048 128.099L82.6369 127.986L82.7233 127.957L83.9199 128.192L83.5014 128.334L84.0241 128.434L84.2205 128.474L84.5546 128.361L84.6391 128.332L85.8377 128.567L85.4172 128.707C86.8712 128.991 87.0185 129.569 85.7473 129.998C84.937 130.24 84.0989 130.376 83.2538 130.402ZM78.8721 131.389C79.6746 131.441 80.4799 131.355 81.2536 131.135C82.0651 130.862 81.9708 130.495 81.0453 130.315L78.8839 129.893L78.7975 129.923L75.9504 130.882L78.1117 131.302C78.3643 131.348 78.6197 131.377 78.8761 131.389H78.8721ZM82.3716 128.723L79.941 129.54L81.8568 129.915C82.0663 129.955 82.2784 129.979 82.4915 129.988C83.1857 130.034 83.8827 129.961 84.5526 129.773C85.2482 129.538 85.1676 129.224 84.3738 129.068L82.458 128.693L82.3716 128.723Z" fill="#FFCA10"/>
<path d="M68.79 131.995V135.098C69.5288 135.509 70.6311 135.874 72.0852 136.158C73.673 136.451 75.2799 136.628 76.8932 136.687V133.529C75.2403 133.474 73.5937 133.295 71.9673 132.994C70.5918 132.722 69.5308 132.382 68.79 131.995Z" fill="#F99B0F"/>
<path d="M71.0915 129.97C71.06 129.113 71.0168 127.969 70.9834 127.112C71.005 127.704 71.0679 129.293 71.0915 129.905V129.97Z" fill="#FFC910"/>
<path d="M94.6108 125.908C94.6528 126.961 94.6934 128.013 94.7327 129.066C94.7621 129.871 93.709 130.722 91.5319 131.456C86.8279 133.035 78.6599 133.472 73.284 132.422C70.3995 131.857 68.9062 130.983 68.8708 130.053L68.7529 126.895C68.7863 127.83 70.2796 128.707 73.1661 129.263C78.54 130.311 86.7081 129.877 91.412 128.296C93.5911 127.566 94.6423 126.713 94.6108 125.908Z" fill="#FFAB01"/>
<path d="M90.2075 123.531C95.5717 124.581 96.116 126.713 91.412 128.292C86.7081 129.871 78.54 130.308 73.1661 129.259C67.7921 128.211 67.2478 126.076 71.9518 124.493C76.6557 122.91 84.8237 122.483 90.2075 123.531ZM74.6358 128.772C79.0863 129.64 85.8533 129.283 89.7497 127.982C93.6461 126.682 93.1961 124.903 88.7437 124.035C84.2913 123.166 77.5281 123.523 73.6298 124.824C69.7315 126.125 70.1853 127.903 74.6358 128.772Z" fill="#FFC910"/>
<path d="M88.7357 124.025C93.1881 124.893 93.6479 126.66 89.7417 127.973C85.8355 129.285 79.0783 129.64 74.6278 128.762C70.1773 127.884 69.7274 126.125 73.6218 124.814C77.5162 123.504 84.2852 123.16 88.7357 124.025Z" fill="#FFAB01"/>
<path d="M73.6224 125.219C77.5207 123.908 84.2858 123.549 88.7363 124.418C90.9527 124.85 92.1748 125.507 92.3674 126.218C92.5875 125.357 91.3574 124.536 88.7363 124.025C84.2858 123.154 77.5207 123.514 73.6224 124.814C71.6575 125.474 70.8067 126.247 70.9993 126.964C71.1486 126.374 72.021 125.758 73.6224 125.219Z" fill="#F99B0F"/>
<path d="M69.9873 128.269V131.37C70.7261 131.78 71.8284 132.145 73.2844 132.429C74.8719 132.724 76.479 132.901 78.0925 132.958V129.8C76.4396 129.744 74.7932 129.565 73.1665 129.265C71.7852 128.995 70.7241 128.653 69.9873 128.269Z" fill="#F99B0F"/>
<path d="M74.1387 26.9113H102.584" stroke="#9AC7F7" stroke-width="7.62" stroke-miterlimit="10"/>
<path d="M74.1387 31.4235H115.311" stroke="#9AC7F7" stroke-width="7.62" stroke-miterlimit="10"/>
</svg>
