<svg width="603" height="294" viewBox="0 0 603 294" fill="none" xmlns="http://www.w3.org/2000/svg">
<g clip-path="url(#clip0_158_3919)">
<path d="M457.915 206.025C437.924 152.833 458.288 109.581 458.485 109.15L459.468 109.62C459.271 110.032 439.104 152.911 458.917 205.692L457.915 206.025Z" fill="#D4EDFF"/>
<path d="M458.252 110.64C457.971 108.426 458.339 106.178 459.313 104.17C459.903 103.052 461.731 101.601 462.773 102.209C463.815 102.817 463.874 104.601 463.028 106.13C461.909 108.064 460.25 109.631 458.252 110.64Z" fill="#D4EDFF"/>
<path d="M456.344 116.306C457.308 114.533 458.752 113.066 460.511 112.071C461.513 111.542 463.636 111.345 464.108 112.228C464.58 113.11 463.676 114.502 462.142 115.267C460.341 116.136 458.336 116.496 456.344 116.306Z" fill="#D4EDFF"/>
<path d="M453.965 126.148C454.888 124.659 456.266 123.504 457.896 122.855C458.82 122.56 460.668 122.855 460.982 123.835C461.297 124.815 460.432 126.011 459.017 126.443C457.345 126.888 455.573 126.785 453.965 126.148Z" fill="#D4EDFF"/>
<path d="M456.699 116.071C454.973 115.759 453.394 114.899 452.198 113.62C451.569 112.894 451.156 111.091 451.962 110.424C452.484 110.141 453.093 110.064 453.669 110.21C454.244 110.355 454.744 110.712 455.068 111.208C456.128 112.609 456.701 114.316 456.699 116.071Z" fill="#D4EDFF"/>
<path d="M451.176 179.263C449.324 179.552 447.428 179.307 445.711 178.557C444.787 178.106 443.51 176.596 443.942 175.733C444.375 174.871 445.908 174.733 447.264 175.4C448.915 176.283 450.274 177.625 451.176 179.263Z" fill="#D4EDFF"/>
<path d="M453.357 125.992C451.328 125.447 449.499 124.331 448.089 122.776C447.342 121.894 446.713 119.776 447.539 119.09C448.364 118.404 449.996 118.972 451.096 120.266C452.38 121.922 453.164 123.908 453.357 125.992Z" fill="#D4EDFF"/>
<path d="M450.898 136.52C448.981 136.336 447.192 135.482 445.846 134.109C445.445 133.593 445.227 132.958 445.227 132.305C445.227 131.652 445.445 131.017 445.846 130.501C446.407 130.126 447.092 129.984 447.757 130.104C448.421 130.225 449.012 130.6 449.404 131.148C450.518 132.709 451.046 134.61 450.898 136.52Z" fill="#D4EDFF"/>
<path d="M451.723 136.481C452.417 134.668 453.696 133.137 455.359 132.128C456.303 131.638 458.347 131.677 458.917 132.736C459.124 133.371 459.081 134.062 458.796 134.666C458.511 135.271 458.006 135.745 457.384 135.991C455.604 136.777 453.612 136.949 451.723 136.481Z" fill="#D4EDFF"/>
<path d="M451.547 179.655C451.538 177.781 452.131 175.953 453.237 174.439C453.906 173.518 455.812 172.263 456.736 172.636C457.66 173.008 457.542 174.459 456.579 175.773C455.22 177.432 453.499 178.76 451.547 179.655Z" fill="#D4EDFF"/>
<path d="M449.523 157.401C450.534 156.175 451.912 155.302 453.455 154.911C454.418 154.637 456.482 154.637 457.013 155.244C457.543 155.852 456.718 156.695 455.342 157.107C453.438 157.571 451.464 157.671 449.523 157.401Z" fill="#D4EDFF"/>
<path d="M449.583 147.578C448.223 147.161 447.05 146.289 446.261 145.108C445.75 144.383 445.219 142.598 445.651 141.951C446.084 141.304 447.067 141.716 447.814 142.775C448.734 144.235 449.336 145.871 449.583 147.578Z" fill="#D4EDFF"/>
<path d="M450.387 169.126C450.385 167.205 450.836 165.312 451.704 163.597C452.195 162.832 453.512 162.244 454.141 163.166C454.425 163.761 454.554 164.417 454.516 165.075C454.479 165.733 454.275 166.371 453.925 166.93C453.547 167.545 453.03 168.063 452.416 168.445C451.802 168.826 451.107 169.059 450.387 169.126Z" fill="#D4EDFF"/>
<path d="M449.779 157.891C447.459 157.564 445.234 156.749 443.253 155.499C442.31 154.813 441.504 153.166 442.526 152.598C443.273 152.366 444.066 152.322 444.834 152.469C445.602 152.616 446.321 152.95 446.929 153.441C447.676 153.957 448.313 154.617 448.802 155.381C449.292 156.145 449.624 156.998 449.779 157.891Z" fill="#D4EDFF"/>
<path d="M449.973 169.655C447.826 169.368 445.774 168.589 443.978 167.381C443.152 166.734 442.563 165.165 443.604 164.636C444.304 164.407 445.051 164.36 445.773 164.501C446.496 164.642 447.17 164.965 447.732 165.44C448.391 165.938 448.932 166.573 449.319 167.301C449.706 168.029 449.929 168.832 449.973 169.655Z" fill="#D4EDFF"/>
<path d="M488.422 125.031C486.577 125.324 484.686 125.079 482.977 124.325C482.033 123.855 480.756 122.364 481.188 121.502C481.621 120.639 483.154 120.502 484.51 121.168C486.165 122.046 487.525 123.389 488.422 125.031Z" fill="#D4EDFF"/>
<path d="M456.149 198.634C456.14 196.76 456.732 194.933 457.839 193.418C458.507 192.517 460.414 191.242 461.338 191.615C462.262 191.987 462.144 193.438 461.181 194.752C459.821 196.411 458.1 197.739 456.149 198.634Z" fill="#D4EDFF"/>
<path d="M453.336 189.262C453.536 187.716 454.224 186.274 455.302 185.144C455.97 184.419 457.778 183.38 458.545 183.635C459.312 183.89 459.076 185.046 458.073 186.105C456.708 187.447 455.101 188.518 453.336 189.262Z" fill="#D4EDFF"/>
<path d="M462.141 146.578C462.848 144.876 463.921 143.35 465.286 142.108C465.993 141.54 467.409 141.304 467.625 142.226C467.659 142.842 467.539 143.457 467.275 144.015C467.01 144.573 466.61 145.057 466.111 145.422C465.565 145.878 464.931 146.216 464.247 146.415C463.564 146.614 462.847 146.67 462.141 146.578Z" fill="#D4EDFF"/>
<path d="M456.069 199.065C453.724 199.039 451.411 198.511 449.288 197.516C448.266 196.948 447.322 195.418 448.207 194.732C448.916 194.408 449.694 194.263 450.473 194.311C451.251 194.359 452.005 194.598 452.669 195.007C454.296 195.857 455.519 197.317 456.069 199.065Z" fill="#D4EDFF"/>
<path d="M453.276 189.576C451.221 189.557 449.2 189.054 447.379 188.105C446.553 187.595 445.924 186.144 446.907 185.537C447.531 185.247 448.218 185.119 448.905 185.163C449.592 185.208 450.257 185.424 450.838 185.792C451.514 186.187 452.086 186.736 452.51 187.394C452.933 188.051 453.196 188.798 453.276 189.576Z" fill="#D4EDFF"/>
<path d="M449.895 148.284C450.692 146.49 451.962 144.945 453.57 143.814C454.553 143.108 456.833 142.285 457.502 142.775C458.17 143.265 457.502 144.598 456.067 145.618C454.196 146.887 452.102 147.792 449.895 148.284Z" fill="#D4EDFF"/>
<path d="M141.29 197.751C139.753 197.977 138.184 197.709 136.809 196.987C136.062 196.555 135.157 195.183 135.61 194.418C136.062 193.654 137.359 193.595 138.42 194.222C139.725 195.069 140.729 196.304 141.29 197.751Z" fill="#8DCFFF"/>
<path d="M144.83 199.497C143.785 198.648 143.041 197.486 142.707 196.183C142.55 195.458 142.923 194.085 143.71 193.928C144.496 193.771 145.282 194.575 145.498 195.614C145.701 196.947 145.466 198.308 144.83 199.497Z" fill="#8DCFFF"/>
<path d="M148.466 202.281C147.855 201.07 147.655 199.694 147.896 198.359C148.054 197.634 148.958 196.536 149.724 196.712C150.491 196.889 150.904 197.928 150.688 198.987C150.319 200.293 149.541 201.448 148.466 202.281Z" fill="#8DCFFF"/>
<path d="M144.888 199.614C144.178 200.708 143.178 201.583 141.999 202.143C141.311 202.457 140.033 202.477 139.679 201.888C139.325 201.3 140.072 200.457 141.055 200.026C142.269 199.533 143.597 199.391 144.888 199.614Z" fill="#8DCFFF"/>
<path d="M148.641 202.045C147.963 203.178 146.965 204.085 145.771 204.653C145.103 204.947 143.707 204.967 143.432 204.339C143.157 203.712 143.786 202.83 144.769 202.379C146 201.895 147.345 201.78 148.641 202.045Z" fill="#8DCFFF"/>
<path d="M153.124 206.3C152.719 207.274 151.981 208.073 151.041 208.555C150.53 208.79 149.429 208.672 149.075 208.045C148.974 207.694 149.012 207.318 149.18 206.993C149.348 206.669 149.634 206.421 149.979 206.3C150.994 205.926 152.109 205.926 153.124 206.3Z" fill="#8DCFFF"/>
<path d="M153.282 206.104C152.719 205.192 152.438 204.135 152.476 203.065C152.476 202.477 153.046 201.477 153.616 201.516C154.186 201.555 154.579 202.339 154.52 203.202C154.393 204.267 153.964 205.274 153.282 206.104Z" fill="#8DCFFF"/>
<path d="M174.508 219.162C174.756 218.997 174.953 218.766 175.078 218.495L174.724 218.319L174.901 218.417L174.724 218.319C174.519 218.625 174.245 218.88 173.925 219.064C173.604 219.248 173.245 219.355 172.876 219.377C170.672 219.409 168.519 218.72 166.744 217.417C162.131 214.47 157.928 210.93 154.242 206.888C150.798 203.133 146.668 200.066 142.075 197.849C141.489 197.573 140.918 197.265 140.365 196.928L140.148 197.281C140.62 197.575 141.21 197.869 141.878 198.202C146.436 200.405 150.532 203.452 153.947 207.182C164.719 218.28 170.223 220.103 172.955 219.691C173.508 219.641 174.04 219.459 174.508 219.162Z" fill="#8DCFFF"/>
<path d="M117.643 228.279C115.678 220.338 120.69 214.26 136.533 212.358C152.069 210.641 167.771 213.446 181.743 220.436C154.538 194.242 123.717 158.205 157.212 157.695C167.669 157.558 182.215 166.793 197.822 180.537C182.195 154.009 174.686 132.736 187.148 130.187C198.706 127.815 217.95 150.049 237.587 178.968C227.542 155.441 222.766 135.207 230.353 126.678C236.545 119.718 245.823 129.364 255.513 146.461C257.204 132.462 262.374 124.423 270.767 126.992C278.629 129.403 282.698 146.206 284.31 166.067C296.989 136.814 320.635 120.521 340.036 131.756C362.818 144.951 331.545 214.986 315.072 248.121L117.643 228.279Z" fill="#E4EEF2"/>
<path d="M302.003 227.769C285.865 219.064 298.072 215.26 312.932 214.731C305.521 208.261 309.728 201.614 327.143 193.654C335.006 190.085 344.677 191.556 354.289 195.379C361.149 181.831 370.702 172.361 382.28 176.831C391.833 180.517 399.007 185.164 403.548 190.242C406.444 189.027 409.55 187.87 412.865 186.772C420.118 184.399 425.602 185.772 429.632 189.419C443.726 180.929 458.094 175.694 466.842 180.811C482.056 189.713 484.297 197.712 474.881 206.084C489.682 205.947 500.946 210.006 482.056 221.593C499.53 219.103 512.11 220.319 504.975 230.514C489.073 253.258 410.624 260.179 351.419 252.493C314.288 252.14 283.192 247.003 276.843 236.063C272.164 227.985 285.079 226.514 302.003 227.769Z" fill="#E4EEF2"/>
<path d="M497.974 208.731C490.183 212.177 483.351 217.464 478.07 224.136C472.788 230.808 469.217 238.664 467.664 247.023C474.898 251.523 483.125 254.191 491.63 254.793C500.134 255.395 508.657 253.915 516.455 250.479C524.254 247.044 531.093 241.759 536.375 235.083C541.657 228.408 545.223 220.546 546.761 212.182C539.522 207.698 531.296 205.04 522.796 204.439C514.295 203.837 505.776 205.311 497.974 208.731Z" fill="#E4EEF2"/>
<path d="M540.336 214.75L470.457 245.454L540.336 214.75Z" stroke="white" stroke-width="0.49" stroke-miterlimit="10"/>
<path d="M525.965 221.103L537.759 226.632L525.965 221.103Z" stroke="white" stroke-width="0.49" stroke-miterlimit="10"/>
<path d="M514.055 226.357L528.502 233.161L514.055 226.357Z" stroke="white" stroke-width="0.49" stroke-miterlimit="10"/>
<path d="M502.145 231.612L526.283 242.984L502.145 231.612Z" stroke="white" stroke-width="0.49" stroke-miterlimit="10"/>
<path d="M490.23 236.847L513.818 247.925L490.23 236.847Z" stroke="white" stroke-width="0.49" stroke-miterlimit="10"/>
<path d="M478.32 242.2L491.392 248.356L478.32 242.2Z" stroke="white" stroke-width="0.49" stroke-miterlimit="10"/>
<path d="M527.305 220.26L531.098 207.908L527.305 220.26Z" stroke="white" stroke-width="0.49" stroke-miterlimit="10"/>
<path d="M515.391 225.514L521.288 206.241L515.391 225.514Z" stroke="white" stroke-width="0.49" stroke-miterlimit="10"/>
<path d="M503.48 230.769L510.911 206.653L503.48 230.769Z" stroke="white" stroke-width="0.49" stroke-miterlimit="10"/>
<path d="M491.566 236.024L499.193 211.241L491.566 236.024Z" stroke="white" stroke-width="0.49" stroke-miterlimit="10"/>
<path d="M479.656 241.258L486.182 219.985L479.656 241.258Z" stroke="white" stroke-width="0.49" stroke-miterlimit="10"/>
<path d="M445.003 203.81C439.678 211.553 436.326 220.474 435.237 229.801C434.147 239.128 435.354 248.579 438.753 257.336C448.159 257.375 457.433 255.122 465.768 250.773C474.103 246.425 481.248 240.111 486.581 232.382C491.914 224.653 495.274 215.742 496.37 206.423C497.465 197.104 496.263 187.66 492.867 178.91C483.461 178.871 474.188 181.118 465.848 185.456C457.509 189.795 450.354 196.094 445.003 203.81Z" fill="#E4EEF2"/>
<path d="M488.363 184.85L440.559 254.199L488.363 184.85Z" stroke="white" stroke-width="0.54" stroke-miterlimit="10"/>
<path d="M478.574 199.202L492.805 197.614L478.574 199.202Z" stroke="white" stroke-width="0.54" stroke-miterlimit="10"/>
<path d="M470.457 211.025L487.991 209.064L470.457 211.025Z" stroke="white" stroke-width="0.54" stroke-miterlimit="10"/>
<path d="M462.281 222.848L491.609 219.593L462.281 222.848Z" stroke="white" stroke-width="0.54" stroke-miterlimit="10"/>
<path d="M454.121 234.671L482.643 231.494L454.121 234.671Z" stroke="white" stroke-width="0.54" stroke-miterlimit="10"/>
<path d="M445.984 246.513L461.867 244.729L445.984 246.513Z" stroke="white" stroke-width="0.54" stroke-miterlimit="10"/>
<path d="M479.363 197.634L475.746 183.811L479.363 197.634Z" stroke="white" stroke-width="0.54" stroke-miterlimit="10"/>
<path d="M471.204 209.457L465.582 187.889L471.204 209.457Z" stroke="white" stroke-width="0.54" stroke-miterlimit="10"/>
<path d="M463.045 221.279L456.008 194.32L463.045 221.279Z" stroke="white" stroke-width="0.54" stroke-miterlimit="10"/>
<path d="M454.909 233.102L447.676 205.398L454.909 233.102Z" stroke="white" stroke-width="0.54" stroke-miterlimit="10"/>
<path d="M446.75 244.925L440.539 221.123L446.75 244.925Z" stroke="white" stroke-width="0.54" stroke-miterlimit="10"/>
<path d="M480.284 237.494C442.19 237.121 324.114 235.533 252.467 230.69C119.628 221.809 11.1054 236.572 82.3795 253.336C102.291 258.042 44.8554 286.197 185.477 292.549C308.92 298.117 434.78 286.157 495.675 281.02C556.571 275.884 584.699 266.786 597.751 262.669C609.27 259.061 613.516 238.788 480.284 237.494Z" fill="#E4EEF2"/>
<path d="M478.007 155.735C477.396 153.488 477.513 151.107 478.341 148.931C478.852 147.755 480.719 146.167 481.938 146.696C483.157 147.225 483.491 149.127 482.763 150.833C481.728 152.921 480.065 154.634 478.007 155.735Z" fill="#8DCFFF"/>
<path d="M476.059 161.283C477.139 159.577 478.736 158.258 480.619 157.519C481.661 157.166 483.764 157.519 484.137 158.597C484.511 159.676 483.489 161.068 481.975 161.577C480.022 162.113 477.949 162.01 476.059 161.283Z" fill="#8DCFFF"/>
<path d="M472.559 167.205C474.241 166.084 476.238 165.528 478.259 165.616C479.36 165.734 481.168 166.871 481.05 168.048C480.932 169.224 479.438 170.008 477.846 169.871C475.844 169.566 473.992 168.632 472.559 167.205Z" fill="#8DCFFF"/>
<path d="M475.903 161.401C474.124 160.521 472.626 159.163 471.579 157.48C471.009 156.539 470.714 154.5 471.579 154.009C472.444 153.519 473.82 154.323 474.626 155.696C475.587 157.437 476.03 159.417 475.903 161.401Z" fill="#8DCFFF"/>
<path d="M472.952 167.42C471.142 166.612 469.606 165.297 468.529 163.636C467.978 162.695 467.703 160.636 468.529 160.107C469.354 159.578 470.848 160.362 471.654 161.754C472.633 163.475 473.084 165.446 472.952 167.42Z" fill="#8DCFFF"/>
<path d="M467.429 174.832C465.906 174.401 464.58 173.459 463.674 172.165C463.242 171.44 463.222 169.773 464.087 169.244C464.595 169.033 465.164 169.023 465.679 169.216C466.194 169.409 466.616 169.79 466.859 170.283C467.572 171.687 467.774 173.295 467.429 174.832Z" fill="#8DCFFF"/>
<path d="M467.746 175.028C469.011 174.026 470.541 173.413 472.149 173.263C473.034 173.263 474.626 173.832 474.665 174.675C474.705 175.518 473.604 176.263 472.306 176.322C470.692 176.349 469.105 175.899 467.746 175.028Z" fill="#8DCFFF"/>
<path d="M452.178 208.868C452.485 209.186 452.853 209.44 453.259 209.613L453.476 209.025L453.358 209.319L453.476 209.025C452.97 208.789 452.529 208.437 452.187 207.997C451.845 207.557 451.613 207.043 451.51 206.496C450.881 204.222 451.51 201.045 453.161 197.046C456.716 189.69 461.209 182.823 466.527 176.616C471.506 170.82 475.335 164.133 477.81 156.911C478.184 155.872 478.498 154.95 478.852 154.205L478.321 153.97C477.967 154.735 477.633 155.656 477.26 156.735C474.806 163.882 471.018 170.502 466.095 176.243C451.51 194.262 449.8 202.771 450.92 206.751C451.151 207.552 451.584 208.281 452.178 208.868Z" fill="#8DCFFF"/>
<path d="M0.667165 261.473C-1.45573 258.218 1.17824 255.434 11.3013 253.963C21.3966 252.597 31.6578 253.095 41.5722 255.434C21.1098 245.631 -2.77272 231.651 19.0263 230.044C25.8274 229.553 36.2649 232.828 47.9015 237.886C34.9283 227.377 27.793 218.711 35.6556 217.123C42.9481 215.613 57.8084 224.181 73.6318 235.533C64.6292 226.024 59.4006 217.711 63.4498 213.79C66.7521 210.594 73.8087 214.26 81.9268 221.064C81.5533 215.084 84.0694 211.476 89.7894 212.202C95.1949 212.888 99.6176 219.809 102.704 228.102C107.893 215.221 121.593 207.359 135.432 211.26C151.668 215.848 138.616 246.748 131.363 261.414L0.667165 261.473Z" fill="#E4EEF2"/>
<path d="M84.5827 247.905L85.31 247.689C80.0421 230.043 70.548 204.339 55.2357 181.753C50.6117 174.6 45.1551 168.019 38.9798 162.146L38.4688 162.734C44.6058 168.611 50.0229 175.192 54.6067 182.341C63.0196 194.634 75.0493 216.103 84.5827 247.905Z" fill="#ACD4F8"/>
<path d="M88.5127 241.082H89.2793C86.2915 204.418 67.6572 172.89 67.5589 172.577L66.8906 172.969C67.0872 173.204 85.5249 204.575 88.5127 241.082Z" fill="#ACD4F8"/>
<path d="M74.6354 244.533H75.402C73.8885 226.887 66.4191 215.75 60.4042 209.476C56.7462 205.55 52.3866 202.339 47.5489 200.006L47.2344 200.712C51.9899 203.016 56.2755 206.181 59.8734 210.045C65.79 216.142 73.1415 227.142 74.6354 244.533Z" fill="#ACD4F8"/>
<path d="M35.2851 157.519C30.2138 161.068 27.285 165.616 28.7199 167.655C30.1548 169.695 35.4424 168.479 40.5138 164.93C45.5851 161.381 48.4943 156.833 47.0594 154.794C45.6245 152.754 40.3368 153.97 35.2851 157.519Z" fill="#ACD4F8"/>
<path d="M37.0529 160.048C35.4607 161.185 34.5172 162.617 34.9889 163.264C35.4607 163.911 37.1118 163.538 38.7236 162.401C40.3355 161.264 41.2594 159.833 40.8073 159.186C40.3552 158.539 38.6647 158.911 37.0529 160.048Z" fill="#2C243D"/>
<path d="M65.7909 170.655C63.6877 172.126 62.469 174.028 63.0586 174.871C63.6483 175.714 65.8695 175.224 67.9728 173.734C70.076 172.243 71.2947 170.361 70.705 169.518C70.1153 168.675 67.8942 169.185 65.7909 170.655Z" fill="#ACD4F8"/>
<path d="M66.5367 171.714C65.8684 172.185 65.4752 172.773 65.6718 173.047C65.8684 173.322 66.5563 173.165 67.2246 172.694C67.8929 172.224 68.2861 171.616 68.0895 171.342C67.8929 171.067 67.205 171.244 66.5367 171.714Z" fill="#2C243D"/>
<path d="M45.524 198.732C43.4011 201.281 42.5166 204.026 43.5584 204.888C44.6001 205.751 47.1555 204.379 49.2784 201.83C51.4013 199.281 52.2858 196.516 51.244 195.654C50.2022 194.791 47.6469 196.183 45.524 198.732Z" fill="#ACD4F8"/>
<path d="M46.8021 199.791C46.1141 200.594 45.8389 201.477 46.173 201.751C46.5072 202.026 47.3131 201.575 47.9814 200.771C48.6498 199.967 48.9446 199.085 48.6105 198.81C48.2763 198.536 47.4704 199.065 46.8021 199.791Z" fill="#2C243D"/>
<path d="M61.4844 239.572L61.2092 239.376H61.3468C62.5655 238.906 63.3125 238.004 63.0962 237.416C62.88 236.827 61.6613 236.651 60.4623 237.122L60.1478 237.259C60.1478 237.259 60.1478 237.161 60.1478 237.122C60.3247 235.827 59.9512 234.71 59.2829 234.612C58.6146 234.514 57.8873 235.455 57.7103 236.749C57.7009 236.86 57.7009 236.971 57.7103 237.082L57.5924 236.984C56.5703 236.161 55.4106 235.945 54.9781 236.474C54.5457 237.004 54.9781 238.082 56.0592 238.906L56.3148 239.102H56.1771C54.9584 239.572 54.2115 240.474 54.4278 241.062C54.644 241.651 55.8627 241.827 57.0814 241.357L57.3762 241.219C57.3762 241.219 57.3762 241.219 57.3762 241.376C57.1797 242.651 57.5728 243.788 58.2411 243.886C58.9094 243.984 59.617 243.023 59.8136 241.749C59.8136 241.631 59.8136 241.533 59.8136 241.415C60.8357 242.219 62.0152 242.454 62.4279 241.925C62.8407 241.396 62.4869 240.376 61.4844 239.572ZM58.5752 240.455C58.2431 240.397 57.9458 240.214 57.7447 239.944C57.5436 239.674 57.4539 239.338 57.4942 239.004C57.5437 238.668 57.7247 238.366 57.9975 238.164C58.2703 237.962 58.6125 237.876 58.9487 237.925C59.285 237.975 59.5878 238.155 59.7905 238.427C59.9932 238.7 60.0794 239.041 60.0298 239.376C59.9719 239.708 59.7887 240.004 59.518 240.205C59.2474 240.405 58.91 240.495 58.5752 240.455Z" fill="white"/>
<path d="M92.602 43.2716L78.4297 29.1353H92.602V43.2716Z" fill="#FFBF0D"/>
<path d="M119.57 262.1L119.904 269.413H125.801C125.801 269.413 126.136 268.512 126.647 268.512C127.158 268.512 127.61 269.413 128.2 269.413H143.355C143.355 269.413 143.63 268.061 143.355 267.59C142.803 267.199 142.183 266.913 141.527 266.747C138.441 265.786 129.634 262.826 128.101 259.571C126.234 255.63 119.57 262.1 119.57 262.1Z" fill="#4E99FF"/>
<path d="M143.471 267.884C143.548 268.391 143.548 268.906 143.471 269.413H128.316C127.727 269.413 127.176 268.511 126.763 268.511C126.351 268.511 125.918 269.413 125.918 269.413H120.021L119.746 267.884H143.471Z" fill="#D8E5ED"/>
<path d="M132.365 265.022C132.502 265.218 132.837 265.022 133.289 264.61C134.37 263.708 134.271 263.806 133.996 263.649C133.721 263.492 133.564 263.433 132.935 264.002C132.306 264.571 132.365 264.826 132.365 265.022Z" fill="#D8E5ED"/>
<path d="M130.815 264.237C130.933 264.433 131.287 264.237 131.739 263.845C132.82 262.924 132.722 263.022 132.447 262.865C132.172 262.708 132.014 262.669 131.385 263.218C130.756 263.767 130.678 264.061 130.815 264.237Z" fill="#D8E5ED"/>
<path d="M129.339 263.355C129.457 263.551 129.811 263.355 130.243 262.943C131.344 262.041 131.246 262.139 130.951 261.982C130.656 261.826 130.538 261.767 129.909 262.335C129.28 262.904 129.201 263.159 129.339 263.355Z" fill="#D8E5ED"/>
<path d="M74.3787 269.472C74.1178 270.297 74.0704 271.174 74.2411 272.021C74.2411 272.021 83.4207 273.139 86.3692 272.374C87.5291 271.95 88.6317 271.383 89.6518 270.688C89.8483 270.551 90.2218 269.786 90.4184 269.649C90.615 269.511 90.9884 269.806 91.3029 269.649C91.7924 269.329 92.2588 268.975 92.6985 268.59C93.5045 263.943 92.4233 262.081 92.4233 262.081C92.4233 262.081 86.5264 259.218 85.0915 261.218C81.6516 265.845 75.6761 267.257 74.3787 269.472Z" fill="#4E99FF"/>
<path d="M74.126 270.472C77.3765 271.017 80.6599 271.344 83.9542 271.452C87.3703 270.646 90.4818 268.876 92.9175 266.355C92.8719 267.084 92.7866 267.811 92.662 268.531C92.2223 268.916 91.7559 269.27 91.2664 269.59C90.9519 269.805 90.7554 269.413 90.3819 269.59C90.0084 269.766 89.8118 270.492 89.6153 270.629C88.5952 271.324 87.4925 271.891 86.3326 272.315C83.3841 273.08 74.2046 271.962 74.2046 271.962C74.128 271.469 74.1016 270.97 74.126 270.472Z" fill="#D8E5ED"/>
<path d="M79.0977 266.08C79.0977 266.257 79.4515 266.374 79.9625 266.355C81.0135 266.3 82.0674 266.352 83.1076 266.512C83.6383 266.512 84.0904 266.512 84.1101 266.316C84.1297 266.12 83.7169 265.825 83.2058 265.747C82.1716 265.594 81.1242 265.548 80.0805 265.61C79.5891 265.727 79.1566 265.865 79.0977 266.08Z" fill="#D8E5ED"/>
<path d="M80.8672 264.688C80.8672 264.904 81.221 265.041 81.7321 265.061C82.7807 265.112 83.8213 265.269 84.8378 265.531C85.3685 265.669 85.801 265.531 85.8206 265.394C85.8403 265.257 85.4275 264.865 84.9164 264.747C83.9053 264.498 82.8712 264.353 81.8304 264.316C81.2604 264.316 80.9065 264.492 80.8672 264.688Z" fill="#D8E5ED"/>
<path d="M82.5781 263.433C82.5781 263.649 82.9515 263.845 83.443 263.904C84.4878 264.048 85.5153 264.297 86.5094 264.649C87.0205 264.825 87.4529 264.806 87.4529 264.649C87.4529 264.492 87.0795 264.061 86.5684 263.884C85.5853 263.554 84.5711 263.324 83.5413 263.198C83.0302 263.08 82.6174 263.218 82.5781 263.433Z" fill="#D8E5ED"/>
<path d="M135.805 86.2099L134.822 80.5828L134.488 77.3674L134.685 73.0343C134.685 73.0343 136.002 71.309 136.65 75.4067C137.095 74.0312 137.423 72.6212 137.633 71.1913L138.636 67.8582L139.854 67.368L142.606 69.0738C142.606 69.0738 142.351 70.6031 140.11 69.8385C139.874 69.8385 139.737 72.6226 139.737 72.6226L142.665 76.8772C142.665 76.8772 143.235 79.0927 142.371 80.0731L141.486 81.0534L141.132 80.6613L140.916 84.9551C140.798 85.4548 140.578 85.925 140.271 86.3365C139.963 86.748 139.574 87.092 139.127 87.3471C137.692 88.0333 138.518 89.6411 138.518 89.6411L135.805 86.2099Z" fill="#E9D6B8"/>
<path d="M129.949 118.816C129.949 118.816 124.21 107.307 125.605 103.13C127.001 98.9542 132.996 83.3866 132.996 83.3866L140.387 87.3079C140.387 87.3079 135.158 117.816 133.488 119.874C131.817 121.933 130.402 119.463 129.949 118.816Z" fill="#BDCFE8"/>
<path d="M131.402 261.806L119.234 262.198L122.183 135.128L148.09 127.344C148.09 127.344 143.923 210.162 131.402 261.806Z" fill="#163F59"/>
<path d="M112.218 137.481L80.4336 264.178L94.8024 264.59L141.722 129.776L112.218 137.481Z" fill="#194866"/>
<path d="M122.164 135.913L124.228 134.442L148.09 127.344C148.09 127.344 147.678 135.756 146.715 148.912L121.613 163.362L122.164 135.913Z" fill="#194866"/>
<path d="M112.102 137.932L112.219 137.481L126.667 133.717L148.092 127.344C148.092 127.344 148.092 128.835 147.857 131.56L112.102 137.932Z" fill="#163F59"/>
<path d="M97.2201 70.4855C97.2201 70.4855 111.117 60.6822 123.658 76.9949C136.199 93.3075 149.211 127.09 149.211 127.09L111.039 139.52L98.6354 90.2489C98.6354 90.2489 91.8146 73.7402 97.2201 70.4855Z" fill="#9EB7DA"/>
<path d="M97.1023 71.1717C97.1023 71.1717 92.8172 70.76 94.6452 83.7592C96.4733 96.7583 101.034 122.051 103.137 128.423C103.648 129.991 105.712 137.344 109.034 132.893C112.356 128.442 114.557 111.228 108.916 89.0333C105.279 74.799 99.3235 71.1717 97.1023 71.1717Z" fill="#BDCFE8"/>
<path d="M146.498 92.8174L147.205 93.6605L144.454 102.327L138.91 103.974L137.633 102.797L139.756 94.9937L146.498 92.8174Z" fill="#161711"/>
<path d="M127.414 104.307L135.512 99.6208L138.717 99.1503L137.852 101.974L141.036 103.15L144.24 101.974L145.734 99.8561L146.363 102.209C146.201 102.989 145.835 103.713 145.301 104.307C144.456 105.248 141.468 110.404 141.468 110.404L139.129 109.934L133.802 108.542L130.402 111.11L127.414 104.307Z" fill="#E9D6B8"/>
<path d="M105.338 130.717C105.338 130.717 107.048 117.737 110.508 115.286C113.967 112.836 127.216 104.464 127.216 104.464L130.911 112.581C130.911 112.581 110.016 133.422 107.559 133.971C105.102 134.52 105.338 131.54 105.338 130.717Z" fill="#BDCFE8"/>
<path d="M119.552 64.7212C118.498 68.337 117.082 71.8381 115.326 75.1714C112.692 77.5046 104.908 71.4658 105.871 69.7796C107.133 66.0384 107.951 62.1626 108.309 58.2314C108.23 56.8981 120.928 60.6822 119.552 64.7212Z" fill="#E9D6B8"/>
<path d="M115.205 59.8587C113.32 59.0204 111.34 58.4146 109.308 58.0549C109.21 60.3293 109.17 62.6036 109.308 64.1133C109.583 68.3288 112.787 70.5835 114.772 72.3089C115.256 72.711 115.8 73.0352 116.384 73.2696C116.935 72.1324 117.858 69.6424 119.549 64.7604C120.178 62.8781 117.878 61.0939 115.205 59.8587Z" fill="#E2C59C"/>
<path d="M125.959 46.4479L125.153 66.0544C125.153 66.0544 124.976 70.6816 123.187 71.1913C120.149 71.6021 117.064 70.9059 114.499 69.2307C112.533 67.5053 109.31 65.3094 109.035 61.0351C108.759 56.7609 109.624 46.8204 109.624 46.8204C109.624 46.8204 111.236 43.6245 117.487 46.1538C123.738 48.683 125.959 46.4479 125.959 46.4479Z" fill="#E9D6B8"/>
<path d="M125.487 41.6443C126.098 41.8327 126.654 42.1669 127.106 42.6179C127.558 43.0689 127.893 43.6231 128.082 44.2324C128.161 45.0801 127.949 45.9294 127.481 46.6416C127.013 47.3538 126.318 47.8868 125.507 48.1537C121.818 48.1972 118.132 47.8953 114.5 47.2518C112.906 46.8389 111.512 45.8726 110.568 44.5265C110.018 43.4481 113.359 41.4875 115.266 42.2129C120.18 43.9383 122.244 40.5071 125.487 41.6443Z" fill="#194866"/>
<path d="M112.827 44.7421L112.473 53.1729L111.628 57.5648H110.606L108.739 57.4079C108.739 57.4079 106.144 45.644 109.092 44.5068C112.041 43.3696 112.709 44.0559 112.827 44.7421Z" fill="#194866"/>
<path d="M110.448 58.3098C110.441 58.4844 110.398 58.6557 110.322 58.813C110.246 58.9703 110.138 59.1103 110.005 59.2243C109.873 59.3383 109.718 59.4238 109.551 59.4756C109.383 59.5275 109.207 59.5444 109.033 59.5255H108.247C107.885 59.5004 107.547 59.338 107.302 59.0717C107.057 58.8054 106.924 58.4556 106.93 58.0942L107.067 54.9963C107.077 54.8235 107.122 54.6544 107.199 54.4994C107.277 54.3444 107.385 54.2067 107.517 54.0948C107.65 53.9829 107.804 53.899 107.97 53.8484C108.136 53.7978 108.31 53.7814 108.483 53.8004H109.269C109.63 53.8254 109.969 53.9878 110.214 54.2541C110.459 54.5204 110.592 54.8702 110.586 55.2316L110.448 58.3098Z" fill="#E9D6B8"/>
<path d="M114.932 44.4873L111.748 43.8599L110.254 53.0749L113.438 53.7023L114.932 44.4873Z" fill="#163F59"/>
<path d="M113.79 51.5064C113.862 50.8546 114.066 50.224 114.388 49.6526C114.711 49.0813 115.146 48.5809 115.668 48.1816C116.189 47.7823 116.786 47.4924 117.423 47.3292C118.06 47.166 118.723 47.133 119.373 47.2321L121.81 47.7223C124.424 48.2321 125.447 50.8398 124.975 53.7219C124.905 54.3748 124.704 55.0069 124.382 55.5796C124.06 56.1524 123.625 56.6539 123.103 57.0537C122.581 57.4535 121.983 57.7432 121.345 57.9052C120.707 58.0672 120.043 58.0982 119.392 57.9962L117.663 57.6628C116.338 57.3403 115.189 56.5197 114.457 55.3725C113.724 54.2253 113.464 52.8402 113.731 51.5064H113.79Z" fill="#E9D6B8"/>
<path d="M201.693 41.3502C201.693 41.3502 207.237 31.8606 214.392 35.4682C221.546 39.0758 218.755 44.5852 223.119 46.1734C227.483 47.7615 240.987 43.7814 248.535 45.3695C256.083 46.9576 258.579 51.2515 258.854 56.0551C259.247 63.1919 250.245 72.701 254.923 75.4655C266.835 82.5827 255.238 88.798 248.161 92.0919C236.269 97.6405 216.141 93.0722 216.534 87.5236C216.927 81.9749 210.185 85.5629 204.622 85.9354C199.06 86.308 214.313 68.1719 208.2 67.3288C193.359 65.3682 198.155 58.4471 195.777 54.4866C193.398 50.526 187.403 39.3699 201.693 41.3502Z" fill="#212957"/>
<path d="M226.501 125.188L232.692 137.148C232.692 137.148 237.036 153.225 236.84 156.48C236.84 156.578 235.975 191.634 240.594 201.222C248.024 216.652 250.658 259.493 249.813 262.983C249.459 264.473 245.469 265.178 245.351 264.767C229.862 213.986 226.009 201.516 226.009 201.516L213.979 150.539L199.198 195.869C199.198 195.869 197.134 204.183 196.525 206.869C194.146 217.319 181.016 248.238 176.868 262.688C176.278 264.767 171.816 264.473 171.816 264.473L184.613 200.634L188.78 178.655C188.78 178.655 199.198 132.403 200.829 123.247C202.461 114.09 219.857 118.051 226.501 125.188Z" fill="#0561FC"/>
<path d="M199.062 73.3677C199.062 73.3677 195.347 73.8971 193.853 84.3669C192.359 94.8368 190.807 107.228 194.03 107.797C197.254 108.365 206.139 105.62 204.055 95.0329C201.971 84.4454 199.062 73.3677 199.062 73.3677Z" fill="#54D370"/>
<path d="M212.15 69.2111C215.728 73.1324 224.357 69.8189 224.357 69.8189C224.357 69.8189 221.585 112.522 227.816 125.188C234.047 137.854 199.904 125.188 199.904 125.188L201.516 98.2484C201.516 98.2484 198.548 74.9754 198.312 73.8186C198.076 72.6618 210.204 67.1132 212.15 69.2111Z" fill="#54D370"/>
<path d="M221.233 71.4462C224.751 68.6424 226.894 68.4856 229.862 75.6027C236.525 91.5429 236.565 115.835 229.862 117.306C225.93 118.169 224.672 115.914 222.766 113.502C220.859 111.091 218.264 73.8186 221.233 71.4462Z" fill="#54D370"/>
<path d="M179.917 58.1334C180.55 56.4079 181.361 54.7522 182.335 53.1925C182.449 54.0712 182.354 54.9644 182.059 55.8002C181.509 57.7608 180.251 60.6822 180.782 61.9174C181.706 64.0741 181.411 64.4663 181.843 63.1918C182.276 61.9174 181.627 59.8979 183.573 57.6824C183.305 59.5604 183.148 61.4524 183.101 63.3487C183.101 65.7603 181.647 68.7993 182.688 73.6225C186.901 81.1485 190.598 88.9501 193.755 96.9739C196.684 105.209 197.686 107.718 194.954 107.973C189.234 108.503 186.639 101.679 185.775 98.4836C184.202 92.6016 180.959 74.348 180.959 74.348C179.606 71.6668 178.69 68.7877 178.246 65.8191C178.494 63.1999 179.055 60.6197 179.917 58.1334Z" fill="#F7B68B"/>
<path d="M178.421 66.0153C178.156 63.9744 178.064 61.915 178.146 59.8588C178.342 59.1334 179.817 55.9375 179.817 55.9375C180.012 57.0007 179.958 58.0944 179.659 59.1334C179.103 61.3994 178.69 63.6978 178.421 66.0153Z" fill="#F7B68B"/>
<path d="M190.806 102.993C190.933 103.368 191.159 103.703 191.46 103.961C191.76 104.22 192.125 104.393 192.516 104.464H202.56C202.725 104.446 202.882 104.389 203.02 104.298C203.157 104.207 203.27 104.083 203.349 103.939C203.429 103.794 203.471 103.633 203.474 103.468C203.477 103.303 203.44 103.14 203.366 102.993L196.84 84.8374C196.585 84.1512 195.818 83.2689 195.13 83.2689H185.086C184.398 83.2689 184.024 84.1512 184.28 84.8374L190.806 102.993Z" fill="#194866"/>
<path d="M198.057 90.543C198.057 90.543 199.452 92.9546 198.528 93.1898C197.605 93.4251 191.826 90.2096 191.826 90.2096L189.998 89.9744L194.518 93.5624C193.052 92.47 191.486 91.5182 189.84 90.7194C189.209 90.4997 188.542 90.3999 187.875 90.4253C187.187 90.2096 193.772 94.5819 193.772 94.5819L190.941 93.6604C190.941 93.6604 189.408 93.3075 190.155 94.1702C190.568 94.6407 191.197 94.7388 192.12 95.9544C194.477 98.6729 197.671 100.535 201.202 101.248C202.454 101.403 203.645 101.875 204.661 102.621L224.121 115.228C224.121 115.228 233.124 116.776 232.082 111.777C231.04 106.777 214.018 101.503 207.865 99.5227C205.794 99.0977 203.948 97.9335 202.676 96.2485C201.87 95.3858 200.258 91.6997 198.057 90.543Z" fill="#F7B68B"/>
<path d="M203.678 61.1527C203.678 61.1527 207.236 68.6816 202.872 72.6422C198.509 76.6027 207.511 79.1711 209.32 79.1711C214.686 79.1711 216.769 70.9952 216.769 70.9952C216.769 70.9952 213.192 70.9952 212.838 67.8778C212.386 63.4771 211.624 59.1137 210.558 54.8198L203.678 61.1527Z" fill="#F7B68B"/>
<path d="M203.68 61.1527L210.618 54.8198C211.442 58.1112 212.098 61.442 212.584 64.7995C212.241 66.5741 211.363 68.202 210.068 69.4659C208.771 70.9952 206.923 70.0541 205.036 68.0934C205.127 65.7065 204.663 63.3308 203.68 61.1527Z" fill="#EC9568"/>
<path d="M213.39 55.9375C213.645 53.9768 213.704 52.6828 209.321 50.3104C204.937 47.938 206.451 44.4284 204.072 46.84C202.782 48.2032 201.123 49.1636 199.296 49.6045C199.296 49.6045 197.723 55.1532 200.495 59.1137C203.266 63.0742 207.65 67.819 210.028 65.4466C212.407 63.0742 212.525 63.035 213.39 55.9375Z" fill="#F7B68B"/>
<path d="M175.217 261.532C174.677 261.339 174.227 260.955 173.955 260.451C173.683 259.948 173.607 259.362 173.742 258.806C173.841 257.767 173.133 257.551 172.032 257.846C168.998 258.603 165.898 259.07 162.774 259.238C162.213 258.949 161.597 258.782 160.967 258.748C160.337 258.715 159.707 258.814 159.118 259.042L159 259.159C159.074 259.883 159.299 260.584 159.661 261.215C160.024 261.847 160.515 262.395 161.103 262.826C163.686 264.169 166.565 264.843 169.477 264.786C171.528 264.913 173.559 265.268 175.531 265.845C175.725 265.866 175.92 265.817 176.081 265.708C176.258 265.414 176.435 265.08 176.612 264.825C177.134 263.927 177.6 262.997 178.008 262.041C177.056 262.023 176.113 261.851 175.217 261.532Z" fill="#212957"/>
<path d="M251.504 264.218C251.961 263.755 252.254 263.155 252.335 262.51C252.417 261.865 252.284 261.211 251.956 260.649C251.765 260.45 251.594 260.233 251.445 260.002C251.001 259.538 250.612 259.025 250.285 258.473C249.854 259.768 249.335 261.032 248.732 262.257C248.319 262.786 247.12 263.159 247.081 262.002C246.767 262.002 246.491 261.786 246.452 261.257C245.627 260.904 244.231 261.022 243.975 261.453C243.72 261.884 240.536 267.335 239.395 268.786C238.255 270.237 235.464 272.707 235.169 274.04C235.097 274.38 235.146 274.733 235.307 275.04C235.672 275.339 236.101 275.551 236.561 275.66C237.021 275.769 237.499 275.772 237.96 275.668C240.775 274.767 243.34 273.223 245.45 271.158C247.061 268.962 250.069 265.825 251.504 264.218Z" fill="#212957"/>
<path d="M292.388 265.727C291.877 266.394 292.113 268.217 292.113 268.217C292.113 268.217 300.31 269.668 303.022 269.041C304.096 268.648 305.119 268.128 306.069 267.492C306.266 267.374 306.619 266.629 306.816 266.512C307.013 266.394 307.307 266.688 307.602 266.512C308.064 266.217 308.504 265.889 308.919 265.531C309.593 263.46 309.641 261.238 309.057 259.14C309.057 259.14 302.177 256.022 300.742 257.924C297.479 262.336 293.548 264.218 292.388 265.727Z" fill="#161711"/>
<path d="M315.484 191.223C315.484 191.223 312.85 214.496 312.614 224.671C312.457 232.337 311.258 251.356 309.273 259.453C308.093 264.218 295.926 260.787 295.926 260.787C295.926 260.787 299.425 204.026 298.776 196.085C298.127 188.144 299.896 185.87 315.484 191.223Z" fill="#2C243D"/>
<path d="M339.88 46.7028C339.88 46.7028 344.617 42.7815 344.814 38.7426C345.01 34.7036 348.45 32.4685 343.634 28.4491C338.818 24.4298 336.735 26.4885 338.406 28.4491C340.076 30.4098 346.484 29.9196 344.303 25.6062C341.177 19.3713 334.061 16.9597 333.767 22.8612C333.472 28.7628 336.125 28.9393 335.732 25.5081C335.339 22.077 333.079 18.4302 330.916 20.4104C330.559 20.675 330.286 21.0365 330.129 21.4519C329.972 21.8672 329.938 22.3189 330.031 22.7529C330.124 23.187 330.341 23.5851 330.655 23.8998C330.968 24.2145 331.366 24.4325 331.801 24.5278C332.882 24.7239 330.916 18.9203 327.083 19.4105C323.25 19.9007 318.828 21.6849 319.712 27.5668C320.597 33.4488 321.973 30.2137 322.071 28.253C322.169 26.2924 318.336 23.4494 317.747 27.5668C317.196 30.7007 317.364 33.9181 318.238 36.978C319.024 40.213 322.661 44.8206 326.69 43.0756C330.72 41.3306 339.88 46.7028 339.88 46.7028Z" fill="#212957"/>
<path d="M350.414 137.363C350.211 147.765 349.423 158.146 348.055 168.459C346.089 180.223 342.551 193.379 342.748 194.614C342.944 195.85 339.583 197.908 333.49 197.301C327.396 196.693 325.293 193.183 325.293 193.183C325.293 193.183 323.465 150.755 324.251 144.775C325.037 138.795 338.207 130.991 350.414 137.363Z" fill="#2C243D"/>
<path d="M299.661 135.481C299.091 135.677 298.384 175.322 298.58 179.439C298.777 183.556 298.875 195.124 298.875 195.124C299.15 196.051 299.775 196.835 300.619 197.311C301.463 197.786 302.458 197.916 303.396 197.673C307.277 196.773 311.087 195.593 314.797 194.144C314.797 194.144 326.021 152.97 327.397 143.324C328.773 133.677 300.841 135.089 299.661 135.481Z" fill="#2C243D"/>
<path d="M325.431 64.2506C325.431 64.2506 332.507 66.2113 335.062 65.2309C337.617 64.2506 335.848 71.9168 338.011 83.4846C340.173 95.0525 346.876 127.639 346.679 132.932C346.483 138.226 336.438 140.402 327.396 140.402C318.354 140.402 315.976 140.795 317.961 131.168C319.946 121.541 325.431 64.2506 325.431 64.2506Z" fill="#0561FC"/>
<path d="M325.195 257.885L325.608 264.512L332.213 265.375C332.213 265.375 332.704 264.512 333.274 264.59C333.844 264.669 334.237 265.649 334.866 265.727L338.424 266.198L351.712 267.923C351.712 267.923 352.184 266.59 351.889 266.08C351.302 265.594 350.638 265.21 349.923 264.943C346.64 263.551 337.245 259.277 335.967 255.807C334.453 251.552 325.195 257.885 325.195 257.885Z" fill="#161711"/>
<path d="M335.654 194.477C335.689 193.315 335.464 192.16 334.996 191.095C334.528 190.03 333.828 189.083 332.948 188.321C332.067 187.559 331.028 187.002 329.905 186.69C328.782 186.378 327.604 186.319 326.455 186.517C323.094 186.772 324.214 259.845 324.214 259.845L338.112 256.355L342.908 191.321L335.654 194.477Z" fill="#2C243D"/>
<path d="M315.583 52.0161C314.797 52.4082 295.141 59.8587 295.141 59.8587C295.141 59.8587 299.858 62.9958 299.662 75.1714C299.465 87.3471 298.679 106.954 297.893 113.247L295.337 133.638C295.337 133.638 320.104 145.226 327.004 145.226C327.036 144.306 326.97 143.386 326.807 142.481C326.807 142.481 328.183 76.3478 328.576 72.2304C328.969 68.1131 321.5 57.702 320.517 55.9374C319.14 54.3262 317.465 52.9948 315.583 52.0161Z" fill="#EAF4FE"/>
<path d="M319.34 48.7615C320.313 52.9274 321.974 56.9029 324.254 60.5254C326.22 62.6821 319.537 65.231 319.537 65.231L314.406 52.4867L319.34 48.7615Z" fill="#C5E1F9"/>
<path d="M295.14 59.8588C290.751 64.9347 287.643 70.9854 286.079 77.5046C284.731 82.7136 283.875 88.0372 283.523 93.4055C283.523 95.3662 283.72 98.3072 283.72 98.3072L285.489 106.542C285.489 106.542 287.258 96.5426 292.959 95.3662C295.481 95.0036 297.938 94.2771 300.251 93.2095C300.251 93.2095 300.841 72.2109 299.858 68.2896C298.85 65.2002 297.247 62.3365 295.14 59.8588Z" fill="#C5E1F9"/>
<path d="M337.423 55.4277L350.416 63.8586C350.416 63.8586 352.382 92.1312 352.185 102.719C351.989 113.306 353.168 141.383 353.168 141.383L343.536 146.284C343.536 146.284 336.794 95.4643 336.794 94.484C336.794 93.5036 331.683 71.5247 333.059 68.9955C334.26 67.0324 335.186 64.9149 335.811 62.7018C336.047 61.3097 337.423 55.4277 337.423 55.4277Z" fill="#EAF4FE"/>
<path d="M338.207 53.6631L339.78 59.9372L339.19 66.6034L336.831 62.486L335.062 65.2309C335.062 65.2309 334.826 56.9962 338.207 53.6631Z" fill="#C5E1F9"/>
<path d="M350.81 64.2506C350.81 64.2506 357.493 78.7791 359.065 90.3665C360.638 101.954 360.048 104.483 360.048 104.483V106.64C360.048 106.64 351.399 108.993 351.203 109.581C351.006 110.169 351.203 80.1711 350.81 76.2498C350.416 72.3285 349.434 67.2308 349.434 67.2308L350.81 64.2506Z" fill="#C5E1F9"/>
<path d="M360.733 156.833L357.294 157.813L353.716 157.519C353.676 157.344 353.673 157.164 353.707 156.988C353.74 156.812 353.81 156.646 353.912 156.498C354.013 156.351 354.145 156.226 354.297 156.132C354.449 156.037 354.62 155.976 354.797 155.95C356.114 155.754 356.763 155.656 357.549 155.597C358.335 155.539 360.399 155.068 360.635 155.166C360.871 155.264 360.733 156.833 360.733 156.833Z" fill="#E9AB86"/>
<path d="M361.365 155.303L357.905 156.186L354.328 155.813C354.291 155.637 354.292 155.456 354.329 155.28C354.367 155.104 354.441 154.938 354.546 154.792C354.651 154.647 354.786 154.525 354.941 154.434C355.097 154.343 355.269 154.285 355.448 154.264C356.785 154.107 357.414 154.029 358.2 153.99C358.987 153.951 361.07 153.519 361.326 153.637C361.581 153.754 361.365 155.303 361.365 155.303Z" fill="#E9AB86"/>
<path d="M362.642 153.735L359.183 154.617L355.605 154.245C355.569 154.069 355.569 153.887 355.607 153.711C355.644 153.536 355.718 153.37 355.823 153.224C355.929 153.078 356.063 152.956 356.219 152.865C356.374 152.774 356.547 152.717 356.726 152.696C358.062 152.539 358.691 152.461 359.478 152.421C360.264 152.382 362.347 151.951 362.603 152.068C362.859 152.186 362.642 153.735 362.642 153.735Z" fill="#E9AB86"/>
<path d="M351.203 109.581C351.326 115.837 352.318 122.046 354.152 128.031C355.559 131.937 356.676 135.941 357.493 140.01C357.493 140.01 361.818 140.794 362.407 139.618C362.997 138.442 362.604 135.285 362.604 133.324C362.604 131.364 362.997 108.993 359.459 105.875C355.921 102.758 351.203 109.581 351.203 109.581Z" fill="#F0BF97"/>
<path d="M362.011 138.932C363.635 142.391 364.951 145.986 365.942 149.676C366.079 150.853 362.934 156.186 362.64 156.774C361.305 157.679 359.821 158.342 358.256 158.735C357.332 158.735 355.013 158.735 355.013 158.735C355.013 158.735 354.62 157.558 356.978 157.107C358.158 156.911 358.748 156.872 358.748 156.872L360.871 154.264L360.969 151.225C360.969 151.225 358.905 146.814 359.789 145.343C360.674 143.873 360.694 137.893 362.011 138.932Z" fill="#F0BF97"/>
<path d="M357.649 139.618C356.753 141.843 356.299 144.22 356.313 146.618C356.608 149.127 356.804 151.931 356.804 152.068C356.69 153.377 356.743 154.694 356.962 155.99C357.024 156.157 357.123 156.307 357.252 156.431C357.381 156.555 357.536 156.648 357.705 156.705C357.875 156.761 358.055 156.779 358.232 156.757C358.41 156.735 358.58 156.674 358.731 156.578C359.327 155.739 359.618 154.722 359.556 153.696C359.556 152.558 359.163 148.441 360.008 148.794C360.853 149.147 360.736 147.402 361.227 145.637C361.805 144.031 362.124 142.344 362.17 140.638C361.915 139.912 359.025 137.952 357.649 139.618Z" fill="#F0BF97"/>
<path d="M328.28 66.9172C326.802 66.3221 325.502 65.359 324.504 64.1198C323.506 62.8806 322.844 61.4068 322.58 59.8392C321.105 53.9572 318.648 51.7025 319.238 49.2517C319.828 46.8009 319.533 44.9382 320.417 45.9186C321.302 46.8989 325.332 56.31 329.656 56.212C331.847 56.2991 334.022 55.7909 335.946 54.7415C335.946 54.7415 336.339 56.7022 336.536 58.4668C336.732 60.2313 336.732 66.7211 335.356 67.0152C332.998 67.1425 330.634 67.1098 328.28 66.9172Z" fill="#F0BF97"/>
<path d="M334.082 58.0745C333.492 58.2706 332.018 61.5057 330.642 61.9959C329.266 62.486 327.399 62.7801 325.236 59.8391C323.074 56.8982 321.502 55.4277 320.715 52.2906C319.929 49.1536 320.126 45.3303 320.912 44.448C321.698 43.5657 321.403 40.4091 325.728 44.448C330.052 48.487 334.082 58.0745 334.082 58.0745Z" fill="#E9AB86"/>
<path d="M326.022 35.4094C325.343 36.5269 324.479 37.5213 323.467 38.3504C321.894 39.4287 320.911 40.115 320.715 42.0756C320.518 44.0363 324.056 55.8002 327.005 58.4667C327.78 59.2583 328.758 59.823 329.832 60.0995C330.906 60.376 332.036 60.3538 333.098 60.0352C336.501 56.1134 339.26 51.6799 341.275 46.8988C342.651 42.4678 343.536 37.9583 341.865 37.0956C340.194 36.2329 330.641 32.4096 326.022 35.4094Z" fill="#F0BF97"/>
<path d="M321.067 41.1934C321.067 41.1934 321.165 36.978 319.887 36.2918C318.61 35.6055 317.332 34.5272 317.332 36.2918C317.386 38.6476 317.956 40.9631 319.003 43.0756C320.084 44.8402 319.298 45.7225 320.379 46.0166C321.46 46.3107 321.067 42.6639 321.067 41.1934Z" fill="#F0BF97"/>
<path d="M318.629 88.9744C319.022 88.7784 322.187 85.9746 323.071 85.5041C323.956 85.0335 327.592 82.8964 328.536 83.1905C329.173 83.4311 329.831 83.6148 330.501 83.7395C330.501 83.7395 332.467 84.7394 332.27 85.1708C332.015 86.1511 327.887 85.1708 328.339 87.1314C328.791 89.0921 318.629 88.9744 318.629 88.9744Z" fill="#F0BF97"/>
<path d="M337.796 92.3075C337.636 92.7023 337.366 93.0431 337.017 93.2897C336.669 93.5363 336.257 93.6785 335.831 93.6996H328.184C328.016 93.7098 327.848 93.6748 327.698 93.5982C327.547 93.5216 327.421 93.4062 327.33 93.264C327.24 93.1219 327.189 92.9581 327.184 92.7899C327.179 92.6217 327.219 92.4551 327.3 92.3075L331.526 80.7593C331.68 80.3603 331.949 80.0155 332.299 79.7679C332.648 79.5203 333.063 79.381 333.492 79.3672H341.138C341.306 79.357 341.475 79.392 341.625 79.4686C341.775 79.5452 341.902 79.6606 341.992 79.8028C342.083 79.9449 342.133 80.1087 342.138 80.2769C342.144 80.4451 342.104 80.6117 342.023 80.7593L337.796 92.3075Z" fill="#212957"/>
<path d="M330.151 91.3468L339.979 90.8959C340.372 90.8959 341.512 91.2488 340.529 91.935C338.497 92.8873 336.339 93.5474 334.121 93.8957C332.491 94.0926 330.85 94.1908 329.207 94.1898L330.151 91.3468Z" fill="#E9AB86"/>
<path d="M330.15 96.4446C330.15 96.4446 333.216 95.6407 333.59 95.5035C334.376 95.2094 338.857 93.0527 335.418 93.1507C331.978 93.2487 331.034 93.7977 330.248 95.2682C329.462 96.7387 330.15 96.4446 330.15 96.4446Z" fill="#E9AB86"/>
<path d="M293.373 94.3859C293.373 94.3859 288.144 98.1504 287.476 99.6797C286.355 102.601 285.117 105.268 285.707 107.522C286.296 109.777 286.788 111.738 288.557 111.64C290.326 111.542 317.884 98.1111 319.653 97.1308C321.423 96.1505 325.944 96.7387 325.944 96.7387L329.875 96.3466C330.858 96.3466 331.152 93.9938 331.251 93.1115C331.349 92.2292 328.302 85.5434 326.337 85.2689C324.371 84.9944 319.359 87.7197 315.113 89.4843C314.032 90.0529 295.515 94.2879 293.373 94.3859Z" fill="#F0BF97"/>
<path d="M328.185 87.0726C328.185 87.0726 334.082 86.2491 335.458 86.0923C337.423 85.8374 338.308 86.4844 338.406 87.0726C338.504 87.6608 338.504 87.7 336.735 88.0529C335.379 88.3078 330.544 89.7195 329.168 89.7195C327.792 89.7195 328.185 87.0726 328.185 87.0726Z" fill="#F0BF97"/>
<path d="M328.93 89.3862C328.93 89.3862 334.827 88.7784 336.891 88.6804C337.956 88.6076 339.026 88.6736 340.075 88.8765C340.448 89.1314 341.412 89.4647 340.822 90.2685C340.232 91.0724 330.895 92.2292 329.913 92.4252L328.93 89.3862Z" fill="#F0BF97"/>
<path d="M138.637 10.2934C138.637 12.2323 138.06 14.1277 136.981 15.7398C135.901 17.352 134.366 18.6085 132.57 19.3505C130.774 20.0925 128.798 20.2866 126.891 19.9083C124.985 19.5301 123.234 18.5964 121.859 17.2254C120.485 15.8544 119.549 14.1076 119.169 12.206C118.79 10.3043 118.985 8.3332 119.729 6.54188C120.472 4.75057 121.732 3.21952 123.348 2.14232C124.965 1.06512 126.865 0.490173 128.809 0.490173C131.415 0.490173 133.915 1.52301 135.758 3.36148C137.601 5.19995 138.637 7.69345 138.637 10.2934Z" fill="#4E99FF"/>
<path d="M133.33 14.999V13.8226C133.33 13.1986 133.081 12.6002 132.639 12.159C132.197 11.7177 131.597 11.4698 130.971 11.4698H126.824C126.198 11.4698 125.598 11.7177 125.156 12.159C124.713 12.6002 124.465 13.1986 124.465 13.8226V14.999H133.33Z" fill="white"/>
<path d="M130.972 7.64655C130.996 7.2313 130.894 6.81853 130.68 6.46164C130.466 6.10475 130.149 5.82016 129.771 5.64467C129.393 5.46918 128.971 5.41088 128.559 5.47729C128.148 5.5437 127.766 5.73176 127.462 6.01717C127.159 6.30259 126.949 6.67221 126.858 7.07823C126.768 7.48425 126.802 7.90799 126.955 8.29465C127.109 8.68131 127.375 9.0131 127.72 9.24709C128.065 9.48109 128.472 9.60654 128.889 9.60721C129.423 9.61289 129.939 9.41176 130.327 9.04611C130.716 8.68047 130.947 8.17879 130.972 7.64655Z" fill="white"/>
<path d="M139.619 3.78405C139.619 4.53247 139.396 5.26408 138.979 5.88636C138.562 6.50865 137.97 6.99366 137.277 7.28007C136.583 7.56648 135.821 7.64141 135.085 7.4954C134.349 7.34939 133.673 6.989 133.142 6.45979C132.612 5.93058 132.251 5.25633 132.104 4.52229C131.958 3.78825 132.033 3.0274 132.32 2.33596C132.607 1.64451 133.093 1.05352 133.717 0.63772C134.341 0.221922 135.075 -9.70201e-06 135.825 -9.70201e-06C136.324 -0.00260849 136.818 0.0934913 137.28 0.282738C137.741 0.471984 138.161 0.750613 138.513 1.10251C138.866 1.45442 139.145 1.87261 139.335 2.33289C139.525 2.79317 139.621 3.2864 139.619 3.78405Z" fill="#FF5931"/>
<path d="M97.6528 9.1366H66.8905C65.5444 9.1366 64.4531 10.2251 64.4531 11.5678V32.5468C64.4531 33.8895 65.5444 34.978 66.8905 34.978H97.6528C98.999 34.978 100.09 33.8895 100.09 32.5468V11.5678C100.09 10.2251 98.999 9.1366 97.6528 9.1366Z" fill="#FFBF0D"/>
<path d="M97.6528 9.1366H66.8905C65.5444 9.1366 64.4531 10.2251 64.4531 11.5678V32.5468C64.4531 33.8895 65.5444 34.978 66.8905 34.978H97.6528C98.999 34.978 100.09 33.8895 100.09 32.5468V11.5678C100.09 10.2251 98.999 9.1366 97.6528 9.1366Z" fill="#FFBF0D"/>
<path d="M97.6528 9.11707H66.8708C66.2278 9.12224 65.6129 9.38065 65.16 9.83604C64.7071 10.2914 64.4531 10.9069 64.4531 11.5483V12.8031L92.719 34.9585H97.6528C98.2958 34.9533 98.9107 34.6949 99.3636 34.2395C99.8165 33.7841 100.071 33.1687 100.071 32.5273V11.5483C100.071 10.9069 99.8165 10.2914 99.3636 9.83604C98.9107 9.38065 98.2958 9.12224 97.6528 9.11707Z" fill="#F3AA06"/>
<path d="M82.2618 25.2728L100.071 12.9207V11.5483C100.071 10.9069 99.8165 10.2914 99.3636 9.83604C98.9107 9.38065 98.2958 9.12224 97.6528 9.11707H66.8708C66.2278 9.12224 65.6129 9.38065 65.16 9.83604C64.7071 10.2914 64.4531 10.9069 64.4531 11.5483V12.9207L82.2618 25.2728Z" fill="#FECE40"/>
<path d="M351.691 44.9969C351.691 45.5004 351.884 45.9848 352.232 46.3498C352.58 46.7148 353.055 46.9324 353.559 46.9576H354.797V51.2906L359.141 46.9576H373.431C373.936 46.9324 374.411 46.7148 374.758 46.3498C375.106 45.9848 375.299 45.5004 375.299 44.9969V29.5078C375.299 29.0043 375.106 28.5199 374.758 28.1549C374.411 27.7899 373.936 27.5723 373.431 27.5471H353.559C353.055 27.5723 352.58 27.7899 352.232 28.1549C351.884 28.5199 351.691 29.0043 351.691 29.5078V44.9969Z" fill="#55D270"/>
<g clip-path="url(#clip1_158_3919)">
<path d="M364 36.6484C363.806 36.6484 363.648 36.806 363.648 37C363.648 37.194 363.806 37.3516 364 37.3516C364.194 37.3516 364.352 37.194 364.352 37C364.352 36.806 364.194 36.6484 364 36.6484Z" fill="#F0F7FF"/>
<path d="M364 35.2422C363.031 35.2422 362.242 36.0308 362.242 37C362.242 37.9692 363.031 38.7578 364 38.7578C364.969 38.7578 365.758 37.9692 365.758 37C365.758 36.0308 364.969 35.2422 364 35.2422ZM364 38.0547C363.418 38.0547 362.945 37.5816 362.945 37C362.945 36.4184 363.418 35.9453 364 35.9453C364.582 35.9453 365.055 36.4184 365.055 37C365.055 37.5816 364.582 38.0547 364 38.0547Z" fill="#F0F7FF"/>
<path d="M369.934 36.7954C369.827 36.6457 367.25 33.1328 364 33.1328C360.75 33.1328 358.173 36.6457 358.066 36.7954C357.978 36.9176 357.978 37.0824 358.066 37.2046C358.173 37.3543 360.75 40.8672 364 40.8672C367.25 40.8672 369.827 37.3543 369.934 37.2046C370.022 37.0824 370.022 36.9176 369.934 36.7954ZM364 39.4609C362.643 39.4609 361.539 38.3568 361.539 37C361.539 35.6432 362.643 34.5391 364 34.5391C365.357 34.5391 366.461 35.6432 366.461 37C366.461 38.3568 365.357 39.4609 364 39.4609Z" fill="#F0F7FF"/>
</g>
<path d="M428.531 44.9969C428.531 45.5004 428.724 45.9848 429.072 46.3498C429.419 46.7148 429.894 46.9324 430.399 46.9576H431.637V51.2906L435.981 46.9576H450.271C450.775 46.9324 451.25 46.7148 451.598 46.3498C451.946 45.9848 452.139 45.5004 452.139 44.9969V29.5078C452.139 29.0043 451.946 28.5199 451.598 28.1549C451.25 27.7899 450.775 27.5723 450.271 27.5471H430.399C429.894 27.5723 429.419 27.7899 429.072 28.1549C428.724 28.5199 428.531 29.0043 428.531 29.5078V44.9969Z" fill="#FEC12F"/>
<path d="M388.094 8.33276H374.492V22.2338H388.094V8.33276Z" fill="#2B83FD"/>
<path d="M384.106 13.9403H381.767C381.887 13.7029 381.979 13.453 382.043 13.1952C382.063 13.0062 382.063 12.8156 382.043 12.6266C382.045 12.5555 382.033 12.4845 382.008 12.418C381.982 12.3515 381.944 12.2908 381.894 12.2396C381.845 12.1883 381.785 12.1476 381.72 12.1197C381.654 12.0919 381.583 12.0776 381.512 12.0776H381.237V12.9207C381.237 12.9207 380.273 14.0383 380.273 14.4892V17.1557C380.273 17.3013 380.331 17.441 380.435 17.5439C380.538 17.6469 380.678 17.7047 380.824 17.7047H382.789C382.954 17.6958 383.113 17.6391 383.245 17.5416C383.378 17.4441 383.479 17.3099 383.536 17.1557L384.519 14.4892C384.556 14.426 384.574 14.3532 384.569 14.2802C384.565 14.2071 384.539 14.1369 384.495 14.0783C384.451 14.0197 384.391 13.9754 384.322 13.9508C384.253 13.9263 384.178 13.9226 384.106 13.9403Z" fill="white"/>
<path d="M380.606 14.3716H379.879V17.3518H380.606V14.3716Z" fill="white"/>
<path d="M379.036 13.9402H377.738V17.7046H379.036V13.9402Z" fill="white"/>
<path d="M308.627 37.9583C308.627 38.4618 308.434 38.9461 308.086 39.3111C307.739 39.6761 307.263 39.8938 306.759 39.919H305.521V44.1736L301.157 39.8405H286.867C286.614 39.841 286.364 39.7898 286.132 39.6899C285.899 39.59 285.69 39.4436 285.517 39.2598C285.344 39.076 285.21 38.8587 285.125 38.6213C285.039 38.384 285.003 38.1316 285.019 37.8799V22.3907C285.018 21.8905 285.209 21.4088 285.553 21.0443C285.896 20.6798 286.366 20.4601 286.867 20.4301H306.759C307.263 20.4552 307.739 20.6729 308.086 21.0379C308.434 21.4029 308.627 21.8873 308.627 22.3907V37.9583Z" fill="#FF5931"/>
<g clip-path="url(#clip2_158_3919)">
<path d="M297 29.6484C296.806 29.6484 296.648 29.806 296.648 30C296.648 30.194 296.806 30.3516 297 30.3516C297.194 30.3516 297.352 30.194 297.352 30C297.352 29.806 297.194 29.6484 297 29.6484Z" fill="#F0F7FF"/>
<path d="M297 28.2422C296.031 28.2422 295.242 29.0308 295.242 30C295.242 30.9692 296.031 31.7578 297 31.7578C297.969 31.7578 298.758 30.9692 298.758 30C298.758 29.0308 297.969 28.2422 297 28.2422ZM297 31.0547C296.418 31.0547 295.945 30.5816 295.945 30C295.945 29.4184 296.418 28.9453 297 28.9453C297.582 28.9453 298.055 29.4184 298.055 30C298.055 30.5816 297.582 31.0547 297 31.0547Z" fill="#F0F7FF"/>
<path d="M302.934 29.7954C302.827 29.6457 300.25 26.1328 297 26.1328C293.75 26.1328 291.173 29.6457 291.066 29.7954C290.978 29.9176 290.978 30.0824 291.066 30.2046C291.173 30.3543 293.75 33.8672 297 33.8672C300.25 33.8672 302.827 30.3543 302.934 30.2046C303.022 30.0824 303.022 29.9176 302.934 29.7954ZM297 32.4609C295.643 32.4609 294.539 31.3568 294.539 30C294.539 28.6432 295.643 27.5391 297 27.5391C298.357 27.5391 299.461 28.6432 299.461 30C299.461 31.3568 298.357 32.4609 297 32.4609Z" fill="#F0F7FF"/>
</g>
<path d="M190.98 35.6643C190.975 36.2381 190.743 36.7866 190.334 37.1905C189.925 37.5944 189.373 37.821 188.798 37.821H187.403V42.8991L182.331 37.821H165.623C165.048 37.821 164.496 37.5944 164.087 37.1905C163.679 36.7866 163.447 36.2381 163.441 35.6643V17.5478C163.447 16.974 163.679 16.4255 164.087 16.0216C164.496 15.6177 165.048 15.3911 165.623 15.3911H188.857C189.432 15.3911 189.984 15.6177 190.393 16.0216C190.802 16.4255 191.034 16.974 191.039 17.5478L190.98 35.6643Z" fill="#4E99FF"/>
<g clip-path="url(#clip3_158_3919)">
<path d="M177 25.6484C176.806 25.6484 176.648 25.806 176.648 26C176.648 26.194 176.806 26.3516 177 26.3516C177.194 26.3516 177.352 26.194 177.352 26C177.352 25.806 177.194 25.6484 177 25.6484Z" fill="#F0F7FF"/>
<path d="M177 24.2422C176.031 24.2422 175.242 25.0308 175.242 26C175.242 26.9692 176.031 27.7578 177 27.7578C177.969 27.7578 178.758 26.9692 178.758 26C178.758 25.0308 177.969 24.2422 177 24.2422ZM177 27.0547C176.418 27.0547 175.945 26.5816 175.945 26C175.945 25.4184 176.418 24.9453 177 24.9453C177.582 24.9453 178.055 25.4184 178.055 26C178.055 26.5816 177.582 27.0547 177 27.0547Z" fill="#F0F7FF"/>
<path d="M182.934 25.7954C182.827 25.6457 180.25 22.1328 177 22.1328C173.75 22.1328 171.173 25.6457 171.066 25.7954C170.978 25.9176 170.978 26.0824 171.066 26.2046C171.173 26.3543 173.75 29.8672 177 29.8672C180.25 29.8672 182.827 26.3543 182.934 26.2046C183.022 26.0824 183.022 25.9176 182.934 25.7954ZM177 28.4609C175.643 28.4609 174.539 27.3568 174.539 26C174.539 24.6432 175.643 23.5391 177 23.5391C178.357 23.5391 179.461 24.6432 179.461 26C179.461 27.3568 178.357 28.4609 177 28.4609Z" fill="#F0F7FF"/>
</g>
<path d="M224.888 30.9587C224.88 31.1621 224.912 31.3651 224.983 31.5561C225.054 31.747 225.162 31.9222 225.301 32.0715C225.439 32.2208 225.606 32.3414 225.792 32.4263C225.977 32.5112 226.178 32.5589 226.382 32.5664H229.291V38.5856L236.426 32.5664H251.07C251.274 32.5589 251.475 32.5112 251.66 32.4263C251.846 32.3414 252.013 32.2208 252.151 32.0715C252.29 31.9222 252.398 31.747 252.469 31.5561C252.54 31.3651 252.572 31.1621 252.564 30.9587V12.803C252.572 12.5996 252.54 12.3966 252.469 12.2057C252.398 12.0147 252.29 11.8396 252.151 11.6903C252.013 11.5409 251.846 11.4204 251.66 11.3354C251.475 11.2505 251.274 11.2029 251.07 11.1953H226.382C226.178 11.2029 225.977 11.2505 225.792 11.3354C225.606 11.4204 225.439 11.5409 225.301 11.6903C225.162 11.8396 225.054 12.0147 224.983 12.2057C224.912 12.3966 224.88 12.5996 224.888 12.803V30.9587Z" fill="#FF3D0D"/>
<g clip-path="url(#clip4_158_3919)">
<path d="M239 21.6484C238.806 21.6484 238.648 21.806 238.648 22C238.648 22.194 238.806 22.3516 239 22.3516C239.194 22.3516 239.352 22.194 239.352 22C239.352 21.806 239.194 21.6484 239 21.6484Z" fill="#F0F7FF"/>
<path d="M239 20.2422C238.031 20.2422 237.242 21.0308 237.242 22C237.242 22.9692 238.031 23.7578 239 23.7578C239.969 23.7578 240.758 22.9692 240.758 22C240.758 21.0308 239.969 20.2422 239 20.2422ZM239 23.0547C238.418 23.0547 237.945 22.5816 237.945 22C237.945 21.4184 238.418 20.9453 239 20.9453C239.582 20.9453 240.055 21.4184 240.055 22C240.055 22.5816 239.582 23.0547 239 23.0547Z" fill="#F0F7FF"/>
<path d="M244.934 21.7954C244.827 21.6457 242.25 18.1328 239 18.1328C235.75 18.1328 233.173 21.6457 233.066 21.7954C232.978 21.9176 232.978 22.0824 233.066 22.2046C233.173 22.3543 235.75 25.8672 239 25.8672C242.25 25.8672 244.827 22.3543 244.934 22.2046C245.022 22.0824 245.022 21.9176 244.934 21.7954ZM239 24.4609C237.643 24.4609 236.539 23.3568 236.539 22C236.539 20.6432 237.643 19.5391 239 19.5391C240.357 19.5391 241.461 20.6432 241.461 22C241.461 23.3568 240.357 24.4609 239 24.4609Z" fill="#F0F7FF"/>
</g>
<path d="M440.322 31.5077L441.894 34.7036L445.432 35.2133L442.877 37.7034L443.486 41.1933L440.322 39.5464L437.177 41.1933L437.766 37.7034L435.211 35.2133L438.749 34.7036L440.322 31.5077Z" fill="white"/>
<path d="M477.375 44.3499L479.537 39.213L483.704 38.5464C483.612 38.923 483.445 39.277 483.212 39.5871C482.979 39.8972 482.685 40.1568 482.348 40.3502L481.247 40.8992L479.577 43.899L477.375 44.3499Z" fill="#E9AB86"/>
<path d="M508.002 55.408C513.532 57.2545 518.652 60.1507 523.079 63.9369C530.745 70.3874 521.428 83.5434 521.428 83.5434L514.076 135.246L480.798 133.971L479.52 83.3866C479.52 83.3866 476.061 87.0138 474.41 85.9354C471.382 83.9748 469.102 76.7596 467.648 76.7792C465.387 76.7792 472.012 49.9574 490.665 53.5062C509.319 57.055 508.002 55.408 508.002 55.408Z" fill="#FEC00F"/>
<path d="M475.645 48.0752L479.635 55.0748L490.623 42.9579L484.686 37.6053L475.645 48.0752Z" fill="#163F59"/>
<path d="M474.388 82.0533C474.388 82.0533 464.383 98.7777 452.766 100.425C441.149 102.072 463.518 72.4069 467.331 71.3482C471.145 70.2894 474.388 82.0533 474.388 82.0533Z" fill="#E9AB86"/>
<path d="M504.228 39.6248C504.793 36.9254 505.2 34.1955 505.446 31.4489C505.446 28.9785 503.579 27.3708 500.513 25.567C497.446 23.7632 497.859 24.1161 498.803 23.6063C499.746 23.0965 497.053 21.8809 493.24 22.4887C489.427 23.0965 483.077 25.4493 485.672 32.1743C488.267 38.8994 502.321 45.644 504.228 39.6248Z" fill="#163F59"/>
<path d="M508.158 54.5258C506.485 54.0474 505.071 52.9261 504.227 51.4084C502.969 48.9575 502.261 46.1538 503.165 44.5265C504.069 42.8991 506.33 37.3112 503.833 38.0563C501.337 38.8013 502.005 38.7817 501.278 39.7817C500.551 40.7816 500.57 39.9581 500.394 38.5857C500.171 36.8261 499.311 35.2085 497.976 34.037C496.796 33.4292 497.779 29.1942 498.782 28.4295C499.784 27.6648 495.086 28.5667 491.981 28.4295C488.875 28.2923 487.656 27.7629 485.769 30.1353C484.082 32.5037 483.307 35.3995 483.587 38.2916C483.705 41.2914 485.75 48.2321 485.907 49.7614C486.064 51.2907 485.651 51.526 488.187 52.1142C490.723 52.7024 489.563 52.6043 488.973 54.4474C488.383 56.2904 486.123 63.0742 492.197 64.8192C498.271 66.5642 504.246 65.5643 508.158 54.5258Z" fill="#F0BF97"/>
<path d="M486.005 48.2909C485.651 49.8202 459.882 94.0329 453.238 100.072C449.857 103.17 447.793 94.6211 448.697 89.3274C449.601 84.0336 474.251 55.4081 474.251 55.4081L473.818 48.1929C473.818 48.1929 472.639 47.7615 476.256 44.7225C479.872 41.6835 480.639 41.8599 480.639 41.8599L482.605 43.4677L483.411 46.2322C483.411 46.2322 480.757 49.8202 479.794 49.2712C478.831 48.7222 480.58 47.9968 479.42 47.4086C479.066 47.2452 478.68 47.1606 478.29 47.1606C477.9 47.1606 477.514 47.2452 477.16 47.4086L478.87 53.2906C478.87 53.2906 479.971 54.8199 481.504 53.0749C483.037 51.3299 486.3 47.0753 486.005 48.2909Z" fill="#F0BF97"/>
<path d="M479.795 49.2712C478.793 48.7222 480.581 47.9968 479.422 47.4086C479.067 47.2452 478.682 47.1606 478.291 47.1606C477.901 47.1606 477.515 47.2452 477.161 47.4086L478.871 53.2906C478.871 53.2906 479.972 54.8199 481.505 53.0749C483.038 51.3299 485.653 47.4282 485.436 48.6438C482.379 55.0018 478.973 61.1872 475.235 67.172C475.805 64.1477 476.708 61.1954 477.928 58.3687C479.52 55.6826 477.928 55.9767 477.141 54.8003C476.221 52.3536 475.562 49.8168 475.176 47.2321L477.947 45.7813C478.678 45.9283 479.423 45.9941 480.168 45.9773C481.485 45.9773 482.704 43.4873 482.704 43.4873L483.51 46.2518C483.51 46.2518 480.758 49.8202 479.795 49.2712Z" fill="#E9AB86"/>
<path d="M501.004 46.3302C499.86 48.0696 498.484 49.646 496.915 51.0162C495.362 51.9965 490.016 52.0749 488.188 52.1533C486.36 52.2318 488.758 51.7808 492.571 53.9964C496.384 56.2119 501.122 60.1136 501.554 58.2314C502.178 56.0261 502.457 53.7377 502.379 51.4475C502.045 50.0554 501.004 46.3302 501.004 46.3302Z" fill="#E9AB86"/>
<path d="M486.183 251.513C486.09 252.432 486.09 253.358 486.183 254.277C485.999 255.796 485.438 257.245 484.552 258.493C483.883 259.316 483.726 258.179 483.726 258.179C483.164 259.034 482.728 259.965 482.429 260.943C481.138 263.54 479.424 265.906 477.357 267.943C476.287 268.919 475.082 269.738 473.78 270.374C473.78 270.374 471.991 271.198 473.603 266.316C474.285 264.097 475.106 261.923 476.06 259.806C477.318 257.355 481.564 249.062 486.183 251.513Z" fill="#161711"/>
<path d="M492.785 261.688C492.304 262.574 491.978 263.536 491.822 264.531C491.35 266.845 491.036 269.1 491.036 269.1C491.036 269.1 490.525 271.492 491.881 272.158C493.237 272.825 497.365 269.413 498.368 268.061C499.37 266.708 501.454 261.551 502.712 259.747C503.97 257.944 501.847 253.493 499.351 255.375C496.847 257.127 494.632 259.257 492.785 261.688Z" fill="#161711"/>
<path d="M488.738 136.932C488.738 136.932 498.291 165.734 498.783 177.204C499.274 188.674 497.073 205.28 497.308 207.241C497.544 209.202 490.94 260.943 490.94 260.943L494.124 264.865C494.124 264.865 505.387 258.983 505.918 257.297C506.449 255.61 509.338 221.907 510.321 215.809C511.304 209.711 512.778 197.987 512.778 194.811C512.778 191.634 520.837 147.206 517.181 137.697C513.525 128.188 496.621 132.07 496.621 132.07L489.269 132.325L488.738 136.932Z" fill="#163F59"/>
<path d="M499.942 143.285C499.942 143.285 484.04 198.183 483.784 201.869C483.528 205.555 487.951 251.179 487.951 251.179L477.179 259.022L470.575 205.574C470.459 201.418 470.624 197.259 471.066 193.124C471.794 186.772 481.091 132.834 481.091 132.834L494.064 132.579L499.942 143.285Z" fill="#163F59"/>
<path d="M530.842 82.5632C530.842 82.5632 539.432 110.012 539.629 117.855C539.825 125.698 534.793 125.09 530.429 122.051C526.97 119.62 521.23 100.17 519.54 96.9152C517.849 93.6605 530.724 78.936 530.842 82.5632Z" fill="#E9AB86"/>
<path d="M539.63 117.796C539.433 110.071 530.843 82.5043 530.843 82.5043C530.843 80.5436 527.305 83.6611 524.199 87.4647C525.614 86.2687 526.637 85.857 526.676 86.8569C526.676 86.8569 535.266 114.306 535.462 122.149C535.515 123.314 535.469 124.481 535.325 125.639C538.411 124.913 539.806 123.854 539.63 117.796Z" fill="#F0BF97"/>
<path d="M528.404 118.678L509.77 136.442C509.77 136.442 546.173 126.639 537.918 120.463C531.392 115.581 528.404 118.678 528.404 118.678Z" fill="#F0BF97"/>
<path d="M514.231 61.8195C514.231 61.8195 522.408 57.6237 527.243 69.4268C529.966 76.16 532.29 83.0473 534.202 90.0529C534.202 90.0529 519.911 104.405 516.511 97.5033C514.916 94.622 513.491 91.6498 512.245 88.602C508.373 75.6617 514.231 61.8195 514.231 61.8195Z" fill="#FEC00F"/>
<path d="M516.551 128.089C515.077 128.462 515.175 128.384 515.175 128.384C515.127 129.6 514.701 130.771 513.956 131.736C513.347 132.422 511.146 134.344 511.146 134.344L507.902 137.226L506.29 138.442C506.29 138.442 505.327 139.069 505.229 139.422C504.915 140.422 505.779 140.285 505.779 140.285L512.404 136.109L507.293 141.638C507.293 141.638 506.762 142.461 507.057 142.892C507.352 143.324 507.548 143.069 507.548 143.069L514.743 138.167L512.423 141.324C512.423 141.324 511.912 142.147 512.168 142.559C512.298 142.754 512.416 142.957 512.522 143.167L518.124 137.403C518.124 137.403 518.025 127.697 516.551 128.089Z" fill="#F0BF97"/>
<path d="M513.034 137.363L509.654 141.481C509.219 141.895 508.877 142.396 508.651 142.951C508.616 143.039 508.6 143.132 508.602 143.226C508.604 143.32 508.625 143.413 508.663 143.499C508.701 143.584 508.757 143.662 508.826 143.726C508.894 143.79 508.975 143.84 509.064 143.873L514.745 138.167L513.034 137.363Z" fill="#F0BF97"/>
<path d="M512.051 35.3114C512.048 35.7035 512.124 36.0922 512.273 36.4549C512.422 36.8177 512.642 37.1472 512.92 37.4245C513.198 37.7018 513.529 37.9212 513.892 38.07C514.256 38.2189 514.646 38.2942 515.039 38.2916H517.004V45.2323L523.982 38.2916H546.843C547.234 38.2942 547.622 38.2195 547.985 38.0719C548.347 37.9242 548.677 37.7066 548.954 37.4314C549.232 37.1562 549.452 36.829 549.603 36.4685C549.753 36.108 549.831 35.7214 549.831 35.331V10.5287C549.831 9.73831 549.516 8.9803 548.955 8.4214C548.395 7.86251 547.635 7.54852 546.843 7.54852H515.039C514.246 7.54852 513.486 7.86251 512.926 8.4214C512.366 8.9803 512.051 9.73831 512.051 10.5287V35.3114Z" fill="#7EB3FF"/>
<path d="M543.872 16.4695H518.023V18.4497H543.872V16.4695Z" fill="white"/>
<path d="M543.872 21.4299H518.023V23.4102H543.872V21.4299Z" fill="white"/>
<path d="M543.872 26.3904H518.023V28.3706H543.872V26.3904Z" fill="white"/>
<path d="M386.11 118.325C384.793 124.646 384.134 131.085 384.145 137.54C384.538 145.382 388.784 173.263 388.784 173.263L390.946 180.223C390.946 180.223 398.71 179.243 399.398 176.792C400.086 174.341 403.624 144.912 403.624 144.912C403.624 144.912 422.907 160.715 422.907 155.401C422.907 150.088 417.305 118.914 417.305 118.914L386.11 118.325Z" fill="#0561FC"/>
<path d="M421.807 74.8381C424.805 79.0519 426.567 84.0144 426.898 89.1705C427.076 94.0604 426.879 98.9567 426.309 103.817L425.267 108.699C425.267 108.699 418.407 106.111 418.407 103.17C418.407 100.229 415.832 96.3073 416.048 90.8763C416.264 85.4453 419.743 74.1715 421.807 74.8381Z" fill="#FB665D"/>
<path d="M379.43 77.0144L395.292 70.7011C395.292 70.7011 394.722 70.2502 403.666 70.4462C409.936 70.5835 417.524 74.2499 418.192 73.5049C418.86 72.7598 421.809 74.8381 421.809 74.8381C421.809 74.8381 420.04 80.5044 418.703 84.2492C417.389 89.675 416.625 95.2189 416.423 100.797C416.187 106.111 419.45 115.679 420.924 118.031C422.399 120.384 423.873 121.266 418.113 121.345C412.354 121.423 391.774 120.6 389.71 120.306C388.223 120.015 386.799 119.464 385.504 118.678C385.504 118.678 386.899 106.699 387.056 103.228C387.214 99.758 379.43 77.0144 379.43 77.0144Z" fill="#FB665D"/>
<path d="M376.441 106.699C376.441 106.699 376.441 86.857 376.952 84.8375C377.169 83.8768 379.449 76.9949 379.449 76.9949C379.449 76.9949 384.992 81.3279 385.582 85.2296C385.982 89.7605 385.909 94.3206 385.365 98.8366C385.071 100.072 376.441 106.699 376.441 106.699Z" fill="#FB665D"/>
<path d="M384.478 97.8562C385.951 98.3927 387.162 99.4737 387.859 100.876C388.64 102.659 388.996 104.598 388.9 106.542C388.922 107.213 388.747 107.876 388.398 108.45C388.049 109.024 387.541 109.485 386.935 109.777C386.935 109.777 382.473 110.698 381.038 110.953C380.415 110.977 379.793 110.875 379.211 110.653C378.629 110.431 378.098 110.093 377.649 109.661C377.201 109.229 376.846 108.71 376.604 108.137C376.362 107.564 376.239 106.948 376.242 106.326C376.175 105.252 376.331 104.175 376.699 103.163C377.068 102.151 377.641 101.225 378.384 100.444C380.194 99.1353 382.277 98.2507 384.478 97.8562Z" fill="#FB665D"/>
<path d="M384.479 98.1503C383.874 99.3663 383.59 100.716 383.653 102.072C383.948 103.699 383.653 104.954 383.948 106.64C384.269 107.747 384.963 108.71 385.914 109.365C386.475 109.405 387.032 109.24 387.48 108.901C387.928 108.562 388.238 108.072 388.351 107.522C388.706 106.304 388.753 105.018 388.489 103.777L384.479 98.1503Z" fill="#FB665D"/>
<path d="M393.992 87.9353C393.992 87.9353 394.877 85.9747 395.172 85.3473C395.25 85.2284 395.361 85.135 395.492 85.0788C395.623 85.0226 395.768 85.0059 395.908 85.031C396.048 85.0561 396.178 85.1217 396.281 85.2198C396.385 85.3179 396.457 85.444 396.489 85.5826C396.574 85.8898 396.592 86.2117 396.541 86.5264C396.49 86.8411 396.371 87.1411 396.194 87.406C395.761 88.151 393.992 87.9353 393.992 87.9353Z" fill="#E9AB86"/>
<path d="M415.675 95.1505L419.213 99.5032C419.472 101.085 419.597 102.685 419.587 104.287C418.647 105.698 417.501 106.96 416.186 108.032C415.754 108.189 412.255 100.307 411.842 98.6797C411.429 97.0524 412.589 92.1311 415.675 95.1505Z" fill="#F0BF97"/>
<path d="M390.749 98.6013C390.151 100.532 389.435 102.424 388.606 104.268C387.943 105.635 387.045 106.876 385.952 107.934C385.658 108.169 384.242 105.071 384.242 102.797C384.242 100.523 383.653 98.7385 385.795 96.4642C387.938 94.1898 390.749 98.6013 390.749 98.6013Z" fill="#F0BF97"/>
<path d="M418.484 98.5228C418.484 98.5228 423.064 101.758 424.008 104.405C424.951 107.052 425.423 107.267 425.344 108.444C425.228 109.304 424.887 110.12 424.356 110.808C423.825 111.496 423.122 112.033 422.317 112.365C420.548 112.875 419.585 112.953 418.779 111.914L415.418 107.64C415.418 107.64 418.819 105.444 418.819 104.052C418.819 102.66 419.074 99.0718 418.484 98.5228Z" fill="#FB665D"/>
<path d="M406.572 93.8173C406.575 93.9795 406.545 94.1406 406.485 94.2915C406.425 94.4423 406.336 94.5799 406.223 94.6965C406.11 94.813 405.975 94.9061 405.826 94.9706C405.676 95.035 405.516 95.0695 405.353 95.0721H397.727C397.564 95.0695 397.403 95.035 397.254 94.9706C397.105 94.9061 396.97 94.813 396.857 94.6965C396.744 94.5799 396.654 94.4423 396.595 94.2915C396.535 94.1406 396.505 93.9795 396.508 93.8173V83.6611C396.505 83.4989 396.535 83.3377 396.595 83.1869C396.654 83.036 396.744 82.8984 396.857 82.7819C396.97 82.6653 397.105 82.5722 397.254 82.5077C397.403 82.4433 397.564 82.4088 397.727 82.4062H405.412C405.575 82.4088 405.735 82.4433 405.885 82.5077C406.034 82.5722 406.169 82.6653 406.282 82.7819C406.395 82.8984 406.484 83.036 406.544 83.1869C406.604 83.3377 406.634 83.4989 406.631 83.6611L406.572 93.8173Z" fill="#EAF4FE"/>
<path d="M391.043 88.8175L395.466 87.4059H398.788C398.827 87.5608 398.825 87.7231 398.784 87.8775C398.743 88.0318 398.663 88.1732 398.552 88.2882C397.129 88.7281 395.678 89.0687 394.208 89.3077L391.475 90.5625L391.043 88.8175Z" fill="#F0BF97"/>
<path d="M389.629 90.9548C389.845 90.8175 394.582 88.9941 394.582 88.9941L399.378 88.7784L400.184 89.0725C400.184 89.0725 400.341 89.2882 399.673 89.8764C398.294 90.3871 396.853 90.7103 395.388 90.8371C393.964 91.5055 392.585 92.2652 391.26 93.1115C391.26 93.1115 388.528 91.6018 389.629 90.9548Z" fill="#F0BF97"/>
<path d="M390.512 93.1898L395.092 91.7193C395.092 91.7193 399.751 91.8566 400.183 91.7193C400.616 91.5821 400.694 92.3664 400.34 92.6605C398.898 92.9133 397.44 93.064 395.977 93.1114C395.682 93.1114 392.733 94.6603 392.733 94.6603C392.733 94.6603 390.217 93.8957 390.512 93.1898Z" fill="#F0BF97"/>
<path d="M392.147 95.5035L396.078 94.6212L399.695 94.4055C399.695 94.4055 399.99 94.6212 399.184 95.2094C398.273 95.7003 397.301 96.0694 396.294 96.3073L393.346 97.1308C393.346 97.1308 390.751 95.9544 392.147 95.5035Z" fill="#F0BF97"/>
<path d="M385.797 96.4642C385.797 96.4642 390.298 89.5431 390.672 89.3274C391.045 89.1118 391.478 88.5236 391.635 89.3274C391.792 90.1313 393.6 92.1312 393.6 93.0135C393.6 93.8958 393.817 96.3074 393.817 96.9348C393.817 97.5622 391.615 98.8954 390.495 99.5228C389.895 99.8154 389.212 99.8873 388.564 99.7258C387.917 99.5644 387.347 99.18 386.957 98.6405C386.441 97.9911 386.048 97.2537 385.797 96.4642Z" fill="#F0BF97"/>
<path d="M411.33 90.6606L406.828 88.5235L400.931 86.8961C400.931 86.8961 400.715 87.7 401.816 88.2882C402.917 88.8764 406.691 90.3665 406.691 90.3665L408.833 91.6409L409.266 91.8958C409.266 91.8958 411.703 92.7193 411.33 90.6606Z" fill="#F0BF97"/>
<path d="M408.816 91.0135C408.816 91.0135 409.484 92.1899 409.268 92.4252C409.052 92.6605 408.442 92.4252 407.636 92.2684C406.831 92.1115 404.393 91.6018 404.393 91.6018L400.934 91.3861C401.298 91.8756 401.744 92.2999 402.251 92.6409C403.048 92.9297 403.862 93.1719 404.688 93.3663L408.383 94.6212C408.383 94.6212 411.116 95.1309 411.116 94.6212C411.116 94.1114 410.585 93.6016 410.88 93.1507C411.175 92.6997 411.705 91.3861 408.816 91.0135Z" fill="#F0BF97"/>
<path d="M406.907 95.1505L404.47 94.5623C404.47 94.5623 401.816 94.1898 401.816 94.5623V94.8564C401.816 94.8564 402.504 95.1897 403.428 95.523C403.782 95.6407 405.394 96.1504 405.728 96.2485C407.124 96.621 408.598 97.5033 408.814 97.5033C409.03 97.5033 411.173 96.3073 406.907 95.1505Z" fill="#F0BF97"/>
<path d="M412.511 90.4254L410.742 86.9746L406.457 84.1709C406.457 84.1709 406.241 85.0532 407.42 86.1315C408.6 87.2099 408.678 87.3668 408.894 87.4452C409.25 88.2718 409.52 89.1324 409.7 90.0136C409.7 90.0136 412.727 91.2292 412.511 90.4254Z" fill="#F0BF97"/>
<path d="M410.368 92.8566L411.115 89.9156C411.115 89.9156 412.294 89.4059 413.395 91.6018C414.114 93.0268 414.929 94.4024 415.832 95.7192C415.832 95.7192 415.97 97.3465 415.007 97.7975C413.829 98.515 412.447 98.8251 411.075 98.6798C409.804 98.2612 408.66 97.5256 407.753 96.5426C407.262 96.0329 408.323 95.7976 408.559 95.3662C408.795 94.9349 408.461 94.0918 408.775 93.8173C409.266 93.4353 409.801 93.1129 410.368 92.8566Z" fill="#F0BF97"/>
<path d="M396.528 237.318L396.351 252.003C396.351 252.003 390.69 258.395 388.645 259.434C386.601 260.473 386.876 259.551 387.033 259.042C387.191 258.532 390.631 254.807 391.201 252.767C391.771 250.728 390.866 238.141 391.004 237.514C391.142 236.886 396.528 237.318 396.528 237.318Z" fill="#F0BF97"/>
<path d="M427.211 244.513C428.369 248.124 429.327 251.796 430.081 255.512C430.376 258.316 429.904 259.238 430.769 260.081C431.634 260.924 437.727 267.629 439.083 267.551C439.256 267.548 439.427 267.511 439.585 267.441C439.743 267.371 439.885 267.27 440.003 267.143C440.121 267.017 440.211 266.868 440.269 266.705C440.328 266.543 440.352 266.37 440.341 266.198C438.242 264.022 436.371 261.637 434.759 259.081C433.953 257.12 433.108 245.729 433.029 244.572C432.951 243.415 427.211 244.513 427.211 244.513Z" fill="#F0BF97"/>
<path d="M403.349 134.05L400.99 187.439L397.491 239.023L389.628 239.357C389.628 239.357 389.373 187.242 388.764 182.811C388.154 178.38 382.867 142.226 387.8 133.344C392.734 124.462 403.349 134.05 403.349 134.05Z" fill="#0561FC"/>
<path d="M419.744 134.364C419.744 134.364 426.427 162.479 427.39 177.792C428.354 193.105 432.796 237.808 432.796 237.808L433.287 245.65L427.174 245.827L414.044 189.164L401.66 136.952L419.744 134.364Z" fill="#0561FC"/>
<path d="M396.51 251.297C396.814 251.86 396.931 252.506 396.844 253.14C396.706 253.905 395.999 256.159 395.999 256.159L394.485 256.806V255.767C393.212 257.185 391.825 258.497 390.338 259.689C388.981 260.571 386.112 262.806 384.441 262.237C384.308 262.179 384.19 262.09 384.098 261.977C384.005 261.865 383.941 261.732 383.91 261.59C383.91 261.59 386.524 258.904 386.937 258.532C387.35 258.159 388.274 258.904 389.375 258.277C391.182 256.96 392.884 255.504 394.466 253.924C395.232 253.118 395.917 252.238 396.51 251.297Z" fill="#161711"/>
<path d="M430.16 258.159C430.03 258.806 430.03 259.473 430.16 260.12C430.363 260.808 430.653 261.467 431.025 262.08L432.42 262.728C433.632 264.051 434.947 265.277 436.352 266.394C437.649 267.217 440.42 269.296 441.895 268.649C442.017 268.58 442.121 268.484 442.199 268.368C442.278 268.253 442.328 268.121 442.347 267.982C442.347 267.982 439.811 265.433 439.398 265.061C438.986 264.688 438.18 265.512 437.138 264.943C435.391 263.72 433.747 262.356 432.224 260.865C431.476 260.01 430.787 259.106 430.16 258.159Z" fill="#161711"/>
<path d="M388.371 75.6616C388.371 75.6616 377.659 74.995 378.012 69.3287C378.366 63.6624 383.811 61.4861 381.315 56.859C378.818 52.2318 374.612 48.6046 383.379 45.8597C392.145 43.1148 387.919 32.9978 393.993 32.8017C400.067 32.6057 400.519 37.4093 406.141 37.8014C411.763 38.1935 419.448 33.037 421.689 41.8992C423.93 50.7613 422.574 59.0941 418.996 59.5451C415.419 59.996 419.271 63.9565 419.9 66.9955C420.529 70.0346 422.2 79.9359 408.637 72.7403C395.074 65.5447 394.976 75.544 388.371 75.6616Z" fill="#202954"/>
<path d="M397.001 64.4467C397.457 65.1251 397.701 65.9236 397.701 66.7406C397.701 67.5576 397.457 68.3561 397.001 69.0346C395.349 71.4462 391.556 73.1716 396.824 75.4067C398.775 76.1908 400.922 76.3573 402.971 75.8839C405.021 75.4104 406.876 74.3198 408.283 72.7598C408.283 72.7598 403.703 70.7992 404.725 67.5445C405.748 64.2898 410.622 61.3488 406.082 62.3684C401.541 63.3879 396.234 62.1135 397.001 64.4467Z" fill="#F7B68B"/>
<path d="M401.779 70.9561C402.873 70.8337 403.923 70.4577 404.845 69.8581C404.66 69.5049 404.547 69.1183 404.514 68.7211C404.48 68.3238 404.526 67.9239 404.649 67.5445C405.671 64.3291 410.546 61.3489 406.005 62.3684C401.465 63.388 396.177 62.1135 397.003 64.4467C397.459 65.1252 397.703 65.9237 397.703 66.7407C397.703 67.5577 397.459 68.3562 397.003 69.0346L396.609 69.564C398.241 71.1718 399.047 71.1522 401.779 70.9561Z" fill="#EC9568"/>
<path d="M393.107 42.8207C393.107 42.8207 386.247 53.3102 392.773 60.2509C399.299 67.1916 398.67 67.3877 403.093 67.0348C407.516 66.6818 411.683 60.9959 412.685 55.2708C413.688 49.5457 410.72 50.6829 404.724 48.2517C398.729 45.8205 397.864 45.3303 397.864 45.3303C397.864 45.3303 398.533 47.6047 402.484 49.2516C406.434 50.8986 395.761 52.173 393.107 42.8207Z" fill="#F7B68B"/>
</g>
<defs>
<clipPath id="clip0_158_3919">
<rect width="603" height="294" fill="white"/>
</clipPath>
<clipPath id="clip1_158_3919">
<rect width="12" height="12" fill="white" transform="translate(358 31)"/>
</clipPath>
<clipPath id="clip2_158_3919">
<rect width="12" height="12" fill="white" transform="translate(291 24)"/>
</clipPath>
<clipPath id="clip3_158_3919">
<rect width="12" height="12" fill="white" transform="translate(171 20)"/>
</clipPath>
<clipPath id="clip4_158_3919">
<rect width="12" height="12" fill="white" transform="translate(233 16)"/>
</clipPath>
</defs>
</svg>
