<svg width="181" height="390" viewBox="0 0 181 390" fill="none" xmlns="http://www.w3.org/2000/svg">
<path opacity="0.2" d="M114.771 389.995C151.346 389.995 180.995 385.656 180.995 380.304C180.995 374.951 151.346 370.612 114.771 370.612C78.197 370.612 48.5475 374.951 48.5475 380.304C48.5475 385.656 78.197 389.995 114.771 389.995Z" fill="#8CB6F4"/>
<path d="M48.2887 161.664L107.08 163.151C107.08 163.151 75.9871 229.021 68.6247 236.217L119.747 270.846V302.777C119.747 302.777 22.6521 267.698 27.7408 239.365C32.8295 211.032 48.2887 161.664 48.2887 161.664Z" fill="#003177"/>
<path d="M126.841 268.866L134.966 272.956L127.882 295.173L113.858 293.381L110.93 266.506L126.841 268.866Z" fill="#F6AD83"/>
<path d="M124.342 206.138C124.342 206.138 143.223 199.102 142.611 195.997C141.999 192.891 125.768 194.725 125.768 194.725L124.342 206.138Z" fill="#002756"/>
<path d="M128.046 294.657L133.535 277.45L133.841 272.394L126.841 268.866L110.93 266.521L111.053 267.632C115.831 270.447 120.962 270.147 123.763 271C128.88 272.558 129.614 275.274 129.614 275.274C129.614 275.274 128.268 284.027 123.763 287.254C120.9 289.3 120.618 292.335 120.792 294.291L126.483 295.018L128.046 294.657Z" fill="#F4A076"/>
<path opacity="0.8" d="M119.742 270.845L68.6199 236.217C74.9279 230.053 98.6579 180.808 105.338 166.838L82.7893 169.061C82.7893 169.061 80.9063 194.28 55.1191 236.048C54.9789 236.276 54.8868 236.53 54.8486 236.795C54.8104 237.06 54.8269 237.33 54.8969 237.588C54.967 237.846 55.0892 238.087 55.2561 238.297C55.423 238.506 55.6311 238.68 55.8676 238.806L59.9536 240.974C80.079 251.661 99.041 264.394 116.537 278.97L119.757 281.653L119.742 270.845Z" fill="#002756"/>
<path d="M126.526 286.79C125.253 288.001 124.385 289.573 124.04 291.293C123.73 292.888 123.57 294.76 124.092 296.167C125.194 299.174 129.04 297.429 135.155 311.896C137.108 316.512 134.957 320.541 137.315 323.262C142.465 329.21 149.225 324.58 152.727 313.472C157.19 299.329 150.016 290.805 150.063 284.046C150.181 268.472 142.653 271.225 139.9 271.099C135.477 270.837 131.098 270.088 126.841 268.866C126.841 268.866 130.607 271.68 130.711 275.381C130.781 278.473 129.407 284.008 126.526 286.79Z" fill="#3838BA"/>
<path d="M142.046 271C143.524 272.17 144.796 273.576 145.812 275.161C147.672 278.407 147.158 285.331 147.653 288.694C148.147 292.058 150.538 302.247 150.797 307.721C151.056 313.195 145.817 320.335 142.588 323.496C141.59 324.472 140.191 324.725 138.742 324.613C143.656 328.319 149.54 323.576 152.727 313.472C157.19 299.329 150.016 290.805 150.063 284.046C150.157 271.61 145.374 270.859 142.046 271Z" fill="#003177"/>
<path d="M135.559 313.036C136.468 311.727 137.473 310.488 138.567 309.33C138.646 309.25 138.705 309.153 138.738 309.046C138.771 308.939 138.777 308.825 138.756 308.715C138.731 308.574 138.662 308.444 138.558 308.345C138.493 308.28 138.416 308.228 138.331 308.193C138.247 308.158 138.156 308.14 138.064 308.14C137.972 308.14 137.881 308.158 137.796 308.193C137.711 308.228 137.634 308.28 137.569 308.345C136.636 309.32 135.766 310.354 134.966 311.441C135.032 311.591 135.093 311.731 135.154 311.882C135.313 312.257 135.449 312.643 135.559 313.036Z" fill="#003177"/>
<path d="M133.493 308.167C134.61 306.311 135.924 304.581 137.414 303.007C137.492 302.927 137.55 302.829 137.582 302.722C137.614 302.615 137.619 302.502 137.598 302.392C137.573 302.252 137.504 302.124 137.4 302.026C137.335 301.961 137.258 301.91 137.173 301.875C137.089 301.839 136.998 301.821 136.906 301.821C136.814 301.821 136.723 301.839 136.638 301.875C136.553 301.91 136.476 301.961 136.411 302.026C135.046 303.459 133.82 305.017 132.749 306.68C132.966 307.182 133.215 307.67 133.493 308.167Z" fill="#003177"/>
<path d="M130.541 303.072C132.104 299.615 135.249 296.397 135.282 296.36C135.361 296.279 135.419 296.181 135.452 296.073C135.485 295.965 135.491 295.851 135.47 295.74C135.444 295.601 135.375 295.472 135.272 295.374C135.141 295.244 134.963 295.171 134.778 295.171C134.593 295.171 134.415 295.244 134.284 295.374C132.442 297.292 130.869 299.449 129.609 301.787C129.91 302.176 130.221 302.598 130.541 303.072Z" fill="#003177"/>
<path d="M80.9587 165.233L78.9816 165.371C77.8896 165.448 77.0664 166.391 77.1429 167.479L78.655 189.006C78.7315 190.094 79.6786 190.915 80.7705 190.838L82.7476 190.701C83.8396 190.624 84.6628 189.681 84.5864 188.592L83.0742 167.066C82.9978 165.978 82.0506 165.157 80.9587 165.233Z" fill="#002756"/>
<path d="M80.9769 188.411C80.9088 188.434 80.8363 188.442 80.7649 188.432C80.6935 188.423 80.6252 188.398 80.5653 188.358C80.5053 188.319 80.4552 188.266 80.4189 188.204C80.3826 188.142 80.361 188.073 80.3558 188.001C80.3506 187.93 80.3619 187.858 80.3889 187.791C80.4158 187.725 80.4577 187.666 80.5114 187.618C80.565 187.57 80.6289 187.535 80.6982 187.516C80.7674 187.496 80.8402 187.493 80.911 187.506C81.1104 187.492 81.3052 187.44 81.4841 187.351C81.6631 187.262 81.8227 187.139 81.9539 186.989C82.0851 186.838 82.1852 186.664 82.2486 186.475C82.312 186.286 82.3373 186.086 82.3232 185.888L81.0475 168.268C81.0665 168.166 81.1189 168.074 81.1965 168.004C81.274 167.935 81.3725 167.894 81.4763 167.886C81.5802 167.878 81.6836 167.906 81.7704 167.963C81.8572 168.02 81.9225 168.105 81.956 168.203L83.2365 185.822C83.2589 186.14 83.2182 186.459 83.1168 186.761C83.0153 187.063 82.8551 187.343 82.6452 187.583C82.4354 187.824 82.18 188.021 81.8938 188.163C81.6075 188.305 81.296 188.389 80.9769 188.411Z" fill="#003177"/>
<path d="M83.4106 164.413C83.4106 164.413 87.0683 246.56 90.9425 252.856C90.9425 252.856 91.0931 282.54 92.8019 302.026C94.5107 321.512 97.8153 351.792 97.8153 351.792H120.981C120.981 351.792 124.393 301.13 124.342 295.43C124.29 289.731 123.089 258.555 122.487 254.657C121.884 250.759 131.69 208.385 128.785 190.199C125.881 172.012 122.798 162.311 122.798 162.311L83.4106 164.413Z" fill="#003177"/>
<path d="M67.2265 65.6451C63.0228 65.6451 59.2239 64.8335 52.8313 70.8473C46.4386 76.8611 7.96963 108.412 4.98043 134.602C1.99122 160.791 46.0338 116.556 52.0969 109.796C58.1601 103.037 80.9251 65.6451 67.2265 65.6451Z" fill="#554EDD"/>
<path opacity="0.8" d="M124.342 295.43C124.29 289.736 123.089 258.555 122.487 254.657C121.884 250.759 131.69 208.385 128.785 190.199C127.609 182.848 126.403 176.886 125.387 172.373L112.964 174.587C112.964 174.587 117.751 219.109 117.718 253.287C117.685 287.465 119.107 301.407 117.718 325.692C116.33 349.977 120.99 351.773 120.99 351.773C120.99 351.773 124.393 301.13 124.342 295.43Z" fill="#002756"/>
<path d="M68.7047 66.5455C55.6369 62.1688 50.5482 77.0297 47.1212 96.9428C45.7655 104.795 44.4333 107.732 40.7803 113.732C37.1274 119.731 26.7052 126.707 27.8255 126.552C34.7078 125.614 50.3129 117.681 51.791 116.03C57.3269 109.857 74.589 76.8655 68.7047 66.5455Z" fill="#3838BA"/>
<path d="M42.0325 204.361C38.0453 204.178 34.397 202.452 32.307 199.754L31.6291 198.868C31.6291 198.868 36.1482 193.285 42.6068 191.747C49.0653 190.208 42.0325 204.361 42.0325 204.361Z" fill="#002756"/>
<path d="M125.857 161.664H48.2792V172.008H125.857V161.664Z" fill="#002756"/>
<path d="M60.5279 67.5872C73.2709 61.7047 83.1235 60.2224 88.6265 59.0215C97.5705 57.0654 110.417 61.3013 116.4 63.6655C116.4 63.6655 120.209 114.661 121.804 133.171C123.127 148.501 125.674 167.11 125.674 167.11L103.695 164.235C86.7981 162.027 69.6492 162.661 52.9631 166.111L51.5509 166.406C51.5509 166.406 45.6572 124.23 47.5354 110.261C48.5334 102.807 51.452 71.7762 60.5279 67.5872Z" fill="#CAE0FF"/>
<path d="M67.3301 62.7036C67.5608 63.0789 70.8701 63.4354 61.8931 65.9873C52.916 68.5391 48.7829 95.4886 47.4837 108.332C45.8926 124.08 31.6809 198.567 31.6809 198.567L37.4239 197.54C41.6545 196.781 45.9788 196.69 50.2375 197.273L60.5656 198.868C60.5656 198.868 69.3873 155.171 70.051 142.637C70.7148 130.103 73.3462 98.5424 71.7504 88.7899C70.8277 83.1796 67.3301 62.7036 67.3301 62.7036Z" fill="#554EDD"/>
<path d="M67.3301 112.812C66.1297 132.8 56.4654 186.46 54.3659 197.962L60.8245 198.868C60.8245 198.868 69.6462 155.172 70.3052 142.637C70.9642 130.103 73.3321 98.5426 71.7174 88.7901C71.3832 86.7542 70.5829 82.7294 69.7074 78.4419L67.3537 79.6897C67.3537 79.6897 68.6812 90.3709 67.3301 112.812Z" fill="#3838BA"/>
<path d="M98.8839 57.7455C98.8839 57.6939 98.8839 57.6376 98.8839 57.586L98.3049 35.5386L71.8869 54.2179L72.8283 64.3785C70.1639 69.8059 70.1028 75.1676 73.1532 77.9118C77.3898 81.7537 86.1032 79.1033 92.5759 71.9919C96.7749 67.3619 99.0063 61.9908 98.8839 57.7455Z" fill="#F6AD83"/>
<path d="M72.1175 85.9192C71.7692 84.085 71.3126 81.8146 70.8277 79.4128L68.281 77.771C68.281 77.771 67.6125 79.5582 64.5527 79.455C64.3927 79.455 61.3564 86.0927 61.3564 86.0927C61.3564 86.0927 64.6939 81.9178 67.4525 82.2696C69.3919 82.5323 71.0019 84.7652 72.1175 85.9192Z" fill="#003177"/>
<path d="M88.8054 13.1534C88.8054 13.1534 89.5538 9.55543 92.0205 8.69698C95.4287 7.51018 102.198 11.9806 104.999 19.2657C108.44 28.2254 105.973 36.7676 101.082 42.134C90.6789 53.5564 95.8712 34.1219 94.2989 26.5929C93.3017 21.8179 91.4402 17.2637 88.8054 13.1534Z" fill="#003177"/>
<path d="M98.7851 21.3999C98.0639 21.4662 97.3624 21.67 96.7185 22.0003C93.2633 11.3472 84.3804 4.09033 74.6784 4.94408C62.9993 5.97609 54.5589 18.3696 55.8252 32.6206C57.0915 46.8717 67.5467 61.545 79.2681 56.5444C89.1537 52.346 97.9613 45.0938 98.2343 32.3579C99.0175 32.5077 99.8239 32.4883 100.599 32.301C101.374 32.1136 102.1 31.7627 102.727 31.2719C103.354 30.7811 103.868 30.1619 104.235 29.4561C104.602 28.7503 104.812 27.9743 104.852 27.1806C104.891 26.3868 104.76 25.5938 104.466 24.8551C104.172 24.1164 103.722 23.4492 103.147 22.8986C102.572 22.3479 101.885 21.9267 101.132 21.6633C100.38 21.3999 99.5794 21.3005 98.7851 21.3717V21.3999Z" fill="#F6AD83"/>
<path d="M71.8492 74.3749C71.2232 71.6494 71.8492 68.1922 73.5486 64.7021L73.2144 61.1089C69.4767 62.6381 68.0645 62.5443 66.7135 63.9657C63.9361 66.8881 64.5716 70.092 63.889 73.9714C62.8346 79.8398 61.3705 86.0928 61.3705 86.0928L64.195 82.6309C64.2515 82.5558 64.3174 82.4855 64.3786 82.4151C64.8011 81.9859 65.3181 81.6607 65.8887 81.4653C66.4593 81.2698 67.0677 81.2095 67.6657 81.2892C68.2637 81.3689 68.8349 81.5863 69.3339 81.9242C69.8329 82.2622 70.2461 82.7113 70.5406 83.236L72.1552 86.0506C72.1552 86.0506 72.1176 77.7711 71.8492 74.3749Z" fill="#3838BA"/>
<path d="M87.6567 17.5394C90.4247 15.663 90.9754 9.82278 89.9351 7.21931C88.5841 3.79492 83.9331 -1.24783 75.2103 0.318939C66.4875 1.88571 62.2131 7.82444 57.6046 9.73835C52.996 11.6522 48.3216 11.4177 47.2483 10.5686C46.175 9.71958 45.6289 11.2394 45.5489 12.6655C45.3371 16.2869 45.483 19.5518 46.6222 19.9646C46.8905 20.0631 38.4972 22.6994 41.4111 30.7537C43.0493 35.2946 49.1359 34.727 53.8857 31.6263C57.388 29.3418 58.0612 26.1191 64.0584 23.3702C72.8754 19.3266 81.4617 21.7284 87.6567 17.5394Z" fill="#003177"/>
<path d="M96.4784 15.865C96.0971 10.7425 92.962 10.4329 91.1732 10.5267C90.2317 10.5736 89.2526 11.0239 88.5041 12.3045C86.4187 15.8931 93.5975 21.7662 92.8726 29.0277C92.1476 36.2893 85.948 38.5269 83.3071 39.4135C80.6662 40.3001 74.7208 40.4408 70.2064 41.5526C65.692 42.6643 60.7586 43.2178 59.4547 45.3053C57.4399 48.5327 61.9731 63.1825 69.9475 65.4763C80.2332 68.4176 103.78 50.3434 98.7286 33.456L96.4784 15.865Z" fill="#003177"/>
<path d="M100.706 57.7969C100.706 57.7969 116.108 63.0601 126.036 67.1788C127.712 67.8777 127.227 131.703 129.962 145.048C132.697 158.394 142.616 195.973 142.616 195.973C142.616 195.973 129.576 195.762 119.051 197.08C108.525 198.398 93.4139 198.628 92.802 196.982C85.0065 175.905 86.8612 122.035 88.5935 84.1271C88.7583 80.6089 96.7044 73.8352 98.5497 69.8385C101.996 62.3612 100.706 57.7969 100.706 57.7969Z" fill="#554EDD"/>
<path opacity="0.3" d="M142.616 195.964C142.616 195.964 132.697 158.375 129.962 145.039C127.227 131.703 127.712 67.8824 126.036 67.1693C122.84 65.8418 120.722 63.8857 116.438 63.4166C115.243 63.2843 114.034 63.4035 112.888 63.7663C111.742 64.1291 110.685 64.7275 109.786 65.5228C102.207 72.259 99.4582 89.3012 118.344 127.809C123.97 139.288 125.876 151.315 127.689 157.742C132.396 174.306 136.27 184.368 135.051 187.544C133.832 190.719 129.807 192.108 120.642 193.238C116.697 193.707 105.338 195.542 97.6694 195.584C97.6694 195.584 92.5948 196.428 92.8019 196.991C93.4139 198.638 108.525 198.398 119.05 197.09C129.576 195.781 142.616 195.964 142.616 195.964Z" fill="#003177"/>
<path d="M93.7999 140.006C93.3292 109.843 94.9673 74.8018 94.9673 74.8018C92.0958 78.1839 88.7018 81.8382 88.5935 84.1367C86.8612 122.044 85.0159 175.915 92.8019 196.982C93.0703 197.704 96.1583 198.07 100.428 198.136C98.9969 190.645 94.1859 163.826 93.7999 140.006Z" fill="#3838BA"/>
<path d="M92.9432 94.016C92.9337 94.2848 92.8445 94.5448 92.6868 94.7631C92.5291 94.9814 92.3099 95.1482 92.0571 95.2424C91.8043 95.3367 91.5291 95.3541 91.2663 95.2925C91.0036 95.2309 90.765 95.0931 90.5808 94.8965C90.3967 94.6998 90.2751 94.4532 90.2316 94.1877C90.188 93.9223 90.2244 93.6499 90.3362 93.4051C90.448 93.1602 90.63 92.9539 90.8595 92.8121C91.0889 92.6704 91.3553 92.5996 91.6251 92.6087C91.9868 92.6221 92.3285 92.7777 92.5754 93.0414C92.8224 93.3051 92.9546 93.6555 92.9432 94.016Z" fill="#003177"/>
<path d="M92.303 107.601C92.2935 107.87 92.2043 108.13 92.0466 108.348C91.8888 108.566 91.6697 108.733 91.4169 108.827C91.1641 108.922 90.8889 108.939 90.6261 108.877C90.3634 108.816 90.1248 108.678 89.9406 108.481C89.7565 108.285 89.6349 108.038 89.5914 107.773C89.5478 107.507 89.5842 107.235 89.696 106.99C89.8077 106.745 89.9898 106.539 90.2192 106.397C90.4487 106.255 90.7151 106.185 90.9849 106.194C91.1642 106.2 91.3405 106.241 91.5038 106.315C91.6672 106.389 91.8142 106.494 91.9366 106.625C92.0591 106.756 92.1544 106.909 92.2173 107.077C92.2801 107.244 92.3092 107.422 92.303 107.601Z" fill="#003177"/>
<path d="M92.303 120.604C92.2935 120.873 92.2043 121.133 92.0466 121.351C91.8888 121.569 91.6697 121.736 91.4169 121.83C91.1641 121.925 90.8889 121.942 90.6261 121.88C90.3634 121.819 90.1248 121.681 89.9406 121.484C89.7565 121.288 89.6349 121.041 89.5914 120.776C89.5478 120.51 89.5842 120.238 89.696 119.993C89.8077 119.748 89.9898 119.542 90.2192 119.4C90.4487 119.258 90.7151 119.187 90.9849 119.197C91.1642 119.203 91.3405 119.244 91.5038 119.318C91.6672 119.392 91.8142 119.497 91.9366 119.628C92.0591 119.759 92.1544 119.912 92.2173 120.08C92.2801 120.247 92.3092 120.425 92.303 120.604Z" fill="#003177"/>
<path d="M92.2888 136.258C92.3286 136.524 92.2884 136.796 92.1732 137.039C92.058 137.282 91.8731 137.486 91.6417 137.624C91.4103 137.763 91.143 137.83 90.8733 137.817C90.6037 137.804 90.344 137.712 90.127 137.552C89.9099 137.392 89.7453 137.172 89.654 136.919C89.5626 136.666 89.5486 136.391 89.6137 136.13C89.6789 135.869 89.8202 135.633 90.0198 135.452C90.2194 135.271 90.4684 135.153 90.7354 135.113C91.0935 135.061 91.458 135.152 91.749 135.366C92.0401 135.581 92.2342 135.901 92.2888 136.258Z" fill="#003177"/>
<path d="M92.929 160.941C92.9688 161.207 92.9286 161.479 92.8134 161.722C92.6982 161.966 92.5133 162.17 92.2819 162.308C92.0505 162.447 91.7832 162.514 91.5135 162.501C91.2439 162.488 90.9842 162.396 90.7672 162.236C90.5501 162.076 90.3855 161.855 90.2942 161.602C90.2028 161.349 90.1888 161.075 90.2539 160.814C90.319 160.553 90.4604 160.317 90.66 160.136C90.8596 159.955 91.1086 159.837 91.3756 159.797C91.7337 159.744 92.0982 159.835 92.3892 160.05C92.6803 160.264 92.8744 160.585 92.929 160.941Z" fill="#003177"/>
<path d="M94.2942 176.055C94.334 176.322 94.2938 176.593 94.1786 176.837C94.0634 177.08 93.8784 177.284 93.6471 177.422C93.4157 177.561 93.1483 177.628 92.8787 177.615C92.6091 177.602 92.3494 177.51 92.1323 177.35C91.9153 177.19 91.7507 176.97 91.6594 176.716C91.568 176.463 91.554 176.189 91.6191 175.928C91.6842 175.667 91.8255 175.431 92.0252 175.25C92.2248 175.069 92.4738 174.951 92.7407 174.911C93.0987 174.86 93.4625 174.951 93.7533 175.165C94.0441 175.38 94.2384 175.699 94.2942 176.055Z" fill="#003177"/>
<path d="M57.6705 118.315C57.6705 118.315 54.2906 111.344 49.2442 113.366C47.7254 113.985 46.3084 114.828 45.0405 115.866C39.2645 119.291 29.4119 125.103 27.8773 125.792C20.4301 129.118 8.95818 137.05 8.47802 144.978C8.00728 152.615 9.669 154.515 15.2567 154.801C32.0998 155.659 44.2638 135.521 47.799 131.126C49.2113 129.371 49.7197 126.191 49.8326 123.001L57.6705 118.315Z" fill="#F6AD83"/>
<path d="M15.2567 154.801C31.0407 155.603 42.7104 137.979 47.0271 132.134L46.4716 130.497C46.4716 130.497 36.4307 143.285 22.8686 149.022C14.513 152.554 8.14384 150.049 7.33417 149.392C7.68252 153.834 10.7706 154.571 15.2567 154.801Z" fill="#F4A076"/>
<path d="M65.273 150.898L52.0122 152.428C51.1623 152.497 50.3142 152.274 49.6092 151.796C48.9042 151.318 48.3849 150.614 48.138 149.801L40.5261 122.593C40.4052 122.229 40.3688 121.842 40.4197 121.461C40.4706 121.081 40.6075 120.716 40.82 120.396C41.0325 120.076 41.3152 119.808 41.6467 119.613C41.9782 119.417 42.3499 119.299 42.7339 119.267L55.9947 117.715C56.8441 117.644 57.6921 117.866 58.3973 118.343C59.1024 118.82 59.6218 119.524 59.8689 120.337L67.4807 147.568C67.6035 147.933 67.6413 148.32 67.5912 148.702C67.5411 149.083 67.4045 149.448 67.1917 149.769C66.9789 150.09 66.6955 150.359 66.3631 150.555C66.0306 150.75 65.6578 150.868 65.273 150.898Z" fill="#003177"/>
<path d="M67.4807 147.577L59.8689 120.346C59.6755 119.723 59.3225 119.161 58.8445 118.715C58.3665 118.269 57.7802 117.955 57.1433 117.804C57.7361 118.261 58.1693 118.893 58.3813 119.61L65.9932 146.817C66.1142 147.181 66.1507 147.568 66.0998 147.949C66.0488 148.329 65.9119 148.693 65.6993 149.012C65.4867 149.332 65.2039 149.6 64.8724 149.795C64.5408 149.99 64.1692 150.107 63.7854 150.138L50.5246 151.663C50.1398 151.701 49.7512 151.672 49.376 151.578C49.7398 151.881 50.1598 152.11 50.6121 152.25C51.0644 152.391 51.5402 152.442 52.0122 152.399L65.273 150.875C65.654 150.843 66.0228 150.726 66.3521 150.532C66.6814 150.339 66.9626 150.073 67.1748 149.756C67.387 149.44 67.5247 149.079 67.5776 148.702C67.6306 148.324 67.5975 147.94 67.4807 147.577Z" fill="black"/>
<path d="M69.3354 136.633L66.6758 136.023C66.6353 136.014 66.597 135.997 66.5631 135.973C66.5293 135.949 66.5005 135.919 66.4784 135.884C66.4563 135.849 66.4414 135.809 66.4345 135.769C66.4276 135.728 66.4288 135.686 66.438 135.646C66.4473 135.605 66.4645 135.567 66.4885 135.533C66.5126 135.5 66.5431 135.471 66.5783 135.449C66.6135 135.427 66.6527 135.412 66.6936 135.405C66.7346 135.398 66.7765 135.4 66.817 135.409L69.472 136.009C69.5124 136.018 69.5506 136.035 69.5844 136.059C69.6182 136.082 69.6469 136.113 69.6688 136.148C69.6907 136.183 69.7055 136.221 69.7121 136.262C69.7187 136.303 69.7171 136.344 69.7073 136.385C69.6994 136.425 69.6835 136.464 69.6605 136.499C69.6376 136.533 69.6079 136.563 69.5733 136.586C69.5388 136.609 69.5 136.625 69.4591 136.633C69.4183 136.641 69.3763 136.641 69.3354 136.633Z" fill="#003177"/>
<path d="M71.6703 94.5973H68.94C68.8986 94.5973 68.8576 94.5892 68.8193 94.5734C68.7811 94.5576 68.7463 94.5345 68.717 94.5053C68.6877 94.4761 68.6645 94.4414 68.6486 94.4033C68.6328 94.3652 68.6246 94.3243 68.6246 94.283C68.6246 94.2418 68.6328 94.2009 68.6486 94.1628C68.6645 94.1246 68.6877 94.09 68.717 94.0608C68.7463 94.0316 68.7811 94.0085 68.8193 93.9927C68.8576 93.9769 68.8986 93.9687 68.94 93.9688H71.6703C71.7117 93.9687 71.7528 93.9769 71.791 93.9927C71.8293 94.0085 71.8641 94.0316 71.8933 94.0608C71.9226 94.09 71.9459 94.1246 71.9617 94.1628C71.9776 94.2009 71.9857 94.2418 71.9857 94.283C71.9857 94.3243 71.9776 94.3652 71.9617 94.4033C71.9459 94.4414 71.9226 94.4761 71.8933 94.5053C71.8641 94.5345 71.8293 94.5576 71.791 94.5734C71.7528 94.5892 71.7117 94.5973 71.6703 94.5973Z" fill="#003177"/>
<path d="M71.2608 107.934L68.5305 107.803C68.4891 107.801 68.4484 107.791 68.4108 107.773C68.3733 107.756 68.3395 107.731 68.3115 107.701C68.2835 107.67 68.2619 107.634 68.2477 107.596C68.2336 107.557 68.2273 107.515 68.2292 107.474C68.231 107.432 68.2411 107.391 68.2589 107.353C68.2767 107.315 68.3018 107.281 68.3329 107.253C68.3639 107.224 68.4003 107.202 68.4398 107.188C68.4794 107.174 68.5214 107.167 68.5634 107.169L71.289 107.301C71.3731 107.304 71.4524 107.341 71.5096 107.402C71.5669 107.464 71.5976 107.545 71.595 107.629C71.5902 107.713 71.5525 107.792 71.4901 107.849C71.4277 107.906 71.3454 107.936 71.2608 107.934Z" fill="#003177"/>
<path d="M71.0772 120.553L68.3469 120.426C68.305 120.424 68.264 120.414 68.2261 120.396C68.1882 120.378 68.1542 120.353 68.1262 120.322C68.0981 120.291 68.0766 120.255 68.0627 120.216C68.0489 120.176 68.0431 120.134 68.0456 120.093C68.0468 120.051 68.0564 120.01 68.0737 119.973C68.091 119.935 68.1158 119.901 68.1465 119.873C68.1773 119.845 68.2134 119.824 68.2526 119.81C68.2919 119.796 68.3336 119.79 68.3752 119.793L71.1055 119.924C71.1891 119.928 71.2678 119.964 71.3243 120.026C71.3808 120.088 71.4105 120.169 71.4067 120.252C71.403 120.336 71.3662 120.414 71.3044 120.47C71.2426 120.527 71.1609 120.556 71.0772 120.553Z" fill="#003177"/>
<path d="M66.1062 160.904L63.4182 160.402C63.336 160.385 63.2636 160.337 63.2162 160.268C63.1688 160.199 63.1501 160.114 63.164 160.031C63.18 159.949 63.2281 159.876 63.2977 159.829C63.3673 159.781 63.453 159.763 63.5359 159.778L66.2192 160.275C66.3019 160.29 66.3754 160.337 66.4239 160.405C66.4723 160.474 66.4918 160.559 66.4781 160.641C66.4718 160.683 66.4571 160.724 66.4349 160.76C66.4126 160.796 66.3832 160.827 66.3484 160.852C66.3137 160.876 66.2743 160.894 66.2327 160.903C66.191 160.912 66.148 160.912 66.1062 160.904Z" fill="#003177"/>
<path d="M63.503 176.018L60.8151 175.525C60.7705 175.522 60.7273 175.509 60.6881 175.487C60.649 175.465 60.6148 175.436 60.5877 175.401C60.5607 175.365 60.5414 175.324 60.5311 175.281C60.5209 175.238 60.5198 175.193 60.5281 175.149C60.5364 175.105 60.5537 175.063 60.5791 175.027C60.6045 174.99 60.6373 174.959 60.6754 174.936C60.7135 174.912 60.7561 174.897 60.8004 174.891C60.8448 174.886 60.8898 174.889 60.9327 174.902L63.616 175.399C63.6571 175.406 63.6964 175.42 63.7316 175.443C63.7668 175.465 63.7972 175.494 63.8209 175.528C63.8446 175.562 63.8612 175.601 63.8697 175.641C63.8781 175.682 63.8783 175.724 63.8702 175.765C63.8628 175.805 63.8474 175.844 63.825 175.879C63.8025 175.914 63.7734 175.944 63.7393 175.967C63.7052 175.991 63.6668 176.007 63.6262 176.016C63.5857 176.025 63.5438 176.025 63.503 176.018Z" fill="#003177"/>
<path d="M23.5794 124.282C23.556 124.168 23.5092 124.06 23.442 123.965C23.3747 123.869 23.2884 123.789 23.1885 123.729C23.0886 123.668 22.9772 123.629 22.8614 123.614C22.7456 123.598 22.6278 123.607 22.5155 123.639C20.0818 124.348 13.2043 126.609 9.13708 130.549C2.88564 136.6 -0.414259 143.909 0.0423597 145.968C0.324804 147.253 1.20038 148.074 3.23869 149.041C5.17815 149.955 4.88158 152.793 7.1176 153.417C11.4013 154.632 8.71812 150.134 10.3422 143.829C11.6132 138.894 14.1081 135.01 17.441 132.35C19.9793 130.372 22.6745 128.603 25.5 127.059C25.6572 126.974 25.783 126.841 25.8593 126.679C25.9355 126.518 25.9583 126.337 25.9242 126.162C25.8901 125.986 25.801 125.827 25.6697 125.706C25.5384 125.584 25.3718 125.508 25.1941 125.487L24.3938 125.389C24.2174 125.366 24.0523 125.29 23.9215 125.17C23.7908 125.049 23.7008 124.892 23.6642 124.718L23.5794 124.282Z" fill="#3838BA"/>
<path d="M119.794 62.9667C108.887 62.6008 106.472 77.2225 107.188 88.1946C107.842 98.2004 118.255 119.966 120.091 123.738C127.119 127.172 137.037 132.824 143.595 140.006C145.638 130.178 144.706 109.102 139.288 91.5674C132.735 70.3362 126.681 63.2012 119.794 62.9667Z" fill="#554EDD"/>
<path d="M143.595 140.006C145.638 130.178 144.706 109.102 139.288 91.5673C132.735 70.3501 126.681 63.2011 119.794 62.9525C118.551 62.8824 117.307 63.0585 116.133 63.4708C114.959 63.883 113.878 64.5232 112.954 65.3543C113.5 65.2651 125.664 60.6962 134.943 92.6837C139.368 107.939 141.575 132.805 140.653 134.71C141.933 135.85 142.479 138.786 143.595 140.006Z" fill="#3838BA"/>
<path d="M114.894 129.193L76.9756 141.756C75.2574 140.7 72.1505 138.941 69.7591 138.256C66.2756 137.295 61.7 135.681 61.4835 136.657C61.2669 137.632 61.427 140.076 62.4956 140.639C63.5642 141.202 64.2891 142.178 60.6644 142.516C57.0397 142.853 50.8353 142.112 50.3081 141.789C49.7809 141.465 46.3868 142.591 47.9214 145.072C49.456 147.554 53.9281 155.003 56.5501 155.814C59.1721 156.626 64.2467 157.466 68.2339 156.321C72.2211 155.176 74.523 153.145 75.4833 153.431C80.492 154.933 120.529 153.136 124.662 152.09C136.844 149.017 141.18 144.233 142.357 137.942C142.515 136.555 142.408 135.151 142.041 133.805C133.427 130.202 122.492 129.311 114.894 129.193Z" fill="#F6AD83"/>
<path d="M140.441 133.194C140.441 133.194 137.795 139.504 134.18 143.392C130.565 147.281 107.484 149.416 102.452 149.716C97.4199 150.016 75.0408 150.419 75.0408 150.419C75.0408 150.419 73.2332 150.537 69.2319 153.675C66.2474 156.02 57.4634 154.046 53.189 152.892C54.3941 154.374 55.5804 155.537 56.5313 155.828C59.1486 156.64 64.2279 157.479 68.2151 156.335C72.2023 155.19 74.5042 153.159 75.4645 153.445C80.4732 154.946 120.51 153.15 124.643 152.104C136.826 149.031 141.161 144.246 142.338 137.956C142.375 137.757 142.399 137.557 142.409 137.355L140.441 133.194Z" fill="#F4A076"/>
<path d="M57.4304 152.732C55.6199 152.411 53.8321 151.974 52.0781 151.423C52.2241 151.625 52.3747 151.827 52.5253 152.024C54.1148 152.511 55.7344 152.895 57.374 153.173C59.9065 153.492 63.0228 153.694 63.0793 153.694C63.1114 153.695 63.1434 153.691 63.1734 153.679C63.2034 153.668 63.2306 153.651 63.2535 153.628C63.2917 153.591 63.3137 153.54 63.3147 153.487C63.3173 153.458 63.3139 153.428 63.3048 153.4C63.2957 153.372 63.2811 153.346 63.2618 153.324C63.2425 153.302 63.2189 153.284 63.1924 153.271C63.1659 153.258 63.1371 153.25 63.1076 153.248C63.0746 153.248 59.9489 153.046 57.4304 152.732Z" fill="#F4A076"/>
<path d="M62.006 150.035C62.0614 150.029 62.113 150.004 62.152 149.964C62.1737 149.942 62.1905 149.916 62.201 149.887C62.2116 149.857 62.2157 149.826 62.2132 149.796C62.2095 149.737 62.1828 149.682 62.1388 149.642C62.0948 149.603 62.037 149.582 61.9778 149.584C61.9119 149.584 55.2415 149.983 50.9483 149.012C50.713 148.961 50.4776 148.904 50.2893 148.843L50.6612 149.401L50.8495 149.448C55.2038 150.433 61.9401 150.035 62.006 150.035Z" fill="#F4A076"/>
<path d="M50.6094 146.329C55.0438 146.897 61.7048 145.86 61.7754 145.86C61.8218 145.851 61.8644 145.828 61.8978 145.794C61.9226 145.769 61.9411 145.739 61.9517 145.706C61.9624 145.672 61.9649 145.637 61.959 145.602C61.955 145.573 61.9452 145.545 61.9301 145.52C61.915 145.495 61.895 145.473 61.8712 145.456C61.8474 145.439 61.8204 145.427 61.7918 145.421C61.7632 145.414 61.7336 145.414 61.7048 145.419C61.6389 145.419 55.0344 146.451 50.6706 145.888C49.1124 145.691 48.2651 145.297 47.8038 144.908C47.8367 144.964 47.865 145.025 47.9026 145.081C48.025 145.274 48.1615 145.499 48.3122 145.743C49.0444 146.051 49.8187 146.248 50.6094 146.329Z" fill="#F4A076"/>
<path d="M114.71 130.15C114.71 130.15 109.024 126.064 114.348 124.479C120.176 122.743 115.134 121.406 119.615 120.67C121.213 120.426 122.847 120.587 124.365 121.139C127.585 122.265 131.549 122.781 135.192 124.057C139.278 125.487 142.974 127.87 144.8 133.12C147.973 142.258 136.195 148.37 133.502 149.632C133.452 149.655 133.397 149.664 133.342 149.658C133.287 149.653 133.234 149.633 133.189 149.6C133.145 149.568 133.11 149.524 133.088 149.473C133.066 149.423 133.058 149.367 133.064 149.313C133.352 147.347 133.691 140.681 126.14 136.807C121.781 134.574 115.181 130.38 114.71 130.15Z" fill="#3838BA"/>
<path d="M122.939 127.096C124.417 128.035 128.635 128.072 127.03 126.777C125.424 125.483 119.436 121.735 117.488 122.049C117.488 122.724 117.488 123.541 114.343 124.479C113.843 124.612 113.366 124.823 112.931 125.103L112.168 125.98C112.128 126.075 112.098 126.174 112.079 126.275C112.517 125.906 113.027 125.632 113.578 125.47C114.128 125.309 114.706 125.263 115.275 125.337C117.554 125.727 121.461 126.158 122.939 127.096Z" fill="#003177"/>
<path opacity="0.5" d="M140.85 131.539C140.596 135.807 132.603 143.937 132.598 143.937C133.16 145.672 133.321 147.511 133.069 149.317C133.062 149.372 133.07 149.427 133.092 149.478C133.114 149.528 133.15 149.572 133.194 149.605C133.239 149.637 133.291 149.657 133.346 149.663C133.401 149.668 133.457 149.659 133.507 149.636C136.2 148.374 147.978 142.262 144.805 133.124C143.754 129.884 141.499 127.169 138.501 125.534C139.768 127.242 140.973 129.442 140.85 131.539Z" fill="#003177"/>
<path d="M22.1154 126.974C22.6238 126.411 23.9325 125.788 25.0293 125.44L24.3938 125.365C24.2174 125.343 24.0523 125.266 23.9216 125.146C23.7908 125.026 23.7009 124.868 23.6642 124.695L23.5794 124.258C23.5616 124.174 23.5298 124.093 23.4853 124.019C23.0195 124.255 22.578 124.537 22.1672 124.859C19.9359 126.594 21.2916 127.88 22.1154 126.974Z" fill="#003177"/>
<path opacity="0.5" d="M3.23872 149.017C5.17817 149.932 4.8816 152.77 7.11762 153.394C9.94207 154.2 9.73495 152.488 9.73495 149.411C8.60988 150.265 6.9105 150.762 6.47271 149.355C5.88428 147.417 3.32816 145.644 1.87357 144.603C1.31338 144.204 1.17216 142.909 1.20982 141.455C0.268337 143.5 -0.136498 145.133 0.0423836 145.944C0.324828 147.23 1.21453 148.051 3.23872 149.017Z" fill="#003177"/>
<path d="M88.5935 84.1271C88.5935 84.493 88.5605 84.8589 88.5464 85.2201C89.6573 84.2819 92.4771 82.0443 94.666 82.2695C98.5826 82.6729 99.6936 90.5865 99.6936 90.5865L99.4394 79.666L89.8456 81.1624C89.1113 82.2789 88.6358 83.2968 88.5935 84.1271Z" fill="#003177"/>
<path d="M105.159 61.1558C105.159 58.9323 102.866 57.8394 98.9498 54.5088L99.044 58.0551C99.044 58.1067 99.044 58.1583 99.044 58.2146C99.1569 62.1456 97.2081 67.0617 93.5128 71.4149C92.2677 73.1972 91.1357 75.0553 90.1234 76.9784C89.0093 79.1923 88.4811 81.653 88.5888 84.1274L90.3352 82.4058C91.1986 81.5376 92.349 81.0114 93.5725 80.9252C94.796 80.8389 96.0094 81.1983 96.9868 81.9367C97.5328 82.3549 97.9729 82.8947 98.2719 83.5129C98.3143 83.5973 98.3473 83.6817 98.3849 83.7662C98.4935 84.0529 98.5724 84.35 98.6203 84.6528L99.6795 90.6009C99.6795 90.6009 101.016 81.0126 102.824 73.4039C104.09 68.0938 105.159 64.7069 105.159 61.1558Z" fill="#3838BA"/>
<path d="M97.0621 341.899V353.744L112.258 358.707L121.367 352.491L121.767 339.91L97.0621 341.899Z" fill="#F6AD83"/>
<path d="M121.771 339.915L118.076 340.211C118.26 342.997 118.358 346.675 117.775 348.185C116.772 350.779 110.45 351.281 108.045 350.062C105.639 348.842 104.636 347.2 101.176 346.717C99.7963 346.564 98.3994 346.677 97.0621 347.05V353.711L112.258 358.674L121.371 352.463L121.771 339.915Z" fill="#F4A076"/>
<path d="M103.949 349.916C102.537 348.866 100.834 348.276 99.0722 348.227C97.4482 348.19 95.5699 348.349 94.2613 349.09C91.4698 350.676 93.8376 354.161 80.5486 362.591C76.3119 365.279 71.9622 363.839 69.665 366.611C64.6422 372.662 70.3523 378.531 81.9043 380.116C96.6385 382.138 103.874 373.661 110.572 372.583C125.999 370.096 122.016 363.158 121.682 360.433C121.203 356.044 121.21 351.615 121.705 347.228C121.705 347.228 119.568 351.417 115.911 352.121C112.888 352.73 107.183 352.285 103.949 349.916Z" fill="#3838BA"/>
<path d="M122.162 362.53C121.251 364.177 120.072 365.662 118.674 366.925C115.774 369.271 108.84 369.946 105.592 370.992C102.344 372.038 92.6654 376.091 87.2942 377.259C81.9231 378.427 73.977 374.478 70.3146 371.832C69.1801 371.016 68.6952 369.688 68.5681 368.243C65.7202 373.69 71.3926 378.681 81.9278 380.121C96.662 382.143 103.897 373.666 110.596 372.587C122.91 370.603 122.859 365.781 122.162 362.53Z" fill="#003177"/>
<path d="M79.4846 363.182C80.9343 363.854 82.3289 364.638 83.6554 365.527C83.7476 365.591 83.854 365.632 83.9656 365.646C84.0771 365.66 84.1904 365.646 84.2956 365.607C84.4309 365.56 84.5479 365.471 84.6298 365.354C84.7351 365.201 84.7754 365.013 84.7418 364.831C84.7083 364.649 84.6037 364.488 84.4509 364.383C83.3301 363.627 82.1601 362.947 80.9486 362.347L80.5485 362.605C80.2049 362.817 79.8497 363.009 79.4846 363.182Z" fill="#003177"/>
<path d="M83.9379 360.316C85.9552 361.104 87.8808 362.107 89.6809 363.309C89.7733 363.373 89.8797 363.413 89.9912 363.427C90.1027 363.441 90.2159 363.428 90.3211 363.389C90.4565 363.341 90.5734 363.253 90.6553 363.135C90.7606 362.983 90.8009 362.795 90.7674 362.613C90.7338 362.431 90.6292 362.269 90.4765 362.164C88.8324 361.062 87.0857 360.119 85.2606 359.35C84.8464 359.655 84.4086 359.983 83.9379 360.316Z" fill="#003177"/>
<path d="M88.5088 356.587C92.19 357.525 95.8994 360.091 95.9418 360.119C96.0169 360.172 96.1017 360.209 96.1914 360.23C96.2812 360.25 96.374 360.252 96.4646 360.236C96.5552 360.22 96.6418 360.187 96.7193 360.137C96.7968 360.088 96.8638 360.024 96.9163 359.949C96.9688 359.873 97.0058 359.788 97.0253 359.699C97.0447 359.609 97.0461 359.517 97.0295 359.427C97.0129 359.336 96.9785 359.25 96.9283 359.174C96.8782 359.097 96.8133 359.031 96.7374 358.979C94.5349 357.488 92.1387 356.302 89.615 355.456C89.2855 355.817 88.9183 356.193 88.5088 356.587Z" fill="#003177"/>
<path d="M93.5316 337.414C93.5795 336.948 93.7281 336.498 93.967 336.094C94.206 335.69 94.5297 335.343 94.916 335.076C95.3024 334.808 95.7421 334.627 96.2052 334.545C96.6682 334.463 97.1436 334.482 97.5988 334.6C101.134 335.633 104.816 336.08 108.496 335.923C117.972 335.627 120.265 332.986 123.089 334.253C125.104 335.149 125.099 338.545 124.681 341.449C124.506 342.693 123.885 343.832 122.933 344.656C121.982 345.481 120.763 345.934 119.502 345.933C112.215 345.896 97.8106 345.75 95.5793 345.197C93.0514 344.563 93.2303 340.501 93.5316 337.414Z" fill="#002756"/>
</svg>
