<svg width="718" height="718" viewBox="0 0 718 718" fill="none" xmlns="http://www.w3.org/2000/svg">
<path d="M359 717C161.282 717 1 556.718 1 359C1 161.282 161.282 1 359 1C556.718 1 717 161.282 717 359C717 556.718 556.718 717 359 717Z" stroke="url(#paint0_radial_499_1501)" stroke-width="2" stroke-miterlimit="10"/>
<path d="M359 707.714C166.411 707.714 10.2864 551.589 10.2864 359C10.2864 166.411 166.411 10.2864 359 10.2864C551.589 10.2864 707.714 166.411 707.714 359C707.714 551.589 551.589 707.714 359 707.714Z" stroke="url(#paint1_radial_499_1501)" stroke-width="2" stroke-miterlimit="10"/>
<path d="M359 698.149C171.693 698.149 19.8509 546.307 19.8509 359C19.8509 171.693 171.693 19.8509 359 19.8509C546.307 19.8509 698.149 171.693 698.149 359C698.149 546.307 546.307 698.149 359 698.149Z" stroke="url(#paint2_radial_499_1501)" stroke-width="2" stroke-miterlimit="10"/>
<path d="M359 688.298C177.134 688.298 29.7017 540.866 29.7017 359C29.7017 177.134 177.134 29.7019 359 29.7019C540.866 29.7019 688.298 177.134 688.298 359C688.298 540.866 540.866 688.298 359 688.298Z" stroke="url(#paint3_radial_499_1501)" stroke-width="2" stroke-miterlimit="10"/>
<path d="M359 678.151C182.738 678.151 39.8488 535.262 39.8488 359C39.8488 182.738 182.738 39.8489 359 39.8489C535.262 39.8489 678.151 182.738 678.151 359C678.151 535.262 535.262 678.151 359 678.151Z" stroke="url(#paint4_radial_499_1501)" stroke-width="2" stroke-miterlimit="10"/>
<path d="M359 667.7C188.51 667.7 50.3 529.49 50.3 359C50.3 188.51 188.51 50.3 359 50.3C529.49 50.3 667.7 188.51 667.7 359C667.7 529.49 529.49 667.7 359 667.7Z" stroke="url(#paint5_radial_499_1501)" stroke-width="2" stroke-miterlimit="10"/>
<path d="M359 656.935C194.455 656.935 61.0653 523.545 61.0653 359C61.0653 194.455 194.455 61.0652 359 61.0652C523.545 61.0652 656.935 194.455 656.935 359C656.935 523.545 523.545 656.935 359 656.935Z" stroke="url(#paint6_radial_499_1501)" stroke-width="2" stroke-miterlimit="10"/>
<path d="M359 645.847C200.579 645.847 72.1526 517.421 72.1526 359C72.1526 200.579 200.579 72.1526 359 72.1526C517.421 72.1526 645.847 200.579 645.847 359C645.847 517.421 517.421 645.847 359 645.847Z" stroke="url(#paint7_radial_499_1501)" stroke-width="2" stroke-miterlimit="10"/>
<path d="M359 634.427C206.886 634.427 83.5735 511.114 83.5735 359C83.5735 206.886 206.886 83.5735 359 83.5735C511.114 83.5735 634.427 206.886 634.427 359C634.427 511.114 511.114 634.427 359 634.427Z" stroke="url(#paint8_radial_499_1501)" stroke-width="2" stroke-miterlimit="10"/>
<path d="M359 622.664C213.382 622.664 95.336 504.618 95.336 359C95.336 213.382 213.382 95.336 359 95.336C504.618 95.336 622.664 213.382 622.664 359C622.664 504.618 504.618 622.664 359 622.664Z" stroke="url(#paint9_radial_499_1501)" stroke-width="2" stroke-miterlimit="10"/>
<path d="M359 610.547C220.074 610.547 107.453 497.926 107.453 359C107.453 220.075 220.074 107.453 359 107.453C497.925 107.453 610.547 220.075 610.547 359C610.547 497.926 497.925 610.547 359 610.547Z" stroke="url(#paint10_radial_499_1501)" stroke-width="2" stroke-miterlimit="10"/>
<path d="M359 598.068C226.966 598.068 119.932 491.034 119.932 359C119.932 226.966 226.966 119.931 359 119.931C491.034 119.931 598.069 226.966 598.069 359C598.069 491.034 491.034 598.068 359 598.068Z" stroke="url(#paint11_radial_499_1501)" stroke-width="2" stroke-miterlimit="10"/>
<path d="M359 585.214C234.065 585.214 132.786 483.935 132.786 359C132.786 234.065 234.065 132.786 359 132.786C483.935 132.786 585.214 234.065 585.214 359C585.214 483.935 483.935 585.214 359 585.214Z" stroke="url(#paint12_radial_499_1501)" stroke-width="2" stroke-miterlimit="10"/>
<path d="M359 571.975C241.377 571.975 146.025 476.623 146.025 359C146.025 241.377 241.377 146.025 359 146.025C476.623 146.025 571.975 241.377 571.975 359C571.975 476.623 476.623 571.975 359 571.975Z" stroke="url(#paint13_radial_499_1501)" stroke-width="2" stroke-miterlimit="10"/>
<path d="M359 558.338C248.909 558.338 159.662 469.091 159.662 359C159.662 248.909 248.909 159.662 359 159.662C469.091 159.662 558.338 248.909 558.338 359C558.338 469.091 469.091 558.338 359 558.338Z" stroke="url(#paint14_radial_499_1501)" stroke-width="2" stroke-miterlimit="10"/>
<path d="M359 544.293C256.666 544.293 173.707 461.334 173.707 359C173.707 256.666 256.666 173.707 359 173.707C461.334 173.707 544.293 256.666 544.293 359C544.293 461.334 461.334 544.293 359 544.293Z" stroke="url(#paint15_radial_499_1501)" stroke-width="2" stroke-miterlimit="10"/>
<path d="M359 529.825C264.656 529.825 188.175 453.344 188.175 359C188.175 264.656 264.656 188.175 359 188.175C453.344 188.175 529.825 264.656 529.825 359C529.825 453.344 453.344 529.825 359 529.825Z" stroke="url(#paint16_radial_499_1501)" stroke-width="2" stroke-miterlimit="10"/>
<path d="M359 514.924C272.886 514.924 203.076 445.114 203.076 359C203.076 272.885 272.886 203.076 359 203.076C445.114 203.076 514.924 272.885 514.924 359C514.924 445.114 445.114 514.924 359 514.924Z" stroke="url(#paint17_radial_499_1501)" stroke-width="2" stroke-miterlimit="10"/>
<path d="M359 499.576C281.362 499.576 218.424 436.638 218.424 359C218.424 281.362 281.362 218.424 359 218.424C436.638 218.424 499.576 281.362 499.576 359C499.576 436.638 436.638 499.576 359 499.576Z" stroke="url(#paint18_radial_499_1501)" stroke-width="2" stroke-miterlimit="10"/>
<path d="M359 483.767C290.093 483.767 234.233 427.907 234.233 359C234.233 290.093 290.093 234.233 359 234.233C427.907 234.233 483.767 290.093 483.767 359C483.767 427.907 427.907 483.767 359 483.767Z" stroke="url(#paint19_radial_499_1501)" stroke-width="2" stroke-miterlimit="10"/>
<path d="M359 467.484C299.086 467.484 250.516 418.914 250.516 359C250.516 299.086 299.086 250.516 359 250.516C418.914 250.516 467.483 299.086 467.483 359C467.483 418.914 418.914 467.484 359 467.484Z" stroke="url(#paint20_radial_499_1501)" stroke-width="2" stroke-miterlimit="10"/>
<path d="M359 450.713C308.348 450.713 267.287 409.652 267.287 359C267.287 308.348 308.348 267.287 359 267.287C409.652 267.287 450.713 308.348 450.713 359C450.713 409.652 409.652 450.713 359 450.713Z" stroke="url(#paint21_radial_499_1501)" stroke-width="2" stroke-miterlimit="10"/>
<path d="M359 433.439C317.889 433.439 284.561 400.111 284.561 359C284.561 317.888 317.889 284.561 359 284.561C400.111 284.561 433.439 317.888 433.439 359C433.439 400.111 400.111 433.439 359 433.439Z" stroke="url(#paint22_radial_499_1501)" stroke-width="2" stroke-miterlimit="10"/>
<path d="M359 415.645C327.716 415.645 302.355 390.284 302.355 359C302.355 327.715 327.716 302.354 359 302.354C390.284 302.354 415.646 327.715 415.646 359C415.646 390.284 390.284 415.645 359 415.645Z" stroke="url(#paint23_radial_499_1501)" stroke-width="2" stroke-miterlimit="10"/>
<path d="M359 397.319C337.837 397.319 320.682 380.163 320.682 359C320.682 337.837 337.837 320.682 359 320.682C380.163 320.682 397.318 337.837 397.318 359C397.318 380.163 380.163 397.319 359 397.319Z" stroke="url(#paint24_radial_499_1501)" stroke-width="2" stroke-miterlimit="10"/>
<path d="M359 378.443C348.262 378.443 339.557 369.738 339.557 359C339.557 348.262 348.262 339.557 359 339.557C369.738 339.557 378.443 348.262 378.443 359C378.443 369.738 369.738 378.443 359 378.443Z" stroke="url(#paint25_radial_499_1501)" stroke-width="2" stroke-miterlimit="10"/>
<circle cx="362.5" cy="358.5" r="186.5" fill="url(#paint26_linear_499_1501)"/>
<path d="M516 210L494 203.008L510.87 189L516 210ZM498.142 202.196L513.196 206.981L509.685 192.614L498.142 202.196Z" fill="url(#paint27_linear_499_1501)"/>
<path d="M421.122 141.656L423.154 142.212C424.57 140.598 426.489 139.502 428.605 139.098C430.721 138.694 432.913 139.005 434.83 139.982C436.747 140.96 438.28 142.547 439.183 144.49C440.087 146.434 440.309 148.622 439.815 150.706C439.321 152.789 438.139 154.649 436.458 155.987C434.776 157.326 432.692 158.067 430.537 158.091C428.382 158.116 426.281 157.423 424.569 156.123C422.857 154.824 421.632 152.992 421.09 150.92L419 150.351C419.43 152.97 420.759 155.361 422.76 157.118C424.762 158.875 427.314 159.891 429.984 159.992C432.653 160.093 435.275 159.274 437.406 157.673C439.537 156.072 441.045 153.789 441.674 151.21C442.303 148.631 442.016 145.915 440.86 143.522C439.703 141.13 437.75 139.209 435.33 138.084C432.911 136.959 430.174 136.7 427.585 137.351C424.995 138.002 422.712 139.523 421.122 141.656Z" fill="url(#paint28_linear_499_1501)"/>
<path d="M523.731 129.142C522.903 129.509 522.004 129.676 521.102 129.631C520.201 129.585 519.322 129.329 518.534 128.882L517.436 128.267C516.883 127.951 516.263 127.776 515.629 127.755C514.995 127.735 514.366 127.871 513.795 128.151C513.223 128.431 512.727 128.847 512.347 129.364C511.968 129.881 511.717 130.483 511.615 131.12C511.458 132.083 511.074 132.993 510.494 133.771C509.914 134.549 509.157 135.171 508.288 135.585C507.418 135.999 506.463 136.191 505.504 136.146C504.545 136.1 503.612 135.817 502.784 135.323L501.687 134.655C501.169 134.343 500.587 134.156 499.987 134.109C499.386 134.062 498.783 134.155 498.224 134.381C497.664 134.607 497.163 134.961 496.759 135.415C496.355 135.869 496.058 136.411 495.892 137L494 136.439C494.25 135.558 494.695 134.747 495.3 134.068C495.906 133.389 496.656 132.859 497.494 132.52C498.331 132.181 499.234 132.041 500.132 132.111C501.031 132.181 501.902 132.459 502.679 132.924L503.777 133.592C504.329 133.928 504.954 134.121 505.597 134.154C506.24 134.187 506.881 134.06 507.465 133.783C508.048 133.506 508.556 133.088 508.944 132.566C509.332 132.043 509.588 131.432 509.69 130.786C509.844 129.835 510.221 128.936 510.789 128.164C511.357 127.392 512.099 126.771 512.952 126.351C513.805 125.932 514.745 125.728 515.693 125.755C516.64 125.783 517.567 126.041 518.396 126.509L519.493 127.124C520.037 127.436 520.648 127.609 521.272 127.63C521.896 127.651 522.517 127.519 523.08 127.245C523.646 126.979 524.141 126.58 524.526 126.082C524.911 125.584 525.174 125 525.294 124.378L525.386 123.877C525.562 122.95 525.949 122.078 526.518 121.331C527.086 120.585 527.82 119.985 528.658 119.58C529.497 119.176 530.418 118.978 531.346 119.002C532.274 119.026 533.183 119.273 534 119.721L533.074 121.491C532.529 121.191 531.922 121.026 531.302 121.009C530.682 120.992 530.067 121.125 529.507 121.395C528.947 121.665 528.458 122.065 528.078 122.564C527.699 123.063 527.441 123.645 527.325 124.264L527.226 124.759C527.054 125.69 526.666 126.566 526.095 127.314C525.523 128.062 524.785 128.661 523.941 129.062L523.731 129.142Z" fill="url(#paint29_linear_499_1501)"/>
<defs>
<radialGradient id="paint0_radial_499_1501" cx="0" cy="0" r="1" gradientUnits="userSpaceOnUse" gradientTransform="translate(359 359) rotate(90) scale(358)">
<stop stop-color="#5EBA72"/>
<stop offset="0.901042" stop-color="#5DBC72" stop-opacity="0"/>
</radialGradient>
<radialGradient id="paint1_radial_499_1501" cx="0" cy="0" r="1" gradientUnits="userSpaceOnUse" gradientTransform="translate(359 359) rotate(90) scale(358)">
<stop stop-color="#5EBA72"/>
<stop offset="0.901042" stop-color="#5DBC72" stop-opacity="0"/>
</radialGradient>
<radialGradient id="paint2_radial_499_1501" cx="0" cy="0" r="1" gradientUnits="userSpaceOnUse" gradientTransform="translate(359 359) rotate(90) scale(358)">
<stop stop-color="#5EBA72"/>
<stop offset="0.901042" stop-color="#5DBC72" stop-opacity="0"/>
</radialGradient>
<radialGradient id="paint3_radial_499_1501" cx="0" cy="0" r="1" gradientUnits="userSpaceOnUse" gradientTransform="translate(359 359) rotate(90) scale(358)">
<stop stop-color="#5EBA72"/>
<stop offset="0.901042" stop-color="#5DBC72" stop-opacity="0"/>
</radialGradient>
<radialGradient id="paint4_radial_499_1501" cx="0" cy="0" r="1" gradientUnits="userSpaceOnUse" gradientTransform="translate(359 359) rotate(90) scale(358)">
<stop stop-color="#5EBA72"/>
<stop offset="0.901042" stop-color="#5DBC72" stop-opacity="0"/>
</radialGradient>
<radialGradient id="paint5_radial_499_1501" cx="0" cy="0" r="1" gradientUnits="userSpaceOnUse" gradientTransform="translate(359 359) rotate(90) scale(358)">
<stop stop-color="#5EBA72"/>
<stop offset="0.901042" stop-color="#5DBC72" stop-opacity="0"/>
</radialGradient>
<radialGradient id="paint6_radial_499_1501" cx="0" cy="0" r="1" gradientUnits="userSpaceOnUse" gradientTransform="translate(359 359) rotate(90) scale(358)">
<stop stop-color="#5EBA72"/>
<stop offset="0.901042" stop-color="#5DBC72" stop-opacity="0"/>
</radialGradient>
<radialGradient id="paint7_radial_499_1501" cx="0" cy="0" r="1" gradientUnits="userSpaceOnUse" gradientTransform="translate(359 359) rotate(90) scale(358)">
<stop stop-color="#5EBA72"/>
<stop offset="0.901042" stop-color="#5DBC72" stop-opacity="0"/>
</radialGradient>
<radialGradient id="paint8_radial_499_1501" cx="0" cy="0" r="1" gradientUnits="userSpaceOnUse" gradientTransform="translate(359 359) rotate(90) scale(358)">
<stop stop-color="#5EBA72"/>
<stop offset="0.901042" stop-color="#5DBC72" stop-opacity="0"/>
</radialGradient>
<radialGradient id="paint9_radial_499_1501" cx="0" cy="0" r="1" gradientUnits="userSpaceOnUse" gradientTransform="translate(359 359) rotate(90) scale(358)">
<stop stop-color="#5EBA72"/>
<stop offset="0.901042" stop-color="#5DBC72" stop-opacity="0"/>
</radialGradient>
<radialGradient id="paint10_radial_499_1501" cx="0" cy="0" r="1" gradientUnits="userSpaceOnUse" gradientTransform="translate(359 359) rotate(90) scale(358)">
<stop stop-color="#5EBA72"/>
<stop offset="0.901042" stop-color="#5DBC72" stop-opacity="0"/>
</radialGradient>
<radialGradient id="paint11_radial_499_1501" cx="0" cy="0" r="1" gradientUnits="userSpaceOnUse" gradientTransform="translate(359 359) rotate(90) scale(358)">
<stop stop-color="#5EBA72"/>
<stop offset="0.901042" stop-color="#5DBC72" stop-opacity="0"/>
</radialGradient>
<radialGradient id="paint12_radial_499_1501" cx="0" cy="0" r="1" gradientUnits="userSpaceOnUse" gradientTransform="translate(359 359) rotate(90) scale(358)">
<stop stop-color="#5EBA72"/>
<stop offset="0.901042" stop-color="#5DBC72" stop-opacity="0"/>
</radialGradient>
<radialGradient id="paint13_radial_499_1501" cx="0" cy="0" r="1" gradientUnits="userSpaceOnUse" gradientTransform="translate(359 359) rotate(90) scale(358)">
<stop stop-color="#5EBA72"/>
<stop offset="0.901042" stop-color="#5DBC72" stop-opacity="0"/>
</radialGradient>
<radialGradient id="paint14_radial_499_1501" cx="0" cy="0" r="1" gradientUnits="userSpaceOnUse" gradientTransform="translate(359 359) rotate(90) scale(358)">
<stop stop-color="#5EBA72"/>
<stop offset="0.901042" stop-color="#5DBC72" stop-opacity="0"/>
</radialGradient>
<radialGradient id="paint15_radial_499_1501" cx="0" cy="0" r="1" gradientUnits="userSpaceOnUse" gradientTransform="translate(359 359) rotate(90) scale(358)">
<stop stop-color="#5EBA72"/>
<stop offset="0.901042" stop-color="#5DBC72" stop-opacity="0"/>
</radialGradient>
<radialGradient id="paint16_radial_499_1501" cx="0" cy="0" r="1" gradientUnits="userSpaceOnUse" gradientTransform="translate(359 359) rotate(90) scale(358)">
<stop stop-color="#5EBA72"/>
<stop offset="0.901042" stop-color="#5DBC72" stop-opacity="0"/>
</radialGradient>
<radialGradient id="paint17_radial_499_1501" cx="0" cy="0" r="1" gradientUnits="userSpaceOnUse" gradientTransform="translate(359 359) rotate(90) scale(358)">
<stop stop-color="#5EBA72"/>
<stop offset="0.901042" stop-color="#5DBC72" stop-opacity="0"/>
</radialGradient>
<radialGradient id="paint18_radial_499_1501" cx="0" cy="0" r="1" gradientUnits="userSpaceOnUse" gradientTransform="translate(359 359) rotate(90) scale(358)">
<stop stop-color="#5EBA72"/>
<stop offset="0.901042" stop-color="#5DBC72" stop-opacity="0"/>
</radialGradient>
<radialGradient id="paint19_radial_499_1501" cx="0" cy="0" r="1" gradientUnits="userSpaceOnUse" gradientTransform="translate(359 359) rotate(90) scale(358)">
<stop stop-color="#5EBA72"/>
<stop offset="0.901042" stop-color="#5DBC72" stop-opacity="0"/>
</radialGradient>
<radialGradient id="paint20_radial_499_1501" cx="0" cy="0" r="1" gradientUnits="userSpaceOnUse" gradientTransform="translate(359 359) rotate(90) scale(358)">
<stop stop-color="#5EBA72"/>
<stop offset="0.901042" stop-color="#5DBC72" stop-opacity="0"/>
</radialGradient>
<radialGradient id="paint21_radial_499_1501" cx="0" cy="0" r="1" gradientUnits="userSpaceOnUse" gradientTransform="translate(359 359) rotate(90) scale(358)">
<stop stop-color="#5EBA72"/>
<stop offset="0.901042" stop-color="#5DBC72" stop-opacity="0"/>
</radialGradient>
<radialGradient id="paint22_radial_499_1501" cx="0" cy="0" r="1" gradientUnits="userSpaceOnUse" gradientTransform="translate(359 359) rotate(90) scale(358)">
<stop stop-color="#5EBA72"/>
<stop offset="0.901042" stop-color="#5DBC72" stop-opacity="0"/>
</radialGradient>
<radialGradient id="paint23_radial_499_1501" cx="0" cy="0" r="1" gradientUnits="userSpaceOnUse" gradientTransform="translate(359 359) rotate(90) scale(358)">
<stop stop-color="#5EBA72"/>
<stop offset="0.901042" stop-color="#5DBC72" stop-opacity="0"/>
</radialGradient>
<radialGradient id="paint24_radial_499_1501" cx="0" cy="0" r="1" gradientUnits="userSpaceOnUse" gradientTransform="translate(359 359) rotate(90) scale(358)">
<stop stop-color="#5EBA72"/>
<stop offset="0.901042" stop-color="#5DBC72" stop-opacity="0"/>
</radialGradient>
<radialGradient id="paint25_radial_499_1501" cx="0" cy="0" r="1" gradientUnits="userSpaceOnUse" gradientTransform="translate(359 359) rotate(90) scale(358)">
<stop stop-color="#5EBA72"/>
<stop offset="0.901042" stop-color="#5DBC72" stop-opacity="0"/>
</radialGradient>
<linearGradient id="paint26_linear_499_1501" x1="176" y1="358.498" x2="549" y2="358.498" gradientUnits="userSpaceOnUse">
<stop stop-color="#5FB572"/>
<stop offset="1" stop-color="#4BE96E"/>
</linearGradient>
<linearGradient id="paint27_linear_499_1501" x1="496.726" y1="194.188" x2="518.769" y2="201.057" gradientUnits="userSpaceOnUse">
<stop stop-color="#C681E6"/>
<stop offset="1" stop-color="#7057E4"/>
</linearGradient>
<linearGradient id="paint28_linear_499_1501" x1="1072.6" y1="2777.63" x2="1289.55" y2="1983.76" gradientUnits="userSpaceOnUse">
<stop stop-color="#C681E6"/>
<stop offset="1" stop-color="#7057E4"/>
</linearGradient>
<linearGradient id="paint29_linear_499_1501" x1="3651.98" y1="-515.65" x2="6082.09" y2="-1544.26" gradientUnits="userSpaceOnUse">
<stop stop-color="#FA655C"/>
<stop offset="1" stop-color="#FFBF8A"/>
</linearGradient>
</defs>
</svg>
