<svg width="176" height="107" viewBox="0 0 176 107" fill="none" xmlns="http://www.w3.org/2000/svg">
<path d="M176 107L154 100.008L170.87 86L176 107ZM158.142 99.1963L173.196 103.981L169.685 89.6136L158.142 99.1963Z" fill="url(#paint0_linear_422_1503)"/>
<path d="M2.12217 22.6559L4.1543 23.2118C5.57018 21.598 7.48917 20.5017 9.60527 20.0976C11.7214 19.6935 13.9127 20.005 15.8299 20.9824C17.747 21.9597 19.2796 23.5467 20.1832 25.4902C21.0867 27.4337 21.3093 29.6218 20.8153 31.7055C20.3213 33.7893 19.1393 35.6488 17.4577 36.9874C15.7761 38.326 13.6917 39.0667 11.537 39.0914C9.38236 39.116 7.2814 38.4232 5.5692 37.1234C3.857 35.8237 2.63217 33.9917 2.09002 31.9198L0 31.3512C0.430003 33.9704 1.75858 36.3613 3.76046 38.1183C5.76234 39.8754 8.3143 40.8906 10.9836 40.9917C13.6529 41.0927 16.2752 40.2735 18.4059 38.673C20.5366 37.0724 22.0446 34.7889 22.674 32.2099C23.3035 29.6308 23.0157 26.9148 21.8595 24.5225C20.7033 22.1301 18.7499 20.2086 16.3304 19.0839C13.9109 17.9592 11.1744 17.7004 8.58479 18.3514C5.99518 19.0025 3.71192 20.5233 2.12217 22.6559Z" fill="url(#paint1_linear_422_1503)"/>
<path d="M104.731 10.1421C103.903 10.5086 103.004 10.6758 102.102 10.6306C101.201 10.5854 100.322 10.329 99.5335 9.88155L98.4363 9.26682C97.8832 8.95101 97.2634 8.77558 96.6294 8.75542C95.9955 8.73525 95.3661 8.87095 94.7947 9.151C94.2233 9.43105 93.7268 9.84717 93.3474 10.364C92.9679 10.8809 92.7166 11.4833 92.615 12.12C92.4583 13.083 92.0735 13.9928 91.4938 14.7707C90.9141 15.5487 90.1568 16.1714 89.2875 16.5852C88.4182 16.9989 87.4629 17.1913 86.5041 17.1456C85.5454 17.0998 84.6119 16.8175 83.7845 16.3229L82.6873 15.6547C82.1689 15.3431 81.5872 15.1564 80.9868 15.109C80.3864 15.0615 79.7833 15.1546 79.2238 15.3811C78.6643 15.6075 78.1632 15.9613 77.7591 16.4153C77.3549 16.8692 77.0584 17.4114 76.8923 18L75 17.4387C75.2501 16.558 75.6949 15.7471 76.3004 15.0679C76.9059 14.3888 77.6561 13.8595 78.4936 13.5203C79.331 13.1812 80.2337 13.0413 81.1325 13.1112C82.0313 13.1812 82.9024 13.4592 83.6794 13.9241L84.7766 14.5923C85.3293 14.9279 85.9544 15.1207 86.5973 15.154C87.2402 15.1872 87.8814 15.0599 88.4647 14.783C89.048 14.5062 89.5558 14.0883 89.9437 13.5658C90.3316 13.0434 90.5878 12.4323 90.6899 11.7859C90.8444 10.835 91.2214 9.93577 91.7892 9.16403C92.3569 8.3923 93.0987 7.77064 93.9521 7.35144C94.8055 6.93224 95.7454 6.72778 96.6928 6.75529C97.6401 6.7828 98.5671 7.04146 99.3955 7.5095L100.493 8.12423C101.037 8.43582 101.648 8.60941 102.272 8.63035C102.896 8.65128 103.517 8.51894 104.08 8.2445C104.646 7.97864 105.141 7.58024 105.526 7.08197C105.911 6.5837 106.174 5.99974 106.294 5.378L106.386 4.87686C106.562 3.9498 106.949 3.07778 107.518 2.33138C108.086 1.58498 108.82 0.985175 109.658 0.580496C110.497 0.175818 111.418 -0.0223619 112.346 0.00200334C113.274 0.0263685 114.183 0.272597 115 0.720748L114.074 2.49143C113.529 2.1913 112.922 2.02612 112.302 2.0093C111.682 1.99248 111.067 2.12451 110.507 2.39465C109.947 2.66478 109.458 3.06543 109.078 3.56405C108.699 4.06267 108.441 4.64522 108.325 5.26439L108.226 5.75886C108.054 6.68982 107.666 7.56567 107.095 8.31394C106.523 9.06222 105.785 9.66142 104.941 10.062L104.731 10.1421Z" fill="url(#paint2_linear_422_1503)"/>
<defs>
<linearGradient id="paint0_linear_422_1503" x1="156.726" y1="91.1883" x2="178.769" y2="98.0568" gradientUnits="userSpaceOnUse">
<stop stop-color="#C681E6"/>
<stop offset="1" stop-color="#7057E4"/>
</linearGradient>
<linearGradient id="paint1_linear_422_1503" x1="653.602" y1="2658.63" x2="870.547" y2="1864.76" gradientUnits="userSpaceOnUse">
<stop stop-color="#C681E6"/>
<stop offset="1" stop-color="#7057E4"/>
</linearGradient>
<linearGradient id="paint2_linear_422_1503" x1="3232.98" y1="-634.65" x2="5663.09" y2="-1663.26" gradientUnits="userSpaceOnUse">
<stop stop-color="#FA655C"/>
<stop offset="1" stop-color="#FFBF8A"/>
</linearGradient>
</defs>
</svg>
