<svg width="210" height="52" viewBox="0 0 210 52" fill="none" xmlns="http://www.w3.org/2000/svg">
<path d="M8.5819 -1.21308e-05C10.0767 -1.21308e-05 10.8226 1.16061 10.8226 3.45654V49.2297C10.8226 51.086 10.0767 51.9905 8.5819 51.9905H2.24067C0.746894 51.9905 0 50.9269 0 48.7996V3.1909C0 1.06152 1.05845 -0.00212042 3.17534 -1.21308e-05H8.5819ZM20.9717 15.2619C23.3382 15.5782 24.5184 16.7166 24.5184 18.709V50.2765C24.5184 51.4434 23.7725 51.9905 22.2777 51.9905H15.1906C13.9318 51.9905 13.3213 50.9216 13.3213 48.6889V18.437C13.3213 15.711 14.3797 14.5166 16.4966 14.854C18.2904 15.0406 19.1873 15.1228 20.9811 15.2619H20.9717ZM30.5575 -1.21308e-05H35.5927C36.9616 -1.21308e-05 37.6477 1.08471 37.6477 3.20038V35.258L38.3935 35.3023C41.2982 30.293 42.1039 23.6677 43.2494 18.1081C43.8305 17.2395 44.7652 16.8178 46.0534 16.8431L47.3594 16.8685C49.5623 16.8906 53.3387 17.1594 53.5244 20.0783V20.3376C53.0869 26.7859 50.5064 34.4864 47.3594 40.0049C49.4521 44.018 53.3607 48.4075 54.2828 51.4877C54.352 51.7217 53.6534 51.9873 52.4135 51.9873H45.6977C43.6837 51.9873 42.3808 50.8109 41.4021 48.4865C40.2156 45.6751 38.9096 43.4551 38.6012 43.3286L37.6571 43.2717V50.3524C37.6571 51.4972 36.9081 51.9873 35.4165 51.9873H29.4371C28.0682 51.9873 27.3821 51.5383 27.3821 50.5737C27.3821 38.5333 27.3821 26.4939 27.3821 14.4555C27.3192 11.0042 27.2573 7.55401 27.1965 4.10484C27.2059 1.39463 28.3262 -1.21308e-05 30.5669 -1.21308e-05H30.5575ZM70.0399 14.9488C75.9279 14.5029 80.3495 18.8766 81.9985 24.3698C82.3132 27.0673 82.4957 29.6763 82.5587 32.3897V35.9316C82.5587 38.6798 81.6146 40.0839 79.7547 40.4444C75.909 41.1718 72.0697 41.9308 68.1768 42.3419C67.8779 42.5949 67.7268 42.7214 67.4278 42.9744V43.1135C67.4278 45.03 68.4254 46.1179 70.4175 46.276L73.9673 46.0514C76.0257 45.5056 78.0279 44.7644 79.9466 43.8377C81.0859 43.6512 81.7719 44.2299 82.0016 45.4822V49.1159C82.0016 50.5674 80.34 51.241 77.5172 51.6142C75.8488 51.8514 74.1668 51.9782 72.4819 51.9937H72.1074C67.5474 51.8893 61.0111 51.9937 58.2858 47.4714C57.0836 44.9699 56.8665 42.1901 56.7909 39.5463C56.5958 32.4403 57.8043 20.7171 64.8221 16.4447C67.1352 15.4959 68.9227 15.0342 70.0399 14.9488ZM67.431 30.176V33.6357C67.431 34.6856 67.8684 35.0809 68.7401 34.9418C69.8605 34.7615 70.4206 34.6635 71.541 34.4611C72.4127 34.303 72.825 33.7148 72.8501 32.7123C72.8848 31.071 72.8124 26.7036 70.235 26.8491C70.0839 26.8744 70.0084 26.8871 69.8605 26.9029C68.2366 27.0768 67.431 28.1995 67.431 30.176ZM88.7866 13.7313C90.4293 13.4688 91.2539 13.336 92.8966 13.0672C95.2852 13.3233 95.4142 16.2296 95.3229 18.2062C96.0184 24.531 95.902 32.181 98.1269 38.2023L98.6871 38.0884C100.333 35.5964 100.443 31.4473 100.928 28.6264C100.351 23.8237 99.7906 19.0189 99.2473 14.212C99.2473 12.6308 100.368 11.6378 102.608 11.2678L105.409 10.806C108.005 10.1989 109.186 12.7288 109.145 14.8729C109.053 20.7835 108.613 29.515 110.639 35.6059L111.584 35.413C112.43 27.159 112.134 17.1246 114.573 10.4803C114.863 9.68655 116.046 9.06355 117.56 8.8232L121.094 8.2761C123.086 7.95985 124.08 8.24763 124.08 9.16158C121.679 22.9467 121.15 37.5381 117.544 51.0734C117.544 51.6869 116.424 51.9947 114.183 51.9968H109.887C107.395 51.9968 106.15 51.1029 106.152 49.3151C105.72 45.4632 105.283 41.6124 104.843 37.7627L103.722 37.9872C103.2 41.8296 103.307 48.2715 101.107 51.649C99.5336 51.8008 98.7532 51.8703 97.186 51.9968H94.9453C92.9847 52.1012 90.3475 51.086 90.0895 48.9324C88.9565 39.5653 86.2658 27.0294 85.0543 16.1506C85.0543 14.9457 86.291 14.1393 88.7803 13.744L88.7866 13.7313ZM139.453 4.99665C140.074 4.92607 140.698 4.88702 141.323 4.87964C145.729 4.67092 151.969 5.44888 151.78 11.2045V44.5461C151.856 45.8111 151.894 46.4626 151.969 47.7686C151.969 49.9444 150.972 51.0734 148.979 51.0734H143.755C142.497 51.0734 141.889 49.742 141.889 47.2089V46.918H141.515C140.665 49.2993 138.884 51.9779 136.099 51.9779C131.117 52 128.76 45.7478 127.693 41.7695C127.085 39.5896 126.768 37.3384 126.749 35.0746V34.1702C126.673 33.8223 126.639 33.6515 126.563 33.31C126.639 32.94 126.673 32.7565 126.749 32.3897V31.5105C126.768 25.4766 128.813 19.4648 134.034 16.0399C135.004 15.7047 135.491 15.5402 136.461 15.2177C138.254 15.2177 139.151 15.2177 140.945 15.2999L141.32 15.2493C141.543 15.0089 141.653 14.8888 141.88 14.6547V13.336C141.88 12.1343 140.819 11.4733 138.704 11.5334L136.835 11.8686C135.923 12.0362 134.053 12.6814 131.233 13.9147C130.11 14.1424 129.55 13.2316 129.55 11.3848V10.1609C129.55 7.9472 130.985 7.02061 132.914 6.50513C135.068 5.89059 137.253 5.39128 139.46 5.0093L139.453 4.99665ZM136.665 26.789V34.9481C136.665 36.4281 137.162 37.4781 138.16 38.0378L139.841 37.8417C141.071 37.6868 141.7 36.3206 141.7 33.6452V25.815C141.7 23.7278 140.892 22.8075 139.274 23.0984C137.716 23.3767 136.845 24.5595 136.665 26.789ZM157.826 5.11366C159.321 5.11366 160.066 5.11366 161.561 5.14528C164.302 5.18323 165.671 6.14777 165.671 8.40259C166.779 16.6028 167.204 24.8473 167.726 33.1139L168.472 33.1424C168.988 25.6031 169.208 17.9626 170.543 10.4961C170.798 9.07619 170.971 7.49181 171.647 6.23316C171.647 5.71452 173.079 5.52478 175.943 5.72085C177.063 5.79675 177.624 5.84101 178.744 5.92956C180.739 6.08979 181.736 6.57154 181.734 7.3748C177.746 21.6058 177.265 36.4313 174.077 50.8204C173.599 51.5889 172.041 51.981 169.407 51.981H166.247C163.73 52.0285 161.41 50.8868 161.391 48.0849C159.711 34.0943 158.597 19.6577 154.468 6.12248C154.672 5.44571 155.793 5.11366 157.826 5.11366ZM197.478 7.53292C203.637 8.52593 207.775 12.966 209.437 18.9177C209.751 21.5805 209.934 24.1515 209.997 26.8238V30.5776C209.997 33.5819 209.053 34.7299 207.196 34.1006C203.366 32.8546 199.524 31.7572 195.615 30.799C195.3 31.0931 195.165 31.2417 194.866 31.5422V31.773C194.803 34.2682 195.593 36.9847 197.856 38.3193C199.275 38.7525 199.986 38.9707 201.406 39.4166C202.11 39.5526 204.102 39.1478 207.385 38.6924C208.527 38.9897 209.21 40.0776 209.44 41.9023V47.2374C209.506 49.7294 206.809 50.754 204.955 51.1525C203.605 51.4466 201.78 51.9905 199.92 51.9905H199.546C191.596 52.0601 187.31 45.479 185.724 38.3509C184.778 33.1603 184.278 27.8976 184.229 22.6209C184.229 16.5459 184.623 8.52592 192.263 7.44121C194.57 7.32736 196.326 7.35582 197.484 7.54241L197.478 7.53292ZM194.885 16.4542V19.0505C194.869 19.4648 194.988 19.8731 195.224 20.2129C195.461 20.5527 195.801 20.8054 196.194 20.9322C197.314 21.2927 197.875 21.4824 198.995 21.8809C199.867 22.1972 200.285 21.7386 200.304 20.8847C200.345 18.8734 199.989 15.8248 197.689 15.0975L197.314 14.9931C195.681 14.5504 194.885 15.0406 194.885 16.4542ZM23.5931 0.834877C22.0196 0.0379417 20.3989 0.898123 19.1244 1.9101C18.1362 0.961372 16.89 0.27829 15.4676 0.461711C14.7953 0.537157 14.162 0.817134 13.6525 1.26418C13.143 1.71123 12.7815 2.30402 12.6164 2.9632C11.8988 6.33436 15.7004 9.71185 18.3282 11.0085C18.4953 11.0752 18.6546 11.16 18.8034 11.2614C18.9513 11.6726 19.5335 11.7421 19.9709 11.4575C22.2934 9.92689 25.2799 7.0965 25.4467 4.12065C25.484 3.45007 25.3274 2.78299 24.9957 2.19993C24.664 1.61687 24.1714 1.14277 23.5774 0.834877H23.5931Z" fill="url(#paint0_linear_187_5173)"/>
<defs>
<linearGradient id="paint0_linear_187_5173" x1="0" y1="25.9984" x2="210" y2="25.9984" gradientUnits="userSpaceOnUse">
<stop stop-color="#5EB872"/>
<stop offset="1" stop-color="#4DE56F"/>
</linearGradient>
</defs>
</svg>
