<svg width="157" height="39" viewBox="0 0 157 39" fill="none" xmlns="http://www.w3.org/2000/svg">
<path d="M6.43246 2.346e-06C7.55002 2.346e-06 8.10998 0.870469 8.10998 2.59242V36.9223C8.10998 38.3145 7.55002 38.9929 6.43246 38.9929H1.67517C0.559957 38.9929 0.00156851 38.1952 0 36.5997V2.39318C0 0.796153 0.791312 -0.00157887 2.37394 2.346e-06H6.43246ZM15.6953 11.4465C17.4646 11.6836 18.3492 12.5375 18.3492 14.0317V37.7074C18.3492 38.5826 17.7916 38.9929 16.674 38.9929H11.3591C10.418 38.9929 9.96161 38.1912 9.96161 36.5167V13.8278C9.96161 11.7833 10.7529 10.8875 12.3355 11.1405C13.6766 11.2804 14.3472 11.3421 15.6859 11.4465H15.6953ZM22.8642 2.346e-06H26.6286C27.652 2.346e-06 28.1626 0.813546 28.1626 2.4003V26.4435L28.7226 26.4767C30.8918 22.7198 31.4941 17.7508 32.3529 13.5811C32.7858 12.9296 33.4838 12.6134 34.4468 12.6324L35.4256 12.6513C37.0725 12.668 39.8958 12.8696 40.0323 15.0588V15.2532C39.7076 20.0894 37.776 25.8648 35.4256 30.0036C36.9878 33.0135 39.9123 36.3056 40.6017 38.6158C40.6534 38.7913 40.1311 38.9905 39.2041 38.9905H34.1669C32.6611 38.9905 31.687 38.1082 30.953 36.3649C30.0683 34.2563 29.0919 32.5913 28.859 32.4964L28.1532 32.4538V37.7643C28.1532 38.6229 27.5956 38.9905 26.478 38.9905H22.0078C20.9843 38.9905 20.4714 38.6537 20.4714 37.9303V10.844C20.4244 8.25555 20.3781 5.66789 20.3326 3.08101C20.342 1.04598 21.1796 2.346e-06 22.8548 2.346e-06H22.8642ZM52.3655 11.2116C56.7652 10.8772 60.0731 14.1575 61.306 18.2773C61.5413 20.3005 61.6777 22.2573 61.7248 24.2923V26.9487C61.7248 29.0099 61.019 30.0629 59.6308 30.3333C56.7557 30.8789 53.8854 31.4481 50.9726 31.7564C50.7374 31.9462 50.6386 32.0411 50.415 32.2308V32.3352C50.415 33.7725 51.1609 34.5884 52.6502 34.707L55.3017 34.5386C56.8408 34.1296 58.3376 33.5737 59.772 32.8783C60.626 32.7384 61.1389 33.1724 61.3083 34.1117V36.8369C61.3083 37.9256 60.0661 38.4308 57.958 38.7106C56.7107 38.8885 55.4532 38.9836 54.1936 38.9953H53.916C50.5045 38.917 45.6201 38.9953 43.5826 35.6035C42.6839 33.7274 42.5192 31.6426 42.465 29.6597C42.3168 24.3302 43.2226 15.5379 48.4693 12.3335C50.1939 11.622 51.5303 11.2757 52.3655 11.2116ZM50.4103 22.632V25.2268C50.4103 26.0142 50.735 26.3107 51.3867 26.2064C52.2267 26.0712 52.6455 25.9976 53.4831 25.8458C54.1348 25.7272 54.443 25.2861 54.4594 24.5342C54.4877 23.3032 54.4312 20.0277 52.5043 20.1368C52.3937 20.1558 52.3373 20.1653 52.2267 20.1772C51.015 20.3076 50.4103 21.1496 50.4103 22.632ZM66.3762 10.2985L69.4466 9.8004C71.2347 9.99252 71.3405 12.1722 71.2629 13.6546C71.7805 18.3983 71.6958 24.1357 73.3569 28.6517L73.7757 28.5663C75.0085 26.6973 75.0885 23.5855 75.4532 21.4698C75.0203 17.8678 74.6007 14.2642 74.1944 10.659C74.1944 9.47309 75.0344 8.72834 76.7095 8.45083L78.8035 8.10455C80.7445 7.64916 81.6268 9.54662 81.5962 11.1547C81.5257 15.5877 81.1986 22.1363 82.7138 26.7044L83.4196 26.5598C84.0525 20.3693 83.829 12.8435 85.6524 7.86025C85.8712 7.26492 86.7535 6.79767 87.8875 6.61741L90.532 6.20708C92.0237 5.9699 92.7672 6.18573 92.7672 6.87119C90.972 17.21 90.5767 28.1536 87.8805 38.305C87.8805 38.7652 87.0421 38.996 85.3654 38.9976H82.1538C80.292 38.9976 79.3611 38.3272 79.3611 36.9863C79.0474 34.0974 78.7219 31.2093 78.3847 28.322L77.5471 28.4904C77.1566 31.3722 77.2366 36.2036 75.592 38.7367C74.4156 38.8506 73.8321 38.9028 72.6604 38.9976H70.9829C69.5171 39.0759 67.5479 38.3145 67.3526 36.6993C66.508 29.674 64.494 20.272 63.5882 12.1129C63.5835 11.2093 64.5128 10.6045 66.3762 10.308V10.2985ZM104.256 3.7475C104.719 3.69464 105.185 3.66535 105.651 3.65974C108.945 3.5032 113.61 4.08667 113.472 8.4034V33.4096C113.528 34.3583 113.554 34.8469 113.61 35.8265C113.61 37.4583 112.867 38.305 111.375 38.305H107.477C106.536 38.305 106.079 37.3065 106.079 35.4067V35.1885H105.799C105.164 36.9745 103.835 38.9834 101.75 38.9834C98.0256 39 96.2657 34.3109 95.4681 31.3271C95.0128 29.6924 94.7754 28.0039 94.7623 26.306V25.6276C94.7058 25.3667 94.6776 25.2386 94.6211 24.9825L94.7623 24.2923V23.6329C94.7764 19.1075 96.3034 14.5986 100.207 12.0299C100.934 11.7785 101.296 11.6552 102.023 11.4133C103.364 11.4133 104.035 11.4132 105.373 11.4749L105.653 11.437C105.82 11.2567 105.905 11.1666 106.072 10.9911V10.002C106.072 9.10072 105.282 8.605 103.698 8.65007L102.303 8.90148C101.618 9.02719 100.223 9.51104 98.1126 10.4361C97.2751 10.6068 96.8563 9.92374 96.8563 8.53859V7.62069C96.8563 5.96041 97.9291 5.26547 99.369 4.87886C100.98 4.41796 102.615 4.04348 104.265 3.75699L104.256 3.7475ZM102.159 20.0823V26.2016C102.159 27.3116 102.533 28.0991 103.277 28.5189L104.533 28.3718C105.474 28.2627 105.931 27.231 105.931 25.2244V19.3612C105.931 17.7958 105.326 17.1056 104.115 17.3238C102.962 17.5326 102.31 18.4196 102.169 20.0918L102.159 20.0823ZM117.996 3.83525C119.113 3.83525 119.671 3.83526 120.789 3.85897C122.836 3.88744 123.861 4.61084 123.861 6.30196C124.689 12.4521 125.005 18.6355 125.395 24.8354L125.955 24.8568C126.339 19.2023 126.506 13.472 127.503 7.87211C127.692 6.80715 127.821 5.61887 128.329 4.67488C128.329 4.2859 129.4 4.14359 131.541 4.29065C132.378 4.34757 132.797 4.38077 133.635 4.44718C135.125 4.56736 135.87 4.92867 135.87 5.53111C132.887 16.2043 132.529 27.3235 130.143 38.1153C129.788 38.6917 128.623 38.9858 126.654 38.9858H124.28C122.398 39.0214 120.664 38.1651 120.647 36.0637C119.393 25.5707 118.561 14.7433 115.471 4.59187C115.636 4.0843 116.474 3.83525 117.996 3.83525ZM147.641 5.6497C152.243 6.39446 155.339 9.72451 156.581 14.1883C156.819 16.1565 156.959 18.1355 157 20.1179V22.9332C157 25.1865 156.294 26.0474 154.906 25.5754C152.045 24.6409 149.172 23.8179 146.248 23.0993L145.69 23.6566V23.8298C145.641 25.7011 146.234 27.7386 147.925 28.7395C148.986 29.0644 149.516 29.2281 150.577 29.5625C151.104 29.6645 152.596 29.3609 155.047 29.0193C155.899 29.2423 156.412 30.0582 156.581 31.4267V35.428C156.631 37.297 154.617 38.0655 153.231 38.3643C152.222 38.5849 150.857 38.9929 149.466 38.9929H149.186C143.243 39.0451 140.037 34.1093 138.853 28.7632C138.146 24.8702 137.772 20.9232 137.736 16.9657C137.736 12.4094 138.03 6.39445 143.74 5.58092C145.481 5.49553 146.777 5.51688 147.645 5.65682L147.641 5.6497ZM145.686 12.3335V14.2808C145.673 14.5915 145.762 14.8977 145.939 15.1526C146.116 15.4074 146.371 15.5969 146.664 15.692C147.502 15.9624 147.921 16.1047 148.758 16.4036C149.41 16.6408 149.723 16.2968 149.735 15.6565C149.765 14.148 149.499 11.8615 147.78 11.316L147.502 11.2377C146.295 10.9128 145.69 11.2804 145.69 12.3406L145.686 12.3335ZM17.6269 0.626169C16.4505 0.0284678 15.2412 0.673604 14.2883 1.43259C13.5472 0.721041 12.6155 0.208729 11.5521 0.346295C11.0496 0.403203 10.5763 0.613304 10.1954 0.948539C9.81456 1.28377 9.54419 1.72818 9.42047 2.22241C8.88639 4.75078 11.7285 7.2839 13.6931 8.25635C13.8175 8.30739 13.9366 8.37096 14.0484 8.44609C14.1589 8.75443 14.5942 8.80661 14.9189 8.59314C16.6576 7.44518 18.8903 5.32239 19.015 3.0905C19.0438 2.58857 18.9281 2.08896 18.6818 1.65177C18.4355 1.21458 18.0692 0.858431 17.6269 0.626169Z" fill="white"/>
</svg>
