<svg width="1920" height="718" viewBox="0 0 1920 718" fill="none" xmlns="http://www.w3.org/2000/svg">
<path d="M1920 717C1722.28 717 1562 556.718 1562 359C1562 161.282 1722.28 1 1920 1C2117.72 1 2278 161.282 2278 359C2278 556.718 2117.72 717 1920 717Z" stroke="url(#paint0_radial_550_1507)" stroke-width="2" stroke-miterlimit="10"/>
<path d="M1920 707.714C1727.41 707.714 1571.29 551.589 1571.29 359C1571.29 166.411 1727.41 10.2864 1920 10.2864C2112.59 10.2864 2268.71 166.411 2268.71 359C2268.71 551.589 2112.59 707.714 1920 707.714Z" stroke="url(#paint1_radial_550_1507)" stroke-width="2" stroke-miterlimit="10"/>
<path d="M1920 698.149C1732.69 698.149 1580.85 546.307 1580.85 359C1580.85 171.693 1732.69 19.8509 1920 19.8509C2107.31 19.8509 2259.15 171.693 2259.15 359C2259.15 546.307 2107.31 698.149 1920 698.149Z" stroke="url(#paint2_radial_550_1507)" stroke-width="2" stroke-miterlimit="10"/>
<path d="M1920 688.298C1738.13 688.298 1590.7 540.866 1590.7 359C1590.7 177.134 1738.13 29.7019 1920 29.7019C2101.87 29.7019 2249.3 177.134 2249.3 359C2249.3 540.866 2101.87 688.298 1920 688.298Z" stroke="url(#paint3_radial_550_1507)" stroke-width="2" stroke-miterlimit="10"/>
<path d="M1920 678.151C1743.74 678.151 1600.85 535.262 1600.85 359C1600.85 182.738 1743.74 39.8489 1920 39.8489C2096.26 39.8489 2239.15 182.738 2239.15 359C2239.15 535.262 2096.26 678.151 1920 678.151Z" stroke="url(#paint4_radial_550_1507)" stroke-width="2" stroke-miterlimit="10"/>
<path d="M1920 667.7C1749.51 667.7 1611.3 529.49 1611.3 359C1611.3 188.51 1749.51 50.3 1920 50.3C2090.49 50.3 2228.7 188.51 2228.7 359C2228.7 529.49 2090.49 667.7 1920 667.7Z" stroke="url(#paint5_radial_550_1507)" stroke-width="2" stroke-miterlimit="10"/>
<path d="M1920 656.935C1755.46 656.935 1622.07 523.545 1622.07 359C1622.07 194.455 1755.46 61.0652 1920 61.0652C2084.54 61.0652 2217.93 194.455 2217.93 359C2217.93 523.545 2084.54 656.935 1920 656.935Z" stroke="url(#paint6_radial_550_1507)" stroke-width="2" stroke-miterlimit="10"/>
<path d="M1920 645.847C1761.58 645.847 1633.15 517.421 1633.15 359C1633.15 200.579 1761.58 72.1526 1920 72.1526C2078.42 72.1526 2206.85 200.579 2206.85 359C2206.85 517.421 2078.42 645.847 1920 645.847Z" stroke="url(#paint7_radial_550_1507)" stroke-width="2" stroke-miterlimit="10"/>
<path d="M1920 634.427C1767.89 634.427 1644.57 511.114 1644.57 359C1644.57 206.886 1767.89 83.5735 1920 83.5735C2072.11 83.5735 2195.43 206.886 2195.43 359C2195.43 511.114 2072.11 634.427 1920 634.427Z" stroke="url(#paint8_radial_550_1507)" stroke-width="2" stroke-miterlimit="10"/>
<path d="M1920 622.664C1774.38 622.664 1656.34 504.618 1656.34 359C1656.34 213.382 1774.38 95.336 1920 95.336C2065.62 95.336 2183.66 213.382 2183.66 359C2183.66 504.618 2065.62 622.664 1920 622.664Z" stroke="url(#paint9_radial_550_1507)" stroke-width="2" stroke-miterlimit="10"/>
<path d="M1920 610.547C1781.07 610.547 1668.45 497.926 1668.45 359C1668.45 220.075 1781.07 107.453 1920 107.453C2058.93 107.453 2171.55 220.075 2171.55 359C2171.55 497.926 2058.93 610.547 1920 610.547Z" stroke="url(#paint10_radial_550_1507)" stroke-width="2" stroke-miterlimit="10"/>
<path d="M1920 598.068C1787.97 598.068 1680.93 491.034 1680.93 359C1680.93 226.966 1787.97 119.931 1920 119.931C2052.03 119.931 2159.07 226.966 2159.07 359C2159.07 491.034 2052.03 598.068 1920 598.068Z" stroke="url(#paint11_radial_550_1507)" stroke-width="2" stroke-miterlimit="10"/>
<path d="M1920 585.214C1795.07 585.214 1693.79 483.935 1693.79 359C1693.79 234.065 1795.07 132.786 1920 132.786C2044.93 132.786 2146.21 234.065 2146.21 359C2146.21 483.935 2044.93 585.214 1920 585.214Z" stroke="url(#paint12_radial_550_1507)" stroke-width="2" stroke-miterlimit="10"/>
<path d="M1920 571.975C1802.38 571.975 1707.03 476.623 1707.03 359C1707.03 241.377 1802.38 146.025 1920 146.025C2037.62 146.025 2132.97 241.377 2132.97 359C2132.97 476.623 2037.62 571.975 1920 571.975Z" stroke="url(#paint13_radial_550_1507)" stroke-width="2" stroke-miterlimit="10"/>
<path d="M1920 558.338C1809.91 558.338 1720.66 469.091 1720.66 359C1720.66 248.909 1809.91 159.662 1920 159.662C2030.09 159.662 2119.34 248.909 2119.34 359C2119.34 469.091 2030.09 558.338 1920 558.338Z" stroke="url(#paint14_radial_550_1507)" stroke-width="2" stroke-miterlimit="10"/>
<path d="M1920 544.293C1817.67 544.293 1734.71 461.334 1734.71 359C1734.71 256.666 1817.67 173.707 1920 173.707C2022.33 173.707 2105.29 256.666 2105.29 359C2105.29 461.334 2022.33 544.293 1920 544.293Z" stroke="url(#paint15_radial_550_1507)" stroke-width="2" stroke-miterlimit="10"/>
<path d="M1920 529.825C1825.66 529.825 1749.18 453.344 1749.18 359C1749.18 264.656 1825.66 188.175 1920 188.175C2014.34 188.175 2090.82 264.656 2090.82 359C2090.82 453.344 2014.34 529.825 1920 529.825Z" stroke="url(#paint16_radial_550_1507)" stroke-width="2" stroke-miterlimit="10"/>
<path d="M1920 514.924C1833.89 514.924 1764.08 445.114 1764.08 359C1764.08 272.885 1833.89 203.076 1920 203.076C2006.11 203.076 2075.92 272.885 2075.92 359C2075.92 445.114 2006.11 514.924 1920 514.924Z" stroke="url(#paint17_radial_550_1507)" stroke-width="2" stroke-miterlimit="10"/>
<path d="M1920 499.576C1842.36 499.576 1779.42 436.638 1779.42 359C1779.42 281.362 1842.36 218.424 1920 218.424C1997.64 218.424 2060.58 281.362 2060.58 359C2060.58 436.638 1997.64 499.576 1920 499.576Z" stroke="url(#paint18_radial_550_1507)" stroke-width="2" stroke-miterlimit="10"/>
<path d="M1920 483.767C1851.09 483.767 1795.23 427.907 1795.23 359C1795.23 290.093 1851.09 234.233 1920 234.233C1988.91 234.233 2044.77 290.093 2044.77 359C2044.77 427.907 1988.91 483.767 1920 483.767Z" stroke="url(#paint19_radial_550_1507)" stroke-width="2" stroke-miterlimit="10"/>
<path d="M1920 467.484C1860.09 467.484 1811.52 418.914 1811.52 359C1811.52 299.086 1860.09 250.516 1920 250.516C1979.91 250.516 2028.48 299.086 2028.48 359C2028.48 418.914 1979.91 467.484 1920 467.484Z" stroke="url(#paint20_radial_550_1507)" stroke-width="2" stroke-miterlimit="10"/>
<path d="M1920 450.713C1869.35 450.713 1828.29 409.652 1828.29 359C1828.29 308.348 1869.35 267.287 1920 267.287C1970.65 267.287 2011.71 308.348 2011.71 359C2011.71 409.652 1970.65 450.713 1920 450.713Z" stroke="url(#paint21_radial_550_1507)" stroke-width="2" stroke-miterlimit="10"/>
<path d="M1920 433.439C1878.89 433.439 1845.56 400.111 1845.56 359C1845.56 317.888 1878.89 284.561 1920 284.561C1961.11 284.561 1994.44 317.888 1994.44 359C1994.44 400.111 1961.11 433.439 1920 433.439Z" stroke="url(#paint22_radial_550_1507)" stroke-width="2" stroke-miterlimit="10"/>
<path d="M1920 415.645C1888.72 415.645 1863.35 390.284 1863.35 359C1863.35 327.715 1888.72 302.354 1920 302.354C1951.28 302.354 1976.65 327.715 1976.65 359C1976.65 390.284 1951.28 415.645 1920 415.645Z" stroke="url(#paint23_radial_550_1507)" stroke-width="2" stroke-miterlimit="10"/>
<path d="M1920 397.319C1898.84 397.319 1881.68 380.163 1881.68 359C1881.68 337.837 1898.84 320.682 1920 320.682C1941.16 320.682 1958.32 337.837 1958.32 359C1958.32 380.163 1941.16 397.319 1920 397.319Z" stroke="url(#paint24_radial_550_1507)" stroke-width="2" stroke-miterlimit="10"/>
<path d="M1920 378.443C1909.26 378.443 1900.56 369.738 1900.56 359C1900.56 348.262 1909.26 339.557 1920 339.557C1930.74 339.557 1939.44 348.262 1939.44 359C1939.44 369.738 1930.74 378.443 1920 378.443Z" stroke="url(#paint25_radial_550_1507)" stroke-width="2" stroke-miterlimit="10"/>
<path d="M-1.01924e-05 717C-197.718 717 -358 556.718 -358 359C-358 161.282 -197.718 1 -1.01924e-05 1C197.718 1 358 161.282 358 359C358 556.718 197.718 717 -1.01924e-05 717Z" stroke="url(#paint26_radial_550_1507)" stroke-width="2" stroke-miterlimit="10"/>
<path d="M-1.01924e-05 707.714C-192.589 707.714 -348.714 551.589 -348.714 359C-348.714 166.411 -192.589 10.2864 -1.01924e-05 10.2864C192.589 10.2864 348.714 166.411 348.714 359C348.714 551.589 192.589 707.714 -1.01924e-05 707.714Z" stroke="url(#paint27_radial_550_1507)" stroke-width="2" stroke-miterlimit="10"/>
<path d="M-1.01924e-05 698.149C-187.307 698.149 -339.149 546.307 -339.149 359C-339.149 171.693 -187.307 19.8509 -1.01924e-05 19.8509C187.307 19.8509 339.149 171.693 339.149 359C339.149 546.307 187.307 698.149 -1.01924e-05 698.149Z" stroke="url(#paint28_radial_550_1507)" stroke-width="2" stroke-miterlimit="10"/>
<path d="M-5.45141e-05 688.298C-181.866 688.298 -329.298 540.866 -329.298 359C-329.298 177.134 -181.866 29.7019 -5.45141e-05 29.7019C181.866 29.7019 329.298 177.134 329.298 359C329.298 540.866 181.866 688.298 -5.45141e-05 688.298Z" stroke="url(#paint29_radial_550_1507)" stroke-width="2" stroke-miterlimit="10"/>
<path d="M-1.01924e-05 678.151C-176.262 678.151 -319.151 535.262 -319.151 359C-319.151 182.738 -176.262 39.8489 -1.01924e-05 39.8489C176.262 39.8489 319.151 182.738 319.151 359C319.151 535.262 176.262 678.151 -1.01924e-05 678.151Z" stroke="url(#paint30_radial_550_1507)" stroke-width="2" stroke-miterlimit="10"/>
<path d="M1.19684e-05 667.7C-170.49 667.7 -308.7 529.49 -308.7 359C-308.7 188.51 -170.49 50.3 1.19684e-05 50.3C170.49 50.3 308.7 188.51 308.7 359C308.7 529.49 170.49 667.7 1.19684e-05 667.7Z" stroke="url(#paint31_radial_550_1507)" stroke-width="2" stroke-miterlimit="10"/>
<path d="M3.41293e-05 656.935C-164.545 656.935 -297.935 523.545 -297.935 359C-297.935 194.455 -164.545 61.0652 3.41293e-05 61.0652C164.545 61.0652 297.935 194.455 297.935 359C297.935 523.545 164.545 656.935 3.41293e-05 656.935Z" stroke="url(#paint32_radial_550_1507)" stroke-width="2" stroke-miterlimit="10"/>
<path d="M-1.01924e-05 645.847C-158.421 645.847 -286.847 517.421 -286.847 359C-286.847 200.579 -158.421 72.1526 -1.01924e-05 72.1526C158.421 72.1526 286.847 200.579 286.847 359C286.847 517.421 158.421 645.847 -1.01924e-05 645.847Z" stroke="url(#paint33_radial_550_1507)" stroke-width="2" stroke-miterlimit="10"/>
<path d="M1.19684e-05 634.427C-152.114 634.427 -275.427 511.114 -275.427 359C-275.427 206.886 -152.114 83.5735 1.19684e-05 83.5735C152.114 83.5735 275.427 206.886 275.427 359C275.427 511.114 152.114 634.427 1.19684e-05 634.427Z" stroke="url(#paint34_radial_550_1507)" stroke-width="2" stroke-miterlimit="10"/>
<path d="M-1.01924e-05 622.664C-145.618 622.664 -263.664 504.618 -263.664 359C-263.664 213.382 -145.618 95.336 -1.01924e-05 95.336C145.618 95.336 263.664 213.382 263.664 359C263.664 504.618 145.618 622.664 -1.01924e-05 622.664Z" stroke="url(#paint35_radial_550_1507)" stroke-width="2" stroke-miterlimit="10"/>
<path d="M-5.45141e-05 610.547C-138.926 610.547 -251.547 497.926 -251.547 359C-251.547 220.075 -138.926 107.453 -5.45141e-05 107.453C138.925 107.453 251.547 220.075 251.547 359C251.547 497.926 138.925 610.547 -5.45141e-05 610.547Z" stroke="url(#paint36_radial_550_1507)" stroke-width="2" stroke-miterlimit="10"/>
<path d="M1.19684e-05 598.068C-132.034 598.068 -239.068 491.034 -239.068 359C-239.068 226.966 -132.034 119.931 1.19684e-05 119.931C132.034 119.931 239.069 226.966 239.069 359C239.069 491.034 132.034 598.068 1.19684e-05 598.068Z" stroke="url(#paint37_radial_550_1507)" stroke-width="2" stroke-miterlimit="10"/>
<path d="M-1.01924e-05 585.214C-124.935 585.214 -226.214 483.935 -226.214 359C-226.214 234.065 -124.935 132.786 -1.01924e-05 132.786C124.935 132.786 226.214 234.065 226.214 359C226.214 483.935 124.935 585.214 -1.01924e-05 585.214Z" stroke="url(#paint38_radial_550_1507)" stroke-width="2" stroke-miterlimit="10"/>
<path d="M-3.23532e-05 571.975C-117.623 571.975 -212.975 476.623 -212.975 359C-212.975 241.377 -117.623 146.025 -3.23532e-05 146.025C117.623 146.025 212.975 241.377 212.975 359C212.975 476.623 117.623 571.975 -3.23532e-05 571.975Z" stroke="url(#paint39_radial_550_1507)" stroke-width="2" stroke-miterlimit="10"/>
<path d="M-5.45141e-05 558.338C-110.091 558.338 -199.338 469.091 -199.338 359C-199.338 248.909 -110.091 159.662 -5.45141e-05 159.662C110.091 159.662 199.338 248.909 199.338 359C199.338 469.091 110.091 558.338 -5.45141e-05 558.338Z" stroke="url(#paint40_radial_550_1507)" stroke-width="2" stroke-miterlimit="10"/>
<path d="M1.19684e-05 544.293C-102.334 544.293 -185.293 461.334 -185.293 359C-185.293 256.666 -102.334 173.707 1.19684e-05 173.707C102.334 173.707 185.293 256.666 185.293 359C185.293 461.334 102.334 544.293 1.19684e-05 544.293Z" stroke="url(#paint41_radial_550_1507)" stroke-width="2" stroke-miterlimit="10"/>
<path d="M1.19684e-05 529.825C-94.3439 529.825 -170.825 453.344 -170.825 359C-170.825 264.656 -94.3439 188.175 1.19684e-05 188.175C94.3439 188.175 170.825 264.656 170.825 359C170.825 453.344 94.3439 529.825 1.19684e-05 529.825Z" stroke="url(#paint42_radial_550_1507)" stroke-width="2" stroke-miterlimit="10"/>
<path d="M-1.01924e-05 514.924C-86.1145 514.924 -155.924 445.114 -155.924 359C-155.924 272.885 -86.1145 203.076 -1.01924e-05 203.076C86.1144 203.076 155.924 272.885 155.924 359C155.924 445.114 86.1144 514.924 -1.01924e-05 514.924Z" stroke="url(#paint43_radial_550_1507)" stroke-width="2" stroke-miterlimit="10"/>
<path d="M-1.01924e-05 499.576C-77.6379 499.576 -140.576 436.638 -140.576 359C-140.576 281.362 -77.6379 218.424 -1.01924e-05 218.424C77.6379 218.424 140.576 281.362 140.576 359C140.576 436.638 77.6379 499.576 -1.01924e-05 499.576Z" stroke="url(#paint44_radial_550_1507)" stroke-width="2" stroke-miterlimit="10"/>
<path d="M-1.01924e-05 483.767C-68.907 483.767 -124.767 427.907 -124.767 359C-124.767 290.093 -68.907 234.233 -1.01924e-05 234.233C68.907 234.233 124.767 290.093 124.767 359C124.767 427.907 68.907 483.767 -1.01924e-05 483.767Z" stroke="url(#paint45_radial_550_1507)" stroke-width="2" stroke-miterlimit="10"/>
<path d="M-3.23532e-05 467.484C-59.9138 467.484 -108.484 418.914 -108.484 359C-108.484 299.086 -59.9138 250.516 -3.23532e-05 250.516C59.9138 250.516 108.483 299.086 108.483 359C108.483 418.914 59.9138 467.484 -3.23532e-05 467.484Z" stroke="url(#paint46_radial_550_1507)" stroke-width="2" stroke-miterlimit="10"/>
<path d="M-1.01924e-05 450.713C-50.6519 450.713 -91.7134 409.652 -91.7134 359C-91.7134 308.348 -50.6519 267.287 -1.01924e-05 267.287C50.6519 267.287 91.7134 308.348 91.7134 359C91.7134 409.652 50.6519 450.713 -1.01924e-05 450.713Z" stroke="url(#paint47_radial_550_1507)" stroke-width="2" stroke-miterlimit="10"/>
<path d="M-1.01924e-05 433.439C-41.1115 433.439 -74.439 400.111 -74.439 359C-74.439 317.888 -41.1115 284.561 -1.01924e-05 284.561C41.1115 284.561 74.439 317.888 74.439 359C74.439 400.111 41.1115 433.439 -1.01924e-05 433.439Z" stroke="url(#paint48_radial_550_1507)" stroke-width="2" stroke-miterlimit="10"/>
<path d="M1.19684e-05 415.645C-31.2844 415.645 -56.6455 390.284 -56.6455 359C-56.6455 327.715 -31.2844 302.354 1.19684e-05 302.354C31.2845 302.354 56.6455 327.715 56.6455 359C56.6455 390.284 31.2845 415.645 1.19684e-05 415.645Z" stroke="url(#paint49_radial_550_1507)" stroke-width="2" stroke-miterlimit="10"/>
<path d="M-1.01924e-05 397.319C-21.1627 397.319 -38.3184 380.163 -38.3184 359C-38.3184 337.837 -21.1627 320.682 -1.01924e-05 320.682C21.1627 320.682 38.3185 337.837 38.3185 359C38.3185 380.163 21.1627 397.319 -1.01924e-05 397.319Z" stroke="url(#paint50_radial_550_1507)" stroke-width="2" stroke-miterlimit="10"/>
<path d="M-1.01924e-05 378.443C-10.7381 378.443 -19.4431 369.738 -19.4431 359C-19.4431 348.262 -10.7381 339.557 -1.01924e-05 339.557C10.7381 339.557 19.4431 348.262 19.4431 359C19.4431 369.738 10.7381 378.443 -1.01924e-05 378.443Z" stroke="url(#paint51_radial_550_1507)" stroke-width="2" stroke-miterlimit="10"/>
<defs>
<radialGradient id="paint0_radial_550_1507" cx="0" cy="0" r="1" gradientUnits="userSpaceOnUse" gradientTransform="translate(1920 359) rotate(90) scale(358)">
<stop stop-color="#5EBA72"/>
<stop offset="0.901042" stop-color="#5DBC72" stop-opacity="0"/>
</radialGradient>
<radialGradient id="paint1_radial_550_1507" cx="0" cy="0" r="1" gradientUnits="userSpaceOnUse" gradientTransform="translate(1920 359) rotate(90) scale(358)">
<stop stop-color="#5EBA72"/>
<stop offset="0.901042" stop-color="#5DBC72" stop-opacity="0"/>
</radialGradient>
<radialGradient id="paint2_radial_550_1507" cx="0" cy="0" r="1" gradientUnits="userSpaceOnUse" gradientTransform="translate(1920 359) rotate(90) scale(358)">
<stop stop-color="#5EBA72"/>
<stop offset="0.901042" stop-color="#5DBC72" stop-opacity="0"/>
</radialGradient>
<radialGradient id="paint3_radial_550_1507" cx="0" cy="0" r="1" gradientUnits="userSpaceOnUse" gradientTransform="translate(1920 359) rotate(90) scale(358)">
<stop stop-color="#5EBA72"/>
<stop offset="0.901042" stop-color="#5DBC72" stop-opacity="0"/>
</radialGradient>
<radialGradient id="paint4_radial_550_1507" cx="0" cy="0" r="1" gradientUnits="userSpaceOnUse" gradientTransform="translate(1920 359) rotate(90) scale(358)">
<stop stop-color="#5EBA72"/>
<stop offset="0.901042" stop-color="#5DBC72" stop-opacity="0"/>
</radialGradient>
<radialGradient id="paint5_radial_550_1507" cx="0" cy="0" r="1" gradientUnits="userSpaceOnUse" gradientTransform="translate(1920 359) rotate(90) scale(358)">
<stop stop-color="#5EBA72"/>
<stop offset="0.901042" stop-color="#5DBC72" stop-opacity="0"/>
</radialGradient>
<radialGradient id="paint6_radial_550_1507" cx="0" cy="0" r="1" gradientUnits="userSpaceOnUse" gradientTransform="translate(1920 359) rotate(90) scale(358)">
<stop stop-color="#5EBA72"/>
<stop offset="0.901042" stop-color="#5DBC72" stop-opacity="0"/>
</radialGradient>
<radialGradient id="paint7_radial_550_1507" cx="0" cy="0" r="1" gradientUnits="userSpaceOnUse" gradientTransform="translate(1920 359) rotate(90) scale(358)">
<stop stop-color="#5EBA72"/>
<stop offset="0.901042" stop-color="#5DBC72" stop-opacity="0"/>
</radialGradient>
<radialGradient id="paint8_radial_550_1507" cx="0" cy="0" r="1" gradientUnits="userSpaceOnUse" gradientTransform="translate(1920 359) rotate(90) scale(358)">
<stop stop-color="#5EBA72"/>
<stop offset="0.901042" stop-color="#5DBC72" stop-opacity="0"/>
</radialGradient>
<radialGradient id="paint9_radial_550_1507" cx="0" cy="0" r="1" gradientUnits="userSpaceOnUse" gradientTransform="translate(1920 359) rotate(90) scale(358)">
<stop stop-color="#5EBA72"/>
<stop offset="0.901042" stop-color="#5DBC72" stop-opacity="0"/>
</radialGradient>
<radialGradient id="paint10_radial_550_1507" cx="0" cy="0" r="1" gradientUnits="userSpaceOnUse" gradientTransform="translate(1920 359) rotate(90) scale(358)">
<stop stop-color="#5EBA72"/>
<stop offset="0.901042" stop-color="#5DBC72" stop-opacity="0"/>
</radialGradient>
<radialGradient id="paint11_radial_550_1507" cx="0" cy="0" r="1" gradientUnits="userSpaceOnUse" gradientTransform="translate(1920 359) rotate(90) scale(358)">
<stop stop-color="#5EBA72"/>
<stop offset="0.901042" stop-color="#5DBC72" stop-opacity="0"/>
</radialGradient>
<radialGradient id="paint12_radial_550_1507" cx="0" cy="0" r="1" gradientUnits="userSpaceOnUse" gradientTransform="translate(1920 359) rotate(90) scale(358)">
<stop stop-color="#5EBA72"/>
<stop offset="0.901042" stop-color="#5DBC72" stop-opacity="0"/>
</radialGradient>
<radialGradient id="paint13_radial_550_1507" cx="0" cy="0" r="1" gradientUnits="userSpaceOnUse" gradientTransform="translate(1920 359) rotate(90) scale(358)">
<stop stop-color="#5EBA72"/>
<stop offset="0.901042" stop-color="#5DBC72" stop-opacity="0"/>
</radialGradient>
<radialGradient id="paint14_radial_550_1507" cx="0" cy="0" r="1" gradientUnits="userSpaceOnUse" gradientTransform="translate(1920 359) rotate(90) scale(358)">
<stop stop-color="#5EBA72"/>
<stop offset="0.901042" stop-color="#5DBC72" stop-opacity="0"/>
</radialGradient>
<radialGradient id="paint15_radial_550_1507" cx="0" cy="0" r="1" gradientUnits="userSpaceOnUse" gradientTransform="translate(1920 359) rotate(90) scale(358)">
<stop stop-color="#5EBA72"/>
<stop offset="0.901042" stop-color="#5DBC72" stop-opacity="0"/>
</radialGradient>
<radialGradient id="paint16_radial_550_1507" cx="0" cy="0" r="1" gradientUnits="userSpaceOnUse" gradientTransform="translate(1920 359) rotate(90) scale(358)">
<stop stop-color="#5EBA72"/>
<stop offset="0.901042" stop-color="#5DBC72" stop-opacity="0"/>
</radialGradient>
<radialGradient id="paint17_radial_550_1507" cx="0" cy="0" r="1" gradientUnits="userSpaceOnUse" gradientTransform="translate(1920 359) rotate(90) scale(358)">
<stop stop-color="#5EBA72"/>
<stop offset="0.901042" stop-color="#5DBC72" stop-opacity="0"/>
</radialGradient>
<radialGradient id="paint18_radial_550_1507" cx="0" cy="0" r="1" gradientUnits="userSpaceOnUse" gradientTransform="translate(1920 359) rotate(90) scale(358)">
<stop stop-color="#5EBA72"/>
<stop offset="0.901042" stop-color="#5DBC72" stop-opacity="0"/>
</radialGradient>
<radialGradient id="paint19_radial_550_1507" cx="0" cy="0" r="1" gradientUnits="userSpaceOnUse" gradientTransform="translate(1920 359) rotate(90) scale(358)">
<stop stop-color="#5EBA72"/>
<stop offset="0.901042" stop-color="#5DBC72" stop-opacity="0"/>
</radialGradient>
<radialGradient id="paint20_radial_550_1507" cx="0" cy="0" r="1" gradientUnits="userSpaceOnUse" gradientTransform="translate(1920 359) rotate(90) scale(358)">
<stop stop-color="#5EBA72"/>
<stop offset="0.901042" stop-color="#5DBC72" stop-opacity="0"/>
</radialGradient>
<radialGradient id="paint21_radial_550_1507" cx="0" cy="0" r="1" gradientUnits="userSpaceOnUse" gradientTransform="translate(1920 359) rotate(90) scale(358)">
<stop stop-color="#5EBA72"/>
<stop offset="0.901042" stop-color="#5DBC72" stop-opacity="0"/>
</radialGradient>
<radialGradient id="paint22_radial_550_1507" cx="0" cy="0" r="1" gradientUnits="userSpaceOnUse" gradientTransform="translate(1920 359) rotate(90) scale(358)">
<stop stop-color="#5EBA72"/>
<stop offset="0.901042" stop-color="#5DBC72" stop-opacity="0"/>
</radialGradient>
<radialGradient id="paint23_radial_550_1507" cx="0" cy="0" r="1" gradientUnits="userSpaceOnUse" gradientTransform="translate(1920 359) rotate(90) scale(358)">
<stop stop-color="#5EBA72"/>
<stop offset="0.901042" stop-color="#5DBC72" stop-opacity="0"/>
</radialGradient>
<radialGradient id="paint24_radial_550_1507" cx="0" cy="0" r="1" gradientUnits="userSpaceOnUse" gradientTransform="translate(1920 359) rotate(90) scale(358)">
<stop stop-color="#5EBA72"/>
<stop offset="0.901042" stop-color="#5DBC72" stop-opacity="0"/>
</radialGradient>
<radialGradient id="paint25_radial_550_1507" cx="0" cy="0" r="1" gradientUnits="userSpaceOnUse" gradientTransform="translate(1920 359) rotate(90) scale(358)">
<stop stop-color="#5EBA72"/>
<stop offset="0.901042" stop-color="#5DBC72" stop-opacity="0"/>
</radialGradient>
<radialGradient id="paint26_radial_550_1507" cx="0" cy="0" r="1" gradientUnits="userSpaceOnUse" gradientTransform="translate(0 359) rotate(90) scale(358)">
<stop stop-color="#5EBA72"/>
<stop offset="0.901042" stop-color="#5DBC72" stop-opacity="0"/>
</radialGradient>
<radialGradient id="paint27_radial_550_1507" cx="0" cy="0" r="1" gradientUnits="userSpaceOnUse" gradientTransform="translate(0 359) rotate(90) scale(358)">
<stop stop-color="#5EBA72"/>
<stop offset="0.901042" stop-color="#5DBC72" stop-opacity="0"/>
</radialGradient>
<radialGradient id="paint28_radial_550_1507" cx="0" cy="0" r="1" gradientUnits="userSpaceOnUse" gradientTransform="translate(0 359) rotate(90) scale(358)">
<stop stop-color="#5EBA72"/>
<stop offset="0.901042" stop-color="#5DBC72" stop-opacity="0"/>
</radialGradient>
<radialGradient id="paint29_radial_550_1507" cx="0" cy="0" r="1" gradientUnits="userSpaceOnUse" gradientTransform="translate(0 359) rotate(90) scale(358)">
<stop stop-color="#5EBA72"/>
<stop offset="0.901042" stop-color="#5DBC72" stop-opacity="0"/>
</radialGradient>
<radialGradient id="paint30_radial_550_1507" cx="0" cy="0" r="1" gradientUnits="userSpaceOnUse" gradientTransform="translate(0 359) rotate(90) scale(358)">
<stop stop-color="#5EBA72"/>
<stop offset="0.901042" stop-color="#5DBC72" stop-opacity="0"/>
</radialGradient>
<radialGradient id="paint31_radial_550_1507" cx="0" cy="0" r="1" gradientUnits="userSpaceOnUse" gradientTransform="translate(0 359) rotate(90) scale(358)">
<stop stop-color="#5EBA72"/>
<stop offset="0.901042" stop-color="#5DBC72" stop-opacity="0"/>
</radialGradient>
<radialGradient id="paint32_radial_550_1507" cx="0" cy="0" r="1" gradientUnits="userSpaceOnUse" gradientTransform="translate(0 359) rotate(90) scale(358)">
<stop stop-color="#5EBA72"/>
<stop offset="0.901042" stop-color="#5DBC72" stop-opacity="0"/>
</radialGradient>
<radialGradient id="paint33_radial_550_1507" cx="0" cy="0" r="1" gradientUnits="userSpaceOnUse" gradientTransform="translate(0 359) rotate(90) scale(358)">
<stop stop-color="#5EBA72"/>
<stop offset="0.901042" stop-color="#5DBC72" stop-opacity="0"/>
</radialGradient>
<radialGradient id="paint34_radial_550_1507" cx="0" cy="0" r="1" gradientUnits="userSpaceOnUse" gradientTransform="translate(0 359) rotate(90) scale(358)">
<stop stop-color="#5EBA72"/>
<stop offset="0.901042" stop-color="#5DBC72" stop-opacity="0"/>
</radialGradient>
<radialGradient id="paint35_radial_550_1507" cx="0" cy="0" r="1" gradientUnits="userSpaceOnUse" gradientTransform="translate(0 359) rotate(90) scale(358)">
<stop stop-color="#5EBA72"/>
<stop offset="0.901042" stop-color="#5DBC72" stop-opacity="0"/>
</radialGradient>
<radialGradient id="paint36_radial_550_1507" cx="0" cy="0" r="1" gradientUnits="userSpaceOnUse" gradientTransform="translate(0 359) rotate(90) scale(358)">
<stop stop-color="#5EBA72"/>
<stop offset="0.901042" stop-color="#5DBC72" stop-opacity="0"/>
</radialGradient>
<radialGradient id="paint37_radial_550_1507" cx="0" cy="0" r="1" gradientUnits="userSpaceOnUse" gradientTransform="translate(0 359) rotate(90) scale(358)">
<stop stop-color="#5EBA72"/>
<stop offset="0.901042" stop-color="#5DBC72" stop-opacity="0"/>
</radialGradient>
<radialGradient id="paint38_radial_550_1507" cx="0" cy="0" r="1" gradientUnits="userSpaceOnUse" gradientTransform="translate(0 359) rotate(90) scale(358)">
<stop stop-color="#5EBA72"/>
<stop offset="0.901042" stop-color="#5DBC72" stop-opacity="0"/>
</radialGradient>
<radialGradient id="paint39_radial_550_1507" cx="0" cy="0" r="1" gradientUnits="userSpaceOnUse" gradientTransform="translate(0 359) rotate(90) scale(358)">
<stop stop-color="#5EBA72"/>
<stop offset="0.901042" stop-color="#5DBC72" stop-opacity="0"/>
</radialGradient>
<radialGradient id="paint40_radial_550_1507" cx="0" cy="0" r="1" gradientUnits="userSpaceOnUse" gradientTransform="translate(0 359) rotate(90) scale(358)">
<stop stop-color="#5EBA72"/>
<stop offset="0.901042" stop-color="#5DBC72" stop-opacity="0"/>
</radialGradient>
<radialGradient id="paint41_radial_550_1507" cx="0" cy="0" r="1" gradientUnits="userSpaceOnUse" gradientTransform="translate(0 359) rotate(90) scale(358)">
<stop stop-color="#5EBA72"/>
<stop offset="0.901042" stop-color="#5DBC72" stop-opacity="0"/>
</radialGradient>
<radialGradient id="paint42_radial_550_1507" cx="0" cy="0" r="1" gradientUnits="userSpaceOnUse" gradientTransform="translate(0 359) rotate(90) scale(358)">
<stop stop-color="#5EBA72"/>
<stop offset="0.901042" stop-color="#5DBC72" stop-opacity="0"/>
</radialGradient>
<radialGradient id="paint43_radial_550_1507" cx="0" cy="0" r="1" gradientUnits="userSpaceOnUse" gradientTransform="translate(0 359) rotate(90) scale(358)">
<stop stop-color="#5EBA72"/>
<stop offset="0.901042" stop-color="#5DBC72" stop-opacity="0"/>
</radialGradient>
<radialGradient id="paint44_radial_550_1507" cx="0" cy="0" r="1" gradientUnits="userSpaceOnUse" gradientTransform="translate(0 359) rotate(90) scale(358)">
<stop stop-color="#5EBA72"/>
<stop offset="0.901042" stop-color="#5DBC72" stop-opacity="0"/>
</radialGradient>
<radialGradient id="paint45_radial_550_1507" cx="0" cy="0" r="1" gradientUnits="userSpaceOnUse" gradientTransform="translate(0 359) rotate(90) scale(358)">
<stop stop-color="#5EBA72"/>
<stop offset="0.901042" stop-color="#5DBC72" stop-opacity="0"/>
</radialGradient>
<radialGradient id="paint46_radial_550_1507" cx="0" cy="0" r="1" gradientUnits="userSpaceOnUse" gradientTransform="translate(0 359) rotate(90) scale(358)">
<stop stop-color="#5EBA72"/>
<stop offset="0.901042" stop-color="#5DBC72" stop-opacity="0"/>
</radialGradient>
<radialGradient id="paint47_radial_550_1507" cx="0" cy="0" r="1" gradientUnits="userSpaceOnUse" gradientTransform="translate(0 359) rotate(90) scale(358)">
<stop stop-color="#5EBA72"/>
<stop offset="0.901042" stop-color="#5DBC72" stop-opacity="0"/>
</radialGradient>
<radialGradient id="paint48_radial_550_1507" cx="0" cy="0" r="1" gradientUnits="userSpaceOnUse" gradientTransform="translate(0 359) rotate(90) scale(358)">
<stop stop-color="#5EBA72"/>
<stop offset="0.901042" stop-color="#5DBC72" stop-opacity="0"/>
</radialGradient>
<radialGradient id="paint49_radial_550_1507" cx="0" cy="0" r="1" gradientUnits="userSpaceOnUse" gradientTransform="translate(0 359) rotate(90) scale(358)">
<stop stop-color="#5EBA72"/>
<stop offset="0.901042" stop-color="#5DBC72" stop-opacity="0"/>
</radialGradient>
<radialGradient id="paint50_radial_550_1507" cx="0" cy="0" r="1" gradientUnits="userSpaceOnUse" gradientTransform="translate(0 359) rotate(90) scale(358)">
<stop stop-color="#5EBA72"/>
<stop offset="0.901042" stop-color="#5DBC72" stop-opacity="0"/>
</radialGradient>
<radialGradient id="paint51_radial_550_1507" cx="0" cy="0" r="1" gradientUnits="userSpaceOnUse" gradientTransform="translate(0 359) rotate(90) scale(358)">
<stop stop-color="#5EBA72"/>
<stop offset="0.901042" stop-color="#5DBC72" stop-opacity="0"/>
</radialGradient>
</defs>
</svg>
