<svg width="768" height="718" viewBox="0 0 768 718" fill="none" xmlns="http://www.w3.org/2000/svg">
<path d="M0.99999 717C-196.718 717 -357 556.718 -357 359C-357 161.282 -196.718 1 0.99999 1C198.718 1 359 161.282 359 359C359 556.718 198.718 717 0.99999 717Z" stroke="url(#paint0_radial_551_1508)" stroke-width="2" stroke-miterlimit="10"/>
<path d="M0.99999 707.714C-191.589 707.714 -347.714 551.589 -347.714 359C-347.714 166.411 -191.589 10.2864 0.99999 10.2864C193.589 10.2864 349.714 166.411 349.714 359C349.714 551.589 193.589 707.714 0.99999 707.714Z" stroke="url(#paint1_radial_551_1508)" stroke-width="2" stroke-miterlimit="10"/>
<path d="M0.99999 698.149C-186.307 698.149 -338.149 546.307 -338.149 359C-338.149 171.693 -186.307 19.8509 0.99999 19.8509C188.307 19.8509 340.149 171.693 340.149 359C340.149 546.307 188.307 698.149 0.99999 698.149Z" stroke="url(#paint2_radial_551_1508)" stroke-width="2" stroke-miterlimit="10"/>
<path d="M0.999945 688.298C-180.866 688.298 -328.298 540.866 -328.298 359C-328.298 177.134 -180.866 29.7019 0.999945 29.7019C182.866 29.7019 330.298 177.134 330.298 359C330.298 540.866 182.866 688.298 0.999945 688.298Z" stroke="url(#paint3_radial_551_1508)" stroke-width="2" stroke-miterlimit="10"/>
<path d="M0.99999 678.151C-175.262 678.151 -318.151 535.262 -318.151 359C-318.151 182.738 -175.262 39.8489 0.99999 39.8489C177.262 39.8489 320.151 182.738 320.151 359C320.151 535.262 177.262 678.151 0.99999 678.151Z" stroke="url(#paint4_radial_551_1508)" stroke-width="2" stroke-miterlimit="10"/>
<path d="M1.00001 667.7C-169.49 667.7 -307.7 529.49 -307.7 359C-307.7 188.51 -169.49 50.3 1.00001 50.3C171.49 50.3 309.7 188.51 309.7 359C309.7 529.49 171.49 667.7 1.00001 667.7Z" stroke="url(#paint5_radial_551_1508)" stroke-width="2" stroke-miterlimit="10"/>
<path d="M1.00003 656.935C-163.545 656.935 -296.935 523.545 -296.935 359C-296.935 194.455 -163.545 61.0652 1.00003 61.0652C165.545 61.0652 298.935 194.455 298.935 359C298.935 523.545 165.545 656.935 1.00003 656.935Z" stroke="url(#paint6_radial_551_1508)" stroke-width="2" stroke-miterlimit="10"/>
<path d="M0.99999 645.847C-157.421 645.847 -285.847 517.421 -285.847 359C-285.847 200.579 -157.421 72.1526 0.99999 72.1526C159.421 72.1526 287.847 200.579 287.847 359C287.847 517.421 159.421 645.847 0.99999 645.847Z" stroke="url(#paint7_radial_551_1508)" stroke-width="2" stroke-miterlimit="10"/>
<path d="M1.00001 634.427C-151.114 634.427 -274.427 511.114 -274.427 359C-274.427 206.886 -151.114 83.5735 1.00001 83.5735C153.114 83.5735 276.427 206.886 276.427 359C276.427 511.114 153.114 634.427 1.00001 634.427Z" stroke="url(#paint8_radial_551_1508)" stroke-width="2" stroke-miterlimit="10"/>
<path d="M0.99999 622.664C-144.618 622.664 -262.664 504.618 -262.664 359C-262.664 213.382 -144.618 95.336 0.99999 95.336C146.618 95.336 264.664 213.382 264.664 359C264.664 504.618 146.618 622.664 0.99999 622.664Z" stroke="url(#paint9_radial_551_1508)" stroke-width="2" stroke-miterlimit="10"/>
<path d="M0.999945 610.547C-137.926 610.547 -250.547 497.926 -250.547 359C-250.547 220.075 -137.926 107.453 0.999945 107.453C139.925 107.453 252.547 220.075 252.547 359C252.547 497.926 139.925 610.547 0.999945 610.547Z" stroke="url(#paint10_radial_551_1508)" stroke-width="2" stroke-miterlimit="10"/>
<path d="M1.00001 598.068C-131.034 598.068 -238.068 491.034 -238.068 359C-238.068 226.966 -131.034 119.931 1.00001 119.931C133.034 119.931 240.069 226.966 240.069 359C240.069 491.034 133.034 598.068 1.00001 598.068Z" stroke="url(#paint11_radial_551_1508)" stroke-width="2" stroke-miterlimit="10"/>
<path d="M0.99999 585.214C-123.935 585.214 -225.214 483.935 -225.214 359C-225.214 234.065 -123.935 132.786 0.99999 132.786C125.935 132.786 227.214 234.065 227.214 359C227.214 483.935 125.935 585.214 0.99999 585.214Z" stroke="url(#paint12_radial_551_1508)" stroke-width="2" stroke-miterlimit="10"/>
<path d="M0.999968 571.975C-116.623 571.975 -211.975 476.623 -211.975 359C-211.975 241.377 -116.623 146.025 0.999968 146.025C118.623 146.025 213.975 241.377 213.975 359C213.975 476.623 118.623 571.975 0.999968 571.975Z" stroke="url(#paint13_radial_551_1508)" stroke-width="2" stroke-miterlimit="10"/>
<path d="M0.999945 558.338C-109.091 558.338 -198.338 469.091 -198.338 359C-198.338 248.909 -109.091 159.662 0.999945 159.662C111.091 159.662 200.338 248.909 200.338 359C200.338 469.091 111.091 558.338 0.999945 558.338Z" stroke="url(#paint14_radial_551_1508)" stroke-width="2" stroke-miterlimit="10"/>
<path d="M1.00001 544.293C-101.334 544.293 -184.293 461.334 -184.293 359C-184.293 256.666 -101.334 173.707 1.00001 173.707C103.334 173.707 186.293 256.666 186.293 359C186.293 461.334 103.334 544.293 1.00001 544.293Z" stroke="url(#paint15_radial_551_1508)" stroke-width="2" stroke-miterlimit="10"/>
<path d="M1.00001 529.825C-93.3439 529.825 -169.825 453.344 -169.825 359C-169.825 264.656 -93.3439 188.175 1.00001 188.175C95.3439 188.175 171.825 264.656 171.825 359C171.825 453.344 95.3439 529.825 1.00001 529.825Z" stroke="url(#paint16_radial_551_1508)" stroke-width="2" stroke-miterlimit="10"/>
<path d="M0.99999 514.924C-85.1145 514.924 -154.924 445.114 -154.924 359C-154.924 272.885 -85.1145 203.076 0.99999 203.076C87.1144 203.076 156.924 272.885 156.924 359C156.924 445.114 87.1144 514.924 0.99999 514.924Z" stroke="url(#paint17_radial_551_1508)" stroke-width="2" stroke-miterlimit="10"/>
<path d="M0.99999 499.576C-76.6379 499.576 -139.576 436.638 -139.576 359C-139.576 281.362 -76.6379 218.424 0.99999 218.424C78.6379 218.424 141.576 281.362 141.576 359C141.576 436.638 78.6379 499.576 0.99999 499.576Z" stroke="url(#paint18_radial_551_1508)" stroke-width="2" stroke-miterlimit="10"/>
<path d="M0.99999 483.767C-67.907 483.767 -123.767 427.907 -123.767 359C-123.767 290.093 -67.907 234.233 0.99999 234.233C69.907 234.233 125.767 290.093 125.767 359C125.767 427.907 69.907 483.767 0.99999 483.767Z" stroke="url(#paint19_radial_551_1508)" stroke-width="2" stroke-miterlimit="10"/>
<path d="M0.999968 467.484C-58.9138 467.484 -107.484 418.914 -107.484 359C-107.484 299.086 -58.9138 250.516 0.999968 250.516C60.9138 250.516 109.483 299.086 109.483 359C109.483 418.914 60.9138 467.484 0.999968 467.484Z" stroke="url(#paint20_radial_551_1508)" stroke-width="2" stroke-miterlimit="10"/>
<path d="M0.99999 450.713C-49.6519 450.713 -90.7134 409.652 -90.7134 359C-90.7134 308.348 -49.6519 267.287 0.99999 267.287C51.6519 267.287 92.7134 308.348 92.7134 359C92.7134 409.652 51.6519 450.713 0.99999 450.713Z" stroke="url(#paint21_radial_551_1508)" stroke-width="2" stroke-miterlimit="10"/>
<path d="M0.99999 433.439C-40.1115 433.439 -73.439 400.111 -73.439 359C-73.439 317.888 -40.1115 284.561 0.99999 284.561C42.1115 284.561 75.439 317.888 75.439 359C75.439 400.111 42.1115 433.439 0.99999 433.439Z" stroke="url(#paint22_radial_551_1508)" stroke-width="2" stroke-miterlimit="10"/>
<path d="M1.00001 415.645C-30.2844 415.645 -55.6455 390.284 -55.6455 359C-55.6455 327.715 -30.2844 302.354 1.00001 302.354C32.2845 302.354 57.6455 327.715 57.6455 359C57.6455 390.284 32.2845 415.645 1.00001 415.645Z" stroke="url(#paint23_radial_551_1508)" stroke-width="2" stroke-miterlimit="10"/>
<path d="M0.99999 397.319C-20.1627 397.319 -37.3184 380.163 -37.3184 359C-37.3184 337.837 -20.1627 320.682 0.99999 320.682C22.1627 320.682 39.3185 337.837 39.3185 359C39.3185 380.163 22.1627 397.319 0.99999 397.319Z" stroke="url(#paint24_radial_551_1508)" stroke-width="2" stroke-miterlimit="10"/>
<path d="M0.99999 378.443C-9.73815 378.443 -18.4431 369.738 -18.4431 359C-18.4431 348.262 -9.73815 339.557 0.99999 339.557C11.7381 339.557 20.4431 348.262 20.4431 359C20.4431 369.738 11.7381 378.443 0.99999 378.443Z" stroke="url(#paint25_radial_551_1508)" stroke-width="2" stroke-miterlimit="10"/>
<path d="M768 717C570.282 717 410 556.718 410 359C410 161.282 570.282 1 768 1C965.718 1 1126 161.282 1126 359C1126 556.718 965.718 717 768 717Z" stroke="url(#paint26_radial_551_1508)" stroke-width="2" stroke-miterlimit="10"/>
<path d="M768 707.714C575.411 707.714 419.286 551.589 419.286 359C419.286 166.411 575.411 10.2864 768 10.2864C960.589 10.2864 1116.71 166.411 1116.71 359C1116.71 551.589 960.589 707.714 768 707.714Z" stroke="url(#paint27_radial_551_1508)" stroke-width="2" stroke-miterlimit="10"/>
<path d="M768 698.149C580.693 698.149 428.851 546.307 428.851 359C428.851 171.693 580.693 19.8509 768 19.8509C955.307 19.8509 1107.15 171.693 1107.15 359C1107.15 546.307 955.307 698.149 768 698.149Z" stroke="url(#paint28_radial_551_1508)" stroke-width="2" stroke-miterlimit="10"/>
<path d="M768 688.298C586.134 688.298 438.702 540.866 438.702 359C438.702 177.134 586.134 29.7019 768 29.7019C949.866 29.7019 1097.3 177.134 1097.3 359C1097.3 540.866 949.866 688.298 768 688.298Z" stroke="url(#paint29_radial_551_1508)" stroke-width="2" stroke-miterlimit="10"/>
<path d="M768 678.151C591.738 678.151 448.849 535.262 448.849 359C448.849 182.738 591.738 39.8489 768 39.8489C944.262 39.8489 1087.15 182.738 1087.15 359C1087.15 535.262 944.262 678.151 768 678.151Z" stroke="url(#paint30_radial_551_1508)" stroke-width="2" stroke-miterlimit="10"/>
<path d="M768 667.7C597.51 667.7 459.3 529.49 459.3 359C459.3 188.51 597.51 50.3 768 50.3C938.49 50.3 1076.7 188.51 1076.7 359C1076.7 529.49 938.49 667.7 768 667.7Z" stroke="url(#paint31_radial_551_1508)" stroke-width="2" stroke-miterlimit="10"/>
<path d="M768 656.935C603.455 656.935 470.065 523.545 470.065 359C470.065 194.455 603.455 61.0652 768 61.0652C932.545 61.0652 1065.93 194.455 1065.93 359C1065.93 523.545 932.545 656.935 768 656.935Z" stroke="url(#paint32_radial_551_1508)" stroke-width="2" stroke-miterlimit="10"/>
<path d="M768 645.847C609.579 645.847 481.153 517.421 481.153 359C481.153 200.579 609.579 72.1526 768 72.1526C926.421 72.1526 1054.85 200.579 1054.85 359C1054.85 517.421 926.421 645.847 768 645.847Z" stroke="url(#paint33_radial_551_1508)" stroke-width="2" stroke-miterlimit="10"/>
<path d="M768 634.427C615.886 634.427 492.573 511.114 492.573 359C492.573 206.886 615.886 83.5735 768 83.5735C920.114 83.5735 1043.43 206.886 1043.43 359C1043.43 511.114 920.114 634.427 768 634.427Z" stroke="url(#paint34_radial_551_1508)" stroke-width="2" stroke-miterlimit="10"/>
<path d="M768 622.664C622.382 622.664 504.336 504.618 504.336 359C504.336 213.382 622.382 95.336 768 95.336C913.618 95.336 1031.66 213.382 1031.66 359C1031.66 504.618 913.618 622.664 768 622.664Z" stroke="url(#paint35_radial_551_1508)" stroke-width="2" stroke-miterlimit="10"/>
<path d="M768 610.547C629.074 610.547 516.453 497.926 516.453 359C516.453 220.075 629.074 107.453 768 107.453C906.925 107.453 1019.55 220.075 1019.55 359C1019.55 497.926 906.925 610.547 768 610.547Z" stroke="url(#paint36_radial_551_1508)" stroke-width="2" stroke-miterlimit="10"/>
<path d="M768 598.068C635.966 598.068 528.932 491.034 528.932 359C528.932 226.966 635.966 119.931 768 119.931C900.034 119.931 1007.07 226.966 1007.07 359C1007.07 491.034 900.034 598.068 768 598.068Z" stroke="url(#paint37_radial_551_1508)" stroke-width="2" stroke-miterlimit="10"/>
<path d="M768 585.214C643.065 585.214 541.786 483.935 541.786 359C541.786 234.065 643.065 132.786 768 132.786C892.935 132.786 994.214 234.065 994.214 359C994.214 483.935 892.935 585.214 768 585.214Z" stroke="url(#paint38_radial_551_1508)" stroke-width="2" stroke-miterlimit="10"/>
<path d="M768 571.975C650.377 571.975 555.025 476.623 555.025 359C555.025 241.377 650.377 146.025 768 146.025C885.623 146.025 980.975 241.377 980.975 359C980.975 476.623 885.623 571.975 768 571.975Z" stroke="url(#paint39_radial_551_1508)" stroke-width="2" stroke-miterlimit="10"/>
<path d="M768 558.338C657.909 558.338 568.662 469.091 568.662 359C568.662 248.909 657.909 159.662 768 159.662C878.091 159.662 967.338 248.909 967.338 359C967.338 469.091 878.091 558.338 768 558.338Z" stroke="url(#paint40_radial_551_1508)" stroke-width="2" stroke-miterlimit="10"/>
<path d="M768 544.293C665.666 544.293 582.707 461.334 582.707 359C582.707 256.666 665.666 173.707 768 173.707C870.334 173.707 953.293 256.666 953.293 359C953.293 461.334 870.334 544.293 768 544.293Z" stroke="url(#paint41_radial_551_1508)" stroke-width="2" stroke-miterlimit="10"/>
<path d="M768 529.825C673.656 529.825 597.175 453.344 597.175 359C597.175 264.656 673.656 188.175 768 188.175C862.344 188.175 938.825 264.656 938.825 359C938.825 453.344 862.344 529.825 768 529.825Z" stroke="url(#paint42_radial_551_1508)" stroke-width="2" stroke-miterlimit="10"/>
<path d="M768 514.924C681.886 514.924 612.076 445.114 612.076 359C612.076 272.885 681.886 203.076 768 203.076C854.114 203.076 923.924 272.885 923.924 359C923.924 445.114 854.114 514.924 768 514.924Z" stroke="url(#paint43_radial_551_1508)" stroke-width="2" stroke-miterlimit="10"/>
<path d="M768 499.576C690.362 499.576 627.424 436.638 627.424 359C627.424 281.362 690.362 218.424 768 218.424C845.638 218.424 908.576 281.362 908.576 359C908.576 436.638 845.638 499.576 768 499.576Z" stroke="url(#paint44_radial_551_1508)" stroke-width="2" stroke-miterlimit="10"/>
<path d="M768 483.767C699.093 483.767 643.233 427.907 643.233 359C643.233 290.093 699.093 234.233 768 234.233C836.907 234.233 892.767 290.093 892.767 359C892.767 427.907 836.907 483.767 768 483.767Z" stroke="url(#paint45_radial_551_1508)" stroke-width="2" stroke-miterlimit="10"/>
<path d="M768 467.484C708.086 467.484 659.516 418.914 659.516 359C659.516 299.086 708.086 250.516 768 250.516C827.914 250.516 876.483 299.086 876.483 359C876.483 418.914 827.914 467.484 768 467.484Z" stroke="url(#paint46_radial_551_1508)" stroke-width="2" stroke-miterlimit="10"/>
<path d="M768 450.713C717.348 450.713 676.287 409.652 676.287 359C676.287 308.348 717.348 267.287 768 267.287C818.652 267.287 859.713 308.348 859.713 359C859.713 409.652 818.652 450.713 768 450.713Z" stroke="url(#paint47_radial_551_1508)" stroke-width="2" stroke-miterlimit="10"/>
<path d="M768 433.439C726.889 433.439 693.561 400.111 693.561 359C693.561 317.888 726.889 284.561 768 284.561C809.111 284.561 842.439 317.888 842.439 359C842.439 400.111 809.111 433.439 768 433.439Z" stroke="url(#paint48_radial_551_1508)" stroke-width="2" stroke-miterlimit="10"/>
<path d="M768 415.645C736.716 415.645 711.355 390.284 711.355 359C711.355 327.715 736.716 302.354 768 302.354C799.284 302.354 824.646 327.715 824.646 359C824.646 390.284 799.284 415.645 768 415.645Z" stroke="url(#paint49_radial_551_1508)" stroke-width="2" stroke-miterlimit="10"/>
<path d="M768 397.319C746.837 397.319 729.682 380.163 729.682 359C729.682 337.837 746.837 320.682 768 320.682C789.163 320.682 806.318 337.837 806.318 359C806.318 380.163 789.163 397.319 768 397.319Z" stroke="url(#paint50_radial_551_1508)" stroke-width="2" stroke-miterlimit="10"/>
<path d="M768 378.443C757.262 378.443 748.557 369.738 748.557 359C748.557 348.262 757.262 339.557 768 339.557C778.738 339.557 787.443 348.262 787.443 359C787.443 369.738 778.738 378.443 768 378.443Z" stroke="url(#paint51_radial_551_1508)" stroke-width="2" stroke-miterlimit="10"/>
<defs>
<radialGradient id="paint0_radial_551_1508" cx="0" cy="0" r="1" gradientUnits="userSpaceOnUse" gradientTransform="translate(1 359) rotate(90) scale(358)">
<stop stop-color="#5EBA72"/>
<stop offset="0.901042" stop-color="#5DBC72" stop-opacity="0"/>
</radialGradient>
<radialGradient id="paint1_radial_551_1508" cx="0" cy="0" r="1" gradientUnits="userSpaceOnUse" gradientTransform="translate(1 359) rotate(90) scale(358)">
<stop stop-color="#5EBA72"/>
<stop offset="0.901042" stop-color="#5DBC72" stop-opacity="0"/>
</radialGradient>
<radialGradient id="paint2_radial_551_1508" cx="0" cy="0" r="1" gradientUnits="userSpaceOnUse" gradientTransform="translate(1 359) rotate(90) scale(358)">
<stop stop-color="#5EBA72"/>
<stop offset="0.901042" stop-color="#5DBC72" stop-opacity="0"/>
</radialGradient>
<radialGradient id="paint3_radial_551_1508" cx="0" cy="0" r="1" gradientUnits="userSpaceOnUse" gradientTransform="translate(1 359) rotate(90) scale(358)">
<stop stop-color="#5EBA72"/>
<stop offset="0.901042" stop-color="#5DBC72" stop-opacity="0"/>
</radialGradient>
<radialGradient id="paint4_radial_551_1508" cx="0" cy="0" r="1" gradientUnits="userSpaceOnUse" gradientTransform="translate(1 359) rotate(90) scale(358)">
<stop stop-color="#5EBA72"/>
<stop offset="0.901042" stop-color="#5DBC72" stop-opacity="0"/>
</radialGradient>
<radialGradient id="paint5_radial_551_1508" cx="0" cy="0" r="1" gradientUnits="userSpaceOnUse" gradientTransform="translate(1 359) rotate(90) scale(358)">
<stop stop-color="#5EBA72"/>
<stop offset="0.901042" stop-color="#5DBC72" stop-opacity="0"/>
</radialGradient>
<radialGradient id="paint6_radial_551_1508" cx="0" cy="0" r="1" gradientUnits="userSpaceOnUse" gradientTransform="translate(1 359) rotate(90) scale(358)">
<stop stop-color="#5EBA72"/>
<stop offset="0.901042" stop-color="#5DBC72" stop-opacity="0"/>
</radialGradient>
<radialGradient id="paint7_radial_551_1508" cx="0" cy="0" r="1" gradientUnits="userSpaceOnUse" gradientTransform="translate(1 359) rotate(90) scale(358)">
<stop stop-color="#5EBA72"/>
<stop offset="0.901042" stop-color="#5DBC72" stop-opacity="0"/>
</radialGradient>
<radialGradient id="paint8_radial_551_1508" cx="0" cy="0" r="1" gradientUnits="userSpaceOnUse" gradientTransform="translate(1 359) rotate(90) scale(358)">
<stop stop-color="#5EBA72"/>
<stop offset="0.901042" stop-color="#5DBC72" stop-opacity="0"/>
</radialGradient>
<radialGradient id="paint9_radial_551_1508" cx="0" cy="0" r="1" gradientUnits="userSpaceOnUse" gradientTransform="translate(1 359) rotate(90) scale(358)">
<stop stop-color="#5EBA72"/>
<stop offset="0.901042" stop-color="#5DBC72" stop-opacity="0"/>
</radialGradient>
<radialGradient id="paint10_radial_551_1508" cx="0" cy="0" r="1" gradientUnits="userSpaceOnUse" gradientTransform="translate(1 359) rotate(90) scale(358)">
<stop stop-color="#5EBA72"/>
<stop offset="0.901042" stop-color="#5DBC72" stop-opacity="0"/>
</radialGradient>
<radialGradient id="paint11_radial_551_1508" cx="0" cy="0" r="1" gradientUnits="userSpaceOnUse" gradientTransform="translate(1 359) rotate(90) scale(358)">
<stop stop-color="#5EBA72"/>
<stop offset="0.901042" stop-color="#5DBC72" stop-opacity="0"/>
</radialGradient>
<radialGradient id="paint12_radial_551_1508" cx="0" cy="0" r="1" gradientUnits="userSpaceOnUse" gradientTransform="translate(1 359) rotate(90) scale(358)">
<stop stop-color="#5EBA72"/>
<stop offset="0.901042" stop-color="#5DBC72" stop-opacity="0"/>
</radialGradient>
<radialGradient id="paint13_radial_551_1508" cx="0" cy="0" r="1" gradientUnits="userSpaceOnUse" gradientTransform="translate(1 359) rotate(90) scale(358)">
<stop stop-color="#5EBA72"/>
<stop offset="0.901042" stop-color="#5DBC72" stop-opacity="0"/>
</radialGradient>
<radialGradient id="paint14_radial_551_1508" cx="0" cy="0" r="1" gradientUnits="userSpaceOnUse" gradientTransform="translate(1 359) rotate(90) scale(358)">
<stop stop-color="#5EBA72"/>
<stop offset="0.901042" stop-color="#5DBC72" stop-opacity="0"/>
</radialGradient>
<radialGradient id="paint15_radial_551_1508" cx="0" cy="0" r="1" gradientUnits="userSpaceOnUse" gradientTransform="translate(1 359) rotate(90) scale(358)">
<stop stop-color="#5EBA72"/>
<stop offset="0.901042" stop-color="#5DBC72" stop-opacity="0"/>
</radialGradient>
<radialGradient id="paint16_radial_551_1508" cx="0" cy="0" r="1" gradientUnits="userSpaceOnUse" gradientTransform="translate(1 359) rotate(90) scale(358)">
<stop stop-color="#5EBA72"/>
<stop offset="0.901042" stop-color="#5DBC72" stop-opacity="0"/>
</radialGradient>
<radialGradient id="paint17_radial_551_1508" cx="0" cy="0" r="1" gradientUnits="userSpaceOnUse" gradientTransform="translate(1 359) rotate(90) scale(358)">
<stop stop-color="#5EBA72"/>
<stop offset="0.901042" stop-color="#5DBC72" stop-opacity="0"/>
</radialGradient>
<radialGradient id="paint18_radial_551_1508" cx="0" cy="0" r="1" gradientUnits="userSpaceOnUse" gradientTransform="translate(1 359) rotate(90) scale(358)">
<stop stop-color="#5EBA72"/>
<stop offset="0.901042" stop-color="#5DBC72" stop-opacity="0"/>
</radialGradient>
<radialGradient id="paint19_radial_551_1508" cx="0" cy="0" r="1" gradientUnits="userSpaceOnUse" gradientTransform="translate(1 359) rotate(90) scale(358)">
<stop stop-color="#5EBA72"/>
<stop offset="0.901042" stop-color="#5DBC72" stop-opacity="0"/>
</radialGradient>
<radialGradient id="paint20_radial_551_1508" cx="0" cy="0" r="1" gradientUnits="userSpaceOnUse" gradientTransform="translate(1 359) rotate(90) scale(358)">
<stop stop-color="#5EBA72"/>
<stop offset="0.901042" stop-color="#5DBC72" stop-opacity="0"/>
</radialGradient>
<radialGradient id="paint21_radial_551_1508" cx="0" cy="0" r="1" gradientUnits="userSpaceOnUse" gradientTransform="translate(1 359) rotate(90) scale(358)">
<stop stop-color="#5EBA72"/>
<stop offset="0.901042" stop-color="#5DBC72" stop-opacity="0"/>
</radialGradient>
<radialGradient id="paint22_radial_551_1508" cx="0" cy="0" r="1" gradientUnits="userSpaceOnUse" gradientTransform="translate(1 359) rotate(90) scale(358)">
<stop stop-color="#5EBA72"/>
<stop offset="0.901042" stop-color="#5DBC72" stop-opacity="0"/>
</radialGradient>
<radialGradient id="paint23_radial_551_1508" cx="0" cy="0" r="1" gradientUnits="userSpaceOnUse" gradientTransform="translate(1 359) rotate(90) scale(358)">
<stop stop-color="#5EBA72"/>
<stop offset="0.901042" stop-color="#5DBC72" stop-opacity="0"/>
</radialGradient>
<radialGradient id="paint24_radial_551_1508" cx="0" cy="0" r="1" gradientUnits="userSpaceOnUse" gradientTransform="translate(1 359) rotate(90) scale(358)">
<stop stop-color="#5EBA72"/>
<stop offset="0.901042" stop-color="#5DBC72" stop-opacity="0"/>
</radialGradient>
<radialGradient id="paint25_radial_551_1508" cx="0" cy="0" r="1" gradientUnits="userSpaceOnUse" gradientTransform="translate(1 359) rotate(90) scale(358)">
<stop stop-color="#5EBA72"/>
<stop offset="0.901042" stop-color="#5DBC72" stop-opacity="0"/>
</radialGradient>
<radialGradient id="paint26_radial_551_1508" cx="0" cy="0" r="1" gradientUnits="userSpaceOnUse" gradientTransform="translate(768 359) rotate(90) scale(358)">
<stop stop-color="#5EBA72"/>
<stop offset="0.901042" stop-color="#5DBC72" stop-opacity="0"/>
</radialGradient>
<radialGradient id="paint27_radial_551_1508" cx="0" cy="0" r="1" gradientUnits="userSpaceOnUse" gradientTransform="translate(768 359) rotate(90) scale(358)">
<stop stop-color="#5EBA72"/>
<stop offset="0.901042" stop-color="#5DBC72" stop-opacity="0"/>
</radialGradient>
<radialGradient id="paint28_radial_551_1508" cx="0" cy="0" r="1" gradientUnits="userSpaceOnUse" gradientTransform="translate(768 359) rotate(90) scale(358)">
<stop stop-color="#5EBA72"/>
<stop offset="0.901042" stop-color="#5DBC72" stop-opacity="0"/>
</radialGradient>
<radialGradient id="paint29_radial_551_1508" cx="0" cy="0" r="1" gradientUnits="userSpaceOnUse" gradientTransform="translate(768 359) rotate(90) scale(358)">
<stop stop-color="#5EBA72"/>
<stop offset="0.901042" stop-color="#5DBC72" stop-opacity="0"/>
</radialGradient>
<radialGradient id="paint30_radial_551_1508" cx="0" cy="0" r="1" gradientUnits="userSpaceOnUse" gradientTransform="translate(768 359) rotate(90) scale(358)">
<stop stop-color="#5EBA72"/>
<stop offset="0.901042" stop-color="#5DBC72" stop-opacity="0"/>
</radialGradient>
<radialGradient id="paint31_radial_551_1508" cx="0" cy="0" r="1" gradientUnits="userSpaceOnUse" gradientTransform="translate(768 359) rotate(90) scale(358)">
<stop stop-color="#5EBA72"/>
<stop offset="0.901042" stop-color="#5DBC72" stop-opacity="0"/>
</radialGradient>
<radialGradient id="paint32_radial_551_1508" cx="0" cy="0" r="1" gradientUnits="userSpaceOnUse" gradientTransform="translate(768 359) rotate(90) scale(358)">
<stop stop-color="#5EBA72"/>
<stop offset="0.901042" stop-color="#5DBC72" stop-opacity="0"/>
</radialGradient>
<radialGradient id="paint33_radial_551_1508" cx="0" cy="0" r="1" gradientUnits="userSpaceOnUse" gradientTransform="translate(768 359) rotate(90) scale(358)">
<stop stop-color="#5EBA72"/>
<stop offset="0.901042" stop-color="#5DBC72" stop-opacity="0"/>
</radialGradient>
<radialGradient id="paint34_radial_551_1508" cx="0" cy="0" r="1" gradientUnits="userSpaceOnUse" gradientTransform="translate(768 359) rotate(90) scale(358)">
<stop stop-color="#5EBA72"/>
<stop offset="0.901042" stop-color="#5DBC72" stop-opacity="0"/>
</radialGradient>
<radialGradient id="paint35_radial_551_1508" cx="0" cy="0" r="1" gradientUnits="userSpaceOnUse" gradientTransform="translate(768 359) rotate(90) scale(358)">
<stop stop-color="#5EBA72"/>
<stop offset="0.901042" stop-color="#5DBC72" stop-opacity="0"/>
</radialGradient>
<radialGradient id="paint36_radial_551_1508" cx="0" cy="0" r="1" gradientUnits="userSpaceOnUse" gradientTransform="translate(768 359) rotate(90) scale(358)">
<stop stop-color="#5EBA72"/>
<stop offset="0.901042" stop-color="#5DBC72" stop-opacity="0"/>
</radialGradient>
<radialGradient id="paint37_radial_551_1508" cx="0" cy="0" r="1" gradientUnits="userSpaceOnUse" gradientTransform="translate(768 359) rotate(90) scale(358)">
<stop stop-color="#5EBA72"/>
<stop offset="0.901042" stop-color="#5DBC72" stop-opacity="0"/>
</radialGradient>
<radialGradient id="paint38_radial_551_1508" cx="0" cy="0" r="1" gradientUnits="userSpaceOnUse" gradientTransform="translate(768 359) rotate(90) scale(358)">
<stop stop-color="#5EBA72"/>
<stop offset="0.901042" stop-color="#5DBC72" stop-opacity="0"/>
</radialGradient>
<radialGradient id="paint39_radial_551_1508" cx="0" cy="0" r="1" gradientUnits="userSpaceOnUse" gradientTransform="translate(768 359) rotate(90) scale(358)">
<stop stop-color="#5EBA72"/>
<stop offset="0.901042" stop-color="#5DBC72" stop-opacity="0"/>
</radialGradient>
<radialGradient id="paint40_radial_551_1508" cx="0" cy="0" r="1" gradientUnits="userSpaceOnUse" gradientTransform="translate(768 359) rotate(90) scale(358)">
<stop stop-color="#5EBA72"/>
<stop offset="0.901042" stop-color="#5DBC72" stop-opacity="0"/>
</radialGradient>
<radialGradient id="paint41_radial_551_1508" cx="0" cy="0" r="1" gradientUnits="userSpaceOnUse" gradientTransform="translate(768 359) rotate(90) scale(358)">
<stop stop-color="#5EBA72"/>
<stop offset="0.901042" stop-color="#5DBC72" stop-opacity="0"/>
</radialGradient>
<radialGradient id="paint42_radial_551_1508" cx="0" cy="0" r="1" gradientUnits="userSpaceOnUse" gradientTransform="translate(768 359) rotate(90) scale(358)">
<stop stop-color="#5EBA72"/>
<stop offset="0.901042" stop-color="#5DBC72" stop-opacity="0"/>
</radialGradient>
<radialGradient id="paint43_radial_551_1508" cx="0" cy="0" r="1" gradientUnits="userSpaceOnUse" gradientTransform="translate(768 359) rotate(90) scale(358)">
<stop stop-color="#5EBA72"/>
<stop offset="0.901042" stop-color="#5DBC72" stop-opacity="0"/>
</radialGradient>
<radialGradient id="paint44_radial_551_1508" cx="0" cy="0" r="1" gradientUnits="userSpaceOnUse" gradientTransform="translate(768 359) rotate(90) scale(358)">
<stop stop-color="#5EBA72"/>
<stop offset="0.901042" stop-color="#5DBC72" stop-opacity="0"/>
</radialGradient>
<radialGradient id="paint45_radial_551_1508" cx="0" cy="0" r="1" gradientUnits="userSpaceOnUse" gradientTransform="translate(768 359) rotate(90) scale(358)">
<stop stop-color="#5EBA72"/>
<stop offset="0.901042" stop-color="#5DBC72" stop-opacity="0"/>
</radialGradient>
<radialGradient id="paint46_radial_551_1508" cx="0" cy="0" r="1" gradientUnits="userSpaceOnUse" gradientTransform="translate(768 359) rotate(90) scale(358)">
<stop stop-color="#5EBA72"/>
<stop offset="0.901042" stop-color="#5DBC72" stop-opacity="0"/>
</radialGradient>
<radialGradient id="paint47_radial_551_1508" cx="0" cy="0" r="1" gradientUnits="userSpaceOnUse" gradientTransform="translate(768 359) rotate(90) scale(358)">
<stop stop-color="#5EBA72"/>
<stop offset="0.901042" stop-color="#5DBC72" stop-opacity="0"/>
</radialGradient>
<radialGradient id="paint48_radial_551_1508" cx="0" cy="0" r="1" gradientUnits="userSpaceOnUse" gradientTransform="translate(768 359) rotate(90) scale(358)">
<stop stop-color="#5EBA72"/>
<stop offset="0.901042" stop-color="#5DBC72" stop-opacity="0"/>
</radialGradient>
<radialGradient id="paint49_radial_551_1508" cx="0" cy="0" r="1" gradientUnits="userSpaceOnUse" gradientTransform="translate(768 359) rotate(90) scale(358)">
<stop stop-color="#5EBA72"/>
<stop offset="0.901042" stop-color="#5DBC72" stop-opacity="0"/>
</radialGradient>
<radialGradient id="paint50_radial_551_1508" cx="0" cy="0" r="1" gradientUnits="userSpaceOnUse" gradientTransform="translate(768 359) rotate(90) scale(358)">
<stop stop-color="#5EBA72"/>
<stop offset="0.901042" stop-color="#5DBC72" stop-opacity="0"/>
</radialGradient>
<radialGradient id="paint51_radial_551_1508" cx="0" cy="0" r="1" gradientUnits="userSpaceOnUse" gradientTransform="translate(768 359) rotate(90) scale(358)">
<stop stop-color="#5EBA72"/>
<stop offset="0.901042" stop-color="#5DBC72" stop-opacity="0"/>
</radialGradient>
</defs>
</svg>
