<svg width="320" height="718" viewBox="0 0 320 718" fill="none" xmlns="http://www.w3.org/2000/svg">
<path d="M-213 717C-410.718 717 -571 556.718 -571 359C-571 161.282 -410.718 1 -213 1C-15.2821 1 145 161.282 145 359C145 556.718 -15.2821 717 -213 717Z" stroke="url(#paint0_radial_551_1509)" stroke-width="2" stroke-miterlimit="10"/>
<path d="M-213 707.714C-405.589 707.714 -561.714 551.589 -561.714 359C-561.714 166.411 -405.589 10.2864 -213 10.2864C-20.4108 10.2864 135.714 166.411 135.714 359C135.714 551.589 -20.4108 707.714 -213 707.714Z" stroke="url(#paint1_radial_551_1509)" stroke-width="2" stroke-miterlimit="10"/>
<path d="M-213 698.149C-400.307 698.149 -552.149 546.307 -552.149 359C-552.149 171.693 -400.307 19.8509 -213 19.8509C-25.6932 19.8509 126.149 171.693 126.149 359C126.149 546.307 -25.6932 698.149 -213 698.149Z" stroke="url(#paint2_radial_551_1509)" stroke-width="2" stroke-miterlimit="10"/>
<path d="M-213 688.298C-394.866 688.298 -542.298 540.866 -542.298 359C-542.298 177.134 -394.866 29.7019 -213 29.7019C-31.1337 29.7019 116.298 177.134 116.298 359C116.298 540.866 -31.1337 688.298 -213 688.298Z" stroke="url(#paint3_radial_551_1509)" stroke-width="2" stroke-miterlimit="10"/>
<path d="M-213 678.151C-389.262 678.151 -532.151 535.262 -532.151 359C-532.151 182.738 -389.262 39.8489 -213 39.8489C-36.7377 39.8489 106.151 182.738 106.151 359C106.151 535.262 -36.7377 678.151 -213 678.151Z" stroke="url(#paint4_radial_551_1509)" stroke-width="2" stroke-miterlimit="10"/>
<path d="M-213 667.7C-383.49 667.7 -521.7 529.49 -521.7 359C-521.7 188.51 -383.49 50.3 -213 50.3C-42.5097 50.3 95.7 188.51 95.7 359C95.7 529.49 -42.5097 667.7 -213 667.7Z" stroke="url(#paint5_radial_551_1509)" stroke-width="2" stroke-miterlimit="10"/>
<path d="M-213 656.935C-377.545 656.935 -510.935 523.545 -510.935 359C-510.935 194.455 -377.545 61.0652 -213 61.0652C-48.4552 61.0652 84.9348 194.455 84.9348 359C84.9348 523.545 -48.4552 656.935 -213 656.935Z" stroke="url(#paint6_radial_551_1509)" stroke-width="2" stroke-miterlimit="10"/>
<path d="M-213 645.847C-371.421 645.847 -499.847 517.421 -499.847 359C-499.847 200.579 -371.421 72.1526 -213 72.1526C-54.5786 72.1526 73.8474 200.579 73.8474 359C73.8474 517.421 -54.5786 645.847 -213 645.847Z" stroke="url(#paint7_radial_551_1509)" stroke-width="2" stroke-miterlimit="10"/>
<path d="M-213 634.427C-365.114 634.427 -488.427 511.114 -488.427 359C-488.427 206.886 -365.114 83.5735 -213 83.5735C-60.8861 83.5735 62.4265 206.886 62.4265 359C62.4265 511.114 -60.8861 634.427 -213 634.427Z" stroke="url(#paint8_radial_551_1509)" stroke-width="2" stroke-miterlimit="10"/>
<path d="M-213 622.664C-358.618 622.664 -476.664 504.618 -476.664 359C-476.664 213.382 -358.618 95.336 -213 95.336C-67.3824 95.336 50.664 213.382 50.664 359C50.664 504.618 -67.3824 622.664 -213 622.664Z" stroke="url(#paint9_radial_551_1509)" stroke-width="2" stroke-miterlimit="10"/>
<path d="M-213 610.547C-351.926 610.547 -464.547 497.926 -464.547 359C-464.547 220.075 -351.926 107.453 -213 107.453C-74.0746 107.453 38.5468 220.075 38.5468 359C38.5468 497.926 -74.0746 610.547 -213 610.547Z" stroke="url(#paint10_radial_551_1509)" stroke-width="2" stroke-miterlimit="10"/>
<path d="M-213 598.068C-345.034 598.068 -452.068 491.034 -452.068 359C-452.068 226.966 -345.034 119.931 -213 119.931C-80.9661 119.931 26.0685 226.966 26.0685 359C26.0685 491.034 -80.9661 598.068 -213 598.068Z" stroke="url(#paint11_radial_551_1509)" stroke-width="2" stroke-miterlimit="10"/>
<path d="M-213 585.214C-337.935 585.214 -439.214 483.935 -439.214 359C-439.214 234.065 -337.935 132.786 -213 132.786C-88.0653 132.786 13.2143 234.065 13.2143 359C13.2143 483.935 -88.0653 585.214 -213 585.214Z" stroke="url(#paint12_radial_551_1509)" stroke-width="2" stroke-miterlimit="10"/>
<path d="M-213 571.975C-330.623 571.975 -425.975 476.623 -425.975 359C-425.975 241.377 -330.623 146.025 -213 146.025C-95.3774 146.025 -0.0254133 241.377 -0.0254133 359C-0.0254133 476.623 -95.3774 571.975 -213 571.975Z" stroke="url(#paint13_radial_551_1509)" stroke-width="2" stroke-miterlimit="10"/>
<path d="M-213 558.338C-323.091 558.338 -412.338 469.091 -412.338 359C-412.338 248.909 -323.091 159.662 -213 159.662C-102.909 159.662 -13.6621 248.909 -13.6621 359C-13.6621 469.091 -102.909 558.338 -213 558.338Z" stroke="url(#paint14_radial_551_1509)" stroke-width="2" stroke-miterlimit="10"/>
<path d="M-213 544.293C-315.334 544.293 -398.293 461.334 -398.293 359C-398.293 256.666 -315.334 173.707 -213 173.707C-110.666 173.707 -27.7071 256.666 -27.7071 359C-27.7071 461.334 -110.666 544.293 -213 544.293Z" stroke="url(#paint15_radial_551_1509)" stroke-width="2" stroke-miterlimit="10"/>
<path d="M-213 529.825C-307.344 529.825 -383.825 453.344 -383.825 359C-383.825 264.656 -307.344 188.175 -213 188.175C-118.656 188.175 -42.1751 264.656 -42.1751 359C-42.1751 453.344 -118.656 529.825 -213 529.825Z" stroke="url(#paint16_radial_551_1509)" stroke-width="2" stroke-miterlimit="10"/>
<path d="M-213 514.924C-299.114 514.924 -368.924 445.114 -368.924 359C-368.924 272.885 -299.114 203.076 -213 203.076C-126.886 203.076 -57.076 272.885 -57.076 359C-57.076 445.114 -126.886 514.924 -213 514.924Z" stroke="url(#paint17_radial_551_1509)" stroke-width="2" stroke-miterlimit="10"/>
<path d="M-213 499.576C-290.638 499.576 -353.576 436.638 -353.576 359C-353.576 281.362 -290.638 218.424 -213 218.424C-135.362 218.424 -72.4242 281.362 -72.4242 359C-72.4242 436.638 -135.362 499.576 -213 499.576Z" stroke="url(#paint18_radial_551_1509)" stroke-width="2" stroke-miterlimit="10"/>
<path d="M-213 483.767C-281.907 483.767 -337.767 427.907 -337.767 359C-337.767 290.093 -281.907 234.233 -213 234.233C-144.093 234.233 -88.2328 290.093 -88.2328 359C-88.2328 427.907 -144.093 483.767 -213 483.767Z" stroke="url(#paint19_radial_551_1509)" stroke-width="2" stroke-miterlimit="10"/>
<path d="M-213 467.484C-272.914 467.484 -321.484 418.914 -321.484 359C-321.484 299.086 -272.914 250.516 -213 250.516C-153.086 250.516 -104.517 299.086 -104.517 359C-104.517 418.914 -153.086 467.484 -213 467.484Z" stroke="url(#paint20_radial_551_1509)" stroke-width="2" stroke-miterlimit="10"/>
<path d="M-213 450.713C-263.652 450.713 -304.713 409.652 -304.713 359C-304.713 308.348 -263.652 267.287 -213 267.287C-162.348 267.287 -121.287 308.348 -121.287 359C-121.287 409.652 -162.348 450.713 -213 450.713Z" stroke="url(#paint21_radial_551_1509)" stroke-width="2" stroke-miterlimit="10"/>
<path d="M-213 433.439C-254.111 433.439 -287.439 400.111 -287.439 359C-287.439 317.888 -254.111 284.561 -213 284.561C-171.889 284.561 -138.561 317.888 -138.561 359C-138.561 400.111 -171.889 433.439 -213 433.439Z" stroke="url(#paint22_radial_551_1509)" stroke-width="2" stroke-miterlimit="10"/>
<path d="M-213 415.645C-244.284 415.645 -269.645 390.284 -269.645 359C-269.645 327.715 -244.284 302.354 -213 302.354C-181.716 302.354 -156.354 327.715 -156.354 359C-156.354 390.284 -181.716 415.645 -213 415.645Z" stroke="url(#paint23_radial_551_1509)" stroke-width="2" stroke-miterlimit="10"/>
<path d="M-213 397.319C-234.163 397.319 -251.318 380.163 -251.318 359C-251.318 337.837 -234.163 320.682 -213 320.682C-191.837 320.682 -174.682 337.837 -174.682 359C-174.682 380.163 -191.837 397.319 -213 397.319Z" stroke="url(#paint24_radial_551_1509)" stroke-width="2" stroke-miterlimit="10"/>
<path d="M-213 378.443C-223.738 378.443 -232.443 369.738 -232.443 359C-232.443 348.262 -223.738 339.557 -213 339.557C-202.262 339.557 -193.557 348.262 -193.557 359C-193.557 369.738 -202.262 378.443 -213 378.443Z" stroke="url(#paint25_radial_551_1509)" stroke-width="2" stroke-miterlimit="10"/>
<path d="M554 717C356.282 717 196 556.718 196 359C196 161.282 356.282 1 554 1C751.718 1 912 161.282 912 359C912 556.718 751.718 717 554 717Z" stroke="url(#paint26_radial_551_1509)" stroke-width="2" stroke-miterlimit="10"/>
<path d="M554 707.714C361.411 707.714 205.286 551.589 205.286 359C205.286 166.411 361.411 10.2864 554 10.2864C746.589 10.2864 902.714 166.411 902.714 359C902.714 551.589 746.589 707.714 554 707.714Z" stroke="url(#paint27_radial_551_1509)" stroke-width="2" stroke-miterlimit="10"/>
<path d="M554 698.149C366.693 698.149 214.851 546.307 214.851 359C214.851 171.693 366.693 19.8509 554 19.8509C741.307 19.8509 893.149 171.693 893.149 359C893.149 546.307 741.307 698.149 554 698.149Z" stroke="url(#paint28_radial_551_1509)" stroke-width="2" stroke-miterlimit="10"/>
<path d="M554 688.298C372.134 688.298 224.702 540.866 224.702 359C224.702 177.134 372.134 29.7019 554 29.7019C735.866 29.7019 883.298 177.134 883.298 359C883.298 540.866 735.866 688.298 554 688.298Z" stroke="url(#paint29_radial_551_1509)" stroke-width="2" stroke-miterlimit="10"/>
<path d="M554 678.151C377.738 678.151 234.849 535.262 234.849 359C234.849 182.738 377.738 39.8489 554 39.8489C730.262 39.8489 873.151 182.738 873.151 359C873.151 535.262 730.262 678.151 554 678.151Z" stroke="url(#paint30_radial_551_1509)" stroke-width="2" stroke-miterlimit="10"/>
<path d="M554 667.7C383.51 667.7 245.3 529.49 245.3 359C245.3 188.51 383.51 50.3 554 50.3C724.49 50.3 862.7 188.51 862.7 359C862.7 529.49 724.49 667.7 554 667.7Z" stroke="url(#paint31_radial_551_1509)" stroke-width="2" stroke-miterlimit="10"/>
<path d="M554 656.935C389.455 656.935 256.065 523.545 256.065 359C256.065 194.455 389.455 61.0652 554 61.0652C718.545 61.0652 851.935 194.455 851.935 359C851.935 523.545 718.545 656.935 554 656.935Z" stroke="url(#paint32_radial_551_1509)" stroke-width="2" stroke-miterlimit="10"/>
<path d="M554 645.847C395.579 645.847 267.153 517.421 267.153 359C267.153 200.579 395.579 72.1526 554 72.1526C712.421 72.1526 840.847 200.579 840.847 359C840.847 517.421 712.421 645.847 554 645.847Z" stroke="url(#paint33_radial_551_1509)" stroke-width="2" stroke-miterlimit="10"/>
<path d="M554 634.427C401.886 634.427 278.573 511.114 278.573 359C278.573 206.886 401.886 83.5735 554 83.5735C706.114 83.5735 829.427 206.886 829.427 359C829.427 511.114 706.114 634.427 554 634.427Z" stroke="url(#paint34_radial_551_1509)" stroke-width="2" stroke-miterlimit="10"/>
<path d="M554 622.664C408.382 622.664 290.336 504.618 290.336 359C290.336 213.382 408.382 95.336 554 95.336C699.618 95.336 817.664 213.382 817.664 359C817.664 504.618 699.618 622.664 554 622.664Z" stroke="url(#paint35_radial_551_1509)" stroke-width="2" stroke-miterlimit="10"/>
<path d="M554 610.547C415.074 610.547 302.453 497.926 302.453 359C302.453 220.075 415.074 107.453 554 107.453C692.925 107.453 805.547 220.075 805.547 359C805.547 497.926 692.925 610.547 554 610.547Z" stroke="url(#paint36_radial_551_1509)" stroke-width="2" stroke-miterlimit="10"/>
<path d="M554 598.068C421.966 598.068 314.932 491.034 314.932 359C314.932 226.966 421.966 119.931 554 119.931C686.034 119.931 793.069 226.966 793.069 359C793.069 491.034 686.034 598.068 554 598.068Z" stroke="url(#paint37_radial_551_1509)" stroke-width="2" stroke-miterlimit="10"/>
<path d="M554 585.214C429.065 585.214 327.786 483.935 327.786 359C327.786 234.065 429.065 132.786 554 132.786C678.935 132.786 780.214 234.065 780.214 359C780.214 483.935 678.935 585.214 554 585.214Z" stroke="url(#paint38_radial_551_1509)" stroke-width="2" stroke-miterlimit="10"/>
<path d="M554 571.975C436.377 571.975 341.025 476.623 341.025 359C341.025 241.377 436.377 146.025 554 146.025C671.623 146.025 766.975 241.377 766.975 359C766.975 476.623 671.623 571.975 554 571.975Z" stroke="url(#paint39_radial_551_1509)" stroke-width="2" stroke-miterlimit="10"/>
<path d="M554 558.338C443.909 558.338 354.662 469.091 354.662 359C354.662 248.909 443.909 159.662 554 159.662C664.091 159.662 753.338 248.909 753.338 359C753.338 469.091 664.091 558.338 554 558.338Z" stroke="url(#paint40_radial_551_1509)" stroke-width="2" stroke-miterlimit="10"/>
<path d="M554 544.293C451.666 544.293 368.707 461.334 368.707 359C368.707 256.666 451.666 173.707 554 173.707C656.334 173.707 739.293 256.666 739.293 359C739.293 461.334 656.334 544.293 554 544.293Z" stroke="url(#paint41_radial_551_1509)" stroke-width="2" stroke-miterlimit="10"/>
<path d="M554 529.825C459.656 529.825 383.175 453.344 383.175 359C383.175 264.656 459.656 188.175 554 188.175C648.344 188.175 724.825 264.656 724.825 359C724.825 453.344 648.344 529.825 554 529.825Z" stroke="url(#paint42_radial_551_1509)" stroke-width="2" stroke-miterlimit="10"/>
<path d="M554 514.924C467.886 514.924 398.076 445.114 398.076 359C398.076 272.885 467.886 203.076 554 203.076C640.114 203.076 709.924 272.885 709.924 359C709.924 445.114 640.114 514.924 554 514.924Z" stroke="url(#paint43_radial_551_1509)" stroke-width="2" stroke-miterlimit="10"/>
<path d="M554 499.576C476.362 499.576 413.424 436.638 413.424 359C413.424 281.362 476.362 218.424 554 218.424C631.638 218.424 694.576 281.362 694.576 359C694.576 436.638 631.638 499.576 554 499.576Z" stroke="url(#paint44_radial_551_1509)" stroke-width="2" stroke-miterlimit="10"/>
<path d="M554 483.767C485.093 483.767 429.233 427.907 429.233 359C429.233 290.093 485.093 234.233 554 234.233C622.907 234.233 678.767 290.093 678.767 359C678.767 427.907 622.907 483.767 554 483.767Z" stroke="url(#paint45_radial_551_1509)" stroke-width="2" stroke-miterlimit="10"/>
<path d="M554 467.484C494.086 467.484 445.516 418.914 445.516 359C445.516 299.086 494.086 250.516 554 250.516C613.914 250.516 662.483 299.086 662.483 359C662.483 418.914 613.914 467.484 554 467.484Z" stroke="url(#paint46_radial_551_1509)" stroke-width="2" stroke-miterlimit="10"/>
<path d="M554 450.713C503.348 450.713 462.287 409.652 462.287 359C462.287 308.348 503.348 267.287 554 267.287C604.652 267.287 645.713 308.348 645.713 359C645.713 409.652 604.652 450.713 554 450.713Z" stroke="url(#paint47_radial_551_1509)" stroke-width="2" stroke-miterlimit="10"/>
<path d="M554 433.439C512.889 433.439 479.561 400.111 479.561 359C479.561 317.888 512.889 284.561 554 284.561C595.111 284.561 628.439 317.888 628.439 359C628.439 400.111 595.111 433.439 554 433.439Z" stroke="url(#paint48_radial_551_1509)" stroke-width="2" stroke-miterlimit="10"/>
<path d="M554 415.645C522.716 415.645 497.355 390.284 497.355 359C497.355 327.715 522.716 302.354 554 302.354C585.284 302.354 610.646 327.715 610.646 359C610.646 390.284 585.284 415.645 554 415.645Z" stroke="url(#paint49_radial_551_1509)" stroke-width="2" stroke-miterlimit="10"/>
<path d="M554 397.319C532.837 397.319 515.682 380.163 515.682 359C515.682 337.837 532.837 320.682 554 320.682C575.163 320.682 592.318 337.837 592.318 359C592.318 380.163 575.163 397.319 554 397.319Z" stroke="url(#paint50_radial_551_1509)" stroke-width="2" stroke-miterlimit="10"/>
<path d="M554 378.443C543.262 378.443 534.557 369.738 534.557 359C534.557 348.262 543.262 339.557 554 339.557C564.738 339.557 573.443 348.262 573.443 359C573.443 369.738 564.738 378.443 554 378.443Z" stroke="url(#paint51_radial_551_1509)" stroke-width="2" stroke-miterlimit="10"/>
<defs>
<radialGradient id="paint0_radial_551_1509" cx="0" cy="0" r="1" gradientUnits="userSpaceOnUse" gradientTransform="translate(-213 359) rotate(90) scale(358)">
<stop stop-color="#5EBA72"/>
<stop offset="0.901042" stop-color="#5DBC72" stop-opacity="0"/>
</radialGradient>
<radialGradient id="paint1_radial_551_1509" cx="0" cy="0" r="1" gradientUnits="userSpaceOnUse" gradientTransform="translate(-213 359) rotate(90) scale(358)">
<stop stop-color="#5EBA72"/>
<stop offset="0.901042" stop-color="#5DBC72" stop-opacity="0"/>
</radialGradient>
<radialGradient id="paint2_radial_551_1509" cx="0" cy="0" r="1" gradientUnits="userSpaceOnUse" gradientTransform="translate(-213 359) rotate(90) scale(358)">
<stop stop-color="#5EBA72"/>
<stop offset="0.901042" stop-color="#5DBC72" stop-opacity="0"/>
</radialGradient>
<radialGradient id="paint3_radial_551_1509" cx="0" cy="0" r="1" gradientUnits="userSpaceOnUse" gradientTransform="translate(-213 359) rotate(90) scale(358)">
<stop stop-color="#5EBA72"/>
<stop offset="0.901042" stop-color="#5DBC72" stop-opacity="0"/>
</radialGradient>
<radialGradient id="paint4_radial_551_1509" cx="0" cy="0" r="1" gradientUnits="userSpaceOnUse" gradientTransform="translate(-213 359) rotate(90) scale(358)">
<stop stop-color="#5EBA72"/>
<stop offset="0.901042" stop-color="#5DBC72" stop-opacity="0"/>
</radialGradient>
<radialGradient id="paint5_radial_551_1509" cx="0" cy="0" r="1" gradientUnits="userSpaceOnUse" gradientTransform="translate(-213 359) rotate(90) scale(358)">
<stop stop-color="#5EBA72"/>
<stop offset="0.901042" stop-color="#5DBC72" stop-opacity="0"/>
</radialGradient>
<radialGradient id="paint6_radial_551_1509" cx="0" cy="0" r="1" gradientUnits="userSpaceOnUse" gradientTransform="translate(-213 359) rotate(90) scale(358)">
<stop stop-color="#5EBA72"/>
<stop offset="0.901042" stop-color="#5DBC72" stop-opacity="0"/>
</radialGradient>
<radialGradient id="paint7_radial_551_1509" cx="0" cy="0" r="1" gradientUnits="userSpaceOnUse" gradientTransform="translate(-213 359) rotate(90) scale(358)">
<stop stop-color="#5EBA72"/>
<stop offset="0.901042" stop-color="#5DBC72" stop-opacity="0"/>
</radialGradient>
<radialGradient id="paint8_radial_551_1509" cx="0" cy="0" r="1" gradientUnits="userSpaceOnUse" gradientTransform="translate(-213 359) rotate(90) scale(358)">
<stop stop-color="#5EBA72"/>
<stop offset="0.901042" stop-color="#5DBC72" stop-opacity="0"/>
</radialGradient>
<radialGradient id="paint9_radial_551_1509" cx="0" cy="0" r="1" gradientUnits="userSpaceOnUse" gradientTransform="translate(-213 359) rotate(90) scale(358)">
<stop stop-color="#5EBA72"/>
<stop offset="0.901042" stop-color="#5DBC72" stop-opacity="0"/>
</radialGradient>
<radialGradient id="paint10_radial_551_1509" cx="0" cy="0" r="1" gradientUnits="userSpaceOnUse" gradientTransform="translate(-213 359) rotate(90) scale(358)">
<stop stop-color="#5EBA72"/>
<stop offset="0.901042" stop-color="#5DBC72" stop-opacity="0"/>
</radialGradient>
<radialGradient id="paint11_radial_551_1509" cx="0" cy="0" r="1" gradientUnits="userSpaceOnUse" gradientTransform="translate(-213 359) rotate(90) scale(358)">
<stop stop-color="#5EBA72"/>
<stop offset="0.901042" stop-color="#5DBC72" stop-opacity="0"/>
</radialGradient>
<radialGradient id="paint12_radial_551_1509" cx="0" cy="0" r="1" gradientUnits="userSpaceOnUse" gradientTransform="translate(-213 359) rotate(90) scale(358)">
<stop stop-color="#5EBA72"/>
<stop offset="0.901042" stop-color="#5DBC72" stop-opacity="0"/>
</radialGradient>
<radialGradient id="paint13_radial_551_1509" cx="0" cy="0" r="1" gradientUnits="userSpaceOnUse" gradientTransform="translate(-213 359) rotate(90) scale(358)">
<stop stop-color="#5EBA72"/>
<stop offset="0.901042" stop-color="#5DBC72" stop-opacity="0"/>
</radialGradient>
<radialGradient id="paint14_radial_551_1509" cx="0" cy="0" r="1" gradientUnits="userSpaceOnUse" gradientTransform="translate(-213 359) rotate(90) scale(358)">
<stop stop-color="#5EBA72"/>
<stop offset="0.901042" stop-color="#5DBC72" stop-opacity="0"/>
</radialGradient>
<radialGradient id="paint15_radial_551_1509" cx="0" cy="0" r="1" gradientUnits="userSpaceOnUse" gradientTransform="translate(-213 359) rotate(90) scale(358)">
<stop stop-color="#5EBA72"/>
<stop offset="0.901042" stop-color="#5DBC72" stop-opacity="0"/>
</radialGradient>
<radialGradient id="paint16_radial_551_1509" cx="0" cy="0" r="1" gradientUnits="userSpaceOnUse" gradientTransform="translate(-213 359) rotate(90) scale(358)">
<stop stop-color="#5EBA72"/>
<stop offset="0.901042" stop-color="#5DBC72" stop-opacity="0"/>
</radialGradient>
<radialGradient id="paint17_radial_551_1509" cx="0" cy="0" r="1" gradientUnits="userSpaceOnUse" gradientTransform="translate(-213 359) rotate(90) scale(358)">
<stop stop-color="#5EBA72"/>
<stop offset="0.901042" stop-color="#5DBC72" stop-opacity="0"/>
</radialGradient>
<radialGradient id="paint18_radial_551_1509" cx="0" cy="0" r="1" gradientUnits="userSpaceOnUse" gradientTransform="translate(-213 359) rotate(90) scale(358)">
<stop stop-color="#5EBA72"/>
<stop offset="0.901042" stop-color="#5DBC72" stop-opacity="0"/>
</radialGradient>
<radialGradient id="paint19_radial_551_1509" cx="0" cy="0" r="1" gradientUnits="userSpaceOnUse" gradientTransform="translate(-213 359) rotate(90) scale(358)">
<stop stop-color="#5EBA72"/>
<stop offset="0.901042" stop-color="#5DBC72" stop-opacity="0"/>
</radialGradient>
<radialGradient id="paint20_radial_551_1509" cx="0" cy="0" r="1" gradientUnits="userSpaceOnUse" gradientTransform="translate(-213 359) rotate(90) scale(358)">
<stop stop-color="#5EBA72"/>
<stop offset="0.901042" stop-color="#5DBC72" stop-opacity="0"/>
</radialGradient>
<radialGradient id="paint21_radial_551_1509" cx="0" cy="0" r="1" gradientUnits="userSpaceOnUse" gradientTransform="translate(-213 359) rotate(90) scale(358)">
<stop stop-color="#5EBA72"/>
<stop offset="0.901042" stop-color="#5DBC72" stop-opacity="0"/>
</radialGradient>
<radialGradient id="paint22_radial_551_1509" cx="0" cy="0" r="1" gradientUnits="userSpaceOnUse" gradientTransform="translate(-213 359) rotate(90) scale(358)">
<stop stop-color="#5EBA72"/>
<stop offset="0.901042" stop-color="#5DBC72" stop-opacity="0"/>
</radialGradient>
<radialGradient id="paint23_radial_551_1509" cx="0" cy="0" r="1" gradientUnits="userSpaceOnUse" gradientTransform="translate(-213 359) rotate(90) scale(358)">
<stop stop-color="#5EBA72"/>
<stop offset="0.901042" stop-color="#5DBC72" stop-opacity="0"/>
</radialGradient>
<radialGradient id="paint24_radial_551_1509" cx="0" cy="0" r="1" gradientUnits="userSpaceOnUse" gradientTransform="translate(-213 359) rotate(90) scale(358)">
<stop stop-color="#5EBA72"/>
<stop offset="0.901042" stop-color="#5DBC72" stop-opacity="0"/>
</radialGradient>
<radialGradient id="paint25_radial_551_1509" cx="0" cy="0" r="1" gradientUnits="userSpaceOnUse" gradientTransform="translate(-213 359) rotate(90) scale(358)">
<stop stop-color="#5EBA72"/>
<stop offset="0.901042" stop-color="#5DBC72" stop-opacity="0"/>
</radialGradient>
<radialGradient id="paint26_radial_551_1509" cx="0" cy="0" r="1" gradientUnits="userSpaceOnUse" gradientTransform="translate(554 359) rotate(90) scale(358)">
<stop stop-color="#5EBA72"/>
<stop offset="0.901042" stop-color="#5DBC72" stop-opacity="0"/>
</radialGradient>
<radialGradient id="paint27_radial_551_1509" cx="0" cy="0" r="1" gradientUnits="userSpaceOnUse" gradientTransform="translate(554 359) rotate(90) scale(358)">
<stop stop-color="#5EBA72"/>
<stop offset="0.901042" stop-color="#5DBC72" stop-opacity="0"/>
</radialGradient>
<radialGradient id="paint28_radial_551_1509" cx="0" cy="0" r="1" gradientUnits="userSpaceOnUse" gradientTransform="translate(554 359) rotate(90) scale(358)">
<stop stop-color="#5EBA72"/>
<stop offset="0.901042" stop-color="#5DBC72" stop-opacity="0"/>
</radialGradient>
<radialGradient id="paint29_radial_551_1509" cx="0" cy="0" r="1" gradientUnits="userSpaceOnUse" gradientTransform="translate(554 359) rotate(90) scale(358)">
<stop stop-color="#5EBA72"/>
<stop offset="0.901042" stop-color="#5DBC72" stop-opacity="0"/>
</radialGradient>
<radialGradient id="paint30_radial_551_1509" cx="0" cy="0" r="1" gradientUnits="userSpaceOnUse" gradientTransform="translate(554 359) rotate(90) scale(358)">
<stop stop-color="#5EBA72"/>
<stop offset="0.901042" stop-color="#5DBC72" stop-opacity="0"/>
</radialGradient>
<radialGradient id="paint31_radial_551_1509" cx="0" cy="0" r="1" gradientUnits="userSpaceOnUse" gradientTransform="translate(554 359) rotate(90) scale(358)">
<stop stop-color="#5EBA72"/>
<stop offset="0.901042" stop-color="#5DBC72" stop-opacity="0"/>
</radialGradient>
<radialGradient id="paint32_radial_551_1509" cx="0" cy="0" r="1" gradientUnits="userSpaceOnUse" gradientTransform="translate(554 359) rotate(90) scale(358)">
<stop stop-color="#5EBA72"/>
<stop offset="0.901042" stop-color="#5DBC72" stop-opacity="0"/>
</radialGradient>
<radialGradient id="paint33_radial_551_1509" cx="0" cy="0" r="1" gradientUnits="userSpaceOnUse" gradientTransform="translate(554 359) rotate(90) scale(358)">
<stop stop-color="#5EBA72"/>
<stop offset="0.901042" stop-color="#5DBC72" stop-opacity="0"/>
</radialGradient>
<radialGradient id="paint34_radial_551_1509" cx="0" cy="0" r="1" gradientUnits="userSpaceOnUse" gradientTransform="translate(554 359) rotate(90) scale(358)">
<stop stop-color="#5EBA72"/>
<stop offset="0.901042" stop-color="#5DBC72" stop-opacity="0"/>
</radialGradient>
<radialGradient id="paint35_radial_551_1509" cx="0" cy="0" r="1" gradientUnits="userSpaceOnUse" gradientTransform="translate(554 359) rotate(90) scale(358)">
<stop stop-color="#5EBA72"/>
<stop offset="0.901042" stop-color="#5DBC72" stop-opacity="0"/>
</radialGradient>
<radialGradient id="paint36_radial_551_1509" cx="0" cy="0" r="1" gradientUnits="userSpaceOnUse" gradientTransform="translate(554 359) rotate(90) scale(358)">
<stop stop-color="#5EBA72"/>
<stop offset="0.901042" stop-color="#5DBC72" stop-opacity="0"/>
</radialGradient>
<radialGradient id="paint37_radial_551_1509" cx="0" cy="0" r="1" gradientUnits="userSpaceOnUse" gradientTransform="translate(554 359) rotate(90) scale(358)">
<stop stop-color="#5EBA72"/>
<stop offset="0.901042" stop-color="#5DBC72" stop-opacity="0"/>
</radialGradient>
<radialGradient id="paint38_radial_551_1509" cx="0" cy="0" r="1" gradientUnits="userSpaceOnUse" gradientTransform="translate(554 359) rotate(90) scale(358)">
<stop stop-color="#5EBA72"/>
<stop offset="0.901042" stop-color="#5DBC72" stop-opacity="0"/>
</radialGradient>
<radialGradient id="paint39_radial_551_1509" cx="0" cy="0" r="1" gradientUnits="userSpaceOnUse" gradientTransform="translate(554 359) rotate(90) scale(358)">
<stop stop-color="#5EBA72"/>
<stop offset="0.901042" stop-color="#5DBC72" stop-opacity="0"/>
</radialGradient>
<radialGradient id="paint40_radial_551_1509" cx="0" cy="0" r="1" gradientUnits="userSpaceOnUse" gradientTransform="translate(554 359) rotate(90) scale(358)">
<stop stop-color="#5EBA72"/>
<stop offset="0.901042" stop-color="#5DBC72" stop-opacity="0"/>
</radialGradient>
<radialGradient id="paint41_radial_551_1509" cx="0" cy="0" r="1" gradientUnits="userSpaceOnUse" gradientTransform="translate(554 359) rotate(90) scale(358)">
<stop stop-color="#5EBA72"/>
<stop offset="0.901042" stop-color="#5DBC72" stop-opacity="0"/>
</radialGradient>
<radialGradient id="paint42_radial_551_1509" cx="0" cy="0" r="1" gradientUnits="userSpaceOnUse" gradientTransform="translate(554 359) rotate(90) scale(358)">
<stop stop-color="#5EBA72"/>
<stop offset="0.901042" stop-color="#5DBC72" stop-opacity="0"/>
</radialGradient>
<radialGradient id="paint43_radial_551_1509" cx="0" cy="0" r="1" gradientUnits="userSpaceOnUse" gradientTransform="translate(554 359) rotate(90) scale(358)">
<stop stop-color="#5EBA72"/>
<stop offset="0.901042" stop-color="#5DBC72" stop-opacity="0"/>
</radialGradient>
<radialGradient id="paint44_radial_551_1509" cx="0" cy="0" r="1" gradientUnits="userSpaceOnUse" gradientTransform="translate(554 359) rotate(90) scale(358)">
<stop stop-color="#5EBA72"/>
<stop offset="0.901042" stop-color="#5DBC72" stop-opacity="0"/>
</radialGradient>
<radialGradient id="paint45_radial_551_1509" cx="0" cy="0" r="1" gradientUnits="userSpaceOnUse" gradientTransform="translate(554 359) rotate(90) scale(358)">
<stop stop-color="#5EBA72"/>
<stop offset="0.901042" stop-color="#5DBC72" stop-opacity="0"/>
</radialGradient>
<radialGradient id="paint46_radial_551_1509" cx="0" cy="0" r="1" gradientUnits="userSpaceOnUse" gradientTransform="translate(554 359) rotate(90) scale(358)">
<stop stop-color="#5EBA72"/>
<stop offset="0.901042" stop-color="#5DBC72" stop-opacity="0"/>
</radialGradient>
<radialGradient id="paint47_radial_551_1509" cx="0" cy="0" r="1" gradientUnits="userSpaceOnUse" gradientTransform="translate(554 359) rotate(90) scale(358)">
<stop stop-color="#5EBA72"/>
<stop offset="0.901042" stop-color="#5DBC72" stop-opacity="0"/>
</radialGradient>
<radialGradient id="paint48_radial_551_1509" cx="0" cy="0" r="1" gradientUnits="userSpaceOnUse" gradientTransform="translate(554 359) rotate(90) scale(358)">
<stop stop-color="#5EBA72"/>
<stop offset="0.901042" stop-color="#5DBC72" stop-opacity="0"/>
</radialGradient>
<radialGradient id="paint49_radial_551_1509" cx="0" cy="0" r="1" gradientUnits="userSpaceOnUse" gradientTransform="translate(554 359) rotate(90) scale(358)">
<stop stop-color="#5EBA72"/>
<stop offset="0.901042" stop-color="#5DBC72" stop-opacity="0"/>
</radialGradient>
<radialGradient id="paint50_radial_551_1509" cx="0" cy="0" r="1" gradientUnits="userSpaceOnUse" gradientTransform="translate(554 359) rotate(90) scale(358)">
<stop stop-color="#5EBA72"/>
<stop offset="0.901042" stop-color="#5DBC72" stop-opacity="0"/>
</radialGradient>
<radialGradient id="paint51_radial_551_1509" cx="0" cy="0" r="1" gradientUnits="userSpaceOnUse" gradientTransform="translate(554 359) rotate(90) scale(358)">
<stop stop-color="#5EBA72"/>
<stop offset="0.901042" stop-color="#5DBC72" stop-opacity="0"/>
</radialGradient>
</defs>
</svg>
