<svg width="278" height="261" viewBox="0 0 278 261" fill="none" xmlns="http://www.w3.org/2000/svg">
<path opacity="0.25" d="M171.022 0C128.712 0 94.4312 34.3226 94.4312 76.6376C94.4312 118.953 128.712 153.275 171.022 153.275C213.371 153.275 247.652 118.953 247.652 76.6376C247.652 34.3226 213.371 0 171.022 0ZM171.022 130.015C141.571 130.015 117.681 106.092 117.681 76.6299C117.681 47.1367 141.571 23.252 171.022 23.252C200.512 23.252 224.394 47.1444 224.394 76.6299C224.402 106.092 200.512 130.015 171.022 130.015Z" fill="#E4E5F4"/>
<path d="M78.8647 37.6939C81.0632 36.2513 82.9531 36.4904 84.357 36.9456C84.0716 37.1385 83.7939 37.339 83.5162 37.5319C83.6011 37.7711 83.6859 38.0025 83.763 38.2417C83.763 38.2417 81.3718 37.5242 80.1838 38.1954C80.1375 38.0256 80.0835 37.8559 80.0373 37.6862C80.0373 37.6785 79.559 37.5088 78.8647 37.6939Z" fill="#797DFF"/>
<path d="M105.802 32.5791C105.802 32.5791 107.514 31.7382 107.669 31.3679C107.761 31.4836 107.854 31.5993 107.938 31.715C108.054 31.7536 108.178 31.7845 108.293 31.823C108.293 31.823 107.368 32.6948 106.45 33.1731C106.396 33.0574 106.342 32.934 106.288 32.8182C106.118 32.7411 105.956 32.6562 105.802 32.5791Z" fill="#B8BDF4"/>
<path d="M90.2348 32.4711C90.2348 32.4711 89.2243 32.1934 88.4761 31.4527C88.6304 31.3679 88.7846 31.2753 88.9466 31.1904C88.9698 31.0362 88.9929 30.8819 89.016 30.7276C89.016 30.7276 90.4971 31.4759 91.0525 31.5453C91.0139 31.7382 90.9831 31.9311 90.9445 32.1239C90.7054 32.2396 90.4663 32.3554 90.2348 32.4711Z" fill="#B8BDF4"/>
<path d="M78.8877 29.2926C78.8877 29.2926 79.4508 29.8944 80.2916 30.2492C80.3148 30.1258 80.3379 30.0024 80.361 29.8789C80.469 29.8635 80.5693 29.8404 80.6773 29.8249C80.6773 29.8249 79.9522 29.5935 79.5588 29.1769C79.5125 29.2386 79.4662 29.3003 79.4277 29.3621C79.2503 29.3389 79.0728 29.3158 78.8877 29.2926Z" fill="#797DFF"/>
<path d="M95.9894 43.9351C95.9971 43.9351 93.976 41.8907 93.6289 41.6747C93.8526 41.7055 94.084 41.7441 94.3077 41.7827C94.3154 41.6053 94.3154 41.4201 94.3232 41.2427C94.3309 41.235 96.6219 43.1868 96.8919 43.3719C96.7068 43.4105 96.5139 43.4491 96.3288 43.4876C96.2131 43.6342 96.0974 43.7885 95.9894 43.9351Z" fill="#B8BDF4"/>
<path d="M218.192 71.9471C218.2 71.8622 218.262 71.7851 218.354 71.7696C218.47 71.7465 218.578 71.8082 218.609 71.9239C218.624 71.9856 220.252 78.1265 231.915 76.9539C236.081 76.5373 239.506 75.573 242.537 74.7244C248.13 73.1506 251.833 72.1168 254.27 76.545C254.324 76.6453 254.293 76.7765 254.185 76.8305C254.085 76.8845 253.954 76.8459 253.9 76.7456C251.617 72.6105 248.238 73.5594 242.645 75.1255C239.753 75.9356 236.15 76.9462 231.954 77.3705C219.905 78.5817 218.216 72.0859 218.2 72.0242C218.192 72.0011 218.192 71.9779 218.192 71.9471Z" fill="#EBF1F8"/>
<path d="M39.9251 228.956C39.9251 228.956 38.8837 221.797 29.1411 223.749C29.1411 223.749 32.2498 232.814 39.9251 228.956Z" fill="#E2E9F2"/>
<g opacity="0.52">
<path opacity="0.52" d="M29.5806 224.057L32.1339 225.523C32.9901 226.009 33.8386 226.487 34.7103 226.95C35.1423 227.182 35.5742 227.413 36.0139 227.629C36.4536 227.853 36.8933 228.061 37.3407 228.262C37.7881 228.462 38.2355 228.648 38.6984 228.802C39.1612 228.956 39.6317 229.087 40.1254 229.087C39.8786 229.118 39.6317 229.118 39.3849 229.08C39.1381 229.049 38.8989 228.995 38.6521 228.933C38.1738 228.81 37.7033 228.64 37.2482 228.462C36.3302 228.1 35.4431 227.66 34.5714 227.197C33.7075 226.727 32.8512 226.233 32.0181 225.708C31.1928 225.191 30.3751 224.644 29.5806 224.057Z" fill="#81B3FF"/>
</g>
<path d="M227.519 75.7736C227.519 75.7736 229.871 73.9066 228.537 70.3501C227.202 66.7937 226.547 67.4186 228.275 63.1446C230.002 58.8707 222.204 52.5138 217.853 53.9487C217.853 53.9487 213.101 50.8551 208.99 55.1136C202.503 61.8408 210.672 69.3549 208.635 72.6105C206.591 75.8661 206.251 73.3049 203.937 75.2104C201.623 77.1159 202.85 84.0514 211.798 82.5316C220.746 81.0041 215.909 81.1738 222.327 82.4082C228.745 83.6271 227.519 75.7736 227.519 75.7736Z" fill="#21267F"/>
<path opacity="0.5" d="M226.246 77.7099C224.85 77.3396 223.261 76.869 222.798 75.3261C222.674 74.9249 222.628 74.4621 222.644 74.0455C222.659 73.652 222.852 73.2894 222.867 72.896C222.89 72.3637 222.412 71.9008 222.104 71.5073C221.834 71.1679 221.602 70.8207 221.417 70.435C220.769 69.1235 220.607 67.7194 220.484 66.2999C220.214 66.8168 219.874 67.2951 219.465 67.7194C216.943 70.3193 212.022 71.1602 208.651 69.4552C209.029 70.7204 209.152 71.8005 208.643 72.6105C206.599 75.8661 206.259 73.3049 203.945 75.2104C201.631 77.1159 202.857 84.0514 211.806 82.5316C220.754 81.0041 215.917 81.1738 222.335 82.4082C226.485 83.2028 227.442 80.2018 227.596 77.9799C227.133 77.9028 226.678 77.8257 226.246 77.7099Z" fill="#21267F"/>
<path d="M134.296 238.846C134.296 239.896 127.508 240.744 119.139 240.744C110.769 240.744 103.981 239.896 103.981 238.846C103.981 237.797 110.769 236.949 119.139 236.949C127.508 236.941 134.296 237.789 134.296 238.846Z" fill="#EBF1F8"/>
<path d="M48.8809 257.315C46.1656 256.744 66.0906 254.26 83.0225 255.633C94.9481 256.598 102.323 257.647 102.323 257.647C102.323 257.647 82.7525 260.069 75.5015 259.969C68.2504 259.853 65.3037 260.787 48.8809 257.315Z" fill="#EBF1F8"/>
<path d="M180.287 255.147C182.3 254.461 167.242 256.559 154.538 254.862C141.995 253.196 140.144 257.662 140.144 257.662C140.144 257.662 154.985 259.283 160.423 258.881C165.869 258.48 168.129 259.29 180.287 255.147Z" fill="#EBF1F8"/>
<path d="M0.0290088 229.62C-1.17435 229.033 35.3739 231.224 51.4419 226.673C67.5099 222.121 119.463 226.403 154.808 226.673C190.153 226.943 183.172 224.266 208.998 224.69C254.201 225.431 263.558 225.431 277.99 228.123C277.99 228.123 235.95 235.151 208.095 230.237C180.248 225.33 184.259 230.684 148.914 232.829C113.569 234.974 126.691 231.224 96.6914 232.829C66.7076 234.434 13.1503 236.046 0.0290088 229.62Z" fill="#E2E9F2"/>
<path d="M86.8717 195.775C85.0821 198.46 67.9805 256.39 67.9805 256.39H82.2126C82.2126 256.39 104.274 202.341 104.081 198.46C103.896 194.58 86.8717 195.775 86.8717 195.775Z" fill="#E5C9C3"/>
<path opacity="0.65" d="M86.139 208.844C88.2834 209.893 90.6593 210.333 93.0197 210.557C94.6782 210.711 96.7224 210.796 97.6558 212.424C98.5429 213.974 97.9952 216.088 97.0232 217.461C96.0359 218.865 94.6011 219.891 93.6677 221.334C92.8732 222.561 92.7497 223.841 92.9272 225.245C93.0583 226.295 93.228 227.336 93.4131 228.385C98.836 214.545 104.174 200.389 104.081 198.468C103.896 194.587 86.8718 195.783 86.8718 195.783C86.4167 196.47 84.9742 200.72 83.0688 206.676C83.9714 207.548 84.9973 208.289 86.139 208.844Z" fill="#E5C9C3"/>
<path opacity="0.65" d="M81.8733 223.332C80.6313 224.273 86.5016 209.291 87.5507 208.096C88.5921 206.908 84.0332 221.689 81.8733 223.332Z" fill="#E5C9C3"/>
<path opacity="0.65" d="M85.0591 234.758C85.1362 234.457 88.268 222.584 90.7365 220.269C93.1972 217.955 85.0591 234.758 85.0591 234.758Z" fill="#E5C9C3"/>
<path opacity="0.65" d="M75.4785 244.879C75.4785 244.879 78.5409 234.426 80.0297 230.985C80.0297 230.985 77.6384 242.04 75.4785 244.879Z" fill="#E5C9C3"/>
<path opacity="0.65" d="M79.1118 253.281C79.1118 253.281 84.5192 241.107 86.8951 236.478C86.8874 236.478 81.7191 251.637 79.1118 253.281Z" fill="#E5C9C3"/>
<path d="M110.453 180.076C109.643 183.2 112.389 239.618 112.389 239.618L125.958 238.862C125.958 238.862 129.044 180.57 127.593 176.959C126.135 173.356 110.453 180.076 110.453 180.076Z" fill="#E5C9C3"/>
<path opacity="0.65" d="M114.21 209.677C114.912 210.032 115.66 210.441 116.447 210.557C117.133 210.657 117.835 210.672 118.529 210.773C119.686 210.935 120.658 211.444 121.36 212.4C122.031 213.318 122.278 214.429 122.348 215.548C122.425 216.713 122.34 217.886 122.494 219.043C122.664 220.323 123.297 221.319 124.222 222.19C125.017 222.939 125.896 223.587 126.66 224.366C127.47 206.846 128.565 179.397 127.585 176.959C126.135 173.349 110.445 180.076 110.445 180.076C110.067 181.526 110.461 194.387 110.977 207.787C112.042 208.451 113.099 209.106 114.21 209.677Z" fill="#E5C9C3"/>
<path opacity="0.65" d="M114.773 207.748C113.909 209.045 114.534 192.967 115.128 191.494C115.729 190.02 116.277 205.488 114.773 207.748Z" fill="#E5C9C3"/>
<path opacity="0.65" d="M121.53 217.492C121.499 217.184 120.566 204.94 122.132 201.947C123.705 198.954 121.53 217.492 121.53 217.492Z" fill="#E5C9C3"/>
<path opacity="0.65" d="M115.807 230.198C115.807 230.198 115.267 219.321 115.544 215.579C115.552 215.587 116.925 226.811 115.807 230.198Z" fill="#E5C9C3"/>
<path opacity="0.65" d="M122 236.941C122 236.941 123.111 223.664 123.836 218.51C123.829 218.518 123.929 234.534 122 236.941Z" fill="#E5C9C3"/>
<path d="M148.312 195.775C150.102 198.46 167.204 256.39 167.204 256.39H152.972C152.972 256.39 130.91 202.341 131.103 198.46C131.288 194.58 148.312 195.775 148.312 195.775Z" fill="#E5C9C3"/>
<path opacity="0.65" d="M149.045 208.844C146.901 209.893 144.525 210.333 142.164 210.557C140.506 210.711 138.462 210.796 137.528 212.424C136.641 213.974 137.189 216.088 138.161 217.461C139.148 218.865 140.583 219.891 141.516 221.334C142.311 222.561 142.434 223.841 142.257 225.245C142.126 226.295 141.956 227.336 141.771 228.385C136.348 214.545 131.01 200.389 131.103 198.468C131.288 194.587 148.312 195.783 148.312 195.783C148.767 196.47 150.21 200.72 152.115 206.676C151.213 207.548 150.195 208.289 149.045 208.844Z" fill="#E5C9C3"/>
<path opacity="0.65" d="M153.319 223.332C154.561 224.273 148.69 209.291 147.641 208.096C146.592 206.908 151.151 221.689 153.319 223.332Z" fill="#E5C9C3"/>
<path opacity="0.65" d="M150.133 234.758C150.056 234.457 146.924 222.584 144.456 220.269C141.995 217.955 150.133 234.758 150.133 234.758Z" fill="#E5C9C3"/>
<path opacity="0.65" d="M159.713 244.879C159.713 244.879 156.651 234.426 155.162 230.985C155.154 230.985 157.546 242.04 159.713 244.879Z" fill="#E5C9C3"/>
<path opacity="0.65" d="M156.08 253.281C156.08 253.281 150.673 241.107 148.297 236.478C148.297 236.478 153.465 251.637 156.08 253.281Z" fill="#E5C9C3"/>
<path d="M193.169 253.188C193.169 253.188 192.737 246.63 193.678 246.26C194.627 245.89 196.879 245.859 197.334 246.337C197.797 246.808 196.37 253.659 195.468 254.492C194.565 255.317 193.508 254.939 193.169 253.188Z" fill="#EFD9D3"/>
<path d="M186.265 257.014C186.265 257.014 186.103 257.956 186.89 258.48C188.849 259.776 195.884 259.452 196.3 258.858C196.717 258.264 196.686 257.439 196.686 257.439L186.265 257.014Z" fill="#21267F"/>
<path d="M193.847 250.951C193.847 250.951 195.629 251.205 196.47 251.005C197.234 250.82 197.11 257.462 196.401 258.179C195.691 258.889 191.379 257.747 191.379 257.747C191.379 257.747 192.135 256.243 192.683 254.461C193.238 252.663 192.15 251.097 193.847 250.951Z" fill="#3339AE"/>
<path d="M191.811 253.288C191.811 253.288 190.646 250.187 191.927 250.079C193.207 249.971 193.547 250.225 194.195 250.727C194.843 251.236 193.416 253.35 193.246 253.674C193.084 253.998 191.811 253.288 191.811 253.288Z" fill="#21267F"/>
<path d="M189.736 255.001C189.736 255.001 191.294 255.309 191.78 256.212C192.274 257.122 194.194 254.592 193.84 253.597C193.485 252.602 191.448 253.026 191.448 253.026C191.448 253.026 191.61 254.908 189.736 255.001Z" fill="#21267F"/>
<path d="M186.365 257.616C187.399 258.673 191.302 259.321 192.22 258.457C193.138 257.593 192.613 253.99 188.957 254.376C187.445 254.546 185.64 256.876 186.365 257.616Z" fill="#4681DB"/>
<path opacity="0.2" d="M189.59 254.646C189.096 254.623 188.695 254.692 188.363 254.831C188.456 255.016 188.564 255.201 188.672 255.371C189.058 255.194 189.567 255.078 190.153 255.217C191.503 255.533 191.534 255.587 191.534 255.587C191.534 255.587 190.755 254.708 189.59 254.646Z" fill="white"/>
<path opacity="0.2" d="M187.869 255.294C187.761 255.441 187.8 255.641 187.962 255.726C188.062 255.78 188.186 255.765 188.271 255.688C188.34 255.626 188.44 255.549 188.564 255.464C188.448 255.286 188.348 255.109 188.255 254.924C188.109 255.032 187.977 255.155 187.869 255.294Z" fill="white"/>
<path d="M214.559 138.239L192.15 138.895C192.15 138.895 194.827 222.638 192.613 249.3L197.311 249.624C197.311 249.624 226.747 147.25 214.559 138.239Z" fill="#21267F"/>
<path opacity="0.25" d="M195.676 149.541C197.165 149.927 198.7 149.611 200.165 150.166C201.122 150.529 201.986 151.107 202.68 151.863C205.249 154.672 205.233 159.154 204.809 162.703C204.539 164.971 203.775 167.27 204.161 169.561C204.585 172.114 206.413 174.113 207.833 176.165C208.974 177.823 209.738 179.613 209.931 181.627C210.078 183.146 210.07 184.674 210.178 186.201C210.286 187.675 210.44 189.28 211.157 190.599C211.335 190.915 211.543 191.177 211.775 191.378C216.927 166.598 220.206 142.405 214.567 138.232L192.158 138.887C192.158 138.887 192.258 142.081 192.405 147.412C193.315 148.4 194.372 149.202 195.676 149.541Z" fill="#21267F"/>
<path d="M233.882 252.008C233.882 252.008 231.792 245.651 232.671 245.134C233.55 244.617 235.679 244.27 236.212 244.663C236.744 245.057 237.122 251.969 236.358 252.933C235.595 253.89 234.499 253.682 233.882 252.008Z" fill="#EFD9D3"/>
<path d="M228.05 257.369C228.05 257.369 228.104 258.326 228.991 258.65C231.198 259.46 237.97 257.524 238.233 256.845C238.495 256.166 238.287 255.371 238.287 255.371L228.05 257.369Z" fill="#21267F"/>
<path d="M234.037 249.724C234.037 249.724 235.826 249.562 236.598 249.169C237.3 248.814 238.711 255.302 238.187 256.158C237.662 257.014 233.196 256.891 233.196 256.891C233.196 256.891 233.582 255.256 233.713 253.389C233.836 251.529 232.417 250.256 234.037 249.724Z" fill="#3339AE"/>
<path d="M232.594 252.471C232.594 252.471 230.751 249.724 231.969 249.323C233.188 248.922 233.574 249.091 234.33 249.431C235.078 249.77 234.175 252.162 234.091 252.517C233.99 252.864 232.594 252.471 232.594 252.471Z" fill="#21267F"/>
<path d="M230.966 254.607C230.966 254.607 232.548 254.546 233.234 255.317C233.921 256.089 235.209 253.188 234.63 252.301C234.06 251.414 232.17 252.301 232.17 252.301C232.17 252.301 232.771 254.091 230.966 254.607Z" fill="#21267F"/>
<path d="M228.29 257.932C229.539 258.719 233.489 258.449 234.183 257.4C234.877 256.351 233.535 252.964 230.064 254.183C228.629 254.692 227.418 257.385 228.29 257.932Z" fill="#4681DB"/>
<path opacity="0.2" d="M230.743 254.299C230.257 254.384 229.879 254.553 229.593 254.762C229.732 254.924 229.871 255.07 230.025 255.217C230.357 254.955 230.827 254.723 231.429 254.723C232.818 254.723 232.864 254.769 232.864 254.769C232.864 254.769 231.884 254.091 230.743 254.299Z" fill="white"/>
<path opacity="0.2" d="M229.215 255.333C229.138 255.495 229.231 255.688 229.408 255.726C229.516 255.749 229.632 255.711 229.701 255.618C229.755 255.541 229.832 255.441 229.933 255.333C229.786 255.186 229.64 255.039 229.509 254.877C229.385 255.016 229.293 255.171 229.215 255.333Z" fill="white"/>
<path d="M228.197 135.269L206.544 141.078C206.544 141.078 227.974 221.774 231.977 248.227L237.068 247.711C237.06 247.703 242.128 141.225 228.197 135.269Z" fill="#21267F"/>
<path d="M218.192 151.863C218.192 151.863 227.217 157.04 229.323 159.732C231.437 162.417 217.899 155.15 218.192 151.863Z" fill="#3339AE"/>
<path opacity="0.1" d="M212.623 159.964C213.495 157.927 214.945 156.43 217.105 155.813C218.848 155.312 220.738 155.266 222.535 155.458C224.448 155.659 226.361 156.153 228.066 157.071C229.671 157.935 230.951 159.2 231.614 160.913C232.432 163.011 232.185 165.148 231.915 167.324C231.792 168.342 231.684 169.376 231.838 170.402C232.016 171.598 232.548 172.67 233.312 173.603C234.415 174.938 235.826 176.08 237.323 177.036C236.274 155.906 233.744 137.645 228.197 135.285L206.544 141.094C206.544 141.094 208.797 149.572 211.975 161.923C212.145 161.244 212.353 160.589 212.623 159.964Z" fill="#21267F"/>
<path d="M41.3213 57.9295C76.5736 51.6806 181.629 50.292 186.542 59.0636C198.954 81.2278 184.784 194.603 184.815 199.293C184.815 199.293 54.5968 204.817 51.0253 201.847C47.4461 198.877 31.6172 69.8641 41.3213 57.9295Z" fill="#EBF1F8"/>
<path d="M44.6769 149.896C50.3157 148.515 57.7982 137.584 49.5212 104.017C49.1355 102.443 50.7323 101.039 51.8354 99.8433C53.0542 98.5164 54.3578 97.2435 55.5303 95.878C56.4714 94.7825 57.3354 93.5945 57.7442 92.2135C58.7316 88.8345 56.7337 85.278 54.8361 82.5393C52.8459 79.6617 50.4083 76.9076 49.3129 73.5749C48.3564 70.6587 48.6727 67.4957 50.6474 65.0347C52.5373 62.6817 55.3915 61.1697 58.1839 59.9816C61.686 58.4927 65.4118 57.4512 69.1067 56.4714C72.3928 55.5997 75.7329 54.8205 79.0962 54.1879C63.8382 55.0596 50.308 56.3403 41.3137 57.9295C35.644 64.9036 38.6909 111.84 42.9181 150.259C43.5121 150.143 44.0984 150.035 44.6769 149.896Z" fill="#E2E9F2"/>
<path d="M189.042 66.0762C188.811 66.7474 188.494 67.3877 188.024 67.9586C187.97 68.0203 187.916 68.0589 187.846 68.082C187.808 68.8921 187.746 69.7021 187.63 70.5044C187.206 73.4823 186.088 76.3213 184.051 78.6434C181.721 81.305 178.613 82.8788 175.712 84.8769C173.113 86.6667 171.022 88.7419 169.958 91.6735C168.546 95.5385 168.184 99.7739 169.132 103.77C170.12 107.921 172.419 111.67 174.578 115.342C176.461 118.528 179.577 120.827 181.644 123.89C183.557 126.721 183.866 129.838 182.724 133.001C181.799 135.57 179.97 137.715 177.795 139.435C173.244 143.046 167.405 144.943 163.069 148.832C160.732 150.93 159.197 153.63 159.529 156.762C159.891 160.218 161.843 163.358 163.416 166.421C164.998 169.499 166.548 172.816 166.371 176.327C166.232 178.988 165.075 181.457 163.177 183.401C161.403 185.214 159.158 186.525 156.929 187.767C154.808 188.948 152.555 190.066 150.789 191.733C147.966 194.387 148.344 197.604 149.709 200.659C169.734 199.934 184.807 199.293 184.807 199.293C184.784 194.981 196.771 98.7556 189.042 66.0762Z" fill="#E2E9F2"/>
<path d="M75.4167 137.368C75.1622 137.121 75.0387 136.82 75.0387 136.457C75.0387 131.057 74.8845 126.498 74.5682 122.779C73.6348 122.679 72.9714 122.625 72.578 122.625C70.9812 122.625 69.8319 122.717 69.1299 122.895C69.1299 124.345 69.3073 126.521 69.6545 129.445C69.963 132.546 70.125 134.737 70.125 136.033C70.125 136.287 70.0093 136.534 69.7779 136.75C69.5465 136.974 69.2533 137.082 68.8985 137.082C68.3894 137.082 67.9265 136.488 67.4946 135.3C66.8698 133.541 66.3606 129.861 65.9749 124.26C65.705 120.465 65.5661 116.384 65.5661 112.017C65.5275 111.215 65.5044 110.081 65.5044 108.607C65.5044 108.144 65.8361 107.913 66.4995 107.913C66.8852 107.913 67.2863 107.975 67.6951 108.106C68.104 108.237 68.4048 108.376 68.5977 108.53C68.4434 109.356 68.3662 110.328 68.3662 111.438C68.3662 112.526 68.4434 113.838 68.5977 115.388C68.7134 117.17 68.7751 118.513 68.7751 119.415V120.11C68.7365 120.318 68.7134 120.565 68.7134 120.843C68.7134 121.097 68.7519 121.437 68.8291 121.846C69.0605 121.846 69.4539 121.83 69.9939 121.807C70.5415 121.784 71.0815 121.745 71.6292 121.691C72.9174 121.614 73.8662 121.576 74.491 121.576C74.491 119.331 74.4525 117.248 74.3753 115.334L74.2596 108.862V107.813C74.7687 107.813 75.2162 107.874 75.6018 107.99C75.9875 108.106 76.2807 108.252 76.4735 108.437C76.8284 108.723 77.0366 109.209 77.1138 109.911V110.798C77.1138 113.02 77.3066 117.271 77.7 123.543C78.0471 129.221 78.2246 133.487 78.2246 136.326C78.2246 136.689 78.0549 137.013 77.7309 137.298C77.3992 137.584 76.9981 137.722 76.5352 137.722C76.0493 137.738 75.6713 137.614 75.4167 137.368Z" fill="#81B3FF"/>
<path d="M92.858 137.198C92.1946 137.067 91.8629 136.704 91.8629 136.11V113.606C91.8629 113.167 91.7472 112.511 91.5158 111.631C91.2458 110.829 91.1069 110.173 91.1069 109.656V109.541C91.7703 108.815 92.2563 108.353 92.5649 108.144C93.1125 108.144 93.8299 108.09 94.7247 107.99C95.5424 107.89 96.2598 107.836 96.8846 107.836C97.5094 107.836 98.1111 107.959 98.6974 108.206C99.2836 108.453 99.569 108.746 99.569 109.078C99.569 109.849 98.6742 110.243 96.8846 110.243H96.0669C95.8355 110.22 95.5578 110.204 95.2493 110.204C94.9022 110.204 94.6862 110.22 94.609 110.243C94.609 111.122 94.6862 112.179 94.8404 113.421L94.9562 114.509L95.0719 116.638C95.0719 117.132 95.0101 117.88 94.8944 118.883L94.7787 121.051L95.5964 120.935C96.3755 120.781 97.0158 120.704 97.5249 120.704C97.9491 120.704 98.3425 120.812 98.6897 121.036C99.0368 121.259 99.2142 121.506 99.2142 121.792C99.2142 122.1 99.0676 122.378 98.7745 122.625C98.4814 122.872 98.1188 122.995 97.6946 122.995L96.9926 122.956H96.2367C95.6504 122.956 95.2416 123.049 95.0101 123.226V135.2L98.2808 135.084C100.502 135.084 101.613 135.416 101.613 136.087V136.241C101.382 136.55 100.95 136.804 100.325 136.997C99.7002 137.19 99.0985 137.313 98.5122 137.367L96.5838 137.406H94.771C94.0459 137.391 93.4057 137.321 92.858 137.198Z" fill="#81B3FF"/>
<path d="M114.858 137.213C114.449 136.966 114.249 136.673 114.249 136.341C114.249 136.11 114.326 135.825 114.48 135.485C114.596 135.123 114.657 134.853 114.657 134.675C114.657 132.376 114.465 127.963 114.071 121.429C113.678 115.851 113.485 111.446 113.485 108.221C113.485 107.99 113.624 107.805 113.894 107.658C114.164 107.519 114.495 107.442 114.889 107.442C115.359 107.442 115.76 107.55 116.115 107.774C116.462 107.998 116.64 108.26 116.64 108.569C116.64 110.119 116.756 112.441 116.995 115.543C117.188 118.976 117.288 121.306 117.288 122.517L117.35 122.98V123.443V123.713V123.905C117.465 126.15 117.527 129.506 117.527 133.973V134.984H122.024C122.842 135.369 123.251 135.755 123.251 136.149C123.251 136.434 123.104 136.689 122.811 136.905C122.518 137.121 122.178 137.236 121.785 137.236C121.669 137.236 121.453 137.213 121.145 137.159L120.913 137.121C120.682 137.144 120.312 137.159 119.803 137.159H118.807C118.537 137.136 118.221 137.121 117.874 137.121C117.488 137.429 116.941 137.584 116.239 137.584C115.722 137.584 115.267 137.46 114.858 137.213Z" fill="#81B3FF"/>
<path d="M135.307 137.213C134.898 136.966 134.698 136.673 134.698 136.341C134.698 136.11 134.775 135.825 134.929 135.485C135.045 135.123 135.107 134.853 135.107 134.675C135.107 132.376 134.914 127.963 134.52 121.429C134.127 115.851 133.934 111.446 133.934 108.221C133.934 107.99 134.073 107.805 134.343 107.658C134.613 107.519 134.945 107.442 135.338 107.442C135.809 107.442 136.21 107.55 136.565 107.774C136.912 107.998 137.089 108.26 137.089 108.569C137.089 110.119 137.205 112.441 137.444 115.543C137.637 118.976 137.737 121.306 137.737 122.517L137.799 122.98V123.443V123.713V123.905C137.914 126.15 137.976 129.506 137.976 133.973V134.984H142.473C143.291 135.369 143.7 135.755 143.7 136.149C143.7 136.434 143.553 136.689 143.26 136.905C142.967 137.121 142.628 137.236 142.234 137.236C142.119 137.236 141.903 137.213 141.594 137.159L141.363 137.121C141.131 137.144 140.761 137.159 140.252 137.159H139.257C138.987 137.136 138.67 137.121 138.323 137.121C137.938 137.429 137.39 137.584 136.688 137.584C136.171 137.584 135.716 137.46 135.307 137.213Z" fill="#81B3FF"/>
<path d="M159.236 137.545C158.379 137.082 157.639 136.449 157.014 135.647C155.88 134.251 155.047 132.345 154.499 129.915C154.106 128.241 153.813 126.297 153.62 124.106L153.558 122.054V119.963C153.52 119.292 153.497 118.482 153.497 117.525C153.497 115.975 153.597 114.609 153.79 113.421C153.944 112.179 154.337 110.952 154.955 109.741C155.579 108.684 156.474 107.936 157.639 107.496C158.341 107.288 159.043 107.188 159.745 107.188C161.804 107.188 163.447 107.728 164.651 108.816C165.978 110.027 166.849 111.385 167.281 112.881C167.906 114.686 168.253 116.422 168.33 118.073C168.485 119.909 168.562 121.637 168.562 123.265V125.471C168.562 125.911 168.461 126.737 168.269 127.948C168.114 128.905 168.037 129.715 168.037 130.386V130.54C167.806 131.265 167.69 132.114 167.69 133.101C167.69 133.826 167.459 134.575 166.988 135.346C166.518 136.118 165.854 136.781 164.998 137.321C164.142 137.938 163.17 138.247 162.074 138.247C161.041 138.239 160.092 138.008 159.236 137.545ZM164.196 134.675C164.666 133.819 165.006 132.785 165.222 131.558C165.438 130.332 165.623 128.943 165.777 127.392C165.854 126.721 165.893 125.857 165.893 124.793L165.839 121.228C165.762 119.832 165.53 118.089 165.137 115.998C164.828 114.216 164.242 112.642 163.386 111.269C163 110.621 162.514 110.119 161.928 109.757C161.342 109.394 160.724 109.217 160.061 109.217C159.089 109.217 158.364 109.718 157.901 110.729C157.315 111.786 156.929 112.951 156.729 114.216C156.497 115.589 156.358 116.885 156.32 118.127L156.258 119.408C156.22 119.77 156.196 120.256 156.196 120.881V121.036C156.196 122.764 156.466 124.901 157.014 127.431C157.639 130.864 158.549 133.302 159.76 134.752C160.539 135.655 161.357 136.11 162.213 136.11C162.992 136.11 163.648 135.632 164.196 134.675Z" fill="#81B3FF"/>
<path d="M39.9789 228.547C39.9172 228.401 33.9313 213.72 33.4916 209.183L33.291 209.199C33.7307 213.766 39.7321 228.47 39.7938 228.624L39.9789 228.547Z" fill="#EBF1F8"/>
<path d="M33.4841 209.654C33.4841 209.654 34.4638 204.94 32.8747 204.763C31.2934 204.586 33.4841 209.654 33.4841 209.654Z" fill="#EBF1F8"/>
<path d="M33.9159 211.266C33.9159 211.266 31.0771 208.265 30.9074 209.153C30.7377 210.032 33.9159 211.266 33.9159 211.266Z" fill="#EBF1F8"/>
<path d="M34.6333 213.967C34.6333 213.967 32.2882 211.128 31.5323 211.776C30.7763 212.424 34.6333 213.967 34.6333 213.967Z" fill="#EBF1F8"/>
<path d="M35.5356 217.13C35.5356 217.13 32.612 213.743 31.7866 214.576C30.9613 215.401 35.5356 217.13 35.5356 217.13Z" fill="#EBF1F8"/>
<path d="M36.4303 220.215C36.4303 220.215 32.3651 215.911 31.6554 216.983C30.9381 218.055 36.4303 220.215 36.4303 220.215Z" fill="#EBF1F8"/>
<path d="M37.95 223.872C37.95 223.872 32.6737 219.22 32.2032 220.092C31.7326 220.971 37.95 223.872 37.95 223.872Z" fill="#EBF1F8"/>
<path d="M39.3156 227.336C39.3156 227.336 33.8233 223.139 33.0673 224.173C32.3114 225.215 39.3156 227.336 39.3156 227.336Z" fill="#EBF1F8"/>
<path d="M39.3848 227.159C39.3848 227.159 39.8013 221.681 40.727 222.584C41.6449 223.479 39.3848 227.159 39.3848 227.159Z" fill="#EBF1F8"/>
<path d="M37.9502 223.872C37.9502 223.872 38.4902 218.726 39.6318 219.259C40.7735 219.791 37.9502 223.872 37.9502 223.872Z" fill="#EBF1F8"/>
<path d="M36.6772 220.1C36.6772 220.1 37.3638 215.942 38.3203 216.32C39.2768 216.69 36.6772 220.1 36.6772 220.1Z" fill="#EBF1F8"/>
<path d="M35.5356 217.13C35.5356 217.13 36.7699 212.393 37.5952 213.218C38.4283 214.044 35.5356 217.13 35.5356 217.13Z" fill="#EBF1F8"/>
<path d="M34.6333 213.967C34.6333 213.967 35.6438 209.993 36.4075 210.603C37.1712 211.22 34.6333 213.967 34.6333 213.967Z" fill="#EBF1F8"/>
<path d="M33.9697 211.776C33.9697 211.776 35.0497 208.011 35.9599 208.435C36.8779 208.859 33.9697 211.776 33.9697 211.776Z" fill="#EBF1F8"/>
<path d="M4.96605 192.327C4.93519 192.25 4.95833 192.149 5.02776 192.095C5.12032 192.018 5.25146 192.034 5.32088 192.126C5.35945 192.173 9.50951 196.987 19.4835 190.83C23.0396 188.632 25.7086 186.271 28.0614 184.18C32.4043 180.323 35.2815 177.769 39.4085 180.685C39.501 180.755 39.5242 180.886 39.4625 180.979C39.393 181.071 39.2619 181.094 39.1693 181.033C35.3124 178.309 32.6897 180.639 28.3391 184.504C26.0943 186.502 23.2942 188.986 19.7072 191.201C9.40152 197.557 5.04318 192.458 4.9969 192.404C4.98919 192.373 4.97376 192.35 4.96605 192.327Z" fill="#EBF1F8"/>
<path d="M42.5014 225.87C42.5014 225.87 38.9068 215.471 43.4656 213.319C48.0245 211.166 46.1269 222.352 42.5014 225.87Z" fill="#EBF1F8"/>
<path d="M259.107 222.044C259.107 222.044 255.512 211.644 260.071 209.492C264.622 207.347 262.732 218.526 259.107 222.044Z" fill="#EBF1F8"/>
<path d="M40.897 229.28C40.897 229.28 44.1523 224.752 37.7035 220.617C37.6958 220.624 34.5717 227.313 40.897 229.28Z" fill="#EBF1F8"/>
<g opacity="0.52">
<path opacity="0.52" d="M37.7729 221.025L38.4055 223.209C38.6215 223.934 38.8375 224.659 39.0689 225.377C39.1846 225.739 39.3003 226.094 39.4314 226.449C39.5549 226.804 39.686 227.159 39.8248 227.506C39.9637 227.853 40.118 228.2 40.2877 228.532C40.4574 228.864 40.6579 229.195 40.9279 229.458C40.7814 229.342 40.6348 229.211 40.5268 229.056C40.4034 228.91 40.3031 228.748 40.1951 228.586C39.9945 228.262 39.8248 227.915 39.6706 227.568C39.3543 226.873 39.0997 226.156 38.8606 225.431C38.6292 224.705 38.4209 223.972 38.2435 223.24C38.0584 222.522 37.9041 221.774 37.7729 221.025Z" fill="#81B3FF"/>
</g>
<path d="M257.016 225.809C257.016 225.809 259.593 211.583 239.884 209.099C239.884 209.099 240.015 228.239 257.016 225.809Z" fill="#EBF1F8"/>
<g opacity="0.52">
<path opacity="0.52" d="M240.516 209.955L244.435 214.36C245.746 215.818 247.057 217.276 248.407 218.696C249.079 219.413 249.757 220.115 250.444 220.809C251.13 221.504 251.832 222.19 252.55 222.846C253.275 223.502 254.008 224.15 254.787 224.736C255.558 225.33 256.384 225.87 257.317 226.187C256.839 226.086 256.36 225.924 255.921 225.693C255.473 225.477 255.049 225.222 254.632 224.96C253.807 224.42 253.02 223.81 252.264 223.17C250.752 221.897 249.356 220.501 247.999 219.074C246.649 217.639 245.353 216.157 244.103 214.63C242.846 213.133 241.65 211.567 240.516 209.955Z" fill="#81B3FF"/>
</g>
<path d="M247.343 168.465H244.52V165.95H242.005V163.127H244.52V160.612H247.343V163.127H249.858V165.95H247.343V168.465ZM244.798 168.188H247.073V165.673H249.588V163.397H247.073V160.882H244.798V163.397H242.283V165.673H244.798V168.188Z" fill="#E2E9F2"/>
<path d="M28.2772 164.384L26.2793 162.386L28.0535 160.612L26.2793 158.837L28.2772 156.839L30.0514 158.614L31.8256 156.839L33.8235 158.837L32.0493 160.612L33.8235 162.386L31.8256 164.384L30.0514 162.61L28.2772 164.384ZM26.665 162.386L28.2695 163.991L30.0437 162.216L31.8179 163.991L33.4223 162.386L31.6481 160.612L33.4223 158.837L31.8179 157.233L30.0437 159.007L28.2695 157.233L26.665 158.837L28.4392 160.612L26.665 162.386Z" fill="#E2E9F2"/>
<path d="M231.298 143.076C227.92 146.455 198.267 146.764 192.69 143.879C187.113 140.993 192.667 78.1034 216.588 76.167C236.304 74.5778 231.298 143.076 231.298 143.076Z" fill="#EBF1F8"/>
<path d="M205.04 88.0167C205.935 88.765 210.949 90.9406 214.374 89.8837C217.799 88.8268 220.345 88.8962 221.695 89.0891C223.037 89.2819 222.288 97.7989 222.288 97.7989C222.288 97.7989 216.318 99.8125 211.458 97.7989C206.606 95.7854 202.348 96.0786 202.271 95.8548C202.209 95.6311 205.04 88.0167 205.04 88.0167Z" fill="#21267F"/>
<path d="M197.905 105.66C199.132 106.409 206.012 108.584 210.718 107.527C215.423 106.47 218.918 106.54 220.761 106.733C222.605 106.925 221.579 115.442 221.579 115.442C221.579 115.442 213.379 117.456 206.714 115.442C200.05 113.429 194.21 113.722 194.11 113.498C194.01 113.275 197.905 105.66 197.905 105.66Z" fill="#21267F"/>
<path d="M198.013 121.992C199.393 122.741 207.123 124.916 212.414 123.859C217.706 122.802 221.633 122.872 223.708 123.065C225.783 123.257 224.633 131.774 224.633 131.774C224.633 131.774 215.415 133.788 207.925 131.774C200.435 129.761 193.863 130.054 193.747 129.83C193.631 129.607 198.013 121.992 198.013 121.992Z" fill="#21267F"/>
<path d="M188.641 67.1254C188.394 67.9046 187.885 68.7455 187.46 68.8998C187.237 69.0849 186.62 71.5613 186.45 72.3097L182.678 72.1477L183.372 68.5449C183.372 68.5449 183.233 67.7889 183.133 66.4851C183.025 65.1736 182.739 60.1128 183.349 60.2825C183.958 60.4522 184.089 63.2681 184.089 63.2681C184.089 63.2681 184.598 58.755 185.262 58.9864C185.925 59.2179 185.578 63.1523 185.578 63.1523C185.578 63.1523 186.296 58.2304 187.036 58.0761C187.777 57.9218 186.859 63.2526 186.859 63.2526C186.859 63.2526 188.417 58.809 189.08 59.0019C189.751 59.1947 188.162 63.6769 188.031 64.6644C187.946 65.3125 188.378 65.7445 188.857 65.2662C189.343 64.7879 190.692 64.757 190.87 65.2276C191.047 65.7059 188.887 66.3385 188.641 67.1254Z" fill="#EFD9D3"/>
<g opacity="0.5">
<path opacity="0.5" d="M185.57 68.8844C186.049 68.8766 186.519 68.8072 186.982 68.6915C187.229 68.6298 187.476 68.5449 187.699 68.4138C187.159 68.9846 186.473 69.3935 185.647 69.3549C185.185 69.3318 184.629 69.2547 184.251 68.9692C184.112 68.8612 183.989 68.7069 183.889 68.5372C183.974 68.5989 184.066 68.6452 184.166 68.6915C184.591 68.8689 185.115 68.8921 185.57 68.8844Z" fill="#E5C9C3"/>
</g>
<path d="M208.897 79.1911L183.596 93.1933L187.476 70.1187L182.67 69.3086C182.67 69.3086 170.05 91.2415 173.822 104.326C177.595 117.417 197.897 105.652 197.897 105.652L208.897 79.1911Z" fill="#81B3FF"/>
<path opacity="0.3" d="M200.698 83.7351C198.53 86.9984 196.771 90.5395 194.31 93.6022C193.292 94.8751 192.205 96.0092 190.785 96.8346C189.605 97.5135 188.271 98.015 187.306 99.0102C186.172 100.175 186.064 101.811 185.509 103.261C184.923 104.781 183.812 105.853 182.315 106.486C180.665 107.188 178.821 107.327 177.047 107.303C176.399 107.296 175.766 107.226 175.134 107.126C180.904 115.496 197.913 105.653 197.913 105.653L208.913 79.1912L200.698 83.7351Z" fill="#81B3FF"/>
<path d="M210.232 78.2885C210.232 78.2885 211.559 84.7534 206.568 94.0342C201.569 103.323 200.235 110.482 199.918 117.656C198.808 143.045 191.641 145.29 191.641 145.29C191.641 145.29 187.237 145.846 189.026 138.571C189.859 135.169 188.031 90.8017 210.232 78.2885Z" fill="#81B3FF"/>
<path d="M221.178 77.2547C219.064 77.2007 213.935 99.4884 219.504 112.835C225.073 126.181 213.688 138.718 217.815 142.035C221.942 145.352 228.012 149.31 235.703 146.903C243.394 144.496 233.859 138.224 232.787 123.489C231.715 108.754 231.869 99.689 231.869 99.689C231.869 99.689 232.17 77.5325 221.178 77.2547Z" fill="#81B3FF"/>
<path opacity="0.3" d="M232.779 123.489C232.047 113.437 231.885 106.03 231.861 102.335C231.051 100.862 230.419 99.2724 229.902 97.6909C229.162 95.4537 228.622 93.1393 228.359 90.794C227.187 92.9695 226.817 95.6234 227.202 98.0304C227.418 99.365 227.958 100.623 228.359 101.911C228.737 103.122 229.054 104.349 229.108 105.622C229.162 106.956 228.899 108.268 228.375 109.494C228.066 110.212 227.657 110.875 227.318 111.577C226.994 112.249 226.701 112.943 226.439 113.645C225.389 116.399 224.687 119.277 223.291 121.892C222.666 123.072 221.857 124.129 221.101 125.225C220.908 125.495 220.715 125.78 220.53 126.058C220.375 126.868 220.19 127.662 219.99 128.442C221.278 128.542 222.597 128.218 223.878 128.195C225.312 128.172 226.716 128.665 227.95 129.367C230.172 130.625 231.885 132.654 232.733 135.045C233.597 137.46 233.936 140.168 233.358 142.683C232.864 144.835 231.622 146.533 229.702 147.574C231.568 147.736 233.566 147.566 235.687 146.903C243.386 144.496 233.859 138.224 232.779 123.489Z" fill="#81B3FF"/>
<path d="M211.281 78.0957C211.559 76.3907 213.587 74.8478 215.809 74.6626C218.031 74.4698 219.597 75.7041 219.319 77.4091C219.041 79.114 217.012 80.6569 214.791 80.8421C212.569 81.035 210.996 79.8006 211.281 78.0957Z" fill="#EBF1F8"/>
<path d="M212.886 72.4794L212.392 78.4582C212.392 78.4582 216.442 79.7389 218.154 77.1468L217.02 72.2402L212.886 72.4794Z" fill="#EFD9D3"/>
<path opacity="0.5" d="M217.113 72.6414C216.804 74.3386 212.87 75.3029 213.179 76.8227C213.333 77.5942 214.105 78.0571 214.822 78.2885C215.3 78.4428 215.802 78.5123 216.303 78.5277C214.49 79.1217 212.392 78.4582 212.392 78.4582L212.886 72.4794L217.113 72.6414Z" fill="#E5C9C3"/>
<path d="M221.055 64.3018C221.055 64.3018 221.247 73.652 213.495 73.5209C205.735 73.3897 210.155 61.4551 210.155 61.4551C210.155 61.4551 216.403 56.9497 221.055 64.3018Z" fill="#EFD9D3"/>
<path d="M209.545 61.4242C209.545 61.4242 211.559 62.3346 212.199 62.134C212.839 61.9334 213.418 61.1851 213.418 61.1851V62.6432C213.418 62.6432 219.658 65.7059 221.679 64.271C223.7 62.836 213.649 53.0384 209.545 61.4242Z" fill="#21267F"/>
<path d="M220.052 65.6905C220.052 65.6905 221.162 64.8418 221.787 65.4667C222.412 66.0916 220.939 69.5632 219.812 68.5526C218.686 67.5497 220.052 65.6905 220.052 65.6905Z" fill="#EFD9D3"/>
<path d="M220.321 66.2459C220.36 66.2536 220.406 66.2382 220.429 66.1996C220.429 66.1919 220.723 65.7599 221.062 65.7445C221.208 65.7368 221.347 65.8062 221.478 65.9605C221.517 66.0068 221.579 66.0068 221.625 65.9759C221.671 65.9373 221.671 65.8756 221.64 65.8293C221.463 65.621 221.27 65.5285 221.054 65.5439C220.615 65.567 220.275 66.0685 220.26 66.0916C220.229 66.1379 220.244 66.2074 220.291 66.2382C220.291 66.2382 220.306 66.2382 220.321 66.2459Z" fill="#21267F"/>
<path d="M217.684 65.8448C217.684 65.8448 215.801 65.6905 215.616 65.4976C215.431 65.3047 216.033 64.9344 216.858 65.1736C217.684 65.4127 217.9 65.8448 217.684 65.8448Z" fill="#21267F"/>
<path d="M215.948 66.6085C215.894 66.9094 216.064 67.1871 216.318 67.2334C216.573 67.2797 216.82 67.0714 216.874 66.7705C216.928 66.4696 216.758 66.1919 216.503 66.1456C216.434 66.1302 216.365 66.1379 216.295 66.1688C216.38 66.2073 216.434 66.3153 216.411 66.4311C216.388 66.5699 216.272 66.6625 216.156 66.6394C216.071 66.6239 216.01 66.5545 215.994 66.4619C215.971 66.5082 215.956 66.5545 215.948 66.6085Z" fill="#21267F"/>
<path d="M212.793 65.0193C212.793 65.0193 210.911 64.865 210.726 64.6721C210.54 64.4793 211.142 64.1089 211.967 64.3481C212.793 64.5873 213.009 65.0193 212.793 65.0193Z" fill="#21267F"/>
<path d="M211.05 65.783C210.996 66.0839 211.165 66.3616 211.42 66.4079C211.674 66.4542 211.921 66.2459 211.975 65.945C212.029 65.6442 211.86 65.3664 211.605 65.3202C211.536 65.3047 211.466 65.3124 211.397 65.3433C211.482 65.3819 211.536 65.4899 211.512 65.6056C211.489 65.7445 211.374 65.837 211.258 65.8139C211.173 65.7985 211.111 65.729 211.088 65.6365C211.08 65.6827 211.065 65.729 211.05 65.783Z" fill="#21267F"/>
<path d="M213.541 67.8043C213.58 67.812 213.61 67.7966 213.641 67.7657C213.68 67.7194 213.672 67.6577 213.626 67.6191C213.418 67.4494 213.395 67.3568 213.395 67.326C213.402 67.2488 213.549 67.164 213.703 67.0791C213.796 67.0251 213.904 66.9634 214.004 66.8939C214.49 66.5468 214.575 65.3973 214.575 65.3433C214.575 65.2893 214.536 65.2353 214.474 65.2353C214.42 65.2353 214.366 65.2739 214.366 65.3356C214.343 65.6442 214.22 66.4851 213.88 66.7242C213.788 66.7937 213.688 66.8477 213.595 66.9017C213.387 67.0251 213.202 67.1254 213.186 67.3105C213.171 67.4494 213.263 67.596 213.487 67.7811C213.51 67.7888 213.526 67.7966 213.541 67.8043Z" fill="#21267F"/>
<path d="M211.412 69.3626C211.374 69.3626 211.343 69.3781 211.312 69.4012C211.227 69.4707 211.212 69.5941 211.281 69.6789C211.296 69.7021 211.721 70.2344 212.492 70.3038C213.148 70.3656 213.842 70.0724 214.544 69.4321C214.621 69.3626 214.629 69.2392 214.559 69.1543C214.49 69.0772 214.367 69.0695 214.282 69.1389C213.657 69.7021 213.063 69.9567 212.523 69.9104C211.921 69.8564 211.59 69.4398 211.59 69.4321C211.543 69.3858 211.474 69.3626 211.412 69.3626Z" fill="#21267F"/>
<path opacity="0.5" d="M215.585 68.8766C215.585 69.3318 216.125 69.7021 216.789 69.7021C217.452 69.7021 217.992 69.3318 217.992 68.8766C217.992 68.4215 217.452 68.0512 216.789 68.0512C216.125 68.0512 215.585 68.4215 215.585 68.8766Z" fill="#E5C9C3"/>
<path opacity="0.5" d="M209.345 67.4185C209.345 67.7811 209.777 68.082 210.309 68.082C210.841 68.082 211.273 67.7889 211.273 67.4185C211.273 67.0482 210.841 66.7551 210.309 66.7551C209.777 66.7551 209.345 67.0482 209.345 67.4185Z" fill="#E5C9C3"/>
<path d="M120.281 7.98469V30.3804H121.091V7.97697C120.828 7.97697 120.558 7.98469 120.281 7.98469Z" fill="#EBF1F8"/>
<path d="M125.719 43.125C125.719 45.9023 123.467 48.155 120.69 48.155C117.913 48.155 115.66 45.9023 115.66 43.125C115.66 40.3477 117.913 38.0951 120.69 38.0951C123.467 38.0951 125.719 40.3477 125.719 43.125Z" fill="#EBF1F8"/>
<path d="M125.819 33.0497C125.835 33.0188 125.935 32.8645 125.896 32.8259C124.948 31.877 124.523 29.7709 124.523 29.7709C123.937 29.2232 121.199 29.2078 120.697 29.2078C120.196 29.2078 117.457 29.2232 116.871 29.7709C116.871 29.7709 116.439 31.877 115.498 32.8259C115.459 32.8645 115.498 32.9571 115.575 33.0497C110.453 34.77 106.828 38.9745 106.828 43.9042H134.567C134.559 38.9745 130.941 34.77 125.819 33.0497Z" fill="#EFD9D3"/>
<path d="M121.523 29.5935C122.325 29.9638 123.574 30.5964 123.142 31.6919C122.811 32.5405 121.708 32.9802 120.921 33.2965C123.69 33.7363 126.521 34.338 128.511 36.3747C129.414 37.2927 130 38.7508 129.607 40.0392C129.267 41.1578 128.218 41.505 127.146 41.505C125.734 41.5127 124.354 41.0961 122.942 41.1115C121.191 41.1269 120.111 42.3227 118.568 42.9245C116.917 43.5725 115.143 43.4953 113.408 43.7345C113.014 43.7885 112.613 43.8502 112.212 43.9119H134.551C134.551 38.99 130.926 34.7778 125.811 33.0574C125.827 33.0342 125.919 32.8722 125.889 32.8414C124.94 31.8925 124.516 29.7864 124.516 29.7864C123.929 29.2386 121.191 29.2232 120.689 29.2232C120.666 29.2232 120.612 29.2232 120.581 29.2232C120.905 29.3312 121.222 29.4469 121.523 29.5935Z" fill="#E5C9C3"/>
<path d="M202.495 113.197C202.495 113.197 197.411 113.275 194.31 114.686C191.21 116.098 185.918 114.532 185.918 114.532L185.447 116.43C185.44 116.438 196.771 119.701 202.495 113.197Z" fill="#4A90FF"/>
<path d="M207.439 117.093C207.439 117.093 208.157 112.387 207.308 111.6C206.467 110.821 205.079 111.57 205.079 111.57L202.271 113.452C202.271 113.452 189.821 117.417 185.432 116.43C185.432 116.43 191.965 121.414 194.326 127.925C196.686 134.428 197.342 137.375 197.342 137.375C197.342 137.375 200.235 136.002 204.925 135.339C209.622 134.675 207.439 117.093 207.439 117.093Z" fill="#4681DB"/>
<path d="M202.279 113.452C202.279 113.452 208.388 109.016 207.069 113.39C205.75 117.765 191.865 120.164 191.865 120.164C191.865 120.164 206.059 134.745 204.153 140.754C204.153 140.754 207.378 141.071 211.79 143.254C216.202 145.437 218.409 140.477 217.637 136.025C217.637 136.025 208.751 112.341 207.432 111.037C206.113 109.734 202.279 113.452 202.279 113.452Z" fill="#4A90FF"/>
<path d="M206.637 143.13C206.637 143.13 209.406 142.274 213.942 141.356C215.508 141.04 217.745 140.415 217.475 136.743C217.406 135.809 216.842 133.811 216.009 131.327C215.145 128.75 213.996 125.633 212.808 122.632C210.64 117.147 208.342 112.009 207.439 111.053C207.624 111.323 210.741 116.067 205.372 119.331C200.018 122.578 197.326 121.892 197.149 121.846C197.434 122.177 208.025 134.482 206.637 143.13Z" fill="#81B3FF"/>
<g opacity="0.35">
<path opacity="0.35" d="M205.974 122.038C205.966 122.023 205.958 122.015 205.951 122C208.581 120.241 209.522 117.873 209.538 117.842C209.569 117.765 209.653 117.726 209.73 117.757C209.808 117.788 209.846 117.873 209.815 117.95C209.8 117.981 208.828 120.434 206.128 122.247C206.074 122.17 206.02 122.1 205.974 122.038Z" fill="#EBF1F8"/>
<path opacity="0.35" d="M201.924 123.628C203.127 123.396 204.153 123.01 205.033 122.54C205.063 122.578 205.087 122.625 205.117 122.663C205.148 122.702 205.179 122.748 205.21 122.787C204.3 123.273 203.235 123.682 201.978 123.921C201.901 123.936 201.816 123.882 201.8 123.797C201.785 123.72 201.839 123.643 201.924 123.628Z" fill="#EBF1F8"/>
<path opacity="0.35" d="M208.851 122.332C209.954 121.09 210.371 119.986 210.378 119.963C210.409 119.886 210.494 119.847 210.571 119.871C210.648 119.901 210.695 119.986 210.664 120.063C210.656 120.087 210.224 121.259 209.059 122.555C208.99 122.486 208.92 122.416 208.851 122.332Z" fill="#EBF1F8"/>
<path opacity="0.35" d="M202.703 125.595C202.749 125.579 202.78 125.579 202.819 125.572C205.334 125.14 207.069 124.052 208.249 122.956C208.311 123.034 208.381 123.103 208.458 123.172C207.247 124.307 205.457 125.425 202.873 125.873C202.834 125.88 202.796 125.888 202.749 125.896C202.665 125.911 202.587 125.857 202.58 125.772C202.564 125.687 202.618 125.61 202.703 125.595Z" fill="#EBF1F8"/>
<path opacity="0.35" d="M203.482 127.562C204.747 127.392 205.804 127.061 206.706 126.644C206.737 126.737 206.776 126.837 206.814 126.93C206.004 127.3 205.071 127.608 203.983 127.794C203.829 127.817 203.675 127.848 203.52 127.863C203.436 127.871 203.358 127.817 203.351 127.732C203.343 127.647 203.405 127.57 203.482 127.562Z" fill="#EBF1F8"/>
<path opacity="0.35" d="M207.478 126.243C210.355 124.592 211.219 122.123 211.235 122.092C211.258 122.015 211.35 121.969 211.428 122C211.505 122.023 211.551 122.108 211.52 122.193C211.512 122.231 210.61 124.831 207.586 126.536C207.547 126.436 207.509 126.343 207.478 126.243Z" fill="#EBF1F8"/>
<path opacity="0.35" d="M205.102 129.715C210.972 128.704 212.353 124.353 212.369 124.307C212.392 124.229 212.345 124.145 212.268 124.121C212.191 124.098 212.106 124.145 212.083 124.222C212.068 124.268 210.617 128.82 204.261 129.529C204.176 129.537 204.122 129.614 204.13 129.699C204.138 129.784 204.215 129.838 204.3 129.83C204.578 129.799 204.848 129.761 205.102 129.715Z" fill="#EBF1F8"/>
<path opacity="0.35" d="M205.04 131.497C206.46 131.373 207.617 131.057 208.589 130.64C208.635 130.725 208.681 130.818 208.735 130.91C208.01 131.219 207.185 131.481 206.213 131.651C205.85 131.713 205.464 131.767 205.063 131.798C204.978 131.805 204.909 131.744 204.901 131.659C204.901 131.574 204.971 131.504 205.04 131.497Z" fill="#EBF1F8"/>
<path opacity="0.35" d="M209.368 130.27C212.214 128.735 212.924 126.374 212.939 126.343C212.962 126.266 213.047 126.22 213.124 126.235C213.201 126.258 213.255 126.343 213.232 126.42C213.225 126.451 212.484 128.935 209.522 130.532C209.46 130.447 209.414 130.363 209.368 130.27Z" fill="#EBF1F8"/>
<path opacity="0.35" d="M211.906 131.211C213.402 129.892 213.78 128.496 213.788 128.473C213.811 128.388 213.888 128.341 213.973 128.365C214.05 128.388 214.104 128.465 214.081 128.55C214.073 128.573 213.665 130.069 212.083 131.458C212.029 131.373 211.967 131.288 211.906 131.211Z" fill="#EBF1F8"/>
<path opacity="0.35" d="M205.819 133.464C208.303 133.294 210.031 132.577 211.227 131.744C211.273 131.798 211.319 131.859 211.358 131.913C211.373 131.936 211.389 131.96 211.404 131.983C210.424 132.669 209.098 133.279 207.316 133.587C206.853 133.664 206.359 133.726 205.827 133.765C205.742 133.772 205.673 133.711 205.665 133.626C205.673 133.541 205.742 133.464 205.819 133.464Z" fill="#EBF1F8"/>
<path opacity="0.35" d="M213.402 132.7C214.382 131.62 214.629 130.617 214.637 130.602C214.652 130.517 214.737 130.471 214.814 130.486C214.899 130.501 214.945 130.586 214.93 130.663C214.922 130.687 214.644 131.805 213.541 132.986C213.495 132.893 213.449 132.793 213.402 132.7Z" fill="#EBF1F8"/>
<path opacity="0.35" d="M212.754 133.325C212.801 133.418 212.847 133.502 212.901 133.595C212.214 134.166 211.32 134.714 210.132 135.107C210.132 135.099 210.124 135.092 210.124 135.084C210.108 135.045 210.093 135.007 210.085 134.968C210.108 135.076 210.085 134.961 210.078 134.945C210.062 134.899 210.054 134.86 210.039 134.814C211.212 134.428 212.091 133.888 212.754 133.325Z" fill="#EBF1F8"/>
<path opacity="0.35" d="M206.598 135.431C207.586 135.385 208.45 135.246 209.213 135.061C209.244 135.161 209.267 135.261 209.298 135.354C209.021 135.423 208.735 135.485 208.434 135.539C207.879 135.632 207.27 135.701 206.614 135.732C206.529 135.74 206.46 135.67 206.46 135.585C206.452 135.501 206.521 135.431 206.598 135.431Z" fill="#EBF1F8"/>
<path opacity="0.35" d="M212.523 136.179C215.038 134.806 215.485 132.754 215.493 132.723C215.508 132.638 215.585 132.592 215.67 132.608C215.755 132.623 215.809 132.7 215.786 132.785C215.778 132.816 215.3 135.015 212.631 136.465C212.6 136.365 212.554 136.272 212.523 136.179Z" fill="#EBF1F8"/>
<path opacity="0.35" d="M207.378 137.398C209.214 137.344 210.633 137.013 211.744 136.55C211.782 136.642 211.821 136.735 211.859 136.828C211.196 137.105 210.44 137.337 209.545 137.491C208.897 137.607 208.18 137.676 207.393 137.699C207.308 137.699 207.239 137.638 207.239 137.553C207.231 137.468 207.301 137.398 207.378 137.398Z" fill="#EBF1F8"/>
<path opacity="0.35" d="M211.211 139.018C215.724 137.977 216.341 134.883 216.349 134.845C216.364 134.76 216.441 134.706 216.526 134.721C216.611 134.737 216.665 134.814 216.65 134.899C216.642 134.937 216.009 138.224 211.304 139.312C211.265 139.219 211.235 139.119 211.211 139.018Z" fill="#EBF1F8"/>
<path opacity="0.35" d="M208.157 139.366C208.974 139.358 209.699 139.288 210.363 139.188C210.394 139.288 210.417 139.389 210.448 139.481C209.761 139.589 209.005 139.659 208.157 139.666C208.072 139.666 208.002 139.597 208.002 139.52C208.01 139.435 208.08 139.366 208.157 139.366Z" fill="#EBF1F8"/>
</g>
<path opacity="0.19" d="M214.721 131.157L216.002 131.327C215.138 128.75 213.989 125.633 212.801 122.632L212.554 123.057C212.037 123.666 212.731 125.333 212.731 125.333C212.731 125.333 210.687 127.948 206.599 127.308C206.606 127.308 206.444 132.708 214.721 131.157Z" fill="#916640"/>
<path d="M208.666 130.301C208.774 129.715 211.389 129.367 211.389 129.367C211.389 129.367 207.131 129.259 207.301 128.627C207.463 127.986 211.165 127.994 211.165 127.994C211.165 127.994 206.506 127.732 206.306 127.053C206.097 126.374 211.158 126.791 211.158 126.791C211.158 126.791 206.884 125.703 207.008 125.063C207.131 124.422 211.443 125.541 212.384 125.579C212.993 125.603 213.364 125.171 212.878 124.762C212.392 124.353 212.245 123.088 212.677 122.887C213.109 122.679 213.881 124.646 214.629 124.808C215.377 124.978 216.202 125.379 216.388 125.765C217.097 126.505 218.455 124.978 218.455 124.978C218.501 125.263 220.545 127.377 219.003 128.426L216.519 129.514C216.519 129.514 215.693 129.807 214.482 130.015C213.263 130.201 208.558 130.887 208.666 130.301Z" fill="#EFD9D3"/>
<path d="M227.573 80.8652C227.573 80.8652 246.024 93.8876 246.966 108.059C247.714 119.215 217.784 129.637 217.784 129.637L217.043 125.633L231.862 109.232C231.87 109.224 223.809 83.5422 227.573 80.8652Z" fill="#81B3FF"/>
<g opacity="0.5">
<path opacity="0.5" d="M212.754 122.91C212.901 122.926 213.048 123.157 213.102 123.257C213.102 123.257 212.986 123.45 212.893 123.358C212.793 123.265 212.6 122.895 212.754 122.91Z" fill="#EBF1F8"/>
<path opacity="0.5" d="M207.07 125.063C207.139 124.924 207.633 124.962 207.671 125.001C207.671 125.001 207.563 125.387 207.517 125.448C207.463 125.502 207 125.201 207.07 125.063Z" fill="#EBF1F8"/>
<path opacity="0.5" d="M206.445 127.038C206.476 126.883 206.954 126.791 207.008 126.814C207.008 126.814 207.008 127.215 206.985 127.284C206.946 127.354 206.414 127.192 206.445 127.038Z" fill="#EBF1F8"/>
<path opacity="0.5" d="M207.478 128.658C207.501 128.503 207.98 128.388 208.026 128.411C208.026 128.411 208.049 128.812 208.018 128.881C207.995 128.951 207.455 128.812 207.478 128.658Z" fill="#EBF1F8"/>
<path opacity="0.5" d="M208.782 130.293C208.789 130.162 209.175 130.031 209.221 130.046C209.221 130.046 209.268 130.378 209.252 130.44C209.237 130.501 208.782 130.424 208.782 130.293Z" fill="#EBF1F8"/>
</g>
<path d="M80.346 55.9623C79.4434 58.7627 77.3684 60.0588 75.5325 60.8997C75.6019 60.5294 75.6714 60.159 75.7408 59.7887C75.4168 59.6884 75.0851 59.5882 74.7534 59.4879C74.7534 59.4802 77.8698 58.0375 78.4561 56.6103C78.6798 56.7029 78.9035 56.7877 79.1272 56.8803C79.1272 56.8803 79.7906 56.6412 80.346 55.9623Z" fill="#797DFF"/>
<path d="M63.9075 82.4236C63.8998 82.4236 63.9229 84.3986 64.2778 84.7072C64.1003 84.738 63.9152 84.7689 63.7378 84.7997C63.6298 84.8923 63.5295 84.9849 63.4215 85.0775C63.4215 85.0775 62.897 83.8354 62.8584 82.7476C63.0281 82.7476 63.1978 82.7553 63.3598 82.7553C63.5372 82.6473 63.7224 82.5393 63.9075 82.4236Z" fill="#B8BDF4"/>
<path d="M74.9615 68.8226C74.9615 68.8226 76.1031 68.1746 77.4994 68.0974C77.4608 68.2826 77.4222 68.4677 77.3837 68.6529C77.5225 68.7763 77.6614 68.9075 77.8002 69.0309C77.8002 69.0232 75.7946 69.6944 75.2623 70.111C75.0849 69.949 74.9152 69.7947 74.7378 69.6327C74.8072 69.3627 74.8844 69.0926 74.9615 68.8226Z" fill="#797DFF"/>
<path d="M88.3608 62.6895C88.3608 62.6895 87.25 62.566 86.1084 62.8823C86.201 62.998 86.2935 63.1138 86.3938 63.2295C86.309 63.3143 86.2241 63.4069 86.1393 63.4918C86.1393 63.4918 87.0495 63.1755 87.8132 63.2449C87.7977 63.1601 87.7823 63.0829 87.7669 62.998C87.9674 62.8978 88.168 62.7898 88.3608 62.6895Z" fill="#B8BDF4"/>
<path d="M57.2583 67.4571C57.2583 67.4417 61.3466 66.4465 61.8789 66.2691C61.6475 66.4697 61.4161 66.6702 61.1924 66.8708C61.4006 66.9711 61.6089 67.0714 61.8172 67.1717C61.8172 67.1485 57.6517 68.4292 57.2197 68.6529C57.32 68.4446 57.428 68.2286 57.5283 68.0203C57.4357 67.8352 57.3432 67.65 57.2583 67.4571Z" fill="#B8BDF4"/>
<path d="M184.938 44.1202C182.632 45.9486 180.186 45.8638 178.196 45.5475C178.459 45.2774 178.721 45.0074 178.991 44.7374C178.775 44.4751 178.559 44.2051 178.335 43.9428C178.335 43.9351 181.729 44.4674 183.01 43.6034C183.149 43.8039 183.28 44.0045 183.411 44.2051C183.419 44.2051 184.097 44.3748 184.938 44.1202Z" fill="#797DFF"/>
<path d="M156.559 56.9652C156.551 56.9652 155.471 58.6161 155.595 59.0713C155.425 58.9941 155.263 58.917 155.093 58.8398C154.954 58.8553 154.816 58.8784 154.677 58.8938C154.677 58.8938 154.931 57.5669 155.502 56.6489C155.641 56.7414 155.78 56.8417 155.911 56.942C156.127 56.9497 156.343 56.9574 156.559 56.9652Z" fill="#B8BDF4"/>
<path d="M173.314 51.8118C173.314 51.8118 174.625 51.9043 175.828 52.6218C175.689 52.753 175.558 52.8841 175.419 53.0153C175.466 53.2004 175.512 53.3778 175.551 53.563C175.551 53.5553 173.514 52.9998 172.843 53.0538C172.789 52.8224 172.727 52.5987 172.673 52.3672C172.889 52.1744 173.098 51.9892 173.314 51.8118Z" fill="#797DFF"/>
<path d="M187.862 54.1647C187.862 54.1647 187.013 53.4473 185.887 53.0693C185.902 53.2158 185.918 53.3701 185.926 53.5167C185.81 53.5399 185.687 53.5707 185.571 53.5939C185.571 53.5939 186.504 53.833 187.106 54.319C187.137 54.2419 187.168 54.1647 187.206 54.0876C187.422 54.1185 187.638 54.1416 187.862 54.1647Z" fill="#B8BDF4"/>
<path d="M159.351 40.8261C159.359 40.8106 163.309 42.261 163.856 42.4076C163.555 42.4462 163.247 42.4847 162.946 42.5233C163.062 42.7239 163.177 42.9245 163.293 43.1173C163.301 43.1019 159.135 41.8444 158.649 41.7904C158.85 41.6747 159.051 41.5512 159.259 41.4355C159.29 41.2427 159.321 41.0344 159.351 40.8261Z" fill="#B8BDF4"/>
<path d="M155.934 73.0503C155.155 76.6144 152.81 77.8411 150.735 78.5122C150.781 78.0339 150.827 77.5556 150.881 77.0773C150.488 76.8613 150.087 76.653 149.686 76.4447C149.678 76.437 153.226 75.2644 153.766 73.4746C154.036 73.6443 154.314 73.8217 154.584 73.9992C154.592 73.9992 155.348 73.8294 155.934 73.0503Z" fill="#797DFF"/>
<path d="M138.516 103.67C138.516 103.67 138.593 106.239 138.994 106.756C138.793 106.74 138.585 106.717 138.384 106.702C138.269 106.787 138.153 106.879 138.037 106.964C138.037 106.964 137.412 105.182 137.328 103.77C137.52 103.824 137.713 103.886 137.898 103.94C138.114 103.847 138.315 103.755 138.516 103.67Z" fill="#B8BDF4"/>
<path d="M150.611 88.9193C150.611 88.9193 151.891 88.3562 153.496 88.6185C153.457 88.8576 153.419 89.0968 153.38 89.3359C153.542 89.5442 153.704 89.7448 153.866 89.9531C153.866 89.9454 151.598 90.308 151.012 90.7246C150.804 90.47 150.595 90.2077 150.387 89.9531C150.464 89.6059 150.541 89.2588 150.611 88.9193Z" fill="#B8BDF4"/>
<path d="M165.715 84.0359C165.715 84.0359 164.442 83.6039 163.146 83.7505C163.262 83.9279 163.37 84.1131 163.485 84.2905C163.393 84.3908 163.3 84.4911 163.208 84.5837C163.208 84.5837 164.234 84.3754 165.113 84.6454C165.09 84.5297 165.074 84.414 165.051 84.2982C165.275 84.2211 165.499 84.1285 165.715 84.0359Z" fill="#B8BDF4"/>
<path d="M129.591 82.4467C129.599 82.4236 134.42 82.2153 135.037 82.115C134.782 82.3156 134.528 82.5162 134.273 82.7167C134.535 82.9019 134.79 83.087 135.052 83.2722C135.052 83.249 130.185 83.8045 129.676 83.9665C129.776 83.7274 129.876 83.4805 129.977 83.2413C129.853 82.9713 129.722 82.709 129.591 82.4467Z" fill="#B8BDF4"/>
<path d="M125.533 65.8833C123.019 64.919 122.579 63.5921 122.571 62.4735C122.926 62.5815 123.273 62.6895 123.628 62.7975C123.883 62.6509 124.145 62.4966 124.399 62.35C124.399 62.35 124.446 64.2324 125.68 64.7956C125.487 64.8959 125.294 64.9884 125.109 65.0887C125.109 65.0964 125.071 65.4822 125.533 65.8833Z" fill="#797DFF"/>
<path d="M106.395 51.7809C106.395 51.7809 104.32 51.3798 103.772 51.5341C103.857 51.4183 103.934 51.3026 104.019 51.1869C103.988 51.102 103.958 51.0249 103.927 50.94C103.927 50.94 105.562 50.8783 106.719 51.0943C106.611 51.1946 106.495 51.2949 106.387 51.3875C106.395 51.5186 106.395 51.6498 106.395 51.7809Z" fill="#B8BDF4"/>
<path d="M114.587 60.7454C114.587 60.7454 114.718 61.4937 114.155 62.3037C113.978 62.2497 113.8 62.2034 113.623 62.1494C113.43 62.2111 113.229 62.2729 113.037 62.3269C113.037 62.3269 113.26 61.0694 113.083 60.6991C113.33 60.6219 113.584 60.5525 113.831 60.4753C114.093 60.5679 114.34 60.6528 114.587 60.7454Z" fill="#B8BDF4"/>
<path d="M115.475 69.2546C115.475 69.2546 115.984 68.6375 116.076 67.9432C115.922 67.9817 115.768 68.0203 115.613 68.0589C115.552 67.9972 115.49 67.9432 115.428 67.8814C115.428 67.8814 115.428 68.4369 115.089 68.8766C115.181 68.8766 115.274 68.8766 115.359 68.8766C115.397 69.0078 115.436 69.1312 115.475 69.2546Z" fill="#B8BDF4"/>
<path d="M126.081 51.8272C126.073 51.8272 124.492 54.049 124.384 54.3653C124.315 54.2033 124.253 54.0413 124.184 53.8716C123.952 53.9487 123.721 54.0259 123.489 54.103C123.482 54.103 124.801 51.7423 124.885 51.48C125.032 51.588 125.179 51.6883 125.325 51.7963C125.58 51.8118 125.827 51.8195 126.081 51.8272Z" fill="#B8BDF4"/>
</svg>
