<svg width="117" height="117" viewBox="0 0 117 117" fill="none" xmlns="http://www.w3.org/2000/svg">
<path d="M104.172 106.039C86.2687 120.654 30.3673 120.654 12.8296 106.039C-5.0735 91.4242 -3.24669 28.9462 12.8296 12.5046C28.9058 -3.93693 88.0955 -3.93693 104.172 12.5046C120.248 28.9462 122.075 91.4244 104.172 106.039Z" fill="#FA655C"/>
<g opacity="0.2">
<path opacity="0.5" d="M58.8635 80.4633C42.7872 93.2512 24.8842 99.8278 8.07729 100.193C-4.34535 79.0018 -1.78766 27.4849 12.8271 12.5049C25.9804 -1.01369 67.267 -3.57138 91.016 4.83206C96.8618 28.9464 84.8047 59.6372 58.8635 80.4633Z" fill="white"/>
</g>
<path d="M83.1222 36.8777C81.9517 35.7074 80.0745 35.7074 78.9041 36.8777L60 55.7796L41.0959 36.8777C39.9255 35.7074 38.0483 35.7074 36.8778 36.8777C35.7074 38.0481 35.7074 39.925 36.8778 41.0953L55.7819 59.9972L36.8778 78.8991C35.7074 80.0695 35.7074 81.9464 36.8778 83.1167C37.452 83.6909 38.225 84 38.9758 84C39.7267 84 40.4997 83.7129 41.0738 83.1167L59.9779 64.2148L78.882 83.1167C79.4562 83.6909 80.2291 84 80.98 84C81.7529 84 82.5038 83.7129 83.078 83.1167C84.2485 81.9464 84.2485 80.0695 83.078 78.8991L64.2181 59.9972L83.1222 41.0953C84.2926 39.925 84.2926 38.0481 83.1222 36.8777Z" fill="white"/>
</svg>
