<svg width="117" height="117" viewBox="0 0 117 117" fill="none" xmlns="http://www.w3.org/2000/svg">
<path d="M104.172 106.039C86.2687 120.654 30.3673 120.654 12.8296 106.039C-5.0735 91.4241 -3.24669 28.9462 12.8296 12.5046C28.9058 -3.93698 88.0955 -3.93698 104.172 12.5046C120.248 28.9462 122.075 91.4244 104.172 106.039Z" fill="url(#paint0_linear_238_2388)"/>
<g opacity="0.2">
<path opacity="0.5" d="M58.8635 80.4632C42.7872 93.2512 24.8842 99.8278 8.07729 100.193C-4.34535 79.0017 -1.78766 27.4849 12.8271 12.5048C25.9804 -1.01373 67.267 -3.57142 91.016 4.83202C96.8618 28.9464 84.8047 59.6372 58.8635 80.4632Z" fill="white"/>
</g>
<path d="M50.0946 91.0588C47.5369 91.0588 44.9795 89.9626 43.518 87.7705L23.0575 61.464C20.1345 57.8104 20.8654 52.6952 24.519 49.7722C28.1726 46.8492 33.2877 47.5801 36.2107 51.2337L50.0946 69.1368L80.7856 29.3117C83.7086 25.6581 88.8238 24.9272 92.4774 27.8502C96.131 30.7732 96.8619 35.8883 93.9389 39.542L56.6713 87.7705C54.8444 89.5973 52.6523 91.0588 50.0946 91.0588Z" fill="white"/>
<defs>
<linearGradient id="paint0_linear_238_2388" x1="1.10681" y1="43.0517" x2="73.6842" y2="46.8111" gradientUnits="userSpaceOnUse">
<stop stop-color="#5FB572"/>
<stop offset="1" stop-color="#4BE96E"/>
</linearGradient>
</defs>
</svg>
