<svg width="320" height="344" viewBox="0 0 320 344" fill="none" xmlns="http://www.w3.org/2000/svg">
<path d="M-24 343C-118.441 343 -195 266.441 -195 172C-195 77.5593 -118.441 1 -24 1C70.4407 1 147 77.5593 147 172C147 266.441 70.4407 343 -24 343Z" stroke="url(#paint0_radial_702_1504)" stroke-width="2" stroke-miterlimit="10"/>
<path d="M-24 338.564C-115.991 338.564 -190.564 263.991 -190.564 172C-190.564 80.0091 -115.991 5.43567 -24 5.43567C67.991 5.43567 142.564 80.0091 142.564 172C142.564 263.991 67.991 338.564 -24 338.564Z" stroke="url(#paint1_radial_702_1504)" stroke-width="2" stroke-miterlimit="10"/>
<path d="M-24 333.996C-113.468 333.996 -185.996 261.468 -185.996 172C-185.996 82.5322 -113.468 10.0042 -24 10.0042C65.4678 10.0042 137.996 82.5322 137.996 172C137.996 261.468 65.4678 333.996 -24 333.996Z" stroke="url(#paint2_radial_702_1504)" stroke-width="2" stroke-miterlimit="10"/>
<path d="M-24 329.291C-110.869 329.291 -181.291 258.869 -181.291 172C-181.291 85.1309 -110.869 14.7095 -24 14.7095C62.8691 14.7095 133.29 85.1309 133.29 172C133.29 258.869 62.8691 329.291 -24 329.291Z" stroke="url(#paint3_radial_702_1504)" stroke-width="2" stroke-miterlimit="10"/>
<path d="M-24 324.444C-108.192 324.444 -176.444 256.192 -176.444 172C-176.444 87.8077 -108.192 19.5563 -24 19.5563C60.1924 19.5563 128.444 87.8077 128.444 172C128.444 256.192 60.1924 324.444 -24 324.444Z" stroke="url(#paint4_radial_702_1504)" stroke-width="2" stroke-miterlimit="10"/>
<path d="M-24 319.452C-105.435 319.452 -171.452 253.435 -171.452 172C-171.452 90.5647 -105.435 24.5483 -24 24.5483C57.4353 24.5483 123.452 90.5647 123.452 172C123.452 253.435 57.4353 319.452 -24 319.452Z" stroke="url(#paint5_radial_702_1504)" stroke-width="2" stroke-miterlimit="10"/>
<path d="M-24 314.31C-102.595 314.31 -166.31 250.595 -166.31 172C-166.31 93.4046 -102.595 29.6904 -24 29.6904C54.5955 29.6904 118.31 93.4046 118.31 172C118.31 250.595 54.5955 314.31 -24 314.31Z" stroke="url(#paint6_radial_702_1504)" stroke-width="2" stroke-miterlimit="10"/>
<path d="M-24 309.014C-99.6706 309.014 -161.014 247.671 -161.014 172C-161.014 96.3294 -99.6706 34.9863 -24 34.9863C51.6706 34.9863 113.014 96.3294 113.014 172C113.014 247.671 51.6706 309.014 -24 309.014Z" stroke="url(#paint7_radial_702_1504)" stroke-width="2" stroke-miterlimit="10"/>
<path d="M-24 303.559C-96.6577 303.559 -155.558 244.658 -155.558 172C-155.558 99.3423 -96.6577 40.4415 -24 40.4415C48.6578 40.4415 107.559 99.3423 107.559 172C107.559 244.658 48.6578 303.559 -24 303.559Z" stroke="url(#paint8_radial_702_1504)" stroke-width="2" stroke-miterlimit="10"/>
<path d="M-24 297.94C-93.5548 297.94 -149.94 241.555 -149.94 172C-149.94 102.445 -93.5548 46.0599 -24 46.0599C45.5548 46.0599 101.94 102.445 101.94 172C101.94 241.555 45.5548 297.94 -24 297.94Z" stroke="url(#paint9_radial_702_1504)" stroke-width="2" stroke-miterlimit="10"/>
<path d="M-24 292.152C-90.3583 292.152 -144.152 238.358 -144.152 172C-144.152 105.642 -90.3583 51.8478 -24 51.8478C42.3583 51.8478 96.1523 105.642 96.1523 172C96.1523 238.358 42.3583 292.152 -24 292.152Z" stroke="url(#paint10_radial_702_1504)" stroke-width="2" stroke-miterlimit="10"/>
<path d="M-24 286.192C-87.0665 286.192 -138.192 235.066 -138.192 172C-138.192 108.934 -87.0665 57.8081 -24 57.8081C39.0665 57.8081 90.192 108.934 90.192 172C90.192 235.066 39.0665 286.192 -24 286.192Z" stroke="url(#paint11_radial_702_1504)" stroke-width="2" stroke-miterlimit="10"/>
<path d="M-24 280.052C-83.6755 280.052 -132.052 231.676 -132.052 172C-132.052 112.324 -83.6755 63.9479 -24 63.9479C35.6755 63.9479 84.0521 112.324 84.0521 172C84.0521 231.676 35.6755 280.052 -24 280.052Z" stroke="url(#paint12_radial_702_1504)" stroke-width="2" stroke-miterlimit="10"/>
<path d="M-24 273.728C-80.1829 273.728 -125.728 228.183 -125.728 172C-125.728 115.817 -80.1829 70.2719 -24 70.2719C32.1829 70.2719 77.7281 115.817 77.7281 172C77.7281 228.183 32.1829 273.728 -24 273.728Z" stroke="url(#paint13_radial_702_1504)" stroke-width="2" stroke-miterlimit="10"/>
<path d="M-24 267.214C-76.5855 267.214 -119.214 224.585 -119.214 172C-119.214 119.414 -76.5855 76.7855 -24 76.7855C28.5855 76.7855 71.2145 119.414 71.2145 172C71.2145 224.585 28.5855 267.214 -24 267.214Z" stroke="url(#paint14_radial_702_1504)" stroke-width="2" stroke-miterlimit="10"/>
<path d="M-24 260.506C-72.8804 260.506 -112.506 220.88 -112.506 172C-112.506 123.12 -72.8804 83.4942 -24 83.4942C24.8804 83.4942 64.5058 123.12 64.5058 172C64.5058 220.88 24.8804 260.506 -24 260.506Z" stroke="url(#paint15_radial_702_1504)" stroke-width="2" stroke-miterlimit="10"/>
<path d="M-24 253.595C-69.0637 253.595 -105.595 217.064 -105.595 172C-105.595 126.936 -69.0637 90.4049 -24 90.4049C21.0637 90.4049 57.5951 126.936 57.5951 172C57.5951 217.064 21.0637 253.595 -24 253.595Z" stroke="url(#paint16_radial_702_1504)" stroke-width="2" stroke-miterlimit="10"/>
<path d="M-24 246.478C-65.1329 246.478 -98.4777 213.133 -98.4777 172C-98.4777 130.867 -65.1329 97.5223 -24 97.5223C17.1329 97.5223 50.4777 130.867 50.4777 172C50.4777 213.133 17.1329 246.478 -24 246.478Z" stroke="url(#paint17_radial_702_1504)" stroke-width="2" stroke-miterlimit="10"/>
<path d="M-24 239.147C-61.084 239.147 -91.1465 209.084 -91.1465 172C-91.1465 134.916 -61.084 104.854 -24 104.854C13.084 104.854 43.1466 134.916 43.1466 172C43.1466 209.084 13.084 239.147 -24 239.147Z" stroke="url(#paint18_radial_702_1504)" stroke-width="2" stroke-miterlimit="10"/>
<path d="M-24 231.596C-56.9137 231.596 -83.5955 204.914 -83.5955 172C-83.5955 139.086 -56.9137 112.405 -24 112.405C8.91369 112.405 35.5955 139.086 35.5955 172C35.5955 204.914 8.91369 231.596 -24 231.596Z" stroke="url(#paint19_radial_702_1504)" stroke-width="2" stroke-miterlimit="10"/>
<path d="M-24 223.818C-52.618 223.818 -75.8176 200.618 -75.8176 172C-75.8176 143.382 -52.618 120.182 -24 120.182C4.61804 120.182 27.8175 143.382 27.8175 172C27.8175 200.618 4.61804 223.818 -24 223.818Z" stroke="url(#paint20_radial_702_1504)" stroke-width="2" stroke-miterlimit="10"/>
<path d="M-24 215.807C-48.1941 215.807 -67.8072 196.194 -67.8072 172C-67.8072 147.806 -48.1941 128.193 -24 128.193C0.194076 128.193 19.8072 147.806 19.8072 172C19.8072 196.194 0.194076 215.807 -24 215.807Z" stroke="url(#paint21_radial_702_1504)" stroke-width="2" stroke-miterlimit="10"/>
<path d="M-24 207.556C-43.637 207.556 -59.556 191.637 -59.556 172C-59.556 152.363 -43.637 136.444 -24 136.444C-4.36294 136.444 11.556 152.363 11.556 172C11.556 191.637 -4.36294 207.556 -24 207.556Z" stroke="url(#paint22_radial_702_1504)" stroke-width="2" stroke-miterlimit="10"/>
<path d="M-24 199.057C-38.9431 199.057 -51.0569 186.943 -51.0569 172C-51.0569 157.057 -38.9431 144.943 -24 144.943C-9.05685 144.943 3.05696 157.057 3.05696 172C3.05696 186.943 -9.05685 199.057 -24 199.057Z" stroke="url(#paint23_radial_702_1504)" stroke-width="2" stroke-miterlimit="10"/>
<path d="M-24 190.303C-34.1084 190.303 -42.3029 182.108 -42.3029 172C-42.3029 161.892 -34.1084 153.697 -24 153.697C-13.8916 153.697 -5.69703 161.892 -5.69703 172C-5.69703 182.108 -13.8916 190.303 -24 190.303Z" stroke="url(#paint24_radial_702_1504)" stroke-width="2" stroke-miterlimit="10"/>
<path d="M-24 181.287C-29.1291 181.287 -33.2871 177.129 -33.2871 172C-33.2871 166.871 -29.1291 162.713 -24 162.713C-18.8709 162.713 -14.7129 166.871 -14.7129 172C-14.7129 177.129 -18.8709 181.287 -24 181.287Z" stroke="url(#paint25_radial_702_1504)" stroke-width="2" stroke-miterlimit="10"/>
<path d="M343 343C248.559 343 172 266.441 172 172C172 77.5593 248.559 1 343 1C437.441 1 514 77.5593 514 172C514 266.441 437.441 343 343 343Z" stroke="url(#paint26_radial_702_1504)" stroke-width="2" stroke-miterlimit="10"/>
<path d="M343 338.564C251.009 338.564 176.436 263.991 176.436 172C176.436 80.0091 251.009 5.43567 343 5.43567C434.991 5.43567 509.564 80.0091 509.564 172C509.564 263.991 434.991 338.564 343 338.564Z" stroke="url(#paint27_radial_702_1504)" stroke-width="2" stroke-miterlimit="10"/>
<path d="M343 333.996C253.532 333.996 181.004 261.468 181.004 172C181.004 82.5322 253.532 10.0042 343 10.0042C432.468 10.0042 504.996 82.5322 504.996 172C504.996 261.468 432.468 333.996 343 333.996Z" stroke="url(#paint28_radial_702_1504)" stroke-width="2" stroke-miterlimit="10"/>
<path d="M343 329.291C256.131 329.291 185.709 258.869 185.709 172C185.709 85.1309 256.131 14.7095 343 14.7095C429.869 14.7095 500.29 85.1309 500.29 172C500.29 258.869 429.869 329.291 343 329.291Z" stroke="url(#paint29_radial_702_1504)" stroke-width="2" stroke-miterlimit="10"/>
<path d="M343 324.444C258.808 324.444 190.556 256.192 190.556 172C190.556 87.8077 258.808 19.5563 343 19.5563C427.192 19.5563 495.444 87.8077 495.444 172C495.444 256.192 427.192 324.444 343 324.444Z" stroke="url(#paint30_radial_702_1504)" stroke-width="2" stroke-miterlimit="10"/>
<path d="M343 319.452C261.565 319.452 195.548 253.435 195.548 172C195.548 90.5647 261.565 24.5483 343 24.5483C424.435 24.5483 490.452 90.5647 490.452 172C490.452 253.435 424.435 319.452 343 319.452Z" stroke="url(#paint31_radial_702_1504)" stroke-width="2" stroke-miterlimit="10"/>
<path d="M343 314.31C264.405 314.31 200.69 250.595 200.69 172C200.69 93.4046 264.405 29.6904 343 29.6904C421.595 29.6904 485.31 93.4046 485.31 172C485.31 250.595 421.595 314.31 343 314.31Z" stroke="url(#paint32_radial_702_1504)" stroke-width="2" stroke-miterlimit="10"/>
<path d="M343 309.014C267.329 309.014 205.986 247.671 205.986 172C205.986 96.3294 267.329 34.9863 343 34.9863C418.671 34.9863 480.014 96.3294 480.014 172C480.014 247.671 418.671 309.014 343 309.014Z" stroke="url(#paint33_radial_702_1504)" stroke-width="2" stroke-miterlimit="10"/>
<path d="M343 303.559C270.342 303.559 211.442 244.658 211.442 172C211.442 99.3423 270.342 40.4415 343 40.4415C415.658 40.4415 474.559 99.3423 474.559 172C474.559 244.658 415.658 303.559 343 303.559Z" stroke="url(#paint34_radial_702_1504)" stroke-width="2" stroke-miterlimit="10"/>
<path d="M343 297.94C273.445 297.94 217.06 241.555 217.06 172C217.06 102.445 273.445 46.0599 343 46.0599C412.555 46.0599 468.94 102.445 468.94 172C468.94 241.555 412.555 297.94 343 297.94Z" stroke="url(#paint35_radial_702_1504)" stroke-width="2" stroke-miterlimit="10"/>
<path d="M343 292.152C276.642 292.152 222.848 238.358 222.848 172C222.848 105.642 276.642 51.8478 343 51.8478C409.358 51.8478 463.152 105.642 463.152 172C463.152 238.358 409.358 292.152 343 292.152Z" stroke="url(#paint36_radial_702_1504)" stroke-width="2" stroke-miterlimit="10"/>
<path d="M343 286.192C279.934 286.192 228.808 235.066 228.808 172C228.808 108.934 279.934 57.8081 343 57.8081C406.066 57.8081 457.192 108.934 457.192 172C457.192 235.066 406.066 286.192 343 286.192Z" stroke="url(#paint37_radial_702_1504)" stroke-width="2" stroke-miterlimit="10"/>
<path d="M343 280.052C283.324 280.052 234.948 231.676 234.948 172C234.948 112.324 283.324 63.9479 343 63.9479C402.676 63.9479 451.052 112.324 451.052 172C451.052 231.676 402.676 280.052 343 280.052Z" stroke="url(#paint38_radial_702_1504)" stroke-width="2" stroke-miterlimit="10"/>
<path d="M343 273.728C286.817 273.728 241.272 228.183 241.272 172C241.272 115.817 286.817 70.2719 343 70.2719C399.183 70.2719 444.728 115.817 444.728 172C444.728 228.183 399.183 273.728 343 273.728Z" stroke="url(#paint39_radial_702_1504)" stroke-width="2" stroke-miterlimit="10"/>
<path d="M343 267.214C290.414 267.214 247.786 224.585 247.786 172C247.786 119.414 290.414 76.7855 343 76.7855C395.585 76.7855 438.214 119.414 438.214 172C438.214 224.585 395.585 267.214 343 267.214Z" stroke="url(#paint40_radial_702_1504)" stroke-width="2" stroke-miterlimit="10"/>
<path d="M343 260.506C294.12 260.506 254.494 220.88 254.494 172C254.494 123.12 294.12 83.4942 343 83.4942C391.88 83.4942 431.506 123.12 431.506 172C431.506 220.88 391.88 260.506 343 260.506Z" stroke="url(#paint41_radial_702_1504)" stroke-width="2" stroke-miterlimit="10"/>
<path d="M343 253.595C297.936 253.595 261.405 217.064 261.405 172C261.405 126.936 297.936 90.4049 343 90.4049C388.064 90.4049 424.595 126.936 424.595 172C424.595 217.064 388.064 253.595 343 253.595Z" stroke="url(#paint42_radial_702_1504)" stroke-width="2" stroke-miterlimit="10"/>
<path d="M343 246.478C301.867 246.478 268.522 213.133 268.522 172C268.522 130.867 301.867 97.5223 343 97.5223C384.133 97.5223 417.478 130.867 417.478 172C417.478 213.133 384.133 246.478 343 246.478Z" stroke="url(#paint43_radial_702_1504)" stroke-width="2" stroke-miterlimit="10"/>
<path d="M343 239.147C305.916 239.147 275.853 209.084 275.853 172C275.853 134.916 305.916 104.854 343 104.854C380.084 104.854 410.147 134.916 410.147 172C410.147 209.084 380.084 239.147 343 239.147Z" stroke="url(#paint44_radial_702_1504)" stroke-width="2" stroke-miterlimit="10"/>
<path d="M343 231.596C310.086 231.596 283.405 204.914 283.405 172C283.405 139.086 310.086 112.405 343 112.405C375.914 112.405 402.596 139.086 402.596 172C402.596 204.914 375.914 231.596 343 231.596Z" stroke="url(#paint45_radial_702_1504)" stroke-width="2" stroke-miterlimit="10"/>
<path d="M343 223.818C314.382 223.818 291.182 200.618 291.182 172C291.182 143.382 314.382 120.182 343 120.182C371.618 120.182 394.818 143.382 394.818 172C394.818 200.618 371.618 223.818 343 223.818Z" stroke="url(#paint46_radial_702_1504)" stroke-width="2" stroke-miterlimit="10"/>
<path d="M343 215.807C318.806 215.807 299.193 196.194 299.193 172C299.193 147.806 318.806 128.193 343 128.193C367.194 128.193 386.807 147.806 386.807 172C386.807 196.194 367.194 215.807 343 215.807Z" stroke="url(#paint47_radial_702_1504)" stroke-width="2" stroke-miterlimit="10"/>
<path d="M343 207.556C323.363 207.556 307.444 191.637 307.444 172C307.444 152.363 323.363 136.444 343 136.444C362.637 136.444 378.556 152.363 378.556 172C378.556 191.637 362.637 207.556 343 207.556Z" stroke="url(#paint48_radial_702_1504)" stroke-width="2" stroke-miterlimit="10"/>
<path d="M343 199.057C328.057 199.057 315.943 186.943 315.943 172C315.943 157.057 328.057 144.943 343 144.943C357.943 144.943 370.057 157.057 370.057 172C370.057 186.943 357.943 199.057 343 199.057Z" stroke="url(#paint49_radial_702_1504)" stroke-width="2" stroke-miterlimit="10"/>
<path d="M343 190.303C332.892 190.303 324.697 182.108 324.697 172C324.697 161.892 332.892 153.697 343 153.697C353.108 153.697 361.303 161.892 361.303 172C361.303 182.108 353.108 190.303 343 190.303Z" stroke="url(#paint50_radial_702_1504)" stroke-width="2" stroke-miterlimit="10"/>
<path d="M343 181.287C337.871 181.287 333.713 177.129 333.713 172C333.713 166.871 337.871 162.713 343 162.713C348.129 162.713 352.287 166.871 352.287 172C352.287 177.129 348.129 181.287 343 181.287Z" stroke="url(#paint51_radial_702_1504)" stroke-width="2" stroke-miterlimit="10"/>
<defs>
<radialGradient id="paint0_radial_702_1504" cx="0" cy="0" r="1" gradientUnits="userSpaceOnUse" gradientTransform="translate(-24 172) rotate(90) scale(171)">
<stop stop-color="#5EBA72"/>
<stop offset="0.901042" stop-color="#5DBC72" stop-opacity="0"/>
</radialGradient>
<radialGradient id="paint1_radial_702_1504" cx="0" cy="0" r="1" gradientUnits="userSpaceOnUse" gradientTransform="translate(-24 172) rotate(90) scale(171)">
<stop stop-color="#5EBA72"/>
<stop offset="0.901042" stop-color="#5DBC72" stop-opacity="0"/>
</radialGradient>
<radialGradient id="paint2_radial_702_1504" cx="0" cy="0" r="1" gradientUnits="userSpaceOnUse" gradientTransform="translate(-24 172) rotate(90) scale(171)">
<stop stop-color="#5EBA72"/>
<stop offset="0.901042" stop-color="#5DBC72" stop-opacity="0"/>
</radialGradient>
<radialGradient id="paint3_radial_702_1504" cx="0" cy="0" r="1" gradientUnits="userSpaceOnUse" gradientTransform="translate(-24 172) rotate(90) scale(171)">
<stop stop-color="#5EBA72"/>
<stop offset="0.901042" stop-color="#5DBC72" stop-opacity="0"/>
</radialGradient>
<radialGradient id="paint4_radial_702_1504" cx="0" cy="0" r="1" gradientUnits="userSpaceOnUse" gradientTransform="translate(-24 172) rotate(90) scale(171)">
<stop stop-color="#5EBA72"/>
<stop offset="0.901042" stop-color="#5DBC72" stop-opacity="0"/>
</radialGradient>
<radialGradient id="paint5_radial_702_1504" cx="0" cy="0" r="1" gradientUnits="userSpaceOnUse" gradientTransform="translate(-24 172) rotate(90) scale(171)">
<stop stop-color="#5EBA72"/>
<stop offset="0.901042" stop-color="#5DBC72" stop-opacity="0"/>
</radialGradient>
<radialGradient id="paint6_radial_702_1504" cx="0" cy="0" r="1" gradientUnits="userSpaceOnUse" gradientTransform="translate(-24 172) rotate(90) scale(171)">
<stop stop-color="#5EBA72"/>
<stop offset="0.901042" stop-color="#5DBC72" stop-opacity="0"/>
</radialGradient>
<radialGradient id="paint7_radial_702_1504" cx="0" cy="0" r="1" gradientUnits="userSpaceOnUse" gradientTransform="translate(-24 172) rotate(90) scale(171)">
<stop stop-color="#5EBA72"/>
<stop offset="0.901042" stop-color="#5DBC72" stop-opacity="0"/>
</radialGradient>
<radialGradient id="paint8_radial_702_1504" cx="0" cy="0" r="1" gradientUnits="userSpaceOnUse" gradientTransform="translate(-24 172) rotate(90) scale(171)">
<stop stop-color="#5EBA72"/>
<stop offset="0.901042" stop-color="#5DBC72" stop-opacity="0"/>
</radialGradient>
<radialGradient id="paint9_radial_702_1504" cx="0" cy="0" r="1" gradientUnits="userSpaceOnUse" gradientTransform="translate(-24 172) rotate(90) scale(171)">
<stop stop-color="#5EBA72"/>
<stop offset="0.901042" stop-color="#5DBC72" stop-opacity="0"/>
</radialGradient>
<radialGradient id="paint10_radial_702_1504" cx="0" cy="0" r="1" gradientUnits="userSpaceOnUse" gradientTransform="translate(-24 172) rotate(90) scale(171)">
<stop stop-color="#5EBA72"/>
<stop offset="0.901042" stop-color="#5DBC72" stop-opacity="0"/>
</radialGradient>
<radialGradient id="paint11_radial_702_1504" cx="0" cy="0" r="1" gradientUnits="userSpaceOnUse" gradientTransform="translate(-24 172) rotate(90) scale(171)">
<stop stop-color="#5EBA72"/>
<stop offset="0.901042" stop-color="#5DBC72" stop-opacity="0"/>
</radialGradient>
<radialGradient id="paint12_radial_702_1504" cx="0" cy="0" r="1" gradientUnits="userSpaceOnUse" gradientTransform="translate(-24 172) rotate(90) scale(171)">
<stop stop-color="#5EBA72"/>
<stop offset="0.901042" stop-color="#5DBC72" stop-opacity="0"/>
</radialGradient>
<radialGradient id="paint13_radial_702_1504" cx="0" cy="0" r="1" gradientUnits="userSpaceOnUse" gradientTransform="translate(-24 172) rotate(90) scale(171)">
<stop stop-color="#5EBA72"/>
<stop offset="0.901042" stop-color="#5DBC72" stop-opacity="0"/>
</radialGradient>
<radialGradient id="paint14_radial_702_1504" cx="0" cy="0" r="1" gradientUnits="userSpaceOnUse" gradientTransform="translate(-24 172) rotate(90) scale(171)">
<stop stop-color="#5EBA72"/>
<stop offset="0.901042" stop-color="#5DBC72" stop-opacity="0"/>
</radialGradient>
<radialGradient id="paint15_radial_702_1504" cx="0" cy="0" r="1" gradientUnits="userSpaceOnUse" gradientTransform="translate(-24 172) rotate(90) scale(171)">
<stop stop-color="#5EBA72"/>
<stop offset="0.901042" stop-color="#5DBC72" stop-opacity="0"/>
</radialGradient>
<radialGradient id="paint16_radial_702_1504" cx="0" cy="0" r="1" gradientUnits="userSpaceOnUse" gradientTransform="translate(-24 172) rotate(90) scale(171)">
<stop stop-color="#5EBA72"/>
<stop offset="0.901042" stop-color="#5DBC72" stop-opacity="0"/>
</radialGradient>
<radialGradient id="paint17_radial_702_1504" cx="0" cy="0" r="1" gradientUnits="userSpaceOnUse" gradientTransform="translate(-24 172) rotate(90) scale(171)">
<stop stop-color="#5EBA72"/>
<stop offset="0.901042" stop-color="#5DBC72" stop-opacity="0"/>
</radialGradient>
<radialGradient id="paint18_radial_702_1504" cx="0" cy="0" r="1" gradientUnits="userSpaceOnUse" gradientTransform="translate(-24 172) rotate(90) scale(171)">
<stop stop-color="#5EBA72"/>
<stop offset="0.901042" stop-color="#5DBC72" stop-opacity="0"/>
</radialGradient>
<radialGradient id="paint19_radial_702_1504" cx="0" cy="0" r="1" gradientUnits="userSpaceOnUse" gradientTransform="translate(-24 172) rotate(90) scale(171)">
<stop stop-color="#5EBA72"/>
<stop offset="0.901042" stop-color="#5DBC72" stop-opacity="0"/>
</radialGradient>
<radialGradient id="paint20_radial_702_1504" cx="0" cy="0" r="1" gradientUnits="userSpaceOnUse" gradientTransform="translate(-24 172) rotate(90) scale(171)">
<stop stop-color="#5EBA72"/>
<stop offset="0.901042" stop-color="#5DBC72" stop-opacity="0"/>
</radialGradient>
<radialGradient id="paint21_radial_702_1504" cx="0" cy="0" r="1" gradientUnits="userSpaceOnUse" gradientTransform="translate(-24 172) rotate(90) scale(171)">
<stop stop-color="#5EBA72"/>
<stop offset="0.901042" stop-color="#5DBC72" stop-opacity="0"/>
</radialGradient>
<radialGradient id="paint22_radial_702_1504" cx="0" cy="0" r="1" gradientUnits="userSpaceOnUse" gradientTransform="translate(-24 172) rotate(90) scale(171)">
<stop stop-color="#5EBA72"/>
<stop offset="0.901042" stop-color="#5DBC72" stop-opacity="0"/>
</radialGradient>
<radialGradient id="paint23_radial_702_1504" cx="0" cy="0" r="1" gradientUnits="userSpaceOnUse" gradientTransform="translate(-24 172) rotate(90) scale(171)">
<stop stop-color="#5EBA72"/>
<stop offset="0.901042" stop-color="#5DBC72" stop-opacity="0"/>
</radialGradient>
<radialGradient id="paint24_radial_702_1504" cx="0" cy="0" r="1" gradientUnits="userSpaceOnUse" gradientTransform="translate(-24 172) rotate(90) scale(171)">
<stop stop-color="#5EBA72"/>
<stop offset="0.901042" stop-color="#5DBC72" stop-opacity="0"/>
</radialGradient>
<radialGradient id="paint25_radial_702_1504" cx="0" cy="0" r="1" gradientUnits="userSpaceOnUse" gradientTransform="translate(-24 172) rotate(90) scale(171)">
<stop stop-color="#5EBA72"/>
<stop offset="0.901042" stop-color="#5DBC72" stop-opacity="0"/>
</radialGradient>
<radialGradient id="paint26_radial_702_1504" cx="0" cy="0" r="1" gradientUnits="userSpaceOnUse" gradientTransform="translate(343 172) rotate(90) scale(171)">
<stop stop-color="#5EBA72"/>
<stop offset="0.901042" stop-color="#5DBC72" stop-opacity="0"/>
</radialGradient>
<radialGradient id="paint27_radial_702_1504" cx="0" cy="0" r="1" gradientUnits="userSpaceOnUse" gradientTransform="translate(343 172) rotate(90) scale(171)">
<stop stop-color="#5EBA72"/>
<stop offset="0.901042" stop-color="#5DBC72" stop-opacity="0"/>
</radialGradient>
<radialGradient id="paint28_radial_702_1504" cx="0" cy="0" r="1" gradientUnits="userSpaceOnUse" gradientTransform="translate(343 172) rotate(90) scale(171)">
<stop stop-color="#5EBA72"/>
<stop offset="0.901042" stop-color="#5DBC72" stop-opacity="0"/>
</radialGradient>
<radialGradient id="paint29_radial_702_1504" cx="0" cy="0" r="1" gradientUnits="userSpaceOnUse" gradientTransform="translate(343 172) rotate(90) scale(171)">
<stop stop-color="#5EBA72"/>
<stop offset="0.901042" stop-color="#5DBC72" stop-opacity="0"/>
</radialGradient>
<radialGradient id="paint30_radial_702_1504" cx="0" cy="0" r="1" gradientUnits="userSpaceOnUse" gradientTransform="translate(343 172) rotate(90) scale(171)">
<stop stop-color="#5EBA72"/>
<stop offset="0.901042" stop-color="#5DBC72" stop-opacity="0"/>
</radialGradient>
<radialGradient id="paint31_radial_702_1504" cx="0" cy="0" r="1" gradientUnits="userSpaceOnUse" gradientTransform="translate(343 172) rotate(90) scale(171)">
<stop stop-color="#5EBA72"/>
<stop offset="0.901042" stop-color="#5DBC72" stop-opacity="0"/>
</radialGradient>
<radialGradient id="paint32_radial_702_1504" cx="0" cy="0" r="1" gradientUnits="userSpaceOnUse" gradientTransform="translate(343 172) rotate(90) scale(171)">
<stop stop-color="#5EBA72"/>
<stop offset="0.901042" stop-color="#5DBC72" stop-opacity="0"/>
</radialGradient>
<radialGradient id="paint33_radial_702_1504" cx="0" cy="0" r="1" gradientUnits="userSpaceOnUse" gradientTransform="translate(343 172) rotate(90) scale(171)">
<stop stop-color="#5EBA72"/>
<stop offset="0.901042" stop-color="#5DBC72" stop-opacity="0"/>
</radialGradient>
<radialGradient id="paint34_radial_702_1504" cx="0" cy="0" r="1" gradientUnits="userSpaceOnUse" gradientTransform="translate(343 172) rotate(90) scale(171)">
<stop stop-color="#5EBA72"/>
<stop offset="0.901042" stop-color="#5DBC72" stop-opacity="0"/>
</radialGradient>
<radialGradient id="paint35_radial_702_1504" cx="0" cy="0" r="1" gradientUnits="userSpaceOnUse" gradientTransform="translate(343 172) rotate(90) scale(171)">
<stop stop-color="#5EBA72"/>
<stop offset="0.901042" stop-color="#5DBC72" stop-opacity="0"/>
</radialGradient>
<radialGradient id="paint36_radial_702_1504" cx="0" cy="0" r="1" gradientUnits="userSpaceOnUse" gradientTransform="translate(343 172) rotate(90) scale(171)">
<stop stop-color="#5EBA72"/>
<stop offset="0.901042" stop-color="#5DBC72" stop-opacity="0"/>
</radialGradient>
<radialGradient id="paint37_radial_702_1504" cx="0" cy="0" r="1" gradientUnits="userSpaceOnUse" gradientTransform="translate(343 172) rotate(90) scale(171)">
<stop stop-color="#5EBA72"/>
<stop offset="0.901042" stop-color="#5DBC72" stop-opacity="0"/>
</radialGradient>
<radialGradient id="paint38_radial_702_1504" cx="0" cy="0" r="1" gradientUnits="userSpaceOnUse" gradientTransform="translate(343 172) rotate(90) scale(171)">
<stop stop-color="#5EBA72"/>
<stop offset="0.901042" stop-color="#5DBC72" stop-opacity="0"/>
</radialGradient>
<radialGradient id="paint39_radial_702_1504" cx="0" cy="0" r="1" gradientUnits="userSpaceOnUse" gradientTransform="translate(343 172) rotate(90) scale(171)">
<stop stop-color="#5EBA72"/>
<stop offset="0.901042" stop-color="#5DBC72" stop-opacity="0"/>
</radialGradient>
<radialGradient id="paint40_radial_702_1504" cx="0" cy="0" r="1" gradientUnits="userSpaceOnUse" gradientTransform="translate(343 172) rotate(90) scale(171)">
<stop stop-color="#5EBA72"/>
<stop offset="0.901042" stop-color="#5DBC72" stop-opacity="0"/>
</radialGradient>
<radialGradient id="paint41_radial_702_1504" cx="0" cy="0" r="1" gradientUnits="userSpaceOnUse" gradientTransform="translate(343 172) rotate(90) scale(171)">
<stop stop-color="#5EBA72"/>
<stop offset="0.901042" stop-color="#5DBC72" stop-opacity="0"/>
</radialGradient>
<radialGradient id="paint42_radial_702_1504" cx="0" cy="0" r="1" gradientUnits="userSpaceOnUse" gradientTransform="translate(343 172) rotate(90) scale(171)">
<stop stop-color="#5EBA72"/>
<stop offset="0.901042" stop-color="#5DBC72" stop-opacity="0"/>
</radialGradient>
<radialGradient id="paint43_radial_702_1504" cx="0" cy="0" r="1" gradientUnits="userSpaceOnUse" gradientTransform="translate(343 172) rotate(90) scale(171)">
<stop stop-color="#5EBA72"/>
<stop offset="0.901042" stop-color="#5DBC72" stop-opacity="0"/>
</radialGradient>
<radialGradient id="paint44_radial_702_1504" cx="0" cy="0" r="1" gradientUnits="userSpaceOnUse" gradientTransform="translate(343 172) rotate(90) scale(171)">
<stop stop-color="#5EBA72"/>
<stop offset="0.901042" stop-color="#5DBC72" stop-opacity="0"/>
</radialGradient>
<radialGradient id="paint45_radial_702_1504" cx="0" cy="0" r="1" gradientUnits="userSpaceOnUse" gradientTransform="translate(343 172) rotate(90) scale(171)">
<stop stop-color="#5EBA72"/>
<stop offset="0.901042" stop-color="#5DBC72" stop-opacity="0"/>
</radialGradient>
<radialGradient id="paint46_radial_702_1504" cx="0" cy="0" r="1" gradientUnits="userSpaceOnUse" gradientTransform="translate(343 172) rotate(90) scale(171)">
<stop stop-color="#5EBA72"/>
<stop offset="0.901042" stop-color="#5DBC72" stop-opacity="0"/>
</radialGradient>
<radialGradient id="paint47_radial_702_1504" cx="0" cy="0" r="1" gradientUnits="userSpaceOnUse" gradientTransform="translate(343 172) rotate(90) scale(171)">
<stop stop-color="#5EBA72"/>
<stop offset="0.901042" stop-color="#5DBC72" stop-opacity="0"/>
</radialGradient>
<radialGradient id="paint48_radial_702_1504" cx="0" cy="0" r="1" gradientUnits="userSpaceOnUse" gradientTransform="translate(343 172) rotate(90) scale(171)">
<stop stop-color="#5EBA72"/>
<stop offset="0.901042" stop-color="#5DBC72" stop-opacity="0"/>
</radialGradient>
<radialGradient id="paint49_radial_702_1504" cx="0" cy="0" r="1" gradientUnits="userSpaceOnUse" gradientTransform="translate(343 172) rotate(90) scale(171)">
<stop stop-color="#5EBA72"/>
<stop offset="0.901042" stop-color="#5DBC72" stop-opacity="0"/>
</radialGradient>
<radialGradient id="paint50_radial_702_1504" cx="0" cy="0" r="1" gradientUnits="userSpaceOnUse" gradientTransform="translate(343 172) rotate(90) scale(171)">
<stop stop-color="#5EBA72"/>
<stop offset="0.901042" stop-color="#5DBC72" stop-opacity="0"/>
</radialGradient>
<radialGradient id="paint51_radial_702_1504" cx="0" cy="0" r="1" gradientUnits="userSpaceOnUse" gradientTransform="translate(343 172) rotate(90) scale(171)">
<stop stop-color="#5EBA72"/>
<stop offset="0.901042" stop-color="#5DBC72" stop-opacity="0"/>
</radialGradient>
</defs>
</svg>
